G75*
%MOIN*%
%OFA0B0*%
%FSLAX25Y25*%
%IPPOS*%
%LPD*%
%AMOC8*
5,1,8,0,0,1.08239X$1,22.5*
%
%ADD10C,0.00000*%
%ADD11C,0.00500*%
D10*
X0004300Y0012866D02*
X0004300Y0233366D01*
X0342800Y0233366D01*
X0342800Y0012866D01*
X0004300Y0012866D01*
X0017300Y0033466D02*
X0017302Y0033525D01*
X0017308Y0033585D01*
X0017318Y0033643D01*
X0017331Y0033701D01*
X0017349Y0033758D01*
X0017370Y0033814D01*
X0017395Y0033868D01*
X0017423Y0033920D01*
X0017455Y0033971D01*
X0017490Y0034019D01*
X0017528Y0034065D01*
X0017569Y0034108D01*
X0017613Y0034148D01*
X0017659Y0034185D01*
X0017708Y0034219D01*
X0017759Y0034250D01*
X0017811Y0034278D01*
X0017866Y0034302D01*
X0017922Y0034322D01*
X0017979Y0034338D01*
X0018037Y0034351D01*
X0018096Y0034360D01*
X0018155Y0034365D01*
X0018215Y0034366D01*
X0018274Y0034363D01*
X0018333Y0034356D01*
X0018392Y0034345D01*
X0018450Y0034331D01*
X0018506Y0034312D01*
X0018562Y0034290D01*
X0018615Y0034265D01*
X0018667Y0034235D01*
X0018717Y0034203D01*
X0018764Y0034167D01*
X0018810Y0034128D01*
X0018852Y0034086D01*
X0018892Y0034042D01*
X0018928Y0033995D01*
X0018961Y0033946D01*
X0018992Y0033894D01*
X0019018Y0033841D01*
X0019041Y0033786D01*
X0019060Y0033730D01*
X0019076Y0033672D01*
X0019088Y0033614D01*
X0019096Y0033555D01*
X0019100Y0033496D01*
X0019100Y0033436D01*
X0019096Y0033377D01*
X0019088Y0033318D01*
X0019076Y0033260D01*
X0019060Y0033202D01*
X0019041Y0033146D01*
X0019018Y0033091D01*
X0018992Y0033038D01*
X0018961Y0032986D01*
X0018928Y0032937D01*
X0018892Y0032890D01*
X0018852Y0032846D01*
X0018810Y0032804D01*
X0018764Y0032765D01*
X0018717Y0032729D01*
X0018667Y0032697D01*
X0018615Y0032667D01*
X0018562Y0032642D01*
X0018506Y0032620D01*
X0018450Y0032601D01*
X0018392Y0032587D01*
X0018333Y0032576D01*
X0018274Y0032569D01*
X0018215Y0032566D01*
X0018155Y0032567D01*
X0018096Y0032572D01*
X0018037Y0032581D01*
X0017979Y0032594D01*
X0017922Y0032610D01*
X0017866Y0032630D01*
X0017811Y0032654D01*
X0017759Y0032682D01*
X0017708Y0032713D01*
X0017659Y0032747D01*
X0017613Y0032784D01*
X0017569Y0032824D01*
X0017528Y0032867D01*
X0017490Y0032913D01*
X0017455Y0032961D01*
X0017423Y0033012D01*
X0017395Y0033064D01*
X0017370Y0033118D01*
X0017349Y0033174D01*
X0017331Y0033231D01*
X0017318Y0033289D01*
X0017308Y0033347D01*
X0017302Y0033407D01*
X0017300Y0033466D01*
X0017300Y0049266D02*
X0017302Y0049325D01*
X0017308Y0049385D01*
X0017318Y0049443D01*
X0017331Y0049501D01*
X0017349Y0049558D01*
X0017370Y0049614D01*
X0017395Y0049668D01*
X0017423Y0049720D01*
X0017455Y0049771D01*
X0017490Y0049819D01*
X0017528Y0049865D01*
X0017569Y0049908D01*
X0017613Y0049948D01*
X0017659Y0049985D01*
X0017708Y0050019D01*
X0017759Y0050050D01*
X0017811Y0050078D01*
X0017866Y0050102D01*
X0017922Y0050122D01*
X0017979Y0050138D01*
X0018037Y0050151D01*
X0018096Y0050160D01*
X0018155Y0050165D01*
X0018215Y0050166D01*
X0018274Y0050163D01*
X0018333Y0050156D01*
X0018392Y0050145D01*
X0018450Y0050131D01*
X0018506Y0050112D01*
X0018562Y0050090D01*
X0018615Y0050065D01*
X0018667Y0050035D01*
X0018717Y0050003D01*
X0018764Y0049967D01*
X0018810Y0049928D01*
X0018852Y0049886D01*
X0018892Y0049842D01*
X0018928Y0049795D01*
X0018961Y0049746D01*
X0018992Y0049694D01*
X0019018Y0049641D01*
X0019041Y0049586D01*
X0019060Y0049530D01*
X0019076Y0049472D01*
X0019088Y0049414D01*
X0019096Y0049355D01*
X0019100Y0049296D01*
X0019100Y0049236D01*
X0019096Y0049177D01*
X0019088Y0049118D01*
X0019076Y0049060D01*
X0019060Y0049002D01*
X0019041Y0048946D01*
X0019018Y0048891D01*
X0018992Y0048838D01*
X0018961Y0048786D01*
X0018928Y0048737D01*
X0018892Y0048690D01*
X0018852Y0048646D01*
X0018810Y0048604D01*
X0018764Y0048565D01*
X0018717Y0048529D01*
X0018667Y0048497D01*
X0018615Y0048467D01*
X0018562Y0048442D01*
X0018506Y0048420D01*
X0018450Y0048401D01*
X0018392Y0048387D01*
X0018333Y0048376D01*
X0018274Y0048369D01*
X0018215Y0048366D01*
X0018155Y0048367D01*
X0018096Y0048372D01*
X0018037Y0048381D01*
X0017979Y0048394D01*
X0017922Y0048410D01*
X0017866Y0048430D01*
X0017811Y0048454D01*
X0017759Y0048482D01*
X0017708Y0048513D01*
X0017659Y0048547D01*
X0017613Y0048584D01*
X0017569Y0048624D01*
X0017528Y0048667D01*
X0017490Y0048713D01*
X0017455Y0048761D01*
X0017423Y0048812D01*
X0017395Y0048864D01*
X0017370Y0048918D01*
X0017349Y0048974D01*
X0017331Y0049031D01*
X0017318Y0049089D01*
X0017308Y0049147D01*
X0017302Y0049207D01*
X0017300Y0049266D01*
X0058760Y0088241D02*
X0058762Y0088334D01*
X0058768Y0088426D01*
X0058778Y0088518D01*
X0058792Y0088609D01*
X0058809Y0088700D01*
X0058831Y0088790D01*
X0058856Y0088879D01*
X0058885Y0088967D01*
X0058918Y0089053D01*
X0058955Y0089138D01*
X0058995Y0089222D01*
X0059039Y0089303D01*
X0059086Y0089383D01*
X0059136Y0089461D01*
X0059190Y0089536D01*
X0059247Y0089609D01*
X0059307Y0089679D01*
X0059370Y0089747D01*
X0059436Y0089812D01*
X0059504Y0089874D01*
X0059575Y0089934D01*
X0059649Y0089990D01*
X0059725Y0090043D01*
X0059803Y0090092D01*
X0059883Y0090139D01*
X0059965Y0090181D01*
X0060049Y0090221D01*
X0060134Y0090256D01*
X0060221Y0090288D01*
X0060309Y0090317D01*
X0060398Y0090341D01*
X0060488Y0090362D01*
X0060579Y0090378D01*
X0060671Y0090391D01*
X0060763Y0090400D01*
X0060856Y0090405D01*
X0060948Y0090406D01*
X0061041Y0090403D01*
X0061133Y0090396D01*
X0061225Y0090385D01*
X0061316Y0090370D01*
X0061407Y0090352D01*
X0061497Y0090329D01*
X0061585Y0090303D01*
X0061673Y0090273D01*
X0061759Y0090239D01*
X0061843Y0090202D01*
X0061926Y0090160D01*
X0062007Y0090116D01*
X0062087Y0090068D01*
X0062164Y0090017D01*
X0062238Y0089962D01*
X0062311Y0089904D01*
X0062381Y0089844D01*
X0062448Y0089780D01*
X0062512Y0089714D01*
X0062574Y0089644D01*
X0062632Y0089573D01*
X0062687Y0089499D01*
X0062739Y0089422D01*
X0062788Y0089343D01*
X0062834Y0089263D01*
X0062876Y0089180D01*
X0062914Y0089096D01*
X0062949Y0089010D01*
X0062980Y0088923D01*
X0063007Y0088835D01*
X0063030Y0088745D01*
X0063050Y0088655D01*
X0063066Y0088564D01*
X0063078Y0088472D01*
X0063086Y0088380D01*
X0063090Y0088287D01*
X0063090Y0088195D01*
X0063086Y0088102D01*
X0063078Y0088010D01*
X0063066Y0087918D01*
X0063050Y0087827D01*
X0063030Y0087737D01*
X0063007Y0087647D01*
X0062980Y0087559D01*
X0062949Y0087472D01*
X0062914Y0087386D01*
X0062876Y0087302D01*
X0062834Y0087219D01*
X0062788Y0087139D01*
X0062739Y0087060D01*
X0062687Y0086983D01*
X0062632Y0086909D01*
X0062574Y0086838D01*
X0062512Y0086768D01*
X0062448Y0086702D01*
X0062381Y0086638D01*
X0062311Y0086578D01*
X0062238Y0086520D01*
X0062164Y0086465D01*
X0062087Y0086414D01*
X0062008Y0086366D01*
X0061926Y0086322D01*
X0061843Y0086280D01*
X0061759Y0086243D01*
X0061673Y0086209D01*
X0061585Y0086179D01*
X0061497Y0086153D01*
X0061407Y0086130D01*
X0061316Y0086112D01*
X0061225Y0086097D01*
X0061133Y0086086D01*
X0061041Y0086079D01*
X0060948Y0086076D01*
X0060856Y0086077D01*
X0060763Y0086082D01*
X0060671Y0086091D01*
X0060579Y0086104D01*
X0060488Y0086120D01*
X0060398Y0086141D01*
X0060309Y0086165D01*
X0060221Y0086194D01*
X0060134Y0086226D01*
X0060049Y0086261D01*
X0059965Y0086301D01*
X0059883Y0086343D01*
X0059803Y0086390D01*
X0059725Y0086439D01*
X0059649Y0086492D01*
X0059575Y0086548D01*
X0059504Y0086608D01*
X0059436Y0086670D01*
X0059370Y0086735D01*
X0059307Y0086803D01*
X0059247Y0086873D01*
X0059190Y0086946D01*
X0059136Y0087021D01*
X0059086Y0087099D01*
X0059039Y0087179D01*
X0058995Y0087260D01*
X0058955Y0087344D01*
X0058918Y0087429D01*
X0058885Y0087515D01*
X0058856Y0087603D01*
X0058831Y0087692D01*
X0058809Y0087782D01*
X0058792Y0087873D01*
X0058778Y0087964D01*
X0058768Y0088056D01*
X0058762Y0088148D01*
X0058760Y0088241D01*
X0057775Y0171241D02*
X0057777Y0171353D01*
X0057783Y0171464D01*
X0057793Y0171576D01*
X0057807Y0171687D01*
X0057824Y0171797D01*
X0057846Y0171907D01*
X0057872Y0172016D01*
X0057901Y0172124D01*
X0057934Y0172230D01*
X0057971Y0172336D01*
X0058012Y0172440D01*
X0058057Y0172543D01*
X0058105Y0172644D01*
X0058156Y0172743D01*
X0058211Y0172840D01*
X0058270Y0172935D01*
X0058331Y0173029D01*
X0058396Y0173120D01*
X0058465Y0173208D01*
X0058536Y0173294D01*
X0058610Y0173378D01*
X0058688Y0173458D01*
X0058768Y0173536D01*
X0058851Y0173612D01*
X0058936Y0173684D01*
X0059024Y0173753D01*
X0059114Y0173819D01*
X0059207Y0173881D01*
X0059302Y0173941D01*
X0059399Y0173997D01*
X0059497Y0174049D01*
X0059598Y0174098D01*
X0059700Y0174143D01*
X0059804Y0174185D01*
X0059909Y0174223D01*
X0060016Y0174257D01*
X0060123Y0174287D01*
X0060232Y0174314D01*
X0060341Y0174336D01*
X0060452Y0174355D01*
X0060562Y0174370D01*
X0060674Y0174381D01*
X0060785Y0174388D01*
X0060897Y0174391D01*
X0061009Y0174390D01*
X0061121Y0174385D01*
X0061232Y0174376D01*
X0061343Y0174363D01*
X0061454Y0174346D01*
X0061564Y0174326D01*
X0061673Y0174301D01*
X0061781Y0174273D01*
X0061888Y0174240D01*
X0061994Y0174204D01*
X0062098Y0174164D01*
X0062201Y0174121D01*
X0062303Y0174074D01*
X0062402Y0174023D01*
X0062500Y0173969D01*
X0062596Y0173911D01*
X0062690Y0173850D01*
X0062781Y0173786D01*
X0062870Y0173719D01*
X0062957Y0173648D01*
X0063041Y0173574D01*
X0063123Y0173498D01*
X0063201Y0173418D01*
X0063277Y0173336D01*
X0063350Y0173251D01*
X0063420Y0173164D01*
X0063486Y0173074D01*
X0063550Y0172982D01*
X0063610Y0172888D01*
X0063667Y0172792D01*
X0063720Y0172693D01*
X0063770Y0172593D01*
X0063816Y0172492D01*
X0063859Y0172388D01*
X0063898Y0172283D01*
X0063933Y0172177D01*
X0063964Y0172070D01*
X0063992Y0171961D01*
X0064015Y0171852D01*
X0064035Y0171742D01*
X0064051Y0171631D01*
X0064063Y0171520D01*
X0064071Y0171409D01*
X0064075Y0171297D01*
X0064075Y0171185D01*
X0064071Y0171073D01*
X0064063Y0170962D01*
X0064051Y0170851D01*
X0064035Y0170740D01*
X0064015Y0170630D01*
X0063992Y0170521D01*
X0063964Y0170412D01*
X0063933Y0170305D01*
X0063898Y0170199D01*
X0063859Y0170094D01*
X0063816Y0169990D01*
X0063770Y0169889D01*
X0063720Y0169789D01*
X0063667Y0169690D01*
X0063610Y0169594D01*
X0063550Y0169500D01*
X0063486Y0169408D01*
X0063420Y0169318D01*
X0063350Y0169231D01*
X0063277Y0169146D01*
X0063201Y0169064D01*
X0063123Y0168984D01*
X0063041Y0168908D01*
X0062957Y0168834D01*
X0062870Y0168763D01*
X0062781Y0168696D01*
X0062690Y0168632D01*
X0062596Y0168571D01*
X0062500Y0168513D01*
X0062402Y0168459D01*
X0062303Y0168408D01*
X0062201Y0168361D01*
X0062098Y0168318D01*
X0061994Y0168278D01*
X0061888Y0168242D01*
X0061781Y0168209D01*
X0061673Y0168181D01*
X0061564Y0168156D01*
X0061454Y0168136D01*
X0061343Y0168119D01*
X0061232Y0168106D01*
X0061121Y0168097D01*
X0061009Y0168092D01*
X0060897Y0168091D01*
X0060785Y0168094D01*
X0060674Y0168101D01*
X0060562Y0168112D01*
X0060452Y0168127D01*
X0060341Y0168146D01*
X0060232Y0168168D01*
X0060123Y0168195D01*
X0060016Y0168225D01*
X0059909Y0168259D01*
X0059804Y0168297D01*
X0059700Y0168339D01*
X0059598Y0168384D01*
X0059497Y0168433D01*
X0059399Y0168485D01*
X0059302Y0168541D01*
X0059207Y0168601D01*
X0059114Y0168663D01*
X0059024Y0168729D01*
X0058936Y0168798D01*
X0058851Y0168870D01*
X0058768Y0168946D01*
X0058688Y0169024D01*
X0058610Y0169104D01*
X0058536Y0169188D01*
X0058465Y0169274D01*
X0058396Y0169362D01*
X0058331Y0169453D01*
X0058270Y0169547D01*
X0058211Y0169642D01*
X0058156Y0169739D01*
X0058105Y0169838D01*
X0058057Y0169939D01*
X0058012Y0170042D01*
X0057971Y0170146D01*
X0057934Y0170252D01*
X0057901Y0170358D01*
X0057872Y0170466D01*
X0057846Y0170575D01*
X0057824Y0170685D01*
X0057807Y0170795D01*
X0057793Y0170906D01*
X0057783Y0171018D01*
X0057777Y0171129D01*
X0057775Y0171241D01*
X0144413Y0217866D02*
X0144415Y0218014D01*
X0144421Y0218162D01*
X0144431Y0218310D01*
X0144445Y0218457D01*
X0144463Y0218604D01*
X0144484Y0218750D01*
X0144510Y0218896D01*
X0144540Y0219041D01*
X0144573Y0219185D01*
X0144611Y0219328D01*
X0144652Y0219470D01*
X0144697Y0219611D01*
X0144745Y0219751D01*
X0144798Y0219890D01*
X0144854Y0220027D01*
X0144914Y0220162D01*
X0144977Y0220296D01*
X0145044Y0220428D01*
X0145115Y0220558D01*
X0145189Y0220686D01*
X0145266Y0220812D01*
X0145347Y0220936D01*
X0145431Y0221058D01*
X0145518Y0221177D01*
X0145609Y0221294D01*
X0145703Y0221409D01*
X0145799Y0221521D01*
X0145899Y0221631D01*
X0146001Y0221737D01*
X0146107Y0221841D01*
X0146215Y0221942D01*
X0146326Y0222040D01*
X0146439Y0222136D01*
X0146555Y0222228D01*
X0146673Y0222317D01*
X0146794Y0222402D01*
X0146917Y0222485D01*
X0147042Y0222564D01*
X0147169Y0222640D01*
X0147298Y0222712D01*
X0147429Y0222781D01*
X0147562Y0222846D01*
X0147697Y0222907D01*
X0147833Y0222965D01*
X0147970Y0223020D01*
X0148109Y0223070D01*
X0148250Y0223117D01*
X0148391Y0223160D01*
X0148534Y0223200D01*
X0148678Y0223235D01*
X0148822Y0223267D01*
X0148968Y0223294D01*
X0149114Y0223318D01*
X0149261Y0223338D01*
X0149408Y0223354D01*
X0149555Y0223366D01*
X0149703Y0223374D01*
X0149851Y0223378D01*
X0149999Y0223378D01*
X0150147Y0223374D01*
X0150295Y0223366D01*
X0150442Y0223354D01*
X0150589Y0223338D01*
X0150736Y0223318D01*
X0150882Y0223294D01*
X0151028Y0223267D01*
X0151172Y0223235D01*
X0151316Y0223200D01*
X0151459Y0223160D01*
X0151600Y0223117D01*
X0151741Y0223070D01*
X0151880Y0223020D01*
X0152017Y0222965D01*
X0152153Y0222907D01*
X0152288Y0222846D01*
X0152421Y0222781D01*
X0152552Y0222712D01*
X0152681Y0222640D01*
X0152808Y0222564D01*
X0152933Y0222485D01*
X0153056Y0222402D01*
X0153177Y0222317D01*
X0153295Y0222228D01*
X0153411Y0222136D01*
X0153524Y0222040D01*
X0153635Y0221942D01*
X0153743Y0221841D01*
X0153849Y0221737D01*
X0153951Y0221631D01*
X0154051Y0221521D01*
X0154147Y0221409D01*
X0154241Y0221294D01*
X0154332Y0221177D01*
X0154419Y0221058D01*
X0154503Y0220936D01*
X0154584Y0220812D01*
X0154661Y0220686D01*
X0154735Y0220558D01*
X0154806Y0220428D01*
X0154873Y0220296D01*
X0154936Y0220162D01*
X0154996Y0220027D01*
X0155052Y0219890D01*
X0155105Y0219751D01*
X0155153Y0219611D01*
X0155198Y0219470D01*
X0155239Y0219328D01*
X0155277Y0219185D01*
X0155310Y0219041D01*
X0155340Y0218896D01*
X0155366Y0218750D01*
X0155387Y0218604D01*
X0155405Y0218457D01*
X0155419Y0218310D01*
X0155429Y0218162D01*
X0155435Y0218014D01*
X0155437Y0217866D01*
X0155435Y0217718D01*
X0155429Y0217570D01*
X0155419Y0217422D01*
X0155405Y0217275D01*
X0155387Y0217128D01*
X0155366Y0216982D01*
X0155340Y0216836D01*
X0155310Y0216691D01*
X0155277Y0216547D01*
X0155239Y0216404D01*
X0155198Y0216262D01*
X0155153Y0216121D01*
X0155105Y0215981D01*
X0155052Y0215842D01*
X0154996Y0215705D01*
X0154936Y0215570D01*
X0154873Y0215436D01*
X0154806Y0215304D01*
X0154735Y0215174D01*
X0154661Y0215046D01*
X0154584Y0214920D01*
X0154503Y0214796D01*
X0154419Y0214674D01*
X0154332Y0214555D01*
X0154241Y0214438D01*
X0154147Y0214323D01*
X0154051Y0214211D01*
X0153951Y0214101D01*
X0153849Y0213995D01*
X0153743Y0213891D01*
X0153635Y0213790D01*
X0153524Y0213692D01*
X0153411Y0213596D01*
X0153295Y0213504D01*
X0153177Y0213415D01*
X0153056Y0213330D01*
X0152933Y0213247D01*
X0152808Y0213168D01*
X0152681Y0213092D01*
X0152552Y0213020D01*
X0152421Y0212951D01*
X0152288Y0212886D01*
X0152153Y0212825D01*
X0152017Y0212767D01*
X0151880Y0212712D01*
X0151741Y0212662D01*
X0151600Y0212615D01*
X0151459Y0212572D01*
X0151316Y0212532D01*
X0151172Y0212497D01*
X0151028Y0212465D01*
X0150882Y0212438D01*
X0150736Y0212414D01*
X0150589Y0212394D01*
X0150442Y0212378D01*
X0150295Y0212366D01*
X0150147Y0212358D01*
X0149999Y0212354D01*
X0149851Y0212354D01*
X0149703Y0212358D01*
X0149555Y0212366D01*
X0149408Y0212378D01*
X0149261Y0212394D01*
X0149114Y0212414D01*
X0148968Y0212438D01*
X0148822Y0212465D01*
X0148678Y0212497D01*
X0148534Y0212532D01*
X0148391Y0212572D01*
X0148250Y0212615D01*
X0148109Y0212662D01*
X0147970Y0212712D01*
X0147833Y0212767D01*
X0147697Y0212825D01*
X0147562Y0212886D01*
X0147429Y0212951D01*
X0147298Y0213020D01*
X0147169Y0213092D01*
X0147042Y0213168D01*
X0146917Y0213247D01*
X0146794Y0213330D01*
X0146673Y0213415D01*
X0146555Y0213504D01*
X0146439Y0213596D01*
X0146326Y0213692D01*
X0146215Y0213790D01*
X0146107Y0213891D01*
X0146001Y0213995D01*
X0145899Y0214101D01*
X0145799Y0214211D01*
X0145703Y0214323D01*
X0145609Y0214438D01*
X0145518Y0214555D01*
X0145431Y0214674D01*
X0145347Y0214796D01*
X0145266Y0214920D01*
X0145189Y0215046D01*
X0145115Y0215174D01*
X0145044Y0215304D01*
X0144977Y0215436D01*
X0144914Y0215570D01*
X0144854Y0215705D01*
X0144798Y0215842D01*
X0144745Y0215981D01*
X0144697Y0216121D01*
X0144652Y0216262D01*
X0144611Y0216404D01*
X0144573Y0216547D01*
X0144540Y0216691D01*
X0144510Y0216836D01*
X0144484Y0216982D01*
X0144463Y0217128D01*
X0144445Y0217275D01*
X0144431Y0217422D01*
X0144421Y0217570D01*
X0144415Y0217718D01*
X0144413Y0217866D01*
X0164382Y0225267D02*
X0164384Y0225415D01*
X0164390Y0225563D01*
X0164400Y0225711D01*
X0164414Y0225858D01*
X0164432Y0226005D01*
X0164453Y0226151D01*
X0164479Y0226297D01*
X0164509Y0226442D01*
X0164542Y0226586D01*
X0164580Y0226729D01*
X0164621Y0226871D01*
X0164666Y0227012D01*
X0164714Y0227152D01*
X0164767Y0227291D01*
X0164823Y0227428D01*
X0164883Y0227563D01*
X0164946Y0227697D01*
X0165013Y0227829D01*
X0165084Y0227959D01*
X0165158Y0228087D01*
X0165235Y0228213D01*
X0165316Y0228337D01*
X0165400Y0228459D01*
X0165487Y0228578D01*
X0165578Y0228695D01*
X0165672Y0228810D01*
X0165768Y0228922D01*
X0165868Y0229032D01*
X0165970Y0229138D01*
X0166076Y0229242D01*
X0166184Y0229343D01*
X0166295Y0229441D01*
X0166408Y0229537D01*
X0166524Y0229629D01*
X0166642Y0229718D01*
X0166763Y0229803D01*
X0166886Y0229886D01*
X0167011Y0229965D01*
X0167138Y0230041D01*
X0167267Y0230113D01*
X0167398Y0230182D01*
X0167531Y0230247D01*
X0167666Y0230308D01*
X0167802Y0230366D01*
X0167939Y0230421D01*
X0168078Y0230471D01*
X0168219Y0230518D01*
X0168360Y0230561D01*
X0168503Y0230601D01*
X0168647Y0230636D01*
X0168791Y0230668D01*
X0168937Y0230695D01*
X0169083Y0230719D01*
X0169230Y0230739D01*
X0169377Y0230755D01*
X0169524Y0230767D01*
X0169672Y0230775D01*
X0169820Y0230779D01*
X0169968Y0230779D01*
X0170116Y0230775D01*
X0170264Y0230767D01*
X0170411Y0230755D01*
X0170558Y0230739D01*
X0170705Y0230719D01*
X0170851Y0230695D01*
X0170997Y0230668D01*
X0171141Y0230636D01*
X0171285Y0230601D01*
X0171428Y0230561D01*
X0171569Y0230518D01*
X0171710Y0230471D01*
X0171849Y0230421D01*
X0171986Y0230366D01*
X0172122Y0230308D01*
X0172257Y0230247D01*
X0172390Y0230182D01*
X0172521Y0230113D01*
X0172650Y0230041D01*
X0172777Y0229965D01*
X0172902Y0229886D01*
X0173025Y0229803D01*
X0173146Y0229718D01*
X0173264Y0229629D01*
X0173380Y0229537D01*
X0173493Y0229441D01*
X0173604Y0229343D01*
X0173712Y0229242D01*
X0173818Y0229138D01*
X0173920Y0229032D01*
X0174020Y0228922D01*
X0174116Y0228810D01*
X0174210Y0228695D01*
X0174301Y0228578D01*
X0174388Y0228459D01*
X0174472Y0228337D01*
X0174553Y0228213D01*
X0174630Y0228087D01*
X0174704Y0227959D01*
X0174775Y0227829D01*
X0174842Y0227697D01*
X0174905Y0227563D01*
X0174965Y0227428D01*
X0175021Y0227291D01*
X0175074Y0227152D01*
X0175122Y0227012D01*
X0175167Y0226871D01*
X0175208Y0226729D01*
X0175246Y0226586D01*
X0175279Y0226442D01*
X0175309Y0226297D01*
X0175335Y0226151D01*
X0175356Y0226005D01*
X0175374Y0225858D01*
X0175388Y0225711D01*
X0175398Y0225563D01*
X0175404Y0225415D01*
X0175406Y0225267D01*
X0175404Y0225119D01*
X0175398Y0224971D01*
X0175388Y0224823D01*
X0175374Y0224676D01*
X0175356Y0224529D01*
X0175335Y0224383D01*
X0175309Y0224237D01*
X0175279Y0224092D01*
X0175246Y0223948D01*
X0175208Y0223805D01*
X0175167Y0223663D01*
X0175122Y0223522D01*
X0175074Y0223382D01*
X0175021Y0223243D01*
X0174965Y0223106D01*
X0174905Y0222971D01*
X0174842Y0222837D01*
X0174775Y0222705D01*
X0174704Y0222575D01*
X0174630Y0222447D01*
X0174553Y0222321D01*
X0174472Y0222197D01*
X0174388Y0222075D01*
X0174301Y0221956D01*
X0174210Y0221839D01*
X0174116Y0221724D01*
X0174020Y0221612D01*
X0173920Y0221502D01*
X0173818Y0221396D01*
X0173712Y0221292D01*
X0173604Y0221191D01*
X0173493Y0221093D01*
X0173380Y0220997D01*
X0173264Y0220905D01*
X0173146Y0220816D01*
X0173025Y0220731D01*
X0172902Y0220648D01*
X0172777Y0220569D01*
X0172650Y0220493D01*
X0172521Y0220421D01*
X0172390Y0220352D01*
X0172257Y0220287D01*
X0172122Y0220226D01*
X0171986Y0220168D01*
X0171849Y0220113D01*
X0171710Y0220063D01*
X0171569Y0220016D01*
X0171428Y0219973D01*
X0171285Y0219933D01*
X0171141Y0219898D01*
X0170997Y0219866D01*
X0170851Y0219839D01*
X0170705Y0219815D01*
X0170558Y0219795D01*
X0170411Y0219779D01*
X0170264Y0219767D01*
X0170116Y0219759D01*
X0169968Y0219755D01*
X0169820Y0219755D01*
X0169672Y0219759D01*
X0169524Y0219767D01*
X0169377Y0219779D01*
X0169230Y0219795D01*
X0169083Y0219815D01*
X0168937Y0219839D01*
X0168791Y0219866D01*
X0168647Y0219898D01*
X0168503Y0219933D01*
X0168360Y0219973D01*
X0168219Y0220016D01*
X0168078Y0220063D01*
X0167939Y0220113D01*
X0167802Y0220168D01*
X0167666Y0220226D01*
X0167531Y0220287D01*
X0167398Y0220352D01*
X0167267Y0220421D01*
X0167138Y0220493D01*
X0167011Y0220569D01*
X0166886Y0220648D01*
X0166763Y0220731D01*
X0166642Y0220816D01*
X0166524Y0220905D01*
X0166408Y0220997D01*
X0166295Y0221093D01*
X0166184Y0221191D01*
X0166076Y0221292D01*
X0165970Y0221396D01*
X0165868Y0221502D01*
X0165768Y0221612D01*
X0165672Y0221724D01*
X0165578Y0221839D01*
X0165487Y0221956D01*
X0165400Y0222075D01*
X0165316Y0222197D01*
X0165235Y0222321D01*
X0165158Y0222447D01*
X0165084Y0222575D01*
X0165013Y0222705D01*
X0164946Y0222837D01*
X0164883Y0222971D01*
X0164823Y0223106D01*
X0164767Y0223243D01*
X0164714Y0223382D01*
X0164666Y0223522D01*
X0164621Y0223663D01*
X0164580Y0223805D01*
X0164542Y0223948D01*
X0164509Y0224092D01*
X0164479Y0224237D01*
X0164453Y0224383D01*
X0164432Y0224529D01*
X0164414Y0224676D01*
X0164400Y0224823D01*
X0164390Y0224971D01*
X0164384Y0225119D01*
X0164382Y0225267D01*
X0197256Y0225267D02*
X0197258Y0225415D01*
X0197264Y0225563D01*
X0197274Y0225711D01*
X0197288Y0225858D01*
X0197306Y0226005D01*
X0197327Y0226151D01*
X0197353Y0226297D01*
X0197383Y0226442D01*
X0197416Y0226586D01*
X0197454Y0226729D01*
X0197495Y0226871D01*
X0197540Y0227012D01*
X0197588Y0227152D01*
X0197641Y0227291D01*
X0197697Y0227428D01*
X0197757Y0227563D01*
X0197820Y0227697D01*
X0197887Y0227829D01*
X0197958Y0227959D01*
X0198032Y0228087D01*
X0198109Y0228213D01*
X0198190Y0228337D01*
X0198274Y0228459D01*
X0198361Y0228578D01*
X0198452Y0228695D01*
X0198546Y0228810D01*
X0198642Y0228922D01*
X0198742Y0229032D01*
X0198844Y0229138D01*
X0198950Y0229242D01*
X0199058Y0229343D01*
X0199169Y0229441D01*
X0199282Y0229537D01*
X0199398Y0229629D01*
X0199516Y0229718D01*
X0199637Y0229803D01*
X0199760Y0229886D01*
X0199885Y0229965D01*
X0200012Y0230041D01*
X0200141Y0230113D01*
X0200272Y0230182D01*
X0200405Y0230247D01*
X0200540Y0230308D01*
X0200676Y0230366D01*
X0200813Y0230421D01*
X0200952Y0230471D01*
X0201093Y0230518D01*
X0201234Y0230561D01*
X0201377Y0230601D01*
X0201521Y0230636D01*
X0201665Y0230668D01*
X0201811Y0230695D01*
X0201957Y0230719D01*
X0202104Y0230739D01*
X0202251Y0230755D01*
X0202398Y0230767D01*
X0202546Y0230775D01*
X0202694Y0230779D01*
X0202842Y0230779D01*
X0202990Y0230775D01*
X0203138Y0230767D01*
X0203285Y0230755D01*
X0203432Y0230739D01*
X0203579Y0230719D01*
X0203725Y0230695D01*
X0203871Y0230668D01*
X0204015Y0230636D01*
X0204159Y0230601D01*
X0204302Y0230561D01*
X0204443Y0230518D01*
X0204584Y0230471D01*
X0204723Y0230421D01*
X0204860Y0230366D01*
X0204996Y0230308D01*
X0205131Y0230247D01*
X0205264Y0230182D01*
X0205395Y0230113D01*
X0205524Y0230041D01*
X0205651Y0229965D01*
X0205776Y0229886D01*
X0205899Y0229803D01*
X0206020Y0229718D01*
X0206138Y0229629D01*
X0206254Y0229537D01*
X0206367Y0229441D01*
X0206478Y0229343D01*
X0206586Y0229242D01*
X0206692Y0229138D01*
X0206794Y0229032D01*
X0206894Y0228922D01*
X0206990Y0228810D01*
X0207084Y0228695D01*
X0207175Y0228578D01*
X0207262Y0228459D01*
X0207346Y0228337D01*
X0207427Y0228213D01*
X0207504Y0228087D01*
X0207578Y0227959D01*
X0207649Y0227829D01*
X0207716Y0227697D01*
X0207779Y0227563D01*
X0207839Y0227428D01*
X0207895Y0227291D01*
X0207948Y0227152D01*
X0207996Y0227012D01*
X0208041Y0226871D01*
X0208082Y0226729D01*
X0208120Y0226586D01*
X0208153Y0226442D01*
X0208183Y0226297D01*
X0208209Y0226151D01*
X0208230Y0226005D01*
X0208248Y0225858D01*
X0208262Y0225711D01*
X0208272Y0225563D01*
X0208278Y0225415D01*
X0208280Y0225267D01*
X0208278Y0225119D01*
X0208272Y0224971D01*
X0208262Y0224823D01*
X0208248Y0224676D01*
X0208230Y0224529D01*
X0208209Y0224383D01*
X0208183Y0224237D01*
X0208153Y0224092D01*
X0208120Y0223948D01*
X0208082Y0223805D01*
X0208041Y0223663D01*
X0207996Y0223522D01*
X0207948Y0223382D01*
X0207895Y0223243D01*
X0207839Y0223106D01*
X0207779Y0222971D01*
X0207716Y0222837D01*
X0207649Y0222705D01*
X0207578Y0222575D01*
X0207504Y0222447D01*
X0207427Y0222321D01*
X0207346Y0222197D01*
X0207262Y0222075D01*
X0207175Y0221956D01*
X0207084Y0221839D01*
X0206990Y0221724D01*
X0206894Y0221612D01*
X0206794Y0221502D01*
X0206692Y0221396D01*
X0206586Y0221292D01*
X0206478Y0221191D01*
X0206367Y0221093D01*
X0206254Y0220997D01*
X0206138Y0220905D01*
X0206020Y0220816D01*
X0205899Y0220731D01*
X0205776Y0220648D01*
X0205651Y0220569D01*
X0205524Y0220493D01*
X0205395Y0220421D01*
X0205264Y0220352D01*
X0205131Y0220287D01*
X0204996Y0220226D01*
X0204860Y0220168D01*
X0204723Y0220113D01*
X0204584Y0220063D01*
X0204443Y0220016D01*
X0204302Y0219973D01*
X0204159Y0219933D01*
X0204015Y0219898D01*
X0203871Y0219866D01*
X0203725Y0219839D01*
X0203579Y0219815D01*
X0203432Y0219795D01*
X0203285Y0219779D01*
X0203138Y0219767D01*
X0202990Y0219759D01*
X0202842Y0219755D01*
X0202694Y0219755D01*
X0202546Y0219759D01*
X0202398Y0219767D01*
X0202251Y0219779D01*
X0202104Y0219795D01*
X0201957Y0219815D01*
X0201811Y0219839D01*
X0201665Y0219866D01*
X0201521Y0219898D01*
X0201377Y0219933D01*
X0201234Y0219973D01*
X0201093Y0220016D01*
X0200952Y0220063D01*
X0200813Y0220113D01*
X0200676Y0220168D01*
X0200540Y0220226D01*
X0200405Y0220287D01*
X0200272Y0220352D01*
X0200141Y0220421D01*
X0200012Y0220493D01*
X0199885Y0220569D01*
X0199760Y0220648D01*
X0199637Y0220731D01*
X0199516Y0220816D01*
X0199398Y0220905D01*
X0199282Y0220997D01*
X0199169Y0221093D01*
X0199058Y0221191D01*
X0198950Y0221292D01*
X0198844Y0221396D01*
X0198742Y0221502D01*
X0198642Y0221612D01*
X0198546Y0221724D01*
X0198452Y0221839D01*
X0198361Y0221956D01*
X0198274Y0222075D01*
X0198190Y0222197D01*
X0198109Y0222321D01*
X0198032Y0222447D01*
X0197958Y0222575D01*
X0197887Y0222705D01*
X0197820Y0222837D01*
X0197757Y0222971D01*
X0197697Y0223106D01*
X0197641Y0223243D01*
X0197588Y0223382D01*
X0197540Y0223522D01*
X0197495Y0223663D01*
X0197454Y0223805D01*
X0197416Y0223948D01*
X0197383Y0224092D01*
X0197353Y0224237D01*
X0197327Y0224383D01*
X0197306Y0224529D01*
X0197288Y0224676D01*
X0197274Y0224823D01*
X0197264Y0224971D01*
X0197258Y0225119D01*
X0197256Y0225267D01*
X0239753Y0229208D02*
X0239755Y0229305D01*
X0239761Y0229402D01*
X0239771Y0229498D01*
X0239785Y0229594D01*
X0239803Y0229690D01*
X0239824Y0229784D01*
X0239850Y0229878D01*
X0239879Y0229970D01*
X0239913Y0230061D01*
X0239949Y0230151D01*
X0239990Y0230239D01*
X0240034Y0230325D01*
X0240082Y0230410D01*
X0240133Y0230492D01*
X0240187Y0230573D01*
X0240245Y0230651D01*
X0240306Y0230726D01*
X0240369Y0230799D01*
X0240436Y0230870D01*
X0240506Y0230937D01*
X0240578Y0231002D01*
X0240653Y0231063D01*
X0240731Y0231122D01*
X0240810Y0231177D01*
X0240892Y0231229D01*
X0240976Y0231277D01*
X0241062Y0231322D01*
X0241150Y0231364D01*
X0241239Y0231402D01*
X0241330Y0231436D01*
X0241422Y0231466D01*
X0241515Y0231493D01*
X0241610Y0231515D01*
X0241705Y0231534D01*
X0241801Y0231549D01*
X0241897Y0231560D01*
X0241994Y0231567D01*
X0242091Y0231570D01*
X0242188Y0231569D01*
X0242285Y0231564D01*
X0242381Y0231555D01*
X0242477Y0231542D01*
X0242573Y0231525D01*
X0242668Y0231504D01*
X0242761Y0231480D01*
X0242854Y0231451D01*
X0242946Y0231419D01*
X0243036Y0231383D01*
X0243124Y0231344D01*
X0243211Y0231300D01*
X0243296Y0231254D01*
X0243379Y0231203D01*
X0243460Y0231150D01*
X0243538Y0231093D01*
X0243615Y0231033D01*
X0243688Y0230970D01*
X0243759Y0230904D01*
X0243827Y0230835D01*
X0243893Y0230763D01*
X0243955Y0230689D01*
X0244014Y0230612D01*
X0244070Y0230533D01*
X0244123Y0230451D01*
X0244173Y0230368D01*
X0244218Y0230282D01*
X0244261Y0230195D01*
X0244300Y0230106D01*
X0244335Y0230016D01*
X0244366Y0229924D01*
X0244393Y0229831D01*
X0244417Y0229737D01*
X0244437Y0229642D01*
X0244453Y0229546D01*
X0244465Y0229450D01*
X0244473Y0229353D01*
X0244477Y0229256D01*
X0244477Y0229160D01*
X0244473Y0229063D01*
X0244465Y0228966D01*
X0244453Y0228870D01*
X0244437Y0228774D01*
X0244417Y0228679D01*
X0244393Y0228585D01*
X0244366Y0228492D01*
X0244335Y0228400D01*
X0244300Y0228310D01*
X0244261Y0228221D01*
X0244218Y0228134D01*
X0244173Y0228048D01*
X0244123Y0227965D01*
X0244070Y0227883D01*
X0244014Y0227804D01*
X0243955Y0227727D01*
X0243893Y0227653D01*
X0243827Y0227581D01*
X0243759Y0227512D01*
X0243688Y0227446D01*
X0243615Y0227383D01*
X0243538Y0227323D01*
X0243460Y0227266D01*
X0243379Y0227213D01*
X0243296Y0227162D01*
X0243211Y0227116D01*
X0243124Y0227072D01*
X0243036Y0227033D01*
X0242946Y0226997D01*
X0242854Y0226965D01*
X0242761Y0226936D01*
X0242668Y0226912D01*
X0242573Y0226891D01*
X0242477Y0226874D01*
X0242381Y0226861D01*
X0242285Y0226852D01*
X0242188Y0226847D01*
X0242091Y0226846D01*
X0241994Y0226849D01*
X0241897Y0226856D01*
X0241801Y0226867D01*
X0241705Y0226882D01*
X0241610Y0226901D01*
X0241515Y0226923D01*
X0241422Y0226950D01*
X0241330Y0226980D01*
X0241239Y0227014D01*
X0241150Y0227052D01*
X0241062Y0227094D01*
X0240976Y0227139D01*
X0240892Y0227187D01*
X0240810Y0227239D01*
X0240731Y0227294D01*
X0240653Y0227353D01*
X0240578Y0227414D01*
X0240506Y0227479D01*
X0240436Y0227546D01*
X0240369Y0227617D01*
X0240306Y0227690D01*
X0240245Y0227765D01*
X0240187Y0227843D01*
X0240133Y0227924D01*
X0240082Y0228006D01*
X0240034Y0228091D01*
X0239990Y0228177D01*
X0239949Y0228265D01*
X0239913Y0228355D01*
X0239879Y0228446D01*
X0239850Y0228538D01*
X0239824Y0228632D01*
X0239803Y0228726D01*
X0239785Y0228822D01*
X0239771Y0228918D01*
X0239761Y0229014D01*
X0239755Y0229111D01*
X0239753Y0229208D01*
X0239753Y0219366D02*
X0239755Y0219463D01*
X0239761Y0219560D01*
X0239771Y0219656D01*
X0239785Y0219752D01*
X0239803Y0219848D01*
X0239824Y0219942D01*
X0239850Y0220036D01*
X0239879Y0220128D01*
X0239913Y0220219D01*
X0239949Y0220309D01*
X0239990Y0220397D01*
X0240034Y0220483D01*
X0240082Y0220568D01*
X0240133Y0220650D01*
X0240187Y0220731D01*
X0240245Y0220809D01*
X0240306Y0220884D01*
X0240369Y0220957D01*
X0240436Y0221028D01*
X0240506Y0221095D01*
X0240578Y0221160D01*
X0240653Y0221221D01*
X0240731Y0221280D01*
X0240810Y0221335D01*
X0240892Y0221387D01*
X0240976Y0221435D01*
X0241062Y0221480D01*
X0241150Y0221522D01*
X0241239Y0221560D01*
X0241330Y0221594D01*
X0241422Y0221624D01*
X0241515Y0221651D01*
X0241610Y0221673D01*
X0241705Y0221692D01*
X0241801Y0221707D01*
X0241897Y0221718D01*
X0241994Y0221725D01*
X0242091Y0221728D01*
X0242188Y0221727D01*
X0242285Y0221722D01*
X0242381Y0221713D01*
X0242477Y0221700D01*
X0242573Y0221683D01*
X0242668Y0221662D01*
X0242761Y0221638D01*
X0242854Y0221609D01*
X0242946Y0221577D01*
X0243036Y0221541D01*
X0243124Y0221502D01*
X0243211Y0221458D01*
X0243296Y0221412D01*
X0243379Y0221361D01*
X0243460Y0221308D01*
X0243538Y0221251D01*
X0243615Y0221191D01*
X0243688Y0221128D01*
X0243759Y0221062D01*
X0243827Y0220993D01*
X0243893Y0220921D01*
X0243955Y0220847D01*
X0244014Y0220770D01*
X0244070Y0220691D01*
X0244123Y0220609D01*
X0244173Y0220526D01*
X0244218Y0220440D01*
X0244261Y0220353D01*
X0244300Y0220264D01*
X0244335Y0220174D01*
X0244366Y0220082D01*
X0244393Y0219989D01*
X0244417Y0219895D01*
X0244437Y0219800D01*
X0244453Y0219704D01*
X0244465Y0219608D01*
X0244473Y0219511D01*
X0244477Y0219414D01*
X0244477Y0219318D01*
X0244473Y0219221D01*
X0244465Y0219124D01*
X0244453Y0219028D01*
X0244437Y0218932D01*
X0244417Y0218837D01*
X0244393Y0218743D01*
X0244366Y0218650D01*
X0244335Y0218558D01*
X0244300Y0218468D01*
X0244261Y0218379D01*
X0244218Y0218292D01*
X0244173Y0218206D01*
X0244123Y0218123D01*
X0244070Y0218041D01*
X0244014Y0217962D01*
X0243955Y0217885D01*
X0243893Y0217811D01*
X0243827Y0217739D01*
X0243759Y0217670D01*
X0243688Y0217604D01*
X0243615Y0217541D01*
X0243538Y0217481D01*
X0243460Y0217424D01*
X0243379Y0217371D01*
X0243296Y0217320D01*
X0243211Y0217274D01*
X0243124Y0217230D01*
X0243036Y0217191D01*
X0242946Y0217155D01*
X0242854Y0217123D01*
X0242761Y0217094D01*
X0242668Y0217070D01*
X0242573Y0217049D01*
X0242477Y0217032D01*
X0242381Y0217019D01*
X0242285Y0217010D01*
X0242188Y0217005D01*
X0242091Y0217004D01*
X0241994Y0217007D01*
X0241897Y0217014D01*
X0241801Y0217025D01*
X0241705Y0217040D01*
X0241610Y0217059D01*
X0241515Y0217081D01*
X0241422Y0217108D01*
X0241330Y0217138D01*
X0241239Y0217172D01*
X0241150Y0217210D01*
X0241062Y0217252D01*
X0240976Y0217297D01*
X0240892Y0217345D01*
X0240810Y0217397D01*
X0240731Y0217452D01*
X0240653Y0217511D01*
X0240578Y0217572D01*
X0240506Y0217637D01*
X0240436Y0217704D01*
X0240369Y0217775D01*
X0240306Y0217848D01*
X0240245Y0217923D01*
X0240187Y0218001D01*
X0240133Y0218082D01*
X0240082Y0218164D01*
X0240034Y0218249D01*
X0239990Y0218335D01*
X0239949Y0218423D01*
X0239913Y0218513D01*
X0239879Y0218604D01*
X0239850Y0218696D01*
X0239824Y0218790D01*
X0239803Y0218884D01*
X0239785Y0218980D01*
X0239771Y0219076D01*
X0239761Y0219172D01*
X0239755Y0219269D01*
X0239753Y0219366D01*
X0259438Y0199681D02*
X0259440Y0199778D01*
X0259446Y0199875D01*
X0259456Y0199971D01*
X0259470Y0200067D01*
X0259488Y0200163D01*
X0259509Y0200257D01*
X0259535Y0200351D01*
X0259564Y0200443D01*
X0259598Y0200534D01*
X0259634Y0200624D01*
X0259675Y0200712D01*
X0259719Y0200798D01*
X0259767Y0200883D01*
X0259818Y0200965D01*
X0259872Y0201046D01*
X0259930Y0201124D01*
X0259991Y0201199D01*
X0260054Y0201272D01*
X0260121Y0201343D01*
X0260191Y0201410D01*
X0260263Y0201475D01*
X0260338Y0201536D01*
X0260416Y0201595D01*
X0260495Y0201650D01*
X0260577Y0201702D01*
X0260661Y0201750D01*
X0260747Y0201795D01*
X0260835Y0201837D01*
X0260924Y0201875D01*
X0261015Y0201909D01*
X0261107Y0201939D01*
X0261200Y0201966D01*
X0261295Y0201988D01*
X0261390Y0202007D01*
X0261486Y0202022D01*
X0261582Y0202033D01*
X0261679Y0202040D01*
X0261776Y0202043D01*
X0261873Y0202042D01*
X0261970Y0202037D01*
X0262066Y0202028D01*
X0262162Y0202015D01*
X0262258Y0201998D01*
X0262353Y0201977D01*
X0262446Y0201953D01*
X0262539Y0201924D01*
X0262631Y0201892D01*
X0262721Y0201856D01*
X0262809Y0201817D01*
X0262896Y0201773D01*
X0262981Y0201727D01*
X0263064Y0201676D01*
X0263145Y0201623D01*
X0263223Y0201566D01*
X0263300Y0201506D01*
X0263373Y0201443D01*
X0263444Y0201377D01*
X0263512Y0201308D01*
X0263578Y0201236D01*
X0263640Y0201162D01*
X0263699Y0201085D01*
X0263755Y0201006D01*
X0263808Y0200924D01*
X0263858Y0200841D01*
X0263903Y0200755D01*
X0263946Y0200668D01*
X0263985Y0200579D01*
X0264020Y0200489D01*
X0264051Y0200397D01*
X0264078Y0200304D01*
X0264102Y0200210D01*
X0264122Y0200115D01*
X0264138Y0200019D01*
X0264150Y0199923D01*
X0264158Y0199826D01*
X0264162Y0199729D01*
X0264162Y0199633D01*
X0264158Y0199536D01*
X0264150Y0199439D01*
X0264138Y0199343D01*
X0264122Y0199247D01*
X0264102Y0199152D01*
X0264078Y0199058D01*
X0264051Y0198965D01*
X0264020Y0198873D01*
X0263985Y0198783D01*
X0263946Y0198694D01*
X0263903Y0198607D01*
X0263858Y0198521D01*
X0263808Y0198438D01*
X0263755Y0198356D01*
X0263699Y0198277D01*
X0263640Y0198200D01*
X0263578Y0198126D01*
X0263512Y0198054D01*
X0263444Y0197985D01*
X0263373Y0197919D01*
X0263300Y0197856D01*
X0263223Y0197796D01*
X0263145Y0197739D01*
X0263064Y0197686D01*
X0262981Y0197635D01*
X0262896Y0197589D01*
X0262809Y0197545D01*
X0262721Y0197506D01*
X0262631Y0197470D01*
X0262539Y0197438D01*
X0262446Y0197409D01*
X0262353Y0197385D01*
X0262258Y0197364D01*
X0262162Y0197347D01*
X0262066Y0197334D01*
X0261970Y0197325D01*
X0261873Y0197320D01*
X0261776Y0197319D01*
X0261679Y0197322D01*
X0261582Y0197329D01*
X0261486Y0197340D01*
X0261390Y0197355D01*
X0261295Y0197374D01*
X0261200Y0197396D01*
X0261107Y0197423D01*
X0261015Y0197453D01*
X0260924Y0197487D01*
X0260835Y0197525D01*
X0260747Y0197567D01*
X0260661Y0197612D01*
X0260577Y0197660D01*
X0260495Y0197712D01*
X0260416Y0197767D01*
X0260338Y0197826D01*
X0260263Y0197887D01*
X0260191Y0197952D01*
X0260121Y0198019D01*
X0260054Y0198090D01*
X0259991Y0198163D01*
X0259930Y0198238D01*
X0259872Y0198316D01*
X0259818Y0198397D01*
X0259767Y0198479D01*
X0259719Y0198564D01*
X0259675Y0198650D01*
X0259634Y0198738D01*
X0259598Y0198828D01*
X0259564Y0198919D01*
X0259535Y0199011D01*
X0259509Y0199105D01*
X0259488Y0199199D01*
X0259470Y0199295D01*
X0259456Y0199391D01*
X0259446Y0199487D01*
X0259440Y0199584D01*
X0259438Y0199681D01*
X0279123Y0219366D02*
X0279125Y0219463D01*
X0279131Y0219560D01*
X0279141Y0219656D01*
X0279155Y0219752D01*
X0279173Y0219848D01*
X0279194Y0219942D01*
X0279220Y0220036D01*
X0279249Y0220128D01*
X0279283Y0220219D01*
X0279319Y0220309D01*
X0279360Y0220397D01*
X0279404Y0220483D01*
X0279452Y0220568D01*
X0279503Y0220650D01*
X0279557Y0220731D01*
X0279615Y0220809D01*
X0279676Y0220884D01*
X0279739Y0220957D01*
X0279806Y0221028D01*
X0279876Y0221095D01*
X0279948Y0221160D01*
X0280023Y0221221D01*
X0280101Y0221280D01*
X0280180Y0221335D01*
X0280262Y0221387D01*
X0280346Y0221435D01*
X0280432Y0221480D01*
X0280520Y0221522D01*
X0280609Y0221560D01*
X0280700Y0221594D01*
X0280792Y0221624D01*
X0280885Y0221651D01*
X0280980Y0221673D01*
X0281075Y0221692D01*
X0281171Y0221707D01*
X0281267Y0221718D01*
X0281364Y0221725D01*
X0281461Y0221728D01*
X0281558Y0221727D01*
X0281655Y0221722D01*
X0281751Y0221713D01*
X0281847Y0221700D01*
X0281943Y0221683D01*
X0282038Y0221662D01*
X0282131Y0221638D01*
X0282224Y0221609D01*
X0282316Y0221577D01*
X0282406Y0221541D01*
X0282494Y0221502D01*
X0282581Y0221458D01*
X0282666Y0221412D01*
X0282749Y0221361D01*
X0282830Y0221308D01*
X0282908Y0221251D01*
X0282985Y0221191D01*
X0283058Y0221128D01*
X0283129Y0221062D01*
X0283197Y0220993D01*
X0283263Y0220921D01*
X0283325Y0220847D01*
X0283384Y0220770D01*
X0283440Y0220691D01*
X0283493Y0220609D01*
X0283543Y0220526D01*
X0283588Y0220440D01*
X0283631Y0220353D01*
X0283670Y0220264D01*
X0283705Y0220174D01*
X0283736Y0220082D01*
X0283763Y0219989D01*
X0283787Y0219895D01*
X0283807Y0219800D01*
X0283823Y0219704D01*
X0283835Y0219608D01*
X0283843Y0219511D01*
X0283847Y0219414D01*
X0283847Y0219318D01*
X0283843Y0219221D01*
X0283835Y0219124D01*
X0283823Y0219028D01*
X0283807Y0218932D01*
X0283787Y0218837D01*
X0283763Y0218743D01*
X0283736Y0218650D01*
X0283705Y0218558D01*
X0283670Y0218468D01*
X0283631Y0218379D01*
X0283588Y0218292D01*
X0283543Y0218206D01*
X0283493Y0218123D01*
X0283440Y0218041D01*
X0283384Y0217962D01*
X0283325Y0217885D01*
X0283263Y0217811D01*
X0283197Y0217739D01*
X0283129Y0217670D01*
X0283058Y0217604D01*
X0282985Y0217541D01*
X0282908Y0217481D01*
X0282830Y0217424D01*
X0282749Y0217371D01*
X0282666Y0217320D01*
X0282581Y0217274D01*
X0282494Y0217230D01*
X0282406Y0217191D01*
X0282316Y0217155D01*
X0282224Y0217123D01*
X0282131Y0217094D01*
X0282038Y0217070D01*
X0281943Y0217049D01*
X0281847Y0217032D01*
X0281751Y0217019D01*
X0281655Y0217010D01*
X0281558Y0217005D01*
X0281461Y0217004D01*
X0281364Y0217007D01*
X0281267Y0217014D01*
X0281171Y0217025D01*
X0281075Y0217040D01*
X0280980Y0217059D01*
X0280885Y0217081D01*
X0280792Y0217108D01*
X0280700Y0217138D01*
X0280609Y0217172D01*
X0280520Y0217210D01*
X0280432Y0217252D01*
X0280346Y0217297D01*
X0280262Y0217345D01*
X0280180Y0217397D01*
X0280101Y0217452D01*
X0280023Y0217511D01*
X0279948Y0217572D01*
X0279876Y0217637D01*
X0279806Y0217704D01*
X0279739Y0217775D01*
X0279676Y0217848D01*
X0279615Y0217923D01*
X0279557Y0218001D01*
X0279503Y0218082D01*
X0279452Y0218164D01*
X0279404Y0218249D01*
X0279360Y0218335D01*
X0279319Y0218423D01*
X0279283Y0218513D01*
X0279249Y0218604D01*
X0279220Y0218696D01*
X0279194Y0218790D01*
X0279173Y0218884D01*
X0279155Y0218980D01*
X0279141Y0219076D01*
X0279131Y0219172D01*
X0279125Y0219269D01*
X0279123Y0219366D01*
X0279123Y0229208D02*
X0279125Y0229305D01*
X0279131Y0229402D01*
X0279141Y0229498D01*
X0279155Y0229594D01*
X0279173Y0229690D01*
X0279194Y0229784D01*
X0279220Y0229878D01*
X0279249Y0229970D01*
X0279283Y0230061D01*
X0279319Y0230151D01*
X0279360Y0230239D01*
X0279404Y0230325D01*
X0279452Y0230410D01*
X0279503Y0230492D01*
X0279557Y0230573D01*
X0279615Y0230651D01*
X0279676Y0230726D01*
X0279739Y0230799D01*
X0279806Y0230870D01*
X0279876Y0230937D01*
X0279948Y0231002D01*
X0280023Y0231063D01*
X0280101Y0231122D01*
X0280180Y0231177D01*
X0280262Y0231229D01*
X0280346Y0231277D01*
X0280432Y0231322D01*
X0280520Y0231364D01*
X0280609Y0231402D01*
X0280700Y0231436D01*
X0280792Y0231466D01*
X0280885Y0231493D01*
X0280980Y0231515D01*
X0281075Y0231534D01*
X0281171Y0231549D01*
X0281267Y0231560D01*
X0281364Y0231567D01*
X0281461Y0231570D01*
X0281558Y0231569D01*
X0281655Y0231564D01*
X0281751Y0231555D01*
X0281847Y0231542D01*
X0281943Y0231525D01*
X0282038Y0231504D01*
X0282131Y0231480D01*
X0282224Y0231451D01*
X0282316Y0231419D01*
X0282406Y0231383D01*
X0282494Y0231344D01*
X0282581Y0231300D01*
X0282666Y0231254D01*
X0282749Y0231203D01*
X0282830Y0231150D01*
X0282908Y0231093D01*
X0282985Y0231033D01*
X0283058Y0230970D01*
X0283129Y0230904D01*
X0283197Y0230835D01*
X0283263Y0230763D01*
X0283325Y0230689D01*
X0283384Y0230612D01*
X0283440Y0230533D01*
X0283493Y0230451D01*
X0283543Y0230368D01*
X0283588Y0230282D01*
X0283631Y0230195D01*
X0283670Y0230106D01*
X0283705Y0230016D01*
X0283736Y0229924D01*
X0283763Y0229831D01*
X0283787Y0229737D01*
X0283807Y0229642D01*
X0283823Y0229546D01*
X0283835Y0229450D01*
X0283843Y0229353D01*
X0283847Y0229256D01*
X0283847Y0229160D01*
X0283843Y0229063D01*
X0283835Y0228966D01*
X0283823Y0228870D01*
X0283807Y0228774D01*
X0283787Y0228679D01*
X0283763Y0228585D01*
X0283736Y0228492D01*
X0283705Y0228400D01*
X0283670Y0228310D01*
X0283631Y0228221D01*
X0283588Y0228134D01*
X0283543Y0228048D01*
X0283493Y0227965D01*
X0283440Y0227883D01*
X0283384Y0227804D01*
X0283325Y0227727D01*
X0283263Y0227653D01*
X0283197Y0227581D01*
X0283129Y0227512D01*
X0283058Y0227446D01*
X0282985Y0227383D01*
X0282908Y0227323D01*
X0282830Y0227266D01*
X0282749Y0227213D01*
X0282666Y0227162D01*
X0282581Y0227116D01*
X0282494Y0227072D01*
X0282406Y0227033D01*
X0282316Y0226997D01*
X0282224Y0226965D01*
X0282131Y0226936D01*
X0282038Y0226912D01*
X0281943Y0226891D01*
X0281847Y0226874D01*
X0281751Y0226861D01*
X0281655Y0226852D01*
X0281558Y0226847D01*
X0281461Y0226846D01*
X0281364Y0226849D01*
X0281267Y0226856D01*
X0281171Y0226867D01*
X0281075Y0226882D01*
X0280980Y0226901D01*
X0280885Y0226923D01*
X0280792Y0226950D01*
X0280700Y0226980D01*
X0280609Y0227014D01*
X0280520Y0227052D01*
X0280432Y0227094D01*
X0280346Y0227139D01*
X0280262Y0227187D01*
X0280180Y0227239D01*
X0280101Y0227294D01*
X0280023Y0227353D01*
X0279948Y0227414D01*
X0279876Y0227479D01*
X0279806Y0227546D01*
X0279739Y0227617D01*
X0279676Y0227690D01*
X0279615Y0227765D01*
X0279557Y0227843D01*
X0279503Y0227924D01*
X0279452Y0228006D01*
X0279404Y0228091D01*
X0279360Y0228177D01*
X0279319Y0228265D01*
X0279283Y0228355D01*
X0279249Y0228446D01*
X0279220Y0228538D01*
X0279194Y0228632D01*
X0279173Y0228726D01*
X0279155Y0228822D01*
X0279141Y0228918D01*
X0279131Y0229014D01*
X0279125Y0229111D01*
X0279123Y0229208D01*
X0241938Y0046676D02*
X0241940Y0046773D01*
X0241946Y0046870D01*
X0241956Y0046966D01*
X0241970Y0047062D01*
X0241988Y0047158D01*
X0242009Y0047252D01*
X0242035Y0047346D01*
X0242064Y0047438D01*
X0242098Y0047529D01*
X0242134Y0047619D01*
X0242175Y0047707D01*
X0242219Y0047793D01*
X0242267Y0047878D01*
X0242318Y0047960D01*
X0242372Y0048041D01*
X0242430Y0048119D01*
X0242491Y0048194D01*
X0242554Y0048267D01*
X0242621Y0048338D01*
X0242691Y0048405D01*
X0242763Y0048470D01*
X0242838Y0048531D01*
X0242916Y0048590D01*
X0242995Y0048645D01*
X0243077Y0048697D01*
X0243161Y0048745D01*
X0243247Y0048790D01*
X0243335Y0048832D01*
X0243424Y0048870D01*
X0243515Y0048904D01*
X0243607Y0048934D01*
X0243700Y0048961D01*
X0243795Y0048983D01*
X0243890Y0049002D01*
X0243986Y0049017D01*
X0244082Y0049028D01*
X0244179Y0049035D01*
X0244276Y0049038D01*
X0244373Y0049037D01*
X0244470Y0049032D01*
X0244566Y0049023D01*
X0244662Y0049010D01*
X0244758Y0048993D01*
X0244853Y0048972D01*
X0244946Y0048948D01*
X0245039Y0048919D01*
X0245131Y0048887D01*
X0245221Y0048851D01*
X0245309Y0048812D01*
X0245396Y0048768D01*
X0245481Y0048722D01*
X0245564Y0048671D01*
X0245645Y0048618D01*
X0245723Y0048561D01*
X0245800Y0048501D01*
X0245873Y0048438D01*
X0245944Y0048372D01*
X0246012Y0048303D01*
X0246078Y0048231D01*
X0246140Y0048157D01*
X0246199Y0048080D01*
X0246255Y0048001D01*
X0246308Y0047919D01*
X0246358Y0047836D01*
X0246403Y0047750D01*
X0246446Y0047663D01*
X0246485Y0047574D01*
X0246520Y0047484D01*
X0246551Y0047392D01*
X0246578Y0047299D01*
X0246602Y0047205D01*
X0246622Y0047110D01*
X0246638Y0047014D01*
X0246650Y0046918D01*
X0246658Y0046821D01*
X0246662Y0046724D01*
X0246662Y0046628D01*
X0246658Y0046531D01*
X0246650Y0046434D01*
X0246638Y0046338D01*
X0246622Y0046242D01*
X0246602Y0046147D01*
X0246578Y0046053D01*
X0246551Y0045960D01*
X0246520Y0045868D01*
X0246485Y0045778D01*
X0246446Y0045689D01*
X0246403Y0045602D01*
X0246358Y0045516D01*
X0246308Y0045433D01*
X0246255Y0045351D01*
X0246199Y0045272D01*
X0246140Y0045195D01*
X0246078Y0045121D01*
X0246012Y0045049D01*
X0245944Y0044980D01*
X0245873Y0044914D01*
X0245800Y0044851D01*
X0245723Y0044791D01*
X0245645Y0044734D01*
X0245564Y0044681D01*
X0245481Y0044630D01*
X0245396Y0044584D01*
X0245309Y0044540D01*
X0245221Y0044501D01*
X0245131Y0044465D01*
X0245039Y0044433D01*
X0244946Y0044404D01*
X0244853Y0044380D01*
X0244758Y0044359D01*
X0244662Y0044342D01*
X0244566Y0044329D01*
X0244470Y0044320D01*
X0244373Y0044315D01*
X0244276Y0044314D01*
X0244179Y0044317D01*
X0244082Y0044324D01*
X0243986Y0044335D01*
X0243890Y0044350D01*
X0243795Y0044369D01*
X0243700Y0044391D01*
X0243607Y0044418D01*
X0243515Y0044448D01*
X0243424Y0044482D01*
X0243335Y0044520D01*
X0243247Y0044562D01*
X0243161Y0044607D01*
X0243077Y0044655D01*
X0242995Y0044707D01*
X0242916Y0044762D01*
X0242838Y0044821D01*
X0242763Y0044882D01*
X0242691Y0044947D01*
X0242621Y0045014D01*
X0242554Y0045085D01*
X0242491Y0045158D01*
X0242430Y0045233D01*
X0242372Y0045311D01*
X0242318Y0045392D01*
X0242267Y0045474D01*
X0242219Y0045559D01*
X0242175Y0045645D01*
X0242134Y0045733D01*
X0242098Y0045823D01*
X0242064Y0045914D01*
X0242035Y0046006D01*
X0242009Y0046100D01*
X0241988Y0046194D01*
X0241970Y0046290D01*
X0241956Y0046386D01*
X0241946Y0046482D01*
X0241940Y0046579D01*
X0241938Y0046676D01*
X0222253Y0026991D02*
X0222255Y0027088D01*
X0222261Y0027185D01*
X0222271Y0027281D01*
X0222285Y0027377D01*
X0222303Y0027473D01*
X0222324Y0027567D01*
X0222350Y0027661D01*
X0222379Y0027753D01*
X0222413Y0027844D01*
X0222449Y0027934D01*
X0222490Y0028022D01*
X0222534Y0028108D01*
X0222582Y0028193D01*
X0222633Y0028275D01*
X0222687Y0028356D01*
X0222745Y0028434D01*
X0222806Y0028509D01*
X0222869Y0028582D01*
X0222936Y0028653D01*
X0223006Y0028720D01*
X0223078Y0028785D01*
X0223153Y0028846D01*
X0223231Y0028905D01*
X0223310Y0028960D01*
X0223392Y0029012D01*
X0223476Y0029060D01*
X0223562Y0029105D01*
X0223650Y0029147D01*
X0223739Y0029185D01*
X0223830Y0029219D01*
X0223922Y0029249D01*
X0224015Y0029276D01*
X0224110Y0029298D01*
X0224205Y0029317D01*
X0224301Y0029332D01*
X0224397Y0029343D01*
X0224494Y0029350D01*
X0224591Y0029353D01*
X0224688Y0029352D01*
X0224785Y0029347D01*
X0224881Y0029338D01*
X0224977Y0029325D01*
X0225073Y0029308D01*
X0225168Y0029287D01*
X0225261Y0029263D01*
X0225354Y0029234D01*
X0225446Y0029202D01*
X0225536Y0029166D01*
X0225624Y0029127D01*
X0225711Y0029083D01*
X0225796Y0029037D01*
X0225879Y0028986D01*
X0225960Y0028933D01*
X0226038Y0028876D01*
X0226115Y0028816D01*
X0226188Y0028753D01*
X0226259Y0028687D01*
X0226327Y0028618D01*
X0226393Y0028546D01*
X0226455Y0028472D01*
X0226514Y0028395D01*
X0226570Y0028316D01*
X0226623Y0028234D01*
X0226673Y0028151D01*
X0226718Y0028065D01*
X0226761Y0027978D01*
X0226800Y0027889D01*
X0226835Y0027799D01*
X0226866Y0027707D01*
X0226893Y0027614D01*
X0226917Y0027520D01*
X0226937Y0027425D01*
X0226953Y0027329D01*
X0226965Y0027233D01*
X0226973Y0027136D01*
X0226977Y0027039D01*
X0226977Y0026943D01*
X0226973Y0026846D01*
X0226965Y0026749D01*
X0226953Y0026653D01*
X0226937Y0026557D01*
X0226917Y0026462D01*
X0226893Y0026368D01*
X0226866Y0026275D01*
X0226835Y0026183D01*
X0226800Y0026093D01*
X0226761Y0026004D01*
X0226718Y0025917D01*
X0226673Y0025831D01*
X0226623Y0025748D01*
X0226570Y0025666D01*
X0226514Y0025587D01*
X0226455Y0025510D01*
X0226393Y0025436D01*
X0226327Y0025364D01*
X0226259Y0025295D01*
X0226188Y0025229D01*
X0226115Y0025166D01*
X0226038Y0025106D01*
X0225960Y0025049D01*
X0225879Y0024996D01*
X0225796Y0024945D01*
X0225711Y0024899D01*
X0225624Y0024855D01*
X0225536Y0024816D01*
X0225446Y0024780D01*
X0225354Y0024748D01*
X0225261Y0024719D01*
X0225168Y0024695D01*
X0225073Y0024674D01*
X0224977Y0024657D01*
X0224881Y0024644D01*
X0224785Y0024635D01*
X0224688Y0024630D01*
X0224591Y0024629D01*
X0224494Y0024632D01*
X0224397Y0024639D01*
X0224301Y0024650D01*
X0224205Y0024665D01*
X0224110Y0024684D01*
X0224015Y0024706D01*
X0223922Y0024733D01*
X0223830Y0024763D01*
X0223739Y0024797D01*
X0223650Y0024835D01*
X0223562Y0024877D01*
X0223476Y0024922D01*
X0223392Y0024970D01*
X0223310Y0025022D01*
X0223231Y0025077D01*
X0223153Y0025136D01*
X0223078Y0025197D01*
X0223006Y0025262D01*
X0222936Y0025329D01*
X0222869Y0025400D01*
X0222806Y0025473D01*
X0222745Y0025548D01*
X0222687Y0025626D01*
X0222633Y0025707D01*
X0222582Y0025789D01*
X0222534Y0025874D01*
X0222490Y0025960D01*
X0222449Y0026048D01*
X0222413Y0026138D01*
X0222379Y0026229D01*
X0222350Y0026321D01*
X0222324Y0026415D01*
X0222303Y0026509D01*
X0222285Y0026605D01*
X0222271Y0026701D01*
X0222261Y0026797D01*
X0222255Y0026894D01*
X0222253Y0026991D01*
X0222253Y0017148D02*
X0222255Y0017245D01*
X0222261Y0017342D01*
X0222271Y0017438D01*
X0222285Y0017534D01*
X0222303Y0017630D01*
X0222324Y0017724D01*
X0222350Y0017818D01*
X0222379Y0017910D01*
X0222413Y0018001D01*
X0222449Y0018091D01*
X0222490Y0018179D01*
X0222534Y0018265D01*
X0222582Y0018350D01*
X0222633Y0018432D01*
X0222687Y0018513D01*
X0222745Y0018591D01*
X0222806Y0018666D01*
X0222869Y0018739D01*
X0222936Y0018810D01*
X0223006Y0018877D01*
X0223078Y0018942D01*
X0223153Y0019003D01*
X0223231Y0019062D01*
X0223310Y0019117D01*
X0223392Y0019169D01*
X0223476Y0019217D01*
X0223562Y0019262D01*
X0223650Y0019304D01*
X0223739Y0019342D01*
X0223830Y0019376D01*
X0223922Y0019406D01*
X0224015Y0019433D01*
X0224110Y0019455D01*
X0224205Y0019474D01*
X0224301Y0019489D01*
X0224397Y0019500D01*
X0224494Y0019507D01*
X0224591Y0019510D01*
X0224688Y0019509D01*
X0224785Y0019504D01*
X0224881Y0019495D01*
X0224977Y0019482D01*
X0225073Y0019465D01*
X0225168Y0019444D01*
X0225261Y0019420D01*
X0225354Y0019391D01*
X0225446Y0019359D01*
X0225536Y0019323D01*
X0225624Y0019284D01*
X0225711Y0019240D01*
X0225796Y0019194D01*
X0225879Y0019143D01*
X0225960Y0019090D01*
X0226038Y0019033D01*
X0226115Y0018973D01*
X0226188Y0018910D01*
X0226259Y0018844D01*
X0226327Y0018775D01*
X0226393Y0018703D01*
X0226455Y0018629D01*
X0226514Y0018552D01*
X0226570Y0018473D01*
X0226623Y0018391D01*
X0226673Y0018308D01*
X0226718Y0018222D01*
X0226761Y0018135D01*
X0226800Y0018046D01*
X0226835Y0017956D01*
X0226866Y0017864D01*
X0226893Y0017771D01*
X0226917Y0017677D01*
X0226937Y0017582D01*
X0226953Y0017486D01*
X0226965Y0017390D01*
X0226973Y0017293D01*
X0226977Y0017196D01*
X0226977Y0017100D01*
X0226973Y0017003D01*
X0226965Y0016906D01*
X0226953Y0016810D01*
X0226937Y0016714D01*
X0226917Y0016619D01*
X0226893Y0016525D01*
X0226866Y0016432D01*
X0226835Y0016340D01*
X0226800Y0016250D01*
X0226761Y0016161D01*
X0226718Y0016074D01*
X0226673Y0015988D01*
X0226623Y0015905D01*
X0226570Y0015823D01*
X0226514Y0015744D01*
X0226455Y0015667D01*
X0226393Y0015593D01*
X0226327Y0015521D01*
X0226259Y0015452D01*
X0226188Y0015386D01*
X0226115Y0015323D01*
X0226038Y0015263D01*
X0225960Y0015206D01*
X0225879Y0015153D01*
X0225796Y0015102D01*
X0225711Y0015056D01*
X0225624Y0015012D01*
X0225536Y0014973D01*
X0225446Y0014937D01*
X0225354Y0014905D01*
X0225261Y0014876D01*
X0225168Y0014852D01*
X0225073Y0014831D01*
X0224977Y0014814D01*
X0224881Y0014801D01*
X0224785Y0014792D01*
X0224688Y0014787D01*
X0224591Y0014786D01*
X0224494Y0014789D01*
X0224397Y0014796D01*
X0224301Y0014807D01*
X0224205Y0014822D01*
X0224110Y0014841D01*
X0224015Y0014863D01*
X0223922Y0014890D01*
X0223830Y0014920D01*
X0223739Y0014954D01*
X0223650Y0014992D01*
X0223562Y0015034D01*
X0223476Y0015079D01*
X0223392Y0015127D01*
X0223310Y0015179D01*
X0223231Y0015234D01*
X0223153Y0015293D01*
X0223078Y0015354D01*
X0223006Y0015419D01*
X0222936Y0015486D01*
X0222869Y0015557D01*
X0222806Y0015630D01*
X0222745Y0015705D01*
X0222687Y0015783D01*
X0222633Y0015864D01*
X0222582Y0015946D01*
X0222534Y0016031D01*
X0222490Y0016117D01*
X0222449Y0016205D01*
X0222413Y0016295D01*
X0222379Y0016386D01*
X0222350Y0016478D01*
X0222324Y0016572D01*
X0222303Y0016666D01*
X0222285Y0016762D01*
X0222271Y0016858D01*
X0222261Y0016954D01*
X0222255Y0017051D01*
X0222253Y0017148D01*
X0261623Y0017148D02*
X0261625Y0017245D01*
X0261631Y0017342D01*
X0261641Y0017438D01*
X0261655Y0017534D01*
X0261673Y0017630D01*
X0261694Y0017724D01*
X0261720Y0017818D01*
X0261749Y0017910D01*
X0261783Y0018001D01*
X0261819Y0018091D01*
X0261860Y0018179D01*
X0261904Y0018265D01*
X0261952Y0018350D01*
X0262003Y0018432D01*
X0262057Y0018513D01*
X0262115Y0018591D01*
X0262176Y0018666D01*
X0262239Y0018739D01*
X0262306Y0018810D01*
X0262376Y0018877D01*
X0262448Y0018942D01*
X0262523Y0019003D01*
X0262601Y0019062D01*
X0262680Y0019117D01*
X0262762Y0019169D01*
X0262846Y0019217D01*
X0262932Y0019262D01*
X0263020Y0019304D01*
X0263109Y0019342D01*
X0263200Y0019376D01*
X0263292Y0019406D01*
X0263385Y0019433D01*
X0263480Y0019455D01*
X0263575Y0019474D01*
X0263671Y0019489D01*
X0263767Y0019500D01*
X0263864Y0019507D01*
X0263961Y0019510D01*
X0264058Y0019509D01*
X0264155Y0019504D01*
X0264251Y0019495D01*
X0264347Y0019482D01*
X0264443Y0019465D01*
X0264538Y0019444D01*
X0264631Y0019420D01*
X0264724Y0019391D01*
X0264816Y0019359D01*
X0264906Y0019323D01*
X0264994Y0019284D01*
X0265081Y0019240D01*
X0265166Y0019194D01*
X0265249Y0019143D01*
X0265330Y0019090D01*
X0265408Y0019033D01*
X0265485Y0018973D01*
X0265558Y0018910D01*
X0265629Y0018844D01*
X0265697Y0018775D01*
X0265763Y0018703D01*
X0265825Y0018629D01*
X0265884Y0018552D01*
X0265940Y0018473D01*
X0265993Y0018391D01*
X0266043Y0018308D01*
X0266088Y0018222D01*
X0266131Y0018135D01*
X0266170Y0018046D01*
X0266205Y0017956D01*
X0266236Y0017864D01*
X0266263Y0017771D01*
X0266287Y0017677D01*
X0266307Y0017582D01*
X0266323Y0017486D01*
X0266335Y0017390D01*
X0266343Y0017293D01*
X0266347Y0017196D01*
X0266347Y0017100D01*
X0266343Y0017003D01*
X0266335Y0016906D01*
X0266323Y0016810D01*
X0266307Y0016714D01*
X0266287Y0016619D01*
X0266263Y0016525D01*
X0266236Y0016432D01*
X0266205Y0016340D01*
X0266170Y0016250D01*
X0266131Y0016161D01*
X0266088Y0016074D01*
X0266043Y0015988D01*
X0265993Y0015905D01*
X0265940Y0015823D01*
X0265884Y0015744D01*
X0265825Y0015667D01*
X0265763Y0015593D01*
X0265697Y0015521D01*
X0265629Y0015452D01*
X0265558Y0015386D01*
X0265485Y0015323D01*
X0265408Y0015263D01*
X0265330Y0015206D01*
X0265249Y0015153D01*
X0265166Y0015102D01*
X0265081Y0015056D01*
X0264994Y0015012D01*
X0264906Y0014973D01*
X0264816Y0014937D01*
X0264724Y0014905D01*
X0264631Y0014876D01*
X0264538Y0014852D01*
X0264443Y0014831D01*
X0264347Y0014814D01*
X0264251Y0014801D01*
X0264155Y0014792D01*
X0264058Y0014787D01*
X0263961Y0014786D01*
X0263864Y0014789D01*
X0263767Y0014796D01*
X0263671Y0014807D01*
X0263575Y0014822D01*
X0263480Y0014841D01*
X0263385Y0014863D01*
X0263292Y0014890D01*
X0263200Y0014920D01*
X0263109Y0014954D01*
X0263020Y0014992D01*
X0262932Y0015034D01*
X0262846Y0015079D01*
X0262762Y0015127D01*
X0262680Y0015179D01*
X0262601Y0015234D01*
X0262523Y0015293D01*
X0262448Y0015354D01*
X0262376Y0015419D01*
X0262306Y0015486D01*
X0262239Y0015557D01*
X0262176Y0015630D01*
X0262115Y0015705D01*
X0262057Y0015783D01*
X0262003Y0015864D01*
X0261952Y0015946D01*
X0261904Y0016031D01*
X0261860Y0016117D01*
X0261819Y0016205D01*
X0261783Y0016295D01*
X0261749Y0016386D01*
X0261720Y0016478D01*
X0261694Y0016572D01*
X0261673Y0016666D01*
X0261655Y0016762D01*
X0261641Y0016858D01*
X0261631Y0016954D01*
X0261625Y0017051D01*
X0261623Y0017148D01*
X0261623Y0026991D02*
X0261625Y0027088D01*
X0261631Y0027185D01*
X0261641Y0027281D01*
X0261655Y0027377D01*
X0261673Y0027473D01*
X0261694Y0027567D01*
X0261720Y0027661D01*
X0261749Y0027753D01*
X0261783Y0027844D01*
X0261819Y0027934D01*
X0261860Y0028022D01*
X0261904Y0028108D01*
X0261952Y0028193D01*
X0262003Y0028275D01*
X0262057Y0028356D01*
X0262115Y0028434D01*
X0262176Y0028509D01*
X0262239Y0028582D01*
X0262306Y0028653D01*
X0262376Y0028720D01*
X0262448Y0028785D01*
X0262523Y0028846D01*
X0262601Y0028905D01*
X0262680Y0028960D01*
X0262762Y0029012D01*
X0262846Y0029060D01*
X0262932Y0029105D01*
X0263020Y0029147D01*
X0263109Y0029185D01*
X0263200Y0029219D01*
X0263292Y0029249D01*
X0263385Y0029276D01*
X0263480Y0029298D01*
X0263575Y0029317D01*
X0263671Y0029332D01*
X0263767Y0029343D01*
X0263864Y0029350D01*
X0263961Y0029353D01*
X0264058Y0029352D01*
X0264155Y0029347D01*
X0264251Y0029338D01*
X0264347Y0029325D01*
X0264443Y0029308D01*
X0264538Y0029287D01*
X0264631Y0029263D01*
X0264724Y0029234D01*
X0264816Y0029202D01*
X0264906Y0029166D01*
X0264994Y0029127D01*
X0265081Y0029083D01*
X0265166Y0029037D01*
X0265249Y0028986D01*
X0265330Y0028933D01*
X0265408Y0028876D01*
X0265485Y0028816D01*
X0265558Y0028753D01*
X0265629Y0028687D01*
X0265697Y0028618D01*
X0265763Y0028546D01*
X0265825Y0028472D01*
X0265884Y0028395D01*
X0265940Y0028316D01*
X0265993Y0028234D01*
X0266043Y0028151D01*
X0266088Y0028065D01*
X0266131Y0027978D01*
X0266170Y0027889D01*
X0266205Y0027799D01*
X0266236Y0027707D01*
X0266263Y0027614D01*
X0266287Y0027520D01*
X0266307Y0027425D01*
X0266323Y0027329D01*
X0266335Y0027233D01*
X0266343Y0027136D01*
X0266347Y0027039D01*
X0266347Y0026943D01*
X0266343Y0026846D01*
X0266335Y0026749D01*
X0266323Y0026653D01*
X0266307Y0026557D01*
X0266287Y0026462D01*
X0266263Y0026368D01*
X0266236Y0026275D01*
X0266205Y0026183D01*
X0266170Y0026093D01*
X0266131Y0026004D01*
X0266088Y0025917D01*
X0266043Y0025831D01*
X0265993Y0025748D01*
X0265940Y0025666D01*
X0265884Y0025587D01*
X0265825Y0025510D01*
X0265763Y0025436D01*
X0265697Y0025364D01*
X0265629Y0025295D01*
X0265558Y0025229D01*
X0265485Y0025166D01*
X0265408Y0025106D01*
X0265330Y0025049D01*
X0265249Y0024996D01*
X0265166Y0024945D01*
X0265081Y0024899D01*
X0264994Y0024855D01*
X0264906Y0024816D01*
X0264816Y0024780D01*
X0264724Y0024748D01*
X0264631Y0024719D01*
X0264538Y0024695D01*
X0264443Y0024674D01*
X0264347Y0024657D01*
X0264251Y0024644D01*
X0264155Y0024635D01*
X0264058Y0024630D01*
X0263961Y0024629D01*
X0263864Y0024632D01*
X0263767Y0024639D01*
X0263671Y0024650D01*
X0263575Y0024665D01*
X0263480Y0024684D01*
X0263385Y0024706D01*
X0263292Y0024733D01*
X0263200Y0024763D01*
X0263109Y0024797D01*
X0263020Y0024835D01*
X0262932Y0024877D01*
X0262846Y0024922D01*
X0262762Y0024970D01*
X0262680Y0025022D01*
X0262601Y0025077D01*
X0262523Y0025136D01*
X0262448Y0025197D01*
X0262376Y0025262D01*
X0262306Y0025329D01*
X0262239Y0025400D01*
X0262176Y0025473D01*
X0262115Y0025548D01*
X0262057Y0025626D01*
X0262003Y0025707D01*
X0261952Y0025789D01*
X0261904Y0025874D01*
X0261860Y0025960D01*
X0261819Y0026048D01*
X0261783Y0026138D01*
X0261749Y0026229D01*
X0261720Y0026321D01*
X0261694Y0026415D01*
X0261673Y0026509D01*
X0261655Y0026605D01*
X0261641Y0026701D01*
X0261631Y0026797D01*
X0261625Y0026894D01*
X0261623Y0026991D01*
D11*
X0005925Y0087241D02*
X0005925Y0180241D01*
M02*
