%
M48
M72
T01C0.01200
T02C0.01800
T03C0.01969
T04C0.03500
T05C0.04000
T06C0.04331
T07C0.04700
T08C0.04724
T09C0.05118
T10C0.06299
T11C0.09055
T12C0.09100
T13C0.11024
T14C0.13000
%
T01
X41175Y24116
X94300Y42866
X116175Y50991
X134925Y63491
X121800Y77866
X133050Y80991
X131800Y95678
X138675Y95678
X150550Y95678
X157425Y95678
X164456Y95756
X167738Y100991
X164300Y104116
X171488Y95678
X183362Y95678
X189925Y95678
X203050Y105678
X218800Y108566
X219100Y112966
X218800Y117366
X204925Y126303
X205316Y133725
X197112Y133803
X200237Y140991
X205237Y140366
X205237Y148491
X205237Y155366
X218300Y158866
X224300Y163366
X219300Y165766
X221300Y154866
X236487Y144116
X238675Y135366
X249800Y128866
X255300Y128366
X258300Y125366
X266175Y131616
X266300Y140866
X257800Y147366
X253800Y153366
X257800Y157366
X252800Y160366
X256300Y163366
X265300Y164866
X268675Y161616
X283300Y164866
X285550Y159741
X284300Y144428
X261800Y184741
X298675Y215366
X328675Y215366
X328675Y227241
X221300Y139366
X222800Y132366
X178675Y140991
X158363Y140678
X139925Y139428
X132113Y139428
X132113Y133803
X132113Y126928
X118987Y133178
X112425Y124741
X116800Y118491
X106800Y115366
X108675Y109741
X112425Y106616
X98050Y119116
X88050Y119116
X79300Y122866
X61175Y135366
X41175Y123491
X31800Y139741
X83050Y105991
X79925Y94116
X100550Y87866
X132113Y106928
X132113Y113803
X158675Y124116
X132113Y146303
X132113Y158334
X142425Y168491
X147269Y168803
X153909Y168803
X147425Y160678
X166409Y168803
X174034Y168859
X181253Y168803
X174112Y160678
X194847Y168803
X201644Y168803
X204925Y202241
X129534Y175991
X115862Y164741
X99300Y147366
X85800Y147366
X54300Y75366
X59925Y72866
X23050Y75366
X145550Y31616
X160550Y37866
X176800Y45366
X176800Y53491
X174300Y62241
X164300Y62241
X184300Y37241
T02
X18200Y33622
X18200Y49422
T03
X161115Y20912
X166036Y20912
X170957Y20912
X175879Y20912
X180800Y20912
X185721Y20912
X190643Y20912
X195564Y20912
X200485Y20912
X228247Y89637
X233168Y89637
X238089Y89637
X243011Y89637
X247932Y89637
X252853Y89637
T04
X297875Y66066
X307675Y66066
X307675Y57966
X307675Y47766
X307675Y39666
X297875Y39666
T05
X283675Y75991
X273675Y75991
X273675Y85991
X283675Y85991
X299334Y127305
X310516Y132777
X299334Y138210
X310516Y143682
X299334Y149116
X310516Y154549
X299334Y160021
X310516Y165454
X299334Y170927
X126800Y205366
X116800Y205366
X106800Y205366
X96800Y205366
X86800Y205366
X76800Y205366
X66800Y205366
X56800Y205366
X46800Y205366
X36800Y205366
X26800Y205366
X16800Y205366
X11800Y215366
X21800Y215366
X31800Y215366
X41800Y215366
X51800Y215366
X61800Y215366
X71800Y215366
X81800Y215366
X91800Y215366
X101800Y215366
X111800Y215366
X121800Y215366
X116800Y225366
X106800Y225366
X96800Y225366
X86800Y225366
X76800Y225366
X66800Y225366
X56800Y225366
X46800Y225366
X36800Y225366
X26800Y225366
X16800Y225366
X92014Y184526
X99086Y177455
X126800Y225366
X55550Y50366
X44925Y50366
X44925Y40366
X55550Y40366
T06
X60925Y88084
T07
X9800Y30222
X9800Y52822
T08
X224615Y26991
X224615Y17148
X244300Y46676
X263985Y26991
X263985Y17148
X261019Y199681
X280704Y219366
X280704Y229208
X241334Y229208
X241334Y219366
T09
X261019Y219366
X270861Y199681
X280704Y199681
X251176Y199681
X241334Y199681
X234457Y46676
X224615Y46676
X244300Y26991
X254143Y46676
X263985Y46676
T10
X60925Y171084
T11
X186175Y195149
X186175Y212866
T12
X319475Y79466
X322675Y52866
X319475Y26266
T13
X149925Y217866
X169738Y225267
X202612Y225267
T14
X304925Y198328
X304925Y99903
M30
