%
M48
M72
T01C0.01200
T02C0.01800
T03C0.01969
T04C0.03500
T05C0.04000
T06C0.04331
T07C0.04700
T08C0.04724
T09C0.05118
T10C0.06299
T11C0.09055
T12C0.09100
T13C0.11024
T14C0.13000
%
T01
X41175Y51625
X94300Y70375
X116175Y78500
X134925Y91000
X121800Y105375
X133050Y108500
X131800Y123187
X138675Y123187
X150550Y123187
X157425Y123187
X164456Y123266
X167738Y128500
X164300Y131625
X171488Y123187
X183362Y123187
X189925Y123187
X203050Y133188
X218800Y136075
X219100Y140475
X218800Y144875
X222800Y159875
X221300Y166875
X221300Y182375
X218300Y186375
X219300Y193275
X224300Y190875
X205237Y182875
X205237Y176000
X205237Y167875
X200237Y168500
X197112Y161313
X205316Y161234
X204925Y153813
X178675Y168500
X158363Y168188
X158675Y151625
X139925Y166938
X132113Y166938
X132113Y161313
X132113Y154438
X118987Y160688
X112425Y152250
X116800Y146000
X132113Y141313
X132113Y134438
X112425Y134125
X108675Y137250
X106800Y142875
X98050Y146625
X88050Y146625
X79300Y150375
X83050Y133500
X79925Y121625
X100550Y115375
X59925Y100375
X54300Y102875
X23050Y102875
X41175Y151000
X61175Y162875
X31800Y167250
X85800Y174875
X99300Y174875
X115862Y192250
X132113Y185844
X132113Y173812
X147425Y188187
X147269Y196312
X142425Y196000
X153909Y196312
X166409Y196312
X174034Y196369
X181253Y196312
X174112Y188187
X194847Y196312
X201644Y196312
X204925Y229750
X256300Y190875
X252800Y187875
X257800Y184875
X253800Y180875
X257800Y174875
X266300Y168375
X266175Y159125
X258300Y152875
X255300Y155875
X249800Y156375
X238675Y162875
X236487Y171625
X265300Y192375
X268675Y189125
X283300Y192375
X285550Y187250
X284300Y171938
X261800Y212250
X298675Y242875
X328675Y242875
X328675Y254750
X441175Y167250
X450550Y151000
X470550Y162875
X488675Y150375
X497425Y146625
X507425Y146625
X516175Y142875
X518050Y137250
X521800Y134125
X526175Y146000
X521800Y152250
X528363Y160688
X541488Y161313
X541488Y166938
X541488Y173812
X549300Y166938
X541488Y154438
X541488Y141313
X541488Y134438
X541175Y123187
X548050Y123187
X559925Y123187
X566800Y123187
X573831Y123266
X577113Y128500
X573675Y131625
X580863Y123187
X592738Y123187
X599300Y123187
X612425Y133188
X628175Y136075
X628475Y140475
X628175Y144875
X632175Y159875
X630675Y166875
X630675Y182375
X627675Y186375
X628675Y193275
X633675Y190875
X614613Y182875
X614613Y176000
X614613Y167875
X609613Y168500
X606488Y161313
X614691Y161234
X614300Y153813
X588050Y168500
X583488Y188187
X583409Y196369
X590628Y196312
X604222Y196312
X611019Y196312
X614300Y229750
X575784Y196312
X563284Y196312
X556644Y196312
X551800Y196000
X538909Y203500
X525238Y192250
X541488Y185844
X556800Y188187
X567738Y168188
X568050Y151625
X542425Y108500
X531175Y105375
X544300Y91000
X525550Y78500
X503675Y70375
X469300Y100375
X463675Y102875
X489300Y121625
X492425Y133500
X509925Y115375
X573675Y89750
X583675Y89750
X586175Y81000
X586175Y72875
X593675Y64750
X569925Y65375
X554925Y59125
X450550Y51625
X432425Y102875
X495175Y174875
X508675Y174875
X645863Y171625
X648050Y162875
X659175Y156375
X664675Y155875
X667675Y152875
X675550Y159125
X675675Y168375
X667175Y174875
X663175Y180875
X667175Y184875
X662175Y187875
X665675Y190875
X674675Y192375
X678050Y189125
X692675Y192375
X694925Y187250
X693675Y171938
X671175Y212250
X708050Y242875
X738050Y242875
X738050Y254750
X593831Y356156
X586331Y364281
X586331Y372406
X583831Y381156
X573831Y381156
X570081Y356781
X555081Y350531
X525706Y369906
X544456Y382406
X531331Y396781
X542581Y399906
X541331Y414594
X548206Y414594
X560081Y414594
X566956Y414594
X573988Y414672
X577269Y419906
X573831Y423031
X581019Y414594
X592894Y414594
X599456Y414594
X612581Y424594
X628331Y427481
X628631Y431881
X628331Y436281
X614456Y445219
X614847Y452641
X614769Y459281
X609769Y459906
X606644Y452719
X614769Y467406
X614769Y474281
X627831Y477781
X630831Y473781
X633831Y482281
X628831Y484681
X611175Y487719
X604378Y487719
X590784Y487719
X583566Y487775
X575941Y487719
X583644Y479594
X588206Y459906
X567894Y459594
X549456Y458344
X541644Y458344
X541644Y452719
X541644Y445844
X541644Y432719
X541644Y425844
X526331Y437406
X521956Y443656
X516331Y434281
X518206Y428656
X521956Y425531
X507581Y438031
X497581Y438031
X488831Y441781
X470706Y454281
X450706Y442406
X441331Y458656
X495331Y466281
X508831Y466281
X528519Y452094
X541644Y465219
X541644Y477250
X551956Y487406
X556800Y487719
X563441Y487719
X556956Y479594
X539066Y494906
X525394Y483656
X568206Y443031
X630831Y458281
X632331Y451281
X648206Y454281
X659331Y447781
X664831Y447281
X667831Y444281
X675706Y450531
X675831Y459781
X667331Y466281
X663331Y472281
X667331Y476281
X662331Y479281
X665831Y482281
X674831Y483781
X678206Y480531
X692831Y483781
X695081Y478656
X693831Y463344
X671331Y503656
X646019Y463031
X614456Y521156
X708206Y534281
X738206Y534281
X738206Y546156
X510081Y406781
X489456Y413031
X492581Y424906
X469456Y391781
X463831Y394281
X432581Y394281
X450706Y343031
X503831Y361781
X284300Y463344
X285550Y478656
X283300Y483781
X268675Y480531
X265300Y483781
X257800Y476281
X253800Y472281
X252800Y479281
X256300Y482281
X257800Y466281
X266300Y459781
X266175Y450531
X258300Y444281
X255300Y447281
X249800Y447781
X238675Y454281
X236487Y463031
X221300Y458281
X222800Y451281
X205316Y452641
X205237Y459281
X200237Y459906
X197112Y452719
X204925Y445219
X218800Y436281
X219100Y431881
X218800Y427481
X203050Y424594
X189925Y414594
X183362Y414594
X171488Y414594
X167738Y419906
X164300Y423031
X164456Y414672
X157425Y414594
X150550Y414594
X138675Y414594
X131800Y414594
X132113Y425844
X132113Y432719
X116800Y437406
X112425Y443656
X106800Y434281
X108675Y428656
X112425Y425531
X98050Y438031
X88050Y438031
X79300Y441781
X83050Y424906
X79925Y413031
X100550Y406781
X121800Y396781
X133050Y399906
X134925Y382406
X116175Y369906
X94300Y361781
X59925Y391781
X54300Y394281
X23050Y394281
X41175Y442406
X61175Y454281
X31800Y458656
X85800Y466281
X99300Y466281
X115862Y483656
X132113Y477250
X132113Y465219
X132113Y458344
X132113Y452719
X132113Y445844
X118987Y452094
X139925Y458344
X158363Y459594
X178675Y459906
X174112Y479594
X174034Y487775
X181253Y487719
X194847Y487719
X201644Y487719
X205237Y474281
X205237Y467406
X218300Y477781
X221300Y473781
X224300Y482281
X219300Y484681
X261800Y503656
X298675Y534281
X328675Y534281
X328675Y546156
X204925Y521156
X166409Y487719
X153909Y487719
X147269Y487719
X142425Y487406
X147425Y479594
X129534Y494906
X158675Y443031
X164300Y381156
X174300Y381156
X176800Y372406
X176800Y364281
X184300Y356156
X160550Y356781
X145550Y350531
X41175Y343031
X129534Y203500
X164300Y89750
X174300Y89750
X176800Y81000
X176800Y72875
X184300Y64750
X160550Y65375
X145550Y59125
T02
X18200Y61131
X18200Y76931
X18200Y352537
X18200Y368337
X427731Y368337
X427731Y352537
X427575Y76931
X427575Y61131
T03
X570490Y48421
X575411Y48421
X580332Y48421
X585254Y48421
X590175Y48421
X595096Y48421
X600018Y48421
X604939Y48421
X609860Y48421
X637622Y117147
X642543Y117147
X647464Y117147
X652386Y117147
X657307Y117147
X662228Y117147
X610016Y339828
X605095Y339828
X600174Y339828
X595253Y339828
X590331Y339828
X585410Y339828
X580489Y339828
X575567Y339828
X570646Y339828
X637778Y408553
X642699Y408553
X647621Y408553
X652542Y408553
X657463Y408553
X662384Y408553
X252853Y408553
X247932Y408553
X243011Y408553
X238089Y408553
X233168Y408553
X228247Y408553
X200485Y339828
X195564Y339828
X190643Y339828
X185721Y339828
X180800Y339828
X175879Y339828
X170957Y339828
X166036Y339828
X161115Y339828
X228247Y117147
X233168Y117147
X238089Y117147
X243011Y117147
X247932Y117147
X252853Y117147
X200485Y48421
X195564Y48421
X190643Y48421
X185721Y48421
X180800Y48421
X175879Y48421
X170957Y48421
X166036Y48421
X161115Y48421
T04
X297875Y67175
X307675Y67175
X307675Y75275
X307675Y85475
X307675Y93575
X297875Y93575
X297875Y358581
X307675Y358581
X307675Y366681
X307675Y376881
X307675Y384981
X297875Y384981
X707406Y384981
X717206Y384981
X717206Y376881
X717206Y366681
X717206Y358581
X707406Y358581
X707250Y93575
X717050Y93575
X717050Y85475
X717050Y75275
X717050Y67175
X707250Y67175
T05
X693050Y103500
X693050Y113500
X683050Y113500
X683050Y103500
X708709Y154814
X708709Y165719
X719891Y160286
X719891Y171192
X708709Y176625
X719891Y182058
X708709Y187531
X719891Y192964
X708709Y198436
X536175Y232875
X526175Y232875
X516175Y232875
X506175Y232875
X501175Y242875
X491175Y242875
X486175Y232875
X476175Y232875
X471175Y242875
X461175Y242875
X456175Y232875
X446175Y232875
X436175Y232875
X431175Y242875
X421175Y242875
X426175Y232875
X441175Y242875
X451175Y242875
X446175Y252875
X436175Y252875
X426175Y252875
X456175Y252875
X466175Y252875
X476175Y252875
X486175Y252875
X496175Y252875
X506175Y252875
X516175Y252875
X526175Y252875
X536175Y252875
X531175Y242875
X521175Y242875
X511175Y242875
X496175Y232875
X481175Y242875
X466175Y232875
X501389Y212036
X508461Y204964
X464925Y77875
X454300Y77875
X454300Y67875
X464925Y67875
X310516Y160286
X310516Y171192
X299334Y176625
X310516Y182058
X299334Y187531
X310516Y192964
X299334Y198436
X299334Y165719
X299334Y154814
X283675Y113500
X273675Y113500
X273675Y103500
X283675Y103500
X126800Y232875
X116800Y232875
X111800Y242875
X101800Y242875
X96800Y232875
X86800Y232875
X81800Y242875
X71800Y242875
X66800Y232875
X56800Y232875
X46800Y232875
X41800Y242875
X31800Y242875
X26800Y232875
X16800Y232875
X11800Y242875
X21800Y242875
X16800Y252875
X26800Y252875
X36800Y252875
X46800Y252875
X56800Y252875
X66800Y252875
X76800Y252875
X86800Y252875
X96800Y252875
X106800Y252875
X116800Y252875
X126800Y252875
X121800Y242875
X106800Y232875
X91800Y242875
X76800Y232875
X61800Y242875
X51800Y242875
X36800Y232875
X92014Y212036
X99086Y204964
X55550Y77875
X55550Y67875
X44925Y67875
X44925Y77875
X44925Y359281
X44925Y369281
X55550Y369281
X55550Y359281
X99086Y496371
X92014Y503442
X96800Y524281
X86800Y524281
X76800Y524281
X66800Y524281
X56800Y524281
X46800Y524281
X36800Y524281
X26800Y524281
X16800Y524281
X11800Y534281
X21800Y534281
X16800Y544281
X26800Y544281
X36800Y544281
X31800Y534281
X41800Y534281
X51800Y534281
X61800Y534281
X56800Y544281
X46800Y544281
X66800Y544281
X76800Y544281
X71800Y534281
X81800Y534281
X91800Y534281
X86800Y544281
X96800Y544281
X106800Y544281
X101800Y534281
X111800Y534281
X121800Y534281
X116800Y544281
X126800Y544281
X126800Y524281
X116800Y524281
X106800Y524281
X273675Y404906
X283675Y404906
X283675Y394906
X273675Y394906
X299334Y446220
X310516Y451693
X299334Y457126
X299334Y468031
X310516Y462598
X310516Y473464
X299334Y478937
X310516Y484370
X299334Y489842
X421331Y534281
X431331Y534281
X441331Y534281
X436331Y544281
X446331Y544281
X456331Y544281
X466331Y544281
X461331Y534281
X451331Y534281
X446331Y524281
X436331Y524281
X426331Y524281
X426331Y544281
X456331Y524281
X466331Y524281
X476331Y524281
X486331Y524281
X496331Y524281
X506331Y524281
X516331Y524281
X526331Y524281
X536331Y524281
X531331Y534281
X521331Y534281
X516331Y544281
X506331Y544281
X501331Y534281
X491331Y534281
X486331Y544281
X476331Y544281
X471331Y534281
X481331Y534281
X496331Y544281
X511331Y534281
X526331Y544281
X536331Y544281
X501546Y503442
X508617Y496371
X465081Y369281
X454456Y369281
X454456Y359281
X465081Y359281
X683206Y394906
X683206Y404906
X693206Y404906
X693206Y394906
X708866Y446220
X720047Y451693
X708866Y457126
X708866Y468031
X720047Y462598
X720047Y473464
X708866Y478937
X720047Y484370
X708866Y489842
T06
X470456Y407000
X470300Y115594
X60925Y115594
X60925Y407000
T07
X9800Y371737
X9800Y349137
X9800Y80331
X9800Y57731
X419175Y57731
X419175Y80331
X419331Y349137
X419331Y371737
T08
X280704Y256718
X280704Y246875
X261019Y227190
X241334Y246875
X241334Y256718
X224615Y336064
X224615Y345906
X244300Y365591
X263985Y345906
X263985Y336064
X261019Y518596
X280704Y538281
X280704Y548124
X241334Y548124
X241334Y538281
X634146Y345906
X634146Y336064
X653831Y365591
X673516Y345906
X673516Y336064
X690079Y256718
X690079Y246875
X670394Y227190
X650709Y246875
X650709Y256718
X653675Y74185
X633990Y54500
X633990Y44657
X673360Y44657
X673360Y54500
X263985Y54500
X263985Y44657
X244300Y74185
X224615Y54500
X224615Y44657
X670550Y518596
X650865Y538281
X650865Y548124
X690235Y548124
X690235Y538281
T09
X670550Y538281
X660707Y518596
X650865Y518596
X680393Y518596
X690235Y518596
X673516Y365591
X663674Y365591
X643989Y365591
X634146Y365591
X653831Y345906
X670394Y246875
X680236Y227190
X690079Y227190
X660551Y227190
X650709Y227190
X643832Y74185
X633990Y74185
X653675Y54500
X663518Y74185
X673360Y74185
X280704Y227190
X270861Y227190
X251176Y227190
X241334Y227190
X261019Y246875
X244300Y345906
X234457Y365591
X224615Y365591
X254143Y365591
X263985Y365591
X270861Y518596
X280704Y518596
X261019Y538281
X251176Y518596
X241334Y518596
X234457Y74185
X224615Y74185
X244300Y54500
X254143Y74185
X263985Y74185
T10
X60925Y198594
X60925Y490000
X470456Y490000
X470300Y198594
T11
X595550Y222658
X595550Y240375
X595706Y514065
X595706Y531781
X186175Y531781
X186175Y514065
X186175Y240375
X186175Y222658
T12
X319475Y106975
X322675Y80375
X319475Y53775
X319475Y345181
X322675Y371781
X319475Y398381
X729006Y398381
X732206Y371781
X729006Y345181
X728850Y106975
X732050Y80375
X728850Y53775
T13
X559300Y245375
X579113Y252777
X611987Y252777
X559456Y536781
X579269Y544183
X612143Y544183
X202612Y544183
X169738Y544183
X149925Y536781
X169738Y252777
X149925Y245375
X202612Y252777
T14
X304925Y225838
X304925Y127412
X304925Y418819
X304925Y517244
X714456Y517244
X714456Y418819
X714300Y225838
X714300Y127412
M30
