G75*
%MOIN*%
%OFA0B0*%
%FSLAX25Y25*%
%IPPOS*%
%LPD*%
%AMOC8*
5,1,8,0,0,1.08239X$1,22.5*
%
%ADD10R,0.01181X0.06299*%
%ADD11R,0.06299X0.01181*%
%ADD12R,0.05118X0.01575*%
%ADD13R,0.03937X0.04331*%
%ADD14R,0.02400X0.08700*%
%ADD15R,0.05118X0.06299*%
%ADD16R,0.03937X0.05512*%
%ADD17R,0.06299X0.05118*%
%ADD18R,0.05906X0.05118*%
%ADD19R,0.04331X0.03937*%
%ADD20R,0.05900X0.07900*%
%ADD21R,0.15000X0.07900*%
%ADD22R,0.05118X0.05906*%
%ADD23R,0.08661X0.02362*%
%ADD24R,0.21000X0.07600*%
%ADD25R,0.06299X0.13780*%
%ADD26R,0.04724X0.04724*%
%ADD27R,0.03150X0.03937*%
%ADD28R,0.03937X0.03150*%
%ADD29R,0.08300X0.01600*%
D10*
X0134226Y0116049D03*
X0136195Y0116049D03*
X0138163Y0116049D03*
X0140132Y0116049D03*
X0142100Y0116049D03*
X0144069Y0116049D03*
X0146037Y0116049D03*
X0148006Y0116049D03*
X0149974Y0116049D03*
X0151943Y0116049D03*
X0153911Y0116049D03*
X0155880Y0116049D03*
X0157848Y0116049D03*
X0159817Y0116049D03*
X0161785Y0116049D03*
X0163754Y0116049D03*
X0165722Y0116049D03*
X0167691Y0116049D03*
X0169659Y0116049D03*
X0171628Y0116049D03*
X0173596Y0116049D03*
X0175565Y0116049D03*
X0177533Y0116049D03*
X0179502Y0116049D03*
X0181470Y0116049D03*
X0183439Y0116049D03*
X0185407Y0116049D03*
X0187376Y0116049D03*
X0189344Y0116049D03*
X0191313Y0116049D03*
X0193281Y0116049D03*
X0195250Y0116049D03*
X0197218Y0116049D03*
X0199187Y0116049D03*
X0201155Y0116049D03*
X0203124Y0116049D03*
X0203124Y0203451D03*
X0201155Y0203451D03*
X0199187Y0203451D03*
X0197218Y0203451D03*
X0195250Y0203451D03*
X0193281Y0203451D03*
X0191313Y0203451D03*
X0189344Y0203451D03*
X0187376Y0203451D03*
X0185407Y0203451D03*
X0183439Y0203451D03*
X0181470Y0203451D03*
X0179502Y0203451D03*
X0177533Y0203451D03*
X0175565Y0203451D03*
X0173596Y0203451D03*
X0171628Y0203451D03*
X0169659Y0203451D03*
X0167691Y0203451D03*
X0165722Y0203451D03*
X0163754Y0203451D03*
X0161785Y0203451D03*
X0159817Y0203451D03*
X0157848Y0203451D03*
X0155880Y0203451D03*
X0153911Y0203451D03*
X0151943Y0203451D03*
X0149974Y0203451D03*
X0148006Y0203451D03*
X0146037Y0203451D03*
X0144069Y0203451D03*
X0142100Y0203451D03*
X0140132Y0203451D03*
X0138163Y0203451D03*
X0136195Y0203451D03*
X0134226Y0203451D03*
X0134226Y0407455D03*
X0136195Y0407455D03*
X0138163Y0407455D03*
X0140132Y0407455D03*
X0142100Y0407455D03*
X0144069Y0407455D03*
X0146037Y0407455D03*
X0148006Y0407455D03*
X0149974Y0407455D03*
X0151943Y0407455D03*
X0153911Y0407455D03*
X0155880Y0407455D03*
X0157848Y0407455D03*
X0159817Y0407455D03*
X0161785Y0407455D03*
X0163754Y0407455D03*
X0165722Y0407455D03*
X0167691Y0407455D03*
X0169659Y0407455D03*
X0171628Y0407455D03*
X0173596Y0407455D03*
X0175565Y0407455D03*
X0177533Y0407455D03*
X0179502Y0407455D03*
X0181470Y0407455D03*
X0183439Y0407455D03*
X0185407Y0407455D03*
X0187376Y0407455D03*
X0189344Y0407455D03*
X0191313Y0407455D03*
X0193281Y0407455D03*
X0195250Y0407455D03*
X0197218Y0407455D03*
X0199187Y0407455D03*
X0201155Y0407455D03*
X0203124Y0407455D03*
X0203124Y0494857D03*
X0201155Y0494857D03*
X0199187Y0494857D03*
X0197218Y0494857D03*
X0195250Y0494857D03*
X0193281Y0494857D03*
X0191313Y0494857D03*
X0189344Y0494857D03*
X0187376Y0494857D03*
X0185407Y0494857D03*
X0183439Y0494857D03*
X0181470Y0494857D03*
X0179502Y0494857D03*
X0177533Y0494857D03*
X0175565Y0494857D03*
X0173596Y0494857D03*
X0171628Y0494857D03*
X0169659Y0494857D03*
X0167691Y0494857D03*
X0165722Y0494857D03*
X0163754Y0494857D03*
X0161785Y0494857D03*
X0159817Y0494857D03*
X0157848Y0494857D03*
X0155880Y0494857D03*
X0153911Y0494857D03*
X0151943Y0494857D03*
X0149974Y0494857D03*
X0148006Y0494857D03*
X0146037Y0494857D03*
X0144069Y0494857D03*
X0142100Y0494857D03*
X0140132Y0494857D03*
X0138163Y0494857D03*
X0136195Y0494857D03*
X0134226Y0494857D03*
X0543757Y0494857D03*
X0545726Y0494857D03*
X0547694Y0494857D03*
X0549663Y0494857D03*
X0551631Y0494857D03*
X0553600Y0494857D03*
X0555568Y0494857D03*
X0557537Y0494857D03*
X0559505Y0494857D03*
X0561474Y0494857D03*
X0563442Y0494857D03*
X0565411Y0494857D03*
X0567379Y0494857D03*
X0569348Y0494857D03*
X0571316Y0494857D03*
X0573285Y0494857D03*
X0575253Y0494857D03*
X0577222Y0494857D03*
X0579191Y0494857D03*
X0581159Y0494857D03*
X0583128Y0494857D03*
X0585096Y0494857D03*
X0587065Y0494857D03*
X0589033Y0494857D03*
X0591002Y0494857D03*
X0592970Y0494857D03*
X0594939Y0494857D03*
X0596907Y0494857D03*
X0598876Y0494857D03*
X0600844Y0494857D03*
X0602813Y0494857D03*
X0604781Y0494857D03*
X0606750Y0494857D03*
X0608718Y0494857D03*
X0610687Y0494857D03*
X0612655Y0494857D03*
X0612655Y0407455D03*
X0610687Y0407455D03*
X0608718Y0407455D03*
X0606750Y0407455D03*
X0604781Y0407455D03*
X0602813Y0407455D03*
X0600844Y0407455D03*
X0598876Y0407455D03*
X0596907Y0407455D03*
X0594939Y0407455D03*
X0592970Y0407455D03*
X0591002Y0407455D03*
X0589033Y0407455D03*
X0587065Y0407455D03*
X0585096Y0407455D03*
X0583128Y0407455D03*
X0581159Y0407455D03*
X0579191Y0407455D03*
X0577222Y0407455D03*
X0575253Y0407455D03*
X0573285Y0407455D03*
X0571316Y0407455D03*
X0569348Y0407455D03*
X0567379Y0407455D03*
X0565411Y0407455D03*
X0563442Y0407455D03*
X0561474Y0407455D03*
X0559505Y0407455D03*
X0557537Y0407455D03*
X0555568Y0407455D03*
X0553600Y0407455D03*
X0551631Y0407455D03*
X0549663Y0407455D03*
X0547694Y0407455D03*
X0545726Y0407455D03*
X0543757Y0407455D03*
X0543601Y0203451D03*
X0545570Y0203451D03*
X0547538Y0203451D03*
X0549507Y0203451D03*
X0551475Y0203451D03*
X0553444Y0203451D03*
X0555412Y0203451D03*
X0557381Y0203451D03*
X0559349Y0203451D03*
X0561318Y0203451D03*
X0563286Y0203451D03*
X0565255Y0203451D03*
X0567223Y0203451D03*
X0569192Y0203451D03*
X0571160Y0203451D03*
X0573129Y0203451D03*
X0575097Y0203451D03*
X0577066Y0203451D03*
X0579034Y0203451D03*
X0581003Y0203451D03*
X0582971Y0203451D03*
X0584940Y0203451D03*
X0586908Y0203451D03*
X0588877Y0203451D03*
X0590845Y0203451D03*
X0592814Y0203451D03*
X0594782Y0203451D03*
X0596751Y0203451D03*
X0598719Y0203451D03*
X0600688Y0203451D03*
X0602656Y0203451D03*
X0604625Y0203451D03*
X0606593Y0203451D03*
X0608562Y0203451D03*
X0610530Y0203451D03*
X0612499Y0203451D03*
X0612499Y0116049D03*
X0610530Y0116049D03*
X0608562Y0116049D03*
X0606593Y0116049D03*
X0604625Y0116049D03*
X0602656Y0116049D03*
X0600688Y0116049D03*
X0598719Y0116049D03*
X0596751Y0116049D03*
X0594782Y0116049D03*
X0592814Y0116049D03*
X0590845Y0116049D03*
X0588877Y0116049D03*
X0586908Y0116049D03*
X0584940Y0116049D03*
X0582971Y0116049D03*
X0581003Y0116049D03*
X0579034Y0116049D03*
X0577066Y0116049D03*
X0575097Y0116049D03*
X0573129Y0116049D03*
X0571160Y0116049D03*
X0569192Y0116049D03*
X0567223Y0116049D03*
X0565255Y0116049D03*
X0563286Y0116049D03*
X0561318Y0116049D03*
X0559349Y0116049D03*
X0557381Y0116049D03*
X0555412Y0116049D03*
X0553444Y0116049D03*
X0551475Y0116049D03*
X0549507Y0116049D03*
X0547538Y0116049D03*
X0545570Y0116049D03*
X0543601Y0116049D03*
D11*
X0534349Y0125301D03*
X0534349Y0127270D03*
X0534349Y0129238D03*
X0534349Y0131207D03*
X0534349Y0133175D03*
X0534349Y0135144D03*
X0534349Y0137112D03*
X0534349Y0139081D03*
X0534349Y0141049D03*
X0534349Y0143018D03*
X0534349Y0144986D03*
X0534349Y0146955D03*
X0534349Y0148923D03*
X0534349Y0150892D03*
X0534349Y0152860D03*
X0534349Y0154829D03*
X0534349Y0156797D03*
X0534349Y0158766D03*
X0534349Y0160734D03*
X0534349Y0162703D03*
X0534349Y0164671D03*
X0534349Y0166640D03*
X0534349Y0168608D03*
X0534349Y0170577D03*
X0534349Y0172545D03*
X0534349Y0174514D03*
X0534349Y0176482D03*
X0534349Y0178451D03*
X0534349Y0180419D03*
X0534349Y0182388D03*
X0534349Y0184356D03*
X0534349Y0186325D03*
X0534349Y0188293D03*
X0534349Y0190262D03*
X0534349Y0192230D03*
X0534349Y0194199D03*
X0621751Y0194199D03*
X0621751Y0192230D03*
X0621751Y0190262D03*
X0621751Y0188293D03*
X0621751Y0186325D03*
X0621751Y0184356D03*
X0621751Y0182388D03*
X0621751Y0180419D03*
X0621751Y0178451D03*
X0621751Y0176482D03*
X0621751Y0174514D03*
X0621751Y0172545D03*
X0621751Y0170577D03*
X0621751Y0168608D03*
X0621751Y0166640D03*
X0621751Y0164671D03*
X0621751Y0162703D03*
X0621751Y0160734D03*
X0621751Y0158766D03*
X0621751Y0156797D03*
X0621751Y0154829D03*
X0621751Y0152860D03*
X0621751Y0150892D03*
X0621751Y0148923D03*
X0621751Y0146955D03*
X0621751Y0144986D03*
X0621751Y0143018D03*
X0621751Y0141049D03*
X0621751Y0139081D03*
X0621751Y0137112D03*
X0621751Y0135144D03*
X0621751Y0133175D03*
X0621751Y0131207D03*
X0621751Y0129238D03*
X0621751Y0127270D03*
X0621751Y0125301D03*
X0621907Y0416707D03*
X0621907Y0418676D03*
X0621907Y0420644D03*
X0621907Y0422613D03*
X0621907Y0424581D03*
X0621907Y0426550D03*
X0621907Y0428518D03*
X0621907Y0430487D03*
X0621907Y0432455D03*
X0621907Y0434424D03*
X0621907Y0436392D03*
X0621907Y0438361D03*
X0621907Y0440329D03*
X0621907Y0442298D03*
X0621907Y0444266D03*
X0621907Y0446235D03*
X0621907Y0448203D03*
X0621907Y0450172D03*
X0621907Y0452141D03*
X0621907Y0454109D03*
X0621907Y0456078D03*
X0621907Y0458046D03*
X0621907Y0460015D03*
X0621907Y0461983D03*
X0621907Y0463952D03*
X0621907Y0465920D03*
X0621907Y0467889D03*
X0621907Y0469857D03*
X0621907Y0471826D03*
X0621907Y0473794D03*
X0621907Y0475763D03*
X0621907Y0477731D03*
X0621907Y0479700D03*
X0621907Y0481668D03*
X0621907Y0483637D03*
X0621907Y0485605D03*
X0534505Y0485605D03*
X0534505Y0483637D03*
X0534505Y0481668D03*
X0534505Y0479700D03*
X0534505Y0477731D03*
X0534505Y0475763D03*
X0534505Y0473794D03*
X0534505Y0471826D03*
X0534505Y0469857D03*
X0534505Y0467889D03*
X0534505Y0465920D03*
X0534505Y0463952D03*
X0534505Y0461983D03*
X0534505Y0460015D03*
X0534505Y0458046D03*
X0534505Y0456078D03*
X0534505Y0454109D03*
X0534505Y0452141D03*
X0534505Y0450172D03*
X0534505Y0448203D03*
X0534505Y0446235D03*
X0534505Y0444266D03*
X0534505Y0442298D03*
X0534505Y0440329D03*
X0534505Y0438361D03*
X0534505Y0436392D03*
X0534505Y0434424D03*
X0534505Y0432455D03*
X0534505Y0430487D03*
X0534505Y0428518D03*
X0534505Y0426550D03*
X0534505Y0424581D03*
X0534505Y0422613D03*
X0534505Y0420644D03*
X0534505Y0418676D03*
X0534505Y0416707D03*
X0212376Y0416707D03*
X0212376Y0418676D03*
X0212376Y0420644D03*
X0212376Y0422613D03*
X0212376Y0424581D03*
X0212376Y0426550D03*
X0212376Y0428518D03*
X0212376Y0430487D03*
X0212376Y0432455D03*
X0212376Y0434424D03*
X0212376Y0436392D03*
X0212376Y0438361D03*
X0212376Y0440329D03*
X0212376Y0442298D03*
X0212376Y0444266D03*
X0212376Y0446235D03*
X0212376Y0448203D03*
X0212376Y0450172D03*
X0212376Y0452141D03*
X0212376Y0454109D03*
X0212376Y0456078D03*
X0212376Y0458046D03*
X0212376Y0460015D03*
X0212376Y0461983D03*
X0212376Y0463952D03*
X0212376Y0465920D03*
X0212376Y0467889D03*
X0212376Y0469857D03*
X0212376Y0471826D03*
X0212376Y0473794D03*
X0212376Y0475763D03*
X0212376Y0477731D03*
X0212376Y0479700D03*
X0212376Y0481668D03*
X0212376Y0483637D03*
X0212376Y0485605D03*
X0124974Y0485605D03*
X0124974Y0483637D03*
X0124974Y0481668D03*
X0124974Y0479700D03*
X0124974Y0477731D03*
X0124974Y0475763D03*
X0124974Y0473794D03*
X0124974Y0471826D03*
X0124974Y0469857D03*
X0124974Y0467889D03*
X0124974Y0465920D03*
X0124974Y0463952D03*
X0124974Y0461983D03*
X0124974Y0460015D03*
X0124974Y0458046D03*
X0124974Y0456078D03*
X0124974Y0454109D03*
X0124974Y0452141D03*
X0124974Y0450172D03*
X0124974Y0448203D03*
X0124974Y0446235D03*
X0124974Y0444266D03*
X0124974Y0442298D03*
X0124974Y0440329D03*
X0124974Y0438361D03*
X0124974Y0436392D03*
X0124974Y0434424D03*
X0124974Y0432455D03*
X0124974Y0430487D03*
X0124974Y0428518D03*
X0124974Y0426550D03*
X0124974Y0424581D03*
X0124974Y0422613D03*
X0124974Y0420644D03*
X0124974Y0418676D03*
X0124974Y0416707D03*
X0124974Y0194199D03*
X0124974Y0192230D03*
X0124974Y0190262D03*
X0124974Y0188293D03*
X0124974Y0186325D03*
X0124974Y0184356D03*
X0124974Y0182388D03*
X0124974Y0180419D03*
X0124974Y0178451D03*
X0124974Y0176482D03*
X0124974Y0174514D03*
X0124974Y0172545D03*
X0124974Y0170577D03*
X0124974Y0168608D03*
X0124974Y0166640D03*
X0124974Y0164671D03*
X0124974Y0162703D03*
X0124974Y0160734D03*
X0124974Y0158766D03*
X0124974Y0156797D03*
X0124974Y0154829D03*
X0124974Y0152860D03*
X0124974Y0150892D03*
X0124974Y0148923D03*
X0124974Y0146955D03*
X0124974Y0144986D03*
X0124974Y0143018D03*
X0124974Y0141049D03*
X0124974Y0139081D03*
X0124974Y0137112D03*
X0124974Y0135144D03*
X0124974Y0133175D03*
X0124974Y0131207D03*
X0124974Y0129238D03*
X0124974Y0127270D03*
X0124974Y0125301D03*
X0212376Y0125301D03*
X0212376Y0127270D03*
X0212376Y0129238D03*
X0212376Y0131207D03*
X0212376Y0133175D03*
X0212376Y0135144D03*
X0212376Y0137112D03*
X0212376Y0139081D03*
X0212376Y0141049D03*
X0212376Y0143018D03*
X0212376Y0144986D03*
X0212376Y0146955D03*
X0212376Y0148923D03*
X0212376Y0150892D03*
X0212376Y0152860D03*
X0212376Y0154829D03*
X0212376Y0156797D03*
X0212376Y0158766D03*
X0212376Y0160734D03*
X0212376Y0162703D03*
X0212376Y0164671D03*
X0212376Y0166640D03*
X0212376Y0168608D03*
X0212376Y0170577D03*
X0212376Y0172545D03*
X0212376Y0174514D03*
X0212376Y0176482D03*
X0212376Y0178451D03*
X0212376Y0180419D03*
X0212376Y0182388D03*
X0212376Y0184356D03*
X0212376Y0186325D03*
X0212376Y0188293D03*
X0212376Y0190262D03*
X0212376Y0192230D03*
X0212376Y0194199D03*
D12*
X0230840Y0193758D03*
X0230840Y0190609D03*
X0230840Y0187459D03*
X0230840Y0184310D03*
X0230840Y0181160D03*
X0230840Y0178010D03*
X0230840Y0174861D03*
X0230840Y0171711D03*
X0230840Y0168562D03*
X0230840Y0165412D03*
X0230840Y0162262D03*
X0230840Y0159113D03*
X0230840Y0155963D03*
X0230840Y0152813D03*
X0230840Y0149664D03*
X0230840Y0146514D03*
X0230840Y0143365D03*
X0230840Y0140215D03*
X0230840Y0137065D03*
X0230840Y0133916D03*
X0230840Y0130766D03*
X0230840Y0127617D03*
X0276510Y0127617D03*
X0276510Y0130766D03*
X0276510Y0133916D03*
X0276510Y0137065D03*
X0276510Y0140215D03*
X0276510Y0143365D03*
X0276510Y0146514D03*
X0276510Y0149664D03*
X0276510Y0152813D03*
X0276510Y0155963D03*
X0276510Y0159113D03*
X0276510Y0162262D03*
X0276510Y0165412D03*
X0276510Y0168562D03*
X0276510Y0171711D03*
X0276510Y0174861D03*
X0276510Y0178010D03*
X0276510Y0181160D03*
X0276510Y0184310D03*
X0276510Y0187459D03*
X0276510Y0190609D03*
X0276510Y0193758D03*
X0276510Y0419023D03*
X0276510Y0422172D03*
X0276510Y0425322D03*
X0276510Y0428472D03*
X0276510Y0431621D03*
X0276510Y0434771D03*
X0276510Y0437921D03*
X0276510Y0441070D03*
X0276510Y0444220D03*
X0276510Y0447369D03*
X0276510Y0450519D03*
X0276510Y0453669D03*
X0276510Y0456818D03*
X0276510Y0459968D03*
X0276510Y0463117D03*
X0276510Y0466267D03*
X0276510Y0469417D03*
X0276510Y0472566D03*
X0276510Y0475716D03*
X0276510Y0478865D03*
X0276510Y0482015D03*
X0276510Y0485165D03*
X0230840Y0485165D03*
X0230840Y0482015D03*
X0230840Y0478865D03*
X0230840Y0475716D03*
X0230840Y0472566D03*
X0230840Y0469417D03*
X0230840Y0466267D03*
X0230840Y0463117D03*
X0230840Y0459968D03*
X0230840Y0456818D03*
X0230840Y0453669D03*
X0230840Y0450519D03*
X0230840Y0447369D03*
X0230840Y0444220D03*
X0230840Y0441070D03*
X0230840Y0437921D03*
X0230840Y0434771D03*
X0230840Y0431621D03*
X0230840Y0428472D03*
X0230840Y0425322D03*
X0230840Y0422172D03*
X0230840Y0419023D03*
X0640372Y0419023D03*
X0640372Y0422172D03*
X0640372Y0425322D03*
X0640372Y0428472D03*
X0640372Y0431621D03*
X0640372Y0434771D03*
X0640372Y0437921D03*
X0640372Y0441070D03*
X0640372Y0444220D03*
X0640372Y0447369D03*
X0640372Y0450519D03*
X0640372Y0453669D03*
X0640372Y0456818D03*
X0640372Y0459968D03*
X0640372Y0463117D03*
X0640372Y0466267D03*
X0640372Y0469417D03*
X0640372Y0472566D03*
X0640372Y0475716D03*
X0640372Y0478865D03*
X0640372Y0482015D03*
X0640372Y0485165D03*
X0686041Y0485165D03*
X0686041Y0482015D03*
X0686041Y0478865D03*
X0686041Y0475716D03*
X0686041Y0472566D03*
X0686041Y0469417D03*
X0686041Y0466267D03*
X0686041Y0463117D03*
X0686041Y0459968D03*
X0686041Y0456818D03*
X0686041Y0453669D03*
X0686041Y0450519D03*
X0686041Y0447369D03*
X0686041Y0444220D03*
X0686041Y0441070D03*
X0686041Y0437921D03*
X0686041Y0434771D03*
X0686041Y0431621D03*
X0686041Y0428472D03*
X0686041Y0425322D03*
X0686041Y0422172D03*
X0686041Y0419023D03*
X0685885Y0193758D03*
X0685885Y0190609D03*
X0685885Y0187459D03*
X0685885Y0184310D03*
X0685885Y0181160D03*
X0685885Y0178010D03*
X0685885Y0174861D03*
X0685885Y0171711D03*
X0685885Y0168562D03*
X0685885Y0165412D03*
X0685885Y0162262D03*
X0685885Y0159113D03*
X0685885Y0155963D03*
X0685885Y0152813D03*
X0685885Y0149664D03*
X0685885Y0146514D03*
X0685885Y0143365D03*
X0685885Y0140215D03*
X0685885Y0137065D03*
X0685885Y0133916D03*
X0685885Y0130766D03*
X0685885Y0127617D03*
X0640215Y0127617D03*
X0640215Y0130766D03*
X0640215Y0133916D03*
X0640215Y0137065D03*
X0640215Y0140215D03*
X0640215Y0143365D03*
X0640215Y0146514D03*
X0640215Y0149664D03*
X0640215Y0152813D03*
X0640215Y0155963D03*
X0640215Y0159113D03*
X0640215Y0162262D03*
X0640215Y0165412D03*
X0640215Y0168562D03*
X0640215Y0171711D03*
X0640215Y0174861D03*
X0640215Y0178010D03*
X0640215Y0181160D03*
X0640215Y0184310D03*
X0640215Y0187459D03*
X0640215Y0190609D03*
X0640215Y0193758D03*
D13*
X0693675Y0162159D03*
X0693675Y0155466D03*
X0535550Y0094346D03*
X0535550Y0087654D03*
X0525550Y0089529D03*
X0525550Y0096221D03*
X0488675Y0143279D03*
X0488675Y0149971D03*
X0284300Y0155466D03*
X0284300Y0162159D03*
X0126175Y0094346D03*
X0126175Y0087654D03*
X0116175Y0089529D03*
X0116175Y0096221D03*
X0079300Y0143279D03*
X0079300Y0149971D03*
X0126175Y0379060D03*
X0126175Y0385753D03*
X0116175Y0387628D03*
X0116175Y0380935D03*
X0079300Y0434685D03*
X0079300Y0441378D03*
X0284300Y0446872D03*
X0284300Y0453565D03*
X0488831Y0441378D03*
X0488831Y0434685D03*
X0525706Y0387628D03*
X0525706Y0380935D03*
X0535706Y0379060D03*
X0535706Y0385753D03*
X0693831Y0446872D03*
X0693831Y0453565D03*
D14*
X0513206Y0446231D03*
X0508206Y0446231D03*
X0503206Y0446231D03*
X0498206Y0446231D03*
X0498206Y0419731D03*
X0503206Y0419731D03*
X0508206Y0419731D03*
X0513206Y0419731D03*
X0513050Y0154825D03*
X0508050Y0154825D03*
X0503050Y0154825D03*
X0498050Y0154825D03*
X0498050Y0128325D03*
X0503050Y0128325D03*
X0508050Y0128325D03*
X0513050Y0128325D03*
X0103675Y0128325D03*
X0098675Y0128325D03*
X0093675Y0128325D03*
X0088675Y0128325D03*
X0088675Y0154825D03*
X0093675Y0154825D03*
X0098675Y0154825D03*
X0103675Y0154825D03*
X0103675Y0419731D03*
X0098675Y0419731D03*
X0093675Y0419731D03*
X0088675Y0419731D03*
X0088675Y0446231D03*
X0093675Y0446231D03*
X0098675Y0446231D03*
X0103675Y0446231D03*
D15*
X0100540Y0406781D03*
X0093060Y0406781D03*
X0134935Y0390531D03*
X0142415Y0390531D03*
X0142415Y0382406D03*
X0134935Y0382406D03*
X0134935Y0374281D03*
X0142415Y0374281D03*
X0143040Y0364906D03*
X0135560Y0364906D03*
X0176810Y0364281D03*
X0184290Y0364281D03*
X0184290Y0356156D03*
X0176810Y0356156D03*
X0176810Y0372406D03*
X0184290Y0372406D03*
X0193685Y0366781D03*
X0201165Y0366781D03*
X0219310Y0381781D03*
X0226790Y0381781D03*
X0237435Y0381781D03*
X0244915Y0381781D03*
X0277435Y0383031D03*
X0284915Y0383031D03*
X0284915Y0374281D03*
X0277435Y0374281D03*
X0277435Y0365531D03*
X0284915Y0365531D03*
X0284915Y0356781D03*
X0277435Y0356781D03*
X0277435Y0348031D03*
X0284915Y0348031D03*
X0298685Y0254125D03*
X0306165Y0254125D03*
X0306165Y0242875D03*
X0298685Y0242875D03*
X0223665Y0221000D03*
X0216185Y0221000D03*
X0119915Y0203500D03*
X0112435Y0203500D03*
X0031665Y0167125D03*
X0024185Y0167125D03*
X0027435Y0151000D03*
X0034915Y0151000D03*
X0093060Y0115375D03*
X0100540Y0115375D03*
X0134935Y0099125D03*
X0142415Y0099125D03*
X0142415Y0091000D03*
X0134935Y0091000D03*
X0134935Y0082875D03*
X0142415Y0082875D03*
X0143040Y0073500D03*
X0135560Y0073500D03*
X0176810Y0072875D03*
X0184290Y0072875D03*
X0184290Y0081000D03*
X0176810Y0081000D03*
X0193685Y0075375D03*
X0201165Y0075375D03*
X0184290Y0064750D03*
X0176810Y0064750D03*
X0219310Y0090375D03*
X0226790Y0090375D03*
X0237435Y0090375D03*
X0244915Y0090375D03*
X0277435Y0091625D03*
X0284915Y0091625D03*
X0284915Y0082875D03*
X0277435Y0082875D03*
X0277435Y0074125D03*
X0284915Y0074125D03*
X0284915Y0065375D03*
X0277435Y0065375D03*
X0277435Y0056625D03*
X0284915Y0056625D03*
X0433560Y0167125D03*
X0441040Y0167125D03*
X0444290Y0151000D03*
X0436810Y0151000D03*
X0502435Y0115375D03*
X0509915Y0115375D03*
X0544310Y0099125D03*
X0551790Y0099125D03*
X0551790Y0091000D03*
X0544310Y0091000D03*
X0544310Y0082875D03*
X0551790Y0082875D03*
X0552415Y0073500D03*
X0544935Y0073500D03*
X0586185Y0072875D03*
X0593665Y0072875D03*
X0593665Y0081000D03*
X0586185Y0081000D03*
X0603060Y0075375D03*
X0610540Y0075375D03*
X0593665Y0064750D03*
X0586185Y0064750D03*
X0628685Y0090375D03*
X0636165Y0090375D03*
X0646810Y0090375D03*
X0654290Y0090375D03*
X0686810Y0091625D03*
X0694290Y0091625D03*
X0694290Y0082875D03*
X0686810Y0082875D03*
X0686810Y0074125D03*
X0694290Y0074125D03*
X0694290Y0065375D03*
X0686810Y0065375D03*
X0686810Y0056625D03*
X0694290Y0056625D03*
X0529290Y0203500D03*
X0521810Y0203500D03*
X0625560Y0221000D03*
X0633040Y0221000D03*
X0708060Y0242875D03*
X0715540Y0242875D03*
X0715540Y0254125D03*
X0708060Y0254125D03*
X0694446Y0348031D03*
X0686966Y0348031D03*
X0686966Y0356781D03*
X0694446Y0356781D03*
X0694446Y0365531D03*
X0686966Y0365531D03*
X0686966Y0374281D03*
X0694446Y0374281D03*
X0694446Y0383031D03*
X0686966Y0383031D03*
X0654446Y0381781D03*
X0646966Y0381781D03*
X0636321Y0381781D03*
X0628841Y0381781D03*
X0610696Y0366781D03*
X0603216Y0366781D03*
X0593821Y0364281D03*
X0586341Y0364281D03*
X0586341Y0356156D03*
X0593821Y0356156D03*
X0593821Y0372406D03*
X0586341Y0372406D03*
X0552571Y0364906D03*
X0545091Y0364906D03*
X0544466Y0374281D03*
X0551946Y0374281D03*
X0551946Y0382406D03*
X0544466Y0382406D03*
X0544466Y0390531D03*
X0551946Y0390531D03*
X0510071Y0406781D03*
X0502591Y0406781D03*
X0444446Y0442406D03*
X0436966Y0442406D03*
X0433716Y0458531D03*
X0441196Y0458531D03*
X0521966Y0494906D03*
X0529446Y0494906D03*
X0625716Y0512406D03*
X0633196Y0512406D03*
X0708216Y0534281D03*
X0715696Y0534281D03*
X0715696Y0545531D03*
X0708216Y0545531D03*
X0306165Y0545531D03*
X0298685Y0545531D03*
X0298685Y0534281D03*
X0306165Y0534281D03*
X0223665Y0512406D03*
X0216185Y0512406D03*
X0119915Y0494906D03*
X0112435Y0494906D03*
X0031665Y0458531D03*
X0024185Y0458531D03*
X0027435Y0442406D03*
X0034915Y0442406D03*
D16*
X0203060Y0376201D03*
X0210540Y0376201D03*
X0206800Y0384862D03*
X0206800Y0093456D03*
X0203060Y0084794D03*
X0210540Y0084794D03*
X0612435Y0084794D03*
X0619915Y0084794D03*
X0616175Y0093456D03*
X0612591Y0376201D03*
X0620071Y0376201D03*
X0616331Y0384862D03*
D17*
X0604456Y0383646D03*
X0604456Y0376166D03*
X0591956Y0381166D03*
X0591956Y0388646D03*
X0583831Y0388646D03*
X0583831Y0381166D03*
X0573831Y0381166D03*
X0573831Y0388646D03*
X0570081Y0364271D03*
X0570081Y0356791D03*
X0561956Y0356791D03*
X0561956Y0364271D03*
X0489456Y0405291D03*
X0489456Y0412771D03*
X0444456Y0383021D03*
X0444456Y0375541D03*
X0490300Y0451854D03*
X0490300Y0459334D03*
X0653831Y0496166D03*
X0653831Y0503646D03*
X0680081Y0503646D03*
X0680081Y0496166D03*
X0679925Y0212240D03*
X0679925Y0204760D03*
X0653675Y0204760D03*
X0653675Y0212240D03*
X0591800Y0097240D03*
X0591800Y0089760D03*
X0583675Y0089760D03*
X0583675Y0097240D03*
X0573675Y0097240D03*
X0573675Y0089760D03*
X0569925Y0072865D03*
X0569925Y0065385D03*
X0561800Y0065385D03*
X0561800Y0072865D03*
X0604300Y0084760D03*
X0604300Y0092240D03*
X0489300Y0113885D03*
X0489300Y0121365D03*
X0444300Y0091615D03*
X0444300Y0084135D03*
X0490144Y0160447D03*
X0490144Y0167928D03*
X0270550Y0204760D03*
X0270550Y0212240D03*
X0244300Y0212240D03*
X0244300Y0204760D03*
X0182425Y0097240D03*
X0182425Y0089760D03*
X0174300Y0089760D03*
X0174300Y0097240D03*
X0164300Y0097240D03*
X0164300Y0089760D03*
X0160550Y0072865D03*
X0160550Y0065385D03*
X0152425Y0065385D03*
X0152425Y0072865D03*
X0194925Y0084760D03*
X0194925Y0092240D03*
X0079925Y0113885D03*
X0079925Y0121365D03*
X0034925Y0091615D03*
X0034925Y0084135D03*
X0080769Y0160447D03*
X0080769Y0167928D03*
X0152425Y0356791D03*
X0152425Y0364271D03*
X0160550Y0364271D03*
X0160550Y0356791D03*
X0164300Y0381166D03*
X0164300Y0388646D03*
X0174300Y0388646D03*
X0174300Y0381166D03*
X0182425Y0381166D03*
X0182425Y0388646D03*
X0194925Y0383646D03*
X0194925Y0376166D03*
X0079925Y0405291D03*
X0079925Y0412771D03*
X0034925Y0383021D03*
X0034925Y0375541D03*
X0080769Y0451854D03*
X0080769Y0459334D03*
X0244300Y0496166D03*
X0244300Y0503646D03*
X0270550Y0503646D03*
X0270550Y0496166D03*
D18*
X0261800Y0496166D03*
X0261800Y0503646D03*
X0253050Y0503646D03*
X0253050Y0496166D03*
X0279300Y0496166D03*
X0279300Y0503646D03*
X0288050Y0503646D03*
X0288050Y0496166D03*
X0214300Y0367396D03*
X0214300Y0359916D03*
X0253050Y0212240D03*
X0253050Y0204760D03*
X0261800Y0204760D03*
X0261800Y0212240D03*
X0279300Y0212240D03*
X0279300Y0204760D03*
X0288050Y0204760D03*
X0288050Y0212240D03*
X0214300Y0075990D03*
X0214300Y0068510D03*
X0623675Y0068510D03*
X0623675Y0075990D03*
X0662425Y0204760D03*
X0662425Y0212240D03*
X0671175Y0212240D03*
X0671175Y0204760D03*
X0688675Y0204760D03*
X0688675Y0212240D03*
X0697425Y0212240D03*
X0697425Y0204760D03*
X0623831Y0359916D03*
X0623831Y0367396D03*
X0662581Y0496166D03*
X0662581Y0503646D03*
X0671331Y0503646D03*
X0671331Y0496166D03*
X0688831Y0496166D03*
X0688831Y0503646D03*
X0697581Y0503646D03*
X0697581Y0496166D03*
D19*
X0530928Y0396781D03*
X0524235Y0396781D03*
X0602360Y0358031D03*
X0609053Y0358031D03*
X0530771Y0105375D03*
X0524079Y0105375D03*
X0602204Y0066625D03*
X0608896Y0066625D03*
X0199521Y0066625D03*
X0192829Y0066625D03*
X0121396Y0105375D03*
X0114704Y0105375D03*
X0192829Y0358031D03*
X0199521Y0358031D03*
X0121396Y0396781D03*
X0114704Y0396781D03*
D20*
X0070775Y0438756D03*
X0061775Y0438756D03*
X0052775Y0438756D03*
X0040275Y0405006D03*
X0031275Y0405006D03*
X0022275Y0405006D03*
X0052775Y0147350D03*
X0061775Y0147350D03*
X0070775Y0147350D03*
X0040275Y0113600D03*
X0031275Y0113600D03*
X0022275Y0113600D03*
X0431650Y0113600D03*
X0440650Y0113600D03*
X0449650Y0113600D03*
X0462150Y0147350D03*
X0471150Y0147350D03*
X0480150Y0147350D03*
X0449806Y0405006D03*
X0440806Y0405006D03*
X0431806Y0405006D03*
X0462306Y0438756D03*
X0471306Y0438756D03*
X0480306Y0438756D03*
D21*
X0471206Y0463556D03*
X0440706Y0429806D03*
X0471050Y0172150D03*
X0440550Y0138400D03*
X0061675Y0172150D03*
X0031175Y0138400D03*
X0031175Y0429806D03*
X0061675Y0463556D03*
D22*
X0061290Y0429481D03*
X0053810Y0429481D03*
X0059060Y0417656D03*
X0066540Y0417656D03*
X0054290Y0394281D03*
X0046810Y0394281D03*
X0046810Y0384281D03*
X0054290Y0384281D03*
X0030540Y0394281D03*
X0023060Y0394281D03*
X0116185Y0369906D03*
X0123665Y0369906D03*
X0123665Y0361156D03*
X0116185Y0361156D03*
X0061290Y0138075D03*
X0053810Y0138075D03*
X0059060Y0126250D03*
X0066540Y0126250D03*
X0054290Y0102875D03*
X0046810Y0102875D03*
X0046810Y0092875D03*
X0054290Y0092875D03*
X0030540Y0102875D03*
X0023060Y0102875D03*
X0116185Y0078500D03*
X0123665Y0078500D03*
X0123665Y0069750D03*
X0116185Y0069750D03*
X0432435Y0102875D03*
X0439915Y0102875D03*
X0456185Y0102875D03*
X0463665Y0102875D03*
X0463665Y0092875D03*
X0456185Y0092875D03*
X0468435Y0126250D03*
X0475915Y0126250D03*
X0470665Y0138075D03*
X0463185Y0138075D03*
X0525560Y0078500D03*
X0533040Y0078500D03*
X0533040Y0069750D03*
X0525560Y0069750D03*
X0525716Y0361156D03*
X0533196Y0361156D03*
X0533196Y0369906D03*
X0525716Y0369906D03*
X0463821Y0384281D03*
X0456341Y0384281D03*
X0456341Y0394281D03*
X0463821Y0394281D03*
X0440071Y0394281D03*
X0432591Y0394281D03*
X0468591Y0417656D03*
X0476071Y0417656D03*
X0470821Y0429481D03*
X0463341Y0429481D03*
D23*
X0477596Y0396781D03*
X0477596Y0391781D03*
X0477596Y0386781D03*
X0477596Y0381781D03*
X0477596Y0376781D03*
X0477596Y0371781D03*
X0477596Y0366781D03*
X0477596Y0361781D03*
X0513816Y0361781D03*
X0513816Y0366781D03*
X0513816Y0371781D03*
X0513816Y0376781D03*
X0513816Y0381781D03*
X0513816Y0386781D03*
X0513816Y0391781D03*
X0513816Y0396781D03*
X0513660Y0105375D03*
X0513660Y0100375D03*
X0513660Y0095375D03*
X0513660Y0090375D03*
X0513660Y0085375D03*
X0513660Y0080375D03*
X0513660Y0075375D03*
X0513660Y0070375D03*
X0477440Y0070375D03*
X0477440Y0075375D03*
X0477440Y0080375D03*
X0477440Y0085375D03*
X0477440Y0090375D03*
X0477440Y0095375D03*
X0477440Y0100375D03*
X0477440Y0105375D03*
X0104285Y0105375D03*
X0104285Y0100375D03*
X0104285Y0095375D03*
X0104285Y0090375D03*
X0104285Y0085375D03*
X0104285Y0080375D03*
X0104285Y0075375D03*
X0104285Y0070375D03*
X0068065Y0070375D03*
X0068065Y0075375D03*
X0068065Y0080375D03*
X0068065Y0085375D03*
X0068065Y0090375D03*
X0068065Y0095375D03*
X0068065Y0100375D03*
X0068065Y0105375D03*
X0068065Y0361781D03*
X0068065Y0366781D03*
X0068065Y0371781D03*
X0068065Y0376781D03*
X0068065Y0381781D03*
X0068065Y0386781D03*
X0068065Y0391781D03*
X0068065Y0396781D03*
X0104285Y0396781D03*
X0104285Y0391781D03*
X0104285Y0386781D03*
X0104285Y0381781D03*
X0104285Y0376781D03*
X0104285Y0371781D03*
X0104285Y0366781D03*
X0104285Y0361781D03*
D24*
X0101550Y0343500D03*
X0078925Y0343500D03*
X0040925Y0343500D03*
X0139550Y0343500D03*
X0450456Y0343500D03*
X0488456Y0343500D03*
X0511081Y0343500D03*
X0549081Y0343500D03*
X0548925Y0052094D03*
X0510925Y0052094D03*
X0488300Y0052094D03*
X0450300Y0052094D03*
X0139550Y0052094D03*
X0101550Y0052094D03*
X0078925Y0052094D03*
X0040925Y0052094D03*
D25*
X0222425Y0231620D03*
X0222425Y0252880D03*
X0222425Y0523026D03*
X0222425Y0544286D03*
X0631956Y0544286D03*
X0631956Y0523026D03*
X0631800Y0252880D03*
X0631800Y0231620D03*
D26*
X0729541Y0242875D03*
X0737809Y0242875D03*
X0737809Y0254125D03*
X0729541Y0254125D03*
X0729697Y0534281D03*
X0737965Y0534281D03*
X0737965Y0545531D03*
X0729697Y0545531D03*
X0328434Y0545531D03*
X0320166Y0545531D03*
X0320166Y0534281D03*
X0328434Y0534281D03*
X0328434Y0254125D03*
X0320166Y0254125D03*
X0320166Y0242875D03*
X0328434Y0242875D03*
D27*
X0206644Y0348157D03*
X0206644Y0356031D03*
X0206644Y0064625D03*
X0206644Y0056750D03*
X0616019Y0056750D03*
X0616019Y0064625D03*
X0616175Y0348157D03*
X0616175Y0356031D03*
D28*
X0017707Y0050687D03*
X0025581Y0050687D03*
X0153175Y0057531D03*
X0161050Y0057531D03*
X0427082Y0050687D03*
X0434956Y0050687D03*
X0562550Y0057531D03*
X0570425Y0057531D03*
X0435112Y0342094D03*
X0427238Y0342094D03*
X0562707Y0348937D03*
X0570581Y0348937D03*
X0161050Y0348937D03*
X0153175Y0348937D03*
X0025581Y0342094D03*
X0017707Y0342094D03*
D29*
X0021800Y0355337D03*
X0021800Y0357837D03*
X0021800Y0360437D03*
X0021800Y0363037D03*
X0021800Y0365537D03*
X0021800Y0074131D03*
X0021800Y0071631D03*
X0021800Y0069031D03*
X0021800Y0066431D03*
X0021800Y0063931D03*
X0431175Y0063931D03*
X0431175Y0066431D03*
X0431175Y0069031D03*
X0431175Y0071631D03*
X0431175Y0074131D03*
X0431331Y0355337D03*
X0431331Y0357837D03*
X0431331Y0360437D03*
X0431331Y0363037D03*
X0431331Y0365537D03*
M02*
