G75*
%MOIN*%
%OFA0B0*%
%FSLAX25Y25*%
%IPPOS*%
%LPD*%
%AMOC8*
5,1,8,0,0,1.08239X$1,22.5*
%
%ADD10C,0.00000*%
%ADD11R,0.04731X0.04337*%
%ADD12R,0.04337X0.04731*%
%ADD13C,0.09000*%
%ADD14C,0.05124*%
%ADD15C,0.07800*%
%ADD16C,0.20400*%
%ADD17R,0.05518X0.06699*%
%ADD18C,0.04369*%
%ADD19OC8,0.06400*%
%ADD20C,0.01280*%
%ADD21R,0.06600X0.06600*%
%ADD22C,0.06600*%
%ADD23C,0.13500*%
%ADD24R,0.07400X0.08200*%
%ADD25C,0.11424*%
%ADD26R,0.16900X0.29400*%
%ADD27R,0.07450X0.07450*%
%ADD28C,0.02200*%
%ADD29C,0.00500*%
%ADD30R,0.06000X0.03200*%
%ADD31R,0.10400X0.05400*%
%ADD32C,0.06699*%
%ADD33C,0.04731*%
%ADD34C,0.15400*%
D10*
X0004300Y0012866D02*
X0004300Y0233366D01*
X0342800Y0233366D01*
X0342800Y0012866D01*
X0004300Y0012866D01*
X0017300Y0033622D02*
X0017302Y0033681D01*
X0017308Y0033741D01*
X0017318Y0033799D01*
X0017331Y0033857D01*
X0017349Y0033914D01*
X0017370Y0033970D01*
X0017395Y0034024D01*
X0017423Y0034076D01*
X0017455Y0034127D01*
X0017490Y0034175D01*
X0017528Y0034221D01*
X0017569Y0034264D01*
X0017613Y0034304D01*
X0017659Y0034341D01*
X0017708Y0034375D01*
X0017759Y0034406D01*
X0017811Y0034434D01*
X0017866Y0034458D01*
X0017922Y0034478D01*
X0017979Y0034494D01*
X0018037Y0034507D01*
X0018096Y0034516D01*
X0018155Y0034521D01*
X0018215Y0034522D01*
X0018274Y0034519D01*
X0018333Y0034512D01*
X0018392Y0034501D01*
X0018450Y0034487D01*
X0018506Y0034468D01*
X0018562Y0034446D01*
X0018615Y0034421D01*
X0018667Y0034391D01*
X0018717Y0034359D01*
X0018764Y0034323D01*
X0018810Y0034284D01*
X0018852Y0034242D01*
X0018892Y0034198D01*
X0018928Y0034151D01*
X0018961Y0034102D01*
X0018992Y0034050D01*
X0019018Y0033997D01*
X0019041Y0033942D01*
X0019060Y0033886D01*
X0019076Y0033828D01*
X0019088Y0033770D01*
X0019096Y0033711D01*
X0019100Y0033652D01*
X0019100Y0033592D01*
X0019096Y0033533D01*
X0019088Y0033474D01*
X0019076Y0033416D01*
X0019060Y0033358D01*
X0019041Y0033302D01*
X0019018Y0033247D01*
X0018992Y0033194D01*
X0018961Y0033142D01*
X0018928Y0033093D01*
X0018892Y0033046D01*
X0018852Y0033002D01*
X0018810Y0032960D01*
X0018764Y0032921D01*
X0018717Y0032885D01*
X0018667Y0032853D01*
X0018615Y0032823D01*
X0018562Y0032798D01*
X0018506Y0032776D01*
X0018450Y0032757D01*
X0018392Y0032743D01*
X0018333Y0032732D01*
X0018274Y0032725D01*
X0018215Y0032722D01*
X0018155Y0032723D01*
X0018096Y0032728D01*
X0018037Y0032737D01*
X0017979Y0032750D01*
X0017922Y0032766D01*
X0017866Y0032786D01*
X0017811Y0032810D01*
X0017759Y0032838D01*
X0017708Y0032869D01*
X0017659Y0032903D01*
X0017613Y0032940D01*
X0017569Y0032980D01*
X0017528Y0033023D01*
X0017490Y0033069D01*
X0017455Y0033117D01*
X0017423Y0033168D01*
X0017395Y0033220D01*
X0017370Y0033274D01*
X0017349Y0033330D01*
X0017331Y0033387D01*
X0017318Y0033445D01*
X0017308Y0033503D01*
X0017302Y0033563D01*
X0017300Y0033622D01*
X0017300Y0049422D02*
X0017302Y0049481D01*
X0017308Y0049541D01*
X0017318Y0049599D01*
X0017331Y0049657D01*
X0017349Y0049714D01*
X0017370Y0049770D01*
X0017395Y0049824D01*
X0017423Y0049876D01*
X0017455Y0049927D01*
X0017490Y0049975D01*
X0017528Y0050021D01*
X0017569Y0050064D01*
X0017613Y0050104D01*
X0017659Y0050141D01*
X0017708Y0050175D01*
X0017759Y0050206D01*
X0017811Y0050234D01*
X0017866Y0050258D01*
X0017922Y0050278D01*
X0017979Y0050294D01*
X0018037Y0050307D01*
X0018096Y0050316D01*
X0018155Y0050321D01*
X0018215Y0050322D01*
X0018274Y0050319D01*
X0018333Y0050312D01*
X0018392Y0050301D01*
X0018450Y0050287D01*
X0018506Y0050268D01*
X0018562Y0050246D01*
X0018615Y0050221D01*
X0018667Y0050191D01*
X0018717Y0050159D01*
X0018764Y0050123D01*
X0018810Y0050084D01*
X0018852Y0050042D01*
X0018892Y0049998D01*
X0018928Y0049951D01*
X0018961Y0049902D01*
X0018992Y0049850D01*
X0019018Y0049797D01*
X0019041Y0049742D01*
X0019060Y0049686D01*
X0019076Y0049628D01*
X0019088Y0049570D01*
X0019096Y0049511D01*
X0019100Y0049452D01*
X0019100Y0049392D01*
X0019096Y0049333D01*
X0019088Y0049274D01*
X0019076Y0049216D01*
X0019060Y0049158D01*
X0019041Y0049102D01*
X0019018Y0049047D01*
X0018992Y0048994D01*
X0018961Y0048942D01*
X0018928Y0048893D01*
X0018892Y0048846D01*
X0018852Y0048802D01*
X0018810Y0048760D01*
X0018764Y0048721D01*
X0018717Y0048685D01*
X0018667Y0048653D01*
X0018615Y0048623D01*
X0018562Y0048598D01*
X0018506Y0048576D01*
X0018450Y0048557D01*
X0018392Y0048543D01*
X0018333Y0048532D01*
X0018274Y0048525D01*
X0018215Y0048522D01*
X0018155Y0048523D01*
X0018096Y0048528D01*
X0018037Y0048537D01*
X0017979Y0048550D01*
X0017922Y0048566D01*
X0017866Y0048586D01*
X0017811Y0048610D01*
X0017759Y0048638D01*
X0017708Y0048669D01*
X0017659Y0048703D01*
X0017613Y0048740D01*
X0017569Y0048780D01*
X0017528Y0048823D01*
X0017490Y0048869D01*
X0017455Y0048917D01*
X0017423Y0048968D01*
X0017395Y0049020D01*
X0017370Y0049074D01*
X0017349Y0049130D01*
X0017331Y0049187D01*
X0017318Y0049245D01*
X0017308Y0049303D01*
X0017302Y0049363D01*
X0017300Y0049422D01*
X0058760Y0088084D02*
X0058762Y0088177D01*
X0058768Y0088269D01*
X0058778Y0088361D01*
X0058792Y0088452D01*
X0058809Y0088543D01*
X0058831Y0088633D01*
X0058856Y0088722D01*
X0058885Y0088810D01*
X0058918Y0088896D01*
X0058955Y0088981D01*
X0058995Y0089065D01*
X0059039Y0089146D01*
X0059086Y0089226D01*
X0059136Y0089304D01*
X0059190Y0089379D01*
X0059247Y0089452D01*
X0059307Y0089522D01*
X0059370Y0089590D01*
X0059436Y0089655D01*
X0059504Y0089717D01*
X0059575Y0089777D01*
X0059649Y0089833D01*
X0059725Y0089886D01*
X0059803Y0089935D01*
X0059883Y0089982D01*
X0059965Y0090024D01*
X0060049Y0090064D01*
X0060134Y0090099D01*
X0060221Y0090131D01*
X0060309Y0090160D01*
X0060398Y0090184D01*
X0060488Y0090205D01*
X0060579Y0090221D01*
X0060671Y0090234D01*
X0060763Y0090243D01*
X0060856Y0090248D01*
X0060948Y0090249D01*
X0061041Y0090246D01*
X0061133Y0090239D01*
X0061225Y0090228D01*
X0061316Y0090213D01*
X0061407Y0090195D01*
X0061497Y0090172D01*
X0061585Y0090146D01*
X0061673Y0090116D01*
X0061759Y0090082D01*
X0061843Y0090045D01*
X0061926Y0090003D01*
X0062007Y0089959D01*
X0062087Y0089911D01*
X0062164Y0089860D01*
X0062238Y0089805D01*
X0062311Y0089747D01*
X0062381Y0089687D01*
X0062448Y0089623D01*
X0062512Y0089557D01*
X0062574Y0089487D01*
X0062632Y0089416D01*
X0062687Y0089342D01*
X0062739Y0089265D01*
X0062788Y0089186D01*
X0062834Y0089106D01*
X0062876Y0089023D01*
X0062914Y0088939D01*
X0062949Y0088853D01*
X0062980Y0088766D01*
X0063007Y0088678D01*
X0063030Y0088588D01*
X0063050Y0088498D01*
X0063066Y0088407D01*
X0063078Y0088315D01*
X0063086Y0088223D01*
X0063090Y0088130D01*
X0063090Y0088038D01*
X0063086Y0087945D01*
X0063078Y0087853D01*
X0063066Y0087761D01*
X0063050Y0087670D01*
X0063030Y0087580D01*
X0063007Y0087490D01*
X0062980Y0087402D01*
X0062949Y0087315D01*
X0062914Y0087229D01*
X0062876Y0087145D01*
X0062834Y0087062D01*
X0062788Y0086982D01*
X0062739Y0086903D01*
X0062687Y0086826D01*
X0062632Y0086752D01*
X0062574Y0086681D01*
X0062512Y0086611D01*
X0062448Y0086545D01*
X0062381Y0086481D01*
X0062311Y0086421D01*
X0062238Y0086363D01*
X0062164Y0086308D01*
X0062087Y0086257D01*
X0062008Y0086209D01*
X0061926Y0086165D01*
X0061843Y0086123D01*
X0061759Y0086086D01*
X0061673Y0086052D01*
X0061585Y0086022D01*
X0061497Y0085996D01*
X0061407Y0085973D01*
X0061316Y0085955D01*
X0061225Y0085940D01*
X0061133Y0085929D01*
X0061041Y0085922D01*
X0060948Y0085919D01*
X0060856Y0085920D01*
X0060763Y0085925D01*
X0060671Y0085934D01*
X0060579Y0085947D01*
X0060488Y0085963D01*
X0060398Y0085984D01*
X0060309Y0086008D01*
X0060221Y0086037D01*
X0060134Y0086069D01*
X0060049Y0086104D01*
X0059965Y0086144D01*
X0059883Y0086186D01*
X0059803Y0086233D01*
X0059725Y0086282D01*
X0059649Y0086335D01*
X0059575Y0086391D01*
X0059504Y0086451D01*
X0059436Y0086513D01*
X0059370Y0086578D01*
X0059307Y0086646D01*
X0059247Y0086716D01*
X0059190Y0086789D01*
X0059136Y0086864D01*
X0059086Y0086942D01*
X0059039Y0087022D01*
X0058995Y0087103D01*
X0058955Y0087187D01*
X0058918Y0087272D01*
X0058885Y0087358D01*
X0058856Y0087446D01*
X0058831Y0087535D01*
X0058809Y0087625D01*
X0058792Y0087716D01*
X0058778Y0087807D01*
X0058768Y0087899D01*
X0058762Y0087991D01*
X0058760Y0088084D01*
X0057775Y0171084D02*
X0057777Y0171196D01*
X0057783Y0171307D01*
X0057793Y0171419D01*
X0057807Y0171530D01*
X0057824Y0171640D01*
X0057846Y0171750D01*
X0057872Y0171859D01*
X0057901Y0171967D01*
X0057934Y0172073D01*
X0057971Y0172179D01*
X0058012Y0172283D01*
X0058057Y0172386D01*
X0058105Y0172487D01*
X0058156Y0172586D01*
X0058211Y0172683D01*
X0058270Y0172778D01*
X0058331Y0172872D01*
X0058396Y0172963D01*
X0058465Y0173051D01*
X0058536Y0173137D01*
X0058610Y0173221D01*
X0058688Y0173301D01*
X0058768Y0173379D01*
X0058851Y0173455D01*
X0058936Y0173527D01*
X0059024Y0173596D01*
X0059114Y0173662D01*
X0059207Y0173724D01*
X0059302Y0173784D01*
X0059399Y0173840D01*
X0059497Y0173892D01*
X0059598Y0173941D01*
X0059700Y0173986D01*
X0059804Y0174028D01*
X0059909Y0174066D01*
X0060016Y0174100D01*
X0060123Y0174130D01*
X0060232Y0174157D01*
X0060341Y0174179D01*
X0060452Y0174198D01*
X0060562Y0174213D01*
X0060674Y0174224D01*
X0060785Y0174231D01*
X0060897Y0174234D01*
X0061009Y0174233D01*
X0061121Y0174228D01*
X0061232Y0174219D01*
X0061343Y0174206D01*
X0061454Y0174189D01*
X0061564Y0174169D01*
X0061673Y0174144D01*
X0061781Y0174116D01*
X0061888Y0174083D01*
X0061994Y0174047D01*
X0062098Y0174007D01*
X0062201Y0173964D01*
X0062303Y0173917D01*
X0062402Y0173866D01*
X0062500Y0173812D01*
X0062596Y0173754D01*
X0062690Y0173693D01*
X0062781Y0173629D01*
X0062870Y0173562D01*
X0062957Y0173491D01*
X0063041Y0173417D01*
X0063123Y0173341D01*
X0063201Y0173261D01*
X0063277Y0173179D01*
X0063350Y0173094D01*
X0063420Y0173007D01*
X0063486Y0172917D01*
X0063550Y0172825D01*
X0063610Y0172731D01*
X0063667Y0172635D01*
X0063720Y0172536D01*
X0063770Y0172436D01*
X0063816Y0172335D01*
X0063859Y0172231D01*
X0063898Y0172126D01*
X0063933Y0172020D01*
X0063964Y0171913D01*
X0063992Y0171804D01*
X0064015Y0171695D01*
X0064035Y0171585D01*
X0064051Y0171474D01*
X0064063Y0171363D01*
X0064071Y0171252D01*
X0064075Y0171140D01*
X0064075Y0171028D01*
X0064071Y0170916D01*
X0064063Y0170805D01*
X0064051Y0170694D01*
X0064035Y0170583D01*
X0064015Y0170473D01*
X0063992Y0170364D01*
X0063964Y0170255D01*
X0063933Y0170148D01*
X0063898Y0170042D01*
X0063859Y0169937D01*
X0063816Y0169833D01*
X0063770Y0169732D01*
X0063720Y0169632D01*
X0063667Y0169533D01*
X0063610Y0169437D01*
X0063550Y0169343D01*
X0063486Y0169251D01*
X0063420Y0169161D01*
X0063350Y0169074D01*
X0063277Y0168989D01*
X0063201Y0168907D01*
X0063123Y0168827D01*
X0063041Y0168751D01*
X0062957Y0168677D01*
X0062870Y0168606D01*
X0062781Y0168539D01*
X0062690Y0168475D01*
X0062596Y0168414D01*
X0062500Y0168356D01*
X0062402Y0168302D01*
X0062303Y0168251D01*
X0062201Y0168204D01*
X0062098Y0168161D01*
X0061994Y0168121D01*
X0061888Y0168085D01*
X0061781Y0168052D01*
X0061673Y0168024D01*
X0061564Y0167999D01*
X0061454Y0167979D01*
X0061343Y0167962D01*
X0061232Y0167949D01*
X0061121Y0167940D01*
X0061009Y0167935D01*
X0060897Y0167934D01*
X0060785Y0167937D01*
X0060674Y0167944D01*
X0060562Y0167955D01*
X0060452Y0167970D01*
X0060341Y0167989D01*
X0060232Y0168011D01*
X0060123Y0168038D01*
X0060016Y0168068D01*
X0059909Y0168102D01*
X0059804Y0168140D01*
X0059700Y0168182D01*
X0059598Y0168227D01*
X0059497Y0168276D01*
X0059399Y0168328D01*
X0059302Y0168384D01*
X0059207Y0168444D01*
X0059114Y0168506D01*
X0059024Y0168572D01*
X0058936Y0168641D01*
X0058851Y0168713D01*
X0058768Y0168789D01*
X0058688Y0168867D01*
X0058610Y0168947D01*
X0058536Y0169031D01*
X0058465Y0169117D01*
X0058396Y0169205D01*
X0058331Y0169296D01*
X0058270Y0169390D01*
X0058211Y0169485D01*
X0058156Y0169582D01*
X0058105Y0169681D01*
X0058057Y0169782D01*
X0058012Y0169885D01*
X0057971Y0169989D01*
X0057934Y0170095D01*
X0057901Y0170201D01*
X0057872Y0170309D01*
X0057846Y0170418D01*
X0057824Y0170528D01*
X0057807Y0170638D01*
X0057793Y0170749D01*
X0057783Y0170861D01*
X0057777Y0170972D01*
X0057775Y0171084D01*
X0144413Y0217866D02*
X0144415Y0218014D01*
X0144421Y0218162D01*
X0144431Y0218310D01*
X0144445Y0218457D01*
X0144463Y0218604D01*
X0144484Y0218750D01*
X0144510Y0218896D01*
X0144540Y0219041D01*
X0144573Y0219185D01*
X0144611Y0219328D01*
X0144652Y0219470D01*
X0144697Y0219611D01*
X0144745Y0219751D01*
X0144798Y0219890D01*
X0144854Y0220027D01*
X0144914Y0220162D01*
X0144977Y0220296D01*
X0145044Y0220428D01*
X0145115Y0220558D01*
X0145189Y0220686D01*
X0145266Y0220812D01*
X0145347Y0220936D01*
X0145431Y0221058D01*
X0145518Y0221177D01*
X0145609Y0221294D01*
X0145703Y0221409D01*
X0145799Y0221521D01*
X0145899Y0221631D01*
X0146001Y0221737D01*
X0146107Y0221841D01*
X0146215Y0221942D01*
X0146326Y0222040D01*
X0146439Y0222136D01*
X0146555Y0222228D01*
X0146673Y0222317D01*
X0146794Y0222402D01*
X0146917Y0222485D01*
X0147042Y0222564D01*
X0147169Y0222640D01*
X0147298Y0222712D01*
X0147429Y0222781D01*
X0147562Y0222846D01*
X0147697Y0222907D01*
X0147833Y0222965D01*
X0147970Y0223020D01*
X0148109Y0223070D01*
X0148250Y0223117D01*
X0148391Y0223160D01*
X0148534Y0223200D01*
X0148678Y0223235D01*
X0148822Y0223267D01*
X0148968Y0223294D01*
X0149114Y0223318D01*
X0149261Y0223338D01*
X0149408Y0223354D01*
X0149555Y0223366D01*
X0149703Y0223374D01*
X0149851Y0223378D01*
X0149999Y0223378D01*
X0150147Y0223374D01*
X0150295Y0223366D01*
X0150442Y0223354D01*
X0150589Y0223338D01*
X0150736Y0223318D01*
X0150882Y0223294D01*
X0151028Y0223267D01*
X0151172Y0223235D01*
X0151316Y0223200D01*
X0151459Y0223160D01*
X0151600Y0223117D01*
X0151741Y0223070D01*
X0151880Y0223020D01*
X0152017Y0222965D01*
X0152153Y0222907D01*
X0152288Y0222846D01*
X0152421Y0222781D01*
X0152552Y0222712D01*
X0152681Y0222640D01*
X0152808Y0222564D01*
X0152933Y0222485D01*
X0153056Y0222402D01*
X0153177Y0222317D01*
X0153295Y0222228D01*
X0153411Y0222136D01*
X0153524Y0222040D01*
X0153635Y0221942D01*
X0153743Y0221841D01*
X0153849Y0221737D01*
X0153951Y0221631D01*
X0154051Y0221521D01*
X0154147Y0221409D01*
X0154241Y0221294D01*
X0154332Y0221177D01*
X0154419Y0221058D01*
X0154503Y0220936D01*
X0154584Y0220812D01*
X0154661Y0220686D01*
X0154735Y0220558D01*
X0154806Y0220428D01*
X0154873Y0220296D01*
X0154936Y0220162D01*
X0154996Y0220027D01*
X0155052Y0219890D01*
X0155105Y0219751D01*
X0155153Y0219611D01*
X0155198Y0219470D01*
X0155239Y0219328D01*
X0155277Y0219185D01*
X0155310Y0219041D01*
X0155340Y0218896D01*
X0155366Y0218750D01*
X0155387Y0218604D01*
X0155405Y0218457D01*
X0155419Y0218310D01*
X0155429Y0218162D01*
X0155435Y0218014D01*
X0155437Y0217866D01*
X0155435Y0217718D01*
X0155429Y0217570D01*
X0155419Y0217422D01*
X0155405Y0217275D01*
X0155387Y0217128D01*
X0155366Y0216982D01*
X0155340Y0216836D01*
X0155310Y0216691D01*
X0155277Y0216547D01*
X0155239Y0216404D01*
X0155198Y0216262D01*
X0155153Y0216121D01*
X0155105Y0215981D01*
X0155052Y0215842D01*
X0154996Y0215705D01*
X0154936Y0215570D01*
X0154873Y0215436D01*
X0154806Y0215304D01*
X0154735Y0215174D01*
X0154661Y0215046D01*
X0154584Y0214920D01*
X0154503Y0214796D01*
X0154419Y0214674D01*
X0154332Y0214555D01*
X0154241Y0214438D01*
X0154147Y0214323D01*
X0154051Y0214211D01*
X0153951Y0214101D01*
X0153849Y0213995D01*
X0153743Y0213891D01*
X0153635Y0213790D01*
X0153524Y0213692D01*
X0153411Y0213596D01*
X0153295Y0213504D01*
X0153177Y0213415D01*
X0153056Y0213330D01*
X0152933Y0213247D01*
X0152808Y0213168D01*
X0152681Y0213092D01*
X0152552Y0213020D01*
X0152421Y0212951D01*
X0152288Y0212886D01*
X0152153Y0212825D01*
X0152017Y0212767D01*
X0151880Y0212712D01*
X0151741Y0212662D01*
X0151600Y0212615D01*
X0151459Y0212572D01*
X0151316Y0212532D01*
X0151172Y0212497D01*
X0151028Y0212465D01*
X0150882Y0212438D01*
X0150736Y0212414D01*
X0150589Y0212394D01*
X0150442Y0212378D01*
X0150295Y0212366D01*
X0150147Y0212358D01*
X0149999Y0212354D01*
X0149851Y0212354D01*
X0149703Y0212358D01*
X0149555Y0212366D01*
X0149408Y0212378D01*
X0149261Y0212394D01*
X0149114Y0212414D01*
X0148968Y0212438D01*
X0148822Y0212465D01*
X0148678Y0212497D01*
X0148534Y0212532D01*
X0148391Y0212572D01*
X0148250Y0212615D01*
X0148109Y0212662D01*
X0147970Y0212712D01*
X0147833Y0212767D01*
X0147697Y0212825D01*
X0147562Y0212886D01*
X0147429Y0212951D01*
X0147298Y0213020D01*
X0147169Y0213092D01*
X0147042Y0213168D01*
X0146917Y0213247D01*
X0146794Y0213330D01*
X0146673Y0213415D01*
X0146555Y0213504D01*
X0146439Y0213596D01*
X0146326Y0213692D01*
X0146215Y0213790D01*
X0146107Y0213891D01*
X0146001Y0213995D01*
X0145899Y0214101D01*
X0145799Y0214211D01*
X0145703Y0214323D01*
X0145609Y0214438D01*
X0145518Y0214555D01*
X0145431Y0214674D01*
X0145347Y0214796D01*
X0145266Y0214920D01*
X0145189Y0215046D01*
X0145115Y0215174D01*
X0145044Y0215304D01*
X0144977Y0215436D01*
X0144914Y0215570D01*
X0144854Y0215705D01*
X0144798Y0215842D01*
X0144745Y0215981D01*
X0144697Y0216121D01*
X0144652Y0216262D01*
X0144611Y0216404D01*
X0144573Y0216547D01*
X0144540Y0216691D01*
X0144510Y0216836D01*
X0144484Y0216982D01*
X0144463Y0217128D01*
X0144445Y0217275D01*
X0144431Y0217422D01*
X0144421Y0217570D01*
X0144415Y0217718D01*
X0144413Y0217866D01*
X0164226Y0225267D02*
X0164228Y0225415D01*
X0164234Y0225563D01*
X0164244Y0225711D01*
X0164258Y0225858D01*
X0164276Y0226005D01*
X0164297Y0226151D01*
X0164323Y0226297D01*
X0164353Y0226442D01*
X0164386Y0226586D01*
X0164424Y0226729D01*
X0164465Y0226871D01*
X0164510Y0227012D01*
X0164558Y0227152D01*
X0164611Y0227291D01*
X0164667Y0227428D01*
X0164727Y0227563D01*
X0164790Y0227697D01*
X0164857Y0227829D01*
X0164928Y0227959D01*
X0165002Y0228087D01*
X0165079Y0228213D01*
X0165160Y0228337D01*
X0165244Y0228459D01*
X0165331Y0228578D01*
X0165422Y0228695D01*
X0165516Y0228810D01*
X0165612Y0228922D01*
X0165712Y0229032D01*
X0165814Y0229138D01*
X0165920Y0229242D01*
X0166028Y0229343D01*
X0166139Y0229441D01*
X0166252Y0229537D01*
X0166368Y0229629D01*
X0166486Y0229718D01*
X0166607Y0229803D01*
X0166730Y0229886D01*
X0166855Y0229965D01*
X0166982Y0230041D01*
X0167111Y0230113D01*
X0167242Y0230182D01*
X0167375Y0230247D01*
X0167510Y0230308D01*
X0167646Y0230366D01*
X0167783Y0230421D01*
X0167922Y0230471D01*
X0168063Y0230518D01*
X0168204Y0230561D01*
X0168347Y0230601D01*
X0168491Y0230636D01*
X0168635Y0230668D01*
X0168781Y0230695D01*
X0168927Y0230719D01*
X0169074Y0230739D01*
X0169221Y0230755D01*
X0169368Y0230767D01*
X0169516Y0230775D01*
X0169664Y0230779D01*
X0169812Y0230779D01*
X0169960Y0230775D01*
X0170108Y0230767D01*
X0170255Y0230755D01*
X0170402Y0230739D01*
X0170549Y0230719D01*
X0170695Y0230695D01*
X0170841Y0230668D01*
X0170985Y0230636D01*
X0171129Y0230601D01*
X0171272Y0230561D01*
X0171413Y0230518D01*
X0171554Y0230471D01*
X0171693Y0230421D01*
X0171830Y0230366D01*
X0171966Y0230308D01*
X0172101Y0230247D01*
X0172234Y0230182D01*
X0172365Y0230113D01*
X0172494Y0230041D01*
X0172621Y0229965D01*
X0172746Y0229886D01*
X0172869Y0229803D01*
X0172990Y0229718D01*
X0173108Y0229629D01*
X0173224Y0229537D01*
X0173337Y0229441D01*
X0173448Y0229343D01*
X0173556Y0229242D01*
X0173662Y0229138D01*
X0173764Y0229032D01*
X0173864Y0228922D01*
X0173960Y0228810D01*
X0174054Y0228695D01*
X0174145Y0228578D01*
X0174232Y0228459D01*
X0174316Y0228337D01*
X0174397Y0228213D01*
X0174474Y0228087D01*
X0174548Y0227959D01*
X0174619Y0227829D01*
X0174686Y0227697D01*
X0174749Y0227563D01*
X0174809Y0227428D01*
X0174865Y0227291D01*
X0174918Y0227152D01*
X0174966Y0227012D01*
X0175011Y0226871D01*
X0175052Y0226729D01*
X0175090Y0226586D01*
X0175123Y0226442D01*
X0175153Y0226297D01*
X0175179Y0226151D01*
X0175200Y0226005D01*
X0175218Y0225858D01*
X0175232Y0225711D01*
X0175242Y0225563D01*
X0175248Y0225415D01*
X0175250Y0225267D01*
X0175248Y0225119D01*
X0175242Y0224971D01*
X0175232Y0224823D01*
X0175218Y0224676D01*
X0175200Y0224529D01*
X0175179Y0224383D01*
X0175153Y0224237D01*
X0175123Y0224092D01*
X0175090Y0223948D01*
X0175052Y0223805D01*
X0175011Y0223663D01*
X0174966Y0223522D01*
X0174918Y0223382D01*
X0174865Y0223243D01*
X0174809Y0223106D01*
X0174749Y0222971D01*
X0174686Y0222837D01*
X0174619Y0222705D01*
X0174548Y0222575D01*
X0174474Y0222447D01*
X0174397Y0222321D01*
X0174316Y0222197D01*
X0174232Y0222075D01*
X0174145Y0221956D01*
X0174054Y0221839D01*
X0173960Y0221724D01*
X0173864Y0221612D01*
X0173764Y0221502D01*
X0173662Y0221396D01*
X0173556Y0221292D01*
X0173448Y0221191D01*
X0173337Y0221093D01*
X0173224Y0220997D01*
X0173108Y0220905D01*
X0172990Y0220816D01*
X0172869Y0220731D01*
X0172746Y0220648D01*
X0172621Y0220569D01*
X0172494Y0220493D01*
X0172365Y0220421D01*
X0172234Y0220352D01*
X0172101Y0220287D01*
X0171966Y0220226D01*
X0171830Y0220168D01*
X0171693Y0220113D01*
X0171554Y0220063D01*
X0171413Y0220016D01*
X0171272Y0219973D01*
X0171129Y0219933D01*
X0170985Y0219898D01*
X0170841Y0219866D01*
X0170695Y0219839D01*
X0170549Y0219815D01*
X0170402Y0219795D01*
X0170255Y0219779D01*
X0170108Y0219767D01*
X0169960Y0219759D01*
X0169812Y0219755D01*
X0169664Y0219755D01*
X0169516Y0219759D01*
X0169368Y0219767D01*
X0169221Y0219779D01*
X0169074Y0219795D01*
X0168927Y0219815D01*
X0168781Y0219839D01*
X0168635Y0219866D01*
X0168491Y0219898D01*
X0168347Y0219933D01*
X0168204Y0219973D01*
X0168063Y0220016D01*
X0167922Y0220063D01*
X0167783Y0220113D01*
X0167646Y0220168D01*
X0167510Y0220226D01*
X0167375Y0220287D01*
X0167242Y0220352D01*
X0167111Y0220421D01*
X0166982Y0220493D01*
X0166855Y0220569D01*
X0166730Y0220648D01*
X0166607Y0220731D01*
X0166486Y0220816D01*
X0166368Y0220905D01*
X0166252Y0220997D01*
X0166139Y0221093D01*
X0166028Y0221191D01*
X0165920Y0221292D01*
X0165814Y0221396D01*
X0165712Y0221502D01*
X0165612Y0221612D01*
X0165516Y0221724D01*
X0165422Y0221839D01*
X0165331Y0221956D01*
X0165244Y0222075D01*
X0165160Y0222197D01*
X0165079Y0222321D01*
X0165002Y0222447D01*
X0164928Y0222575D01*
X0164857Y0222705D01*
X0164790Y0222837D01*
X0164727Y0222971D01*
X0164667Y0223106D01*
X0164611Y0223243D01*
X0164558Y0223382D01*
X0164510Y0223522D01*
X0164465Y0223663D01*
X0164424Y0223805D01*
X0164386Y0223948D01*
X0164353Y0224092D01*
X0164323Y0224237D01*
X0164297Y0224383D01*
X0164276Y0224529D01*
X0164258Y0224676D01*
X0164244Y0224823D01*
X0164234Y0224971D01*
X0164228Y0225119D01*
X0164226Y0225267D01*
X0197100Y0225267D02*
X0197102Y0225415D01*
X0197108Y0225563D01*
X0197118Y0225711D01*
X0197132Y0225858D01*
X0197150Y0226005D01*
X0197171Y0226151D01*
X0197197Y0226297D01*
X0197227Y0226442D01*
X0197260Y0226586D01*
X0197298Y0226729D01*
X0197339Y0226871D01*
X0197384Y0227012D01*
X0197432Y0227152D01*
X0197485Y0227291D01*
X0197541Y0227428D01*
X0197601Y0227563D01*
X0197664Y0227697D01*
X0197731Y0227829D01*
X0197802Y0227959D01*
X0197876Y0228087D01*
X0197953Y0228213D01*
X0198034Y0228337D01*
X0198118Y0228459D01*
X0198205Y0228578D01*
X0198296Y0228695D01*
X0198390Y0228810D01*
X0198486Y0228922D01*
X0198586Y0229032D01*
X0198688Y0229138D01*
X0198794Y0229242D01*
X0198902Y0229343D01*
X0199013Y0229441D01*
X0199126Y0229537D01*
X0199242Y0229629D01*
X0199360Y0229718D01*
X0199481Y0229803D01*
X0199604Y0229886D01*
X0199729Y0229965D01*
X0199856Y0230041D01*
X0199985Y0230113D01*
X0200116Y0230182D01*
X0200249Y0230247D01*
X0200384Y0230308D01*
X0200520Y0230366D01*
X0200657Y0230421D01*
X0200796Y0230471D01*
X0200937Y0230518D01*
X0201078Y0230561D01*
X0201221Y0230601D01*
X0201365Y0230636D01*
X0201509Y0230668D01*
X0201655Y0230695D01*
X0201801Y0230719D01*
X0201948Y0230739D01*
X0202095Y0230755D01*
X0202242Y0230767D01*
X0202390Y0230775D01*
X0202538Y0230779D01*
X0202686Y0230779D01*
X0202834Y0230775D01*
X0202982Y0230767D01*
X0203129Y0230755D01*
X0203276Y0230739D01*
X0203423Y0230719D01*
X0203569Y0230695D01*
X0203715Y0230668D01*
X0203859Y0230636D01*
X0204003Y0230601D01*
X0204146Y0230561D01*
X0204287Y0230518D01*
X0204428Y0230471D01*
X0204567Y0230421D01*
X0204704Y0230366D01*
X0204840Y0230308D01*
X0204975Y0230247D01*
X0205108Y0230182D01*
X0205239Y0230113D01*
X0205368Y0230041D01*
X0205495Y0229965D01*
X0205620Y0229886D01*
X0205743Y0229803D01*
X0205864Y0229718D01*
X0205982Y0229629D01*
X0206098Y0229537D01*
X0206211Y0229441D01*
X0206322Y0229343D01*
X0206430Y0229242D01*
X0206536Y0229138D01*
X0206638Y0229032D01*
X0206738Y0228922D01*
X0206834Y0228810D01*
X0206928Y0228695D01*
X0207019Y0228578D01*
X0207106Y0228459D01*
X0207190Y0228337D01*
X0207271Y0228213D01*
X0207348Y0228087D01*
X0207422Y0227959D01*
X0207493Y0227829D01*
X0207560Y0227697D01*
X0207623Y0227563D01*
X0207683Y0227428D01*
X0207739Y0227291D01*
X0207792Y0227152D01*
X0207840Y0227012D01*
X0207885Y0226871D01*
X0207926Y0226729D01*
X0207964Y0226586D01*
X0207997Y0226442D01*
X0208027Y0226297D01*
X0208053Y0226151D01*
X0208074Y0226005D01*
X0208092Y0225858D01*
X0208106Y0225711D01*
X0208116Y0225563D01*
X0208122Y0225415D01*
X0208124Y0225267D01*
X0208122Y0225119D01*
X0208116Y0224971D01*
X0208106Y0224823D01*
X0208092Y0224676D01*
X0208074Y0224529D01*
X0208053Y0224383D01*
X0208027Y0224237D01*
X0207997Y0224092D01*
X0207964Y0223948D01*
X0207926Y0223805D01*
X0207885Y0223663D01*
X0207840Y0223522D01*
X0207792Y0223382D01*
X0207739Y0223243D01*
X0207683Y0223106D01*
X0207623Y0222971D01*
X0207560Y0222837D01*
X0207493Y0222705D01*
X0207422Y0222575D01*
X0207348Y0222447D01*
X0207271Y0222321D01*
X0207190Y0222197D01*
X0207106Y0222075D01*
X0207019Y0221956D01*
X0206928Y0221839D01*
X0206834Y0221724D01*
X0206738Y0221612D01*
X0206638Y0221502D01*
X0206536Y0221396D01*
X0206430Y0221292D01*
X0206322Y0221191D01*
X0206211Y0221093D01*
X0206098Y0220997D01*
X0205982Y0220905D01*
X0205864Y0220816D01*
X0205743Y0220731D01*
X0205620Y0220648D01*
X0205495Y0220569D01*
X0205368Y0220493D01*
X0205239Y0220421D01*
X0205108Y0220352D01*
X0204975Y0220287D01*
X0204840Y0220226D01*
X0204704Y0220168D01*
X0204567Y0220113D01*
X0204428Y0220063D01*
X0204287Y0220016D01*
X0204146Y0219973D01*
X0204003Y0219933D01*
X0203859Y0219898D01*
X0203715Y0219866D01*
X0203569Y0219839D01*
X0203423Y0219815D01*
X0203276Y0219795D01*
X0203129Y0219779D01*
X0202982Y0219767D01*
X0202834Y0219759D01*
X0202686Y0219755D01*
X0202538Y0219755D01*
X0202390Y0219759D01*
X0202242Y0219767D01*
X0202095Y0219779D01*
X0201948Y0219795D01*
X0201801Y0219815D01*
X0201655Y0219839D01*
X0201509Y0219866D01*
X0201365Y0219898D01*
X0201221Y0219933D01*
X0201078Y0219973D01*
X0200937Y0220016D01*
X0200796Y0220063D01*
X0200657Y0220113D01*
X0200520Y0220168D01*
X0200384Y0220226D01*
X0200249Y0220287D01*
X0200116Y0220352D01*
X0199985Y0220421D01*
X0199856Y0220493D01*
X0199729Y0220569D01*
X0199604Y0220648D01*
X0199481Y0220731D01*
X0199360Y0220816D01*
X0199242Y0220905D01*
X0199126Y0220997D01*
X0199013Y0221093D01*
X0198902Y0221191D01*
X0198794Y0221292D01*
X0198688Y0221396D01*
X0198586Y0221502D01*
X0198486Y0221612D01*
X0198390Y0221724D01*
X0198296Y0221839D01*
X0198205Y0221956D01*
X0198118Y0222075D01*
X0198034Y0222197D01*
X0197953Y0222321D01*
X0197876Y0222447D01*
X0197802Y0222575D01*
X0197731Y0222705D01*
X0197664Y0222837D01*
X0197601Y0222971D01*
X0197541Y0223106D01*
X0197485Y0223243D01*
X0197432Y0223382D01*
X0197384Y0223522D01*
X0197339Y0223663D01*
X0197298Y0223805D01*
X0197260Y0223948D01*
X0197227Y0224092D01*
X0197197Y0224237D01*
X0197171Y0224383D01*
X0197150Y0224529D01*
X0197132Y0224676D01*
X0197118Y0224823D01*
X0197108Y0224971D01*
X0197102Y0225119D01*
X0197100Y0225267D01*
X0238972Y0229208D02*
X0238974Y0229305D01*
X0238980Y0229402D01*
X0238990Y0229498D01*
X0239004Y0229594D01*
X0239022Y0229690D01*
X0239043Y0229784D01*
X0239069Y0229878D01*
X0239098Y0229970D01*
X0239132Y0230061D01*
X0239168Y0230151D01*
X0239209Y0230239D01*
X0239253Y0230325D01*
X0239301Y0230410D01*
X0239352Y0230492D01*
X0239406Y0230573D01*
X0239464Y0230651D01*
X0239525Y0230726D01*
X0239588Y0230799D01*
X0239655Y0230870D01*
X0239725Y0230937D01*
X0239797Y0231002D01*
X0239872Y0231063D01*
X0239950Y0231122D01*
X0240029Y0231177D01*
X0240111Y0231229D01*
X0240195Y0231277D01*
X0240281Y0231322D01*
X0240369Y0231364D01*
X0240458Y0231402D01*
X0240549Y0231436D01*
X0240641Y0231466D01*
X0240734Y0231493D01*
X0240829Y0231515D01*
X0240924Y0231534D01*
X0241020Y0231549D01*
X0241116Y0231560D01*
X0241213Y0231567D01*
X0241310Y0231570D01*
X0241407Y0231569D01*
X0241504Y0231564D01*
X0241600Y0231555D01*
X0241696Y0231542D01*
X0241792Y0231525D01*
X0241887Y0231504D01*
X0241980Y0231480D01*
X0242073Y0231451D01*
X0242165Y0231419D01*
X0242255Y0231383D01*
X0242343Y0231344D01*
X0242430Y0231300D01*
X0242515Y0231254D01*
X0242598Y0231203D01*
X0242679Y0231150D01*
X0242757Y0231093D01*
X0242834Y0231033D01*
X0242907Y0230970D01*
X0242978Y0230904D01*
X0243046Y0230835D01*
X0243112Y0230763D01*
X0243174Y0230689D01*
X0243233Y0230612D01*
X0243289Y0230533D01*
X0243342Y0230451D01*
X0243392Y0230368D01*
X0243437Y0230282D01*
X0243480Y0230195D01*
X0243519Y0230106D01*
X0243554Y0230016D01*
X0243585Y0229924D01*
X0243612Y0229831D01*
X0243636Y0229737D01*
X0243656Y0229642D01*
X0243672Y0229546D01*
X0243684Y0229450D01*
X0243692Y0229353D01*
X0243696Y0229256D01*
X0243696Y0229160D01*
X0243692Y0229063D01*
X0243684Y0228966D01*
X0243672Y0228870D01*
X0243656Y0228774D01*
X0243636Y0228679D01*
X0243612Y0228585D01*
X0243585Y0228492D01*
X0243554Y0228400D01*
X0243519Y0228310D01*
X0243480Y0228221D01*
X0243437Y0228134D01*
X0243392Y0228048D01*
X0243342Y0227965D01*
X0243289Y0227883D01*
X0243233Y0227804D01*
X0243174Y0227727D01*
X0243112Y0227653D01*
X0243046Y0227581D01*
X0242978Y0227512D01*
X0242907Y0227446D01*
X0242834Y0227383D01*
X0242757Y0227323D01*
X0242679Y0227266D01*
X0242598Y0227213D01*
X0242515Y0227162D01*
X0242430Y0227116D01*
X0242343Y0227072D01*
X0242255Y0227033D01*
X0242165Y0226997D01*
X0242073Y0226965D01*
X0241980Y0226936D01*
X0241887Y0226912D01*
X0241792Y0226891D01*
X0241696Y0226874D01*
X0241600Y0226861D01*
X0241504Y0226852D01*
X0241407Y0226847D01*
X0241310Y0226846D01*
X0241213Y0226849D01*
X0241116Y0226856D01*
X0241020Y0226867D01*
X0240924Y0226882D01*
X0240829Y0226901D01*
X0240734Y0226923D01*
X0240641Y0226950D01*
X0240549Y0226980D01*
X0240458Y0227014D01*
X0240369Y0227052D01*
X0240281Y0227094D01*
X0240195Y0227139D01*
X0240111Y0227187D01*
X0240029Y0227239D01*
X0239950Y0227294D01*
X0239872Y0227353D01*
X0239797Y0227414D01*
X0239725Y0227479D01*
X0239655Y0227546D01*
X0239588Y0227617D01*
X0239525Y0227690D01*
X0239464Y0227765D01*
X0239406Y0227843D01*
X0239352Y0227924D01*
X0239301Y0228006D01*
X0239253Y0228091D01*
X0239209Y0228177D01*
X0239168Y0228265D01*
X0239132Y0228355D01*
X0239098Y0228446D01*
X0239069Y0228538D01*
X0239043Y0228632D01*
X0239022Y0228726D01*
X0239004Y0228822D01*
X0238990Y0228918D01*
X0238980Y0229014D01*
X0238974Y0229111D01*
X0238972Y0229208D01*
X0238972Y0219366D02*
X0238974Y0219463D01*
X0238980Y0219560D01*
X0238990Y0219656D01*
X0239004Y0219752D01*
X0239022Y0219848D01*
X0239043Y0219942D01*
X0239069Y0220036D01*
X0239098Y0220128D01*
X0239132Y0220219D01*
X0239168Y0220309D01*
X0239209Y0220397D01*
X0239253Y0220483D01*
X0239301Y0220568D01*
X0239352Y0220650D01*
X0239406Y0220731D01*
X0239464Y0220809D01*
X0239525Y0220884D01*
X0239588Y0220957D01*
X0239655Y0221028D01*
X0239725Y0221095D01*
X0239797Y0221160D01*
X0239872Y0221221D01*
X0239950Y0221280D01*
X0240029Y0221335D01*
X0240111Y0221387D01*
X0240195Y0221435D01*
X0240281Y0221480D01*
X0240369Y0221522D01*
X0240458Y0221560D01*
X0240549Y0221594D01*
X0240641Y0221624D01*
X0240734Y0221651D01*
X0240829Y0221673D01*
X0240924Y0221692D01*
X0241020Y0221707D01*
X0241116Y0221718D01*
X0241213Y0221725D01*
X0241310Y0221728D01*
X0241407Y0221727D01*
X0241504Y0221722D01*
X0241600Y0221713D01*
X0241696Y0221700D01*
X0241792Y0221683D01*
X0241887Y0221662D01*
X0241980Y0221638D01*
X0242073Y0221609D01*
X0242165Y0221577D01*
X0242255Y0221541D01*
X0242343Y0221502D01*
X0242430Y0221458D01*
X0242515Y0221412D01*
X0242598Y0221361D01*
X0242679Y0221308D01*
X0242757Y0221251D01*
X0242834Y0221191D01*
X0242907Y0221128D01*
X0242978Y0221062D01*
X0243046Y0220993D01*
X0243112Y0220921D01*
X0243174Y0220847D01*
X0243233Y0220770D01*
X0243289Y0220691D01*
X0243342Y0220609D01*
X0243392Y0220526D01*
X0243437Y0220440D01*
X0243480Y0220353D01*
X0243519Y0220264D01*
X0243554Y0220174D01*
X0243585Y0220082D01*
X0243612Y0219989D01*
X0243636Y0219895D01*
X0243656Y0219800D01*
X0243672Y0219704D01*
X0243684Y0219608D01*
X0243692Y0219511D01*
X0243696Y0219414D01*
X0243696Y0219318D01*
X0243692Y0219221D01*
X0243684Y0219124D01*
X0243672Y0219028D01*
X0243656Y0218932D01*
X0243636Y0218837D01*
X0243612Y0218743D01*
X0243585Y0218650D01*
X0243554Y0218558D01*
X0243519Y0218468D01*
X0243480Y0218379D01*
X0243437Y0218292D01*
X0243392Y0218206D01*
X0243342Y0218123D01*
X0243289Y0218041D01*
X0243233Y0217962D01*
X0243174Y0217885D01*
X0243112Y0217811D01*
X0243046Y0217739D01*
X0242978Y0217670D01*
X0242907Y0217604D01*
X0242834Y0217541D01*
X0242757Y0217481D01*
X0242679Y0217424D01*
X0242598Y0217371D01*
X0242515Y0217320D01*
X0242430Y0217274D01*
X0242343Y0217230D01*
X0242255Y0217191D01*
X0242165Y0217155D01*
X0242073Y0217123D01*
X0241980Y0217094D01*
X0241887Y0217070D01*
X0241792Y0217049D01*
X0241696Y0217032D01*
X0241600Y0217019D01*
X0241504Y0217010D01*
X0241407Y0217005D01*
X0241310Y0217004D01*
X0241213Y0217007D01*
X0241116Y0217014D01*
X0241020Y0217025D01*
X0240924Y0217040D01*
X0240829Y0217059D01*
X0240734Y0217081D01*
X0240641Y0217108D01*
X0240549Y0217138D01*
X0240458Y0217172D01*
X0240369Y0217210D01*
X0240281Y0217252D01*
X0240195Y0217297D01*
X0240111Y0217345D01*
X0240029Y0217397D01*
X0239950Y0217452D01*
X0239872Y0217511D01*
X0239797Y0217572D01*
X0239725Y0217637D01*
X0239655Y0217704D01*
X0239588Y0217775D01*
X0239525Y0217848D01*
X0239464Y0217923D01*
X0239406Y0218001D01*
X0239352Y0218082D01*
X0239301Y0218164D01*
X0239253Y0218249D01*
X0239209Y0218335D01*
X0239168Y0218423D01*
X0239132Y0218513D01*
X0239098Y0218604D01*
X0239069Y0218696D01*
X0239043Y0218790D01*
X0239022Y0218884D01*
X0239004Y0218980D01*
X0238990Y0219076D01*
X0238980Y0219172D01*
X0238974Y0219269D01*
X0238972Y0219366D01*
X0258657Y0199681D02*
X0258659Y0199778D01*
X0258665Y0199875D01*
X0258675Y0199971D01*
X0258689Y0200067D01*
X0258707Y0200163D01*
X0258728Y0200257D01*
X0258754Y0200351D01*
X0258783Y0200443D01*
X0258817Y0200534D01*
X0258853Y0200624D01*
X0258894Y0200712D01*
X0258938Y0200798D01*
X0258986Y0200883D01*
X0259037Y0200965D01*
X0259091Y0201046D01*
X0259149Y0201124D01*
X0259210Y0201199D01*
X0259273Y0201272D01*
X0259340Y0201343D01*
X0259410Y0201410D01*
X0259482Y0201475D01*
X0259557Y0201536D01*
X0259635Y0201595D01*
X0259714Y0201650D01*
X0259796Y0201702D01*
X0259880Y0201750D01*
X0259966Y0201795D01*
X0260054Y0201837D01*
X0260143Y0201875D01*
X0260234Y0201909D01*
X0260326Y0201939D01*
X0260419Y0201966D01*
X0260514Y0201988D01*
X0260609Y0202007D01*
X0260705Y0202022D01*
X0260801Y0202033D01*
X0260898Y0202040D01*
X0260995Y0202043D01*
X0261092Y0202042D01*
X0261189Y0202037D01*
X0261285Y0202028D01*
X0261381Y0202015D01*
X0261477Y0201998D01*
X0261572Y0201977D01*
X0261665Y0201953D01*
X0261758Y0201924D01*
X0261850Y0201892D01*
X0261940Y0201856D01*
X0262028Y0201817D01*
X0262115Y0201773D01*
X0262200Y0201727D01*
X0262283Y0201676D01*
X0262364Y0201623D01*
X0262442Y0201566D01*
X0262519Y0201506D01*
X0262592Y0201443D01*
X0262663Y0201377D01*
X0262731Y0201308D01*
X0262797Y0201236D01*
X0262859Y0201162D01*
X0262918Y0201085D01*
X0262974Y0201006D01*
X0263027Y0200924D01*
X0263077Y0200841D01*
X0263122Y0200755D01*
X0263165Y0200668D01*
X0263204Y0200579D01*
X0263239Y0200489D01*
X0263270Y0200397D01*
X0263297Y0200304D01*
X0263321Y0200210D01*
X0263341Y0200115D01*
X0263357Y0200019D01*
X0263369Y0199923D01*
X0263377Y0199826D01*
X0263381Y0199729D01*
X0263381Y0199633D01*
X0263377Y0199536D01*
X0263369Y0199439D01*
X0263357Y0199343D01*
X0263341Y0199247D01*
X0263321Y0199152D01*
X0263297Y0199058D01*
X0263270Y0198965D01*
X0263239Y0198873D01*
X0263204Y0198783D01*
X0263165Y0198694D01*
X0263122Y0198607D01*
X0263077Y0198521D01*
X0263027Y0198438D01*
X0262974Y0198356D01*
X0262918Y0198277D01*
X0262859Y0198200D01*
X0262797Y0198126D01*
X0262731Y0198054D01*
X0262663Y0197985D01*
X0262592Y0197919D01*
X0262519Y0197856D01*
X0262442Y0197796D01*
X0262364Y0197739D01*
X0262283Y0197686D01*
X0262200Y0197635D01*
X0262115Y0197589D01*
X0262028Y0197545D01*
X0261940Y0197506D01*
X0261850Y0197470D01*
X0261758Y0197438D01*
X0261665Y0197409D01*
X0261572Y0197385D01*
X0261477Y0197364D01*
X0261381Y0197347D01*
X0261285Y0197334D01*
X0261189Y0197325D01*
X0261092Y0197320D01*
X0260995Y0197319D01*
X0260898Y0197322D01*
X0260801Y0197329D01*
X0260705Y0197340D01*
X0260609Y0197355D01*
X0260514Y0197374D01*
X0260419Y0197396D01*
X0260326Y0197423D01*
X0260234Y0197453D01*
X0260143Y0197487D01*
X0260054Y0197525D01*
X0259966Y0197567D01*
X0259880Y0197612D01*
X0259796Y0197660D01*
X0259714Y0197712D01*
X0259635Y0197767D01*
X0259557Y0197826D01*
X0259482Y0197887D01*
X0259410Y0197952D01*
X0259340Y0198019D01*
X0259273Y0198090D01*
X0259210Y0198163D01*
X0259149Y0198238D01*
X0259091Y0198316D01*
X0259037Y0198397D01*
X0258986Y0198479D01*
X0258938Y0198564D01*
X0258894Y0198650D01*
X0258853Y0198738D01*
X0258817Y0198828D01*
X0258783Y0198919D01*
X0258754Y0199011D01*
X0258728Y0199105D01*
X0258707Y0199199D01*
X0258689Y0199295D01*
X0258675Y0199391D01*
X0258665Y0199487D01*
X0258659Y0199584D01*
X0258657Y0199681D01*
X0278342Y0219366D02*
X0278344Y0219463D01*
X0278350Y0219560D01*
X0278360Y0219656D01*
X0278374Y0219752D01*
X0278392Y0219848D01*
X0278413Y0219942D01*
X0278439Y0220036D01*
X0278468Y0220128D01*
X0278502Y0220219D01*
X0278538Y0220309D01*
X0278579Y0220397D01*
X0278623Y0220483D01*
X0278671Y0220568D01*
X0278722Y0220650D01*
X0278776Y0220731D01*
X0278834Y0220809D01*
X0278895Y0220884D01*
X0278958Y0220957D01*
X0279025Y0221028D01*
X0279095Y0221095D01*
X0279167Y0221160D01*
X0279242Y0221221D01*
X0279320Y0221280D01*
X0279399Y0221335D01*
X0279481Y0221387D01*
X0279565Y0221435D01*
X0279651Y0221480D01*
X0279739Y0221522D01*
X0279828Y0221560D01*
X0279919Y0221594D01*
X0280011Y0221624D01*
X0280104Y0221651D01*
X0280199Y0221673D01*
X0280294Y0221692D01*
X0280390Y0221707D01*
X0280486Y0221718D01*
X0280583Y0221725D01*
X0280680Y0221728D01*
X0280777Y0221727D01*
X0280874Y0221722D01*
X0280970Y0221713D01*
X0281066Y0221700D01*
X0281162Y0221683D01*
X0281257Y0221662D01*
X0281350Y0221638D01*
X0281443Y0221609D01*
X0281535Y0221577D01*
X0281625Y0221541D01*
X0281713Y0221502D01*
X0281800Y0221458D01*
X0281885Y0221412D01*
X0281968Y0221361D01*
X0282049Y0221308D01*
X0282127Y0221251D01*
X0282204Y0221191D01*
X0282277Y0221128D01*
X0282348Y0221062D01*
X0282416Y0220993D01*
X0282482Y0220921D01*
X0282544Y0220847D01*
X0282603Y0220770D01*
X0282659Y0220691D01*
X0282712Y0220609D01*
X0282762Y0220526D01*
X0282807Y0220440D01*
X0282850Y0220353D01*
X0282889Y0220264D01*
X0282924Y0220174D01*
X0282955Y0220082D01*
X0282982Y0219989D01*
X0283006Y0219895D01*
X0283026Y0219800D01*
X0283042Y0219704D01*
X0283054Y0219608D01*
X0283062Y0219511D01*
X0283066Y0219414D01*
X0283066Y0219318D01*
X0283062Y0219221D01*
X0283054Y0219124D01*
X0283042Y0219028D01*
X0283026Y0218932D01*
X0283006Y0218837D01*
X0282982Y0218743D01*
X0282955Y0218650D01*
X0282924Y0218558D01*
X0282889Y0218468D01*
X0282850Y0218379D01*
X0282807Y0218292D01*
X0282762Y0218206D01*
X0282712Y0218123D01*
X0282659Y0218041D01*
X0282603Y0217962D01*
X0282544Y0217885D01*
X0282482Y0217811D01*
X0282416Y0217739D01*
X0282348Y0217670D01*
X0282277Y0217604D01*
X0282204Y0217541D01*
X0282127Y0217481D01*
X0282049Y0217424D01*
X0281968Y0217371D01*
X0281885Y0217320D01*
X0281800Y0217274D01*
X0281713Y0217230D01*
X0281625Y0217191D01*
X0281535Y0217155D01*
X0281443Y0217123D01*
X0281350Y0217094D01*
X0281257Y0217070D01*
X0281162Y0217049D01*
X0281066Y0217032D01*
X0280970Y0217019D01*
X0280874Y0217010D01*
X0280777Y0217005D01*
X0280680Y0217004D01*
X0280583Y0217007D01*
X0280486Y0217014D01*
X0280390Y0217025D01*
X0280294Y0217040D01*
X0280199Y0217059D01*
X0280104Y0217081D01*
X0280011Y0217108D01*
X0279919Y0217138D01*
X0279828Y0217172D01*
X0279739Y0217210D01*
X0279651Y0217252D01*
X0279565Y0217297D01*
X0279481Y0217345D01*
X0279399Y0217397D01*
X0279320Y0217452D01*
X0279242Y0217511D01*
X0279167Y0217572D01*
X0279095Y0217637D01*
X0279025Y0217704D01*
X0278958Y0217775D01*
X0278895Y0217848D01*
X0278834Y0217923D01*
X0278776Y0218001D01*
X0278722Y0218082D01*
X0278671Y0218164D01*
X0278623Y0218249D01*
X0278579Y0218335D01*
X0278538Y0218423D01*
X0278502Y0218513D01*
X0278468Y0218604D01*
X0278439Y0218696D01*
X0278413Y0218790D01*
X0278392Y0218884D01*
X0278374Y0218980D01*
X0278360Y0219076D01*
X0278350Y0219172D01*
X0278344Y0219269D01*
X0278342Y0219366D01*
X0278342Y0229208D02*
X0278344Y0229305D01*
X0278350Y0229402D01*
X0278360Y0229498D01*
X0278374Y0229594D01*
X0278392Y0229690D01*
X0278413Y0229784D01*
X0278439Y0229878D01*
X0278468Y0229970D01*
X0278502Y0230061D01*
X0278538Y0230151D01*
X0278579Y0230239D01*
X0278623Y0230325D01*
X0278671Y0230410D01*
X0278722Y0230492D01*
X0278776Y0230573D01*
X0278834Y0230651D01*
X0278895Y0230726D01*
X0278958Y0230799D01*
X0279025Y0230870D01*
X0279095Y0230937D01*
X0279167Y0231002D01*
X0279242Y0231063D01*
X0279320Y0231122D01*
X0279399Y0231177D01*
X0279481Y0231229D01*
X0279565Y0231277D01*
X0279651Y0231322D01*
X0279739Y0231364D01*
X0279828Y0231402D01*
X0279919Y0231436D01*
X0280011Y0231466D01*
X0280104Y0231493D01*
X0280199Y0231515D01*
X0280294Y0231534D01*
X0280390Y0231549D01*
X0280486Y0231560D01*
X0280583Y0231567D01*
X0280680Y0231570D01*
X0280777Y0231569D01*
X0280874Y0231564D01*
X0280970Y0231555D01*
X0281066Y0231542D01*
X0281162Y0231525D01*
X0281257Y0231504D01*
X0281350Y0231480D01*
X0281443Y0231451D01*
X0281535Y0231419D01*
X0281625Y0231383D01*
X0281713Y0231344D01*
X0281800Y0231300D01*
X0281885Y0231254D01*
X0281968Y0231203D01*
X0282049Y0231150D01*
X0282127Y0231093D01*
X0282204Y0231033D01*
X0282277Y0230970D01*
X0282348Y0230904D01*
X0282416Y0230835D01*
X0282482Y0230763D01*
X0282544Y0230689D01*
X0282603Y0230612D01*
X0282659Y0230533D01*
X0282712Y0230451D01*
X0282762Y0230368D01*
X0282807Y0230282D01*
X0282850Y0230195D01*
X0282889Y0230106D01*
X0282924Y0230016D01*
X0282955Y0229924D01*
X0282982Y0229831D01*
X0283006Y0229737D01*
X0283026Y0229642D01*
X0283042Y0229546D01*
X0283054Y0229450D01*
X0283062Y0229353D01*
X0283066Y0229256D01*
X0283066Y0229160D01*
X0283062Y0229063D01*
X0283054Y0228966D01*
X0283042Y0228870D01*
X0283026Y0228774D01*
X0283006Y0228679D01*
X0282982Y0228585D01*
X0282955Y0228492D01*
X0282924Y0228400D01*
X0282889Y0228310D01*
X0282850Y0228221D01*
X0282807Y0228134D01*
X0282762Y0228048D01*
X0282712Y0227965D01*
X0282659Y0227883D01*
X0282603Y0227804D01*
X0282544Y0227727D01*
X0282482Y0227653D01*
X0282416Y0227581D01*
X0282348Y0227512D01*
X0282277Y0227446D01*
X0282204Y0227383D01*
X0282127Y0227323D01*
X0282049Y0227266D01*
X0281968Y0227213D01*
X0281885Y0227162D01*
X0281800Y0227116D01*
X0281713Y0227072D01*
X0281625Y0227033D01*
X0281535Y0226997D01*
X0281443Y0226965D01*
X0281350Y0226936D01*
X0281257Y0226912D01*
X0281162Y0226891D01*
X0281066Y0226874D01*
X0280970Y0226861D01*
X0280874Y0226852D01*
X0280777Y0226847D01*
X0280680Y0226846D01*
X0280583Y0226849D01*
X0280486Y0226856D01*
X0280390Y0226867D01*
X0280294Y0226882D01*
X0280199Y0226901D01*
X0280104Y0226923D01*
X0280011Y0226950D01*
X0279919Y0226980D01*
X0279828Y0227014D01*
X0279739Y0227052D01*
X0279651Y0227094D01*
X0279565Y0227139D01*
X0279481Y0227187D01*
X0279399Y0227239D01*
X0279320Y0227294D01*
X0279242Y0227353D01*
X0279167Y0227414D01*
X0279095Y0227479D01*
X0279025Y0227546D01*
X0278958Y0227617D01*
X0278895Y0227690D01*
X0278834Y0227765D01*
X0278776Y0227843D01*
X0278722Y0227924D01*
X0278671Y0228006D01*
X0278623Y0228091D01*
X0278579Y0228177D01*
X0278538Y0228265D01*
X0278502Y0228355D01*
X0278468Y0228446D01*
X0278439Y0228538D01*
X0278413Y0228632D01*
X0278392Y0228726D01*
X0278374Y0228822D01*
X0278360Y0228918D01*
X0278350Y0229014D01*
X0278344Y0229111D01*
X0278342Y0229208D01*
X0241938Y0046676D02*
X0241940Y0046773D01*
X0241946Y0046870D01*
X0241956Y0046966D01*
X0241970Y0047062D01*
X0241988Y0047158D01*
X0242009Y0047252D01*
X0242035Y0047346D01*
X0242064Y0047438D01*
X0242098Y0047529D01*
X0242134Y0047619D01*
X0242175Y0047707D01*
X0242219Y0047793D01*
X0242267Y0047878D01*
X0242318Y0047960D01*
X0242372Y0048041D01*
X0242430Y0048119D01*
X0242491Y0048194D01*
X0242554Y0048267D01*
X0242621Y0048338D01*
X0242691Y0048405D01*
X0242763Y0048470D01*
X0242838Y0048531D01*
X0242916Y0048590D01*
X0242995Y0048645D01*
X0243077Y0048697D01*
X0243161Y0048745D01*
X0243247Y0048790D01*
X0243335Y0048832D01*
X0243424Y0048870D01*
X0243515Y0048904D01*
X0243607Y0048934D01*
X0243700Y0048961D01*
X0243795Y0048983D01*
X0243890Y0049002D01*
X0243986Y0049017D01*
X0244082Y0049028D01*
X0244179Y0049035D01*
X0244276Y0049038D01*
X0244373Y0049037D01*
X0244470Y0049032D01*
X0244566Y0049023D01*
X0244662Y0049010D01*
X0244758Y0048993D01*
X0244853Y0048972D01*
X0244946Y0048948D01*
X0245039Y0048919D01*
X0245131Y0048887D01*
X0245221Y0048851D01*
X0245309Y0048812D01*
X0245396Y0048768D01*
X0245481Y0048722D01*
X0245564Y0048671D01*
X0245645Y0048618D01*
X0245723Y0048561D01*
X0245800Y0048501D01*
X0245873Y0048438D01*
X0245944Y0048372D01*
X0246012Y0048303D01*
X0246078Y0048231D01*
X0246140Y0048157D01*
X0246199Y0048080D01*
X0246255Y0048001D01*
X0246308Y0047919D01*
X0246358Y0047836D01*
X0246403Y0047750D01*
X0246446Y0047663D01*
X0246485Y0047574D01*
X0246520Y0047484D01*
X0246551Y0047392D01*
X0246578Y0047299D01*
X0246602Y0047205D01*
X0246622Y0047110D01*
X0246638Y0047014D01*
X0246650Y0046918D01*
X0246658Y0046821D01*
X0246662Y0046724D01*
X0246662Y0046628D01*
X0246658Y0046531D01*
X0246650Y0046434D01*
X0246638Y0046338D01*
X0246622Y0046242D01*
X0246602Y0046147D01*
X0246578Y0046053D01*
X0246551Y0045960D01*
X0246520Y0045868D01*
X0246485Y0045778D01*
X0246446Y0045689D01*
X0246403Y0045602D01*
X0246358Y0045516D01*
X0246308Y0045433D01*
X0246255Y0045351D01*
X0246199Y0045272D01*
X0246140Y0045195D01*
X0246078Y0045121D01*
X0246012Y0045049D01*
X0245944Y0044980D01*
X0245873Y0044914D01*
X0245800Y0044851D01*
X0245723Y0044791D01*
X0245645Y0044734D01*
X0245564Y0044681D01*
X0245481Y0044630D01*
X0245396Y0044584D01*
X0245309Y0044540D01*
X0245221Y0044501D01*
X0245131Y0044465D01*
X0245039Y0044433D01*
X0244946Y0044404D01*
X0244853Y0044380D01*
X0244758Y0044359D01*
X0244662Y0044342D01*
X0244566Y0044329D01*
X0244470Y0044320D01*
X0244373Y0044315D01*
X0244276Y0044314D01*
X0244179Y0044317D01*
X0244082Y0044324D01*
X0243986Y0044335D01*
X0243890Y0044350D01*
X0243795Y0044369D01*
X0243700Y0044391D01*
X0243607Y0044418D01*
X0243515Y0044448D01*
X0243424Y0044482D01*
X0243335Y0044520D01*
X0243247Y0044562D01*
X0243161Y0044607D01*
X0243077Y0044655D01*
X0242995Y0044707D01*
X0242916Y0044762D01*
X0242838Y0044821D01*
X0242763Y0044882D01*
X0242691Y0044947D01*
X0242621Y0045014D01*
X0242554Y0045085D01*
X0242491Y0045158D01*
X0242430Y0045233D01*
X0242372Y0045311D01*
X0242318Y0045392D01*
X0242267Y0045474D01*
X0242219Y0045559D01*
X0242175Y0045645D01*
X0242134Y0045733D01*
X0242098Y0045823D01*
X0242064Y0045914D01*
X0242035Y0046006D01*
X0242009Y0046100D01*
X0241988Y0046194D01*
X0241970Y0046290D01*
X0241956Y0046386D01*
X0241946Y0046482D01*
X0241940Y0046579D01*
X0241938Y0046676D01*
X0222253Y0026991D02*
X0222255Y0027088D01*
X0222261Y0027185D01*
X0222271Y0027281D01*
X0222285Y0027377D01*
X0222303Y0027473D01*
X0222324Y0027567D01*
X0222350Y0027661D01*
X0222379Y0027753D01*
X0222413Y0027844D01*
X0222449Y0027934D01*
X0222490Y0028022D01*
X0222534Y0028108D01*
X0222582Y0028193D01*
X0222633Y0028275D01*
X0222687Y0028356D01*
X0222745Y0028434D01*
X0222806Y0028509D01*
X0222869Y0028582D01*
X0222936Y0028653D01*
X0223006Y0028720D01*
X0223078Y0028785D01*
X0223153Y0028846D01*
X0223231Y0028905D01*
X0223310Y0028960D01*
X0223392Y0029012D01*
X0223476Y0029060D01*
X0223562Y0029105D01*
X0223650Y0029147D01*
X0223739Y0029185D01*
X0223830Y0029219D01*
X0223922Y0029249D01*
X0224015Y0029276D01*
X0224110Y0029298D01*
X0224205Y0029317D01*
X0224301Y0029332D01*
X0224397Y0029343D01*
X0224494Y0029350D01*
X0224591Y0029353D01*
X0224688Y0029352D01*
X0224785Y0029347D01*
X0224881Y0029338D01*
X0224977Y0029325D01*
X0225073Y0029308D01*
X0225168Y0029287D01*
X0225261Y0029263D01*
X0225354Y0029234D01*
X0225446Y0029202D01*
X0225536Y0029166D01*
X0225624Y0029127D01*
X0225711Y0029083D01*
X0225796Y0029037D01*
X0225879Y0028986D01*
X0225960Y0028933D01*
X0226038Y0028876D01*
X0226115Y0028816D01*
X0226188Y0028753D01*
X0226259Y0028687D01*
X0226327Y0028618D01*
X0226393Y0028546D01*
X0226455Y0028472D01*
X0226514Y0028395D01*
X0226570Y0028316D01*
X0226623Y0028234D01*
X0226673Y0028151D01*
X0226718Y0028065D01*
X0226761Y0027978D01*
X0226800Y0027889D01*
X0226835Y0027799D01*
X0226866Y0027707D01*
X0226893Y0027614D01*
X0226917Y0027520D01*
X0226937Y0027425D01*
X0226953Y0027329D01*
X0226965Y0027233D01*
X0226973Y0027136D01*
X0226977Y0027039D01*
X0226977Y0026943D01*
X0226973Y0026846D01*
X0226965Y0026749D01*
X0226953Y0026653D01*
X0226937Y0026557D01*
X0226917Y0026462D01*
X0226893Y0026368D01*
X0226866Y0026275D01*
X0226835Y0026183D01*
X0226800Y0026093D01*
X0226761Y0026004D01*
X0226718Y0025917D01*
X0226673Y0025831D01*
X0226623Y0025748D01*
X0226570Y0025666D01*
X0226514Y0025587D01*
X0226455Y0025510D01*
X0226393Y0025436D01*
X0226327Y0025364D01*
X0226259Y0025295D01*
X0226188Y0025229D01*
X0226115Y0025166D01*
X0226038Y0025106D01*
X0225960Y0025049D01*
X0225879Y0024996D01*
X0225796Y0024945D01*
X0225711Y0024899D01*
X0225624Y0024855D01*
X0225536Y0024816D01*
X0225446Y0024780D01*
X0225354Y0024748D01*
X0225261Y0024719D01*
X0225168Y0024695D01*
X0225073Y0024674D01*
X0224977Y0024657D01*
X0224881Y0024644D01*
X0224785Y0024635D01*
X0224688Y0024630D01*
X0224591Y0024629D01*
X0224494Y0024632D01*
X0224397Y0024639D01*
X0224301Y0024650D01*
X0224205Y0024665D01*
X0224110Y0024684D01*
X0224015Y0024706D01*
X0223922Y0024733D01*
X0223830Y0024763D01*
X0223739Y0024797D01*
X0223650Y0024835D01*
X0223562Y0024877D01*
X0223476Y0024922D01*
X0223392Y0024970D01*
X0223310Y0025022D01*
X0223231Y0025077D01*
X0223153Y0025136D01*
X0223078Y0025197D01*
X0223006Y0025262D01*
X0222936Y0025329D01*
X0222869Y0025400D01*
X0222806Y0025473D01*
X0222745Y0025548D01*
X0222687Y0025626D01*
X0222633Y0025707D01*
X0222582Y0025789D01*
X0222534Y0025874D01*
X0222490Y0025960D01*
X0222449Y0026048D01*
X0222413Y0026138D01*
X0222379Y0026229D01*
X0222350Y0026321D01*
X0222324Y0026415D01*
X0222303Y0026509D01*
X0222285Y0026605D01*
X0222271Y0026701D01*
X0222261Y0026797D01*
X0222255Y0026894D01*
X0222253Y0026991D01*
X0222253Y0017148D02*
X0222255Y0017245D01*
X0222261Y0017342D01*
X0222271Y0017438D01*
X0222285Y0017534D01*
X0222303Y0017630D01*
X0222324Y0017724D01*
X0222350Y0017818D01*
X0222379Y0017910D01*
X0222413Y0018001D01*
X0222449Y0018091D01*
X0222490Y0018179D01*
X0222534Y0018265D01*
X0222582Y0018350D01*
X0222633Y0018432D01*
X0222687Y0018513D01*
X0222745Y0018591D01*
X0222806Y0018666D01*
X0222869Y0018739D01*
X0222936Y0018810D01*
X0223006Y0018877D01*
X0223078Y0018942D01*
X0223153Y0019003D01*
X0223231Y0019062D01*
X0223310Y0019117D01*
X0223392Y0019169D01*
X0223476Y0019217D01*
X0223562Y0019262D01*
X0223650Y0019304D01*
X0223739Y0019342D01*
X0223830Y0019376D01*
X0223922Y0019406D01*
X0224015Y0019433D01*
X0224110Y0019455D01*
X0224205Y0019474D01*
X0224301Y0019489D01*
X0224397Y0019500D01*
X0224494Y0019507D01*
X0224591Y0019510D01*
X0224688Y0019509D01*
X0224785Y0019504D01*
X0224881Y0019495D01*
X0224977Y0019482D01*
X0225073Y0019465D01*
X0225168Y0019444D01*
X0225261Y0019420D01*
X0225354Y0019391D01*
X0225446Y0019359D01*
X0225536Y0019323D01*
X0225624Y0019284D01*
X0225711Y0019240D01*
X0225796Y0019194D01*
X0225879Y0019143D01*
X0225960Y0019090D01*
X0226038Y0019033D01*
X0226115Y0018973D01*
X0226188Y0018910D01*
X0226259Y0018844D01*
X0226327Y0018775D01*
X0226393Y0018703D01*
X0226455Y0018629D01*
X0226514Y0018552D01*
X0226570Y0018473D01*
X0226623Y0018391D01*
X0226673Y0018308D01*
X0226718Y0018222D01*
X0226761Y0018135D01*
X0226800Y0018046D01*
X0226835Y0017956D01*
X0226866Y0017864D01*
X0226893Y0017771D01*
X0226917Y0017677D01*
X0226937Y0017582D01*
X0226953Y0017486D01*
X0226965Y0017390D01*
X0226973Y0017293D01*
X0226977Y0017196D01*
X0226977Y0017100D01*
X0226973Y0017003D01*
X0226965Y0016906D01*
X0226953Y0016810D01*
X0226937Y0016714D01*
X0226917Y0016619D01*
X0226893Y0016525D01*
X0226866Y0016432D01*
X0226835Y0016340D01*
X0226800Y0016250D01*
X0226761Y0016161D01*
X0226718Y0016074D01*
X0226673Y0015988D01*
X0226623Y0015905D01*
X0226570Y0015823D01*
X0226514Y0015744D01*
X0226455Y0015667D01*
X0226393Y0015593D01*
X0226327Y0015521D01*
X0226259Y0015452D01*
X0226188Y0015386D01*
X0226115Y0015323D01*
X0226038Y0015263D01*
X0225960Y0015206D01*
X0225879Y0015153D01*
X0225796Y0015102D01*
X0225711Y0015056D01*
X0225624Y0015012D01*
X0225536Y0014973D01*
X0225446Y0014937D01*
X0225354Y0014905D01*
X0225261Y0014876D01*
X0225168Y0014852D01*
X0225073Y0014831D01*
X0224977Y0014814D01*
X0224881Y0014801D01*
X0224785Y0014792D01*
X0224688Y0014787D01*
X0224591Y0014786D01*
X0224494Y0014789D01*
X0224397Y0014796D01*
X0224301Y0014807D01*
X0224205Y0014822D01*
X0224110Y0014841D01*
X0224015Y0014863D01*
X0223922Y0014890D01*
X0223830Y0014920D01*
X0223739Y0014954D01*
X0223650Y0014992D01*
X0223562Y0015034D01*
X0223476Y0015079D01*
X0223392Y0015127D01*
X0223310Y0015179D01*
X0223231Y0015234D01*
X0223153Y0015293D01*
X0223078Y0015354D01*
X0223006Y0015419D01*
X0222936Y0015486D01*
X0222869Y0015557D01*
X0222806Y0015630D01*
X0222745Y0015705D01*
X0222687Y0015783D01*
X0222633Y0015864D01*
X0222582Y0015946D01*
X0222534Y0016031D01*
X0222490Y0016117D01*
X0222449Y0016205D01*
X0222413Y0016295D01*
X0222379Y0016386D01*
X0222350Y0016478D01*
X0222324Y0016572D01*
X0222303Y0016666D01*
X0222285Y0016762D01*
X0222271Y0016858D01*
X0222261Y0016954D01*
X0222255Y0017051D01*
X0222253Y0017148D01*
X0261623Y0017148D02*
X0261625Y0017245D01*
X0261631Y0017342D01*
X0261641Y0017438D01*
X0261655Y0017534D01*
X0261673Y0017630D01*
X0261694Y0017724D01*
X0261720Y0017818D01*
X0261749Y0017910D01*
X0261783Y0018001D01*
X0261819Y0018091D01*
X0261860Y0018179D01*
X0261904Y0018265D01*
X0261952Y0018350D01*
X0262003Y0018432D01*
X0262057Y0018513D01*
X0262115Y0018591D01*
X0262176Y0018666D01*
X0262239Y0018739D01*
X0262306Y0018810D01*
X0262376Y0018877D01*
X0262448Y0018942D01*
X0262523Y0019003D01*
X0262601Y0019062D01*
X0262680Y0019117D01*
X0262762Y0019169D01*
X0262846Y0019217D01*
X0262932Y0019262D01*
X0263020Y0019304D01*
X0263109Y0019342D01*
X0263200Y0019376D01*
X0263292Y0019406D01*
X0263385Y0019433D01*
X0263480Y0019455D01*
X0263575Y0019474D01*
X0263671Y0019489D01*
X0263767Y0019500D01*
X0263864Y0019507D01*
X0263961Y0019510D01*
X0264058Y0019509D01*
X0264155Y0019504D01*
X0264251Y0019495D01*
X0264347Y0019482D01*
X0264443Y0019465D01*
X0264538Y0019444D01*
X0264631Y0019420D01*
X0264724Y0019391D01*
X0264816Y0019359D01*
X0264906Y0019323D01*
X0264994Y0019284D01*
X0265081Y0019240D01*
X0265166Y0019194D01*
X0265249Y0019143D01*
X0265330Y0019090D01*
X0265408Y0019033D01*
X0265485Y0018973D01*
X0265558Y0018910D01*
X0265629Y0018844D01*
X0265697Y0018775D01*
X0265763Y0018703D01*
X0265825Y0018629D01*
X0265884Y0018552D01*
X0265940Y0018473D01*
X0265993Y0018391D01*
X0266043Y0018308D01*
X0266088Y0018222D01*
X0266131Y0018135D01*
X0266170Y0018046D01*
X0266205Y0017956D01*
X0266236Y0017864D01*
X0266263Y0017771D01*
X0266287Y0017677D01*
X0266307Y0017582D01*
X0266323Y0017486D01*
X0266335Y0017390D01*
X0266343Y0017293D01*
X0266347Y0017196D01*
X0266347Y0017100D01*
X0266343Y0017003D01*
X0266335Y0016906D01*
X0266323Y0016810D01*
X0266307Y0016714D01*
X0266287Y0016619D01*
X0266263Y0016525D01*
X0266236Y0016432D01*
X0266205Y0016340D01*
X0266170Y0016250D01*
X0266131Y0016161D01*
X0266088Y0016074D01*
X0266043Y0015988D01*
X0265993Y0015905D01*
X0265940Y0015823D01*
X0265884Y0015744D01*
X0265825Y0015667D01*
X0265763Y0015593D01*
X0265697Y0015521D01*
X0265629Y0015452D01*
X0265558Y0015386D01*
X0265485Y0015323D01*
X0265408Y0015263D01*
X0265330Y0015206D01*
X0265249Y0015153D01*
X0265166Y0015102D01*
X0265081Y0015056D01*
X0264994Y0015012D01*
X0264906Y0014973D01*
X0264816Y0014937D01*
X0264724Y0014905D01*
X0264631Y0014876D01*
X0264538Y0014852D01*
X0264443Y0014831D01*
X0264347Y0014814D01*
X0264251Y0014801D01*
X0264155Y0014792D01*
X0264058Y0014787D01*
X0263961Y0014786D01*
X0263864Y0014789D01*
X0263767Y0014796D01*
X0263671Y0014807D01*
X0263575Y0014822D01*
X0263480Y0014841D01*
X0263385Y0014863D01*
X0263292Y0014890D01*
X0263200Y0014920D01*
X0263109Y0014954D01*
X0263020Y0014992D01*
X0262932Y0015034D01*
X0262846Y0015079D01*
X0262762Y0015127D01*
X0262680Y0015179D01*
X0262601Y0015234D01*
X0262523Y0015293D01*
X0262448Y0015354D01*
X0262376Y0015419D01*
X0262306Y0015486D01*
X0262239Y0015557D01*
X0262176Y0015630D01*
X0262115Y0015705D01*
X0262057Y0015783D01*
X0262003Y0015864D01*
X0261952Y0015946D01*
X0261904Y0016031D01*
X0261860Y0016117D01*
X0261819Y0016205D01*
X0261783Y0016295D01*
X0261749Y0016386D01*
X0261720Y0016478D01*
X0261694Y0016572D01*
X0261673Y0016666D01*
X0261655Y0016762D01*
X0261641Y0016858D01*
X0261631Y0016954D01*
X0261625Y0017051D01*
X0261623Y0017148D01*
X0261623Y0026991D02*
X0261625Y0027088D01*
X0261631Y0027185D01*
X0261641Y0027281D01*
X0261655Y0027377D01*
X0261673Y0027473D01*
X0261694Y0027567D01*
X0261720Y0027661D01*
X0261749Y0027753D01*
X0261783Y0027844D01*
X0261819Y0027934D01*
X0261860Y0028022D01*
X0261904Y0028108D01*
X0261952Y0028193D01*
X0262003Y0028275D01*
X0262057Y0028356D01*
X0262115Y0028434D01*
X0262176Y0028509D01*
X0262239Y0028582D01*
X0262306Y0028653D01*
X0262376Y0028720D01*
X0262448Y0028785D01*
X0262523Y0028846D01*
X0262601Y0028905D01*
X0262680Y0028960D01*
X0262762Y0029012D01*
X0262846Y0029060D01*
X0262932Y0029105D01*
X0263020Y0029147D01*
X0263109Y0029185D01*
X0263200Y0029219D01*
X0263292Y0029249D01*
X0263385Y0029276D01*
X0263480Y0029298D01*
X0263575Y0029317D01*
X0263671Y0029332D01*
X0263767Y0029343D01*
X0263864Y0029350D01*
X0263961Y0029353D01*
X0264058Y0029352D01*
X0264155Y0029347D01*
X0264251Y0029338D01*
X0264347Y0029325D01*
X0264443Y0029308D01*
X0264538Y0029287D01*
X0264631Y0029263D01*
X0264724Y0029234D01*
X0264816Y0029202D01*
X0264906Y0029166D01*
X0264994Y0029127D01*
X0265081Y0029083D01*
X0265166Y0029037D01*
X0265249Y0028986D01*
X0265330Y0028933D01*
X0265408Y0028876D01*
X0265485Y0028816D01*
X0265558Y0028753D01*
X0265629Y0028687D01*
X0265697Y0028618D01*
X0265763Y0028546D01*
X0265825Y0028472D01*
X0265884Y0028395D01*
X0265940Y0028316D01*
X0265993Y0028234D01*
X0266043Y0028151D01*
X0266088Y0028065D01*
X0266131Y0027978D01*
X0266170Y0027889D01*
X0266205Y0027799D01*
X0266236Y0027707D01*
X0266263Y0027614D01*
X0266287Y0027520D01*
X0266307Y0027425D01*
X0266323Y0027329D01*
X0266335Y0027233D01*
X0266343Y0027136D01*
X0266347Y0027039D01*
X0266347Y0026943D01*
X0266343Y0026846D01*
X0266335Y0026749D01*
X0266323Y0026653D01*
X0266307Y0026557D01*
X0266287Y0026462D01*
X0266263Y0026368D01*
X0266236Y0026275D01*
X0266205Y0026183D01*
X0266170Y0026093D01*
X0266131Y0026004D01*
X0266088Y0025917D01*
X0266043Y0025831D01*
X0265993Y0025748D01*
X0265940Y0025666D01*
X0265884Y0025587D01*
X0265825Y0025510D01*
X0265763Y0025436D01*
X0265697Y0025364D01*
X0265629Y0025295D01*
X0265558Y0025229D01*
X0265485Y0025166D01*
X0265408Y0025106D01*
X0265330Y0025049D01*
X0265249Y0024996D01*
X0265166Y0024945D01*
X0265081Y0024899D01*
X0264994Y0024855D01*
X0264906Y0024816D01*
X0264816Y0024780D01*
X0264724Y0024748D01*
X0264631Y0024719D01*
X0264538Y0024695D01*
X0264443Y0024674D01*
X0264347Y0024657D01*
X0264251Y0024644D01*
X0264155Y0024635D01*
X0264058Y0024630D01*
X0263961Y0024629D01*
X0263864Y0024632D01*
X0263767Y0024639D01*
X0263671Y0024650D01*
X0263575Y0024665D01*
X0263480Y0024684D01*
X0263385Y0024706D01*
X0263292Y0024733D01*
X0263200Y0024763D01*
X0263109Y0024797D01*
X0263020Y0024835D01*
X0262932Y0024877D01*
X0262846Y0024922D01*
X0262762Y0024970D01*
X0262680Y0025022D01*
X0262601Y0025077D01*
X0262523Y0025136D01*
X0262448Y0025197D01*
X0262376Y0025262D01*
X0262306Y0025329D01*
X0262239Y0025400D01*
X0262176Y0025473D01*
X0262115Y0025548D01*
X0262057Y0025626D01*
X0262003Y0025707D01*
X0261952Y0025789D01*
X0261904Y0025874D01*
X0261860Y0025960D01*
X0261819Y0026048D01*
X0261783Y0026138D01*
X0261749Y0026229D01*
X0261720Y0026321D01*
X0261694Y0026415D01*
X0261673Y0026509D01*
X0261655Y0026605D01*
X0261641Y0026701D01*
X0261631Y0026797D01*
X0261625Y0026894D01*
X0261623Y0026991D01*
D11*
X0189990Y0095756D03*
X0183297Y0095756D03*
X0171318Y0095756D03*
X0164625Y0095756D03*
X0157334Y0095678D03*
X0150641Y0095678D03*
X0138584Y0095678D03*
X0131891Y0095678D03*
X0172047Y0151069D03*
X0178740Y0151069D03*
X0181240Y0168803D03*
X0174547Y0168803D03*
X0166318Y0168803D03*
X0159625Y0168803D03*
X0153896Y0168803D03*
X0147204Y0168803D03*
X0129521Y0175991D03*
X0122829Y0175991D03*
X0194938Y0168803D03*
X0201631Y0168803D03*
D12*
X0205237Y0155275D03*
X0205237Y0148582D03*
X0205159Y0140353D03*
X0205159Y0133660D03*
X0205003Y0126212D03*
X0205003Y0119519D03*
X0132034Y0113556D03*
X0132034Y0106863D03*
X0132034Y0127175D03*
X0132034Y0133868D03*
X0132113Y0139519D03*
X0132113Y0146212D03*
X0132113Y0151628D03*
X0132113Y0158321D03*
D13*
X0241334Y0199681D03*
X0251176Y0199681D03*
X0270861Y0199681D03*
X0280704Y0199681D03*
X0261019Y0219366D03*
X0263985Y0046676D03*
X0254143Y0046676D03*
X0234457Y0046676D03*
X0224615Y0046676D03*
X0244300Y0026991D03*
D14*
X0263985Y0026991D03*
X0263985Y0017148D03*
X0244300Y0046676D03*
X0224615Y0026991D03*
X0224615Y0017148D03*
X0261019Y0199681D03*
X0280704Y0219366D03*
X0280704Y0229208D03*
X0241334Y0229208D03*
X0241334Y0219366D03*
D15*
X0299334Y0170927D03*
X0310516Y0165454D03*
X0299334Y0160021D03*
X0310516Y0154549D03*
X0299334Y0149116D03*
X0310516Y0143682D03*
X0299334Y0138210D03*
X0310516Y0132777D03*
X0299334Y0127305D03*
D16*
X0304925Y0099903D03*
X0304925Y0198328D03*
D17*
X0094290Y0042866D03*
X0086810Y0042866D03*
X0138060Y0031616D03*
X0145540Y0031616D03*
D18*
X0161115Y0022896D02*
X0161115Y0018928D01*
X0166036Y0018928D02*
X0166036Y0022896D01*
X0170957Y0022896D02*
X0170957Y0018928D01*
X0175879Y0018928D02*
X0175879Y0022896D01*
X0180800Y0022896D02*
X0180800Y0018928D01*
X0185721Y0018928D02*
X0185721Y0022896D01*
X0190643Y0022896D02*
X0190643Y0018928D01*
X0195564Y0018928D02*
X0195564Y0022896D01*
X0200485Y0022896D02*
X0200485Y0018928D01*
X0228247Y0087653D02*
X0228247Y0091621D01*
X0233168Y0091621D02*
X0233168Y0087653D01*
X0238089Y0087653D02*
X0238089Y0091621D01*
X0243011Y0091621D02*
X0243011Y0087653D01*
X0247932Y0087653D02*
X0247932Y0091621D01*
X0252853Y0091621D02*
X0252853Y0087653D01*
D19*
X0273675Y0085991D03*
X0283675Y0085991D03*
X0283675Y0075991D03*
X0273675Y0075991D03*
X0126800Y0205366D03*
X0116800Y0205366D03*
X0106800Y0205366D03*
X0096800Y0205366D03*
X0086800Y0205366D03*
X0076800Y0205366D03*
X0066800Y0205366D03*
X0056800Y0205366D03*
X0046800Y0205366D03*
X0036800Y0205366D03*
X0026800Y0205366D03*
X0016800Y0205366D03*
X0011800Y0215366D03*
X0021800Y0215366D03*
X0031800Y0215366D03*
X0041800Y0215366D03*
X0051800Y0215366D03*
X0061800Y0215366D03*
X0071800Y0215366D03*
X0081800Y0215366D03*
X0091800Y0215366D03*
X0101800Y0215366D03*
X0111800Y0215366D03*
X0121800Y0215366D03*
X0116800Y0225366D03*
X0106800Y0225366D03*
X0096800Y0225366D03*
X0086800Y0225366D03*
X0076800Y0225366D03*
X0066800Y0225366D03*
X0056800Y0225366D03*
X0046800Y0225366D03*
X0036800Y0225366D03*
X0026800Y0225366D03*
X0016800Y0225366D03*
X0126800Y0225366D03*
X0055550Y0050366D03*
X0044925Y0050366D03*
X0044925Y0040366D03*
X0055550Y0040366D03*
D20*
X0101005Y0177875D02*
X0101645Y0178515D01*
X0101645Y0176395D01*
X0100146Y0174896D01*
X0098026Y0174896D01*
X0096527Y0176395D01*
X0096527Y0178515D01*
X0098026Y0180014D01*
X0100146Y0180014D01*
X0101645Y0178515D01*
X0100685Y0178118D01*
X0100685Y0176792D01*
X0099749Y0175856D01*
X0098423Y0175856D01*
X0097487Y0176792D01*
X0097487Y0178118D01*
X0098423Y0179054D01*
X0099749Y0179054D01*
X0100685Y0178118D01*
X0099725Y0177720D01*
X0099725Y0177190D01*
X0099351Y0176816D01*
X0098821Y0176816D01*
X0098447Y0177190D01*
X0098447Y0177720D01*
X0098821Y0178094D01*
X0099351Y0178094D01*
X0099725Y0177720D01*
X0093933Y0184946D02*
X0094573Y0185586D01*
X0094573Y0183466D01*
X0093074Y0181967D01*
X0090954Y0181967D01*
X0089455Y0183466D01*
X0089455Y0185586D01*
X0090954Y0187085D01*
X0093074Y0187085D01*
X0094573Y0185586D01*
X0093613Y0185189D01*
X0093613Y0183863D01*
X0092677Y0182927D01*
X0091351Y0182927D01*
X0090415Y0183863D01*
X0090415Y0185189D01*
X0091351Y0186125D01*
X0092677Y0186125D01*
X0093613Y0185189D01*
X0092653Y0184791D01*
X0092653Y0184261D01*
X0092279Y0183887D01*
X0091749Y0183887D01*
X0091375Y0184261D01*
X0091375Y0184791D01*
X0091749Y0185165D01*
X0092279Y0185165D01*
X0092653Y0184791D01*
D21*
X0307675Y0057966D03*
D22*
X0307675Y0066066D03*
X0297875Y0066066D03*
X0307675Y0047766D03*
X0307675Y0039666D03*
X0297875Y0039666D03*
D23*
X0319475Y0026266D03*
X0322675Y0052866D03*
X0319475Y0079466D03*
D24*
X0178362Y0124116D03*
X0178362Y0140616D03*
X0158363Y0140616D03*
X0158363Y0124116D03*
D25*
X0149925Y0217866D03*
X0169738Y0225267D03*
X0202612Y0225267D03*
D26*
X0014300Y0041522D03*
D27*
X0009800Y0052822D03*
X0009800Y0030222D03*
D28*
X0018200Y0033622D03*
X0018200Y0049422D03*
D29*
X0005925Y0087084D02*
X0005925Y0180084D01*
D30*
X0072925Y0171084D03*
X0072925Y0161084D03*
X0072925Y0151084D03*
X0072925Y0141084D03*
X0072925Y0131084D03*
X0072925Y0121084D03*
X0072925Y0111084D03*
X0072925Y0101084D03*
X0072925Y0095084D03*
X0072925Y0090084D03*
X0072925Y0085084D03*
D31*
X0064925Y0080084D03*
X0009925Y0080084D03*
X0064925Y0180084D03*
X0009925Y0187084D03*
D32*
X0060925Y0171084D03*
D33*
X0060925Y0088084D03*
D34*
X0186175Y0195149D03*
X0186175Y0212866D03*
M02*
