G75*
G70*
%OFA0B0*%
%FSLAX24Y24*%
%IPPOS*%
%LPD*%
%AMOC8*
5,1,8,0,0,1.08239X$1,22.5*
%
%ADD10C,0.0000*%
%ADD11C,0.0080*%
%ADD12C,0.0040*%
%ADD13C,0.0060*%
%ADD14C,0.0070*%
%ADD15C,0.0050*%
%ADD16R,0.7300X0.0300*%
%ADD17R,1.2200X0.0200*%
%ADD18R,0.0320X0.2850*%
%ADD19R,0.0320X0.1850*%
%ADD20R,0.0900X0.0250*%
%ADD21C,0.0300*%
%ADD22R,0.0200X0.0300*%
%ADD23R,0.0400X0.0300*%
%ADD24R,0.0300X0.0300*%
%ADD25R,0.0167X0.0128*%
%ADD26R,0.0138X0.0138*%
%ADD27R,0.0128X0.0167*%
%ADD28C,0.0200*%
%ADD29C,0.0240*%
D10*
X003956Y001445D02*
X003958Y001499D01*
X003964Y001553D01*
X003974Y001606D01*
X003987Y001659D01*
X004004Y001710D01*
X004025Y001760D01*
X004050Y001808D01*
X004078Y001855D01*
X004109Y001899D01*
X004143Y001941D01*
X004180Y001980D01*
X004220Y002017D01*
X004263Y002050D01*
X004308Y002081D01*
X004355Y002108D01*
X004403Y002131D01*
X004454Y002151D01*
X004505Y002168D01*
X004558Y002180D01*
X004611Y002189D01*
X004665Y002194D01*
X004720Y002195D01*
X004774Y002192D01*
X004827Y002185D01*
X004880Y002174D01*
X004933Y002160D01*
X004984Y002142D01*
X005033Y002120D01*
X005081Y002095D01*
X005127Y002066D01*
X005171Y002034D01*
X005212Y001999D01*
X005250Y001961D01*
X005286Y001920D01*
X005319Y001877D01*
X005349Y001832D01*
X005375Y001784D01*
X005398Y001735D01*
X005417Y001684D01*
X005432Y001633D01*
X005444Y001580D01*
X005452Y001526D01*
X005456Y001472D01*
X005456Y001418D01*
X005452Y001364D01*
X005444Y001310D01*
X005432Y001257D01*
X005417Y001206D01*
X005398Y001155D01*
X005375Y001106D01*
X005349Y001058D01*
X005319Y001013D01*
X005286Y000970D01*
X005250Y000929D01*
X005212Y000891D01*
X005171Y000856D01*
X005127Y000824D01*
X005081Y000795D01*
X005033Y000770D01*
X004984Y000748D01*
X004933Y000730D01*
X004880Y000716D01*
X004827Y000705D01*
X004774Y000698D01*
X004720Y000695D01*
X004665Y000696D01*
X004611Y000701D01*
X004558Y000710D01*
X004505Y000722D01*
X004454Y000739D01*
X004403Y000759D01*
X004355Y000782D01*
X004308Y000809D01*
X004263Y000840D01*
X004220Y000873D01*
X004180Y000910D01*
X004143Y000949D01*
X004109Y000991D01*
X004078Y001035D01*
X004050Y001082D01*
X004025Y001130D01*
X004004Y001180D01*
X003987Y001231D01*
X003974Y001284D01*
X003964Y001337D01*
X003958Y001391D01*
X003956Y001445D01*
X004706Y001445D02*
X004706Y032315D01*
X003956Y032315D02*
X003958Y032369D01*
X003964Y032423D01*
X003974Y032476D01*
X003987Y032529D01*
X004004Y032580D01*
X004025Y032630D01*
X004050Y032678D01*
X004078Y032725D01*
X004109Y032769D01*
X004143Y032811D01*
X004180Y032850D01*
X004220Y032887D01*
X004263Y032920D01*
X004308Y032951D01*
X004355Y032978D01*
X004403Y033001D01*
X004454Y033021D01*
X004505Y033038D01*
X004558Y033050D01*
X004611Y033059D01*
X004665Y033064D01*
X004720Y033065D01*
X004774Y033062D01*
X004827Y033055D01*
X004880Y033044D01*
X004933Y033030D01*
X004984Y033012D01*
X005033Y032990D01*
X005081Y032965D01*
X005127Y032936D01*
X005171Y032904D01*
X005212Y032869D01*
X005250Y032831D01*
X005286Y032790D01*
X005319Y032747D01*
X005349Y032702D01*
X005375Y032654D01*
X005398Y032605D01*
X005417Y032554D01*
X005432Y032503D01*
X005444Y032450D01*
X005452Y032396D01*
X005456Y032342D01*
X005456Y032288D01*
X005452Y032234D01*
X005444Y032180D01*
X005432Y032127D01*
X005417Y032076D01*
X005398Y032025D01*
X005375Y031976D01*
X005349Y031928D01*
X005319Y031883D01*
X005286Y031840D01*
X005250Y031799D01*
X005212Y031761D01*
X005171Y031726D01*
X005127Y031694D01*
X005081Y031665D01*
X005033Y031640D01*
X004984Y031618D01*
X004933Y031600D01*
X004880Y031586D01*
X004827Y031575D01*
X004774Y031568D01*
X004720Y031565D01*
X004665Y031566D01*
X004611Y031571D01*
X004558Y031580D01*
X004505Y031592D01*
X004454Y031609D01*
X004403Y031629D01*
X004355Y031652D01*
X004308Y031679D01*
X004263Y031710D01*
X004220Y031743D01*
X004180Y031780D01*
X004143Y031819D01*
X004109Y031861D01*
X004078Y031905D01*
X004050Y031952D01*
X004025Y032000D01*
X004004Y032050D01*
X003987Y032101D01*
X003974Y032154D01*
X003964Y032207D01*
X003958Y032261D01*
X003956Y032315D01*
X004706Y032315D02*
X054948Y032315D01*
X054948Y001445D01*
X004706Y001445D01*
X004858Y003061D02*
X004858Y006329D01*
X005240Y027075D02*
X005242Y027105D01*
X005248Y027135D01*
X005257Y027164D01*
X005270Y027191D01*
X005287Y027216D01*
X005306Y027239D01*
X005329Y027260D01*
X005354Y027277D01*
X005380Y027291D01*
X005409Y027301D01*
X005438Y027308D01*
X005468Y027311D01*
X005499Y027310D01*
X005529Y027305D01*
X005558Y027296D01*
X005585Y027284D01*
X005611Y027269D01*
X005635Y027250D01*
X005656Y027228D01*
X005674Y027204D01*
X005689Y027177D01*
X005700Y027149D01*
X005708Y027120D01*
X005712Y027090D01*
X005712Y027060D01*
X005708Y027030D01*
X005700Y027001D01*
X005689Y026973D01*
X005674Y026946D01*
X005656Y026922D01*
X005635Y026900D01*
X005611Y026881D01*
X005585Y026866D01*
X005558Y026854D01*
X005529Y026845D01*
X005499Y026840D01*
X005468Y026839D01*
X005438Y026842D01*
X005409Y026849D01*
X005380Y026859D01*
X005354Y026873D01*
X005329Y026890D01*
X005306Y026911D01*
X005287Y026934D01*
X005270Y026959D01*
X005257Y026986D01*
X005248Y027015D01*
X005242Y027045D01*
X005240Y027075D01*
X006220Y027075D02*
X006222Y027105D01*
X006228Y027135D01*
X006237Y027164D01*
X006250Y027191D01*
X006267Y027216D01*
X006286Y027239D01*
X006309Y027260D01*
X006334Y027277D01*
X006360Y027291D01*
X006389Y027301D01*
X006418Y027308D01*
X006448Y027311D01*
X006479Y027310D01*
X006509Y027305D01*
X006538Y027296D01*
X006565Y027284D01*
X006591Y027269D01*
X006615Y027250D01*
X006636Y027228D01*
X006654Y027204D01*
X006669Y027177D01*
X006680Y027149D01*
X006688Y027120D01*
X006692Y027090D01*
X006692Y027060D01*
X006688Y027030D01*
X006680Y027001D01*
X006669Y026973D01*
X006654Y026946D01*
X006636Y026922D01*
X006615Y026900D01*
X006591Y026881D01*
X006565Y026866D01*
X006538Y026854D01*
X006509Y026845D01*
X006479Y026840D01*
X006448Y026839D01*
X006418Y026842D01*
X006389Y026849D01*
X006360Y026859D01*
X006334Y026873D01*
X006309Y026890D01*
X006286Y026911D01*
X006267Y026934D01*
X006250Y026959D01*
X006237Y026986D01*
X006228Y027015D01*
X006222Y027045D01*
X006220Y027075D01*
X008190Y029045D02*
X008192Y029075D01*
X008198Y029105D01*
X008207Y029134D01*
X008220Y029161D01*
X008237Y029186D01*
X008256Y029209D01*
X008279Y029230D01*
X008304Y029247D01*
X008330Y029261D01*
X008359Y029271D01*
X008388Y029278D01*
X008418Y029281D01*
X008449Y029280D01*
X008479Y029275D01*
X008508Y029266D01*
X008535Y029254D01*
X008561Y029239D01*
X008585Y029220D01*
X008606Y029198D01*
X008624Y029174D01*
X008639Y029147D01*
X008650Y029119D01*
X008658Y029090D01*
X008662Y029060D01*
X008662Y029030D01*
X008658Y029000D01*
X008650Y028971D01*
X008639Y028943D01*
X008624Y028916D01*
X008606Y028892D01*
X008585Y028870D01*
X008561Y028851D01*
X008535Y028836D01*
X008508Y028824D01*
X008479Y028815D01*
X008449Y028810D01*
X008418Y028809D01*
X008388Y028812D01*
X008359Y028819D01*
X008330Y028829D01*
X008304Y028843D01*
X008279Y028860D01*
X008256Y028881D01*
X008237Y028904D01*
X008220Y028929D01*
X008207Y028956D01*
X008198Y028985D01*
X008192Y029015D01*
X008190Y029045D01*
X006220Y031015D02*
X006222Y031045D01*
X006228Y031075D01*
X006237Y031104D01*
X006250Y031131D01*
X006267Y031156D01*
X006286Y031179D01*
X006309Y031200D01*
X006334Y031217D01*
X006360Y031231D01*
X006389Y031241D01*
X006418Y031248D01*
X006448Y031251D01*
X006479Y031250D01*
X006509Y031245D01*
X006538Y031236D01*
X006565Y031224D01*
X006591Y031209D01*
X006615Y031190D01*
X006636Y031168D01*
X006654Y031144D01*
X006669Y031117D01*
X006680Y031089D01*
X006688Y031060D01*
X006692Y031030D01*
X006692Y031000D01*
X006688Y030970D01*
X006680Y030941D01*
X006669Y030913D01*
X006654Y030886D01*
X006636Y030862D01*
X006615Y030840D01*
X006591Y030821D01*
X006565Y030806D01*
X006538Y030794D01*
X006509Y030785D01*
X006479Y030780D01*
X006448Y030779D01*
X006418Y030782D01*
X006389Y030789D01*
X006360Y030799D01*
X006334Y030813D01*
X006309Y030830D01*
X006286Y030851D01*
X006267Y030874D01*
X006250Y030899D01*
X006237Y030926D01*
X006228Y030955D01*
X006222Y030985D01*
X006220Y031015D01*
X005240Y031015D02*
X005242Y031045D01*
X005248Y031075D01*
X005257Y031104D01*
X005270Y031131D01*
X005287Y031156D01*
X005306Y031179D01*
X005329Y031200D01*
X005354Y031217D01*
X005380Y031231D01*
X005409Y031241D01*
X005438Y031248D01*
X005468Y031251D01*
X005499Y031250D01*
X005529Y031245D01*
X005558Y031236D01*
X005585Y031224D01*
X005611Y031209D01*
X005635Y031190D01*
X005656Y031168D01*
X005674Y031144D01*
X005689Y031117D01*
X005700Y031089D01*
X005708Y031060D01*
X005712Y031030D01*
X005712Y031000D01*
X005708Y030970D01*
X005700Y030941D01*
X005689Y030913D01*
X005674Y030886D01*
X005656Y030862D01*
X005635Y030840D01*
X005611Y030821D01*
X005585Y030806D01*
X005558Y030794D01*
X005529Y030785D01*
X005499Y030780D01*
X005468Y030779D01*
X005438Y030782D01*
X005409Y030789D01*
X005380Y030799D01*
X005354Y030813D01*
X005329Y030830D01*
X005306Y030851D01*
X005287Y030874D01*
X005270Y030899D01*
X005257Y030926D01*
X005248Y030955D01*
X005242Y030985D01*
X005240Y031015D01*
X043126Y027895D02*
X043128Y027945D01*
X043134Y027995D01*
X043144Y028045D01*
X043157Y028093D01*
X043174Y028141D01*
X043195Y028187D01*
X043219Y028231D01*
X043247Y028273D01*
X043278Y028313D01*
X043312Y028350D01*
X043349Y028385D01*
X043388Y028416D01*
X043429Y028445D01*
X043473Y028470D01*
X043519Y028492D01*
X043566Y028510D01*
X043614Y028524D01*
X043663Y028535D01*
X043713Y028542D01*
X043763Y028545D01*
X043814Y028544D01*
X043864Y028539D01*
X043914Y028530D01*
X043962Y028518D01*
X044010Y028501D01*
X044056Y028481D01*
X044101Y028458D01*
X044144Y028431D01*
X044184Y028401D01*
X044222Y028368D01*
X044257Y028332D01*
X044290Y028293D01*
X044319Y028252D01*
X044345Y028209D01*
X044368Y028164D01*
X044387Y028117D01*
X044402Y028069D01*
X044414Y028020D01*
X044422Y027970D01*
X044426Y027920D01*
X044426Y027870D01*
X044422Y027820D01*
X044414Y027770D01*
X044402Y027721D01*
X044387Y027673D01*
X044368Y027626D01*
X044345Y027581D01*
X044319Y027538D01*
X044290Y027497D01*
X044257Y027458D01*
X044222Y027422D01*
X044184Y027389D01*
X044144Y027359D01*
X044101Y027332D01*
X044056Y027309D01*
X044010Y027289D01*
X043962Y027272D01*
X043914Y027260D01*
X043864Y027251D01*
X043814Y027246D01*
X043763Y027245D01*
X043713Y027248D01*
X043663Y027255D01*
X043614Y027266D01*
X043566Y027280D01*
X043519Y027298D01*
X043473Y027320D01*
X043429Y027345D01*
X043388Y027374D01*
X043349Y027405D01*
X043312Y027440D01*
X043278Y027477D01*
X043247Y027517D01*
X043219Y027559D01*
X043195Y027603D01*
X043174Y027649D01*
X043157Y027697D01*
X043144Y027745D01*
X043134Y027795D01*
X043128Y027845D01*
X043126Y027895D01*
X052986Y027895D02*
X052988Y027945D01*
X052994Y027995D01*
X053004Y028045D01*
X053017Y028093D01*
X053034Y028141D01*
X053055Y028187D01*
X053079Y028231D01*
X053107Y028273D01*
X053138Y028313D01*
X053172Y028350D01*
X053209Y028385D01*
X053248Y028416D01*
X053289Y028445D01*
X053333Y028470D01*
X053379Y028492D01*
X053426Y028510D01*
X053474Y028524D01*
X053523Y028535D01*
X053573Y028542D01*
X053623Y028545D01*
X053674Y028544D01*
X053724Y028539D01*
X053774Y028530D01*
X053822Y028518D01*
X053870Y028501D01*
X053916Y028481D01*
X053961Y028458D01*
X054004Y028431D01*
X054044Y028401D01*
X054082Y028368D01*
X054117Y028332D01*
X054150Y028293D01*
X054179Y028252D01*
X054205Y028209D01*
X054228Y028164D01*
X054247Y028117D01*
X054262Y028069D01*
X054274Y028020D01*
X054282Y027970D01*
X054286Y027920D01*
X054286Y027870D01*
X054282Y027820D01*
X054274Y027770D01*
X054262Y027721D01*
X054247Y027673D01*
X054228Y027626D01*
X054205Y027581D01*
X054179Y027538D01*
X054150Y027497D01*
X054117Y027458D01*
X054082Y027422D01*
X054044Y027389D01*
X054004Y027359D01*
X053961Y027332D01*
X053916Y027309D01*
X053870Y027289D01*
X053822Y027272D01*
X053774Y027260D01*
X053724Y027251D01*
X053674Y027246D01*
X053623Y027245D01*
X053573Y027248D01*
X053523Y027255D01*
X053474Y027266D01*
X053426Y027280D01*
X053379Y027298D01*
X053333Y027320D01*
X053289Y027345D01*
X053248Y027374D01*
X053209Y027405D01*
X053172Y027440D01*
X053138Y027477D01*
X053107Y027517D01*
X053079Y027559D01*
X053055Y027603D01*
X053034Y027649D01*
X053017Y027697D01*
X053004Y027745D01*
X052994Y027795D01*
X052988Y027845D01*
X052986Y027895D01*
X054196Y032315D02*
X054198Y032369D01*
X054204Y032423D01*
X054214Y032476D01*
X054227Y032529D01*
X054244Y032580D01*
X054265Y032630D01*
X054290Y032678D01*
X054318Y032725D01*
X054349Y032769D01*
X054383Y032811D01*
X054420Y032850D01*
X054460Y032887D01*
X054503Y032920D01*
X054548Y032951D01*
X054595Y032978D01*
X054643Y033001D01*
X054694Y033021D01*
X054745Y033038D01*
X054798Y033050D01*
X054851Y033059D01*
X054905Y033064D01*
X054960Y033065D01*
X055014Y033062D01*
X055067Y033055D01*
X055120Y033044D01*
X055173Y033030D01*
X055224Y033012D01*
X055273Y032990D01*
X055321Y032965D01*
X055367Y032936D01*
X055411Y032904D01*
X055452Y032869D01*
X055490Y032831D01*
X055526Y032790D01*
X055559Y032747D01*
X055589Y032702D01*
X055615Y032654D01*
X055638Y032605D01*
X055657Y032554D01*
X055672Y032503D01*
X055684Y032450D01*
X055692Y032396D01*
X055696Y032342D01*
X055696Y032288D01*
X055692Y032234D01*
X055684Y032180D01*
X055672Y032127D01*
X055657Y032076D01*
X055638Y032025D01*
X055615Y031976D01*
X055589Y031928D01*
X055559Y031883D01*
X055526Y031840D01*
X055490Y031799D01*
X055452Y031761D01*
X055411Y031726D01*
X055367Y031694D01*
X055321Y031665D01*
X055273Y031640D01*
X055224Y031618D01*
X055173Y031600D01*
X055120Y031586D01*
X055067Y031575D01*
X055014Y031568D01*
X054960Y031565D01*
X054905Y031566D01*
X054851Y031571D01*
X054798Y031580D01*
X054745Y031592D01*
X054694Y031609D01*
X054643Y031629D01*
X054595Y031652D01*
X054548Y031679D01*
X054503Y031710D01*
X054460Y031743D01*
X054420Y031780D01*
X054383Y031819D01*
X054349Y031861D01*
X054318Y031905D01*
X054290Y031952D01*
X054265Y032000D01*
X054244Y032050D01*
X054227Y032101D01*
X054214Y032154D01*
X054204Y032207D01*
X054198Y032261D01*
X054196Y032315D01*
X043420Y005165D02*
X043422Y005195D01*
X043428Y005225D01*
X043437Y005254D01*
X043450Y005281D01*
X043467Y005306D01*
X043486Y005329D01*
X043509Y005350D01*
X043534Y005367D01*
X043560Y005381D01*
X043589Y005391D01*
X043618Y005398D01*
X043648Y005401D01*
X043679Y005400D01*
X043709Y005395D01*
X043738Y005386D01*
X043765Y005374D01*
X043791Y005359D01*
X043815Y005340D01*
X043836Y005318D01*
X043854Y005294D01*
X043869Y005267D01*
X043880Y005239D01*
X043888Y005210D01*
X043892Y005180D01*
X043892Y005150D01*
X043888Y005120D01*
X043880Y005091D01*
X043869Y005063D01*
X043854Y005036D01*
X043836Y005012D01*
X043815Y004990D01*
X043791Y004971D01*
X043765Y004956D01*
X043738Y004944D01*
X043709Y004935D01*
X043679Y004930D01*
X043648Y004929D01*
X043618Y004932D01*
X043589Y004939D01*
X043560Y004949D01*
X043534Y004963D01*
X043509Y004980D01*
X043486Y005001D01*
X043467Y005024D01*
X043450Y005049D01*
X043437Y005076D01*
X043428Y005105D01*
X043422Y005135D01*
X043420Y005165D01*
X041450Y003195D02*
X041452Y003225D01*
X041458Y003255D01*
X041467Y003284D01*
X041480Y003311D01*
X041497Y003336D01*
X041516Y003359D01*
X041539Y003380D01*
X041564Y003397D01*
X041590Y003411D01*
X041619Y003421D01*
X041648Y003428D01*
X041678Y003431D01*
X041709Y003430D01*
X041739Y003425D01*
X041768Y003416D01*
X041795Y003404D01*
X041821Y003389D01*
X041845Y003370D01*
X041866Y003348D01*
X041884Y003324D01*
X041899Y003297D01*
X041910Y003269D01*
X041918Y003240D01*
X041922Y003210D01*
X041922Y003180D01*
X041918Y003150D01*
X041910Y003121D01*
X041899Y003093D01*
X041884Y003066D01*
X041866Y003042D01*
X041845Y003020D01*
X041821Y003001D01*
X041795Y002986D01*
X041768Y002974D01*
X041739Y002965D01*
X041709Y002960D01*
X041678Y002959D01*
X041648Y002962D01*
X041619Y002969D01*
X041590Y002979D01*
X041564Y002993D01*
X041539Y003010D01*
X041516Y003031D01*
X041497Y003054D01*
X041480Y003079D01*
X041467Y003106D01*
X041458Y003135D01*
X041452Y003165D01*
X041450Y003195D01*
X041450Y002215D02*
X041452Y002245D01*
X041458Y002275D01*
X041467Y002304D01*
X041480Y002331D01*
X041497Y002356D01*
X041516Y002379D01*
X041539Y002400D01*
X041564Y002417D01*
X041590Y002431D01*
X041619Y002441D01*
X041648Y002448D01*
X041678Y002451D01*
X041709Y002450D01*
X041739Y002445D01*
X041768Y002436D01*
X041795Y002424D01*
X041821Y002409D01*
X041845Y002390D01*
X041866Y002368D01*
X041884Y002344D01*
X041899Y002317D01*
X041910Y002289D01*
X041918Y002260D01*
X041922Y002230D01*
X041922Y002200D01*
X041918Y002170D01*
X041910Y002141D01*
X041899Y002113D01*
X041884Y002086D01*
X041866Y002062D01*
X041845Y002040D01*
X041821Y002021D01*
X041795Y002006D01*
X041768Y001994D01*
X041739Y001985D01*
X041709Y001980D01*
X041678Y001979D01*
X041648Y001982D01*
X041619Y001989D01*
X041590Y001999D01*
X041564Y002013D01*
X041539Y002030D01*
X041516Y002051D01*
X041497Y002074D01*
X041480Y002099D01*
X041467Y002126D01*
X041458Y002155D01*
X041452Y002185D01*
X041450Y002215D01*
X045390Y002215D02*
X045392Y002245D01*
X045398Y002275D01*
X045407Y002304D01*
X045420Y002331D01*
X045437Y002356D01*
X045456Y002379D01*
X045479Y002400D01*
X045504Y002417D01*
X045530Y002431D01*
X045559Y002441D01*
X045588Y002448D01*
X045618Y002451D01*
X045649Y002450D01*
X045679Y002445D01*
X045708Y002436D01*
X045735Y002424D01*
X045761Y002409D01*
X045785Y002390D01*
X045806Y002368D01*
X045824Y002344D01*
X045839Y002317D01*
X045850Y002289D01*
X045858Y002260D01*
X045862Y002230D01*
X045862Y002200D01*
X045858Y002170D01*
X045850Y002141D01*
X045839Y002113D01*
X045824Y002086D01*
X045806Y002062D01*
X045785Y002040D01*
X045761Y002021D01*
X045735Y002006D01*
X045708Y001994D01*
X045679Y001985D01*
X045649Y001980D01*
X045618Y001979D01*
X045588Y001982D01*
X045559Y001989D01*
X045530Y001999D01*
X045504Y002013D01*
X045479Y002030D01*
X045456Y002051D01*
X045437Y002074D01*
X045420Y002099D01*
X045407Y002126D01*
X045398Y002155D01*
X045392Y002185D01*
X045390Y002215D01*
X045390Y003195D02*
X045392Y003225D01*
X045398Y003255D01*
X045407Y003284D01*
X045420Y003311D01*
X045437Y003336D01*
X045456Y003359D01*
X045479Y003380D01*
X045504Y003397D01*
X045530Y003411D01*
X045559Y003421D01*
X045588Y003428D01*
X045618Y003431D01*
X045649Y003430D01*
X045679Y003425D01*
X045708Y003416D01*
X045735Y003404D01*
X045761Y003389D01*
X045785Y003370D01*
X045806Y003348D01*
X045824Y003324D01*
X045839Y003297D01*
X045850Y003269D01*
X045858Y003240D01*
X045862Y003210D01*
X045862Y003180D01*
X045858Y003150D01*
X045850Y003121D01*
X045839Y003093D01*
X045824Y003066D01*
X045806Y003042D01*
X045785Y003020D01*
X045761Y003001D01*
X045735Y002986D01*
X045708Y002974D01*
X045679Y002965D01*
X045649Y002960D01*
X045618Y002959D01*
X045588Y002962D01*
X045559Y002969D01*
X045530Y002979D01*
X045504Y002993D01*
X045479Y003010D01*
X045456Y003031D01*
X045437Y003054D01*
X045420Y003079D01*
X045407Y003106D01*
X045398Y003135D01*
X045392Y003165D01*
X045390Y003195D01*
X051723Y003596D02*
X051725Y003637D01*
X051731Y003678D01*
X051741Y003718D01*
X051754Y003757D01*
X051771Y003794D01*
X051792Y003830D01*
X051816Y003864D01*
X051843Y003895D01*
X051872Y003923D01*
X051905Y003949D01*
X051939Y003971D01*
X051976Y003990D01*
X052014Y004005D01*
X052054Y004017D01*
X052094Y004025D01*
X052135Y004029D01*
X052177Y004029D01*
X052218Y004025D01*
X052258Y004017D01*
X052298Y004005D01*
X052336Y003990D01*
X052372Y003971D01*
X052407Y003949D01*
X052440Y003923D01*
X052469Y003895D01*
X052496Y003864D01*
X052520Y003830D01*
X052541Y003794D01*
X052558Y003757D01*
X052571Y003718D01*
X052581Y003678D01*
X052587Y003637D01*
X052589Y003596D01*
X052587Y003555D01*
X052581Y003514D01*
X052571Y003474D01*
X052558Y003435D01*
X052541Y003398D01*
X052520Y003362D01*
X052496Y003328D01*
X052469Y003297D01*
X052440Y003269D01*
X052407Y003243D01*
X052373Y003221D01*
X052336Y003202D01*
X052298Y003187D01*
X052258Y003175D01*
X052218Y003167D01*
X052177Y003163D01*
X052135Y003163D01*
X052094Y003167D01*
X052054Y003175D01*
X052014Y003187D01*
X051976Y003202D01*
X051940Y003221D01*
X051905Y003243D01*
X051872Y003269D01*
X051843Y003297D01*
X051816Y003328D01*
X051792Y003362D01*
X051771Y003398D01*
X051754Y003435D01*
X051741Y003474D01*
X051731Y003514D01*
X051725Y003555D01*
X051723Y003596D01*
X054196Y001445D02*
X054198Y001499D01*
X054204Y001553D01*
X054214Y001606D01*
X054227Y001659D01*
X054244Y001710D01*
X054265Y001760D01*
X054290Y001808D01*
X054318Y001855D01*
X054349Y001899D01*
X054383Y001941D01*
X054420Y001980D01*
X054460Y002017D01*
X054503Y002050D01*
X054548Y002081D01*
X054595Y002108D01*
X054643Y002131D01*
X054694Y002151D01*
X054745Y002168D01*
X054798Y002180D01*
X054851Y002189D01*
X054905Y002194D01*
X054960Y002195D01*
X055014Y002192D01*
X055067Y002185D01*
X055120Y002174D01*
X055173Y002160D01*
X055224Y002142D01*
X055273Y002120D01*
X055321Y002095D01*
X055367Y002066D01*
X055411Y002034D01*
X055452Y001999D01*
X055490Y001961D01*
X055526Y001920D01*
X055559Y001877D01*
X055589Y001832D01*
X055615Y001784D01*
X055638Y001735D01*
X055657Y001684D01*
X055672Y001633D01*
X055684Y001580D01*
X055692Y001526D01*
X055696Y001472D01*
X055696Y001418D01*
X055692Y001364D01*
X055684Y001310D01*
X055672Y001257D01*
X055657Y001206D01*
X055638Y001155D01*
X055615Y001106D01*
X055589Y001058D01*
X055559Y001013D01*
X055526Y000970D01*
X055490Y000929D01*
X055452Y000891D01*
X055411Y000856D01*
X055367Y000824D01*
X055321Y000795D01*
X055273Y000770D01*
X055224Y000748D01*
X055173Y000730D01*
X055120Y000716D01*
X055067Y000705D01*
X055014Y000698D01*
X054960Y000695D01*
X054905Y000696D01*
X054851Y000701D01*
X054798Y000710D01*
X054745Y000722D01*
X054694Y000739D01*
X054643Y000759D01*
X054595Y000782D01*
X054548Y000809D01*
X054503Y000840D01*
X054460Y000873D01*
X054420Y000910D01*
X054383Y000949D01*
X054349Y000991D01*
X054318Y001035D01*
X054290Y001082D01*
X054265Y001130D01*
X054244Y001180D01*
X054227Y001231D01*
X054214Y001284D01*
X054204Y001337D01*
X054198Y001391D01*
X054196Y001445D01*
D11*
X055109Y001385D02*
X055109Y006424D01*
X049204Y006424D01*
X049204Y001385D01*
X055109Y001385D01*
X028242Y010497D02*
X028242Y011187D01*
X027442Y011787D02*
X026364Y011787D01*
X025564Y011187D02*
X025564Y010497D01*
X026364Y009897D02*
X027442Y009897D01*
D12*
X028423Y010481D02*
X028806Y010481D01*
X028883Y010557D01*
X028883Y010711D01*
X028806Y010788D01*
X028423Y010788D01*
X028499Y010941D02*
X028423Y011018D01*
X028423Y011171D01*
X028499Y011248D01*
X028576Y011401D02*
X028423Y011555D01*
X028883Y011555D01*
X028883Y011708D02*
X028883Y011401D01*
X028806Y011248D02*
X028730Y011248D01*
X028653Y011171D01*
X028653Y011018D01*
X028576Y010941D01*
X028499Y010941D01*
X028346Y011094D02*
X028960Y011094D01*
X028883Y011018D02*
X028883Y011171D01*
X028806Y011248D01*
X028883Y011018D02*
X028806Y010941D01*
X022961Y011231D02*
X022885Y011155D01*
X022578Y011155D01*
X022501Y011231D01*
X022501Y011385D01*
X022578Y011462D01*
X022578Y011615D02*
X022501Y011692D01*
X022501Y011845D01*
X022578Y011922D01*
X022655Y011922D01*
X022961Y011615D01*
X022961Y011922D01*
X022885Y012075D02*
X022808Y012075D01*
X022731Y012152D01*
X022731Y012306D01*
X022808Y012382D01*
X022885Y012382D01*
X022961Y012306D01*
X022961Y012152D01*
X022885Y012075D01*
X022731Y012152D02*
X022655Y012075D01*
X022578Y012075D01*
X022501Y012152D01*
X022501Y012306D01*
X022578Y012382D01*
X022655Y012382D01*
X022731Y012306D01*
X022885Y011462D02*
X022961Y011385D01*
X022961Y011231D01*
X012466Y016218D02*
X012466Y016294D01*
X012389Y016371D01*
X012005Y016371D01*
X012005Y016294D02*
X012005Y016448D01*
X012082Y016601D02*
X012005Y016678D01*
X012005Y016832D01*
X012082Y016908D01*
X012159Y016908D01*
X012466Y016601D01*
X012466Y016908D01*
X012466Y016218D02*
X012389Y016141D01*
X015194Y024145D02*
X015194Y024375D01*
X015271Y024452D01*
X015424Y024452D01*
X015501Y024375D01*
X015501Y024145D01*
X015654Y024145D02*
X015194Y024145D01*
X015501Y024299D02*
X015654Y024452D01*
X015654Y024605D02*
X015347Y024912D01*
X015271Y024912D01*
X015194Y024836D01*
X015194Y024682D01*
X015271Y024605D01*
X015654Y024605D02*
X015654Y024912D01*
X015424Y025066D02*
X015424Y025373D01*
X015194Y025296D02*
X015424Y025066D01*
X015654Y025296D02*
X015194Y025296D01*
X042226Y012866D02*
X042303Y012943D01*
X042379Y012943D01*
X042456Y012866D01*
X042533Y012943D01*
X042610Y012943D01*
X042686Y012866D01*
X042686Y012713D01*
X042610Y012636D01*
X042610Y012483D02*
X042686Y012406D01*
X042686Y012252D01*
X042610Y012176D01*
X042726Y012064D02*
X042803Y012141D01*
X042956Y012141D01*
X043033Y012064D01*
X043033Y011834D01*
X043186Y011834D02*
X042726Y011834D01*
X042726Y012064D01*
X042686Y012022D02*
X042533Y011869D01*
X042533Y011946D02*
X042533Y011715D01*
X042686Y011715D02*
X042226Y011715D01*
X042226Y011946D01*
X042303Y012022D01*
X042456Y012022D01*
X042533Y011946D01*
X042303Y012176D02*
X042226Y012252D01*
X042226Y012406D01*
X042303Y012483D01*
X042379Y012483D01*
X042456Y012406D01*
X042533Y012483D01*
X042610Y012483D01*
X042726Y012525D02*
X042803Y012601D01*
X042879Y012601D01*
X042956Y012525D01*
X043033Y012601D01*
X043110Y012601D01*
X043186Y012525D01*
X043186Y012371D01*
X043110Y012295D01*
X043186Y012141D02*
X043033Y011988D01*
X042803Y012295D02*
X042726Y012371D01*
X042726Y012525D01*
X042956Y012525D02*
X042956Y012448D01*
X042803Y012755D02*
X042726Y012832D01*
X042726Y012985D01*
X042803Y013062D01*
X042879Y013062D01*
X043186Y012755D01*
X043186Y013062D01*
X042456Y012866D02*
X042456Y012790D01*
X042303Y012636D02*
X042226Y012713D01*
X042226Y012866D01*
X042456Y012406D02*
X042456Y012329D01*
X046976Y012545D02*
X047436Y012545D01*
X047436Y012851D01*
X047456Y012676D02*
X047303Y012676D01*
X047226Y012599D01*
X047226Y012292D01*
X047303Y012215D01*
X047456Y012215D01*
X047533Y012292D01*
X047687Y012292D02*
X047763Y012215D01*
X047917Y012215D01*
X047994Y012292D01*
X047994Y012369D01*
X047917Y012446D01*
X047840Y012446D01*
X047917Y012446D02*
X047994Y012522D01*
X047994Y012599D01*
X047917Y012676D01*
X047763Y012676D01*
X047687Y012599D01*
X047533Y012599D02*
X047456Y012676D01*
X047206Y013005D02*
X046976Y013235D01*
X047436Y013235D01*
X047206Y013312D02*
X047206Y013005D01*
X048147Y012599D02*
X048224Y012676D01*
X048377Y012676D01*
X048454Y012599D01*
X048454Y012522D01*
X048377Y012446D01*
X048454Y012369D01*
X048454Y012292D01*
X048377Y012215D01*
X048224Y012215D01*
X048147Y012292D01*
X048301Y012446D02*
X048377Y012446D01*
X045246Y016965D02*
X045323Y017042D01*
X045323Y017349D01*
X045246Y017426D01*
X045093Y017426D01*
X045016Y017349D01*
X045016Y017272D01*
X045093Y017196D01*
X045323Y017196D01*
X045246Y016965D02*
X045093Y016965D01*
X045016Y017042D01*
X044862Y016965D02*
X044556Y016965D01*
X044709Y016965D02*
X044709Y017426D01*
X044556Y017272D01*
X044402Y017196D02*
X044325Y017119D01*
X044095Y017119D01*
X044249Y017119D02*
X044402Y016965D01*
X044402Y017196D02*
X044402Y017349D01*
X044325Y017426D01*
X044095Y017426D01*
X044095Y016965D01*
X044095Y017965D02*
X044095Y018426D01*
X044325Y018426D01*
X044402Y018349D01*
X044402Y018196D01*
X044325Y018119D01*
X044095Y018119D01*
X044249Y018119D02*
X044402Y017965D01*
X044556Y017965D02*
X044862Y017965D01*
X044709Y017965D02*
X044709Y018426D01*
X044556Y018272D01*
X045016Y018196D02*
X045246Y018196D01*
X045323Y018119D01*
X045323Y018042D01*
X045246Y017965D01*
X045093Y017965D01*
X045016Y018042D01*
X045016Y018196D01*
X045169Y018349D01*
X045323Y018426D01*
X045283Y020465D02*
X045130Y020619D01*
X045206Y020619D02*
X044976Y020619D01*
X044976Y020465D02*
X044976Y020926D01*
X045206Y020926D01*
X045283Y020849D01*
X045283Y020696D01*
X045206Y020619D01*
X045437Y020772D02*
X045590Y020926D01*
X045590Y020465D01*
X045437Y020465D02*
X045744Y020465D01*
X045897Y020542D02*
X045974Y020465D01*
X046127Y020465D01*
X046204Y020542D01*
X046204Y020619D01*
X046127Y020696D01*
X046051Y020696D01*
X046127Y020696D02*
X046204Y020772D01*
X046204Y020849D01*
X046127Y020926D01*
X045974Y020926D01*
X045897Y020849D01*
X045567Y021615D02*
X045644Y021692D01*
X045644Y021769D01*
X045567Y021846D01*
X045337Y021846D01*
X045337Y021692D01*
X045413Y021615D01*
X045567Y021615D01*
X045337Y021846D02*
X045490Y021999D01*
X045644Y022076D01*
X045183Y021999D02*
X045183Y021846D01*
X045106Y021769D01*
X044876Y021769D01*
X044876Y021615D02*
X044876Y022076D01*
X045106Y022076D01*
X045183Y021999D01*
X045030Y021769D02*
X045183Y021615D01*
X046576Y021615D02*
X046883Y021615D01*
X047037Y021615D02*
X047344Y021615D01*
X047497Y021615D02*
X047727Y021615D01*
X047804Y021692D01*
X047804Y021999D01*
X047727Y022076D01*
X047497Y022076D01*
X047497Y021615D01*
X047190Y021846D02*
X047037Y021846D01*
X047037Y022076D02*
X047037Y021615D01*
X046576Y021615D02*
X046576Y022076D01*
X047037Y022076D02*
X047344Y022076D01*
X047957Y021922D02*
X048111Y022076D01*
X048111Y021615D01*
X048264Y021615D02*
X047957Y021615D01*
X050330Y006983D02*
X050483Y006983D01*
X050406Y006983D02*
X050406Y006600D01*
X050330Y006523D01*
X050253Y006523D01*
X050176Y006600D01*
X050637Y006600D02*
X050944Y006906D01*
X050944Y006983D01*
X050637Y006983D01*
X050637Y006600D02*
X050637Y006523D01*
X012436Y005312D02*
X012436Y005005D01*
X012129Y005312D01*
X012053Y005312D01*
X011976Y005235D01*
X011976Y005082D01*
X012053Y005005D01*
X012053Y004851D02*
X011976Y004775D01*
X011976Y004545D01*
X012436Y004545D01*
X012436Y004775D01*
X012360Y004851D01*
X012053Y004851D01*
X011976Y004391D02*
X011976Y004084D01*
X012436Y004084D01*
X012436Y004391D01*
X012206Y004238D02*
X012206Y004084D01*
X012436Y003931D02*
X012436Y003624D01*
X011976Y003624D01*
X012023Y003589D02*
X012100Y003512D01*
X012100Y003359D01*
X012023Y003282D01*
X011793Y003282D01*
X011793Y003129D02*
X011793Y003589D01*
X012023Y003589D01*
X012253Y003436D02*
X012407Y003589D01*
X012407Y003129D01*
X012560Y003129D02*
X012253Y003129D01*
X011640Y003589D02*
X011333Y003589D01*
X011486Y003589D02*
X011486Y003129D01*
X005724Y006526D02*
X005417Y006526D01*
X005570Y006526D02*
X005570Y006987D01*
X005417Y006833D01*
X005264Y006987D02*
X005110Y006987D01*
X005187Y006987D02*
X005187Y006603D01*
X005110Y006526D01*
X005033Y006526D01*
X004957Y006603D01*
X006900Y008181D02*
X006900Y008641D01*
X007053Y008641D02*
X006746Y008641D01*
X007207Y008641D02*
X007207Y008181D01*
X007207Y008334D02*
X007437Y008334D01*
X007514Y008411D01*
X007514Y008564D01*
X007437Y008641D01*
X007207Y008641D01*
X007667Y008564D02*
X007744Y008641D01*
X007897Y008641D01*
X007974Y008564D01*
X007974Y008488D01*
X007667Y008181D01*
X007974Y008181D01*
X009476Y007426D02*
X009706Y007426D01*
X009783Y007349D01*
X009783Y007196D01*
X009706Y007119D01*
X009476Y007119D01*
X009476Y006965D02*
X009476Y007426D01*
X009630Y007119D02*
X009783Y006965D01*
X009937Y006965D02*
X009937Y007042D01*
X010244Y007349D01*
X010244Y007426D01*
X009937Y007426D01*
D13*
X014264Y006074D02*
X014266Y006044D01*
X014271Y006014D01*
X014280Y005985D01*
X014293Y005958D01*
X014308Y005932D01*
X014327Y005908D01*
X014348Y005887D01*
X014372Y005868D01*
X014398Y005853D01*
X014425Y005840D01*
X014454Y005831D01*
X014484Y005826D01*
X014514Y005824D01*
X016414Y005824D01*
X016444Y005826D01*
X016474Y005831D01*
X016503Y005840D01*
X016530Y005853D01*
X016556Y005868D01*
X016580Y005887D01*
X016601Y005908D01*
X016620Y005932D01*
X016635Y005958D01*
X016648Y005985D01*
X016657Y006014D01*
X016662Y006044D01*
X016664Y006074D01*
X016664Y023574D01*
X016662Y023604D01*
X016657Y023634D01*
X016648Y023663D01*
X016635Y023690D01*
X016620Y023716D01*
X016601Y023740D01*
X016580Y023761D01*
X016556Y023780D01*
X016530Y023795D01*
X016503Y023808D01*
X016474Y023817D01*
X016444Y023822D01*
X016414Y023824D01*
X014514Y023824D01*
X014484Y023822D01*
X014454Y023817D01*
X014425Y023808D01*
X014398Y023795D01*
X014372Y023780D01*
X014348Y023761D01*
X014327Y023740D01*
X014308Y023716D01*
X014293Y023690D01*
X014280Y023663D01*
X014271Y023634D01*
X014266Y023604D01*
X014264Y023574D01*
X009289Y026677D02*
X007538Y026677D01*
X006688Y026677D02*
X004673Y026677D01*
X004673Y027856D01*
X004673Y030256D01*
X004673Y031435D01*
X008538Y031435D01*
X009288Y031435D02*
X009289Y031435D01*
X009289Y026677D01*
X006299Y024495D02*
X005356Y024495D01*
X004706Y024845D02*
X004706Y025845D01*
X004606Y025795D02*
X004604Y025769D01*
X004599Y025743D01*
X004591Y025718D01*
X004579Y025695D01*
X004565Y025673D01*
X004547Y025654D01*
X004528Y025636D01*
X004506Y025622D01*
X004483Y025610D01*
X004458Y025602D01*
X004432Y025597D01*
X004406Y025595D01*
X004406Y024795D01*
X004156Y024945D02*
X002583Y024945D01*
X002133Y025145D02*
X004156Y025145D01*
X004156Y025345D02*
X001483Y025345D01*
X001233Y025595D02*
X001207Y025593D01*
X001181Y025588D01*
X001156Y025580D01*
X001133Y025568D01*
X001111Y025554D01*
X001092Y025536D01*
X001074Y025517D01*
X001060Y025495D01*
X001048Y025472D01*
X001040Y025447D01*
X001035Y025421D01*
X001033Y025395D01*
X001033Y025145D01*
X000983Y025145D01*
X000983Y022745D01*
X001033Y022745D01*
X001033Y025145D01*
X001233Y025445D02*
X001233Y022445D01*
X001233Y022295D02*
X001207Y022297D01*
X001181Y022302D01*
X001156Y022310D01*
X001133Y022322D01*
X001111Y022336D01*
X001092Y022354D01*
X001074Y022373D01*
X001060Y022395D01*
X001048Y022418D01*
X001040Y022443D01*
X001035Y022469D01*
X001033Y022495D01*
X001033Y022745D01*
X001233Y022295D02*
X004406Y022295D01*
X004406Y023095D01*
X004156Y022945D02*
X002583Y022945D01*
X002133Y022745D02*
X004156Y022745D01*
X004156Y022545D02*
X001483Y022545D01*
X004406Y022295D02*
X004432Y022293D01*
X004458Y022288D01*
X004483Y022280D01*
X004506Y022268D01*
X004528Y022254D01*
X004547Y022236D01*
X004565Y022217D01*
X004579Y022195D01*
X004591Y022172D01*
X004599Y022147D01*
X004604Y022121D01*
X004606Y022095D01*
X004706Y022045D02*
X004706Y023045D01*
X005356Y023395D02*
X006299Y023395D01*
X004406Y025595D02*
X001233Y025595D01*
X003591Y027856D02*
X003391Y028056D01*
X003391Y030056D01*
X003591Y030256D01*
X003591Y027856D01*
X004673Y027856D01*
X004673Y030256D02*
X003591Y030256D01*
X006706Y019895D02*
X006706Y019695D01*
X004706Y019445D02*
X004708Y019543D01*
X004716Y019641D01*
X004728Y019738D01*
X004744Y019835D01*
X004766Y019931D01*
X004792Y020026D01*
X004823Y020119D01*
X004858Y020210D01*
X004898Y020300D01*
X004942Y020388D01*
X004991Y020473D01*
X005043Y020556D01*
X005100Y020636D01*
X005160Y020714D01*
X005224Y020788D01*
X005292Y020859D01*
X005363Y020927D01*
X005437Y020991D01*
X005515Y021051D01*
X005595Y021108D01*
X005678Y021160D01*
X005763Y021209D01*
X005851Y021253D01*
X005941Y021293D01*
X006032Y021328D01*
X006125Y021359D01*
X006220Y021385D01*
X006316Y021407D01*
X006413Y021423D01*
X006510Y021435D01*
X006608Y021443D01*
X006706Y021445D01*
X006804Y021443D01*
X006902Y021435D01*
X006999Y021423D01*
X007096Y021407D01*
X007192Y021385D01*
X007287Y021359D01*
X007380Y021328D01*
X007471Y021293D01*
X007561Y021253D01*
X007649Y021209D01*
X007734Y021160D01*
X007817Y021108D01*
X007897Y021051D01*
X007975Y020991D01*
X008049Y020927D01*
X008120Y020859D01*
X008188Y020788D01*
X008252Y020714D01*
X008312Y020636D01*
X008369Y020556D01*
X008421Y020473D01*
X008470Y020388D01*
X008514Y020300D01*
X008554Y020210D01*
X008589Y020119D01*
X008620Y020026D01*
X008646Y019931D01*
X008668Y019835D01*
X008684Y019738D01*
X008696Y019641D01*
X008704Y019543D01*
X008706Y019445D01*
X008704Y019347D01*
X008696Y019249D01*
X008684Y019152D01*
X008668Y019055D01*
X008646Y018959D01*
X008620Y018864D01*
X008589Y018771D01*
X008554Y018680D01*
X008514Y018590D01*
X008470Y018502D01*
X008421Y018417D01*
X008369Y018334D01*
X008312Y018254D01*
X008252Y018176D01*
X008188Y018102D01*
X008120Y018031D01*
X008049Y017963D01*
X007975Y017899D01*
X007897Y017839D01*
X007817Y017782D01*
X007734Y017730D01*
X007649Y017681D01*
X007561Y017637D01*
X007471Y017597D01*
X007380Y017562D01*
X007287Y017531D01*
X007192Y017505D01*
X007096Y017483D01*
X006999Y017467D01*
X006902Y017455D01*
X006804Y017447D01*
X006706Y017445D01*
X006608Y017447D01*
X006510Y017455D01*
X006413Y017467D01*
X006316Y017483D01*
X006220Y017505D01*
X006125Y017531D01*
X006032Y017562D01*
X005941Y017597D01*
X005851Y017637D01*
X005763Y017681D01*
X005678Y017730D01*
X005595Y017782D01*
X005515Y017839D01*
X005437Y017899D01*
X005363Y017963D01*
X005292Y018031D01*
X005224Y018102D01*
X005160Y018176D01*
X005100Y018254D01*
X005043Y018334D01*
X004991Y018417D01*
X004942Y018502D01*
X004898Y018590D01*
X004858Y018680D01*
X004823Y018771D01*
X004792Y018864D01*
X004766Y018959D01*
X004744Y019055D01*
X004728Y019152D01*
X004716Y019249D01*
X004708Y019347D01*
X004706Y019445D01*
X006256Y019345D02*
X006256Y019095D01*
X006706Y019095D01*
X007156Y019095D01*
X007156Y019345D01*
X006256Y019345D01*
X006706Y019095D02*
X006706Y018995D01*
X006206Y018095D02*
X006206Y017795D01*
X006056Y017945D02*
X006356Y017945D01*
X041267Y006028D02*
X041267Y006027D01*
X041267Y006028D02*
X046024Y006028D01*
X046024Y004277D01*
X046024Y003427D02*
X046024Y001412D01*
X044846Y001412D01*
X042446Y001412D01*
X041267Y001412D01*
X041267Y005277D01*
X042446Y001412D02*
X042446Y000330D01*
X044846Y000330D01*
X044646Y000130D01*
X042646Y000130D01*
X042446Y000330D01*
X044846Y000330D02*
X044846Y001412D01*
X053706Y018595D02*
X054706Y018595D01*
X054706Y019595D01*
X054706Y020595D01*
X054706Y021595D01*
X054706Y022595D01*
X054706Y023595D01*
X054706Y024595D01*
X053706Y024595D01*
X053706Y023595D01*
X053706Y022595D01*
X053706Y021595D01*
X053706Y020595D01*
X053706Y019595D01*
X053706Y018595D01*
X053706Y019595D02*
X054706Y019595D01*
X054706Y020595D02*
X053706Y020595D01*
X053706Y021595D02*
X054706Y021595D01*
X054706Y022595D02*
X053706Y022595D01*
X053706Y023595D02*
X054706Y023595D01*
X054606Y026645D02*
X052656Y026645D01*
X052456Y026845D01*
X052456Y030895D01*
X052806Y030895D01*
X054806Y030895D01*
X054806Y030845D01*
X054806Y026845D01*
X054606Y026645D01*
X052986Y027895D02*
X052988Y027945D01*
X052994Y027995D01*
X053004Y028045D01*
X053017Y028093D01*
X053034Y028141D01*
X053055Y028187D01*
X053079Y028231D01*
X053107Y028273D01*
X053138Y028313D01*
X053172Y028350D01*
X053209Y028385D01*
X053248Y028416D01*
X053289Y028445D01*
X053333Y028470D01*
X053379Y028492D01*
X053426Y028510D01*
X053474Y028524D01*
X053523Y028535D01*
X053573Y028542D01*
X053623Y028545D01*
X053674Y028544D01*
X053724Y028539D01*
X053774Y028530D01*
X053822Y028518D01*
X053870Y028501D01*
X053916Y028481D01*
X053961Y028458D01*
X054004Y028431D01*
X054044Y028401D01*
X054082Y028368D01*
X054117Y028332D01*
X054150Y028293D01*
X054179Y028252D01*
X054205Y028209D01*
X054228Y028164D01*
X054247Y028117D01*
X054262Y028069D01*
X054274Y028020D01*
X054282Y027970D01*
X054286Y027920D01*
X054286Y027870D01*
X054282Y027820D01*
X054274Y027770D01*
X054262Y027721D01*
X054247Y027673D01*
X054228Y027626D01*
X054205Y027581D01*
X054179Y027538D01*
X054150Y027497D01*
X054117Y027458D01*
X054082Y027422D01*
X054044Y027389D01*
X054004Y027359D01*
X053961Y027332D01*
X053916Y027309D01*
X053870Y027289D01*
X053822Y027272D01*
X053774Y027260D01*
X053724Y027251D01*
X053674Y027246D01*
X053623Y027245D01*
X053573Y027248D01*
X053523Y027255D01*
X053474Y027266D01*
X053426Y027280D01*
X053379Y027298D01*
X053333Y027320D01*
X053289Y027345D01*
X053248Y027374D01*
X053209Y027405D01*
X053172Y027440D01*
X053138Y027477D01*
X053107Y027517D01*
X053079Y027559D01*
X053055Y027603D01*
X053034Y027649D01*
X053017Y027697D01*
X053004Y027745D01*
X052994Y027795D01*
X052988Y027845D01*
X052986Y027895D01*
X052356Y030595D02*
X052356Y030895D01*
X052456Y030895D01*
X052356Y030895D02*
X045056Y030895D01*
X045056Y030595D01*
X052356Y030595D01*
X052506Y030895D02*
X052536Y030897D01*
X052566Y030902D01*
X052595Y030911D01*
X052622Y030924D01*
X052648Y030939D01*
X052672Y030958D01*
X052693Y030979D01*
X052712Y031003D01*
X052727Y031029D01*
X052740Y031056D01*
X052749Y031085D01*
X052754Y031115D01*
X052756Y031145D01*
X052756Y032095D01*
X052806Y032095D01*
X052806Y032295D01*
X053806Y032295D01*
X054806Y032295D01*
X054806Y032095D01*
X054806Y030895D01*
X054806Y032295D02*
X054806Y032495D01*
X051756Y032495D01*
X045656Y032495D01*
X042606Y032495D01*
X042606Y032295D01*
X043606Y032295D01*
X044606Y032295D01*
X052806Y032295D01*
X052156Y032495D02*
X052126Y032497D01*
X052096Y032502D01*
X052067Y032511D01*
X052040Y032524D01*
X052014Y032539D01*
X051990Y032558D01*
X051969Y032579D01*
X051950Y032603D01*
X051935Y032629D01*
X051922Y032656D01*
X051913Y032685D01*
X051908Y032715D01*
X051906Y032745D01*
X051906Y034745D01*
X051904Y034771D01*
X051899Y034797D01*
X051891Y034822D01*
X051879Y034845D01*
X051865Y034867D01*
X051847Y034886D01*
X051828Y034904D01*
X051806Y034918D01*
X051783Y034930D01*
X051758Y034938D01*
X051732Y034943D01*
X051706Y034945D01*
X051606Y034945D01*
X045806Y034945D01*
X045706Y034945D01*
X045680Y034943D01*
X045654Y034938D01*
X045629Y034930D01*
X045606Y034918D01*
X045584Y034904D01*
X045565Y034886D01*
X045547Y034867D01*
X045533Y034845D01*
X045521Y034822D01*
X045513Y034797D01*
X045508Y034771D01*
X045506Y034745D01*
X045506Y032745D01*
X045504Y032715D01*
X045499Y032685D01*
X045490Y032656D01*
X045477Y032629D01*
X045462Y032603D01*
X045443Y032579D01*
X045422Y032558D01*
X045398Y032539D01*
X045372Y032524D01*
X045345Y032511D01*
X045316Y032502D01*
X045286Y032497D01*
X045256Y032495D01*
X044606Y032295D02*
X044606Y032095D01*
X044656Y032095D01*
X044656Y031145D01*
X044658Y031115D01*
X044663Y031085D01*
X044672Y031056D01*
X044685Y031029D01*
X044700Y031003D01*
X044719Y030979D01*
X044740Y030958D01*
X044764Y030939D01*
X044790Y030924D01*
X044817Y030911D01*
X044846Y030902D01*
X044876Y030897D01*
X044906Y030895D01*
X044956Y030895D02*
X044956Y026845D01*
X044756Y026645D01*
X042856Y026645D01*
X042606Y026895D01*
X042606Y030845D01*
X042606Y030895D01*
X042606Y032095D01*
X042606Y032295D01*
X042606Y030895D02*
X044606Y030895D01*
X044956Y030895D01*
X045056Y030895D01*
X043126Y027895D02*
X043128Y027945D01*
X043134Y027995D01*
X043144Y028045D01*
X043157Y028093D01*
X043174Y028141D01*
X043195Y028187D01*
X043219Y028231D01*
X043247Y028273D01*
X043278Y028313D01*
X043312Y028350D01*
X043349Y028385D01*
X043388Y028416D01*
X043429Y028445D01*
X043473Y028470D01*
X043519Y028492D01*
X043566Y028510D01*
X043614Y028524D01*
X043663Y028535D01*
X043713Y028542D01*
X043763Y028545D01*
X043814Y028544D01*
X043864Y028539D01*
X043914Y028530D01*
X043962Y028518D01*
X044010Y028501D01*
X044056Y028481D01*
X044101Y028458D01*
X044144Y028431D01*
X044184Y028401D01*
X044222Y028368D01*
X044257Y028332D01*
X044290Y028293D01*
X044319Y028252D01*
X044345Y028209D01*
X044368Y028164D01*
X044387Y028117D01*
X044402Y028069D01*
X044414Y028020D01*
X044422Y027970D01*
X044426Y027920D01*
X044426Y027870D01*
X044422Y027820D01*
X044414Y027770D01*
X044402Y027721D01*
X044387Y027673D01*
X044368Y027626D01*
X044345Y027581D01*
X044319Y027538D01*
X044290Y027497D01*
X044257Y027458D01*
X044222Y027422D01*
X044184Y027389D01*
X044144Y027359D01*
X044101Y027332D01*
X044056Y027309D01*
X044010Y027289D01*
X043962Y027272D01*
X043914Y027260D01*
X043864Y027251D01*
X043814Y027246D01*
X043763Y027245D01*
X043713Y027248D01*
X043663Y027255D01*
X043614Y027266D01*
X043566Y027280D01*
X043519Y027298D01*
X043473Y027320D01*
X043429Y027345D01*
X043388Y027374D01*
X043349Y027405D01*
X043312Y027440D01*
X043278Y027477D01*
X043247Y027517D01*
X043219Y027559D01*
X043195Y027603D01*
X043174Y027649D01*
X043157Y027697D01*
X043144Y027745D01*
X043134Y027795D01*
X043128Y027845D01*
X043126Y027895D01*
D14*
X043162Y026061D02*
X042951Y026061D01*
X043057Y026061D02*
X043057Y025535D01*
X042951Y025430D01*
X042846Y025430D01*
X042741Y025535D01*
X043386Y025535D02*
X043386Y025746D01*
X043701Y025746D01*
X043806Y025641D01*
X043806Y025535D01*
X043701Y025430D01*
X043491Y025430D01*
X043386Y025535D01*
X043386Y025746D02*
X043596Y025956D01*
X043806Y026061D01*
D15*
X045731Y027170D02*
X046032Y027170D01*
X045881Y027170D02*
X045881Y027621D01*
X045731Y027471D01*
X045806Y028170D02*
X045956Y028170D01*
X046032Y028245D01*
X046032Y028320D01*
X045956Y028396D01*
X045731Y028396D01*
X045731Y028245D01*
X045806Y028170D01*
X045731Y028396D02*
X045881Y028546D01*
X046032Y028621D01*
X046267Y031270D02*
X046192Y031345D01*
X046492Y031646D01*
X046492Y031345D01*
X046417Y031270D01*
X046267Y031270D01*
X046192Y031345D02*
X046192Y031646D01*
X046267Y031721D01*
X046417Y031721D01*
X046492Y031646D01*
X046652Y031646D02*
X046652Y031571D01*
X046727Y031496D01*
X046952Y031496D01*
X046952Y031646D02*
X046952Y031345D01*
X046877Y031270D01*
X046727Y031270D01*
X046652Y031345D01*
X046652Y031646D02*
X046727Y031721D01*
X046877Y031721D01*
X046952Y031646D01*
X046032Y031721D02*
X045731Y031721D01*
X045731Y031270D01*
X045731Y031496D02*
X045881Y031496D01*
X051481Y028546D02*
X051481Y028471D01*
X051556Y028396D01*
X051782Y028396D01*
X051782Y028546D02*
X051782Y028245D01*
X051706Y028170D01*
X051556Y028170D01*
X051481Y028245D01*
X051481Y028546D02*
X051556Y028621D01*
X051706Y028621D01*
X051782Y028546D01*
X051782Y027621D02*
X051481Y027621D01*
X051481Y027396D01*
X051631Y027471D01*
X051706Y027471D01*
X051782Y027396D01*
X051782Y027245D01*
X051706Y027170D01*
X051556Y027170D01*
X051481Y027245D01*
X053131Y025321D02*
X053282Y025321D01*
X053206Y025321D02*
X053206Y024945D01*
X053131Y024870D01*
X053056Y024870D01*
X052981Y024945D01*
X053442Y024945D02*
X053517Y024870D01*
X053667Y024870D01*
X053742Y024945D01*
X053742Y025020D01*
X053667Y025096D01*
X053517Y025096D01*
X053442Y025171D01*
X053442Y025246D01*
X053517Y025321D01*
X053667Y025321D01*
X053742Y025246D01*
X053742Y025171D01*
X053667Y025096D01*
X053517Y025096D02*
X053442Y025020D01*
X053442Y024945D01*
X054206Y028920D02*
X054131Y028995D01*
X054131Y029146D01*
X054206Y029221D01*
X054281Y029221D01*
X054581Y028920D01*
X054581Y029221D01*
X054731Y029381D02*
X054581Y029531D01*
X054581Y029456D01*
X054506Y029456D01*
X054506Y029531D01*
X054581Y029531D01*
X054506Y029688D02*
X054581Y029763D01*
X054581Y029913D01*
X054506Y029988D01*
X054356Y029988D01*
X054281Y029913D01*
X054281Y029838D01*
X054356Y029688D01*
X054131Y029688D01*
X054131Y029988D01*
X054356Y030148D02*
X054356Y030448D01*
X054131Y030373D02*
X054356Y030148D01*
X054581Y030373D02*
X054131Y030373D01*
X037060Y024449D02*
X037060Y024374D01*
X036759Y024074D01*
X036759Y023999D01*
X036599Y024074D02*
X036524Y023999D01*
X036374Y023999D01*
X036299Y024074D01*
X036599Y024374D01*
X036599Y024074D01*
X036299Y024074D02*
X036299Y024374D01*
X036374Y024449D01*
X036524Y024449D01*
X036599Y024374D01*
X036759Y024449D02*
X037060Y024449D01*
X036139Y023999D02*
X035839Y023999D01*
X035989Y023999D02*
X035989Y024449D01*
X035839Y024299D01*
X035560Y024299D02*
X035485Y024224D01*
X035335Y024224D01*
X035259Y024299D01*
X035259Y024374D01*
X035335Y024449D01*
X035485Y024449D01*
X035560Y024374D01*
X035560Y024299D01*
X035485Y024224D02*
X035560Y024149D01*
X035560Y024074D01*
X035485Y023999D01*
X035335Y023999D01*
X035259Y024074D01*
X035259Y024149D01*
X035335Y024224D01*
X035099Y024374D02*
X035099Y024074D01*
X035024Y023999D01*
X034874Y023999D01*
X034799Y024074D01*
X035099Y024374D01*
X035024Y024449D01*
X034874Y024449D01*
X034799Y024374D01*
X034799Y024074D01*
X034639Y023999D02*
X034339Y023999D01*
X034489Y023999D02*
X034489Y024449D01*
X034339Y024299D01*
X034285Y023649D02*
X034360Y023574D01*
X034059Y023274D01*
X034135Y023199D01*
X034285Y023199D01*
X034360Y023274D01*
X034360Y023574D01*
X034285Y023649D02*
X034135Y023649D01*
X034059Y023574D01*
X034059Y023274D01*
X033899Y023199D02*
X033599Y023199D01*
X033749Y023199D02*
X033749Y023649D01*
X033599Y023499D01*
X033439Y023199D02*
X033139Y023199D01*
X033289Y023199D02*
X033289Y023649D01*
X033139Y023499D01*
X033639Y026199D02*
X033939Y026199D01*
X033789Y026199D02*
X033789Y026649D01*
X033639Y026499D01*
X034099Y026574D02*
X034099Y026274D01*
X034399Y026574D01*
X034399Y026274D01*
X034324Y026199D01*
X034174Y026199D01*
X034099Y026274D01*
X034099Y026574D02*
X034174Y026649D01*
X034324Y026649D01*
X034399Y026574D01*
X034559Y026574D02*
X034559Y026499D01*
X034635Y026424D01*
X034860Y026424D01*
X034860Y026274D02*
X034860Y026574D01*
X034785Y026649D01*
X034635Y026649D01*
X034559Y026574D01*
X034559Y026274D02*
X034635Y026199D01*
X034785Y026199D01*
X034860Y026274D01*
X018060Y026299D02*
X017985Y026224D01*
X018060Y026149D01*
X018060Y026074D01*
X017985Y025999D01*
X017835Y025999D01*
X017759Y026074D01*
X017910Y026224D02*
X017985Y026224D01*
X018060Y026299D02*
X018060Y026374D01*
X017985Y026449D01*
X017835Y026449D01*
X017759Y026374D01*
X017599Y026224D02*
X017299Y026224D01*
X017524Y026449D01*
X017524Y025999D01*
X017139Y025999D02*
X016839Y025999D01*
X016989Y025999D02*
X016989Y026449D01*
X016839Y026299D01*
X015828Y024449D02*
X015828Y023999D01*
X015678Y023999D02*
X015979Y023999D01*
X015678Y024299D02*
X015828Y024449D01*
X014979Y024374D02*
X014903Y024449D01*
X014753Y024449D01*
X014678Y024374D01*
X014979Y024374D02*
X014979Y024299D01*
X014678Y023999D01*
X014979Y023999D01*
X016839Y023299D02*
X016989Y023449D01*
X016989Y022999D01*
X016839Y022999D02*
X017139Y022999D01*
X017299Y023224D02*
X017599Y023224D01*
X017759Y023224D02*
X018060Y023224D01*
X017985Y022999D02*
X017985Y023449D01*
X017759Y023224D01*
X017524Y022999D02*
X017524Y023449D01*
X017299Y023224D01*
X008979Y028081D02*
X008904Y028006D01*
X008979Y028081D02*
X008979Y028231D01*
X008904Y028306D01*
X008829Y028306D01*
X008754Y028231D01*
X008754Y028156D01*
X008754Y028231D02*
X008679Y028306D01*
X008604Y028306D01*
X008529Y028231D01*
X008529Y028081D01*
X008604Y028006D01*
X008904Y028541D02*
X008979Y028541D01*
X008979Y028616D01*
X008904Y028616D01*
X008904Y028541D01*
X008979Y028616D02*
X009129Y028466D01*
X008904Y028773D02*
X008979Y028848D01*
X008979Y028998D01*
X008904Y029073D01*
X008754Y029073D01*
X008679Y028998D01*
X008679Y028923D01*
X008754Y028773D01*
X008529Y028773D01*
X008529Y029073D01*
X008679Y029234D02*
X008679Y029309D01*
X008754Y029384D01*
X008679Y029459D01*
X008754Y029534D01*
X008979Y029534D01*
X008979Y029384D02*
X008754Y029384D01*
X008679Y029234D02*
X008979Y029234D01*
X008979Y029694D02*
X008679Y029694D01*
X008679Y029769D01*
X008754Y029844D01*
X008679Y029919D01*
X008754Y029994D01*
X008979Y029994D01*
X008979Y029844D02*
X008754Y029844D01*
X006248Y031581D02*
X006248Y032031D01*
X006023Y031806D01*
X006323Y031806D01*
X005863Y032031D02*
X005713Y032031D01*
X005788Y032031D02*
X005788Y031656D01*
X005713Y031581D01*
X005638Y031581D01*
X005563Y031656D01*
X004706Y027445D02*
X004706Y020445D01*
X005226Y021320D02*
X005151Y021395D01*
X005151Y021546D01*
X005226Y021621D01*
X005301Y021781D02*
X005151Y021931D01*
X005601Y021931D01*
X005601Y021781D02*
X005601Y022081D01*
X005526Y022241D02*
X005601Y022316D01*
X005601Y022466D01*
X005526Y022541D01*
X005451Y022541D01*
X005376Y022466D01*
X005376Y022391D01*
X005376Y022466D02*
X005301Y022541D01*
X005226Y022541D01*
X005151Y022466D01*
X005151Y022316D01*
X005226Y022241D01*
X006231Y022296D02*
X006231Y022145D01*
X006306Y022070D01*
X006231Y022296D02*
X006306Y022371D01*
X006381Y022371D01*
X006681Y022070D01*
X006681Y022371D01*
X005601Y021546D02*
X005526Y021621D01*
X005601Y021546D02*
X005601Y021395D01*
X005526Y021320D01*
X005226Y021320D01*
X004271Y021645D02*
X004196Y021570D01*
X004046Y021570D01*
X003971Y021645D01*
X003811Y021645D02*
X003811Y021720D01*
X003736Y021796D01*
X003586Y021796D01*
X003511Y021871D01*
X003511Y021946D01*
X003586Y022021D01*
X003736Y022021D01*
X003811Y021946D01*
X003971Y021946D02*
X004046Y022021D01*
X004196Y022021D01*
X004271Y021946D01*
X004271Y021871D01*
X004196Y021796D01*
X004271Y021720D01*
X004271Y021645D01*
X004196Y021796D02*
X004121Y021796D01*
X003811Y021645D02*
X003736Y021570D01*
X003586Y021570D01*
X003511Y021645D01*
X003350Y021645D02*
X003350Y022021D01*
X003050Y022021D02*
X003050Y021645D01*
X003125Y021570D01*
X003275Y021570D01*
X003350Y021645D01*
X003661Y021495D02*
X003661Y022096D01*
X005881Y024720D02*
X005731Y024870D01*
X006181Y024870D01*
X006181Y024720D02*
X006181Y025021D01*
X006306Y026470D02*
X006231Y026545D01*
X006231Y026696D01*
X006306Y026771D01*
X006381Y026771D01*
X006681Y026470D01*
X006681Y026771D01*
X004899Y016644D02*
X011120Y016644D01*
X011120Y010621D01*
X004899Y010621D01*
X004899Y016644D01*
X004899Y014794D02*
X005529Y014794D01*
X005568Y014792D01*
X005606Y014786D01*
X005643Y014777D01*
X005680Y014764D01*
X005715Y014747D01*
X005748Y014728D01*
X005779Y014705D01*
X005808Y014679D01*
X005834Y014650D01*
X005857Y014619D01*
X005876Y014586D01*
X005893Y014551D01*
X005906Y014514D01*
X005915Y014477D01*
X005921Y014439D01*
X005923Y014400D01*
X005923Y011723D01*
X005921Y011684D01*
X005915Y011646D01*
X005906Y011609D01*
X005893Y011572D01*
X005876Y011537D01*
X005857Y011504D01*
X005834Y011473D01*
X005808Y011444D01*
X005779Y011418D01*
X005748Y011395D01*
X005715Y011376D01*
X005680Y011359D01*
X005643Y011346D01*
X005606Y011337D01*
X005568Y011331D01*
X005529Y011329D01*
X004899Y011329D01*
X014418Y005574D02*
X014493Y005649D01*
X014643Y005649D01*
X014718Y005574D01*
X014718Y005499D01*
X014643Y005424D01*
X014718Y005349D01*
X014718Y005274D01*
X014643Y005199D01*
X014493Y005199D01*
X014418Y005274D01*
X014568Y005424D02*
X014643Y005424D01*
X014878Y005424D02*
X015103Y005424D01*
X015179Y005349D01*
X015179Y005274D01*
X015103Y005199D01*
X014953Y005199D01*
X014878Y005274D01*
X014878Y005424D01*
X015028Y005574D01*
X015179Y005649D01*
X015418Y005574D02*
X015493Y005649D01*
X015643Y005649D01*
X015718Y005574D01*
X015718Y005499D01*
X015643Y005424D01*
X015718Y005349D01*
X015718Y005274D01*
X015643Y005199D01*
X015493Y005199D01*
X015418Y005274D01*
X015568Y005424D02*
X015643Y005424D01*
X015878Y005424D02*
X016028Y005499D01*
X016103Y005499D01*
X016179Y005424D01*
X016179Y005274D01*
X016103Y005199D01*
X015953Y005199D01*
X015878Y005274D01*
X015878Y005424D02*
X015878Y005649D01*
X016179Y005649D01*
X016493Y005999D02*
X016418Y006074D01*
X016493Y005999D02*
X016643Y005999D01*
X016718Y006074D01*
X016718Y006149D01*
X016643Y006224D01*
X016568Y006224D01*
X016643Y006224D02*
X016718Y006299D01*
X016718Y006374D01*
X016643Y006449D01*
X016493Y006449D01*
X016418Y006374D01*
X016878Y006374D02*
X016878Y006299D01*
X016953Y006224D01*
X017103Y006224D01*
X017179Y006149D01*
X017179Y006074D01*
X017103Y005999D01*
X016953Y005999D01*
X016878Y006074D01*
X016878Y006149D01*
X016953Y006224D01*
X017103Y006224D02*
X017179Y006299D01*
X017179Y006374D01*
X017103Y006449D01*
X016953Y006449D01*
X016878Y006374D01*
X016878Y003449D02*
X017179Y003449D01*
X017179Y003374D01*
X016878Y003074D01*
X016878Y002999D01*
X016718Y003074D02*
X016643Y002999D01*
X016493Y002999D01*
X016418Y003074D01*
X016568Y003224D02*
X016643Y003224D01*
X016718Y003149D01*
X016718Y003074D01*
X016643Y003224D02*
X016718Y003299D01*
X016718Y003374D01*
X016643Y003449D01*
X016493Y003449D01*
X016418Y003374D01*
X025718Y012924D02*
X025718Y013524D01*
X025643Y013449D02*
X025793Y013449D01*
X025868Y013374D01*
X025793Y013224D02*
X025643Y013224D01*
X025568Y013299D01*
X025568Y013374D01*
X025643Y013449D01*
X025408Y013449D02*
X025408Y013074D01*
X025333Y012999D01*
X025183Y012999D01*
X025107Y013074D01*
X025107Y013449D01*
X025568Y013074D02*
X025643Y012999D01*
X025793Y012999D01*
X025868Y013074D01*
X025868Y013149D01*
X025793Y013224D01*
X026028Y013224D02*
X026253Y013449D01*
X026253Y012999D01*
X026329Y013224D02*
X026028Y013224D01*
X033218Y006649D02*
X033518Y006649D01*
X033518Y006574D01*
X033218Y006274D01*
X033218Y006199D01*
X033678Y006199D02*
X033979Y006499D01*
X033979Y006574D01*
X033903Y006649D01*
X033753Y006649D01*
X033678Y006574D01*
X033678Y006199D02*
X033979Y006199D01*
X034639Y005649D02*
X034939Y005649D01*
X034939Y005574D01*
X034639Y005274D01*
X034639Y005199D01*
X035099Y005424D02*
X035399Y005424D01*
X035324Y005199D02*
X035324Y005649D01*
X035099Y005424D01*
X035639Y005274D02*
X035639Y005199D01*
X035639Y005274D02*
X035939Y005574D01*
X035939Y005649D01*
X035639Y005649D01*
X036099Y005574D02*
X036174Y005649D01*
X036324Y005649D01*
X036399Y005574D01*
X036399Y005499D01*
X036324Y005424D01*
X036399Y005349D01*
X036399Y005274D01*
X036324Y005199D01*
X036174Y005199D01*
X036099Y005274D01*
X036249Y005424D02*
X036324Y005424D01*
X033828Y003149D02*
X033828Y002699D01*
X033678Y002699D02*
X033979Y002699D01*
X033678Y002999D02*
X033828Y003149D01*
X033518Y003149D02*
X033518Y003074D01*
X033218Y002774D01*
X033218Y002699D01*
X033218Y003149D02*
X033518Y003149D01*
X040670Y003062D02*
X040670Y002762D01*
X040895Y002762D01*
X040820Y002912D01*
X040820Y002987D01*
X040895Y003062D01*
X041046Y003062D01*
X041121Y002987D01*
X041121Y002837D01*
X041046Y002762D01*
X041046Y002527D02*
X040670Y002527D01*
X040670Y002452D02*
X040670Y002602D01*
X041046Y002527D02*
X041121Y002452D01*
X041121Y002377D01*
X041046Y002302D01*
X043058Y005118D02*
X043208Y005268D01*
X043133Y005268D01*
X043133Y005343D01*
X043208Y005343D01*
X043208Y005268D01*
X043365Y005343D02*
X043440Y005268D01*
X043590Y005268D01*
X043665Y005343D01*
X043665Y005494D01*
X043590Y005569D01*
X043515Y005569D01*
X043365Y005494D01*
X043365Y005719D01*
X043665Y005719D01*
X043825Y005569D02*
X043900Y005569D01*
X043975Y005494D01*
X044050Y005569D01*
X044125Y005494D01*
X044125Y005268D01*
X043975Y005268D02*
X043975Y005494D01*
X043825Y005569D02*
X043825Y005268D01*
X044285Y005268D02*
X044285Y005569D01*
X044361Y005569D01*
X044436Y005494D01*
X044511Y005569D01*
X044586Y005494D01*
X044586Y005268D01*
X044436Y005268D02*
X044436Y005494D01*
X042898Y005569D02*
X042823Y005494D01*
X042898Y005419D01*
X042898Y005343D01*
X042823Y005268D01*
X042672Y005268D01*
X042597Y005343D01*
X042747Y005494D02*
X042823Y005494D01*
X042898Y005569D02*
X042898Y005644D01*
X042823Y005719D01*
X042672Y005719D01*
X042597Y005644D01*
D16*
X048706Y030745D03*
D17*
X048706Y032395D03*
D18*
X048706Y029170D03*
X047626Y029170D03*
X046546Y029170D03*
X049786Y029170D03*
X050866Y029170D03*
D19*
X050326Y029670D03*
X049246Y029670D03*
X048166Y029670D03*
X047086Y029670D03*
D20*
X006706Y019670D03*
D21*
X054956Y020095D02*
X057206Y020095D01*
X057206Y019095D02*
X054956Y019095D01*
X054956Y021095D02*
X057206Y021095D01*
X057206Y022095D02*
X054956Y022095D01*
X054956Y023095D02*
X057206Y023095D01*
X057206Y024095D02*
X054956Y024095D01*
D22*
X054806Y024095D03*
X054806Y023095D03*
X054806Y022095D03*
X054806Y021095D03*
X054806Y020095D03*
X054806Y019095D03*
D23*
X053506Y019095D03*
X053506Y020095D03*
X053506Y021095D03*
X053506Y022095D03*
X053506Y023095D03*
X053506Y024095D03*
D24*
X052456Y024095D03*
X052456Y023095D03*
X052456Y022095D03*
X052456Y021095D03*
X052456Y020095D03*
X052456Y019095D03*
D25*
X047278Y020825D03*
X047278Y021366D03*
D26*
X047125Y021095D03*
X011456Y004876D03*
D27*
X011186Y004724D03*
X011727Y004724D03*
D28*
X028003Y011142D03*
D29*
X006756Y021745D02*
X005006Y021745D01*
X004972Y021747D01*
X004939Y021753D01*
X004907Y021762D01*
X004876Y021775D01*
X004846Y021791D01*
X004819Y021810D01*
X004794Y021833D01*
X004771Y021858D01*
X004752Y021885D01*
X004736Y021915D01*
X004723Y021946D01*
X004714Y021978D01*
X004708Y022011D01*
X004706Y022045D01*
X004706Y025845D02*
X004708Y025879D01*
X004714Y025912D01*
X004723Y025944D01*
X004736Y025975D01*
X004752Y026005D01*
X004771Y026032D01*
X004794Y026057D01*
X004819Y026080D01*
X004846Y026099D01*
X004876Y026115D01*
X004907Y026128D01*
X004939Y026137D01*
X004972Y026143D01*
X005006Y026145D01*
X006756Y026145D01*
M02*
