G75*
G70*
%OFA0B0*%
%FSLAX24Y24*%
%IPPOS*%
%LPD*%
%AMOC8*
5,1,8,0,0,1.08239X$1,22.5*
%
%ADD10C,0.1580*%
%ADD11C,0.0780*%
%ADD12C,0.0946*%
%ADD13C,0.0840*%
%ADD14C,0.1380*%
%ADD15R,0.0592X0.0671*%
%ADD16R,0.0671X0.0592*%
%ADD17C,0.1080*%
%ADD18OC8,0.1080*%
%ADD19R,0.0671X0.0671*%
%ADD20R,0.1280X0.1280*%
%ADD21R,0.0867X0.0867*%
%ADD22C,0.0197*%
%ADD23C,0.0540*%
%ADD24C,0.0631*%
%ADD25C,0.0434*%
%ADD26C,0.0345*%
%ADD27C,0.0532*%
%ADD28R,0.0611X0.0237*%
%ADD29R,0.0827X0.0453*%
%ADD30C,0.0580*%
%ADD31C,0.0740*%
%ADD32C,0.0552*%
%ADD33R,0.0580X0.0330*%
%ADD34C,0.0870*%
%ADD35C,0.0600*%
D10*
X004706Y001445D03*
X007746Y022493D03*
X006259Y023945D03*
X007746Y025397D03*
X008426Y027075D03*
X006456Y029045D03*
X008426Y031015D03*
X004706Y032315D03*
X041686Y005165D03*
X043656Y003195D03*
X045626Y005165D03*
X054946Y001445D03*
X054946Y032315D03*
D11*
X047706Y009445D03*
X045706Y009445D03*
X050818Y005676D03*
X050818Y004692D03*
X051644Y004692D03*
X052668Y004692D03*
X053495Y004692D03*
X053495Y005676D03*
D12*
X052156Y003596D03*
D13*
X051956Y019095D03*
X052956Y019095D03*
X052956Y020095D03*
X051956Y020095D03*
X051956Y021095D03*
X052956Y021095D03*
X052956Y022095D03*
X051956Y022095D03*
X051956Y023095D03*
X052956Y023095D03*
X052956Y024095D03*
X051956Y024095D03*
X050866Y027395D03*
X049786Y027395D03*
X048706Y027395D03*
X047626Y027395D03*
X046546Y027395D03*
X047086Y028395D03*
X048166Y028395D03*
X049246Y028395D03*
X050326Y028395D03*
D14*
X053636Y027895D03*
X043776Y027895D03*
D15*
X044732Y021095D03*
X045480Y021095D03*
X045580Y019945D03*
X044832Y019945D03*
X044832Y018945D03*
X045580Y018945D03*
X045580Y017945D03*
X044832Y017945D03*
X047332Y011695D03*
X048080Y011695D03*
X010080Y006445D03*
X009332Y006445D03*
D16*
X023481Y011261D03*
X023481Y012009D03*
X042206Y012571D03*
X042206Y013319D03*
X043206Y012319D03*
X043206Y011571D03*
X046456Y012821D03*
X046456Y013569D03*
X014674Y024882D03*
X014674Y025630D03*
D17*
X006706Y018445D03*
D18*
X006706Y020445D03*
D19*
X011456Y005634D03*
X011456Y004256D03*
X046367Y021095D03*
X047745Y021095D03*
D20*
X027907Y011590D03*
X025899Y011590D03*
X025899Y010094D03*
X027907Y010094D03*
D21*
X011706Y002695D03*
X007714Y009074D03*
D22*
X011178Y011364D02*
X011178Y011562D01*
X011692Y011562D01*
X011692Y011364D01*
X011178Y011364D01*
X011178Y011560D02*
X011692Y011560D01*
X011178Y011797D02*
X011178Y011995D01*
X011692Y011995D01*
X011692Y011797D01*
X011178Y011797D01*
X011178Y011993D02*
X011692Y011993D01*
X011178Y012230D02*
X011178Y012428D01*
X011692Y012428D01*
X011692Y012230D01*
X011178Y012230D01*
X011178Y012426D02*
X011692Y012426D01*
X011178Y012663D02*
X011178Y012861D01*
X011692Y012861D01*
X011692Y012663D01*
X011178Y012663D01*
X011178Y012859D02*
X011692Y012859D01*
X011178Y013096D02*
X011178Y013294D01*
X011692Y013294D01*
X011692Y013096D01*
X011178Y013096D01*
X011178Y013292D02*
X011692Y013292D01*
X011178Y013529D02*
X011178Y013727D01*
X011692Y013727D01*
X011692Y013529D01*
X011178Y013529D01*
X011178Y013725D02*
X011692Y013725D01*
X011178Y013962D02*
X011178Y014160D01*
X011692Y014160D01*
X011692Y013962D01*
X011178Y013962D01*
X011178Y014158D02*
X011692Y014158D01*
X011692Y014396D02*
X011692Y014594D01*
X011692Y014396D02*
X011178Y014396D01*
X011178Y014594D01*
X011692Y014594D01*
X011692Y014592D02*
X011178Y014592D01*
D23*
X009935Y016374D02*
X009935Y016914D01*
X011675Y016914D01*
X011675Y016374D01*
X009935Y016374D01*
X009935Y016913D02*
X011675Y016913D01*
X009580Y010920D02*
X009580Y010380D01*
X009580Y010920D02*
X011320Y010920D01*
X011320Y010380D01*
X009580Y010380D01*
X009580Y010919D02*
X011320Y010919D01*
D24*
X006907Y010965D02*
X006907Y010335D01*
X006907Y010965D02*
X007931Y010965D01*
X007931Y010335D01*
X006907Y010335D01*
X006907Y010965D02*
X007931Y010965D01*
X005234Y010936D02*
X005234Y010306D01*
X005234Y010936D02*
X005864Y010936D01*
X005864Y010306D01*
X005234Y010306D01*
X005234Y010936D02*
X005864Y010936D01*
D25*
X004939Y015956D02*
X004939Y016782D01*
X005371Y016782D01*
X005371Y015956D01*
X004939Y015956D01*
X004939Y016389D02*
X005371Y016389D01*
D26*
X011075Y015622D02*
X011075Y015256D01*
X011075Y015622D02*
X011421Y015622D01*
X011421Y015256D01*
X011075Y015256D01*
X011075Y015600D02*
X011421Y015600D01*
D27*
X006287Y016378D02*
X006287Y016910D01*
X007803Y016910D01*
X007803Y016378D01*
X006287Y016378D01*
X006287Y016909D02*
X007803Y016909D01*
D28*
X006531Y005207D03*
X006531Y004951D03*
X006531Y004695D03*
X006531Y004439D03*
X006531Y004184D03*
D29*
X004956Y004390D03*
X004956Y005000D03*
D30*
X006519Y005680D03*
X006519Y003711D03*
D31*
X005456Y003317D03*
X005456Y006073D03*
D32*
X005476Y027075D03*
X006456Y027075D03*
X008426Y029045D03*
X006456Y031015D03*
X005476Y031015D03*
X043656Y005165D03*
X041686Y003195D03*
X041686Y002215D03*
X045626Y002215D03*
X045626Y003195D03*
D33*
X008757Y004459D03*
X008757Y004932D03*
X007655Y004932D03*
X007655Y004459D03*
D34*
X014964Y009324D03*
X014964Y010324D03*
X015964Y010324D03*
X015964Y014324D03*
X015964Y017324D03*
X015964Y018324D03*
X015964Y019324D03*
X015964Y020324D03*
X014964Y020324D03*
X015964Y021324D03*
X015964Y022324D03*
X014964Y022324D03*
X014964Y023324D03*
X015964Y023324D03*
X016964Y024324D03*
X017964Y024324D03*
X018964Y024324D03*
X019964Y024324D03*
X020964Y024324D03*
X021964Y024324D03*
X022964Y024324D03*
X023964Y024324D03*
X024964Y024324D03*
X025964Y024324D03*
X026964Y024324D03*
X027964Y024324D03*
X028964Y024324D03*
X029964Y024324D03*
X030964Y024324D03*
X031964Y024324D03*
X032964Y024324D03*
X033964Y024324D03*
X033964Y025324D03*
X032964Y025324D03*
X031964Y025324D03*
X030964Y025324D03*
X029964Y025324D03*
X028964Y025324D03*
X027964Y025324D03*
X026964Y025324D03*
X025964Y025324D03*
X024964Y025324D03*
X023964Y025324D03*
X022964Y025324D03*
X021964Y025324D03*
X020964Y025324D03*
X019964Y025324D03*
X018964Y025324D03*
X017964Y025324D03*
X016964Y025324D03*
X034964Y023324D03*
X035964Y023324D03*
X035964Y022324D03*
X034964Y022324D03*
X034964Y021324D03*
X035964Y021324D03*
X034964Y020324D03*
X034964Y019324D03*
X035964Y019324D03*
X035964Y018324D03*
X034964Y018324D03*
X034964Y017324D03*
X035964Y017324D03*
X035964Y016324D03*
X034964Y016324D03*
X034964Y015324D03*
X035964Y015324D03*
X034964Y014324D03*
X034964Y013324D03*
X035964Y013324D03*
X035964Y012324D03*
X034964Y012324D03*
X035964Y011324D03*
X035964Y010324D03*
X034964Y010324D03*
X034964Y009324D03*
X035964Y009324D03*
X035964Y008324D03*
X035964Y007324D03*
X035964Y006324D03*
X034964Y006324D03*
X034964Y007324D03*
X033964Y005324D03*
X033964Y004324D03*
X030964Y004324D03*
X029964Y004324D03*
X028964Y004324D03*
X028964Y005324D03*
X029964Y005324D03*
X027964Y005324D03*
X026964Y004324D03*
X025964Y004324D03*
X025964Y005324D03*
X022964Y004324D03*
X020964Y004324D03*
X020964Y005324D03*
X019964Y005324D03*
X018964Y005324D03*
X017964Y005324D03*
X017964Y004324D03*
X016964Y004324D03*
D35*
X017206Y003545D03*
X014806Y003545D03*
X014606Y005045D03*
X014156Y005495D03*
X013456Y006295D03*
X012106Y004945D03*
X010306Y004695D03*
X007706Y003945D03*
X010906Y002695D03*
X012506Y002545D03*
X016406Y005295D03*
X015956Y007295D03*
X015306Y007495D03*
X014456Y008395D03*
X013656Y008845D03*
X012056Y008695D03*
X010656Y008645D03*
X010256Y009145D03*
X012006Y007495D03*
X011106Y006695D03*
X013606Y007495D03*
X016556Y008845D03*
X017856Y008845D03*
X018556Y008845D03*
X019556Y008845D03*
X020306Y008845D03*
X020906Y008595D03*
X021556Y008845D03*
X021556Y010095D03*
X020856Y010795D03*
X020106Y010345D03*
X019206Y010845D03*
X018856Y011395D03*
X018406Y011845D03*
X019756Y011295D03*
X021506Y011995D03*
X023456Y012645D03*
X022456Y013345D03*
X021406Y015345D03*
X021406Y016445D03*
X021406Y017345D03*
X021406Y017995D03*
X021156Y018895D03*
X020456Y019845D03*
X021106Y020045D03*
X020106Y020895D03*
X021106Y021695D03*
X019206Y022595D03*
X018406Y023045D03*
X019156Y023495D03*
X020556Y023045D03*
X017456Y023045D03*
X019456Y025945D03*
X019856Y026445D03*
X018956Y026945D03*
X018156Y027545D03*
X018756Y028445D03*
X019506Y028995D03*
X020106Y028745D03*
X021156Y029095D03*
X020056Y029495D03*
X020056Y030795D03*
X017356Y028745D03*
X016606Y027645D03*
X015906Y027045D03*
X014806Y026645D03*
X013656Y027345D03*
X013006Y027395D03*
X013406Y026445D03*
X012106Y026245D03*
X010306Y027745D03*
X009706Y027995D03*
X010056Y029395D03*
X012556Y028845D03*
X014756Y029195D03*
X014956Y027995D03*
X013006Y030945D03*
X013256Y031545D03*
X010806Y030895D03*
X010056Y030895D03*
X021056Y027345D03*
X022456Y026695D03*
X023956Y026895D03*
X024756Y026095D03*
X028156Y027345D03*
X027656Y028345D03*
X028106Y029445D03*
X028106Y030345D03*
X026306Y029895D03*
X029906Y027495D03*
X031306Y027195D03*
X031306Y026545D03*
X033306Y026745D03*
X034006Y026095D03*
X034756Y026095D03*
X035206Y025545D03*
X035356Y024895D03*
X037106Y025695D03*
X036356Y026095D03*
X036956Y026345D03*
X036506Y027245D03*
X035806Y027945D03*
X035156Y027945D03*
X033906Y027995D03*
X037006Y028745D03*
X035806Y029895D03*
X035156Y029895D03*
X034706Y030345D03*
X033356Y031695D03*
X042056Y024845D03*
X041656Y023745D03*
X043606Y021045D03*
X042306Y019445D03*
X044156Y018945D03*
X043606Y017745D03*
X043606Y016545D03*
X044856Y016295D03*
X045556Y016795D03*
X046856Y015745D03*
X048256Y016795D03*
X049406Y016295D03*
X050256Y017345D03*
X051156Y016295D03*
X052206Y017095D03*
X051056Y018495D03*
X048856Y018245D03*
X048156Y018445D03*
X046206Y017945D03*
X046206Y019545D03*
X048156Y020445D03*
X049006Y020695D03*
X049756Y021645D03*
X049306Y022095D03*
X048556Y022495D03*
X047306Y021745D03*
X045956Y021845D03*
X045756Y023595D03*
X048156Y026845D03*
X049156Y026795D03*
X051056Y025945D03*
X050756Y025345D03*
X052056Y024895D03*
X052506Y025345D03*
X052456Y026095D03*
X051956Y027045D03*
X051556Y027995D03*
X049806Y028945D03*
X049956Y029595D03*
X050306Y030545D03*
X037356Y024145D03*
X033456Y023745D03*
X033456Y022645D03*
X031956Y022645D03*
X031006Y023095D03*
X031356Y023645D03*
X029506Y022845D03*
X027406Y021945D03*
X027456Y020945D03*
X026406Y020945D03*
X025156Y020695D03*
X023906Y020495D03*
X028406Y020495D03*
X029506Y020845D03*
X031156Y018495D03*
X029956Y017295D03*
X030506Y016845D03*
X031256Y016745D03*
X031906Y016695D03*
X030256Y016245D03*
X033256Y014495D03*
X033906Y014695D03*
X033456Y015145D03*
X036006Y014095D03*
X037756Y013145D03*
X038206Y011995D03*
X038856Y010595D03*
X040206Y009645D03*
X040056Y008995D03*
X040106Y008295D03*
X039256Y006695D03*
X038756Y006195D03*
X039256Y005045D03*
X037056Y005945D03*
X037806Y007145D03*
X037056Y008095D03*
X034206Y007295D03*
X032906Y008245D03*
X032356Y008595D03*
X033906Y008545D03*
X033256Y009945D03*
X033706Y010395D03*
X034256Y010745D03*
X032056Y010395D03*
X031006Y010595D03*
X031606Y011895D03*
X030506Y012345D03*
X029106Y011995D03*
X026806Y013095D03*
X026156Y013095D03*
X024356Y011295D03*
X022706Y010545D03*
X024106Y009295D03*
X025006Y009245D03*
X026806Y008795D03*
X027456Y008545D03*
X026556Y007645D03*
X027256Y006945D03*
X026206Y006445D03*
X024956Y005945D03*
X023606Y006445D03*
X023656Y007895D03*
X021706Y006495D03*
X019856Y007695D03*
X018756Y007295D03*
X024956Y004795D03*
X027956Y003545D03*
X031756Y005795D03*
X032356Y005545D03*
X031356Y006845D03*
X029556Y006445D03*
X028756Y007245D03*
X028906Y009245D03*
X030706Y009245D03*
X032806Y012695D03*
X033456Y012845D03*
X033906Y013595D03*
X037006Y015545D03*
X037756Y015545D03*
X039306Y015395D03*
X039706Y014295D03*
X040356Y014195D03*
X041606Y014795D03*
X042106Y013945D03*
X043056Y013345D03*
X044556Y012995D03*
X044606Y013645D03*
X044556Y014795D03*
X040206Y016395D03*
X038256Y017345D03*
X038606Y018345D03*
X039756Y017795D03*
X040206Y018345D03*
X039156Y020145D03*
X039206Y020995D03*
X037256Y018845D03*
X044406Y011445D03*
X040806Y010245D03*
X042556Y008545D03*
X044206Y007295D03*
X044156Y006395D03*
X044806Y006395D03*
X042956Y006695D03*
X047056Y006395D03*
X048356Y007295D03*
X047656Y007895D03*
X049656Y007545D03*
X050756Y007095D03*
X049656Y006645D03*
X048406Y005395D03*
X048756Y004395D03*
X052606Y007495D03*
X054556Y007845D03*
X052156Y009945D03*
X051256Y010045D03*
X050306Y010095D03*
X049256Y009495D03*
X049756Y011095D03*
X050956Y011795D03*
X050706Y012395D03*
X051106Y012895D03*
X049806Y014145D03*
X050256Y014795D03*
X052706Y014495D03*
X053356Y014445D03*
X054056Y014745D03*
X054056Y015395D03*
X054056Y016045D03*
X054056Y016695D03*
X050256Y019995D03*
X054406Y010745D03*
X038256Y003045D03*
X037606Y003045D03*
X036856Y003695D03*
X036956Y001745D03*
X033356Y003345D03*
X032356Y003645D03*
X016756Y011395D03*
X014656Y012745D03*
X013406Y012595D03*
X012556Y012595D03*
X012756Y013895D03*
X012556Y014545D03*
X013106Y015745D03*
X014256Y016845D03*
X015106Y016395D03*
X016706Y016595D03*
X017356Y015945D03*
X018606Y014995D03*
X020106Y014895D03*
X020106Y014245D03*
X014956Y013845D03*
X014306Y013845D03*
X012556Y011045D03*
X012556Y017445D03*
X013756Y017995D03*
X015206Y018145D03*
X011756Y019845D03*
X013156Y020445D03*
X012656Y021345D03*
X011756Y021595D03*
X011706Y022245D03*
X010056Y020595D03*
X011106Y018545D03*
X009056Y017745D03*
X005656Y017745D03*
X005706Y018445D03*
X019156Y019845D03*
M02*
