G75*
G70*
%OFA0B0*%
%FSLAX24Y24*%
%IPPOS*%
%LPD*%
%AMOC8*
5,1,8,0,0,1.08239X$1,22.5*
%
%ADD10C,0.0700*%
%ADD11C,0.0760*%
%ADD12R,0.0512X0.0591*%
%ADD13R,0.0591X0.0512*%
%ADD14C,0.1000*%
%ADD15OC8,0.1000*%
%ADD16R,0.0591X0.0591*%
%ADD17R,0.1200X0.1200*%
%ADD18R,0.0787X0.0787*%
%ADD19C,0.0157*%
%ADD20C,0.0500*%
%ADD21C,0.0591*%
%ADD22C,0.0394*%
%ADD23C,0.0305*%
%ADD24C,0.0492*%
%ADD25R,0.0531X0.0157*%
%ADD26C,0.0500*%
%ADD27C,0.0660*%
%ADD28C,0.1500*%
%ADD29R,0.0500X0.0250*%
%ADD30C,0.0790*%
%ADD31C,0.0160*%
%ADD32C,0.0520*%
%ADD33C,0.0200*%
%ADD34C,0.0320*%
%ADD35C,0.0120*%
D10*
X045706Y009445D03*
X047706Y009445D03*
X050818Y005676D03*
X050818Y004692D03*
X051644Y004692D03*
X052668Y004692D03*
X053495Y004692D03*
X053495Y005676D03*
D11*
X052956Y019095D03*
X051956Y019095D03*
X051956Y020095D03*
X052956Y020095D03*
X052956Y021095D03*
X051956Y021095D03*
X051956Y022095D03*
X052956Y022095D03*
X052956Y023095D03*
X051956Y023095D03*
X051956Y024095D03*
X052956Y024095D03*
X050866Y027395D03*
X049786Y027395D03*
X048706Y027395D03*
X047626Y027395D03*
X046546Y027395D03*
X047086Y028395D03*
X048166Y028395D03*
X049246Y028395D03*
X050326Y028395D03*
D12*
X045480Y021095D03*
X044732Y021095D03*
X044832Y019945D03*
X045580Y019945D03*
X045580Y018945D03*
X044832Y018945D03*
X044832Y017945D03*
X045580Y017945D03*
X047332Y011695D03*
X048080Y011695D03*
X010080Y006445D03*
X009332Y006445D03*
D13*
X023481Y011261D03*
X023481Y012009D03*
X042206Y012571D03*
X042206Y013319D03*
X043206Y012319D03*
X043206Y011571D03*
X046456Y012821D03*
X046456Y013569D03*
X014674Y024882D03*
X014674Y025630D03*
D14*
X006706Y018445D03*
D15*
X006706Y020445D03*
D16*
X011456Y005634D03*
X011456Y004256D03*
X046367Y021095D03*
X047745Y021095D03*
D17*
X027907Y011590D03*
X025899Y011590D03*
X025899Y010094D03*
X027907Y010094D03*
D18*
X011706Y002695D03*
X007714Y009074D03*
D19*
X011198Y011384D02*
X011198Y011542D01*
X011672Y011542D01*
X011672Y011384D01*
X011198Y011384D01*
X011198Y011540D02*
X011672Y011540D01*
X011198Y011817D02*
X011198Y011975D01*
X011672Y011975D01*
X011672Y011817D01*
X011198Y011817D01*
X011198Y011973D02*
X011672Y011973D01*
X011198Y012250D02*
X011198Y012408D01*
X011672Y012408D01*
X011672Y012250D01*
X011198Y012250D01*
X011198Y012406D02*
X011672Y012406D01*
X011198Y012683D02*
X011198Y012841D01*
X011672Y012841D01*
X011672Y012683D01*
X011198Y012683D01*
X011198Y012839D02*
X011672Y012839D01*
X011198Y013116D02*
X011198Y013274D01*
X011672Y013274D01*
X011672Y013116D01*
X011198Y013116D01*
X011198Y013272D02*
X011672Y013272D01*
X011198Y013549D02*
X011198Y013707D01*
X011672Y013707D01*
X011672Y013549D01*
X011198Y013549D01*
X011198Y013705D02*
X011672Y013705D01*
X011198Y013982D02*
X011198Y014140D01*
X011672Y014140D01*
X011672Y013982D01*
X011198Y013982D01*
X011198Y014138D02*
X011672Y014138D01*
X011672Y014416D02*
X011672Y014574D01*
X011672Y014416D02*
X011198Y014416D01*
X011198Y014574D01*
X011672Y014574D01*
X011672Y014572D02*
X011198Y014572D01*
D20*
X009955Y016394D02*
X009955Y016894D01*
X011655Y016894D01*
X011655Y016394D01*
X009955Y016394D01*
X009955Y016893D02*
X011655Y016893D01*
X009600Y010900D02*
X009600Y010400D01*
X009600Y010900D02*
X011300Y010900D01*
X011300Y010400D01*
X009600Y010400D01*
X009600Y010899D02*
X011300Y010899D01*
D21*
X006927Y010945D02*
X006927Y010355D01*
X006927Y010945D02*
X007911Y010945D01*
X007911Y010355D01*
X006927Y010355D01*
X006927Y010945D02*
X007911Y010945D01*
X005254Y010916D02*
X005254Y010326D01*
X005254Y010916D02*
X005844Y010916D01*
X005844Y010326D01*
X005254Y010326D01*
X005254Y010916D02*
X005844Y010916D01*
D22*
X004959Y015976D02*
X004959Y016762D01*
X005351Y016762D01*
X005351Y015976D01*
X004959Y015976D01*
X004959Y016369D02*
X005351Y016369D01*
X005351Y016762D02*
X004959Y016762D01*
D23*
X011095Y015602D02*
X011095Y015276D01*
X011095Y015602D02*
X011401Y015602D01*
X011401Y015276D01*
X011095Y015276D01*
X011095Y015580D02*
X011401Y015580D01*
D24*
X006307Y016398D02*
X006307Y016890D01*
X007783Y016890D01*
X007783Y016398D01*
X006307Y016398D01*
X006307Y016889D02*
X007783Y016889D01*
D25*
X006531Y005207D03*
X006531Y004951D03*
X006531Y004695D03*
X006531Y004439D03*
X006531Y004184D03*
D26*
X006519Y003711D03*
X006519Y005680D03*
D27*
X005456Y006073D03*
X005456Y003317D03*
D28*
X007746Y022493D03*
X006259Y023945D03*
X007746Y025397D03*
X008426Y027075D03*
X006456Y029045D03*
X008426Y031015D03*
X041686Y005165D03*
X043656Y003195D03*
X045626Y005165D03*
D29*
X008757Y004932D03*
X008757Y004459D03*
X007655Y004459D03*
X007655Y004932D03*
D30*
X014964Y009324D03*
X014964Y010324D03*
X015964Y010324D03*
X015964Y014324D03*
X015964Y017324D03*
X015964Y018324D03*
X015964Y019324D03*
X015964Y020324D03*
X014964Y020324D03*
X015964Y021324D03*
X015964Y022324D03*
X014964Y022324D03*
X014964Y023324D03*
X015964Y023324D03*
X016964Y024324D03*
X017964Y024324D03*
X018964Y024324D03*
X019964Y024324D03*
X020964Y024324D03*
X021964Y024324D03*
X022964Y024324D03*
X023964Y024324D03*
X024964Y024324D03*
X025964Y024324D03*
X026964Y024324D03*
X027964Y024324D03*
X028964Y024324D03*
X029964Y024324D03*
X030964Y024324D03*
X031964Y024324D03*
X032964Y024324D03*
X033964Y024324D03*
X033964Y025324D03*
X032964Y025324D03*
X031964Y025324D03*
X030964Y025324D03*
X029964Y025324D03*
X028964Y025324D03*
X027964Y025324D03*
X026964Y025324D03*
X025964Y025324D03*
X024964Y025324D03*
X023964Y025324D03*
X022964Y025324D03*
X021964Y025324D03*
X020964Y025324D03*
X019964Y025324D03*
X018964Y025324D03*
X017964Y025324D03*
X016964Y025324D03*
X034964Y023324D03*
X035964Y023324D03*
X035964Y022324D03*
X034964Y022324D03*
X034964Y021324D03*
X035964Y021324D03*
X034964Y020324D03*
X034964Y019324D03*
X035964Y019324D03*
X035964Y018324D03*
X034964Y018324D03*
X034964Y017324D03*
X035964Y017324D03*
X035964Y016324D03*
X034964Y016324D03*
X034964Y015324D03*
X035964Y015324D03*
X034964Y014324D03*
X034964Y013324D03*
X035964Y013324D03*
X035964Y012324D03*
X034964Y012324D03*
X035964Y011324D03*
X035964Y010324D03*
X034964Y010324D03*
X034964Y009324D03*
X035964Y009324D03*
X035964Y008324D03*
X035964Y007324D03*
X035964Y006324D03*
X034964Y006324D03*
X034964Y007324D03*
X033964Y005324D03*
X033964Y004324D03*
X030964Y004324D03*
X029964Y004324D03*
X028964Y004324D03*
X028964Y005324D03*
X029964Y005324D03*
X027964Y005324D03*
X026964Y004324D03*
X025964Y004324D03*
X025964Y005324D03*
X022964Y004324D03*
X020964Y004324D03*
X020964Y005324D03*
X019964Y005324D03*
X018964Y005324D03*
X017964Y005324D03*
X017964Y004324D03*
X016964Y004324D03*
D31*
X004956Y003095D02*
X004956Y008745D01*
X006306Y010095D01*
X006306Y015795D01*
X005756Y016345D01*
X005756Y016995D01*
X005206Y017545D01*
X005206Y017945D01*
X005706Y018445D01*
X009056Y017745D02*
X009056Y022495D01*
X006806Y024745D01*
X006806Y025745D01*
X007406Y026345D01*
X007406Y031295D01*
X008106Y031995D01*
X032406Y031995D01*
X036956Y027445D01*
X036956Y026345D01*
X036356Y026095D02*
X036356Y025795D01*
X036906Y025245D01*
X037306Y025245D01*
X037606Y025545D01*
X044806Y025545D01*
X046456Y023895D01*
X046456Y023595D01*
X048406Y021645D01*
X049756Y021645D01*
X049306Y022095D02*
X048806Y022095D01*
X048756Y022045D01*
X048356Y022045D01*
X046706Y023695D01*
X046706Y023995D01*
X044906Y025795D01*
X037206Y025795D01*
X037106Y025695D01*
X037706Y025295D02*
X036306Y023895D01*
X035556Y023895D01*
X035006Y023345D01*
X034964Y023324D01*
X034706Y023895D02*
X033906Y023095D01*
X032406Y023095D01*
X031956Y022645D01*
X031006Y023095D02*
X028856Y020945D01*
X027456Y020945D01*
X026406Y020945D02*
X025556Y020945D01*
X024356Y022145D01*
X019006Y022145D01*
X018406Y022745D01*
X018406Y023045D01*
X017956Y022845D02*
X017956Y024295D01*
X017964Y024324D01*
X016964Y024324D02*
X016956Y024345D01*
X016406Y024895D01*
X016406Y025595D01*
X016706Y025895D01*
X017156Y025895D01*
X018656Y027395D01*
X020006Y027395D01*
X021156Y026245D01*
X022656Y026245D01*
X026306Y029895D01*
X026506Y029445D02*
X023956Y026895D01*
X024756Y026095D02*
X027006Y028345D01*
X027656Y028345D01*
X028106Y029445D02*
X026506Y029445D01*
X028106Y030095D02*
X028956Y029245D01*
X028956Y025345D01*
X028964Y025324D01*
X029964Y025324D02*
X030006Y025345D01*
X030756Y026095D01*
X034006Y026095D01*
X034006Y025345D02*
X034756Y026095D01*
X035206Y025545D02*
X034006Y024345D01*
X033964Y024324D01*
X034706Y023895D02*
X035006Y023895D01*
X036256Y025145D01*
X036256Y025545D01*
X035056Y026745D01*
X033306Y026745D01*
X031306Y026545D02*
X030356Y027495D01*
X030356Y029095D01*
X027956Y031495D01*
X014556Y031495D01*
X012106Y029045D01*
X012106Y026245D01*
X012556Y026045D02*
X012206Y025695D01*
X012206Y023395D01*
X011256Y022445D01*
X011256Y021445D01*
X011806Y020895D01*
X015406Y020895D01*
X015956Y020345D01*
X015964Y020324D01*
X015964Y019324D02*
X015956Y019295D01*
X015706Y019295D01*
X015006Y018595D01*
X013156Y020445D01*
X012656Y021345D02*
X014006Y021345D01*
X014956Y022295D01*
X014964Y022324D01*
X014956Y023295D02*
X013956Y023295D01*
X012256Y021595D01*
X011756Y021595D01*
X011006Y021245D02*
X013756Y018495D01*
X013756Y017995D01*
X013806Y017395D02*
X015006Y018595D01*
X015206Y018145D02*
X015206Y017295D01*
X015756Y016745D01*
X016206Y016745D01*
X019156Y019695D01*
X019156Y019845D01*
X020456Y019845D02*
X020706Y019595D01*
X021106Y019595D01*
X021606Y019095D01*
X021606Y018695D01*
X021406Y018495D01*
X021406Y017995D01*
X022056Y017995D02*
X021406Y017345D01*
X022006Y016895D02*
X018306Y016895D01*
X017356Y015945D01*
X016906Y016145D02*
X016006Y016145D01*
X015306Y016845D01*
X014256Y016845D01*
X013806Y017395D02*
X013806Y015795D01*
X012556Y014545D01*
X012106Y014345D02*
X012106Y017545D01*
X011106Y018545D01*
X011756Y018895D02*
X011756Y019845D01*
X010756Y019545D02*
X010756Y028695D01*
X013006Y030945D01*
X013256Y031545D02*
X011456Y031545D01*
X010806Y030895D01*
X010806Y029095D01*
X009706Y027995D01*
X010306Y027745D02*
X010506Y027545D01*
X010506Y018095D01*
X008906Y016495D01*
X008906Y010695D01*
X008106Y009895D01*
X007506Y009895D01*
X007156Y009545D01*
X007156Y007045D01*
X005806Y005695D01*
X005806Y003795D01*
X007506Y002095D01*
X012706Y002095D01*
X012806Y002195D01*
X037156Y002195D01*
X037456Y001895D01*
X043656Y001895D01*
X044306Y002545D01*
X046206Y002545D01*
X050306Y006645D01*
X052456Y006645D01*
X054856Y009045D01*
X054856Y015245D01*
X054056Y016045D01*
X054056Y015395D02*
X054156Y015395D01*
X054606Y014945D01*
X054606Y010945D01*
X054406Y010745D01*
X051706Y009845D02*
X051706Y011945D01*
X051256Y012395D01*
X051556Y012695D01*
X051556Y015245D01*
X050706Y016095D01*
X050706Y018195D01*
X050606Y018295D01*
X050606Y019695D01*
X051056Y020145D01*
X051056Y023995D01*
X051956Y024895D01*
X052056Y024895D01*
X052506Y025345D02*
X050756Y025345D01*
X050356Y025095D02*
X050306Y025145D01*
X050306Y026045D01*
X052006Y027745D01*
X052006Y028195D01*
X048506Y031695D01*
X033356Y031695D01*
X032006Y031745D02*
X014456Y031745D01*
X011006Y028295D01*
X011006Y021245D01*
X010756Y019545D02*
X012556Y017745D01*
X012556Y017445D01*
X013406Y017245D02*
X013406Y016845D01*
X013106Y016545D01*
X013106Y015745D01*
X012106Y014345D02*
X012556Y013895D01*
X012756Y013895D01*
X011956Y014045D02*
X013406Y012595D01*
X013006Y011445D02*
X013006Y008095D01*
X013606Y007495D01*
X014456Y008395D02*
X015756Y008395D01*
X016006Y008145D01*
X020056Y008145D01*
X021706Y006495D01*
X021756Y006445D01*
X023606Y006445D01*
X024956Y005945D02*
X021606Y005945D01*
X021306Y006245D01*
X017656Y006245D01*
X016706Y005295D01*
X016406Y005295D01*
X015006Y005045D02*
X014606Y005045D01*
X015006Y005045D02*
X017256Y007295D01*
X018756Y007295D01*
X019806Y007745D02*
X019856Y007695D01*
X019806Y007745D02*
X015756Y007745D01*
X015506Y007495D01*
X015306Y007495D01*
X015956Y007295D02*
X014156Y005495D01*
X013456Y006295D02*
X012306Y006295D01*
X009556Y009045D01*
X007756Y009045D01*
X007714Y009074D01*
X009156Y010245D02*
X010256Y009145D01*
X009156Y010245D02*
X009156Y011595D01*
X011156Y013595D01*
X011406Y013595D01*
X011435Y013628D01*
X011456Y014045D02*
X011435Y014061D01*
X011456Y014045D02*
X011956Y014045D01*
X011706Y012745D02*
X011456Y012745D01*
X011435Y012762D01*
X011706Y012745D02*
X013006Y011445D01*
X012056Y011495D02*
X011656Y011895D01*
X011456Y011895D01*
X011435Y011896D01*
X012056Y011495D02*
X012056Y008695D01*
X013656Y008845D02*
X014656Y008845D01*
X014856Y008645D01*
X016106Y008645D01*
X016356Y008395D01*
X020456Y008395D01*
X020706Y008145D01*
X023256Y008145D01*
X023456Y008345D01*
X025206Y008345D01*
X026356Y007195D01*
X026856Y007195D01*
X027056Y007395D01*
X027956Y007395D01*
X029456Y005895D01*
X031656Y005895D01*
X031756Y005795D01*
X032356Y005845D02*
X032356Y005545D01*
X032356Y005845D02*
X031356Y006845D01*
X031406Y007495D02*
X032806Y006095D01*
X032806Y003445D01*
X032556Y003195D01*
X028956Y003195D01*
X026206Y005945D01*
X026206Y006445D01*
X025406Y006145D02*
X025406Y004095D01*
X025956Y003545D01*
X027956Y003545D01*
X028756Y003745D02*
X029406Y003745D01*
X029956Y004295D01*
X029964Y004324D01*
X028756Y003745D02*
X027106Y005395D01*
X027106Y006195D01*
X027256Y006345D01*
X027256Y006945D01*
X026556Y007645D02*
X027456Y008545D01*
X026806Y008795D02*
X023556Y008795D01*
X023156Y008395D01*
X021356Y008395D01*
X021156Y008595D01*
X020906Y008595D01*
X020306Y008845D02*
X021556Y010095D01*
X021256Y010545D02*
X019556Y008845D01*
X017856Y008845D02*
X016556Y008845D01*
X019206Y010845D02*
X020806Y010845D01*
X020856Y010795D01*
X021256Y010545D02*
X022706Y010545D01*
X022006Y009295D02*
X021556Y008845D01*
X022006Y009295D02*
X024106Y009295D01*
X025006Y009245D02*
X025056Y009245D01*
X025856Y010045D01*
X025899Y010094D01*
X023656Y007895D02*
X025406Y006145D01*
X031406Y007495D02*
X031406Y009445D01*
X032056Y010095D01*
X032056Y010395D01*
X033256Y009945D02*
X033256Y008545D01*
X034206Y007595D01*
X034206Y007295D01*
X034506Y006345D02*
X032906Y007945D01*
X032906Y008245D01*
X032356Y008145D02*
X032356Y008595D01*
X032356Y008145D02*
X034756Y005745D01*
X036206Y005745D01*
X036556Y006095D01*
X036556Y013545D01*
X036006Y014095D01*
X036006Y014745D02*
X035556Y014745D01*
X035006Y015295D01*
X034964Y015324D01*
X034956Y016295D02*
X033906Y015245D01*
X033906Y014695D01*
X034256Y014045D02*
X034956Y013345D01*
X034964Y013324D01*
X033906Y013595D02*
X033906Y011595D01*
X031656Y009345D01*
X031656Y008145D01*
X033056Y006745D01*
X033056Y004445D01*
X034256Y003245D01*
X037156Y003245D01*
X038956Y005045D01*
X039256Y005045D01*
X038706Y005495D02*
X034656Y005495D01*
X031906Y008245D01*
X031906Y009245D01*
X034956Y012295D01*
X034964Y012324D01*
X033456Y012695D02*
X033456Y012845D01*
X033456Y012695D02*
X033006Y012245D01*
X032606Y012245D01*
X031306Y013545D01*
X026606Y013545D01*
X026156Y013095D01*
X026806Y013095D02*
X030406Y013095D01*
X031606Y011895D01*
X032506Y012695D02*
X031406Y013795D01*
X022256Y013795D01*
X019756Y011295D01*
X019206Y011395D02*
X021656Y013845D01*
X021956Y013845D01*
X022156Y014045D01*
X034256Y014045D01*
X033256Y014495D02*
X033056Y014295D01*
X022056Y014295D01*
X021856Y014095D01*
X021256Y014095D01*
X019006Y011845D01*
X018406Y011845D01*
X018856Y011395D02*
X019206Y011395D01*
X016756Y011395D02*
X014306Y013845D01*
X014956Y013845D02*
X015606Y013195D01*
X018406Y013195D01*
X020106Y014895D01*
X020656Y015445D02*
X021206Y014895D01*
X032556Y014895D01*
X034956Y017295D01*
X034964Y017324D01*
X035964Y017324D02*
X036006Y017295D01*
X036556Y016745D01*
X036556Y015345D01*
X037756Y014145D01*
X037756Y013145D01*
X037306Y013795D02*
X037306Y011495D01*
X039806Y008995D01*
X040056Y008995D01*
X040556Y009145D02*
X040556Y007995D01*
X039256Y006695D01*
X038706Y005495D02*
X041256Y008045D01*
X041256Y013745D01*
X041906Y014395D01*
X042106Y014395D01*
X045556Y017845D01*
X045556Y017945D01*
X045580Y017945D01*
X045906Y018445D02*
X044856Y018445D01*
X044856Y017945D01*
X044832Y017945D01*
X044856Y018445D02*
X044856Y018895D01*
X044832Y018945D01*
X044156Y018945D01*
X045156Y019445D02*
X042306Y019445D01*
X043406Y020595D02*
X042106Y021895D01*
X042106Y023945D01*
X041856Y024195D01*
X039906Y024195D01*
X039056Y023345D01*
X036006Y023345D01*
X035964Y023324D01*
X034964Y022324D02*
X034956Y022295D01*
X031156Y018495D01*
X029956Y019145D02*
X033456Y022645D01*
X033456Y023745D02*
X034206Y023745D01*
X035356Y024895D01*
X034006Y025345D02*
X033964Y025324D01*
X032964Y024324D02*
X032956Y024295D01*
X029506Y020845D01*
X028406Y020495D02*
X025606Y020495D01*
X022006Y016895D01*
X021406Y016445D02*
X021406Y015345D01*
X020656Y015445D02*
X016356Y015445D01*
X015406Y016395D01*
X015106Y016395D01*
X016706Y016595D02*
X016706Y016745D01*
X020456Y020495D01*
X023906Y020495D01*
X024356Y020695D02*
X023806Y021245D01*
X020406Y021245D01*
X020006Y021645D01*
X018206Y021645D01*
X016556Y023295D01*
X016556Y023595D01*
X015906Y024245D01*
X015906Y027045D01*
X016406Y027195D02*
X016806Y027195D01*
X018056Y028445D01*
X018756Y028445D01*
X018956Y027995D02*
X019506Y028545D01*
X019506Y028995D01*
X018956Y027995D02*
X017956Y027995D01*
X016156Y026195D01*
X016156Y024345D01*
X017456Y023045D01*
X017956Y022845D02*
X018906Y021895D01*
X020106Y021895D01*
X020306Y021695D01*
X021106Y021695D01*
X020106Y022595D02*
X019206Y022595D01*
X020106Y022595D02*
X020556Y023045D01*
X019156Y023495D02*
X025456Y023495D01*
X027006Y021945D01*
X027406Y021945D01*
X026906Y022395D02*
X025006Y024295D01*
X024964Y024324D01*
X026906Y022395D02*
X029706Y022395D01*
X029956Y022645D01*
X029956Y022695D01*
X030906Y023645D01*
X031356Y023645D01*
X030956Y024295D02*
X030964Y024324D01*
X030956Y024295D02*
X029506Y022845D01*
X025156Y020695D02*
X024356Y020695D01*
X022056Y019195D02*
X021206Y020045D01*
X021106Y020045D01*
X022056Y019195D02*
X022056Y017995D01*
X021156Y018895D02*
X019656Y018895D01*
X016906Y016145D01*
X013406Y017245D02*
X011756Y018895D01*
X014956Y023295D02*
X014964Y023324D01*
X015956Y023345D02*
X015964Y023324D01*
X015956Y023345D02*
X014706Y024595D01*
X014706Y024845D01*
X014674Y024882D01*
X012556Y026045D02*
X012556Y028845D01*
X013006Y028095D02*
X016156Y031245D01*
X027856Y031245D01*
X029906Y029195D01*
X029906Y027495D01*
X028106Y030095D02*
X028106Y030345D01*
X032006Y031745D02*
X035806Y027945D01*
X037006Y028745D02*
X038806Y026945D01*
X043706Y026945D01*
X043806Y026845D01*
X048156Y026845D01*
X048356Y026395D02*
X043906Y026395D01*
X043606Y026695D01*
X038406Y026695D01*
X035806Y029295D01*
X035806Y029895D01*
X036006Y030345D02*
X034706Y030345D01*
X035156Y029895D02*
X035156Y029595D01*
X038606Y026145D01*
X044906Y026145D01*
X048556Y022495D01*
X049006Y020695D02*
X046206Y023495D01*
X046206Y023795D01*
X044706Y025295D01*
X037706Y025295D01*
X037356Y024145D02*
X039506Y024145D01*
X040206Y024845D01*
X042056Y024845D01*
X045756Y023595D02*
X045756Y022045D01*
X045956Y021845D01*
X046367Y021095D02*
X045480Y021095D01*
X044732Y021095D02*
X043656Y021095D01*
X043606Y021045D01*
X043406Y020595D02*
X047156Y020595D01*
X050256Y017495D01*
X050256Y017345D01*
X051056Y018245D02*
X052206Y017095D01*
X051056Y018245D02*
X051056Y018495D01*
X048856Y018245D02*
X048556Y017945D01*
X048556Y017895D01*
X051106Y015345D01*
X051106Y012895D01*
X051256Y012395D02*
X050706Y012395D01*
X050956Y011795D02*
X050306Y011145D01*
X050306Y010095D01*
X049956Y009795D02*
X049956Y009195D01*
X049106Y008345D01*
X043106Y008345D01*
X040456Y005695D01*
X040456Y005245D01*
X038256Y003045D01*
X037256Y003695D02*
X036856Y003695D01*
X037256Y003695D02*
X041506Y007945D01*
X041506Y013445D01*
X042006Y013945D01*
X042106Y013945D01*
X040356Y014195D02*
X040356Y012095D01*
X038856Y010595D01*
X040206Y009645D02*
X040206Y009495D01*
X040556Y009145D01*
X040106Y008295D02*
X036806Y011595D01*
X036806Y013945D01*
X036006Y014745D01*
X036006Y015095D02*
X037306Y013795D01*
X038206Y015095D02*
X037756Y015545D01*
X038206Y015095D02*
X038206Y011995D01*
X040806Y010245D02*
X040806Y015145D01*
X039756Y016195D01*
X039756Y017795D01*
X040206Y018345D02*
X040206Y016395D01*
X038256Y017345D02*
X038256Y018045D01*
X038056Y018245D01*
X038056Y019245D01*
X036006Y021295D01*
X035964Y021324D01*
X034964Y021324D02*
X034956Y021295D01*
X030506Y016845D01*
X029956Y017295D02*
X029956Y019145D01*
X030256Y016245D02*
X032906Y016245D01*
X034956Y018295D01*
X034964Y018324D01*
X035964Y018324D02*
X036006Y018295D01*
X037006Y017295D01*
X037006Y015545D01*
X036006Y015295D02*
X035964Y015324D01*
X036006Y015295D02*
X036006Y015095D01*
X034956Y016295D02*
X034964Y016324D01*
X032806Y012695D02*
X032506Y012695D01*
X034256Y010745D02*
X034256Y009045D01*
X035956Y007345D01*
X035964Y007324D01*
X034956Y006345D02*
X034964Y006324D01*
X034956Y006345D02*
X034506Y006345D01*
X037056Y005945D02*
X037056Y008095D01*
X033906Y008545D02*
X033906Y010195D01*
X033706Y010395D01*
X042206Y012495D02*
X042206Y012571D01*
X042206Y012495D02*
X043106Y011595D01*
X043206Y011595D01*
X043206Y011571D01*
X043256Y011545D01*
X043356Y011445D01*
X044406Y011445D01*
X044856Y011245D02*
X044856Y012045D01*
X044106Y012795D01*
X044106Y014345D01*
X044556Y014795D01*
X046856Y015745D02*
X048506Y014095D01*
X048506Y010445D01*
X049006Y009945D01*
X049456Y009945D01*
X049706Y009695D01*
X049706Y009295D01*
X049006Y008595D01*
X047406Y008595D01*
X046556Y009445D01*
X045706Y009445D01*
X044856Y011245D02*
X042556Y008945D01*
X042556Y008545D01*
X042906Y007295D02*
X042506Y006895D01*
X042506Y005845D01*
X044106Y004245D01*
X047256Y004245D01*
X048406Y005395D01*
X048956Y005945D02*
X049656Y006645D01*
X049206Y006845D02*
X043106Y006845D01*
X042956Y006695D01*
X042906Y007295D02*
X044206Y007295D01*
X044156Y006395D02*
X044606Y005945D01*
X045106Y005945D01*
X045256Y006095D01*
X046706Y006095D01*
X046856Y005945D01*
X048956Y005945D01*
X048756Y004395D02*
X050556Y006195D01*
X050856Y006195D01*
X050906Y006245D01*
X052956Y006245D01*
X054556Y007845D01*
X052606Y007495D02*
X052606Y013045D01*
X054056Y014495D01*
X054056Y014745D01*
X054056Y016695D02*
X054056Y025145D01*
X052656Y026545D01*
X052256Y026545D01*
X051656Y025945D01*
X051056Y025945D01*
X050356Y025095D02*
X050356Y021295D01*
X050256Y021195D01*
X050256Y019995D01*
X048156Y018445D02*
X046006Y018445D01*
X045956Y018495D01*
X045906Y018445D01*
X045956Y018495D02*
X046006Y018545D01*
X046006Y019495D01*
X046206Y019545D01*
X046006Y019545D01*
X045606Y019945D01*
X045580Y019945D01*
X045156Y019445D02*
X045556Y019045D01*
X045556Y018945D01*
X045580Y018945D01*
X044832Y019945D02*
X040256Y019945D01*
X039206Y020995D01*
X043606Y017745D02*
X043606Y016545D01*
X045556Y016795D02*
X048256Y016795D01*
X048556Y017945D02*
X046206Y017945D01*
X050256Y014795D02*
X050256Y011895D01*
X049756Y011395D01*
X049756Y011095D01*
X049306Y011295D02*
X049306Y010445D01*
X049956Y009795D01*
X051706Y009845D02*
X049656Y007795D01*
X049656Y007545D01*
X049456Y007095D02*
X049206Y006845D01*
X049456Y007095D02*
X050756Y007095D01*
X047056Y006395D02*
X044806Y006395D01*
X049306Y011295D02*
X049806Y011795D01*
X049806Y014145D01*
X046456Y012845D02*
X046456Y012821D01*
X046456Y012845D02*
X044706Y012845D01*
X044556Y012995D01*
X033964Y004324D02*
X033956Y004295D01*
X036956Y001745D02*
X006306Y001745D01*
X004956Y003095D01*
X010080Y006445D02*
X010106Y006445D01*
X010906Y005645D01*
X011456Y005645D01*
X011456Y005634D01*
X014806Y003545D02*
X017206Y003545D01*
X017964Y025324D02*
X018006Y025345D01*
X018606Y025945D01*
X019456Y025945D01*
X019856Y026445D02*
X020956Y025345D01*
X020964Y025324D01*
X022456Y026695D02*
X022456Y027495D01*
X021156Y028795D01*
X021156Y029095D01*
X020056Y030795D02*
X016906Y027645D01*
X016606Y027645D01*
X016406Y027195D02*
X015156Y028445D01*
X014756Y028445D01*
X013656Y027345D01*
X013006Y027395D02*
X013006Y028095D01*
X014756Y029195D02*
X016906Y029195D01*
X017356Y028745D01*
X014956Y027995D02*
X013406Y026445D01*
X036006Y030345D02*
X036756Y029595D01*
X049956Y029595D01*
X049156Y026795D02*
X048756Y026795D01*
X048356Y026395D01*
D32*
X048156Y026845D03*
X049156Y026795D03*
X051056Y025945D03*
X050756Y025345D03*
X052056Y024895D03*
X052506Y025345D03*
X052456Y026095D03*
X051956Y027045D03*
X051556Y027995D03*
X049806Y028945D03*
X049956Y029595D03*
X050306Y030545D03*
X042056Y024845D03*
X041656Y023745D03*
X043606Y021045D03*
X042306Y019445D03*
X044156Y018945D03*
X043606Y017745D03*
X043606Y016545D03*
X044856Y016295D03*
X045556Y016795D03*
X046856Y015745D03*
X048256Y016795D03*
X049406Y016295D03*
X050256Y017345D03*
X051156Y016295D03*
X052206Y017095D03*
X051056Y018495D03*
X048856Y018245D03*
X048156Y018445D03*
X046206Y017945D03*
X046206Y019545D03*
X048156Y020445D03*
X049006Y020695D03*
X049756Y021645D03*
X049306Y022095D03*
X048556Y022495D03*
X047306Y021745D03*
X045956Y021845D03*
X045756Y023595D03*
X050256Y019995D03*
X054056Y016695D03*
X054056Y016045D03*
X054056Y015395D03*
X054056Y014745D03*
X053356Y014445D03*
X052706Y014495D03*
X050256Y014795D03*
X049806Y014145D03*
X051106Y012895D03*
X050706Y012395D03*
X050956Y011795D03*
X049756Y011095D03*
X050306Y010095D03*
X051256Y010045D03*
X052156Y009945D03*
X054406Y010745D03*
X054556Y007845D03*
X052606Y007495D03*
X050756Y007095D03*
X049656Y006645D03*
X048356Y007295D03*
X047656Y007895D03*
X047056Y006395D03*
X048406Y005395D03*
X048756Y004395D03*
X044806Y006395D03*
X044156Y006395D03*
X044206Y007295D03*
X042956Y006695D03*
X042556Y008545D03*
X040806Y010245D03*
X040206Y009645D03*
X040056Y008995D03*
X040106Y008295D03*
X039256Y006695D03*
X038756Y006195D03*
X039256Y005045D03*
X037056Y005945D03*
X037806Y007145D03*
X037056Y008095D03*
X034206Y007295D03*
X032906Y008245D03*
X032356Y008595D03*
X033906Y008545D03*
X033256Y009945D03*
X033706Y010395D03*
X034256Y010745D03*
X032056Y010395D03*
X031006Y010595D03*
X031606Y011895D03*
X030506Y012345D03*
X029106Y011995D03*
X026806Y013095D03*
X026156Y013095D03*
X024356Y011295D03*
X022706Y010545D03*
X021556Y010095D03*
X020856Y010795D03*
X020106Y010345D03*
X019206Y010845D03*
X018856Y011395D03*
X018406Y011845D03*
X019756Y011295D03*
X021506Y011995D03*
X023456Y012645D03*
X022456Y013345D03*
X021406Y015345D03*
X021406Y016445D03*
X021406Y017345D03*
X021406Y017995D03*
X021156Y018895D03*
X020456Y019845D03*
X021106Y020045D03*
X020106Y020895D03*
X021106Y021695D03*
X019206Y022595D03*
X018406Y023045D03*
X019156Y023495D03*
X020556Y023045D03*
X017456Y023045D03*
X019456Y025945D03*
X019856Y026445D03*
X018956Y026945D03*
X018156Y027545D03*
X018756Y028445D03*
X019506Y028995D03*
X020106Y028745D03*
X021156Y029095D03*
X020056Y029495D03*
X020056Y030795D03*
X017356Y028745D03*
X016606Y027645D03*
X015906Y027045D03*
X014806Y026645D03*
X013656Y027345D03*
X013006Y027395D03*
X013406Y026445D03*
X012106Y026245D03*
X010306Y027745D03*
X009706Y027995D03*
X010056Y029395D03*
X012556Y028845D03*
X014756Y029195D03*
X014956Y027995D03*
X013006Y030945D03*
X013256Y031545D03*
X010806Y030895D03*
X010056Y030895D03*
X021056Y027345D03*
X022456Y026695D03*
X023956Y026895D03*
X024756Y026095D03*
X028156Y027345D03*
X027656Y028345D03*
X028106Y029445D03*
X028106Y030345D03*
X026306Y029895D03*
X029906Y027495D03*
X031306Y027195D03*
X031306Y026545D03*
X033306Y026745D03*
X034006Y026095D03*
X034756Y026095D03*
X035206Y025545D03*
X035356Y024895D03*
X037106Y025695D03*
X036356Y026095D03*
X036956Y026345D03*
X036506Y027245D03*
X035806Y027945D03*
X035156Y027945D03*
X033906Y027995D03*
X037006Y028745D03*
X035806Y029895D03*
X035156Y029895D03*
X034706Y030345D03*
X033356Y031695D03*
X037356Y024145D03*
X033456Y023745D03*
X033456Y022645D03*
X031956Y022645D03*
X031006Y023095D03*
X031356Y023645D03*
X029506Y022845D03*
X027406Y021945D03*
X027456Y020945D03*
X026406Y020945D03*
X025156Y020695D03*
X023906Y020495D03*
X028406Y020495D03*
X029506Y020845D03*
X031156Y018495D03*
X029956Y017295D03*
X030506Y016845D03*
X031256Y016745D03*
X031906Y016695D03*
X030256Y016245D03*
X033256Y014495D03*
X033906Y014695D03*
X033456Y015145D03*
X036006Y014095D03*
X037756Y013145D03*
X038206Y011995D03*
X038856Y010595D03*
X043056Y013345D03*
X042106Y013945D03*
X041606Y014795D03*
X040356Y014195D03*
X039706Y014295D03*
X039306Y015395D03*
X040206Y016395D03*
X038256Y017345D03*
X038606Y018345D03*
X039756Y017795D03*
X040206Y018345D03*
X039156Y020145D03*
X039206Y020995D03*
X037256Y018845D03*
X037006Y015545D03*
X037756Y015545D03*
X033906Y013595D03*
X033456Y012845D03*
X032806Y012695D03*
X030706Y009245D03*
X028906Y009245D03*
X027456Y008545D03*
X026806Y008795D03*
X025006Y009245D03*
X024106Y009295D03*
X023656Y007895D03*
X023606Y006445D03*
X024956Y005945D03*
X026206Y006445D03*
X027256Y006945D03*
X026556Y007645D03*
X028756Y007245D03*
X029556Y006445D03*
X031356Y006845D03*
X031756Y005795D03*
X032356Y005545D03*
X032356Y003645D03*
X033356Y003345D03*
X036856Y003695D03*
X037606Y003045D03*
X038256Y003045D03*
X036956Y001745D03*
X027956Y003545D03*
X024956Y004795D03*
X021706Y006495D03*
X019856Y007695D03*
X018756Y007295D03*
X020906Y008595D03*
X020306Y008845D03*
X019556Y008845D03*
X018556Y008845D03*
X017856Y008845D03*
X016556Y008845D03*
X014456Y008395D03*
X013656Y008845D03*
X012056Y008695D03*
X010656Y008645D03*
X010256Y009145D03*
X012006Y007495D03*
X011106Y006695D03*
X013456Y006295D03*
X014156Y005495D03*
X014606Y005045D03*
X016406Y005295D03*
X017206Y003545D03*
X014806Y003545D03*
X012506Y002545D03*
X010906Y002695D03*
X007706Y003945D03*
X010306Y004695D03*
X012106Y004945D03*
X015956Y007295D03*
X015306Y007495D03*
X013606Y007495D03*
X012556Y011045D03*
X012556Y012595D03*
X013406Y012595D03*
X014656Y012745D03*
X014956Y013845D03*
X014306Y013845D03*
X012756Y013895D03*
X012556Y014545D03*
X013106Y015745D03*
X014256Y016845D03*
X015106Y016395D03*
X016706Y016595D03*
X017356Y015945D03*
X018606Y014995D03*
X020106Y014895D03*
X020106Y014245D03*
X016756Y011395D03*
X021556Y008845D03*
X012556Y017445D03*
X013756Y017995D03*
X015206Y018145D03*
X011756Y019845D03*
X013156Y020445D03*
X012656Y021345D03*
X011756Y021595D03*
X011706Y022245D03*
X010056Y020595D03*
X011106Y018545D03*
X009056Y017745D03*
X005656Y017745D03*
X005706Y018445D03*
X019156Y019845D03*
X044556Y014795D03*
X044606Y013645D03*
X044556Y012995D03*
X044406Y011445D03*
X049256Y009495D03*
X049656Y007545D03*
D33*
X048556Y007345D02*
X051256Y010045D01*
X052156Y009945D02*
X052156Y013245D01*
X053356Y014445D01*
X053356Y015795D01*
X053556Y015995D01*
X053556Y024995D01*
X052456Y026095D01*
X051956Y027045D02*
X051956Y027295D01*
X052306Y027645D01*
X052306Y028545D01*
X050306Y030545D01*
X050106Y028995D02*
X050556Y028995D01*
X051556Y027995D01*
X050106Y028995D02*
X050056Y028945D01*
X049806Y028945D01*
X051956Y024095D02*
X051356Y023495D01*
X051356Y018895D01*
X052706Y017545D01*
X052706Y016295D01*
X051156Y016295D01*
X052706Y016295D02*
X052706Y014495D01*
X049406Y016295D02*
X044856Y016295D01*
X044256Y015595D02*
X043106Y014445D01*
X043106Y013395D01*
X043056Y013345D01*
X042206Y013345D01*
X042206Y013319D01*
X043206Y012319D02*
X043206Y012295D01*
X043556Y012295D01*
X043556Y014395D01*
X044056Y014895D01*
X044056Y014995D01*
X044356Y015295D01*
X044756Y015295D01*
X045756Y014295D01*
X045756Y013645D01*
X044606Y013645D01*
X045756Y013645D02*
X045756Y013595D01*
X045806Y013545D01*
X046456Y013545D01*
X046456Y013569D01*
X046506Y013495D01*
X046606Y013495D01*
X047306Y012795D01*
X047306Y011795D01*
X047332Y011695D01*
X047306Y011595D01*
X047156Y011445D01*
X047156Y009245D01*
X047506Y008895D01*
X047906Y008895D01*
X048506Y009495D01*
X049256Y009495D01*
X048056Y009795D02*
X047706Y009445D01*
X048056Y009795D02*
X048056Y011695D01*
X048080Y011695D01*
X048156Y011745D01*
X048156Y013745D01*
X046306Y015595D01*
X044256Y015595D01*
X041606Y014795D02*
X041606Y017695D01*
X039156Y020145D01*
X038656Y021145D02*
X038656Y018395D01*
X038606Y018345D01*
X039306Y017645D01*
X039306Y015395D01*
X039706Y014295D02*
X037756Y016245D01*
X037756Y017345D01*
X036006Y019095D01*
X036006Y019295D01*
X035964Y019324D01*
X036156Y019945D02*
X035656Y019945D01*
X035056Y019345D01*
X034964Y019324D01*
X034906Y019245D01*
X034456Y019245D01*
X031906Y016695D01*
X031256Y016745D02*
X034806Y020295D01*
X034956Y020295D01*
X034964Y020324D01*
X036156Y019945D02*
X037256Y018845D01*
X038656Y021145D02*
X041256Y023745D01*
X041656Y023745D01*
X047306Y021745D02*
X047306Y021495D01*
X047706Y021095D01*
X047745Y021095D01*
X047806Y021045D01*
X047806Y020795D01*
X048156Y020445D01*
X036506Y027245D02*
X033106Y027245D01*
X033056Y027195D01*
X031306Y027195D01*
X033906Y027995D02*
X035106Y027995D01*
X035156Y027945D01*
X028156Y027345D02*
X027006Y027345D01*
X025006Y025345D01*
X024964Y025324D01*
X024906Y025395D01*
X024706Y025395D01*
X024156Y025945D01*
X021456Y025945D01*
X021406Y025895D01*
X021356Y025945D01*
X021056Y025945D01*
X020056Y026945D01*
X018956Y026945D01*
X019056Y027695D02*
X018556Y027695D01*
X018406Y027545D01*
X018156Y027545D01*
X019056Y027695D02*
X020106Y028745D01*
X020056Y029495D02*
X021056Y028495D01*
X021056Y027345D01*
X021406Y025895D02*
X021956Y025345D01*
X021964Y025324D01*
X020106Y020895D02*
X019506Y020895D01*
X015956Y017345D01*
X015964Y017324D01*
X018606Y014995D02*
X017956Y014345D01*
X016056Y014345D01*
X015964Y014324D01*
X014656Y012745D02*
X014006Y012095D01*
X013206Y012095D01*
X012756Y012545D01*
X012606Y012545D01*
X012556Y012595D01*
X011956Y013195D01*
X011435Y013195D01*
X011435Y012329D02*
X011406Y012295D01*
X011106Y012295D01*
X010906Y012095D01*
X010906Y011695D01*
X011106Y011495D01*
X011406Y011495D01*
X011435Y011463D01*
X011506Y011395D01*
X011756Y011145D01*
X011756Y009095D01*
X011556Y008895D01*
X011556Y008645D01*
X010656Y008645D01*
X011556Y008645D02*
X011556Y007945D01*
X012006Y007495D01*
X012556Y007845D02*
X013606Y006795D01*
X013656Y006795D01*
X013956Y006495D01*
X013956Y006095D01*
X013656Y005795D01*
X012156Y005795D01*
X011306Y006645D01*
X011156Y006645D01*
X011106Y006695D01*
X010656Y006695D01*
X010406Y006945D01*
X009756Y006945D01*
X009306Y006495D01*
X009332Y006445D01*
X009356Y006445D01*
X009356Y004995D01*
X009306Y004945D01*
X008806Y004945D01*
X008757Y004932D01*
X008656Y004945D01*
X008256Y004945D01*
X008206Y004895D01*
X008206Y004095D01*
X008056Y003945D01*
X007706Y003945D01*
X007606Y004445D02*
X007156Y004445D01*
X006856Y004145D01*
X006556Y004145D01*
X007606Y004445D02*
X007655Y004459D01*
X007655Y004932D02*
X007606Y004945D01*
X007156Y004945D01*
X006856Y005245D01*
X006556Y005245D01*
X008757Y004459D02*
X008806Y004445D01*
X010306Y004445D01*
X010306Y004695D01*
X010306Y004445D02*
X011306Y004445D01*
X011456Y004295D01*
X011456Y004256D01*
X011556Y004245D01*
X016906Y004245D01*
X016964Y004324D01*
X017056Y004295D01*
X017156Y004295D01*
X017706Y003745D01*
X019406Y003745D01*
X020056Y004395D01*
X020706Y003745D01*
X023906Y003745D01*
X024956Y004795D01*
X025964Y004324D02*
X026006Y004345D01*
X026956Y004345D01*
X026964Y004324D01*
X027964Y005324D02*
X028006Y005295D01*
X028956Y004345D01*
X028964Y004324D01*
X030964Y004324D02*
X031006Y004295D01*
X031656Y003645D01*
X032356Y003645D01*
X033356Y003345D02*
X033756Y002945D01*
X037256Y002945D01*
X037356Y003045D01*
X037606Y003045D01*
X038456Y002545D02*
X012506Y002545D01*
X011706Y002695D02*
X011406Y002745D01*
X011406Y004195D01*
X011456Y004256D01*
X012106Y004945D02*
X014006Y004945D01*
X014406Y004545D01*
X016356Y004545D01*
X017756Y005945D01*
X018356Y005945D01*
X018956Y005345D01*
X018964Y005324D01*
X020056Y004395D02*
X020956Y005295D01*
X020964Y005324D01*
X018556Y008845D02*
X018056Y009345D01*
X015006Y009345D01*
X014964Y009324D01*
X015964Y010324D02*
X016056Y010345D01*
X017906Y010345D01*
X017906Y012045D01*
X020106Y014245D01*
X020256Y014395D01*
X021756Y014395D01*
X021956Y014595D01*
X032656Y014595D01*
X033206Y015145D01*
X033456Y015145D01*
X030506Y012345D02*
X030506Y009895D01*
X030206Y009595D01*
X030206Y007645D01*
X029556Y006995D01*
X029556Y006445D01*
X028756Y007245D02*
X027956Y008045D01*
X027956Y009245D01*
X028906Y009245D01*
X027956Y009245D02*
X027956Y009995D01*
X027907Y010094D01*
X027956Y010095D01*
X027956Y011495D01*
X027907Y011590D01*
X027506Y011995D01*
X029106Y011995D01*
X027907Y011590D02*
X027806Y011595D01*
X027006Y012395D01*
X025556Y012395D01*
X024606Y013345D01*
X022456Y013345D01*
X022456Y012295D01*
X022706Y012045D01*
X022656Y011995D01*
X021506Y011995D01*
X022706Y012045D02*
X022956Y011795D01*
X022956Y011695D01*
X023406Y011245D01*
X023481Y011261D01*
X023506Y011295D01*
X024356Y011295D01*
X023506Y011995D02*
X023481Y012009D01*
X023456Y012095D01*
X023456Y012645D01*
X023506Y011995D02*
X025406Y011995D01*
X025806Y011595D01*
X025899Y011590D01*
X025906Y011595D01*
X031006Y010595D02*
X031006Y009545D01*
X030706Y009245D01*
X037806Y007145D02*
X038756Y006195D01*
X040756Y005595D02*
X040756Y004845D01*
X038456Y002545D01*
X040756Y005595D02*
X043006Y007845D01*
X047606Y007845D01*
X047656Y007895D01*
X048256Y007295D01*
X048356Y007295D01*
X048406Y007345D01*
X048556Y007345D01*
X020106Y010345D02*
X017906Y010345D01*
X012556Y011045D02*
X012556Y007845D01*
X011706Y002695D02*
X010906Y002695D01*
X009256Y017245D02*
X008056Y017245D01*
X007556Y017745D01*
X005656Y017745D01*
X009256Y017245D02*
X010056Y018045D01*
X010056Y020595D01*
X011706Y022245D02*
X012506Y023045D01*
X012506Y023545D01*
X014306Y025345D01*
X014356Y025345D01*
X014606Y025595D01*
X014674Y025630D01*
X014706Y025695D01*
X014806Y025795D01*
X014806Y026645D01*
X010056Y029395D02*
X010056Y030895D01*
D34*
X010066Y030748D02*
X010066Y031043D01*
X010179Y031315D01*
X010300Y031435D01*
X009587Y031435D01*
X009656Y031177D01*
X009656Y030853D01*
X009572Y030541D01*
X009411Y030260D01*
X009182Y030031D01*
X008901Y029869D01*
X008588Y029785D01*
X008264Y029785D01*
X007966Y029865D01*
X007966Y029598D01*
X008021Y029653D01*
X008284Y029762D01*
X008569Y029762D01*
X008832Y029653D01*
X009033Y029451D01*
X009143Y029188D01*
X009143Y028903D01*
X009033Y028640D01*
X008832Y028438D01*
X008569Y028329D01*
X008284Y028329D01*
X008021Y028438D01*
X007966Y028492D01*
X007966Y028225D01*
X008264Y028305D01*
X008588Y028305D01*
X008901Y028222D01*
X008980Y028176D01*
X009079Y028415D01*
X009287Y028623D01*
X009559Y028735D01*
X009654Y028735D01*
X010246Y029327D01*
X010246Y030409D01*
X010179Y030476D01*
X010066Y030748D01*
X010067Y030747D02*
X009628Y030747D01*
X009656Y031066D02*
X010076Y031066D01*
X010249Y031384D02*
X009601Y031384D01*
X009508Y030429D02*
X010226Y030429D01*
X010246Y030110D02*
X009261Y030110D01*
X009011Y029473D02*
X010246Y029473D01*
X010246Y029792D02*
X008613Y029792D01*
X008240Y029792D02*
X007966Y029792D01*
X006846Y030145D02*
X006561Y030222D01*
X006251Y030222D01*
X005952Y030142D01*
X005684Y029987D01*
X005465Y029768D01*
X005310Y029499D01*
X005230Y029200D01*
X005230Y028890D01*
X005310Y028591D01*
X005465Y028323D01*
X005684Y028104D01*
X005952Y027949D01*
X006251Y027869D01*
X006561Y027869D01*
X006846Y027945D01*
X006846Y027689D01*
X006599Y027792D01*
X006314Y027792D01*
X006051Y027683D01*
X005966Y027598D01*
X005882Y027683D01*
X005619Y027792D01*
X005334Y027792D01*
X005071Y027683D01*
X004869Y027481D01*
X004760Y027218D01*
X004760Y026933D01*
X004869Y026670D01*
X005071Y026468D01*
X005334Y026359D01*
X005619Y026359D01*
X005882Y026468D01*
X005966Y026552D01*
X006051Y026468D01*
X006314Y026359D01*
X006599Y026359D01*
X006649Y026380D01*
X006489Y026220D01*
X006332Y026063D01*
X006246Y025857D01*
X006246Y024875D01*
X006223Y024875D01*
X006223Y024955D01*
X006203Y024955D01*
X006090Y024943D01*
X005979Y024917D01*
X005872Y024880D01*
X005770Y024831D01*
X005674Y024770D01*
X005585Y024700D01*
X005505Y024619D01*
X005434Y024531D01*
X005374Y024435D01*
X005325Y024332D01*
X005287Y024225D01*
X005262Y024115D01*
X005249Y024002D01*
X005249Y023982D01*
X005326Y023982D01*
X005326Y023909D01*
X005249Y023909D01*
X005249Y023889D01*
X005262Y023776D01*
X005287Y023665D01*
X005325Y023558D01*
X005374Y023456D01*
X005434Y023360D01*
X005505Y023271D01*
X005585Y023191D01*
X005674Y023120D01*
X005731Y023084D01*
X005751Y023065D01*
X005819Y023037D01*
X005872Y023011D01*
X005928Y022991D01*
X006111Y022915D01*
X006501Y022915D01*
X006596Y022955D01*
X006516Y022655D01*
X006516Y022331D01*
X006599Y022019D01*
X006761Y021738D01*
X006990Y021509D01*
X007271Y021347D01*
X007584Y021263D01*
X007908Y021263D01*
X008220Y021347D01*
X008496Y021506D01*
X008496Y018232D01*
X008429Y018165D01*
X008316Y017893D01*
X008316Y017825D01*
X008297Y017825D01*
X008048Y018074D01*
X007885Y018237D01*
X007686Y018319D01*
X007686Y018640D01*
X007537Y019000D01*
X007261Y019276D01*
X006901Y019425D01*
X006511Y019425D01*
X006151Y019276D01*
X006000Y019125D01*
X005853Y019185D01*
X005559Y019185D01*
X005287Y019073D01*
X005079Y018865D01*
X004966Y018593D01*
X004966Y018497D01*
X004732Y018263D01*
X004706Y018202D01*
X004706Y031085D01*
X004760Y031085D01*
X004760Y030873D01*
X004869Y030610D01*
X005071Y030408D01*
X005334Y030299D01*
X005619Y030299D01*
X005882Y030408D01*
X005966Y030492D01*
X006051Y030408D01*
X006314Y030299D01*
X006599Y030299D01*
X006846Y030402D01*
X006846Y030145D01*
X006030Y030429D02*
X005903Y030429D01*
X005898Y030110D02*
X004706Y030110D01*
X004706Y029792D02*
X005489Y029792D01*
X005303Y029473D02*
X004706Y029473D01*
X004706Y029155D02*
X005230Y029155D01*
X005244Y028836D02*
X004706Y028836D01*
X004706Y028518D02*
X005352Y028518D01*
X005589Y028199D02*
X004706Y028199D01*
X004706Y027881D02*
X006207Y027881D01*
X006606Y027881D02*
X006846Y027881D01*
X004950Y027562D02*
X004706Y027562D01*
X004706Y027244D02*
X004771Y027244D01*
X004763Y026925D02*
X004706Y026925D01*
X004706Y026607D02*
X004932Y026607D01*
X004706Y026288D02*
X006557Y026288D01*
X006293Y025970D02*
X004706Y025970D01*
X004706Y025651D02*
X006246Y025651D01*
X006246Y025333D02*
X004706Y025333D01*
X004706Y025014D02*
X006246Y025014D01*
X005582Y024696D02*
X004706Y024696D01*
X004706Y024377D02*
X005346Y024377D01*
X005256Y024059D02*
X004706Y024059D01*
X004706Y023740D02*
X005270Y023740D01*
X005396Y023422D02*
X004706Y023422D01*
X004706Y023103D02*
X005701Y023103D01*
X006550Y022785D02*
X004706Y022785D01*
X004706Y022466D02*
X006516Y022466D01*
X006565Y022148D02*
X004706Y022148D01*
X004706Y021829D02*
X006709Y021829D01*
X006989Y021511D02*
X004706Y021511D01*
X004706Y021192D02*
X006067Y021192D01*
X006300Y021425D02*
X005726Y020851D01*
X005726Y020039D01*
X006300Y019465D01*
X007112Y019465D01*
X007686Y020039D01*
X007686Y020851D01*
X007112Y021425D01*
X006300Y021425D01*
X005749Y020874D02*
X004706Y020874D01*
X004706Y020555D02*
X005726Y020555D01*
X005726Y020237D02*
X004706Y020237D01*
X004706Y019918D02*
X005847Y019918D01*
X006166Y019600D02*
X004706Y019600D01*
X004706Y019281D02*
X006164Y019281D01*
X005177Y018963D02*
X004706Y018963D01*
X004706Y018644D02*
X004988Y018644D01*
X004795Y018326D02*
X004706Y018326D01*
X007249Y019281D02*
X008496Y019281D01*
X008496Y018963D02*
X007553Y018963D01*
X007685Y018644D02*
X008496Y018644D01*
X008496Y018326D02*
X007686Y018326D01*
X008115Y018007D02*
X008364Y018007D01*
X008496Y019600D02*
X007247Y019600D01*
X007565Y019918D02*
X008496Y019918D01*
X008496Y020237D02*
X007686Y020237D01*
X007686Y020555D02*
X008496Y020555D01*
X008496Y020874D02*
X007664Y020874D01*
X007345Y021192D02*
X008496Y021192D01*
X009616Y021202D02*
X009616Y022607D01*
X009531Y022813D01*
X009374Y022970D01*
X008120Y024224D01*
X008220Y024251D01*
X008501Y024413D01*
X008730Y024642D01*
X008892Y024923D01*
X008976Y025235D01*
X008976Y025559D01*
X008892Y025872D01*
X008865Y025919D01*
X008901Y025929D01*
X009182Y026091D01*
X009411Y026320D01*
X009572Y026601D01*
X009656Y026913D01*
X009656Y027237D01*
X009651Y027255D01*
X009750Y027255D01*
X009887Y027118D01*
X009946Y027094D01*
X009946Y021335D01*
X009909Y021335D01*
X009637Y021223D01*
X009616Y021202D01*
X009616Y021511D02*
X009946Y021511D01*
X009946Y021829D02*
X009616Y021829D01*
X009616Y022148D02*
X009946Y022148D01*
X009946Y022466D02*
X009616Y022466D01*
X009543Y022785D02*
X009946Y022785D01*
X009946Y023103D02*
X009240Y023103D01*
X008922Y023422D02*
X009946Y023422D01*
X009946Y023740D02*
X008603Y023740D01*
X008285Y024059D02*
X009946Y024059D01*
X009946Y024377D02*
X008439Y024377D01*
X008761Y024696D02*
X009946Y024696D01*
X009946Y025014D02*
X008916Y025014D01*
X008976Y025333D02*
X009946Y025333D01*
X009946Y025651D02*
X008951Y025651D01*
X008972Y025970D02*
X009946Y025970D01*
X009946Y026288D02*
X009379Y026288D01*
X009574Y026607D02*
X009946Y026607D01*
X009946Y026925D02*
X009656Y026925D01*
X009655Y027244D02*
X009761Y027244D01*
X008990Y028199D02*
X008939Y028199D01*
X008912Y028518D02*
X009182Y028518D01*
X009115Y028836D02*
X009755Y028836D01*
X010074Y029155D02*
X009143Y029155D01*
X011366Y030097D02*
X012254Y030985D01*
X011688Y030985D01*
X011546Y030843D01*
X011546Y030748D01*
X011434Y030476D01*
X011366Y030409D01*
X011366Y030097D01*
X011366Y030110D02*
X011379Y030110D01*
X011386Y030429D02*
X011698Y030429D01*
X011546Y030747D02*
X012016Y030747D01*
X013326Y029473D02*
X013592Y029473D01*
X013645Y029792D02*
X013911Y029792D01*
X013963Y030110D02*
X014229Y030110D01*
X014282Y030429D02*
X014548Y030429D01*
X014600Y030747D02*
X014866Y030747D01*
X014788Y030935D02*
X015054Y030935D01*
X013242Y029123D01*
X013184Y029265D01*
X013151Y029298D01*
X014788Y030935D01*
X015813Y030110D02*
X018579Y030110D01*
X018261Y029792D02*
X015495Y029792D01*
X015458Y029755D02*
X016388Y030685D01*
X019154Y030685D01*
X017809Y029340D01*
X017775Y029373D01*
X017503Y029485D01*
X017408Y029485D01*
X017224Y029670D01*
X017018Y029755D01*
X015458Y029755D01*
X016132Y030429D02*
X018898Y030429D01*
X017942Y029473D02*
X017532Y029473D01*
X016616Y028635D02*
X015758Y028635D01*
X016154Y028240D01*
X016187Y028273D01*
X016459Y028385D01*
X016704Y028385D01*
X016616Y028598D01*
X016616Y028635D01*
X016650Y028518D02*
X015876Y028518D01*
X015211Y027300D02*
X015185Y027289D01*
X015203Y027282D01*
X015211Y027300D01*
X013899Y025892D02*
X013899Y025758D01*
X012766Y024626D01*
X012766Y025463D01*
X013031Y025728D01*
X013056Y025789D01*
X013259Y025705D01*
X013553Y025705D01*
X013825Y025818D01*
X013899Y025892D01*
X013792Y025651D02*
X012954Y025651D01*
X012766Y025333D02*
X013474Y025333D01*
X013155Y025014D02*
X012766Y025014D01*
X012766Y024696D02*
X012837Y024696D01*
X013840Y024059D02*
X014451Y024059D01*
X014456Y024054D02*
X014258Y023855D01*
X013845Y023855D01*
X013639Y023770D01*
X013482Y023613D01*
X013482Y023613D01*
X013086Y023217D01*
X013086Y023305D01*
X014054Y024273D01*
X014107Y024219D01*
X014284Y024146D01*
X014363Y024146D01*
X014456Y024054D01*
X013609Y023740D02*
X013522Y023740D01*
X013291Y023422D02*
X013203Y023422D01*
X013919Y022466D02*
X014089Y022466D01*
X014089Y022498D02*
X014186Y022733D01*
X013358Y021905D01*
X013774Y021905D01*
X014089Y022220D01*
X014089Y022498D01*
X014017Y022148D02*
X013601Y022148D01*
X011646Y023627D02*
X011646Y025659D01*
X011566Y025739D01*
X011566Y023547D01*
X011646Y023627D01*
X011646Y023740D02*
X011566Y023740D01*
X011566Y024059D02*
X011646Y024059D01*
X011646Y024377D02*
X011566Y024377D01*
X011566Y024696D02*
X011646Y024696D01*
X011646Y025014D02*
X011566Y025014D01*
X011566Y025333D02*
X011646Y025333D01*
X011646Y025651D02*
X011566Y025651D01*
X016966Y025324D02*
X017089Y025324D01*
X016966Y025324D01*
X016966Y025324D01*
X017089Y025324D02*
X017089Y025324D01*
X020131Y027950D02*
X020187Y028005D01*
X020253Y028005D01*
X020476Y028098D01*
X020476Y027812D01*
X020429Y027765D01*
X020324Y027870D01*
X020131Y027950D01*
X020298Y027881D02*
X020476Y027881D01*
X021796Y027363D02*
X021796Y027198D01*
X021684Y026926D01*
X021563Y026805D01*
X021716Y026805D01*
X021716Y026843D01*
X021829Y027115D01*
X021896Y027182D01*
X021896Y027263D01*
X021796Y027363D01*
X021796Y027244D02*
X021896Y027244D01*
X021751Y026925D02*
X021683Y026925D01*
X023016Y027397D02*
X023016Y027607D01*
X022931Y027813D01*
X022774Y027970D01*
X022774Y027970D01*
X021867Y028877D01*
X021896Y028948D01*
X021896Y029243D01*
X021784Y029515D01*
X021575Y029723D01*
X021303Y029835D01*
X021009Y029835D01*
X020759Y029732D01*
X020684Y029915D01*
X020475Y030123D01*
X020421Y030145D01*
X020475Y030168D01*
X020684Y030376D01*
X020796Y030648D01*
X020796Y030685D01*
X027446Y030685D01*
X027366Y030493D01*
X027366Y030198D01*
X027446Y030005D01*
X027046Y030005D01*
X027046Y030043D01*
X026934Y030315D01*
X026725Y030523D01*
X026453Y030635D01*
X026159Y030635D01*
X025887Y030523D01*
X025679Y030315D01*
X025566Y030043D01*
X025566Y029947D01*
X023016Y027397D01*
X023016Y027562D02*
X023181Y027562D01*
X022863Y027881D02*
X023500Y027881D01*
X023818Y028199D02*
X022544Y028199D01*
X022226Y028518D02*
X024137Y028518D01*
X024455Y028836D02*
X021907Y028836D01*
X021896Y029155D02*
X024774Y029155D01*
X025092Y029473D02*
X021801Y029473D01*
X021408Y029792D02*
X025411Y029792D01*
X025594Y030110D02*
X020488Y030110D01*
X020705Y030429D02*
X025793Y030429D01*
X026819Y030429D02*
X027366Y030429D01*
X027403Y030110D02*
X027018Y030110D01*
X026847Y028885D02*
X026738Y028885D01*
X024696Y026843D01*
X024696Y026835D01*
X024704Y026835D01*
X026689Y028820D01*
X026847Y028885D01*
X026728Y028836D02*
X026689Y028836D01*
X026387Y028518D02*
X026371Y028518D01*
X026068Y028199D02*
X026052Y028199D01*
X025750Y027881D02*
X025734Y027881D01*
X025431Y027562D02*
X025415Y027562D01*
X025113Y027244D02*
X025097Y027244D01*
X024794Y026925D02*
X024778Y026925D01*
X025555Y026102D02*
X027204Y027751D01*
X027237Y027718D01*
X027509Y027605D01*
X027803Y027605D01*
X028075Y027718D01*
X028284Y027926D01*
X028396Y028198D01*
X028396Y028493D01*
X028300Y028725D01*
X028396Y028765D01*
X028396Y026092D01*
X028138Y026199D01*
X027790Y026199D01*
X027468Y026066D01*
X027464Y026061D01*
X027459Y026066D01*
X027138Y026199D01*
X026790Y026199D01*
X026468Y026066D01*
X026464Y026061D01*
X026459Y026066D01*
X026138Y026199D01*
X025790Y026199D01*
X025555Y026102D01*
X025741Y026288D02*
X028396Y026288D01*
X028396Y026607D02*
X026060Y026607D01*
X026378Y026925D02*
X028396Y026925D01*
X028396Y027244D02*
X026697Y027244D01*
X027015Y027562D02*
X028396Y027562D01*
X028396Y027881D02*
X028238Y027881D01*
X028396Y028199D02*
X028396Y028199D01*
X028386Y028518D02*
X028396Y028518D01*
X030452Y029792D02*
X033168Y029792D01*
X033486Y029473D02*
X030770Y029473D01*
X030831Y029413D02*
X029058Y031185D01*
X031774Y031185D01*
X034384Y028575D01*
X034373Y028575D01*
X034325Y028623D01*
X034053Y028735D01*
X033759Y028735D01*
X033487Y028623D01*
X033279Y028415D01*
X033166Y028143D01*
X033166Y027848D01*
X033279Y027576D01*
X033370Y027485D01*
X033159Y027485D01*
X032887Y027373D01*
X032679Y027165D01*
X032566Y026893D01*
X032566Y026655D01*
X032046Y026655D01*
X032046Y026693D01*
X031934Y026965D01*
X031725Y027173D01*
X031453Y027285D01*
X031358Y027285D01*
X030916Y027727D01*
X030916Y029207D01*
X030831Y029413D01*
X030916Y029155D02*
X033805Y029155D01*
X034123Y028836D02*
X030916Y028836D01*
X030916Y028518D02*
X033382Y028518D01*
X033190Y028199D02*
X030916Y028199D01*
X030916Y027881D02*
X033166Y027881D01*
X033293Y027562D02*
X031081Y027562D01*
X031554Y027244D02*
X032758Y027244D01*
X032580Y026925D02*
X031950Y026925D01*
X030475Y026585D02*
X030439Y026570D01*
X030068Y026199D01*
X029790Y026199D01*
X029516Y026086D01*
X029516Y026856D01*
X029759Y026755D01*
X030053Y026755D01*
X030231Y026829D01*
X030475Y026585D01*
X030453Y026607D02*
X029516Y026607D01*
X029516Y026288D02*
X030157Y026288D01*
X028790Y023449D02*
X028468Y023582D01*
X028464Y023587D01*
X028459Y023582D01*
X028138Y023449D01*
X027790Y023449D01*
X027468Y023582D01*
X027464Y023587D01*
X027459Y023582D01*
X027138Y023449D01*
X026790Y023449D01*
X026542Y023552D01*
X027138Y022955D01*
X028766Y022955D01*
X028766Y022993D01*
X028879Y023265D01*
X029063Y023449D01*
X028790Y023449D01*
X029036Y023422D02*
X026672Y023422D01*
X026990Y023103D02*
X028812Y023103D01*
X028954Y021835D02*
X028146Y021835D01*
X028146Y021798D01*
X028034Y021526D01*
X028013Y021505D01*
X028624Y021505D01*
X028954Y021835D01*
X028948Y021829D02*
X028146Y021829D01*
X028018Y021511D02*
X028630Y021511D01*
X030246Y020793D02*
X031504Y022051D01*
X031537Y022018D01*
X031809Y021905D01*
X031924Y021905D01*
X029482Y019463D01*
X029396Y019257D01*
X029396Y017782D01*
X029329Y017715D01*
X029216Y017443D01*
X029216Y017148D01*
X029329Y016876D01*
X029537Y016668D01*
X029617Y016635D01*
X029516Y016393D01*
X029516Y016098D01*
X029629Y015826D01*
X029837Y015618D01*
X030109Y015505D01*
X030403Y015505D01*
X030675Y015618D01*
X030743Y015685D01*
X032554Y015685D01*
X032324Y015455D01*
X022146Y015455D01*
X022146Y015493D01*
X022034Y015765D01*
X021966Y015832D01*
X021966Y015959D01*
X022034Y016026D01*
X022146Y016298D01*
X022146Y016347D01*
X022324Y016421D01*
X022481Y016578D01*
X025838Y019935D01*
X027920Y019935D01*
X027987Y019868D01*
X028259Y019755D01*
X028553Y019755D01*
X028825Y019868D01*
X029034Y020076D01*
X029092Y020216D01*
X029359Y020105D01*
X029653Y020105D01*
X029925Y020218D01*
X030134Y020426D01*
X030246Y020698D01*
X030246Y020793D01*
X030327Y020874D02*
X030893Y020874D01*
X030645Y021192D02*
X031211Y021192D01*
X030964Y021511D02*
X031530Y021511D01*
X031282Y021829D02*
X031848Y021829D01*
X032795Y021192D02*
X033061Y021192D01*
X033114Y021511D02*
X033380Y021511D01*
X033432Y021829D02*
X033698Y021829D01*
X033603Y021905D02*
X033875Y022018D01*
X034084Y022226D01*
X034089Y022238D01*
X034089Y022220D01*
X031104Y019235D01*
X031009Y019235D01*
X030737Y019123D01*
X030529Y018915D01*
X030516Y018884D01*
X030516Y018913D01*
X033508Y021905D01*
X033603Y021905D01*
X034005Y022148D02*
X034017Y022148D01*
X032743Y020874D02*
X032477Y020874D01*
X032424Y020555D02*
X032158Y020555D01*
X032106Y020237D02*
X031840Y020237D01*
X031787Y019918D02*
X031521Y019918D01*
X031469Y019600D02*
X031203Y019600D01*
X031150Y019281D02*
X030884Y019281D01*
X030577Y018963D02*
X030566Y018963D01*
X029619Y019600D02*
X025503Y019600D01*
X025821Y019918D02*
X027937Y019918D01*
X028876Y019918D02*
X029937Y019918D01*
X029944Y020237D02*
X030256Y020237D01*
X030187Y020555D02*
X030574Y020555D01*
X029407Y019281D02*
X025184Y019281D01*
X024866Y018963D02*
X029396Y018963D01*
X029396Y018644D02*
X024547Y018644D01*
X024229Y018326D02*
X029396Y018326D01*
X029396Y018007D02*
X023910Y018007D01*
X023592Y017689D02*
X029318Y017689D01*
X029216Y017370D02*
X023273Y017370D01*
X022955Y017052D02*
X029256Y017052D01*
X029472Y016733D02*
X022636Y016733D01*
X022310Y016415D02*
X029526Y016415D01*
X029517Y016096D02*
X022063Y016096D01*
X022020Y015778D02*
X029677Y015778D01*
X032328Y015459D02*
X022146Y015459D01*
X020822Y015983D02*
X020768Y016005D01*
X020545Y016005D01*
X018208Y016005D01*
X018538Y016335D01*
X020666Y016335D01*
X020666Y016298D01*
X020779Y016026D01*
X020822Y015983D01*
X020750Y016096D02*
X018299Y016096D01*
X019304Y014885D02*
X016301Y014885D01*
X016328Y014870D01*
X016396Y014818D01*
X016457Y014757D01*
X016509Y014689D01*
X016552Y014614D01*
X016585Y014535D01*
X016607Y014452D01*
X016619Y014367D01*
X016619Y014324D01*
X015964Y014324D01*
X015964Y014324D01*
X016619Y014324D01*
X016619Y014281D01*
X016607Y014196D01*
X016585Y014113D01*
X016552Y014034D01*
X016509Y013959D01*
X016457Y013891D01*
X016396Y013831D01*
X016328Y013778D01*
X016289Y013755D01*
X018174Y013755D01*
X019304Y014885D01*
X019241Y014822D02*
X016390Y014822D01*
X016594Y014504D02*
X018923Y014504D01*
X018604Y014185D02*
X016605Y014185D01*
X016433Y013867D02*
X018286Y013867D01*
X019233Y013230D02*
X019599Y013230D01*
X019551Y013548D02*
X019917Y013548D01*
X019870Y013867D02*
X020236Y013867D01*
X020253Y014155D02*
X020525Y014268D01*
X020734Y014476D01*
X020763Y014547D01*
X020839Y014470D01*
X020782Y014413D01*
X018834Y012465D01*
X018825Y012473D01*
X018553Y012585D01*
X018259Y012585D01*
X017987Y012473D01*
X017779Y012265D01*
X017666Y011993D01*
X017666Y011698D01*
X017779Y011426D01*
X017987Y011218D01*
X018158Y011147D01*
X018229Y010976D01*
X018437Y010768D01*
X018466Y010756D01*
X018466Y010698D01*
X018579Y010426D01*
X018787Y010218D01*
X019059Y010105D01*
X019353Y010105D01*
X019625Y010218D01*
X019693Y010285D01*
X020204Y010285D01*
X019504Y009585D01*
X019409Y009585D01*
X019137Y009473D01*
X019056Y009392D01*
X018975Y009473D01*
X018703Y009585D01*
X018637Y009585D01*
X018548Y009674D01*
X018385Y009837D01*
X018172Y009925D01*
X016483Y009925D01*
X016509Y009959D01*
X016552Y010034D01*
X016585Y010113D01*
X016607Y010196D01*
X016619Y010281D01*
X016619Y010324D01*
X015964Y010324D01*
X015964Y010324D01*
X016619Y010324D01*
X016619Y010367D01*
X016607Y010452D01*
X016585Y010535D01*
X016552Y010614D01*
X016509Y010689D01*
X016501Y010700D01*
X016609Y010655D01*
X016903Y010655D01*
X017175Y010768D01*
X017384Y010976D01*
X017496Y011248D01*
X017496Y011543D01*
X017384Y011815D01*
X017175Y012023D01*
X016903Y012135D01*
X016808Y012135D01*
X016308Y012635D01*
X018518Y012635D01*
X018724Y012721D01*
X018881Y012878D01*
X020158Y014155D01*
X020253Y014155D01*
X020326Y014185D02*
X020554Y014185D01*
X020745Y014504D02*
X020806Y014504D01*
X019280Y012911D02*
X018914Y012911D01*
X018962Y012593D02*
X016351Y012593D01*
X016669Y012274D02*
X017789Y012274D01*
X017666Y011956D02*
X017242Y011956D01*
X017457Y011637D02*
X017691Y011637D01*
X017496Y011319D02*
X017886Y011319D01*
X018219Y011000D02*
X017394Y011000D01*
X016967Y010682D02*
X018473Y010682D01*
X018642Y010363D02*
X016619Y010363D01*
X016557Y010045D02*
X019964Y010045D01*
X019645Y009726D02*
X018496Y009726D01*
X019040Y009408D02*
X019072Y009408D01*
X016545Y010682D02*
X016513Y010682D01*
X016154Y010951D02*
X016092Y010968D01*
X016007Y010979D01*
X015964Y010979D01*
X015964Y010324D01*
X015964Y010324D01*
X015964Y010979D01*
X015921Y010979D01*
X015836Y010968D01*
X015753Y010946D01*
X015673Y010913D01*
X015635Y010890D01*
X015459Y011066D01*
X015138Y011199D01*
X014790Y011199D01*
X014468Y011066D01*
X014222Y010820D01*
X014089Y010498D01*
X014089Y010150D01*
X014222Y009828D01*
X014226Y009824D01*
X014222Y009820D01*
X014089Y009498D01*
X014089Y009460D01*
X014075Y009473D01*
X013803Y009585D01*
X013566Y009585D01*
X013566Y011515D01*
X014122Y011515D01*
X014335Y011604D01*
X014737Y012005D01*
X014803Y012005D01*
X015075Y012118D01*
X015159Y012201D01*
X016016Y011343D01*
X016016Y011248D01*
X016129Y010976D01*
X016154Y010951D01*
X016119Y011000D02*
X015525Y011000D01*
X015964Y010682D02*
X015964Y010682D01*
X015964Y010363D02*
X015964Y010363D01*
X014403Y011000D02*
X013566Y011000D01*
X013566Y010682D02*
X014165Y010682D01*
X014089Y010363D02*
X013566Y010363D01*
X013566Y010045D02*
X014132Y010045D01*
X014183Y009726D02*
X013566Y009726D01*
X011496Y009691D02*
X011496Y009182D01*
X011429Y009115D01*
X011316Y008843D01*
X011316Y008548D01*
X011429Y008276D01*
X011637Y008068D01*
X011909Y007955D01*
X011976Y007955D01*
X011976Y007730D01*
X012065Y007517D01*
X012726Y006855D01*
X012538Y006855D01*
X010776Y008618D01*
X010884Y008726D01*
X010996Y008998D01*
X010996Y009293D01*
X010884Y009565D01*
X010778Y009670D01*
X011446Y009670D01*
X011496Y009691D01*
X011496Y009408D02*
X010949Y009408D01*
X010996Y009089D02*
X011419Y009089D01*
X011316Y008771D02*
X010902Y008771D01*
X010941Y008452D02*
X011356Y008452D01*
X011260Y008134D02*
X011571Y008134D01*
X011578Y007815D02*
X011976Y007815D01*
X011897Y007497D02*
X012085Y007497D01*
X012215Y007178D02*
X012403Y007178D01*
X012534Y006860D02*
X012722Y006860D01*
X014215Y007057D02*
X014285Y006987D01*
X014448Y006824D01*
X014520Y006651D01*
X014812Y006943D01*
X014679Y007076D01*
X014566Y007348D01*
X014566Y007643D01*
X014572Y007655D01*
X014341Y007655D01*
X014346Y007643D01*
X014346Y007348D01*
X014234Y007076D01*
X014215Y007057D01*
X014276Y007178D02*
X014637Y007178D01*
X014566Y007497D02*
X014346Y007497D01*
X014412Y006860D02*
X014729Y006860D01*
X011366Y004859D02*
X011366Y004812D01*
X011135Y004812D01*
X011085Y004802D01*
X011038Y004782D01*
X010995Y004754D01*
X010959Y004717D01*
X010931Y004675D01*
X010911Y004627D01*
X010901Y004577D01*
X010901Y004256D01*
X010901Y003935D01*
X010911Y003885D01*
X010931Y003838D01*
X010959Y003795D01*
X010995Y003759D01*
X011038Y003731D01*
X011085Y003711D01*
X011135Y003701D01*
X011456Y003701D01*
X011456Y004256D01*
X011456Y004256D01*
X010901Y004256D01*
X011456Y004256D01*
X011456Y004256D01*
X011456Y003701D01*
X011777Y003701D01*
X011827Y003711D01*
X011875Y003731D01*
X011917Y003759D01*
X011954Y003795D01*
X011982Y003838D01*
X012002Y003885D01*
X012012Y003935D01*
X012012Y004205D01*
X012253Y004205D01*
X012525Y004318D01*
X012573Y004365D01*
X013766Y004365D01*
X013915Y004217D01*
X014078Y004054D01*
X014212Y003998D01*
X014179Y003965D01*
X014066Y003693D01*
X014066Y003398D01*
X014179Y003126D01*
X014180Y003125D01*
X012973Y003125D01*
X012925Y003173D01*
X012653Y003285D01*
X012359Y003285D01*
X012297Y003260D01*
X012266Y003291D01*
X012223Y003319D01*
X012176Y003339D01*
X012126Y003349D01*
X011743Y003349D01*
X011743Y002732D01*
X011669Y002732D01*
X011669Y002659D01*
X011053Y002659D01*
X011053Y002655D01*
X007738Y002655D01*
X007117Y003277D01*
X007138Y003298D01*
X007188Y003417D01*
X007287Y003318D01*
X007559Y003205D01*
X007853Y003205D01*
X008125Y003318D01*
X008174Y003366D01*
X008385Y003454D01*
X008535Y003604D01*
X008698Y003767D01*
X008786Y003980D01*
X008786Y004074D01*
X009033Y004074D01*
X009083Y004084D01*
X009131Y004104D01*
X009173Y004132D01*
X009209Y004168D01*
X009238Y004211D01*
X009257Y004258D01*
X009267Y004309D01*
X009267Y004365D01*
X009422Y004365D01*
X009635Y004454D01*
X009685Y004504D01*
X009848Y004667D01*
X009936Y004880D01*
X009936Y005670D01*
X010090Y005670D01*
X010589Y005171D01*
X010737Y005110D01*
X010754Y005067D01*
X010889Y004932D01*
X011066Y004859D01*
X011366Y004859D01*
X011456Y004581D02*
X011456Y004581D01*
X011456Y004256D01*
X011456Y004256D01*
X011456Y004581D01*
X011456Y004312D02*
X011456Y004312D01*
X011456Y003993D02*
X011456Y003993D01*
X010901Y003993D02*
X008786Y003993D01*
X008606Y003675D02*
X014066Y003675D01*
X014084Y003356D02*
X008164Y003356D01*
X007674Y002719D02*
X011669Y002719D01*
X011669Y002732D02*
X011053Y002732D01*
X011053Y003115D01*
X011063Y003165D01*
X011082Y003212D01*
X011111Y003255D01*
X011147Y003291D01*
X011189Y003319D01*
X011237Y003339D01*
X011287Y003349D01*
X011669Y003349D01*
X011669Y002732D01*
X011669Y003038D02*
X011743Y003038D01*
X011053Y003038D02*
X007356Y003038D01*
X007249Y003356D02*
X007162Y003356D01*
X009267Y004312D02*
X010901Y004312D01*
X010912Y004630D02*
X009812Y004630D01*
X009936Y004949D02*
X010872Y004949D01*
X010492Y005267D02*
X009936Y005267D01*
X009936Y005586D02*
X010174Y005586D01*
X008776Y005586D02*
X007336Y005586D01*
X007348Y005574D02*
X007249Y005673D01*
X007249Y005825D01*
X007138Y006093D01*
X007067Y006164D01*
X007474Y006571D01*
X007631Y006728D01*
X007716Y006934D01*
X007716Y008200D01*
X008203Y008200D01*
X008379Y008273D01*
X008514Y008408D01*
X008546Y008485D01*
X009324Y008485D01*
X010284Y007525D01*
X009641Y007525D01*
X009428Y007437D01*
X009211Y007221D01*
X008981Y007221D01*
X008804Y007148D01*
X008669Y007013D01*
X008596Y006836D01*
X008596Y006055D01*
X008669Y005878D01*
X008776Y005771D01*
X008776Y005537D01*
X008412Y005537D01*
X008385Y005525D01*
X008141Y005525D01*
X008084Y005502D01*
X008001Y005537D01*
X007385Y005537D01*
X007348Y005574D01*
X007216Y005904D02*
X008659Y005904D01*
X008596Y006223D02*
X007126Y006223D01*
X007444Y006541D02*
X008596Y006541D01*
X008606Y006860D02*
X007686Y006860D01*
X007716Y007178D02*
X008879Y007178D01*
X009572Y007497D02*
X007716Y007497D01*
X007716Y007815D02*
X009994Y007815D01*
X009676Y008134D02*
X007716Y008134D01*
X008532Y008452D02*
X009357Y008452D01*
X009004Y009605D02*
X008608Y009605D01*
X008806Y009803D01*
X009004Y009605D01*
X008883Y009726D02*
X008729Y009726D01*
X006596Y009593D02*
X006596Y007277D01*
X005997Y006678D01*
X005915Y006760D01*
X005617Y006883D01*
X005516Y006883D01*
X005516Y008513D01*
X006596Y009593D01*
X006596Y009408D02*
X006411Y009408D01*
X006596Y009089D02*
X006092Y009089D01*
X005774Y008771D02*
X006596Y008771D01*
X006596Y008452D02*
X005516Y008452D01*
X005516Y008134D02*
X006596Y008134D01*
X006596Y007815D02*
X005516Y007815D01*
X005516Y007497D02*
X006596Y007497D01*
X006497Y007178D02*
X005516Y007178D01*
X005674Y006860D02*
X006179Y006860D01*
X004706Y009287D02*
X004706Y009776D01*
X004814Y009668D01*
X005007Y009588D01*
X004706Y009287D01*
X004706Y009408D02*
X004827Y009408D01*
X004756Y009726D02*
X004706Y009726D01*
X004706Y011465D02*
X004706Y015347D01*
X004824Y015298D01*
X005487Y015298D01*
X005735Y015401D01*
X005746Y015412D01*
X005746Y011691D01*
X005099Y011691D01*
X004814Y011573D01*
X004706Y011465D01*
X004706Y011637D02*
X004970Y011637D01*
X004706Y011956D02*
X005746Y011956D01*
X005746Y012274D02*
X004706Y012274D01*
X004706Y012593D02*
X005746Y012593D01*
X005746Y012911D02*
X004706Y012911D01*
X004706Y013230D02*
X005746Y013230D01*
X005746Y013548D02*
X004706Y013548D01*
X004706Y013867D02*
X005746Y013867D01*
X005746Y014185D02*
X004706Y014185D01*
X004706Y014504D02*
X005746Y014504D01*
X005746Y014822D02*
X004706Y014822D01*
X004706Y015141D02*
X005746Y015141D01*
X006866Y015141D02*
X008346Y015141D01*
X008346Y015459D02*
X006866Y015459D01*
X006866Y015672D02*
X007927Y015672D01*
X008194Y015783D01*
X008346Y015935D01*
X008346Y011604D01*
X008065Y011721D01*
X006866Y011721D01*
X006866Y015672D01*
X006866Y014822D02*
X008346Y014822D01*
X008346Y014504D02*
X006866Y014504D01*
X006866Y014185D02*
X008346Y014185D01*
X008346Y013867D02*
X006866Y013867D01*
X006866Y013548D02*
X008346Y013548D01*
X008346Y013230D02*
X006866Y013230D01*
X006866Y012911D02*
X008346Y012911D01*
X008346Y012593D02*
X006866Y012593D01*
X006866Y012274D02*
X008346Y012274D01*
X008346Y011956D02*
X006866Y011956D01*
X008266Y011637D02*
X008346Y011637D01*
X009466Y012697D02*
X009466Y015850D01*
X009541Y015775D01*
X009810Y015664D01*
X010463Y015664D01*
X010463Y015151D01*
X010559Y014919D01*
X010685Y014793D01*
X010640Y014684D01*
X010640Y014305D01*
X010651Y014278D01*
X010640Y014251D01*
X010640Y013872D01*
X010640Y013871D01*
X009466Y012697D01*
X009466Y012911D02*
X009680Y012911D01*
X009466Y013230D02*
X009999Y013230D01*
X010317Y013548D02*
X009466Y013548D01*
X009466Y013867D02*
X010636Y013867D01*
X010640Y014185D02*
X009466Y014185D01*
X009466Y014504D02*
X010640Y014504D01*
X010655Y014822D02*
X009466Y014822D01*
X009466Y015141D02*
X010467Y015141D01*
X010463Y015459D02*
X009466Y015459D01*
X009466Y015778D02*
X009539Y015778D01*
X008346Y015778D02*
X008183Y015778D01*
X010827Y017624D02*
X010981Y017778D01*
X010992Y017805D01*
X011054Y017805D01*
X011236Y017624D01*
X010827Y017624D01*
X010892Y017689D02*
X011171Y017689D01*
X012316Y019127D02*
X013100Y018344D01*
X013104Y018355D01*
X012316Y019143D01*
X012316Y019127D01*
X012481Y018963D02*
X012497Y018963D01*
X012799Y018644D02*
X012815Y018644D01*
X014089Y020305D02*
X014058Y020335D01*
X014089Y020335D01*
X014089Y020305D01*
X014945Y019449D02*
X015068Y019449D01*
X015006Y019387D01*
X014945Y019449D01*
X016701Y019824D02*
X016705Y019828D01*
X016839Y020150D01*
X016839Y020498D01*
X016705Y020820D01*
X016701Y020824D01*
X016705Y020828D01*
X016839Y021150D01*
X016839Y021498D01*
X016705Y021820D01*
X016701Y021824D01*
X016705Y021828D01*
X016839Y022150D01*
X016839Y022221D01*
X017889Y021171D01*
X018095Y021085D01*
X018876Y021085D01*
X016767Y018976D01*
X016839Y019150D01*
X016839Y019498D01*
X016705Y019820D01*
X016701Y019824D01*
X016743Y019918D02*
X017709Y019918D01*
X017391Y019600D02*
X016796Y019600D01*
X016839Y019281D02*
X017072Y019281D01*
X016839Y020237D02*
X018028Y020237D01*
X018346Y020555D02*
X016815Y020555D01*
X016724Y020874D02*
X018665Y020874D01*
X017867Y021192D02*
X016839Y021192D01*
X016833Y021511D02*
X017549Y021511D01*
X017230Y021829D02*
X016706Y021829D01*
X016838Y022148D02*
X016912Y022148D01*
X021216Y022705D02*
X021296Y022898D01*
X021296Y022935D01*
X025224Y022935D01*
X026474Y021685D01*
X026259Y021685D01*
X025987Y021573D01*
X025920Y021505D01*
X025788Y021505D01*
X024831Y022463D01*
X024674Y022620D01*
X024468Y022705D01*
X021216Y022705D01*
X021249Y022785D02*
X025375Y022785D01*
X025693Y022466D02*
X024827Y022466D01*
X025146Y022148D02*
X026012Y022148D01*
X026330Y021829D02*
X025464Y021829D01*
X025783Y021511D02*
X025925Y021511D01*
X024089Y019770D02*
X022616Y018297D01*
X022616Y019307D01*
X022531Y019513D01*
X022108Y019935D01*
X023420Y019935D01*
X023487Y019868D01*
X023759Y019755D01*
X024053Y019755D01*
X024089Y019770D01*
X023919Y019600D02*
X022444Y019600D01*
X022616Y019281D02*
X023600Y019281D01*
X023282Y018963D02*
X022616Y018963D01*
X022616Y018644D02*
X022963Y018644D01*
X022645Y018326D02*
X022616Y018326D01*
X020724Y018281D02*
X020666Y018143D01*
X020666Y017848D01*
X020740Y017670D01*
X020666Y017493D01*
X020666Y017455D01*
X019008Y017455D01*
X019888Y018335D01*
X020670Y018335D01*
X020724Y018281D01*
X020679Y018326D02*
X019879Y018326D01*
X019560Y018007D02*
X020666Y018007D01*
X020732Y017689D02*
X019242Y017689D01*
X022125Y019918D02*
X023437Y019918D01*
X030516Y018107D02*
X030516Y017782D01*
X030584Y017715D01*
X030737Y017868D01*
X030529Y018076D01*
X030516Y018107D01*
X030516Y018007D02*
X030598Y018007D01*
X035855Y019324D02*
X035855Y019324D01*
X035957Y019324D01*
X035855Y019324D01*
X035957Y019324D02*
X035957Y019324D01*
X035964Y019318D02*
X035964Y019318D01*
X035964Y019199D01*
X035964Y019199D01*
X035964Y019318D01*
X035964Y019281D02*
X035964Y019281D01*
X036903Y018191D02*
X037109Y018105D01*
X037403Y018105D01*
X037496Y018144D01*
X037496Y018134D01*
X037582Y017928D01*
X037687Y017823D01*
X037629Y017765D01*
X037524Y017510D01*
X037481Y017613D01*
X036903Y018191D01*
X037086Y018007D02*
X037549Y018007D01*
X037598Y017689D02*
X037405Y017689D01*
X037566Y017077D02*
X037629Y016926D01*
X037837Y016718D01*
X038109Y016605D01*
X038403Y016605D01*
X038675Y016718D01*
X038726Y016769D01*
X038726Y015862D01*
X038679Y015815D01*
X038566Y015543D01*
X038566Y015527D01*
X038496Y015597D01*
X038496Y015693D01*
X038384Y015965D01*
X038175Y016173D01*
X037903Y016285D01*
X037609Y016285D01*
X037566Y016268D01*
X037566Y017077D01*
X037566Y017052D02*
X037577Y017052D01*
X037566Y016733D02*
X037822Y016733D01*
X037566Y016415D02*
X038726Y016415D01*
X038726Y016733D02*
X038691Y016733D01*
X038726Y016096D02*
X038252Y016096D01*
X038461Y015778D02*
X038664Y015778D01*
X038766Y014889D02*
X038887Y014768D01*
X039159Y014655D01*
X039453Y014655D01*
X039725Y014768D01*
X039934Y014976D01*
X040007Y015153D01*
X040224Y014935D01*
X040209Y014935D01*
X039937Y014823D01*
X039729Y014615D01*
X039616Y014343D01*
X039616Y014048D01*
X039729Y013776D01*
X039796Y013709D01*
X039796Y012327D01*
X038804Y011335D01*
X038709Y011335D01*
X038437Y011223D01*
X038404Y011190D01*
X038338Y011255D01*
X038353Y011255D01*
X038625Y011368D01*
X038834Y011576D01*
X038946Y011848D01*
X038946Y012143D01*
X038834Y012415D01*
X038766Y012482D01*
X038766Y014889D01*
X038766Y014822D02*
X038833Y014822D01*
X038766Y014504D02*
X039683Y014504D01*
X039616Y014185D02*
X038766Y014185D01*
X038766Y013867D02*
X039691Y013867D01*
X039796Y013548D02*
X038766Y013548D01*
X038766Y013230D02*
X039796Y013230D01*
X039796Y012911D02*
X038766Y012911D01*
X038766Y012593D02*
X039796Y012593D01*
X039743Y012274D02*
X038892Y012274D01*
X038946Y011956D02*
X039425Y011956D01*
X039106Y011637D02*
X038859Y011637D01*
X038669Y011319D02*
X038507Y011319D01*
X039596Y010543D02*
X040246Y011193D01*
X040246Y010732D01*
X040179Y010665D01*
X040066Y010393D01*
X040066Y010385D01*
X040059Y010385D01*
X039787Y010273D01*
X039579Y010065D01*
X039564Y010029D01*
X039451Y010143D01*
X039484Y010176D01*
X039596Y010448D01*
X039596Y010543D01*
X039561Y010363D02*
X040006Y010363D01*
X040196Y010682D02*
X039735Y010682D01*
X040053Y011000D02*
X040246Y011000D01*
X039571Y010045D02*
X039549Y010045D01*
X038202Y009408D02*
X037116Y009408D01*
X037116Y009726D02*
X037883Y009726D01*
X037565Y010045D02*
X037116Y010045D01*
X037116Y010363D02*
X037246Y010363D01*
X037116Y010493D02*
X039366Y008243D01*
X039366Y008148D01*
X039479Y007876D01*
X039562Y007793D01*
X039204Y007435D01*
X039109Y007435D01*
X038837Y007323D01*
X038629Y007115D01*
X038516Y006843D01*
X038516Y006548D01*
X038629Y006276D01*
X038662Y006243D01*
X038474Y006055D01*
X037796Y006055D01*
X037796Y006093D01*
X037684Y006365D01*
X037616Y006432D01*
X037616Y007609D01*
X037684Y007676D01*
X037796Y007948D01*
X037796Y008243D01*
X037684Y008515D01*
X037475Y008723D01*
X037203Y008835D01*
X037116Y008835D01*
X037116Y010493D01*
X035089Y011199D02*
X035089Y011449D01*
X034902Y011449D01*
X034751Y011298D01*
X034849Y011199D01*
X035089Y011199D01*
X035089Y011319D02*
X034772Y011319D01*
X033266Y011747D02*
X032509Y010990D01*
X032475Y011023D01*
X032203Y011135D01*
X031909Y011135D01*
X031637Y011023D01*
X031631Y011017D01*
X031493Y011155D01*
X031753Y011155D01*
X032025Y011268D01*
X032234Y011476D01*
X032346Y011747D01*
X032495Y011685D01*
X033118Y011685D01*
X033266Y011747D01*
X033156Y011637D02*
X032300Y011637D01*
X032076Y011319D02*
X032838Y011319D01*
X032519Y011000D02*
X032498Y011000D01*
X031120Y011335D02*
X031086Y011369D01*
X031086Y011335D01*
X031120Y011335D01*
X029926Y011319D02*
X029407Y011319D01*
X029525Y011368D02*
X029734Y011576D01*
X029846Y011848D01*
X029846Y012005D01*
X029879Y011926D01*
X029926Y011879D01*
X029926Y010136D01*
X029715Y009924D01*
X029626Y009711D01*
X029626Y009441D01*
X029534Y009665D01*
X029325Y009873D01*
X029053Y009985D01*
X028987Y009985D01*
X028987Y010789D01*
X028965Y010842D01*
X028987Y010894D01*
X028987Y011255D01*
X029253Y011255D01*
X029525Y011368D01*
X029759Y011637D02*
X029926Y011637D01*
X029867Y011956D02*
X029846Y011956D01*
X029766Y012336D02*
X029734Y012415D01*
X029613Y012535D01*
X029784Y012535D01*
X029766Y012493D01*
X029766Y012336D01*
X029926Y011000D02*
X028987Y011000D01*
X028987Y010682D02*
X029926Y010682D01*
X029926Y010363D02*
X028987Y010363D01*
X028987Y010045D02*
X029836Y010045D01*
X029633Y009726D02*
X029472Y009726D01*
X029626Y009050D02*
X029626Y007886D01*
X029390Y007649D01*
X029384Y007665D01*
X029175Y007873D01*
X028903Y007985D01*
X028837Y007985D01*
X028536Y008286D01*
X028536Y008598D01*
X028759Y008505D01*
X029053Y008505D01*
X029325Y008618D01*
X029534Y008826D01*
X029626Y009050D01*
X029626Y008771D02*
X029478Y008771D01*
X029626Y008452D02*
X028536Y008452D01*
X028688Y008134D02*
X029626Y008134D01*
X029556Y007815D02*
X029233Y007815D01*
X030202Y006821D02*
X030535Y007154D01*
X030698Y007317D01*
X030786Y007530D01*
X030786Y008505D01*
X030846Y008505D01*
X030846Y007384D01*
X030847Y007382D01*
X030729Y007265D01*
X030616Y006993D01*
X030616Y006698D01*
X030717Y006455D01*
X030296Y006455D01*
X030296Y006593D01*
X030202Y006821D01*
X030241Y006860D02*
X030616Y006860D01*
X030560Y007178D02*
X030693Y007178D01*
X030773Y007497D02*
X030846Y007497D01*
X030846Y007815D02*
X030786Y007815D01*
X030786Y008134D02*
X030846Y008134D01*
X030846Y008452D02*
X030786Y008452D01*
X030681Y006541D02*
X030296Y006541D01*
X030839Y005335D02*
X031170Y005335D01*
X031337Y005168D01*
X031609Y005055D01*
X031800Y005055D01*
X031937Y004918D01*
X032209Y004805D01*
X032246Y004805D01*
X032246Y004385D01*
X032209Y004385D01*
X031937Y004273D01*
X031893Y004229D01*
X031839Y004283D01*
X031839Y004498D01*
X031705Y004820D01*
X031459Y005066D01*
X031138Y005199D01*
X030839Y005199D01*
X030839Y005335D01*
X030839Y005267D02*
X031238Y005267D01*
X031576Y004949D02*
X031906Y004949D01*
X031784Y004630D02*
X032246Y004630D01*
X032032Y004312D02*
X031839Y004312D01*
X029089Y004324D02*
X028970Y004324D01*
X028970Y004324D01*
X029089Y004324D01*
X029089Y004324D01*
X028964Y004330D02*
X028964Y004330D01*
X028964Y004449D01*
X028964Y004449D01*
X028964Y004330D01*
X028089Y005324D02*
X027970Y005324D01*
X027970Y005324D01*
X028089Y005324D01*
X028089Y005324D01*
X027964Y005330D02*
X027964Y005330D01*
X027964Y005979D01*
X028007Y005979D01*
X028092Y005968D01*
X028175Y005946D01*
X028254Y005913D01*
X028293Y005890D01*
X028468Y006066D01*
X028486Y006073D01*
X027928Y006632D01*
X027884Y006526D01*
X027816Y006459D01*
X027816Y006234D01*
X027731Y006028D01*
X027666Y005963D01*
X027666Y005909D01*
X027673Y005913D01*
X027753Y005946D01*
X027836Y005968D01*
X027921Y005979D01*
X027964Y005979D01*
X027964Y005330D01*
X027964Y005586D02*
X027964Y005586D01*
X027964Y005904D02*
X027964Y005904D01*
X028269Y005904D02*
X028307Y005904D01*
X028337Y006223D02*
X027812Y006223D01*
X027890Y006541D02*
X028018Y006541D01*
X025737Y007023D02*
X025579Y006865D01*
X025550Y006794D01*
X024558Y007785D01*
X024974Y007785D01*
X025737Y007023D01*
X025581Y007178D02*
X025165Y007178D01*
X025263Y007497D02*
X024847Y007497D01*
X025484Y006860D02*
X025577Y006860D01*
X024809Y005205D02*
X024537Y005318D01*
X024470Y005385D01*
X021616Y005385D01*
X021619Y005367D01*
X021619Y005324D01*
X020964Y005324D01*
X020964Y005324D01*
X021619Y005324D01*
X021619Y005281D01*
X021607Y005196D01*
X021585Y005113D01*
X021552Y005034D01*
X021530Y004995D01*
X021705Y004820D01*
X021839Y004498D01*
X021839Y004150D01*
X021705Y003828D01*
X021459Y003582D01*
X021138Y003449D01*
X020790Y003449D01*
X020468Y003582D01*
X020222Y003828D01*
X020089Y004150D01*
X020089Y004449D01*
X019790Y004449D01*
X019468Y004582D01*
X019464Y004587D01*
X019459Y004582D01*
X019138Y004449D01*
X018839Y004449D01*
X018839Y004150D01*
X018705Y003828D01*
X018459Y003582D01*
X018138Y003449D01*
X017946Y003449D01*
X017946Y003398D01*
X017834Y003126D01*
X017833Y003125D01*
X025584Y003125D01*
X025482Y003228D01*
X025482Y003228D01*
X024932Y003778D01*
X024846Y003984D01*
X024846Y005205D01*
X024809Y005205D01*
X024659Y005267D02*
X021617Y005267D01*
X021576Y004949D02*
X022351Y004949D01*
X022468Y005066D02*
X022222Y004820D01*
X022089Y004498D01*
X022089Y004150D01*
X022222Y003828D01*
X022468Y003582D01*
X022790Y003449D01*
X023138Y003449D01*
X023459Y003582D01*
X023705Y003828D01*
X023839Y004150D01*
X023839Y004498D01*
X023705Y004820D01*
X023459Y005066D01*
X023138Y005199D01*
X022790Y005199D01*
X022468Y005066D01*
X022143Y004630D02*
X021784Y004630D01*
X021839Y004312D02*
X022089Y004312D01*
X022154Y003993D02*
X021774Y003993D01*
X021552Y003675D02*
X022375Y003675D01*
X023552Y003675D02*
X025035Y003675D01*
X024846Y003993D02*
X023774Y003993D01*
X023839Y004312D02*
X024846Y004312D01*
X024846Y004630D02*
X023784Y004630D01*
X023576Y004949D02*
X024846Y004949D01*
X025970Y004324D02*
X026964Y004324D01*
X026309Y004324D01*
X025970Y004324D01*
X025970Y004324D01*
X026964Y004324D02*
X026964Y004324D01*
X025353Y003356D02*
X017929Y003356D01*
X018552Y003675D02*
X020375Y003675D01*
X020154Y003993D02*
X018774Y003993D01*
X018839Y004312D02*
X020089Y004312D01*
X020604Y006805D02*
X019313Y006805D01*
X019384Y006876D01*
X019459Y007059D01*
X019709Y006955D01*
X020003Y006955D01*
X020275Y007068D01*
X020309Y007101D01*
X020604Y006805D01*
X020550Y006860D02*
X019367Y006860D01*
X021408Y007585D02*
X021758Y007235D01*
X021853Y007235D01*
X022125Y007123D01*
X022243Y007005D01*
X023120Y007005D01*
X023187Y007073D01*
X023448Y007181D01*
X023237Y007268D01*
X023029Y007476D01*
X022984Y007585D01*
X021408Y007585D01*
X021497Y007497D02*
X023020Y007497D01*
X023442Y007178D02*
X021991Y007178D01*
X022258Y009855D02*
X022285Y009920D01*
X022287Y009918D01*
X022438Y009855D01*
X022258Y009855D01*
X022974Y009855D02*
X023125Y009918D01*
X023334Y010126D01*
X023446Y010398D01*
X023446Y010525D01*
X023872Y010525D01*
X024049Y010598D01*
X024066Y010615D01*
X024209Y010555D01*
X024503Y010555D01*
X024775Y010668D01*
X024819Y010712D01*
X024819Y009969D01*
X024587Y009873D01*
X024581Y009867D01*
X024525Y009923D01*
X024253Y010035D01*
X023959Y010035D01*
X023687Y009923D01*
X023620Y009855D01*
X022974Y009855D01*
X023252Y010045D02*
X024819Y010045D01*
X024819Y010363D02*
X023432Y010363D01*
X022550Y011282D02*
X022287Y011173D01*
X022220Y011105D01*
X021529Y011105D01*
X021484Y011215D01*
X021443Y011255D01*
X021653Y011255D01*
X021925Y011368D01*
X021973Y011415D01*
X022444Y011415D01*
X022465Y011367D01*
X022550Y011282D01*
X022513Y011319D02*
X021807Y011319D01*
X020920Y011535D02*
X020879Y011576D01*
X020864Y011611D01*
X020788Y011535D01*
X020920Y011535D01*
X023036Y012536D02*
X023036Y012765D01*
X024366Y012765D01*
X025039Y012092D01*
X025039Y011730D01*
X025759Y011730D01*
X025759Y011815D01*
X026039Y011815D01*
X026039Y011730D01*
X025759Y011730D01*
X025759Y011450D01*
X025093Y011450D01*
X024984Y011715D01*
X024775Y011923D01*
X024503Y012035D01*
X024209Y012035D01*
X024037Y011964D01*
X024037Y012009D01*
X024037Y012290D01*
X024027Y012340D01*
X024007Y012388D01*
X023979Y012430D01*
X023942Y012467D01*
X023900Y012495D01*
X023853Y012515D01*
X023802Y012525D01*
X023481Y012525D01*
X023161Y012525D01*
X023110Y012515D01*
X023073Y012499D01*
X023036Y012536D01*
X023036Y012593D02*
X024539Y012593D01*
X024857Y012274D02*
X024037Y012274D01*
X024037Y012009D02*
X023496Y012009D01*
X023496Y012009D01*
X024037Y012009D01*
X023481Y012043D02*
X023481Y012525D01*
X023481Y012043D01*
X023481Y012043D01*
X023481Y012274D02*
X023481Y012274D01*
X024695Y011956D02*
X025039Y011956D01*
X025016Y011637D02*
X025759Y011637D01*
X025759Y011450D02*
X025759Y011174D01*
X026039Y011174D01*
X026039Y011450D01*
X026039Y011730D01*
X026759Y011730D01*
X026759Y011815D01*
X026766Y011815D01*
X026827Y011754D01*
X026827Y011045D01*
X026771Y011101D01*
X026759Y011106D01*
X026759Y011450D01*
X026039Y011450D01*
X025759Y011450D01*
X025759Y011319D02*
X026039Y011319D01*
X026039Y011637D02*
X026827Y011637D01*
X026827Y011319D02*
X026759Y011319D01*
X024819Y010682D02*
X024789Y010682D01*
X032508Y013485D02*
X033068Y013485D01*
X033037Y013473D01*
X032986Y013422D01*
X032953Y013435D01*
X032659Y013435D01*
X032588Y013406D01*
X032508Y013485D01*
X037116Y009089D02*
X038520Y009089D01*
X038839Y008771D02*
X037359Y008771D01*
X037709Y008452D02*
X039157Y008452D01*
X039372Y008134D02*
X037796Y008134D01*
X037741Y007815D02*
X039540Y007815D01*
X039266Y007497D02*
X037616Y007497D01*
X037616Y007178D02*
X038693Y007178D01*
X038523Y006860D02*
X037616Y006860D01*
X037616Y006541D02*
X038519Y006541D01*
X038642Y006223D02*
X037742Y006223D01*
X037704Y004935D02*
X037146Y004377D01*
X037003Y004435D01*
X036709Y004435D01*
X036437Y004323D01*
X036229Y004115D01*
X036116Y003843D01*
X036116Y003805D01*
X034682Y003805D01*
X034705Y003828D01*
X034839Y004150D01*
X034839Y004498D01*
X034705Y004820D01*
X034701Y004824D01*
X034705Y004828D01*
X034750Y004935D01*
X037704Y004935D01*
X037399Y004630D02*
X034784Y004630D01*
X034839Y004312D02*
X036426Y004312D01*
X036179Y003993D02*
X034774Y003993D01*
X037587Y001335D02*
X043768Y001335D01*
X043974Y001421D01*
X044131Y001578D01*
X044538Y001985D01*
X044946Y001985D01*
X045019Y001810D01*
X045221Y001608D01*
X045484Y001499D01*
X045769Y001499D01*
X046032Y001608D01*
X046233Y001810D01*
X046306Y001985D01*
X046318Y001985D01*
X046524Y002071D01*
X046681Y002228D01*
X048279Y003826D01*
X048337Y003768D01*
X048609Y003655D01*
X048903Y003655D01*
X049175Y003768D01*
X049384Y003976D01*
X049496Y004248D01*
X049496Y004343D01*
X049988Y004835D01*
X049988Y004527D01*
X050114Y004222D01*
X050348Y003988D01*
X050653Y003862D01*
X050983Y003862D01*
X051231Y003965D01*
X051308Y003933D01*
X051243Y003777D01*
X051243Y003414D01*
X051382Y003079D01*
X051639Y002822D01*
X051975Y002683D01*
X052338Y002683D01*
X052674Y002822D01*
X052930Y003079D01*
X053069Y003414D01*
X053069Y003777D01*
X053005Y003933D01*
X053138Y003988D01*
X053221Y004071D01*
X053370Y004009D01*
X053643Y004009D01*
X053895Y004114D01*
X054088Y004307D01*
X054192Y004559D01*
X054192Y004832D01*
X054088Y005084D01*
X054082Y005090D01*
X054199Y005206D01*
X054325Y005511D01*
X054325Y005841D01*
X054199Y006146D01*
X053965Y006380D01*
X053907Y006404D01*
X054608Y007105D01*
X054703Y007105D01*
X054975Y007218D01*
X055184Y007426D01*
X055206Y007481D01*
X055206Y002649D01*
X055108Y002675D01*
X054784Y002675D01*
X054472Y002592D01*
X054191Y002430D01*
X053962Y002201D01*
X053800Y001920D01*
X053716Y001607D01*
X053716Y001283D01*
X053740Y001195D01*
X037453Y001195D01*
X037584Y001326D01*
X037587Y001335D01*
X039187Y002455D02*
X040922Y004190D01*
X040931Y004181D01*
X041212Y004019D01*
X041524Y003935D01*
X041848Y003935D01*
X042161Y004019D01*
X042442Y004181D01*
X042671Y004410D01*
X042832Y004691D01*
X042840Y004719D01*
X043389Y004170D01*
X043376Y004167D01*
X043269Y004130D01*
X043167Y004081D01*
X043071Y004020D01*
X042982Y003950D01*
X042902Y003869D01*
X042831Y003781D01*
X042771Y003685D01*
X042722Y003582D01*
X042684Y003475D01*
X042659Y003365D01*
X042646Y003252D01*
X042646Y003195D01*
X042646Y003139D01*
X042659Y003026D01*
X042665Y002998D01*
X042665Y002958D01*
X042691Y002897D01*
X042722Y002808D01*
X042763Y002723D01*
X042809Y002612D01*
X042966Y002455D01*
X042362Y002455D01*
X042293Y002621D01*
X042209Y002705D01*
X042293Y002790D01*
X042403Y003053D01*
X042403Y003338D01*
X042293Y003601D01*
X042092Y003803D01*
X041829Y003912D01*
X041544Y003912D01*
X041281Y003803D01*
X041079Y003601D01*
X040970Y003338D01*
X040970Y003053D01*
X041079Y002790D01*
X041163Y002705D01*
X041079Y002621D01*
X041010Y002455D01*
X039187Y002455D01*
X039451Y002719D02*
X041149Y002719D01*
X040976Y003038D02*
X039769Y003038D01*
X040088Y003356D02*
X040978Y003356D01*
X041153Y003675D02*
X040406Y003675D01*
X040725Y003993D02*
X041308Y003993D01*
X042065Y003993D02*
X043037Y003993D01*
X043248Y004312D02*
X042572Y004312D01*
X042798Y004630D02*
X042929Y004630D01*
X042766Y003675D02*
X042220Y003675D01*
X042395Y003356D02*
X042658Y003356D01*
X042665Y003195D02*
X042665Y003195D01*
X042646Y003195D01*
X042665Y003195D01*
X042658Y003038D02*
X042396Y003038D01*
X042223Y002719D02*
X042764Y002719D01*
X043998Y001445D02*
X053716Y001445D01*
X053758Y001764D02*
X046188Y001764D01*
X046535Y002082D02*
X053894Y002082D01*
X054162Y002401D02*
X046854Y002401D01*
X047172Y002719D02*
X051886Y002719D01*
X052426Y002719D02*
X055206Y002719D01*
X055206Y003038D02*
X052890Y003038D01*
X053045Y003356D02*
X055206Y003356D01*
X055206Y003675D02*
X053069Y003675D01*
X053143Y003993D02*
X055206Y003993D01*
X055206Y004312D02*
X054090Y004312D01*
X054192Y004630D02*
X055206Y004630D01*
X055206Y004949D02*
X054144Y004949D01*
X054224Y005267D02*
X055206Y005267D01*
X055206Y005586D02*
X054325Y005586D01*
X054299Y005904D02*
X055206Y005904D01*
X055206Y006223D02*
X054122Y006223D01*
X054044Y006541D02*
X055206Y006541D01*
X055206Y006860D02*
X054363Y006860D01*
X054880Y007178D02*
X055206Y007178D01*
X055206Y008210D02*
X055184Y008265D01*
X055026Y008423D01*
X055206Y008603D01*
X055206Y008210D01*
X055206Y008452D02*
X055055Y008452D01*
X054108Y009089D02*
X053166Y009089D01*
X053166Y008771D02*
X053790Y008771D01*
X053471Y008452D02*
X053166Y008452D01*
X053166Y008147D02*
X053166Y012813D01*
X054046Y013693D01*
X054046Y011397D01*
X053987Y011373D01*
X053779Y011165D01*
X053666Y010893D01*
X053666Y010598D01*
X053779Y010326D01*
X053987Y010118D01*
X054259Y010005D01*
X054296Y010005D01*
X054296Y009277D01*
X053166Y008147D01*
X052046Y008134D02*
X050787Y008134D01*
X050903Y007835D02*
X050609Y007835D01*
X050403Y007750D01*
X051902Y009250D01*
X052009Y009205D01*
X052046Y009205D01*
X052046Y007982D01*
X051979Y007915D01*
X051866Y007643D01*
X051866Y007348D01*
X051925Y007205D01*
X051496Y007205D01*
X051496Y007243D01*
X051384Y007515D01*
X051175Y007723D01*
X050903Y007835D01*
X050952Y007815D02*
X051938Y007815D01*
X051866Y007497D02*
X051391Y007497D01*
X050561Y007815D02*
X050468Y007815D01*
X051105Y008452D02*
X052046Y008452D01*
X052046Y008771D02*
X051424Y008771D01*
X051742Y009089D02*
X052046Y009089D01*
X053166Y009408D02*
X054296Y009408D01*
X054296Y009726D02*
X053166Y009726D01*
X053166Y010045D02*
X054164Y010045D01*
X053764Y010363D02*
X053166Y010363D01*
X053166Y010682D02*
X053666Y010682D01*
X053711Y011000D02*
X053166Y011000D01*
X053166Y011319D02*
X053933Y011319D01*
X054046Y011637D02*
X053166Y011637D01*
X053166Y011956D02*
X054046Y011956D01*
X054046Y012274D02*
X053166Y012274D01*
X053166Y012593D02*
X054046Y012593D01*
X054046Y012911D02*
X053264Y012911D01*
X053583Y013230D02*
X054046Y013230D01*
X054046Y013548D02*
X053901Y013548D01*
X052123Y014032D02*
X052116Y014026D01*
X052116Y014039D01*
X052123Y014032D01*
X052116Y014952D02*
X052116Y015134D01*
X052116Y015357D01*
X052031Y015563D01*
X051878Y015715D01*
X052126Y015715D01*
X052126Y014962D01*
X052116Y014952D01*
X052116Y015141D02*
X052126Y015141D01*
X052126Y015459D02*
X052074Y015459D01*
X050124Y015535D02*
X050109Y015535D01*
X049837Y015423D01*
X049629Y015215D01*
X049516Y014943D01*
X049516Y014826D01*
X049387Y014773D01*
X049179Y014565D01*
X049066Y014293D01*
X049066Y013998D01*
X049179Y013726D01*
X049246Y013659D01*
X049246Y012027D01*
X049066Y011847D01*
X049066Y014207D01*
X048981Y014413D01*
X047678Y015715D01*
X048940Y015715D01*
X048987Y015668D01*
X049259Y015555D01*
X049553Y015555D01*
X049825Y015668D01*
X049909Y015751D01*
X050124Y015535D01*
X049926Y015459D02*
X047934Y015459D01*
X048253Y015141D02*
X049598Y015141D01*
X049507Y014822D02*
X048571Y014822D01*
X048890Y014504D02*
X049154Y014504D01*
X049066Y014185D02*
X049066Y014185D01*
X049066Y013867D02*
X049121Y013867D01*
X049066Y013548D02*
X049246Y013548D01*
X049246Y013230D02*
X049066Y013230D01*
X049066Y012911D02*
X049246Y012911D01*
X049246Y012593D02*
X049066Y012593D01*
X049066Y012274D02*
X049246Y012274D01*
X049175Y011956D02*
X049066Y011956D01*
X047946Y012311D02*
X047886Y012371D01*
X047886Y012911D01*
X047946Y012911D01*
X047886Y012911D02*
X047798Y013124D01*
X047635Y013287D01*
X047232Y013690D01*
X047232Y013921D01*
X047159Y014097D01*
X047023Y014232D01*
X046847Y014305D01*
X046336Y014305D01*
X046336Y014411D01*
X046248Y014624D01*
X046085Y014787D01*
X045225Y015647D01*
X045275Y015668D01*
X045323Y015715D01*
X046116Y015715D01*
X046116Y015598D01*
X046229Y015326D01*
X046437Y015118D01*
X046709Y015005D01*
X046804Y015005D01*
X047946Y013863D01*
X047946Y012311D01*
X047946Y012593D02*
X047886Y012593D01*
X047946Y013230D02*
X047692Y013230D01*
X047946Y013548D02*
X047374Y013548D01*
X047232Y013867D02*
X047943Y013867D01*
X047624Y014185D02*
X047070Y014185D01*
X047306Y014504D02*
X046298Y014504D01*
X046050Y014822D02*
X046987Y014822D01*
X046414Y015141D02*
X045731Y015141D01*
X045413Y015459D02*
X046174Y015459D01*
X046663Y017355D02*
X046693Y017385D01*
X047800Y017385D01*
X047770Y017355D01*
X046663Y017355D01*
X046678Y017370D02*
X047785Y017370D01*
X049899Y018644D02*
X050046Y018644D01*
X050046Y018497D02*
X050046Y019281D01*
X049262Y019281D01*
X049581Y018963D02*
X050046Y018963D01*
X050046Y019281D02*
X049837Y019368D01*
X049629Y019576D01*
X049516Y019848D01*
X049516Y020143D01*
X049528Y020170D01*
X049425Y020068D01*
X049153Y019955D01*
X048859Y019955D01*
X048587Y020068D01*
X048379Y020276D01*
X048266Y020548D01*
X048266Y020643D01*
X048256Y020654D01*
X048243Y020634D01*
X048206Y020598D01*
X048164Y020570D01*
X048116Y020550D01*
X048066Y020540D01*
X048004Y020540D01*
X050046Y018497D01*
X049619Y019600D02*
X048944Y019600D01*
X048625Y019918D02*
X049516Y019918D01*
X048418Y020237D02*
X048307Y020237D01*
X048266Y020555D02*
X048129Y020555D01*
X047745Y021095D02*
X047413Y021095D01*
X047413Y021095D01*
X047745Y021095D01*
X047745Y021095D01*
X047190Y021155D02*
X047190Y021416D01*
X047200Y021466D01*
X047220Y021514D01*
X047248Y021556D01*
X047284Y021593D01*
X047304Y021606D01*
X046316Y022593D01*
X046316Y022497D01*
X046375Y022473D01*
X046584Y022265D01*
X046696Y021993D01*
X046696Y021871D01*
X046758Y021871D01*
X046934Y021798D01*
X047070Y021663D01*
X047143Y021486D01*
X047143Y021155D01*
X047190Y021155D01*
X047190Y021192D02*
X047143Y021192D01*
X047132Y021511D02*
X047218Y021511D01*
X047080Y021829D02*
X046858Y021829D01*
X046762Y022148D02*
X046632Y022148D01*
X046443Y022466D02*
X046382Y022466D01*
X045196Y022466D02*
X042666Y022466D01*
X042666Y022148D02*
X045196Y022148D01*
X045196Y021934D02*
X045216Y021886D01*
X045216Y021871D01*
X045129Y021871D01*
X045106Y021861D01*
X045084Y021871D01*
X044381Y021871D01*
X044204Y021798D01*
X044069Y021663D01*
X044066Y021655D01*
X044043Y021655D01*
X044025Y021673D01*
X043753Y021785D01*
X043459Y021785D01*
X043187Y021673D01*
X043154Y021640D01*
X042666Y022127D01*
X042666Y024057D01*
X042581Y024263D01*
X042551Y024293D01*
X042684Y024426D01*
X042796Y024698D01*
X042796Y024735D01*
X044474Y024735D01*
X045162Y024048D01*
X045129Y024015D01*
X045016Y023743D01*
X045016Y023448D01*
X045129Y023176D01*
X045196Y023109D01*
X045196Y021934D01*
X044281Y021829D02*
X042964Y021829D01*
X042666Y022785D02*
X045196Y022785D01*
X045196Y023103D02*
X042666Y023103D01*
X042666Y023422D02*
X045027Y023422D01*
X045016Y023740D02*
X042666Y023740D01*
X042665Y024059D02*
X045151Y024059D01*
X044832Y024377D02*
X042635Y024377D01*
X042795Y024696D02*
X044514Y024696D01*
X046008Y025835D02*
X048468Y025835D01*
X048674Y025921D01*
X048831Y026078D01*
X048867Y026114D01*
X049009Y026055D01*
X049303Y026055D01*
X049575Y026168D01*
X049784Y026376D01*
X049845Y026525D01*
X049939Y026525D01*
X050032Y026563D01*
X049832Y026363D01*
X049746Y026157D01*
X049746Y025934D01*
X049746Y025034D01*
X049796Y024913D01*
X049796Y022652D01*
X049725Y022723D01*
X049453Y022835D01*
X049216Y022835D01*
X049184Y022915D01*
X048975Y023123D01*
X048703Y023235D01*
X048608Y023235D01*
X046008Y025835D01*
X046192Y025651D02*
X049746Y025651D01*
X049746Y025333D02*
X046511Y025333D01*
X046829Y025014D02*
X049754Y025014D01*
X049796Y024696D02*
X047148Y024696D01*
X047466Y024377D02*
X049796Y024377D01*
X049796Y024059D02*
X047785Y024059D01*
X048103Y023740D02*
X049796Y023740D01*
X049796Y023422D02*
X048422Y023422D01*
X048995Y023103D02*
X049796Y023103D01*
X049796Y022785D02*
X049575Y022785D01*
X046924Y020035D02*
X046763Y020035D01*
X046834Y019965D01*
X046946Y019693D01*
X046946Y019398D01*
X046834Y019126D01*
X046713Y019005D01*
X047670Y019005D01*
X047737Y019073D01*
X047843Y019117D01*
X046924Y020035D01*
X046853Y019918D02*
X047041Y019918D01*
X046946Y019600D02*
X047360Y019600D01*
X047678Y019281D02*
X046898Y019281D01*
X044233Y017314D02*
X044166Y017247D01*
X044166Y017259D01*
X044228Y017320D01*
X044233Y017314D01*
X043046Y017259D02*
X043046Y017032D01*
X042979Y016965D01*
X042866Y016693D01*
X042866Y016398D01*
X042979Y016126D01*
X043012Y016093D01*
X042186Y015267D01*
X042186Y017811D01*
X042098Y018024D01*
X040737Y019385D01*
X041566Y019385D01*
X041566Y019298D01*
X041679Y019026D01*
X041887Y018818D01*
X042159Y018705D01*
X042453Y018705D01*
X042725Y018818D01*
X042793Y018885D01*
X043416Y018885D01*
X043416Y018798D01*
X043529Y018526D01*
X043570Y018485D01*
X043459Y018485D01*
X043187Y018373D01*
X042979Y018165D01*
X042866Y017893D01*
X042866Y017598D01*
X042979Y017326D01*
X043046Y017259D01*
X042961Y017370D02*
X042186Y017370D01*
X042186Y017052D02*
X043046Y017052D01*
X042883Y016733D02*
X042186Y016733D01*
X042186Y016415D02*
X042866Y016415D01*
X043009Y016096D02*
X042186Y016096D01*
X042186Y015778D02*
X042697Y015778D01*
X042378Y015459D02*
X042186Y015459D01*
X041026Y015717D02*
X041026Y017455D01*
X040766Y017715D01*
X040766Y016882D01*
X040834Y016815D01*
X040946Y016543D01*
X040946Y016248D01*
X040834Y015976D01*
X040801Y015943D01*
X041026Y015717D01*
X041026Y015778D02*
X040966Y015778D01*
X041026Y016096D02*
X040883Y016096D01*
X040946Y016415D02*
X041026Y016415D01*
X041026Y016733D02*
X040867Y016733D01*
X040766Y017052D02*
X041026Y017052D01*
X041026Y017370D02*
X040766Y017370D01*
X040766Y017689D02*
X040793Y017689D01*
X041796Y018326D02*
X043140Y018326D01*
X042914Y018007D02*
X042105Y018007D01*
X042186Y017689D02*
X042866Y017689D01*
X043480Y018644D02*
X041478Y018644D01*
X041742Y018963D02*
X041159Y018963D01*
X040841Y019281D02*
X041573Y019281D01*
X039648Y018833D02*
X039579Y018765D01*
X039466Y018493D01*
X039466Y018476D01*
X039346Y018426D01*
X039346Y018493D01*
X039236Y018758D01*
X039236Y019245D01*
X039648Y018833D01*
X039519Y018963D02*
X039236Y018963D01*
X039283Y018644D02*
X039529Y018644D01*
X038076Y020017D02*
X036839Y021255D01*
X036839Y021498D01*
X036705Y021820D01*
X036701Y021824D01*
X036705Y021828D01*
X036839Y022150D01*
X036839Y022498D01*
X036720Y022785D01*
X039476Y022785D01*
X039374Y022871D02*
X039168Y022785D01*
X036720Y022785D01*
X036839Y022466D02*
X039157Y022466D01*
X038839Y022148D02*
X036838Y022148D01*
X036706Y021829D02*
X038520Y021829D01*
X038328Y021637D02*
X038165Y021474D01*
X038076Y021261D01*
X038076Y020017D01*
X038076Y020237D02*
X037857Y020237D01*
X038076Y020555D02*
X037538Y020555D01*
X037220Y020874D02*
X038076Y020874D01*
X038076Y021192D02*
X036901Y021192D01*
X036833Y021511D02*
X038202Y021511D01*
X038328Y021637D02*
X040326Y023635D01*
X040138Y023635D01*
X039531Y023028D01*
X039531Y023028D01*
X039374Y022871D01*
X039606Y023103D02*
X039794Y023103D01*
X039925Y023422D02*
X040113Y023422D01*
X040798Y022466D02*
X041546Y022466D01*
X041546Y022148D02*
X040479Y022148D01*
X040161Y021829D02*
X041546Y021829D01*
X041546Y021784D02*
X041546Y023005D01*
X041509Y023005D01*
X041387Y023056D01*
X039790Y021458D01*
X039834Y021415D01*
X039946Y021143D01*
X039946Y021047D01*
X040488Y020505D01*
X042704Y020505D01*
X041789Y021421D01*
X041632Y021578D01*
X041546Y021784D01*
X041699Y021511D02*
X039842Y021511D01*
X039926Y021192D02*
X042017Y021192D01*
X042336Y020874D02*
X040120Y020874D01*
X040438Y020555D02*
X042654Y020555D01*
X041546Y022785D02*
X041116Y022785D01*
X039274Y024705D02*
X037908Y024705D01*
X037938Y024735D01*
X039304Y024735D01*
X039274Y024705D01*
X036396Y026835D02*
X036209Y026835D01*
X035937Y026723D01*
X035904Y026690D01*
X035374Y027220D01*
X035356Y027227D01*
X035481Y027279D01*
X035659Y027205D01*
X035953Y027205D01*
X036225Y027318D01*
X036259Y027351D01*
X036396Y027213D01*
X036396Y026835D01*
X036396Y026925D02*
X035668Y026925D01*
X035566Y027244D02*
X035396Y027244D01*
X034768Y027305D02*
X034174Y027305D01*
X034325Y027368D01*
X034373Y027415D01*
X034640Y027415D01*
X034737Y027318D01*
X034768Y027305D01*
X036046Y027244D02*
X036366Y027244D01*
X038344Y028199D02*
X042688Y028199D01*
X042723Y028332D02*
X042646Y028044D01*
X042646Y027747D01*
X042711Y027505D01*
X039038Y027505D01*
X037746Y028797D01*
X037746Y028893D01*
X037687Y029035D01*
X046510Y029035D01*
X046357Y028883D01*
X046226Y028566D01*
X046226Y028224D01*
X046236Y028201D01*
X046073Y028133D01*
X046068Y028128D01*
X046059Y028124D01*
X045817Y027883D01*
X045686Y027566D01*
X045686Y027405D01*
X044798Y027405D01*
X044829Y027459D01*
X044906Y027747D01*
X044906Y028044D01*
X044829Y028332D01*
X044681Y028589D01*
X044470Y028800D01*
X044212Y028948D01*
X043925Y029025D01*
X043628Y029025D01*
X043340Y028948D01*
X043082Y028800D01*
X042872Y028589D01*
X042723Y028332D01*
X042831Y028518D02*
X038026Y028518D01*
X037746Y028836D02*
X043146Y028836D01*
X044406Y028836D02*
X046338Y028836D01*
X046226Y028518D02*
X044722Y028518D01*
X044865Y028199D02*
X046233Y028199D01*
X045817Y027881D02*
X044906Y027881D01*
X044857Y027562D02*
X045686Y027562D01*
X042696Y027562D02*
X038981Y027562D01*
X038663Y027881D02*
X042646Y027881D01*
X036988Y030155D02*
X036481Y030663D01*
X036324Y030820D01*
X036118Y030905D01*
X035193Y030905D01*
X035125Y030973D01*
X034853Y031085D01*
X034559Y031085D01*
X034287Y030973D01*
X034254Y030940D01*
X034058Y031135D01*
X048274Y031135D01*
X049254Y030155D01*
X036988Y030155D01*
X036715Y030429D02*
X048981Y030429D01*
X048662Y030747D02*
X036396Y030747D01*
X034901Y031066D02*
X048344Y031066D01*
X049291Y031703D02*
X053880Y031703D01*
X053800Y031841D02*
X053962Y031560D01*
X054191Y031331D01*
X054472Y031169D01*
X054784Y031085D01*
X055108Y031085D01*
X055206Y031112D01*
X055206Y015687D01*
X055174Y015720D01*
X054796Y016097D01*
X054796Y016193D01*
X054723Y016370D01*
X054796Y016548D01*
X054796Y016843D01*
X054684Y017115D01*
X054616Y017182D01*
X054616Y025257D01*
X054531Y025463D01*
X053084Y026909D01*
X053200Y026842D01*
X053488Y026765D01*
X053785Y026765D01*
X054072Y026842D01*
X054330Y026991D01*
X054541Y027202D01*
X054689Y027459D01*
X054766Y027747D01*
X054766Y028044D01*
X054689Y028332D01*
X054541Y028589D01*
X054330Y028800D01*
X054072Y028948D01*
X053785Y029025D01*
X053488Y029025D01*
X053200Y028948D01*
X052942Y028800D01*
X052732Y028589D01*
X052583Y028332D01*
X052566Y028268D01*
X052566Y028307D01*
X052481Y028513D01*
X048981Y032013D01*
X048824Y032170D01*
X048618Y032255D01*
X033843Y032255D01*
X033775Y032323D01*
X033503Y032435D01*
X033209Y032435D01*
X032937Y032323D01*
X032904Y032290D01*
X032881Y032313D01*
X032748Y032445D01*
X053716Y032445D01*
X053716Y032153D01*
X053800Y031841D01*
X053752Y032021D02*
X048972Y032021D01*
X049609Y031384D02*
X054138Y031384D01*
X055206Y031066D02*
X049928Y031066D01*
X050246Y030747D02*
X055206Y030747D01*
X055206Y030429D02*
X050565Y030429D01*
X050883Y030110D02*
X055206Y030110D01*
X055206Y029792D02*
X051202Y029792D01*
X051520Y029473D02*
X055206Y029473D01*
X055206Y029155D02*
X051839Y029155D01*
X052157Y028836D02*
X053006Y028836D01*
X052691Y028518D02*
X052476Y028518D01*
X051218Y028192D02*
X051181Y028207D01*
X051187Y028222D01*
X051187Y028223D01*
X051218Y028192D01*
X051210Y028199D02*
X051200Y028199D01*
X052324Y027271D02*
X052481Y027428D01*
X052548Y027590D01*
X052583Y027459D01*
X052732Y027202D01*
X052871Y027063D01*
X052768Y027105D01*
X052158Y027105D01*
X052324Y027271D01*
X052297Y027244D02*
X052708Y027244D01*
X052556Y027562D02*
X052537Y027562D01*
X053387Y026607D02*
X055206Y026607D01*
X055206Y026925D02*
X054216Y026925D01*
X054565Y027244D02*
X055206Y027244D01*
X055206Y027562D02*
X054717Y027562D01*
X054766Y027881D02*
X055206Y027881D01*
X055206Y028199D02*
X054725Y028199D01*
X054582Y028518D02*
X055206Y028518D01*
X055206Y028836D02*
X054266Y028836D01*
X053705Y026288D02*
X055206Y026288D01*
X055206Y025970D02*
X054024Y025970D01*
X054342Y025651D02*
X055206Y025651D01*
X055206Y025333D02*
X054585Y025333D01*
X054616Y025014D02*
X055206Y025014D01*
X055206Y024696D02*
X054616Y024696D01*
X054616Y024377D02*
X055206Y024377D01*
X055206Y024059D02*
X054616Y024059D01*
X054616Y023740D02*
X055206Y023740D01*
X055206Y023422D02*
X054616Y023422D01*
X054616Y023103D02*
X055206Y023103D01*
X055206Y022785D02*
X054616Y022785D01*
X054616Y022466D02*
X055206Y022466D01*
X055206Y022148D02*
X054616Y022148D01*
X054616Y021829D02*
X055206Y021829D01*
X055206Y021511D02*
X054616Y021511D01*
X054616Y021192D02*
X055206Y021192D01*
X055206Y020874D02*
X054616Y020874D01*
X054616Y020555D02*
X055206Y020555D01*
X055206Y020237D02*
X054616Y020237D01*
X054616Y019918D02*
X055206Y019918D01*
X055206Y019600D02*
X054616Y019600D01*
X054616Y019281D02*
X055206Y019281D01*
X055206Y018963D02*
X054616Y018963D01*
X054616Y018644D02*
X055206Y018644D01*
X055206Y018326D02*
X054616Y018326D01*
X054616Y018007D02*
X055206Y018007D01*
X055206Y017689D02*
X054616Y017689D01*
X054616Y017370D02*
X055206Y017370D01*
X055206Y017052D02*
X054710Y017052D01*
X054796Y016733D02*
X055206Y016733D01*
X055206Y016415D02*
X054741Y016415D01*
X054797Y016096D02*
X055206Y016096D01*
X055206Y015778D02*
X055116Y015778D01*
X051466Y016968D02*
X051303Y017035D01*
X051266Y017035D01*
X051266Y017243D01*
X051466Y017043D01*
X051466Y016968D01*
X051458Y017052D02*
X051266Y017052D01*
X052837Y018235D02*
X052976Y018235D01*
X052976Y018096D01*
X052837Y018235D01*
X045889Y012159D02*
X045762Y012285D01*
X045363Y012285D01*
X045416Y012157D01*
X045416Y011134D01*
X045331Y010928D01*
X045174Y010771D01*
X043308Y008905D01*
X045073Y008905D01*
X045003Y008975D01*
X044876Y009280D01*
X044876Y009610D01*
X045003Y009916D01*
X045236Y010149D01*
X045541Y010275D01*
X045871Y010275D01*
X046176Y010149D01*
X046320Y010005D01*
X046576Y010005D01*
X046576Y011561D01*
X046596Y011609D01*
X046596Y012085D01*
X046066Y012085D01*
X045889Y012159D01*
X045773Y012274D02*
X045368Y012274D01*
X045416Y011956D02*
X046596Y011956D01*
X046596Y011637D02*
X045416Y011637D01*
X045416Y011319D02*
X046576Y011319D01*
X046576Y011000D02*
X045361Y011000D01*
X045085Y010682D02*
X046576Y010682D01*
X046576Y010363D02*
X044766Y010363D01*
X044448Y010045D02*
X045132Y010045D01*
X044924Y009726D02*
X044129Y009726D01*
X043811Y009408D02*
X044876Y009408D01*
X044955Y009089D02*
X043492Y009089D01*
X042545Y009726D02*
X042066Y009726D01*
X042066Y009408D02*
X042227Y009408D01*
X042082Y009263D02*
X042066Y009226D01*
X042066Y011835D01*
X042074Y011835D01*
X042431Y011479D01*
X042431Y011220D01*
X042504Y011044D01*
X042639Y010909D01*
X042816Y010835D01*
X043597Y010835D01*
X043695Y010876D01*
X042082Y009263D01*
X042066Y010045D02*
X042864Y010045D01*
X043182Y010363D02*
X042066Y010363D01*
X042066Y010682D02*
X043501Y010682D01*
X042547Y011000D02*
X042066Y011000D01*
X042066Y011319D02*
X042431Y011319D01*
X042272Y011637D02*
X042066Y011637D01*
X042927Y013055D02*
X042976Y013055D01*
X042976Y014473D01*
X042773Y014270D01*
X042846Y014093D01*
X042846Y013798D01*
X042762Y013594D01*
X042762Y013319D01*
X042527Y013319D01*
X042527Y013319D01*
X042762Y013319D01*
X042762Y013239D01*
X042773Y013234D01*
X042909Y013099D01*
X042927Y013055D01*
X042976Y013230D02*
X042778Y013230D01*
X042762Y013548D02*
X042976Y013548D01*
X042976Y013867D02*
X042846Y013867D01*
X042808Y014185D02*
X042976Y014185D01*
X039937Y014822D02*
X039780Y014822D01*
X040002Y015141D02*
X040019Y015141D01*
X047736Y010942D02*
X047860Y010993D01*
X047946Y011079D01*
X047946Y010334D01*
X048032Y010128D01*
X048175Y009984D01*
X048102Y009912D01*
X048026Y009967D01*
X047940Y010011D01*
X047849Y010040D01*
X047754Y010055D01*
X047736Y010055D01*
X047736Y010942D01*
X047867Y011000D02*
X047946Y011000D01*
X047946Y010682D02*
X047736Y010682D01*
X047736Y010363D02*
X047946Y010363D01*
X047821Y010045D02*
X048115Y010045D01*
X046576Y010045D02*
X046281Y010045D01*
X050866Y010685D02*
X050866Y010913D01*
X051008Y011055D01*
X051103Y011055D01*
X051146Y011073D01*
X051146Y010785D01*
X051109Y010785D01*
X050866Y010685D01*
X050953Y011000D02*
X051146Y011000D01*
X043457Y006150D02*
X043529Y005976D01*
X043624Y005882D01*
X043514Y005882D01*
X043336Y005808D01*
X043163Y005980D01*
X043375Y006068D01*
X043457Y006150D01*
X043601Y005904D02*
X043239Y005904D01*
X044308Y005463D02*
X044420Y005416D01*
X044396Y005327D01*
X044396Y005003D01*
X044449Y004805D01*
X044338Y004805D01*
X044299Y004845D01*
X044373Y005023D01*
X044373Y005308D01*
X044308Y005463D01*
X044373Y005267D02*
X044396Y005267D01*
X044411Y004949D02*
X044342Y004949D01*
X044541Y003685D02*
X045103Y003685D01*
X045019Y003601D01*
X044910Y003338D01*
X044910Y003105D01*
X044663Y003105D01*
X044666Y003139D01*
X044666Y003195D01*
X044547Y003195D01*
X044547Y003195D01*
X044666Y003195D01*
X044666Y003252D01*
X044654Y003365D01*
X044628Y003475D01*
X044591Y003582D01*
X044542Y003685D01*
X044541Y003685D01*
X044546Y003675D02*
X045093Y003675D01*
X044918Y003356D02*
X044655Y003356D01*
X046149Y003685D02*
X046554Y003685D01*
X046303Y003434D01*
X046233Y003601D01*
X046149Y003685D01*
X046160Y003675D02*
X046544Y003675D01*
X047491Y003038D02*
X051423Y003038D01*
X051267Y003356D02*
X047809Y003356D01*
X048128Y003675D02*
X048562Y003675D01*
X048951Y003675D02*
X051243Y003675D01*
X050342Y003993D02*
X049391Y003993D01*
X049496Y004312D02*
X050077Y004312D01*
X049988Y004630D02*
X049783Y004630D01*
X051648Y005522D02*
X051648Y005685D01*
X052665Y005685D01*
X052665Y005522D01*
X052503Y005522D01*
X052198Y005395D01*
X052156Y005354D01*
X052115Y005395D01*
X051810Y005522D01*
X051648Y005522D01*
X051648Y005586D02*
X052665Y005586D01*
X047604Y005385D02*
X047024Y004805D01*
X046803Y004805D01*
X046856Y005003D01*
X046856Y005327D01*
X046841Y005385D01*
X047604Y005385D01*
X047486Y005267D02*
X046856Y005267D01*
X046842Y004949D02*
X047168Y004949D01*
X045065Y001764D02*
X044317Y001764D01*
X039896Y005477D02*
X039884Y005465D01*
X039851Y005498D01*
X039896Y005543D01*
X039896Y005477D01*
X016016Y011319D02*
X013566Y011319D01*
X014369Y011637D02*
X015722Y011637D01*
X015404Y011956D02*
X014687Y011956D01*
X013986Y013062D02*
X013825Y013223D01*
X013553Y013335D01*
X013458Y013335D01*
X013351Y013443D01*
X013384Y013476D01*
X013496Y013748D01*
X013496Y014043D01*
X013384Y014315D01*
X013296Y014402D01*
X013296Y014493D01*
X014124Y015321D01*
X014281Y015478D01*
X014366Y015684D01*
X014366Y016105D01*
X014403Y016105D01*
X014422Y016113D01*
X014479Y015976D01*
X014687Y015768D01*
X014959Y015655D01*
X015253Y015655D01*
X015325Y015685D01*
X015882Y015128D01*
X016034Y014975D01*
X016007Y014979D01*
X015964Y014979D01*
X015964Y014324D01*
X015964Y014324D01*
X015964Y014979D01*
X015921Y014979D01*
X015836Y014968D01*
X015753Y014946D01*
X015673Y014913D01*
X015599Y014870D01*
X015531Y014818D01*
X015470Y014757D01*
X015418Y014689D01*
X015375Y014614D01*
X015342Y014535D01*
X015330Y014491D01*
X015103Y014585D01*
X014809Y014585D01*
X014631Y014512D01*
X014453Y014585D01*
X014159Y014585D01*
X013887Y014473D01*
X013679Y014265D01*
X013566Y013993D01*
X013566Y013698D01*
X013679Y013426D01*
X013887Y013218D01*
X014027Y013160D01*
X013986Y013062D01*
X013875Y013230D02*
X013808Y013230D01*
X013628Y013548D02*
X013414Y013548D01*
X013496Y013867D02*
X013566Y013867D01*
X013646Y014185D02*
X013437Y014185D01*
X013307Y014504D02*
X013962Y014504D01*
X013625Y014822D02*
X015537Y014822D01*
X015334Y014504D02*
X015300Y014504D01*
X015964Y014504D02*
X015964Y014504D01*
X015964Y014822D02*
X015964Y014822D01*
X015869Y015141D02*
X013944Y015141D01*
X014262Y015459D02*
X015550Y015459D01*
X014677Y015778D02*
X014366Y015778D01*
X014366Y016096D02*
X014429Y016096D01*
X010723Y012370D02*
X010725Y012367D01*
X010763Y012329D01*
X010725Y012291D01*
X010640Y012086D01*
X010640Y011706D01*
X010671Y011630D01*
X009983Y011630D01*
X010723Y012370D01*
X010718Y012274D02*
X010627Y012274D01*
X010640Y011956D02*
X010309Y011956D01*
X009990Y011637D02*
X010668Y011637D01*
X012511Y004312D02*
X013820Y004312D01*
X014208Y003993D02*
X012012Y003993D01*
X006171Y001195D02*
X005913Y001195D01*
X005936Y001283D01*
X005936Y001323D01*
X005989Y001271D01*
X006171Y001195D01*
X023325Y026122D02*
X023504Y026301D01*
X023537Y026268D01*
X023747Y026181D01*
X023468Y026066D01*
X023464Y026061D01*
X023459Y026066D01*
X023325Y026122D01*
X023491Y026288D02*
X023517Y026288D01*
X020904Y029792D02*
X020734Y029792D01*
X013274Y029155D02*
X013229Y029155D01*
X007764Y032445D02*
X007089Y031770D01*
X006932Y031613D01*
X006914Y031570D01*
X006862Y031623D01*
X006599Y031732D01*
X006314Y031732D01*
X006051Y031623D01*
X005966Y031538D01*
X005882Y031623D01*
X005757Y031674D01*
X005852Y031841D01*
X005936Y032153D01*
X005936Y032445D01*
X007764Y032445D01*
X007659Y032340D02*
X005936Y032340D01*
X005901Y032021D02*
X007340Y032021D01*
X007022Y031703D02*
X006668Y031703D01*
X006245Y031703D02*
X005773Y031703D01*
X004760Y031066D02*
X004706Y031066D01*
X004706Y030747D02*
X004812Y030747D01*
X004706Y030429D02*
X005050Y030429D01*
X029178Y031066D02*
X031894Y031066D01*
X032212Y030747D02*
X029496Y030747D01*
X029815Y030429D02*
X032531Y030429D01*
X032849Y030110D02*
X030133Y030110D01*
X032854Y032340D02*
X032979Y032340D01*
X033734Y032340D02*
X053716Y032340D01*
X049801Y026288D02*
X049696Y026288D01*
X049746Y025970D02*
X048723Y025970D01*
X034512Y031066D02*
X034128Y031066D01*
D35*
X006556Y005245D02*
X006531Y005207D01*
X006531Y004184D02*
X006556Y004145D01*
M02*
