G04 Layer_Color=32896*
%FSLAX23Y23*%
%MOIN*%
G70*
G01*
G75*
%ADD30C,0.008*%
%ADD62C,0.008*%
%ADD63C,0.006*%
%ADD67C,0.010*%
%ADD68C,0.024*%
%ADD69C,0.001*%
D30*
X900Y967D02*
Y1117D01*
X1100D01*
Y967D02*
Y1117D01*
X900Y967D02*
X1100D01*
X925D02*
Y1117D01*
X1853Y878D02*
X1860Y885D01*
X1873D01*
X1880Y878D01*
Y852D01*
X1873Y845D01*
X1860D01*
X1853Y852D01*
X1813Y845D02*
X1840D01*
X1813Y872D01*
Y878D01*
X1820Y885D01*
X1833D01*
X1840Y878D01*
X1773Y845D02*
X1800D01*
X1773Y872D01*
Y878D01*
X1780Y885D01*
X1793D01*
X1800Y878D01*
X1183Y292D02*
X1190Y285D01*
Y272D01*
X1183Y265D01*
X1157D01*
X1150Y272D01*
Y285D01*
X1157Y292D01*
X1150Y305D02*
Y318D01*
Y312D01*
X1190D01*
X1183Y305D01*
X2338Y558D02*
X2345Y565D01*
X2358D01*
X2365Y558D01*
Y532D01*
X2358Y525D01*
X2345D01*
X2338Y532D01*
X2298Y525D02*
X2325D01*
X2298Y552D01*
Y558D01*
X2305Y565D01*
X2318D01*
X2325Y558D01*
X2768Y1559D02*
X2774Y1553D01*
Y1539D01*
X2768Y1533D01*
X2741D01*
X2734Y1539D01*
Y1553D01*
X2741Y1559D01*
X2768Y1573D02*
X2774Y1579D01*
Y1593D01*
X2768Y1599D01*
X2761D01*
X2754Y1593D01*
Y1586D01*
Y1593D01*
X2748Y1599D01*
X2741D01*
X2734Y1593D01*
Y1579D01*
X2741Y1573D01*
X2573Y1564D02*
X2579Y1558D01*
Y1544D01*
X2573Y1538D01*
X2546D01*
X2539Y1544D01*
Y1558D01*
X2546Y1564D01*
X2539Y1598D02*
X2579D01*
X2559Y1578D01*
Y1604D01*
X2553Y452D02*
X2560Y445D01*
Y432D01*
X2553Y425D01*
X2527D01*
X2520Y432D01*
Y445D01*
X2527Y452D01*
X2560Y492D02*
Y465D01*
X2540D01*
X2547Y478D01*
Y485D01*
X2540Y492D01*
X2527D01*
X2520Y485D01*
Y472D01*
X2527Y465D01*
X1458Y1583D02*
X1465Y1590D01*
X1478D01*
X1485Y1583D01*
Y1557D01*
X1478Y1550D01*
X1465D01*
X1458Y1557D01*
X1445D02*
X1438Y1550D01*
X1425D01*
X1418Y1557D01*
Y1583D01*
X1425Y1590D01*
X1438D01*
X1445Y1583D01*
Y1577D01*
X1438Y1570D01*
X1418D01*
X1338Y1227D02*
X1345Y1220D01*
Y1207D01*
X1338Y1200D01*
X1312D01*
X1305Y1207D01*
Y1220D01*
X1312Y1227D01*
X1305Y1240D02*
Y1253D01*
Y1247D01*
X1345D01*
X1338Y1240D01*
Y1273D02*
X1345Y1280D01*
Y1293D01*
X1338Y1300D01*
X1312D01*
X1305Y1293D01*
Y1280D01*
X1312Y1273D01*
X1338D01*
X1613Y878D02*
X1620Y885D01*
X1633D01*
X1640Y878D01*
Y852D01*
X1633Y845D01*
X1620D01*
X1613Y852D01*
X1600Y845D02*
X1587D01*
X1593D01*
Y885D01*
X1600Y878D01*
X1567Y845D02*
X1553D01*
X1560D01*
Y885D01*
X1567Y878D01*
X2048Y1172D02*
X2055Y1165D01*
Y1152D01*
X2048Y1145D01*
X2022D01*
X2015Y1152D01*
Y1165D01*
X2022Y1172D01*
X2015Y1185D02*
Y1198D01*
Y1192D01*
X2055D01*
X2048Y1185D01*
X2015Y1245D02*
Y1218D01*
X2042Y1245D01*
X2048D01*
X2055Y1238D01*
Y1225D01*
X2048Y1218D01*
X1398Y1748D02*
X1405Y1755D01*
X1418D01*
X1425Y1748D01*
Y1722D01*
X1418Y1715D01*
X1405D01*
X1398Y1722D01*
X1385Y1715D02*
X1372D01*
X1378D01*
Y1755D01*
X1385Y1748D01*
X1352D02*
X1345Y1755D01*
X1332D01*
X1325Y1748D01*
Y1742D01*
X1332Y1735D01*
X1325Y1728D01*
Y1722D01*
X1332Y1715D01*
X1345D01*
X1352Y1722D01*
Y1728D01*
X1345Y1735D01*
X1352Y1742D01*
Y1748D01*
X1345Y1735D02*
X1332D01*
X1793Y1673D02*
X1800Y1680D01*
X1813D01*
X1820Y1673D01*
Y1647D01*
X1813Y1640D01*
X1800D01*
X1793Y1647D01*
X1780Y1640D02*
X1767D01*
X1773D01*
Y1680D01*
X1780Y1673D01*
X1747Y1647D02*
X1740Y1640D01*
X1727D01*
X1720Y1647D01*
Y1673D01*
X1727Y1680D01*
X1740D01*
X1747Y1673D01*
Y1667D01*
X1740Y1660D01*
X1720D01*
X1224Y1681D02*
X1230Y1688D01*
X1244D01*
X1250Y1681D01*
Y1655D01*
X1244Y1648D01*
X1230D01*
X1224Y1655D01*
X1184Y1648D02*
X1210D01*
X1184Y1675D01*
Y1681D01*
X1190Y1688D01*
X1204D01*
X1210Y1681D01*
X1170D02*
X1164Y1688D01*
X1150D01*
X1144Y1681D01*
Y1655D01*
X1150Y1648D01*
X1164D01*
X1170Y1655D01*
Y1681D01*
X1593Y1443D02*
X1600Y1450D01*
X1613D01*
X1620Y1443D01*
Y1417D01*
X1613Y1410D01*
X1600D01*
X1593Y1417D01*
X1553Y1410D02*
X1580D01*
X1553Y1437D01*
Y1443D01*
X1560Y1450D01*
X1573D01*
X1580Y1443D01*
X1540Y1410D02*
X1527D01*
X1533D01*
Y1450D01*
X1540Y1443D01*
X2048Y1302D02*
X2055Y1295D01*
Y1282D01*
X2048Y1275D01*
X2022D01*
X2015Y1282D01*
Y1295D01*
X2022Y1302D01*
X2015Y1342D02*
Y1315D01*
X2042Y1342D01*
X2048D01*
X2055Y1335D01*
Y1322D01*
X2048Y1315D01*
Y1355D02*
X2055Y1362D01*
Y1375D01*
X2048Y1382D01*
X2042D01*
X2035Y1375D01*
Y1368D01*
Y1375D01*
X2028Y1382D01*
X2022D01*
X2015Y1375D01*
Y1362D01*
X2022Y1355D01*
X1713Y1443D02*
X1720Y1450D01*
X1733D01*
X1740Y1443D01*
Y1417D01*
X1733Y1410D01*
X1720D01*
X1713Y1417D01*
X1673Y1410D02*
X1700D01*
X1673Y1437D01*
Y1443D01*
X1680Y1450D01*
X1693D01*
X1700Y1443D01*
X1640Y1410D02*
Y1450D01*
X1660Y1430D01*
X1633D01*
X1938Y1583D02*
X1945Y1590D01*
X1958D01*
X1965Y1583D01*
Y1557D01*
X1958Y1550D01*
X1945D01*
X1938Y1557D01*
X1898Y1550D02*
X1925D01*
X1898Y1577D01*
Y1583D01*
X1905Y1590D01*
X1918D01*
X1925Y1583D01*
X1858Y1590D02*
X1885D01*
Y1570D01*
X1872Y1577D01*
X1865D01*
X1858Y1570D01*
Y1557D01*
X1865Y1550D01*
X1878D01*
X1885Y1557D01*
X1173Y808D02*
X1180Y815D01*
X1193D01*
X1200Y808D01*
Y782D01*
X1193Y775D01*
X1180D01*
X1173Y782D01*
X1133Y775D02*
X1160D01*
X1133Y802D01*
Y808D01*
X1140Y815D01*
X1153D01*
X1160Y808D01*
X1093Y815D02*
X1107Y808D01*
X1120Y795D01*
Y782D01*
X1113Y775D01*
X1100D01*
X1093Y782D01*
Y788D01*
X1100Y795D01*
X1120D01*
X1338Y907D02*
X1345Y900D01*
Y887D01*
X1338Y880D01*
X1312D01*
X1305Y887D01*
Y900D01*
X1312Y907D01*
X1305Y947D02*
Y920D01*
X1332Y947D01*
X1338D01*
X1345Y940D01*
Y927D01*
X1338Y920D01*
X1345Y960D02*
Y987D01*
X1338D01*
X1312Y960D01*
X1305D01*
X1828Y1333D02*
X1835Y1340D01*
X1848D01*
X1855Y1333D01*
Y1307D01*
X1848Y1300D01*
X1835D01*
X1828Y1307D01*
X1788Y1300D02*
X1815D01*
X1788Y1327D01*
Y1333D01*
X1795Y1340D01*
X1808D01*
X1815Y1333D01*
X1775D02*
X1768Y1340D01*
X1755D01*
X1748Y1333D01*
Y1327D01*
X1755Y1320D01*
X1748Y1313D01*
Y1307D01*
X1755Y1300D01*
X1768D01*
X1775Y1307D01*
Y1313D01*
X1768Y1320D01*
X1775Y1327D01*
Y1333D01*
X1768Y1320D02*
X1755D01*
X1338Y1102D02*
X1345Y1095D01*
Y1082D01*
X1338Y1075D01*
X1312D01*
X1305Y1082D01*
Y1095D01*
X1312Y1102D01*
X1305Y1142D02*
Y1115D01*
X1332Y1142D01*
X1338D01*
X1345Y1135D01*
Y1122D01*
X1338Y1115D01*
X1312Y1155D02*
X1305Y1162D01*
Y1175D01*
X1312Y1182D01*
X1338D01*
X1345Y1175D01*
Y1162D01*
X1338Y1155D01*
X1332D01*
X1325Y1162D01*
Y1182D01*
X1498Y878D02*
X1505Y885D01*
X1518D01*
X1525Y878D01*
Y852D01*
X1518Y845D01*
X1505D01*
X1498Y852D01*
X1485Y878D02*
X1478Y885D01*
X1465D01*
X1458Y878D01*
Y872D01*
X1465Y865D01*
X1472D01*
X1465D01*
X1458Y858D01*
Y852D01*
X1465Y845D01*
X1478D01*
X1485Y852D01*
X1445Y878D02*
X1438Y885D01*
X1425D01*
X1418Y878D01*
Y852D01*
X1425Y845D01*
X1438D01*
X1445Y852D01*
Y878D01*
X2048Y1042D02*
X2055Y1035D01*
Y1022D01*
X2048Y1015D01*
X2022D01*
X2015Y1022D01*
Y1035D01*
X2022Y1042D01*
X2048Y1055D02*
X2055Y1062D01*
Y1075D01*
X2048Y1082D01*
X2042D01*
X2035Y1075D01*
Y1068D01*
Y1075D01*
X2028Y1082D01*
X2022D01*
X2015Y1075D01*
Y1062D01*
X2022Y1055D01*
X2015Y1095D02*
Y1108D01*
Y1102D01*
X2055D01*
X2048Y1095D01*
X1338Y1342D02*
X1345Y1335D01*
Y1322D01*
X1338Y1315D01*
X1312D01*
X1305Y1322D01*
Y1335D01*
X1312Y1342D01*
X1338Y1355D02*
X1345Y1362D01*
Y1375D01*
X1338Y1382D01*
X1332D01*
X1325Y1375D01*
Y1368D01*
Y1375D01*
X1318Y1382D01*
X1312D01*
X1305Y1375D01*
Y1362D01*
X1312Y1355D01*
X1305Y1422D02*
Y1395D01*
X1332Y1422D01*
X1338D01*
X1345Y1415D01*
Y1402D01*
X1338Y1395D01*
X883Y453D02*
X890Y460D01*
X903D01*
X910Y453D01*
Y427D01*
X903Y420D01*
X890D01*
X883Y427D01*
X870Y453D02*
X863Y460D01*
X850D01*
X843Y453D01*
Y447D01*
X850Y440D01*
X857D01*
X850D01*
X843Y433D01*
Y427D01*
X850Y420D01*
X863D01*
X870Y427D01*
X830Y453D02*
X823Y460D01*
X810D01*
X803Y453D01*
Y447D01*
X810Y440D01*
X817D01*
X810D01*
X803Y433D01*
Y427D01*
X810Y420D01*
X823D01*
X830Y427D01*
X658Y327D02*
X665Y320D01*
Y307D01*
X658Y300D01*
X632D01*
X625Y307D01*
Y320D01*
X632Y327D01*
X658Y340D02*
X665Y347D01*
Y360D01*
X658Y367D01*
X652D01*
X645Y360D01*
Y353D01*
Y360D01*
X638Y367D01*
X632D01*
X625Y360D01*
Y347D01*
X632Y340D01*
X625Y400D02*
X665D01*
X645Y380D01*
Y407D01*
X2848Y1052D02*
X2855Y1045D01*
Y1032D01*
X2848Y1025D01*
X2822D01*
X2815Y1032D01*
Y1045D01*
X2822Y1052D01*
X2848Y1065D02*
X2855Y1072D01*
Y1085D01*
X2848Y1092D01*
X2842D01*
X2835Y1085D01*
Y1078D01*
Y1085D01*
X2828Y1092D01*
X2822D01*
X2815Y1085D01*
Y1072D01*
X2822Y1065D01*
X2855Y1132D02*
Y1105D01*
X2835D01*
X2842Y1118D01*
Y1125D01*
X2835Y1132D01*
X2822D01*
X2815Y1125D01*
Y1112D01*
X2822Y1105D01*
X2687Y660D02*
Y620D01*
X2667D01*
X2660Y627D01*
Y653D01*
X2667Y660D01*
X2687D01*
X2647Y620D02*
X2634D01*
X2640D01*
Y660D01*
X2647Y653D01*
X845Y1572D02*
Y1558D01*
Y1565D01*
X812D01*
X805Y1558D01*
Y1552D01*
X812Y1545D01*
X805Y1612D02*
Y1585D01*
X832Y1612D01*
X838D01*
X845Y1605D01*
Y1592D01*
X838Y1585D01*
X2213Y677D02*
Y703D01*
X2220Y710D01*
X2233D01*
X2240Y703D01*
Y677D01*
X2233Y670D01*
X2220D01*
X2227Y683D02*
X2213Y670D01*
X2220D02*
X2213Y677D01*
X2200Y670D02*
X2187D01*
X2193D01*
Y710D01*
X2200Y703D01*
X1720Y560D02*
X1760D01*
Y580D01*
X1753Y587D01*
X1740D01*
X1733Y580D01*
Y560D01*
Y573D02*
X1720Y587D01*
Y600D02*
Y613D01*
Y607D01*
X1760D01*
X1753Y600D01*
X1840Y560D02*
X1880D01*
Y580D01*
X1873Y587D01*
X1860D01*
X1853Y580D01*
Y560D01*
Y573D02*
X1840Y587D01*
Y627D02*
Y600D01*
X1867Y627D01*
X1873D01*
X1880Y620D01*
Y607D01*
X1873Y600D01*
X1940Y560D02*
X1980D01*
Y580D01*
X1973Y587D01*
X1960D01*
X1953Y580D01*
Y560D01*
Y573D02*
X1940Y587D01*
X1973Y600D02*
X1980Y607D01*
Y620D01*
X1973Y627D01*
X1967D01*
X1960Y620D01*
Y613D01*
Y620D01*
X1953Y627D01*
X1947D01*
X1940Y620D01*
Y607D01*
X1947Y600D01*
X2036Y1918D02*
Y1958D01*
X2016D01*
X2010Y1951D01*
Y1938D01*
X2016Y1931D01*
X2036D01*
X2023D02*
X2010Y1918D01*
X1976D02*
Y1958D01*
X1996Y1938D01*
X1970D01*
X3230Y1374D02*
Y1414D01*
X3210D01*
X3204Y1407D01*
Y1394D01*
X3210Y1387D01*
X3230D01*
X3217D02*
X3204Y1374D01*
X3164Y1414D02*
X3190D01*
Y1394D01*
X3177Y1401D01*
X3170D01*
X3164Y1394D01*
Y1381D01*
X3170Y1374D01*
X3184D01*
X3190Y1381D01*
X2670Y455D02*
X2710D01*
Y475D01*
X2703Y482D01*
X2690D01*
X2683Y475D01*
Y455D01*
Y468D02*
X2670Y482D01*
Y495D02*
Y508D01*
Y502D01*
X2710D01*
X2703Y495D01*
X2670Y528D02*
Y542D01*
Y535D01*
X2710D01*
X2703Y528D01*
X2483Y1635D02*
Y1675D01*
X2463D01*
X2456Y1668D01*
Y1655D01*
X2463Y1648D01*
X2483D01*
X2469D02*
X2456Y1635D01*
X2416D02*
X2443D01*
X2416Y1661D01*
Y1668D01*
X2423Y1675D01*
X2436D01*
X2443Y1668D01*
X2403Y1635D02*
X2389D01*
X2396D01*
Y1675D01*
X2403Y1668D01*
X2659Y1493D02*
X2699D01*
Y1513D01*
X2693Y1519D01*
X2679D01*
X2673Y1513D01*
Y1493D01*
Y1506D02*
X2659Y1519D01*
Y1559D02*
Y1533D01*
X2686Y1559D01*
X2693D01*
X2699Y1553D01*
Y1539D01*
X2693Y1533D01*
X2659Y1599D02*
Y1573D01*
X2686Y1599D01*
X2693D01*
X2699Y1593D01*
Y1579D01*
X2693Y1573D01*
X1995Y530D02*
Y570D01*
X1975D01*
X1968Y563D01*
Y550D01*
X1975Y543D01*
X1995D01*
X1982D02*
X1968Y530D01*
X1928D02*
X1955D01*
X1928Y557D01*
Y563D01*
X1935Y570D01*
X1948D01*
X1955Y563D01*
X1915Y570D02*
X1888D01*
Y563D01*
X1915Y537D01*
Y530D01*
X2190Y440D02*
Y480D01*
X2170D01*
X2163Y473D01*
Y460D01*
X2170Y453D01*
X2190D01*
X2177D02*
X2163Y440D01*
X2123D02*
X2150D01*
X2123Y467D01*
Y473D01*
X2130Y480D01*
X2143D01*
X2150Y473D01*
X2110D02*
X2103Y480D01*
X2090D01*
X2083Y473D01*
Y467D01*
X2090Y460D01*
X2083Y453D01*
Y447D01*
X2090Y440D01*
X2103D01*
X2110Y447D01*
Y453D01*
X2103Y460D01*
X2110Y467D01*
Y473D01*
X2103Y460D02*
X2090D01*
X2755Y270D02*
X2795D01*
Y290D01*
X2788Y297D01*
X2775D01*
X2768Y290D01*
Y270D01*
Y283D02*
X2755Y297D01*
Y337D02*
Y310D01*
X2782Y337D01*
X2788D01*
X2795Y330D01*
Y317D01*
X2788Y310D01*
X2762Y350D02*
X2755Y357D01*
Y370D01*
X2762Y377D01*
X2788D01*
X2795Y370D01*
Y357D01*
X2788Y350D01*
X2782D01*
X2775Y357D01*
Y377D01*
X835Y1080D02*
X868D01*
X875Y1073D01*
Y1060D01*
X868Y1053D01*
X835D01*
X875Y1013D02*
Y1040D01*
X848Y1013D01*
X842D01*
X835Y1020D01*
Y1033D01*
X842Y1040D01*
X1525Y1330D02*
Y1297D01*
X1518Y1290D01*
X1505D01*
X1498Y1297D01*
Y1330D01*
X1458D02*
X1485D01*
Y1310D01*
X1472Y1317D01*
X1465D01*
X1458Y1310D01*
Y1297D01*
X1465Y1290D01*
X1478D01*
X1485Y1297D01*
X1608Y2143D02*
Y2110D01*
X1602Y2103D01*
X1588D01*
X1582Y2110D01*
Y2143D01*
X1568Y2136D02*
X1562Y2143D01*
X1548D01*
X1542Y2136D01*
Y2130D01*
X1548Y2123D01*
X1542Y2116D01*
Y2110D01*
X1548Y2103D01*
X1562D01*
X1568Y2110D01*
Y2116D01*
X1562Y2123D01*
X1568Y2130D01*
Y2136D01*
X1562Y2123D02*
X1548D01*
X1765Y1595D02*
Y1555D01*
X1738D01*
X1698D02*
X1725D01*
X1698Y1582D01*
Y1588D01*
X1705Y1595D01*
X1718D01*
X1725Y1588D01*
X1240Y215D02*
Y175D01*
X1220D01*
X1213Y182D01*
Y208D01*
X1220Y215D01*
X1240D01*
X1173Y175D02*
X1200D01*
X1173Y202D01*
Y208D01*
X1180Y215D01*
X1193D01*
X1200Y208D01*
X135Y95D02*
Y55D01*
X115D01*
X108Y62D01*
Y88D01*
X115Y95D01*
X135D01*
X95Y88D02*
X88Y95D01*
X75D01*
X68Y88D01*
Y82D01*
X75Y75D01*
X82D01*
X75D01*
X68Y68D01*
Y62D01*
X75Y55D01*
X88D01*
X95Y62D01*
X830Y150D02*
X870D01*
Y170D01*
X863Y177D01*
X850D01*
X843Y170D01*
Y150D01*
Y163D02*
X830Y177D01*
X863Y190D02*
X870Y197D01*
Y210D01*
X863Y217D01*
X857D01*
X850Y210D01*
Y203D01*
Y210D01*
X843Y217D01*
X837D01*
X830Y210D01*
Y197D01*
X837Y190D01*
X830Y257D02*
Y230D01*
X857Y257D01*
X863D01*
X870Y250D01*
Y237D01*
X863Y230D01*
X870Y635D02*
Y675D01*
X850D01*
X843Y668D01*
Y655D01*
X850Y648D01*
X870D01*
X857D02*
X843Y635D01*
X830Y668D02*
X823Y675D01*
X810D01*
X803Y668D01*
Y662D01*
X810Y655D01*
X817D01*
X810D01*
X803Y648D01*
Y642D01*
X810Y635D01*
X823D01*
X830Y642D01*
X790Y668D02*
X783Y675D01*
X770D01*
X763Y668D01*
Y662D01*
X770Y655D01*
X777D01*
X770D01*
X763Y648D01*
Y642D01*
X770Y635D01*
X783D01*
X790Y642D01*
X2341Y1522D02*
Y1489D01*
X2334Y1482D01*
X2321D01*
X2314Y1489D01*
Y1522D01*
X2301Y1515D02*
X2294Y1522D01*
X2281D01*
X2274Y1515D01*
Y1509D01*
X2281Y1502D01*
X2288D01*
X2281D01*
X2274Y1495D01*
Y1489D01*
X2281Y1482D01*
X2294D01*
X2301Y1489D01*
D62*
X2618Y726D02*
Y1454D01*
X2272Y726D02*
Y1454D01*
X2618D01*
X2272Y726D02*
X2618Y726D01*
D63*
X2395Y433D02*
X2510D01*
X2395D02*
Y497D01*
X2510D01*
Y433D02*
Y497D01*
X2022Y587D02*
Y663D01*
X1862Y587D02*
X2022D01*
X1862D02*
Y663D01*
X2022D01*
X2637Y1780D02*
X2712D01*
Y1620D02*
Y1780D01*
X2637Y1620D02*
X2712D01*
X2637D02*
Y1780D01*
X2516Y1705D02*
Y1780D01*
X2356Y1705D02*
X2516D01*
X2356D02*
Y1780D01*
X2516D01*
X2367Y640D02*
X2375Y632D01*
Y585D02*
Y632D01*
Y585D02*
X2609D01*
Y695D01*
X2375D02*
X2609D01*
X2375Y647D02*
Y695D01*
X2367Y640D02*
X2375Y647D01*
X2797Y1020D02*
Y1135D01*
X2733Y1020D02*
X2797D01*
X2733D02*
Y1135D01*
X2797D01*
X3117Y1342D02*
X3277D01*
X3117Y1268D02*
Y1342D01*
Y1268D02*
X3277D01*
Y1342D01*
X1923Y1812D02*
X2083D01*
Y1888D01*
X1923D02*
X2083D01*
X1923Y1812D02*
Y1888D01*
X2522Y1620D02*
Y1780D01*
Y1620D02*
X2597D01*
Y1780D01*
X2522D02*
X2597D01*
X2717Y1620D02*
Y1780D01*
Y1620D02*
X2792D01*
Y1780D01*
X2717D02*
X2792D01*
X1140Y1553D02*
X1255D01*
X1140D02*
Y1617D01*
X1255D01*
Y1553D02*
Y1617D01*
X1363Y1622D02*
X1523D01*
Y1697D01*
X1363D02*
X1523D01*
X1363Y1622D02*
Y1697D01*
X1537D02*
X1697D01*
X1537Y1622D02*
Y1697D01*
Y1622D02*
X1697D01*
Y1697D01*
X1288Y1309D02*
Y1424D01*
X1223Y1309D02*
X1288D01*
X1223D02*
Y1424D01*
X1288D01*
X1222Y1191D02*
Y1306D01*
X1287D01*
Y1191D02*
Y1306D01*
X1222Y1191D02*
X1287D01*
X1288Y1069D02*
Y1184D01*
X1223Y1069D02*
X1288D01*
X1223D02*
Y1184D01*
X1288D01*
X1224Y762D02*
X1339D01*
X1224D02*
Y827D01*
X1339D01*
Y762D02*
Y827D01*
X1288Y874D02*
Y989D01*
X1223Y874D02*
X1288D01*
X1223D02*
Y989D01*
X1288D01*
X1450Y1005D02*
X1750Y1005D01*
X1450Y1005D02*
Y1268D01*
X1750D01*
X1750Y1005D01*
X1414Y762D02*
X1530D01*
X1414D02*
Y827D01*
X1530D01*
Y762D02*
Y827D01*
X1541Y827D02*
X1656D01*
Y763D02*
Y827D01*
X1541Y763D02*
X1656D01*
X1541D02*
Y827D01*
X1770Y762D02*
X1885D01*
X1770D02*
Y827D01*
X1885D01*
Y762D02*
Y827D01*
X1707Y1799D02*
Y1945D01*
X1661D02*
X1707D01*
X1443D02*
X1489D01*
X1443Y1799D02*
Y1945D01*
X2155Y616D02*
X2181D01*
X2155Y586D02*
Y616D01*
X2249Y617D02*
Y622D01*
X2275Y586D02*
Y616D01*
X2249D02*
X2275D01*
X2213Y428D02*
X2373D01*
Y502D01*
X2213D02*
X2373D01*
X2213Y428D02*
Y502D01*
X2387Y507D02*
X2547D01*
Y582D01*
X2387D02*
X2547D01*
X2387Y507D02*
Y582D01*
X2572Y412D02*
Y572D01*
Y412D02*
X2648D01*
Y572D01*
X2572D02*
X2648D01*
X1997Y1005D02*
Y1120D01*
X1933Y1005D02*
X1997D01*
X1933D02*
Y1120D01*
X1997D01*
X1933Y1135D02*
Y1250D01*
X1997D01*
Y1135D02*
Y1250D01*
X1933Y1135D02*
X1997D01*
X1933Y1270D02*
Y1385D01*
X1997D01*
Y1270D02*
Y1385D01*
X1933Y1270D02*
X1997D01*
X1395Y1533D02*
X1510D01*
Y1468D02*
Y1533D01*
X1395Y1468D02*
X1510D01*
X1395D02*
Y1533D01*
X1515Y1467D02*
X1630D01*
X1515D02*
Y1532D01*
X1630D01*
Y1467D02*
Y1532D01*
X1630Y1533D02*
X1745D01*
Y1468D02*
Y1533D01*
X1630Y1468D02*
X1745D01*
X1630D02*
Y1533D01*
X1850D02*
X1965D01*
Y1468D02*
Y1533D01*
X1850Y1468D02*
X1965D01*
X1850D02*
Y1533D01*
X1615Y1286D02*
X1730D01*
X1615D02*
Y1350D01*
X1730D01*
Y1286D02*
Y1350D01*
X1923Y542D02*
X1997D01*
Y382D02*
Y542D01*
X1923Y382D02*
X1997D01*
X1923D02*
Y542D01*
X1822Y382D02*
Y542D01*
Y382D02*
X1898D01*
Y542D01*
X1822D02*
X1898D01*
X1722Y382D02*
Y542D01*
Y382D02*
X1798D01*
Y542D01*
X1722D02*
X1798D01*
X1669Y1535D02*
Y1615D01*
X1519Y1535D02*
X1669D01*
X1519D02*
Y1615D01*
X1669D01*
X2737Y238D02*
Y398D01*
X2662D02*
X2737D01*
X2662Y238D02*
Y398D01*
Y238D02*
X2737D01*
X1128Y208D02*
Y368D01*
X1053D02*
X1128D01*
X1053Y208D02*
Y368D01*
Y208D02*
X1128D01*
X783Y322D02*
X943D01*
Y398D01*
X783D02*
X943D01*
X783Y322D02*
Y398D01*
X683Y272D02*
Y432D01*
Y272D02*
X757D01*
Y432D01*
X683D02*
X757D01*
X1286Y93D02*
X1293Y100D01*
X1286Y45D02*
Y93D01*
X1051Y45D02*
X1286D01*
X1051D02*
Y155D01*
X1286D01*
Y108D02*
Y155D01*
Y108D02*
X1293Y100D01*
X157D02*
X164Y108D01*
Y155D01*
X400D01*
Y45D02*
Y155D01*
X164Y45D02*
X400D01*
X164D02*
Y93D01*
X157Y100D02*
X164Y93D01*
X962Y63D02*
Y223D01*
X887D02*
X962D01*
X887Y63D02*
Y223D01*
Y63D02*
X962D01*
X737Y613D02*
X897D01*
X737Y538D02*
Y613D01*
Y538D02*
X897D01*
Y613D01*
X1705Y960D02*
X1695D01*
X1700D01*
Y990D01*
X1705Y985D01*
D67*
X2674Y1453D02*
G03*
X2674Y1453I-5J0D01*
G01*
D68*
X2591Y1415D02*
G03*
X2591Y1415I-12J0D01*
G01*
D69*
X1Y715D02*
X655D01*
Y1640D01*
X445D02*
X655D01*
X361Y1725D02*
X445Y1640D01*
X1Y1725D02*
X361D01*
X1Y715D02*
Y1725D01*
M02*
