G04 Layer_Physical_Order=2*
G04 Layer_Color=16711680*
%FSLAX23Y23*%
%MOIN*%
G70*
G01*
G75*
%ADD11R,0.050X0.050*%
%ADD12R,0.038X0.032*%
%ADD18R,0.050X0.050*%
%ADD19R,0.032X0.038*%
%ADD20R,0.048X0.088*%
%ADD21R,0.142X0.088*%
%ADD22R,0.040X0.048*%
%ADD30C,0.008*%
%ADD31C,0.012*%
%ADD32C,0.010*%
%ADD33R,0.063X0.063*%
%ADD34C,0.063*%
%ADD35C,0.160*%
%ADD36C,0.130*%
%ADD37C,0.102*%
%ADD38C,0.080*%
%ADD39R,0.059X0.059*%
%ADD40C,0.059*%
%ADD41R,0.062X0.062*%
%ADD42C,0.062*%
%ADD43R,0.062X0.062*%
%ADD44C,0.112*%
%ADD45C,0.043*%
%ADD46R,0.059X0.059*%
%ADD47C,0.052*%
%ADD48C,0.032*%
%ADD49C,0.037*%
%ADD50C,0.028*%
%ADD51C,0.008*%
%ADD52R,0.075X0.084*%
%ADD53R,0.070X0.078*%
%ADD54R,0.034X0.050*%
%ADD55R,0.034X0.040*%
%ADD56R,0.024X0.086*%
%ADD57O,0.024X0.086*%
%ADD58R,0.081X0.039*%
%ADD59R,0.081X0.028*%
%ADD60R,0.110X0.059*%
%ADD61O,0.071X0.022*%
D11*
X1984Y625D02*
D03*
X1900D02*
D03*
X2478Y1743D02*
D03*
X2394D02*
D03*
X3155Y1305D02*
D03*
X3239D02*
D03*
X2045Y1850D02*
D03*
X1961D02*
D03*
X1485Y1660D02*
D03*
X1401D02*
D03*
X1575D02*
D03*
X1659D02*
D03*
X2335Y465D02*
D03*
X2251D02*
D03*
X2509Y545D02*
D03*
X2425D02*
D03*
X905Y360D02*
D03*
X821D02*
D03*
X775Y575D02*
D03*
X859D02*
D03*
D12*
X2765Y1049D02*
D03*
Y1105D02*
D03*
X1255Y1339D02*
D03*
Y1395D02*
D03*
Y1276D02*
D03*
Y1220D02*
D03*
Y1099D02*
D03*
Y1155D02*
D03*
Y904D02*
D03*
Y960D02*
D03*
X1965Y1034D02*
D03*
Y1090D02*
D03*
Y1221D02*
D03*
Y1165D02*
D03*
Y1356D02*
D03*
Y1300D02*
D03*
D18*
X2674Y1742D02*
D03*
Y1658D02*
D03*
X2559D02*
D03*
Y1742D02*
D03*
X2754Y1658D02*
D03*
Y1742D02*
D03*
X2610Y450D02*
D03*
Y534D02*
D03*
X1960Y504D02*
D03*
Y420D02*
D03*
X1860D02*
D03*
Y504D02*
D03*
X1760Y420D02*
D03*
Y504D02*
D03*
X2700Y360D02*
D03*
Y276D02*
D03*
X1090Y330D02*
D03*
Y246D02*
D03*
X720Y310D02*
D03*
Y394D02*
D03*
X925Y185D02*
D03*
Y101D02*
D03*
D19*
X2424Y465D02*
D03*
X2480D02*
D03*
X1169Y1585D02*
D03*
X1225D02*
D03*
X1254Y795D02*
D03*
X1310D02*
D03*
X1444D02*
D03*
X1500D02*
D03*
X1626D02*
D03*
X1570D02*
D03*
X1799D02*
D03*
X1855D02*
D03*
X1481Y1500D02*
D03*
X1425D02*
D03*
X1544D02*
D03*
X1600D02*
D03*
X1716D02*
D03*
X1660D02*
D03*
X1936D02*
D03*
X1880D02*
D03*
X1644Y1318D02*
D03*
X1700D02*
D03*
D20*
X1665Y1750D02*
D03*
X1575D02*
D03*
X1485D02*
D03*
D21*
X1575Y1994D02*
D03*
D22*
X1634Y1575D02*
D03*
X1555D02*
D03*
D30*
X3214Y2125D02*
G03*
X3214Y2125I-30J0D01*
G01*
Y2040D02*
G03*
X3214Y2040I-30J0D01*
G01*
X3141Y2011D02*
G03*
X3130Y2016I-11J-11D01*
G01*
X2954Y2034D02*
G03*
X2954Y2040I-29J6D01*
G01*
D02*
G03*
X2896Y2034I-30J0D01*
G01*
X2826Y2137D02*
G03*
X2807Y2177I-51J0D01*
G01*
X2743D02*
G03*
X2761Y2088I32J-40D01*
G01*
X2788Y2088D02*
G03*
X2826Y2137I-13J49D01*
G01*
X2826Y2039D02*
G03*
X2788Y2088I-51J0D01*
G01*
X2761Y2088D02*
G03*
X2826Y2039I13J-49D01*
G01*
X3141Y2011D02*
G03*
X3130Y2016I-11J-11D01*
G01*
X2919Y2011D02*
G03*
X2931Y2011I6J29D01*
G01*
X2954Y1989D02*
G03*
X2965Y1984I11J11D01*
G01*
X2954Y1989D02*
G03*
X2965Y1984I11J11D01*
G01*
X3253Y1893D02*
G03*
X3248Y1904I-16J0D01*
G01*
X3253Y1893D02*
G03*
X3248Y1904I-16J0D01*
G01*
X3100Y1850D02*
G03*
X3100Y1850I-91J0D01*
G01*
X2813Y1912D02*
G03*
X2824Y1916I0J16D01*
G01*
X2813Y1912D02*
G03*
X2824Y1916I0J16D01*
G01*
X2826Y1842D02*
G03*
X2726Y1857I-51J0D01*
G01*
Y1827D02*
G03*
X2826Y1842I49J15D01*
G01*
X2725Y1857D02*
G03*
X2627Y1856I-49J-15D01*
G01*
X2691Y1793D02*
G03*
X2725Y1827I-15J49D01*
G01*
X2627Y1829D02*
G03*
X2661Y1793I49J13D01*
G01*
X2629Y2039D02*
G03*
X2629Y2039I-51J0D01*
G01*
X2432D02*
G03*
X2395Y2088I-51J0D01*
G01*
D02*
G03*
X2432Y2137I-13J49D01*
G01*
D02*
G03*
X2413Y2177I-51J0D01*
G01*
X2349D02*
G03*
X2368Y2088I32J-40D01*
G01*
D02*
G03*
X2432Y2039I13J-49D01*
G01*
X2430Y1857D02*
G03*
X2430Y1827I-49J-15D01*
G01*
X2627Y1856D02*
G03*
X2529Y1856I-49J-13D01*
G01*
Y1829D02*
G03*
X2627Y1829I49J13D01*
G01*
X2493Y1793D02*
G03*
X2529Y1829I-14J49D01*
G01*
X2431Y1827D02*
G03*
X2463Y1794I49J15D01*
G01*
X2529Y1856D02*
G03*
X2431Y1857I-49J-13D01*
G01*
X3108Y1521D02*
G03*
X3108Y1521I-43J0D01*
G01*
Y1413D02*
G03*
X3108Y1413I-43J0D01*
G01*
X2996Y1576D02*
G03*
X2996Y1576I-43J0D01*
G01*
Y1467D02*
G03*
X2996Y1467I-43J0D01*
G01*
Y1358D02*
G03*
X2996Y1358I-43J0D01*
G01*
X3104Y1320D02*
G03*
X3105Y1290I-39J-16D01*
G01*
X2996Y1249D02*
G03*
X2996Y1249I-43J0D01*
G01*
X3108Y1194D02*
G03*
X3108Y1194I-43J0D01*
G01*
X2716Y1421D02*
G03*
X2694Y1443I-22J0D01*
G01*
X2709Y1373D02*
G03*
X2716Y1389I-15J16D01*
G01*
D02*
G03*
X2709Y1405I-22J0D01*
G01*
X2716Y1358D02*
G03*
X2709Y1373I-22J0D01*
G01*
X2709Y1405D02*
G03*
X2716Y1421I-15J16D01*
G01*
X2645Y1443D02*
G03*
X2630Y1405I0J-22D01*
G01*
D02*
G03*
X2624Y1383I15J-16D01*
G01*
D02*
G03*
X2596Y1350I-4J-25D01*
G01*
X2709Y1310D02*
G03*
X2716Y1326I-15J16D01*
G01*
D02*
G03*
X2709Y1342I-22J0D01*
G01*
Y1279D02*
G03*
X2716Y1295I-15J16D01*
G01*
D02*
G03*
X2709Y1310I-22J0D01*
G01*
Y1342D02*
G03*
X2716Y1358I-15J16D01*
G01*
X2596Y1350D02*
G03*
X2596Y1302I-6J-24D01*
G01*
D02*
G03*
X2596Y1287I24J-7D01*
G01*
X2716Y1263D02*
G03*
X2709Y1279I-22J0D01*
G01*
Y1247D02*
G03*
X2716Y1263I-15J16D01*
G01*
X2377Y1262D02*
G03*
X2333Y1278I-25J0D01*
G01*
X2709Y1216D02*
G03*
X2716Y1232I-15J16D01*
G01*
D02*
G03*
X2709Y1247I-22J0D01*
G01*
X2716Y1200D02*
G03*
X2709Y1216I-22J0D01*
G01*
X2624Y1206D02*
G03*
X2630Y1184I21J-6D01*
G01*
X2716Y1169D02*
G03*
X2709Y1184I-22J0D01*
G01*
Y1184D02*
G03*
X2716Y1200I-15J16D01*
G01*
X2709Y1153D02*
G03*
X2716Y1169I-15J16D01*
G01*
Y1137D02*
G03*
X2709Y1153I-22J0D01*
G01*
X2630Y1184D02*
G03*
X2629Y1184I15J-16D01*
G01*
X2709Y1122D02*
G03*
X2716Y1137I-15J15D01*
G01*
Y1074D02*
G03*
X2709Y1090I-22J0D01*
G01*
X2629D02*
G03*
X2630Y1059I15J-15D01*
G01*
X2709D02*
G03*
X2716Y1074I-15J16D01*
G01*
X2596Y1287D02*
G03*
X2596Y1239I-6J-24D01*
G01*
X2331Y1248D02*
G03*
X2377Y1262I21J14D01*
G01*
X2596Y1239D02*
G03*
X2624Y1206I24J-8D01*
G01*
X2596Y1144D02*
G03*
X2600Y1122I24J-7D01*
G01*
X2609Y1184D02*
G03*
X2596Y1144I-19J-16D01*
G01*
X2449Y1122D02*
G03*
X2437Y1117I0J-16D01*
G01*
X2449Y1122D02*
G03*
X2437Y1117I0J-16D01*
G01*
X2630Y1059D02*
G03*
X2629Y1058I15J-16D01*
G01*
X2417Y1058D02*
G03*
X2429Y1063I0J16D01*
G01*
X2417Y1058D02*
G03*
X2429Y1063I0J16D01*
G01*
X2371Y1058D02*
G03*
X2370Y1058I17J-18D01*
G01*
X2078Y2124D02*
G03*
X2048Y2177I-62J0D01*
G01*
X2078Y2124D02*
G03*
X2048Y2177I-62J0D01*
G01*
X1983D02*
G03*
X2078Y2124I33J-53D01*
G01*
X1983Y2177D02*
G03*
X2078Y2124I33J-53D01*
G01*
X2266Y2033D02*
G03*
X2255Y2038I-11J-11D01*
G01*
X2266Y2033D02*
G03*
X2255Y2038I-11J-11D01*
G01*
X1978Y2011D02*
G03*
X1989Y2006I11J11D01*
G01*
X1978Y2011D02*
G03*
X1989Y2006I11J11D01*
G01*
X1913Y2121D02*
G03*
X1901Y2126I-11J-11D01*
G01*
X1913Y2121D02*
G03*
X1901Y2126I-11J-11D01*
G01*
X1798D02*
G03*
X1787Y2121I0J-16D01*
G01*
X1798Y2126D02*
G03*
X1787Y2121I0J-16D01*
G01*
X2338Y1916D02*
G03*
X2349Y1912I11J11D01*
G01*
X2338Y1916D02*
G03*
X2349Y1912I11J11D01*
G01*
X2211Y1850D02*
G03*
X2162Y1865I-27J0D01*
G01*
Y1835D02*
G03*
X2211Y1850I22J15D01*
G01*
X1925Y1823D02*
G03*
X1924Y1835I-76J0D01*
G01*
X1912Y1865D02*
G03*
X1925Y1823I-63J-42D01*
G01*
Y2000D02*
G03*
X1925Y2000I-76J0D01*
G01*
X1743Y2124D02*
G03*
X1714Y2177I-62J0D01*
G01*
X1743Y2124D02*
G03*
X1714Y2177I-62J0D01*
G01*
X1689Y2023D02*
G03*
X1684Y2012I11J-11D01*
G01*
X1689Y2023D02*
G03*
X1684Y2012I11J-11D01*
G01*
X1649Y2177D02*
G03*
X1743Y2124I33J-53D01*
G01*
X1649Y2177D02*
G03*
X1743Y2124I33J-53D01*
G01*
X1711Y1914D02*
G03*
X1716Y1925I-11J11D01*
G01*
X1711Y1914D02*
G03*
X1716Y1925I-11J11D01*
G01*
X1650Y1859D02*
G03*
X1661Y1864I0J16D01*
G01*
X1650Y1859D02*
G03*
X1661Y1864I0J16D01*
G01*
X1530Y1891D02*
G03*
X1519Y1886I0J-16D01*
G01*
X1530Y1891D02*
G03*
X1519Y1886I0J-16D01*
G01*
X1587Y1618D02*
G03*
X1591Y1624I-12J12D01*
G01*
X1587Y1618D02*
G03*
X1591Y1624I-12J12D01*
G01*
X1543Y1622D02*
G03*
X1538Y1610I12J-12D01*
G01*
X1543Y1622D02*
G03*
X1538Y1610I12J-12D01*
G01*
X1588Y1553D02*
G03*
X1586Y1551I12J-12D01*
G01*
X1588Y1553D02*
G03*
X1586Y1551I12J-12D01*
G01*
X2260Y1405D02*
G03*
X2267Y1421I-15J16D01*
G01*
D02*
G03*
X2245Y1443I-22J0D01*
G01*
X2265Y1381D02*
G03*
X2267Y1389I-20J8D01*
G01*
X2196Y1443D02*
G03*
X2181Y1405I0J-22D01*
G01*
X2267Y1389D02*
G03*
X2260Y1405I-22J0D01*
G01*
X2330Y1326D02*
G03*
X2299Y1350I-25J0D01*
G01*
D02*
G03*
X2300Y1358I-24J8D01*
G01*
X2299Y1302D02*
G03*
X2330Y1326I6J24D01*
G01*
X2300Y1358D02*
G03*
X2265Y1381I-25J0D01*
G01*
X2181Y1342D02*
G03*
X2181Y1310I15J-16D01*
G01*
Y1310D02*
G03*
X2181Y1279I15J-16D01*
G01*
Y1405D02*
G03*
X2181Y1373I15J-16D01*
G01*
D02*
G03*
X2181Y1342I15J-16D01*
G01*
X2300Y1294D02*
G03*
X2299Y1302I-25J0D01*
G01*
X2294Y1278D02*
G03*
X2300Y1294I-19J16D01*
G01*
X2299Y1242D02*
G03*
X2288Y1247I-11J-11D01*
G01*
X2299Y1242D02*
G03*
X2288Y1247I-11J-11D01*
G01*
X2181Y1279D02*
G03*
X2181Y1247I15J-16D01*
G01*
X2260D02*
G03*
X2261Y1248I-15J16D01*
G01*
Y1247D02*
G03*
X2260Y1247I-16J-15D01*
G01*
X1958Y1329D02*
G03*
X1972Y1329I7J26D01*
G01*
X1989Y1248D02*
G03*
X1941Y1248I-24J-12D01*
G01*
X2330Y1215D02*
G03*
X2301Y1240I-25J0D01*
G01*
X2280Y1217D02*
G03*
X2330Y1215I25J-2D01*
G01*
X2267Y1200D02*
G03*
X2260Y1216I-22J0D01*
G01*
X2330Y1162D02*
G03*
X2293Y1184I-25J0D01*
G01*
X2300Y1138D02*
G03*
X2330Y1162I5J24D01*
G01*
X2281Y1154D02*
G03*
X2282Y1152I24J8D01*
G01*
X2260Y1216D02*
G03*
X2261Y1217I-15J16D01*
G01*
X2260Y1184D02*
G03*
X2267Y1200I-15J16D01*
G01*
X2181Y1216D02*
G03*
X2181Y1184I15J-16D01*
G01*
Y1247D02*
G03*
X2181Y1216I15J-16D01*
G01*
X2260Y1153D02*
G03*
X2261Y1154I-15J16D01*
G01*
Y1184D02*
G03*
X2260Y1184I-16J-15D01*
G01*
X2261Y1152D02*
G03*
X2260Y1153I-16J-15D01*
G01*
X2181Y1184D02*
G03*
X2181Y1153I15J-16D01*
G01*
X2282Y1152D02*
G03*
X2279Y1152I-3J-15D01*
G01*
X2282Y1152D02*
G03*
X2279Y1152I-3J-15D01*
G01*
X2330Y1111D02*
G03*
X2301Y1136I-25J0D01*
G01*
X2280Y1115D02*
G03*
X2291Y1090I25J-4D01*
G01*
X2319D02*
G03*
X2330Y1111I-14J21D01*
G01*
X2267Y1106D02*
G03*
X2260Y1121I-22J0D01*
G01*
D02*
G03*
X2261Y1122I-15J16D01*
G01*
X2181Y1153D02*
G03*
X2181Y1121I15J-16D01*
G01*
X2261Y1090D02*
G03*
X2267Y1106I-15J15D01*
G01*
X2181Y1121D02*
G03*
X2181Y1090I15J-16D01*
G01*
X2125Y1101D02*
G03*
X2114Y1106I-11J-11D01*
G01*
X2125Y1101D02*
G03*
X2114Y1106I-11J-11D01*
G01*
X2118Y1063D02*
G03*
X2130Y1058I11J11D01*
G01*
X2118Y1063D02*
G03*
X2130Y1058I11J11D01*
G01*
X1917Y1450D02*
G03*
X1900Y1467I-17J0D01*
G01*
X1917Y1450D02*
G03*
X1900Y1467I-17J0D01*
G01*
X1867Y1400D02*
G03*
X1850Y1417I-17J0D01*
G01*
X1867Y1400D02*
G03*
X1850Y1417I-17J0D01*
G01*
X1624D02*
G03*
X1576Y1417I-24J-17D01*
G01*
Y1383D02*
G03*
X1624Y1383I24J17D01*
G01*
X1929Y1220D02*
G03*
X1917Y1244I-30J0D01*
G01*
Y1196D02*
G03*
X1929Y1220I-17J24D01*
G01*
X1883Y1244D02*
G03*
X1883Y1196I17J-24D01*
G01*
X1880Y1165D02*
G03*
X1867Y1189I-30J0D01*
G01*
Y1141D02*
G03*
X1880Y1165I-17J24D01*
G01*
X1833Y1189D02*
G03*
X1833Y1141I17J-24D01*
G01*
X2716Y1011D02*
G03*
X2709Y1027I-22J0D01*
G01*
X2716Y1043D02*
G03*
X2709Y1059I-22J0D01*
G01*
Y996D02*
G03*
X2716Y1011I-15J16D01*
G01*
X2709Y964D02*
G03*
X2716Y980I-15J16D01*
G01*
D02*
G03*
X2709Y996I-22J0D01*
G01*
X2716Y948D02*
G03*
X2709Y964I-22J0D01*
G01*
X2709Y933D02*
G03*
X2716Y948I-15J16D01*
G01*
Y917D02*
G03*
X2709Y933I-22J0D01*
G01*
X2716Y885D02*
G03*
X2709Y901I-22J0D01*
G01*
Y901D02*
G03*
X2716Y917I-15J16D01*
G01*
X2709Y870D02*
G03*
X2716Y885I-15J16D01*
G01*
X2709Y838D02*
G03*
X2716Y854I-15J16D01*
G01*
D02*
G03*
X2709Y870I-22J0D01*
G01*
X2716Y822D02*
G03*
X2709Y838I-22J0D01*
G01*
X3316Y695D02*
G03*
X3311Y706I-16J0D01*
G01*
X3316Y695D02*
G03*
X3311Y706I-16J0D01*
G01*
X3221Y758D02*
G03*
X3226Y747I16J0D01*
G01*
X3236Y640D02*
G03*
X3236Y640I-67J0D01*
G01*
X3221Y758D02*
G03*
X3226Y747I16J0D01*
G01*
X2716Y791D02*
G03*
X2709Y807I-22J0D01*
G01*
Y807D02*
G03*
X2716Y822I-15J16D01*
G01*
X2709Y775D02*
G03*
X2716Y791I-15J16D01*
G01*
X3100Y866D02*
G03*
X3100Y866I-91J0D01*
G01*
X2716Y759D02*
G03*
X2709Y775I-22J0D01*
G01*
X3093Y506D02*
G03*
X3035Y467I-42J0D01*
G01*
X2995Y506D02*
G03*
X2995Y506I-42J0D01*
G01*
X2709Y1027D02*
G03*
X2716Y1043I-15J16D01*
G01*
X2609Y1058D02*
G03*
X2596Y1018I-19J-16D01*
G01*
D02*
G03*
X2596Y1004I24J-6D01*
G01*
Y894D02*
G03*
X2596Y878I24J-8D01*
G01*
D02*
G03*
X2596Y830I-6J-24D01*
G01*
D02*
G03*
X2624Y798I24J-7D01*
G01*
X2596Y956D02*
G03*
X2596Y942I24J-8D01*
G01*
X2596Y1004D02*
G03*
X2596Y956I-6J-24D01*
G01*
X2596Y942D02*
G03*
X2596Y894I-6J-24D01*
G01*
X2624Y798D02*
G03*
X2630Y775I20J-8D01*
G01*
X2694Y737D02*
G03*
X2716Y759I0J22D01*
G01*
X2630Y775D02*
G03*
X2645Y737I15J-16D01*
G01*
X2413Y1040D02*
G03*
X2405Y1058I-25J0D01*
G01*
X2326Y1028D02*
G03*
X2324Y1026I14J-21D01*
G01*
X2366Y1028D02*
G03*
X2413Y1040I22J12D01*
G01*
X2365Y1007D02*
G03*
X2354Y1028I-25J0D01*
G01*
X2317Y996D02*
G03*
X2365Y1007I23J11D01*
G01*
X2261Y1026D02*
G03*
X2260Y1027I-16J-15D01*
G01*
D02*
G03*
X2261Y1028I-15J16D01*
G01*
X2330Y949D02*
G03*
X2299Y973I-25J0D01*
G01*
Y925D02*
G03*
X2330Y949I6J24D01*
G01*
X2299Y973D02*
G03*
X2300Y981I-24J8D01*
G01*
D02*
G03*
X2295Y996I-25J0D01*
G01*
X2299Y860D02*
G03*
X2330Y885I6J24D01*
G01*
X2300Y917D02*
G03*
X2299Y925I-25J0D01*
G01*
X2300Y854D02*
G03*
X2299Y860I-25J0D01*
G01*
X2330Y822D02*
G03*
X2299Y846I-25J0D01*
G01*
Y846D02*
G03*
X2300Y854I-24J8D01*
G01*
X2330Y885D02*
G03*
X2299Y909I-25J0D01*
G01*
D02*
G03*
X2300Y917I-24J8D01*
G01*
X2260Y807D02*
G03*
X2261Y807I-15J16D01*
G01*
X2285D02*
G03*
X2330Y822I20J15D01*
G01*
X2267Y791D02*
G03*
X2260Y807I-22J0D01*
G01*
X2267Y759D02*
G03*
X2260Y775I-22J0D01*
G01*
D02*
G03*
X2267Y791I-15J16D01*
G01*
X2245Y737D02*
G03*
X2267Y759I0J22D01*
G01*
X3066Y467D02*
G03*
X3093Y506I-16J39D01*
G01*
X3311Y289D02*
G03*
X3316Y300I-11J11D01*
G01*
X3311Y289D02*
G03*
X3316Y300I-11J11D01*
G01*
X3268Y374D02*
G03*
X3268Y374I-67J0D01*
G01*
X3242Y226D02*
G03*
X3253Y231I0J16D01*
G01*
X3242Y226D02*
G03*
X3253Y231I0J16D01*
G01*
X3236Y108D02*
G03*
X3236Y108I-67J0D01*
G01*
X3093Y323D02*
G03*
X3039Y282I-42J0D01*
G01*
X3062D02*
G03*
X3093Y323I-11J41D01*
G01*
X3089Y258D02*
G03*
X3062Y282I-39J-16D01*
G01*
X3039D02*
G03*
X3089Y226I11J-41D01*
G01*
X2995Y242D02*
G03*
X2995Y242I-42J0D01*
G01*
X2525Y450D02*
G03*
X2536Y454I0J15D01*
G01*
X2525Y450D02*
G03*
X2536Y454I0J15D01*
G01*
X2646Y377D02*
G03*
X2612Y411I-49J-15D01*
G01*
X2582D02*
G03*
X2548Y377I15J-49D01*
G01*
X2351Y375D02*
G03*
X2252Y375I-49J-13D01*
G01*
X2548Y347D02*
G03*
X2646Y347I49J15D01*
G01*
X2648Y165D02*
G03*
X2583Y116I-51J0D01*
G01*
X2629Y27D02*
G03*
X2648Y67I-32J40D01*
G01*
X2610Y116D02*
G03*
X2648Y165I-13J49D01*
G01*
X2648Y67D02*
G03*
X2610Y116I-51J0D01*
G01*
X2583Y116D02*
G03*
X2565Y27I13J-49D01*
G01*
X2547Y377D02*
G03*
X2449Y375I-49J-15D01*
G01*
X2449D02*
G03*
X2351Y375I-49J-13D01*
G01*
X2449Y348D02*
G03*
X2547Y347I49J13D01*
G01*
X2351Y348D02*
G03*
X2449Y348I49J13D01*
G01*
X2451Y165D02*
G03*
X2451Y165I-51J0D01*
G01*
X2252Y348D02*
G03*
X2351Y348I49J13D01*
G01*
X2254Y165D02*
G03*
X2190Y116I-51J0D01*
G01*
X2217Y116D02*
G03*
X2254Y165I-13J49D01*
G01*
X2181Y1058D02*
G03*
X2181Y1027I15J-15D01*
G01*
Y901D02*
G03*
X2181Y870I15J-16D01*
G01*
Y933D02*
G03*
X2181Y901I15J-16D01*
G01*
Y870D02*
G03*
X2181Y838I15J-16D01*
G01*
Y996D02*
G03*
X2181Y964I15J-16D01*
G01*
Y1027D02*
G03*
X2181Y996I15J-16D01*
G01*
Y964D02*
G03*
X2181Y933I15J-16D01*
G01*
Y838D02*
G03*
X2181Y807I15J-16D01*
G01*
Y807D02*
G03*
X2181Y775I15J-16D01*
G01*
D02*
G03*
X2196Y737I15J-16D01*
G01*
X2150Y715D02*
G03*
X2164Y740I-15J25D01*
G01*
X2123Y776D02*
G03*
X2159Y805I7J29D01*
G01*
D02*
G03*
X2101Y798I-30J0D01*
G01*
X2164Y740D02*
G03*
X2120Y715I-30J0D01*
G01*
X1981Y811D02*
G03*
X1970Y815I-11J-11D01*
G01*
X1981Y811D02*
G03*
X1970Y815I-11J-11D01*
G01*
X1992Y885D02*
G03*
X1992Y885I-27J0D01*
G01*
X2045Y741D02*
G03*
X2041Y751I-15J-1D01*
G01*
X2045Y741D02*
G03*
X2041Y751I-15J-1D01*
G01*
X2146Y644D02*
G03*
X2150Y655I-11J11D01*
G01*
X2146Y644D02*
G03*
X2150Y655I-11J11D01*
G01*
X2187Y652D02*
G03*
X2187Y598I-12J-27D01*
G01*
X2120Y701D02*
G03*
X2066Y678I-25J-16D01*
G01*
X2090Y656D02*
G03*
X2120Y669I5J29D01*
G01*
X2014Y700D02*
G03*
X2014Y700I-30J0D01*
G01*
X1900Y833D02*
G03*
X1917Y850I0J17D01*
G01*
X1900Y833D02*
G03*
X1917Y850I0J17D01*
G01*
X1850Y883D02*
G03*
X1867Y900I0J17D01*
G01*
X1850Y883D02*
G03*
X1867Y900I0J17D01*
G01*
X1594Y917D02*
G03*
X1546Y917I-24J-17D01*
G01*
Y883D02*
G03*
X1594Y883I24J17D01*
G01*
X1641Y825D02*
G03*
X1649Y833I-16J25D01*
G01*
Y867D02*
G03*
X1601Y867I-24J-17D01*
G01*
Y833D02*
G03*
X1609Y825I24J17D01*
G01*
X1940Y815D02*
G03*
X1940Y785I-25J-15D01*
G01*
X1840Y670D02*
G03*
X1844Y659I15J0D01*
G01*
X1840Y670D02*
G03*
X1844Y659I15J0D01*
G01*
X1697Y795D02*
G03*
X1653Y816I-27J0D01*
G01*
Y774D02*
G03*
X1697Y795I17J21D01*
G01*
X2135Y415D02*
G03*
X2131Y426I-15J0D01*
G01*
X2135Y415D02*
G03*
X2131Y426I-15J0D01*
G01*
X2063Y382D02*
G03*
X2064Y380I12J9D01*
G01*
X2063Y382D02*
G03*
X2064Y380I12J9D01*
G01*
X2061Y379D02*
G03*
X2063Y382I-11J11D01*
G01*
X2061Y379D02*
G03*
X2063Y382I-11J11D01*
G01*
X1940Y375D02*
G03*
X1936Y374I0J-15D01*
G01*
X1940Y375D02*
G03*
X1936Y374I0J-15D01*
G01*
X2252Y375D02*
G03*
X2252Y348I-49J-13D01*
G01*
X2020Y290D02*
G03*
X2085Y283I35J20D01*
G01*
Y337D02*
G03*
X2020Y330I-30J-27D01*
G01*
X2072Y173D02*
G03*
X2096Y210I-17J37D01*
G01*
D02*
G03*
X2092Y226I-41J0D01*
G01*
X2131Y182D02*
G03*
X2135Y193I-11J11D01*
G01*
X2131Y182D02*
G03*
X2135Y193I-11J11D01*
G01*
X2254Y67D02*
G03*
X2217Y116I-51J0D01*
G01*
X2190Y116D02*
G03*
X2171Y27I13J-49D01*
G01*
X2235D02*
G03*
X2254Y67I-32J40D01*
G01*
X2085Y143D02*
G03*
X2096Y147I0J15D01*
G01*
X2085Y143D02*
G03*
X2096Y147I0J15D01*
G01*
X2071Y247D02*
G03*
X2038Y173I-16J-37D01*
G01*
X2016Y249D02*
G03*
X2020Y260I-11J11D01*
G01*
X2016Y249D02*
G03*
X2020Y260I-11J11D01*
G01*
X1990Y330D02*
G03*
X1975Y345I-35J-20D01*
G01*
X1920Y290D02*
G03*
X1990Y290I35J20D01*
G01*
X1916Y249D02*
G03*
X1920Y260I-11J11D01*
G01*
X1916Y249D02*
G03*
X1920Y260I-11J11D01*
G01*
X1996Y210D02*
G03*
X1992Y226I-41J0D01*
G01*
X1971Y247D02*
G03*
X1938Y173I-16J-37D01*
G01*
X1972D02*
G03*
X1996Y210I-17J37D01*
G01*
X1796Y310D02*
G03*
X1791Y329I-41J0D01*
G01*
X1687Y416D02*
G03*
X1638Y431I-27J0D01*
G01*
Y401D02*
G03*
X1687Y416I22J15D01*
G01*
X1587Y399D02*
G03*
X1588Y401I-22J16D01*
G01*
X1588Y399D02*
G03*
X1587Y399I-11J-11D01*
G01*
X1587Y431D02*
G03*
X1543Y431I-22J-16D01*
G01*
X1588Y399D02*
G03*
X1587Y399I-11J-11D01*
G01*
X1667Y349D02*
G03*
X1639Y347I-12J-39D01*
G01*
X1696Y310D02*
G03*
X1691Y329I-41J0D01*
G01*
X1867Y349D02*
G03*
X1890Y290I-12J-39D01*
G01*
X1896Y210D02*
G03*
X1892Y226I-41J0D01*
G01*
X1872Y173D02*
G03*
X1896Y210I-17J37D01*
G01*
X1871Y247D02*
G03*
X1838Y173I-16J-37D01*
G01*
X1739Y273D02*
G03*
X1796Y310I16J37D01*
G01*
X1767Y349D02*
G03*
X1718Y294I-12J-39D01*
G01*
X1796Y210D02*
G03*
X1720Y230I-41J0D01*
G01*
X1796Y147D02*
G03*
X1807Y143I11J11D01*
G01*
X1796Y147D02*
G03*
X1807Y143I11J11D01*
G01*
X1792Y194D02*
G03*
X1796Y210I-37J16D01*
G01*
X1720Y190D02*
G03*
X1771Y173I35J20D01*
G01*
X1694Y271D02*
G03*
X1690Y260I11J-11D01*
G01*
X1694Y271D02*
G03*
X1690Y260I11J-11D01*
G01*
X1618Y326D02*
G03*
X1696Y310I37J-16D01*
G01*
X1690Y230D02*
G03*
X1690Y190I-35J-20D01*
G01*
X1716Y164D02*
G03*
X1720Y175I-11J11D01*
G01*
X1716Y164D02*
G03*
X1720Y175I-11J11D01*
G01*
X1680Y135D02*
G03*
X1691Y139I0J15D01*
G01*
X1680Y135D02*
G03*
X1691Y139I0J15D01*
G01*
X1530Y2125D02*
G03*
X1471Y2118I-30J0D01*
G01*
X1493Y2096D02*
G03*
X1530Y2125I7J29D01*
G01*
X1439Y2086D02*
G03*
X1435Y2075I11J-11D01*
G01*
X1417Y2125D02*
G03*
X1417Y2125I-42J0D01*
G01*
X1439Y2086D02*
G03*
X1435Y2075I11J-11D01*
G01*
X1317Y2125D02*
G03*
X1317Y2125I-42J0D01*
G01*
X1213Y2108D02*
G03*
X1217Y2125I-38J17D01*
G01*
X1317Y2025D02*
G03*
X1240Y2048I-42J0D01*
G01*
Y2075D02*
G03*
X1236Y2086I-15J0D01*
G01*
X1240Y2075D02*
G03*
X1236Y2086I-15J0D01*
G01*
X1210Y2048D02*
G03*
X1140Y2048I-35J-23D01*
G01*
X1417Y2025D02*
G03*
X1417Y2025I-42J0D01*
G01*
Y1925D02*
G03*
X1417Y1925I-42J0D01*
G01*
X1461Y1869D02*
G03*
X1465Y1880I-11J11D01*
G01*
X1461Y1869D02*
G03*
X1465Y1880I-11J11D01*
G01*
X1317Y1925D02*
G03*
X1240Y1948I-42J0D01*
G01*
Y2002D02*
G03*
X1317Y2025I35J23D01*
G01*
X1240Y1902D02*
G03*
X1317Y1925I35J23D01*
G01*
X1210Y1884D02*
G03*
X1245Y1855I5J-29D01*
G01*
D02*
G03*
X1240Y1871I-30J0D01*
G01*
X1217Y2125D02*
G03*
X1192Y2087I-42J0D01*
G01*
X1113Y2108D02*
G03*
X1117Y2125I-38J17D01*
G01*
D02*
G03*
X1092Y2087I-42J0D01*
G01*
X1017Y2125D02*
G03*
X992Y2087I-42J0D01*
G01*
X1013Y2108D02*
G03*
X1017Y2125I-38J17D01*
G01*
X1140Y2075D02*
G03*
X1136Y2086I-15J0D01*
G01*
X1140Y2075D02*
G03*
X1136Y2086I-15J0D01*
G01*
X1040Y2075D02*
G03*
X1036Y2086I-15J0D01*
G01*
X1040Y2075D02*
G03*
X1036Y2086I-15J0D01*
G01*
X913Y2108D02*
G03*
X917Y2125I-38J17D01*
G01*
D02*
G03*
X892Y2087I-42J0D01*
G01*
X940Y2075D02*
G03*
X936Y2086I-15J0D01*
G01*
X940Y2075D02*
G03*
X936Y2086I-15J0D01*
G01*
X840Y2075D02*
G03*
X836Y2086I-15J0D01*
G01*
X840Y2075D02*
G03*
X836Y2086I-15J0D01*
G01*
X1040Y2002D02*
G03*
X1110Y2002I35J23D01*
G01*
X1140D02*
G03*
X1210Y2002I35J23D01*
G01*
Y1948D02*
G03*
X1140Y1948I-35J-23D01*
G01*
X1110Y2048D02*
G03*
X1040Y2048I-35J-23D01*
G01*
X940Y2002D02*
G03*
X1010Y2002I35J23D01*
G01*
X1110Y1948D02*
G03*
X1040Y1948I-35J-23D01*
G01*
X1140Y1902D02*
G03*
X1210Y1902I35J23D01*
G01*
X1164Y1850D02*
G03*
X1140Y1879I-30J0D01*
G01*
X1110Y1866D02*
G03*
X1164Y1850I25J-16D01*
G01*
X1064D02*
G03*
X1040Y1879I-30J0D01*
G01*
Y1902D02*
G03*
X1110Y1902I35J23D01*
G01*
X1010Y1866D02*
G03*
X1064Y1850I25J-16D01*
G01*
X1010Y2048D02*
G03*
X940Y2048I-35J-23D01*
G01*
X1010Y1948D02*
G03*
X940Y1948I-35J-23D01*
G01*
X840Y2002D02*
G03*
X910Y2002I35J23D01*
G01*
Y2048D02*
G03*
X840Y2048I-35J-23D01*
G01*
X910Y1948D02*
G03*
X840Y1948I-35J-23D01*
G01*
X940Y1902D02*
G03*
X1010Y1902I35J23D01*
G01*
X965Y1850D02*
G03*
X940Y1879I-30J0D01*
G01*
X910Y1866D02*
G03*
X965Y1850I25J-16D01*
G01*
X840Y1902D02*
G03*
X910Y1902I35J23D01*
G01*
X864Y1850D02*
G03*
X840Y1879I-30J0D01*
G01*
X810Y1866D02*
G03*
X864Y1850I25J-16D01*
G01*
X1474Y1841D02*
G03*
X1469Y1830I11J-11D01*
G01*
X1474Y1841D02*
G03*
X1469Y1830I11J-11D01*
G01*
X1370Y1785D02*
G03*
X1381Y1789I0J15D01*
G01*
X1370Y1785D02*
G03*
X1381Y1789I0J15D01*
G01*
X1381Y1494D02*
G03*
X1391Y1515I-17J21D01*
G01*
D02*
G03*
X1347Y1494I-27J0D01*
G01*
X1449Y1417D02*
G03*
X1449Y1383I-24J-17D01*
G01*
X1373Y1438D02*
G03*
X1385Y1433I12J12D01*
G01*
X1373Y1438D02*
G03*
X1385Y1433I12J12D01*
G01*
X1347Y1471D02*
G03*
X1352Y1459I17J0D01*
G01*
X1347Y1471D02*
G03*
X1352Y1459I17J0D01*
G01*
X1327Y1395D02*
G03*
X1310Y1412I-17J0D01*
G01*
X1327Y1395D02*
G03*
X1310Y1412I-17J0D01*
G01*
X940Y1450D02*
G03*
X955Y1475I-15J25D01*
G01*
D02*
G03*
X910Y1450I-30J0D01*
G01*
X1098Y1216D02*
G03*
X1052Y1216I-23J0D01*
G01*
X850Y1405D02*
G03*
X846Y1416I-15J0D01*
G01*
X850Y1405D02*
G03*
X846Y1416I-15J0D01*
G01*
X1048Y1216D02*
G03*
X1002Y1216I-23J0D01*
G01*
X998D02*
G03*
X952Y1216I-23J0D01*
G01*
X813Y2108D02*
G03*
X817Y2125I-38J17D01*
G01*
D02*
G03*
X792Y2087I-42J0D01*
G01*
X713Y2108D02*
G03*
X717Y2125I-38J17D01*
G01*
D02*
G03*
X692Y2087I-42J0D01*
G01*
X740Y2075D02*
G03*
X736Y2086I-15J0D01*
G01*
X740Y2075D02*
G03*
X736Y2086I-15J0D01*
G01*
X640Y2075D02*
G03*
X636Y2086I-15J0D01*
G01*
X640Y2075D02*
G03*
X636Y2086I-15J0D01*
G01*
X613Y2108D02*
G03*
X617Y2125I-38J17D01*
G01*
D02*
G03*
X592Y2087I-42J0D01*
G01*
X513Y2108D02*
G03*
X517Y2125I-38J17D01*
G01*
D02*
G03*
X492Y2087I-42J0D01*
G01*
X413Y2108D02*
G03*
X417Y2125I-38J17D01*
G01*
X540Y2075D02*
G03*
X536Y2086I-15J0D01*
G01*
X540Y2075D02*
G03*
X536Y2086I-15J0D01*
G01*
X440Y2075D02*
G03*
X436Y2086I-15J0D01*
G01*
X440Y2075D02*
G03*
X436Y2086I-15J0D01*
G01*
X810Y2048D02*
G03*
X740Y2048I-35J-23D01*
G01*
Y2002D02*
G03*
X810Y2002I35J23D01*
G01*
X710Y2048D02*
G03*
X640Y2048I-35J-23D01*
G01*
Y2002D02*
G03*
X710Y2002I35J23D01*
G01*
X810Y1948D02*
G03*
X740Y1948I-35J-23D01*
G01*
Y1902D02*
G03*
X810Y1902I35J23D01*
G01*
X640D02*
G03*
X710Y1902I35J23D01*
G01*
Y1948D02*
G03*
X640Y1948I-35J-23D01*
G01*
X610Y2048D02*
G03*
X540Y2048I-35J-23D01*
G01*
Y2002D02*
G03*
X610Y2002I35J23D01*
G01*
X510Y2048D02*
G03*
X440Y2048I-35J-23D01*
G01*
Y2002D02*
G03*
X510Y2002I35J23D01*
G01*
X610Y1948D02*
G03*
X540Y1948I-35J-23D01*
G01*
Y1902D02*
G03*
X610Y1902I35J23D01*
G01*
X510Y1948D02*
G03*
X440Y1948I-35J-23D01*
G01*
Y1902D02*
G03*
X510Y1902I35J23D01*
G01*
X417Y2125D02*
G03*
X392Y2087I-42J0D01*
G01*
X313Y2108D02*
G03*
X317Y2125I-38J17D01*
G01*
D02*
G03*
X292Y2087I-42J0D01*
G01*
X340Y2075D02*
G03*
X336Y2086I-15J0D01*
G01*
X340Y2075D02*
G03*
X336Y2086I-15J0D01*
G01*
X410Y2048D02*
G03*
X340Y2048I-35J-23D01*
G01*
X240Y2075D02*
G03*
X236Y2086I-15J0D01*
G01*
X240Y2075D02*
G03*
X236Y2086I-15J0D01*
G01*
X310Y2048D02*
G03*
X240Y2048I-35J-23D01*
G01*
X217Y2125D02*
G03*
X192Y2087I-42J0D01*
G01*
X213Y2108D02*
G03*
X217Y2125I-38J17D01*
G01*
X340Y2002D02*
G03*
X410Y2002I35J23D01*
G01*
Y1948D02*
G03*
X340Y1948I-35J-23D01*
G01*
X240Y2002D02*
G03*
X310Y2002I35J23D01*
G01*
X210Y2048D02*
G03*
X210Y2002I-35J-23D01*
G01*
X310Y1948D02*
G03*
X240Y1948I-35J-23D01*
G01*
X340Y1902D02*
G03*
X410Y1902I35J23D01*
G01*
X240D02*
G03*
X310Y1902I35J23D01*
G01*
X210Y1948D02*
G03*
X210Y1902I-35J-23D01*
G01*
X765Y1850D02*
G03*
X740Y1879I-30J0D01*
G01*
X710Y1866D02*
G03*
X765Y1850I25J-16D01*
G01*
X664D02*
G03*
X640Y1879I-30J0D01*
G01*
X610Y1866D02*
G03*
X664Y1850I25J-16D01*
G01*
X759Y1502D02*
G03*
X752Y1506I-11J-11D01*
G01*
X759Y1502D02*
G03*
X752Y1506I-11J-11D01*
G01*
X564Y1850D02*
G03*
X540Y1879I-30J0D01*
G01*
X530Y1767D02*
G03*
X518Y1762I0J-17D01*
G01*
X510Y1866D02*
G03*
X564Y1850I25J-16D01*
G01*
X500Y1815D02*
G03*
X489Y1811I0J-15D01*
G01*
X530Y1767D02*
G03*
X518Y1762I0J-17D01*
G01*
X500Y1815D02*
G03*
X489Y1811I0J-15D01*
G01*
X633Y1594D02*
G03*
X613Y1631I-43J0D01*
G01*
X633Y1594D02*
G03*
X613Y1631I-43J0D01*
G01*
X568D02*
G03*
X633Y1594I22J-36D01*
G01*
X568Y1631D02*
G03*
X633Y1594I22J-36D01*
G01*
X815Y1345D02*
G03*
X811Y1356I-15J0D01*
G01*
X815Y1345D02*
G03*
X811Y1356I-15J0D01*
G01*
X763Y1403D02*
G03*
X752Y1408I-11J-11D01*
G01*
X763Y1403D02*
G03*
X752Y1408I-11J-11D01*
G01*
X616Y1213D02*
G03*
X604Y1208I0J-17D01*
G01*
X616Y1213D02*
G03*
X604Y1208I0J-17D01*
G01*
X465Y1850D02*
G03*
X440Y1879I-30J0D01*
G01*
X410Y1866D02*
G03*
X465Y1850I25J-16D01*
G01*
X439Y1761D02*
G03*
X435Y1750I11J-11D01*
G01*
X488Y1732D02*
G03*
X483Y1720I12J-12D01*
G01*
X488Y1732D02*
G03*
X483Y1720I12J-12D01*
G01*
X439Y1761D02*
G03*
X435Y1750I11J-11D01*
G01*
X364Y1850D02*
G03*
X340Y1879I-30J0D01*
G01*
X310Y1866D02*
G03*
X364Y1850I25J-16D01*
G01*
X264D02*
G03*
X240Y1879I-30J0D01*
G01*
X210Y1866D02*
G03*
X264Y1850I25J-16D01*
G01*
X1437Y1185D02*
G03*
X1437Y1185I-27J0D01*
G01*
X1377Y1196D02*
G03*
X1390Y1220I-17J24D01*
G01*
D02*
G03*
X1343Y1196I-30J0D01*
G01*
X1437Y1090D02*
G03*
X1437Y1090I-27J0D01*
G01*
X1343Y900D02*
G03*
X1360Y883I17J0D01*
G01*
X1343Y900D02*
G03*
X1360Y883I17J0D01*
G01*
X1282Y1040D02*
G03*
X1282Y1040I-27J0D01*
G01*
X1127Y1175D02*
G03*
X1098Y1202I-27J0D01*
G01*
X1097Y1148D02*
G03*
X1127Y1175I3J27D01*
G01*
X1052Y1154D02*
G03*
X1097Y1148I23J0D01*
G01*
X1040Y1137D02*
G03*
X1048Y1154I-15J17D01*
G01*
X1002D02*
G03*
X1010Y1137I23J0D01*
G01*
X1052Y1060D02*
G03*
X1040Y1082I-27J0D01*
G01*
X1010D02*
G03*
X1052Y1060I15J-22D01*
G01*
X1015Y1010D02*
G03*
X1011Y1021I-15J0D01*
G01*
X1015Y1010D02*
G03*
X1011Y1021I-15J0D01*
G01*
X990Y1137D02*
G03*
X998Y1154I-15J17D01*
G01*
X952D02*
G03*
X960Y1137I23J0D01*
G01*
X952Y1069D02*
G03*
X960Y1080I-17J21D01*
G01*
Y1100D02*
G03*
X920Y1068I-25J-10D01*
G01*
X1090Y960D02*
G03*
X1088Y967I-15J0D01*
G01*
D02*
G03*
X1089Y975I-28J8D01*
G01*
X1090Y960D02*
G03*
X1088Y967I-15J0D01*
G01*
X1098Y931D02*
G03*
X1090Y948I-23J0D01*
G01*
X1057Y946D02*
G03*
X1052Y931I18J-15D01*
G01*
X1089Y975D02*
G03*
X1057Y946I-30J0D01*
G01*
X1048Y931D02*
G03*
X1020Y953I-23J0D01*
G01*
X1052Y869D02*
G03*
X1098Y869I23J0D01*
G01*
X1054Y825D02*
G03*
X1040Y850I-30J0D01*
G01*
X1010D02*
G03*
X1054Y825I15J-25D01*
G01*
X1040Y852D02*
G03*
X1048Y869I-15J17D01*
G01*
X1030Y975D02*
G03*
X1015Y1000I-30J0D01*
G01*
X1020Y953D02*
G03*
X1030Y975I-20J22D01*
G01*
X992Y947D02*
G03*
X1008Y947I8J28D01*
G01*
X1008Y947D02*
G03*
X1002Y931I17J-16D01*
G01*
X998D02*
G03*
X992Y947I-23J0D01*
G01*
X985Y1000D02*
G03*
X975Y991I15J-25D01*
G01*
X959Y948D02*
G03*
X952Y931I16J-17D01*
G01*
X948D02*
G03*
X943Y945I-23J0D01*
G01*
D02*
G03*
X951Y956I-18J20D01*
G01*
X1002Y869D02*
G03*
X1010Y852I23J0D01*
G01*
X952Y869D02*
G03*
X998Y869I23J0D01*
G01*
X902D02*
G03*
X948Y869I23J0D01*
G01*
X1421Y436D02*
G03*
X1410Y440I-11J-11D01*
G01*
X1421Y436D02*
G03*
X1410Y440I-11J-11D01*
G01*
X1408Y405D02*
G03*
X1412Y403I11J11D01*
G01*
X1408Y405D02*
G03*
X1412Y403I11J11D01*
G01*
X1285D02*
G03*
X1279Y410I-22J-15D01*
G01*
X1120Y440D02*
G03*
X1109Y436I0J-15D01*
G01*
X1120Y440D02*
G03*
X1109Y436I0J-15D01*
G01*
X1127Y405D02*
G03*
X1127Y410I-27J0D01*
G01*
X1596Y310D02*
G03*
X1596Y310I-41J0D01*
G01*
X1496D02*
G03*
X1496Y310I-41J0D01*
G01*
X1596Y210D02*
G03*
X1596Y210I-41J0D01*
G01*
X1247Y410D02*
G03*
X1285Y373I16J-22D01*
G01*
X1375Y165D02*
G03*
X1375Y135I-25J-15D01*
G01*
X1105Y431D02*
G03*
X1127Y405I-5J-26D01*
G01*
X940Y775D02*
G03*
X955Y800I-15J25D01*
G01*
X990Y725D02*
G03*
X1005Y750I-15J25D01*
G01*
D02*
G03*
X960Y725I-30J0D01*
G01*
X955Y800D02*
G03*
X910Y775I-30J0D01*
G01*
X991Y85D02*
G03*
X1051Y74I34J15D01*
G01*
Y126D02*
G03*
X991Y115I-26J-26D01*
G01*
X986Y224D02*
G03*
X990Y235I-11J11D01*
G01*
X986Y224D02*
G03*
X990Y235I-11J11D01*
G01*
X820Y1195D02*
G03*
X815Y1192I15J-25D01*
G01*
X864Y1170D02*
G03*
X850Y1195I-30J0D01*
G01*
X815Y1148D02*
G03*
X864Y1170I20J22D01*
G01*
X920Y1065D02*
G03*
X924Y1054I15J0D01*
G01*
X920Y1065D02*
G03*
X924Y1054I15J0D01*
G01*
X758Y1108D02*
G03*
X752Y1112I-11J-11D01*
G01*
X758Y1108D02*
G03*
X752Y1112I-11J-11D01*
G01*
X617Y1074D02*
G03*
X627Y1095I-17J21D01*
G01*
X907Y945D02*
G03*
X902Y931I18J-14D01*
G01*
X945Y983D02*
G03*
X907Y945I-20J-18D01*
G01*
X896Y965D02*
G03*
X896Y965I-27J0D01*
G01*
X890Y775D02*
G03*
X886Y786I-15J-0D01*
G01*
X890Y775D02*
G03*
X886Y786I-15J-0D01*
G01*
X905Y750D02*
G03*
X890Y775I-30J0D01*
G01*
X856Y773D02*
G03*
X846Y746I19J-23D01*
G01*
X780Y819D02*
G03*
X778Y819I5J-29D01*
G01*
X790Y761D02*
G03*
X810Y774I-5J29D01*
G01*
X756Y797D02*
G03*
X780Y761I29J-7D01*
G01*
X588Y1192D02*
G03*
X583Y1180I12J-12D01*
G01*
X588Y1192D02*
G03*
X583Y1180I12J-12D01*
G01*
X627Y1095D02*
G03*
X617Y1116I-27J0D01*
G01*
X583D02*
G03*
X583Y1074I17J-21D01*
G01*
X627Y995D02*
G03*
X617Y1016I-27J0D01*
G01*
X583D02*
G03*
X583Y974I17J-21D01*
G01*
X617D02*
G03*
X627Y995I-17J21D01*
G01*
X629Y890D02*
G03*
X617Y914I-30J0D01*
G01*
X583D02*
G03*
X629Y890I17J-24D01*
G01*
X623Y768D02*
G03*
X623Y768I-33J0D01*
G01*
D02*
G03*
X623Y768I-33J0D01*
G01*
X483Y774D02*
G03*
X530Y750I17J-24D01*
G01*
D02*
G03*
X517Y774I-30J0D01*
G01*
X854Y729D02*
G03*
X905Y750I21J21D01*
G01*
X854Y725D02*
G03*
X854Y729I-30J0D01*
G01*
X810Y750D02*
G03*
X854Y725I15J-25D01*
G01*
X846Y746D02*
G03*
X840Y750I-21J-21D01*
G01*
X936Y630D02*
G03*
X940Y641I-11J11D01*
G01*
X936Y630D02*
G03*
X940Y641I-11J11D01*
G01*
X780Y761D02*
G03*
X790Y761I5J14D01*
G01*
X530Y600D02*
G03*
X515Y625I-30J0D01*
G01*
Y650D02*
G03*
X511Y661I-15J0D01*
G01*
X515Y650D02*
G03*
X511Y661I-15J0D01*
G01*
X917Y312D02*
G03*
X922Y324I-12J12D01*
G01*
X917Y312D02*
G03*
X922Y324I-12J12D01*
G01*
X891Y293D02*
G03*
X903Y298I0J17D01*
G01*
X891Y293D02*
G03*
X903Y298I0J17D01*
G01*
X862Y100D02*
G03*
X862Y100I-37J0D01*
G01*
X700Y160D02*
G03*
X754Y175I25J15D01*
G01*
D02*
G03*
X700Y190I-30J0D01*
G01*
X662Y100D02*
G03*
X662Y100I-37J0D01*
G01*
X435Y700D02*
G03*
X439Y689I15J0D01*
G01*
X435Y700D02*
G03*
X439Y689I15J0D01*
G01*
X485Y625D02*
G03*
X530Y600I15J-25D01*
G01*
X451Y620D02*
G03*
X451Y620I-27J0D01*
G01*
X193D02*
G03*
X193Y620I-27J0D01*
G01*
X516Y300D02*
G03*
X516Y300I-41J0D01*
G01*
X500Y190D02*
G03*
X489Y186I0J-15D01*
G01*
X500Y190D02*
G03*
X489Y186I0J-15D01*
G01*
X381Y250D02*
G03*
X381Y250I-41J0D01*
G01*
X438Y135D02*
G03*
X398Y126I-13J-35D01*
G01*
X462Y100D02*
G03*
X460Y113I-37J0D01*
G01*
X398Y74D02*
G03*
X462Y100I26J26D01*
G01*
X3208Y2142D02*
X3360D01*
X3200Y2150D02*
X3360D01*
X3213Y2126D02*
X3360D01*
X3212Y2134D02*
X3360D01*
X3213Y2118D02*
X3360D01*
X3209Y2110D02*
X3360D01*
X3202Y2102D02*
X3360D01*
X3204Y2062D02*
X3360D01*
X2810Y2174D02*
X3360D01*
X2807Y2177D02*
X3360D01*
X2822Y2158D02*
X3360D01*
X2817Y2166D02*
X3360D01*
X2824Y2150D02*
X3168D01*
X2812Y2102D02*
X3166D01*
X2802Y2094D02*
X3360D01*
X2795Y2086D02*
X3360D01*
X2808Y2078D02*
X3360D01*
X2815Y2070D02*
X3360D01*
X2945Y2062D02*
X3164D01*
X3212Y2030D02*
X3360D01*
X3207Y2022D02*
X3360D01*
X3198Y2014D02*
X3360D01*
X3187Y1966D02*
X3360D01*
X3213Y2046D02*
X3360D01*
X3210Y2054D02*
X3360D01*
X3213Y2038D02*
X3360D01*
X3227Y1926D02*
X3360D01*
X3219Y1934D02*
X3360D01*
X3235Y1918D02*
X3360D01*
X3203Y1950D02*
X3360D01*
X3195Y1958D02*
X3360D01*
X3211Y1942D02*
X3360D01*
X3147Y2006D02*
X3360D01*
X3163Y1990D02*
X3360D01*
X3155Y1998D02*
X3360D01*
X3138Y2014D02*
X3170D01*
X3179Y1974D02*
X3360D01*
X3171Y1982D02*
X3360D01*
X3069Y1918D02*
X3189D01*
X3044Y1934D02*
X3173D01*
X2850Y1942D02*
X3165D01*
X3059Y1926D02*
X3181D01*
X2826Y2134D02*
X3156D01*
X2826Y2142D02*
X3160D01*
X2954Y2046D02*
X3155D01*
X2951Y2054D02*
X3158D01*
X2954Y2038D02*
X3155D01*
X2825Y2046D02*
X2896D01*
X2826Y2038D02*
X2896D01*
X2966Y2022D02*
X3161D01*
X2958Y2030D02*
X3156D01*
X2954Y2034D02*
X2972Y2016D01*
X2825Y2126D02*
X3155D01*
X2822Y2118D02*
X3155D01*
X2820Y2062D02*
X2905D01*
X2818Y2110D02*
X3159D01*
X2824Y2054D02*
X2899D01*
X2806Y1944D02*
X2896Y2034D01*
X2825Y2030D02*
X2892D01*
X2823Y2022D02*
X2884D01*
X2972Y2016D02*
X3130D01*
X3141Y2011D02*
X3141Y2011D01*
X2898Y1990D02*
X2952D01*
X2914Y2006D02*
X2936D01*
X2906Y1998D02*
X2944D01*
X2965Y1984D02*
X3123D01*
X2890Y1982D02*
X3125D01*
X2954Y1989D02*
X2954Y1989D01*
X2931Y2011D02*
X2954Y1989D01*
X2882Y1974D02*
X3133D01*
X2819Y2014D02*
X2876D01*
X2874Y1966D02*
X3141D01*
X2866Y1958D02*
X3149D01*
X2814Y2006D02*
X2868D01*
X2805Y1998D02*
X2860D01*
X2789Y1990D02*
X2852D01*
X2858Y1950D02*
X3157D01*
X2842Y1934D02*
X2974D01*
X2834Y1926D02*
X2959D01*
X2826Y1918D02*
X2949D01*
X2824Y1916D02*
X2919Y2011D01*
X2824Y1916D02*
X2824Y1916D01*
X3253Y1894D02*
X3360D01*
X3250Y1902D02*
X3360D01*
X3253Y1870D02*
X3360D01*
X3253Y1886D02*
X3360D01*
X3248Y1904D02*
X3248Y1904D01*
X3253Y1878D02*
X3360D01*
X3253Y1854D02*
X3360D01*
X3253Y1862D02*
X3360D01*
X3253Y1846D02*
X3360D01*
X3253Y1838D02*
X3360D01*
X3253Y1341D02*
Y1893D01*
Y1830D02*
X3360D01*
X3141Y2011D02*
X3248Y1904D01*
X3123Y1984D02*
X3221Y1886D01*
X3243Y1910D02*
X3360D01*
X3096Y1878D02*
X3221D01*
X3093Y1886D02*
X3221D01*
X3098Y1870D02*
X3221D01*
Y1341D02*
Y1886D01*
X3099Y1838D02*
X3221D01*
X3096Y1822D02*
X3221D01*
X3100Y1854D02*
X3221D01*
X3099Y1862D02*
X3221D01*
X3100Y1846D02*
X3221D01*
X3253Y1790D02*
X3360D01*
X3253Y1798D02*
X3360D01*
X3253Y1774D02*
X3360D01*
X3253Y1782D02*
X3360D01*
X3253Y1814D02*
X3360D01*
X3253Y1822D02*
X3360D01*
X3253Y1806D02*
X3360D01*
X3253Y1734D02*
X3360D01*
X3253Y1742D02*
X3360D01*
X3253Y1726D02*
X3360D01*
X3253Y1758D02*
X3360D01*
X3253Y1766D02*
X3360D01*
X3253Y1750D02*
X3360D01*
X3253Y1694D02*
X3360D01*
X3253Y1702D02*
X3360D01*
X3253Y1678D02*
X3360D01*
X3253Y1686D02*
X3360D01*
X3253Y1718D02*
X3360D01*
X3093Y1814D02*
X3221D01*
X3253Y1710D02*
X3360D01*
X3253Y1662D02*
X3360D01*
X3253Y1670D02*
X3360D01*
X3253Y1654D02*
X3360D01*
X3253Y1646D02*
X3360D01*
X2790Y1654D02*
X3221D01*
X2790Y1638D02*
X3221D01*
X3084Y1902D02*
X3205D01*
X3077Y1910D02*
X3197D01*
X3089Y1894D02*
X3213D01*
X2822Y1862D02*
X2919D01*
X2826Y1846D02*
X2918D01*
X2824Y1854D02*
X2918D01*
X2826Y1838D02*
X2919D01*
X3098Y1830D02*
X3221D01*
X3089Y1806D02*
X3221D01*
X3084Y1798D02*
X3221D01*
X2824Y1830D02*
X2920D01*
X2822Y1822D02*
X2922D01*
X2801Y1886D02*
X2925D01*
X2818Y1870D02*
X2920D01*
X2811Y1878D02*
X2922D01*
X2723Y1862D02*
X2728D01*
X2725Y1857D02*
X2726D01*
X2817Y1814D02*
X2925D01*
X2811Y1806D02*
X2929D01*
X2725Y1827D02*
X2726D01*
X2723Y1822D02*
X2728D01*
X3077Y1790D02*
X3221D01*
X3069Y1782D02*
X3221D01*
X3059Y1774D02*
X3221D01*
X3044Y1766D02*
X3221D01*
X2800Y1798D02*
X2934D01*
X2790Y1774D02*
X2959D01*
X2790Y1766D02*
X2974D01*
X2790Y1750D02*
X3221D01*
X2790Y1758D02*
X3221D01*
X2790Y1742D02*
X3221D01*
X2790Y1734D02*
X3221D01*
X2790Y1706D02*
Y1778D01*
Y1726D02*
X3221D01*
X2790Y1670D02*
X3221D01*
X2790Y1678D02*
X3221D01*
X2790Y1662D02*
X3221D01*
X2790Y1710D02*
X3221D01*
X2790Y1718D02*
X3221D01*
X2790Y1686D02*
X3221D01*
X2790Y1622D02*
Y1694D01*
Y1646D02*
X3221D01*
X2611Y2078D02*
X2742D01*
X2598Y2086D02*
X2755D01*
X2624Y2062D02*
X2729D01*
X2618Y2070D02*
X2734D01*
X2629Y2046D02*
X2724D01*
X2627Y2054D02*
X2726D01*
X2629Y2038D02*
X2724D01*
X2617Y2006D02*
X2736D01*
X2608Y1998D02*
X2745D01*
X2592Y1990D02*
X2761D01*
X2628Y2030D02*
X2725D01*
X2626Y2022D02*
X2727D01*
X2622Y2014D02*
X2730D01*
X2417Y2174D02*
X2739D01*
X2413Y2177D02*
X2743D01*
X2428Y2158D02*
X2728D01*
X2423Y2166D02*
X2733D01*
X2432Y2142D02*
X2724D01*
X2431Y2150D02*
X2725D01*
X2432Y2134D02*
X2724D01*
X2418Y2102D02*
X2738D01*
X2408Y2094D02*
X2748D01*
X2318Y1982D02*
X2844D01*
X2431Y2126D02*
X2725D01*
X2428Y2118D02*
X2728D01*
X2424Y2110D02*
X2732D01*
X2702Y1886D02*
X2749D01*
X2719Y1870D02*
X2732D01*
X2713Y1878D02*
X2739D01*
X2621Y1870D02*
X2634D01*
X2614Y1878D02*
X2640D01*
X2625Y1822D02*
X2630D01*
X2719Y1814D02*
X2732D01*
X2712Y1806D02*
X2739D01*
X2702Y1798D02*
X2749D01*
X2621Y1814D02*
X2634D01*
X2334Y1966D02*
X2828D01*
X2326Y1974D02*
X2836D01*
X2342Y1958D02*
X2820D01*
X1708Y1910D02*
X2941D01*
X2356Y1944D02*
X2806D01*
X2350Y1950D02*
X2812D01*
X2349Y1912D02*
X2813D01*
X1875Y1894D02*
X2929D01*
X1700Y1902D02*
X2934D01*
X2493Y1790D02*
X2661D01*
X2614Y1806D02*
X2640D01*
X2604Y1886D02*
X2650D01*
X2604Y1798D02*
X2651D01*
X2422Y2070D02*
X2538D01*
X2430Y2054D02*
X2529D01*
X2427Y2062D02*
X2532D01*
X2432Y2046D02*
X2527D01*
X2426Y2014D02*
X2534D01*
X2432Y2038D02*
X2527D01*
X2431Y2030D02*
X2528D01*
X2429Y2022D02*
X2530D01*
X2414Y2078D02*
X2545D01*
X2401Y2086D02*
X2558D01*
X2065D02*
X2361D01*
X2420Y2006D02*
X2539D01*
X2411Y1998D02*
X2548D01*
X2395Y1990D02*
X2564D01*
X2310D02*
X2367D01*
X2506Y1886D02*
X2552D01*
X2625Y1862D02*
X2629D01*
X2516Y1878D02*
X2542D01*
X2527Y1862D02*
X2531D01*
X2522Y1870D02*
X2535D01*
X2526Y1822D02*
X2531D01*
X2516Y1806D02*
X2542D01*
X2505Y1798D02*
X2552D01*
X2522Y1814D02*
X2535D01*
X2407Y1886D02*
X2454D01*
X2417Y1878D02*
X2443D01*
X2428Y1862D02*
X2433D01*
X2424Y1870D02*
X2437D01*
X2430Y1857D02*
X2431D01*
X2417Y1806D02*
X2444D01*
X2407Y1798D02*
X2454D01*
X1917Y1790D02*
X2463D01*
X2430Y1827D02*
X2431D01*
X2428Y1822D02*
X2433D01*
X2424Y1814D02*
X2437D01*
X2691Y1782D02*
X2949D01*
X2691Y1790D02*
X2941D01*
X2718Y1778D02*
X2790D01*
X2710Y1774D02*
X2718D01*
X2710Y1758D02*
X2718D01*
X2710Y1766D02*
X2718D01*
X2710Y1757D02*
X2718D01*
Y1778D01*
X2710Y1727D02*
X2718D01*
X2710Y1726D02*
X2718D01*
Y1706D02*
Y1727D01*
X2710Y1757D02*
Y1778D01*
Y1706D02*
Y1727D01*
X2691Y1778D02*
Y1793D01*
X2661Y1778D02*
Y1793D01*
X2691Y1778D02*
X2710D01*
X2493Y1782D02*
X2661D01*
X2638Y1778D02*
X2661D01*
X2523D02*
X2595D01*
Y1774D02*
X2638D01*
Y1706D02*
Y1778D01*
X2595Y1742D02*
X2638D01*
X2595Y1734D02*
X2638D01*
X2595Y1758D02*
X2638D01*
X2595Y1766D02*
X2638D01*
X2595Y1750D02*
X2638D01*
X2710Y1710D02*
X2718D01*
X2710Y1718D02*
X2718D01*
Y1694D02*
X2790D01*
X2718Y1706D02*
X2790D01*
X2710Y1686D02*
X2718D01*
X2638Y1694D02*
X2710D01*
Y1678D02*
X2718D01*
X2710Y1662D02*
X2718D01*
X2710Y1670D02*
X2718D01*
X2710Y1654D02*
X2718D01*
Y1622D02*
Y1694D01*
X2710Y1622D02*
Y1694D01*
Y1646D02*
X2718D01*
X2638Y1706D02*
X2710D01*
X2595Y1718D02*
X2638D01*
X1700Y1702D02*
X3221D01*
X1695Y1694D02*
X3221D01*
X2595Y1710D02*
X2638D01*
X2595Y1726D02*
X2638D01*
X2595Y1686D02*
X2638D01*
Y1622D02*
Y1694D01*
X2595Y1654D02*
X2638D01*
X2595Y1646D02*
X2638D01*
X2595Y1670D02*
X2638D01*
X2595Y1678D02*
X2638D01*
X2595Y1662D02*
X2638D01*
X2514Y1774D02*
X2523D01*
X2493Y1779D02*
X2514D01*
Y1758D02*
X2523D01*
X2514Y1766D02*
X2523D01*
X2493Y1779D02*
Y1793D01*
X2463Y1779D02*
Y1794D01*
X2514Y1758D02*
Y1779D01*
X2595Y1706D02*
Y1778D01*
X2523Y1758D02*
Y1778D01*
X2514Y1758D02*
X2523D01*
Y1706D02*
Y1728D01*
X2442Y1707D02*
Y1779D01*
X2514Y1728D02*
X2523D01*
X2442Y1779D02*
X2463D01*
X1913Y1782D02*
X2463D01*
X2430Y1766D02*
X2442D01*
X2430Y1774D02*
X2442D01*
X2358Y1779D02*
X2430D01*
X1907Y1774D02*
X2358D01*
X2430Y1758D02*
X2442D01*
X2430Y1742D02*
X2442D01*
X2430Y1750D02*
X2442D01*
X2430Y1734D02*
X2442D01*
X2430Y1707D02*
Y1779D01*
X2358Y1707D02*
Y1779D01*
X1870Y1750D02*
X2358D01*
X2514Y1710D02*
X2523D01*
X2514Y1718D02*
X2523D01*
Y1694D02*
X2595D01*
X2523Y1706D02*
X2595D01*
X2514Y1726D02*
X2523D01*
X2514Y1707D02*
Y1728D01*
X2442Y1707D02*
X2514D01*
X2595Y1622D02*
Y1694D01*
X2523Y1622D02*
Y1694D01*
X2430Y1718D02*
X2442D01*
X2430Y1726D02*
X2442D01*
X1695Y1686D02*
X2523D01*
X2430Y1710D02*
X2442D01*
X1700Y1726D02*
X2358D01*
Y1707D02*
X2430D01*
X1695Y1646D02*
X2523D01*
X1695Y1654D02*
X2523D01*
X1695Y1638D02*
X2523D01*
X1695Y1670D02*
X2523D01*
X1695Y1678D02*
X2523D01*
X1695Y1662D02*
X2523D01*
X3253Y1606D02*
X3360D01*
X3253Y1614D02*
X3360D01*
X3253Y1590D02*
X3360D01*
X3253Y1598D02*
X3360D01*
X3253Y1630D02*
X3360D01*
X3253Y1638D02*
X3360D01*
X3253Y1622D02*
X3360D01*
X3253Y1534D02*
X3360D01*
X3253Y1542D02*
X3360D01*
X3253Y1518D02*
X3360D01*
X3253Y1574D02*
X3360D01*
X3253Y1582D02*
X3360D01*
X3253Y1566D02*
X3360D01*
X2995Y1582D02*
X3221D01*
X2993Y1590D02*
X3221D01*
X2995Y1574D02*
X3221D01*
X2994Y1566D02*
X3221D01*
X2983Y1606D02*
X3221D01*
X2972Y1614D02*
X3221D01*
X2989Y1598D02*
X3221D01*
X3253Y1550D02*
X3360D01*
X3253Y1558D02*
X3360D01*
X3253Y1526D02*
X3360D01*
X3106Y1510D02*
X3221D01*
X3106Y1534D02*
X3221D01*
X3253Y1510D02*
X3360D01*
X3253Y1470D02*
X3360D01*
X3253Y1478D02*
X3360D01*
X3253Y1454D02*
X3360D01*
X3253Y1462D02*
X3360D01*
X3253Y1494D02*
X3360D01*
X3253Y1502D02*
X3360D01*
X3253Y1486D02*
X3360D01*
X3253Y1358D02*
X3360D01*
X3253Y1422D02*
X3360D01*
X3275Y1334D02*
X3360D01*
X3253Y1438D02*
X3360D01*
X3253Y1446D02*
X3360D01*
X3253Y1430D02*
X3360D01*
X3253Y1406D02*
X3360D01*
X3253Y1414D02*
X3360D01*
X3253Y1390D02*
X3360D01*
X3253Y1398D02*
X3360D01*
X3103Y1502D02*
X3221D01*
X3097Y1494D02*
X3221D01*
X3088Y1486D02*
X3221D01*
X3253Y1374D02*
X3360D01*
X3253Y1382D02*
X3360D01*
X3253Y1366D02*
X3360D01*
X3253Y1342D02*
X3360D01*
X3253Y1350D02*
X3360D01*
X3253Y1341D02*
X3275D01*
X3097Y1550D02*
X3221D01*
X3087Y1558D02*
X3221D01*
X3107Y1526D02*
X3221D01*
X3102Y1542D02*
X3221D01*
X3107Y1518D02*
X3221D01*
X2995Y1470D02*
X3221D01*
X3074Y1454D02*
X3221D01*
X2995Y1462D02*
X3221D01*
X3091Y1446D02*
X3221D01*
X3099Y1438D02*
X3221D01*
X2991Y1558D02*
X3043D01*
X2987Y1550D02*
X3033D01*
X2986Y1494D02*
X3033D01*
X2978Y1542D02*
X3028D01*
X2960Y1534D02*
X3024D01*
X2977Y1502D02*
X3027D01*
X2994Y1478D02*
X3221D01*
X2991Y1486D02*
X3042D01*
X2993Y1454D02*
X3056D01*
X2990Y1446D02*
X3039D01*
X2984Y1438D02*
X3031D01*
X3106Y1422D02*
X3221D01*
X3104Y1430D02*
X3221D01*
X3107Y1414D02*
X3221D01*
X3101Y1390D02*
X3221D01*
X3107Y1406D02*
X3221D01*
X3105Y1398D02*
X3221D01*
X3095Y1382D02*
X3221D01*
X3083Y1374D02*
X3221D01*
X3083Y1342D02*
X3221D01*
X3203Y1341D02*
X3221D01*
X3119D02*
X3191D01*
Y1334D02*
X3203D01*
X2988Y1382D02*
X3035D01*
X2992Y1374D02*
X3047D01*
X2974Y1430D02*
X3026D01*
X2967Y1398D02*
X3025D01*
X2981Y1390D02*
X3029D01*
X2996Y1358D02*
X3221D01*
X2995Y1366D02*
X3221D01*
X2995Y1350D02*
X3221D01*
X2992Y1342D02*
X3047D01*
X2988Y1334D02*
X3035D01*
X3275Y1294D02*
X3360D01*
X3275Y1302D02*
X3360D01*
X3275Y1278D02*
X3360D01*
X3275Y1286D02*
X3360D01*
X3275Y1318D02*
X3360D01*
X3275Y1326D02*
X3360D01*
X3275Y1310D02*
X3360D01*
X3275Y1270D02*
X3360D01*
X3253Y1262D02*
X3360D01*
X3253Y1214D02*
X3360D01*
X3275Y1269D02*
Y1341D01*
X3253Y1269D02*
X3275D01*
X3253Y1222D02*
X3360D01*
X3203Y1269D02*
X3221D01*
X3074Y1262D02*
X3221D01*
X3253Y1246D02*
X3360D01*
X3253Y1254D02*
X3360D01*
X2995Y1246D02*
X3221D01*
X2995Y1254D02*
X3221D01*
X2994Y1238D02*
X3221D01*
X3253Y1230D02*
X3360D01*
X3253Y1238D02*
X3360D01*
X3253Y1206D02*
X3360D01*
X3097Y1222D02*
X3221D01*
X3088Y1230D02*
X3221D01*
X3103Y1214D02*
X3221D01*
X3253Y1166D02*
X3360D01*
X3253Y1174D02*
X3360D01*
X3253Y1150D02*
X3360D01*
X3253Y1158D02*
X3360D01*
X3253Y1190D02*
X3360D01*
X3253Y1198D02*
X3360D01*
X3253Y1182D02*
X3360D01*
X3253Y1102D02*
X3360D01*
X3253Y1118D02*
X3360D01*
X3253Y1078D02*
X3360D01*
X3253Y1134D02*
X3360D01*
X3253Y1142D02*
X3360D01*
X3253Y1126D02*
X3360D01*
X3106Y1182D02*
X3221D01*
X3087Y1158D02*
X3221D01*
X3253Y1110D02*
X3360D01*
X2996Y1150D02*
X3221D01*
X2996Y1126D02*
X3221D01*
X2996Y1142D02*
X3221D01*
X2996Y1110D02*
X3221D01*
X3253Y1062D02*
X3360D01*
X3253Y1070D02*
X3360D01*
X3253Y1054D02*
X3360D01*
X3253Y1094D02*
X3360D01*
X2996Y1102D02*
X3221D01*
X3253Y1086D02*
X3360D01*
X3191Y1318D02*
X3203D01*
X3191Y1326D02*
X3203D01*
X3191Y1294D02*
X3203D01*
X3191Y1310D02*
X3203D01*
X3119Y1320D02*
Y1341D01*
X3104Y1320D02*
X3119D01*
X3191Y1302D02*
X3203D01*
Y1269D02*
Y1341D01*
X3191Y1286D02*
X3203D01*
X3191Y1278D02*
X3203D01*
X3191Y1269D02*
Y1341D01*
X3105Y1290D02*
X3119D01*
Y1269D02*
Y1290D01*
X3101Y1326D02*
X3119D01*
X3095Y1334D02*
X3119D01*
X3104Y1286D02*
X3119D01*
X2981Y1326D02*
X3029D01*
X2967Y1318D02*
X3025D01*
X2974Y1286D02*
X3026D01*
X3099Y1278D02*
X3119D01*
X3091Y1270D02*
X3119D01*
X2984Y1278D02*
X3031D01*
X2990Y1270D02*
X3039D01*
X3107Y1198D02*
X3221D01*
X3106Y1206D02*
X3221D01*
X3107Y1190D02*
X3221D01*
X3102Y1174D02*
X3221D01*
X3191Y1270D02*
X3203D01*
X3119Y1269D02*
X3191D01*
X2996Y1182D02*
X3024D01*
X3097Y1166D02*
X3221D01*
X2996Y1118D02*
X3221D01*
X2996Y1166D02*
X3033D01*
X2996Y1097D02*
Y1183D01*
Y1158D02*
X3043D01*
X2993Y1262D02*
X3056D01*
X2991Y1230D02*
X3042D01*
X2986Y1222D02*
X3033D01*
X2977Y1214D02*
X3027D01*
X2911Y1183D02*
X2996D01*
Y1174D02*
X3028D01*
X2996Y1134D02*
X3221D01*
X2795Y1126D02*
X2911D01*
Y1097D02*
X2996D01*
X2911D02*
Y1183D01*
X2795Y1078D02*
Y1132D01*
Y1102D02*
X2911D01*
X2790Y1622D02*
X3221D01*
X2790Y1630D02*
X3221D01*
X1963Y1518D02*
X3023D01*
X1963Y1526D02*
X3023D01*
X2710Y1622D02*
X2718D01*
X2710Y1630D02*
X2718D01*
Y1622D02*
X2790D01*
X1963Y1502D02*
X2929D01*
X1963Y1510D02*
X3024D01*
X1963Y1494D02*
X2920D01*
X1963Y1478D02*
X2912D01*
X1963Y1486D02*
X2915D01*
X1963Y1470D02*
X2911D01*
X1665Y1606D02*
X2923D01*
X1583Y1614D02*
X2934D01*
X1665Y1590D02*
X2913D01*
X1665Y1598D02*
X2917D01*
X1665Y1574D02*
X2911D01*
X1665Y1582D02*
X2911D01*
X1665Y1566D02*
X2912D01*
X1665Y1542D02*
X2928D01*
X1665Y1550D02*
X2919D01*
X1617Y1534D02*
X2947D01*
X1912Y1462D02*
X2911D01*
X1665Y1558D02*
X2914D01*
X1917Y1454D02*
X2913D01*
X2716Y1422D02*
X3024D01*
X2715Y1414D02*
X3023D01*
X2716Y1390D02*
X2925D01*
X2715Y1382D02*
X2918D01*
X2716Y1358D02*
X2911D01*
X2714Y1350D02*
X2911D01*
X2714Y1334D02*
X2918D01*
X2715Y1302D02*
X3023D01*
X2714Y1318D02*
X2939D01*
X2716Y1294D02*
X3024D01*
X2716Y1326D02*
X2925D01*
X2715Y1270D02*
X2916D01*
X2716Y1262D02*
X2913D01*
X2714Y1430D02*
X2932D01*
X2707Y1438D02*
X2922D01*
X2714Y1398D02*
X2939D01*
X2710Y1406D02*
X3023D01*
X2710Y1374D02*
X2914D01*
X1917Y1446D02*
X2916D01*
X2714Y1366D02*
X2911D01*
X2714Y1286D02*
X2932D01*
X2710Y1310D02*
X3023D01*
X2710Y1278D02*
X2922D01*
X2714Y1254D02*
X2911D01*
X2709Y1342D02*
X2914D01*
X2711Y1246D02*
X2911D01*
X2710Y1638D02*
X2718D01*
X2638Y1622D02*
X2710D01*
X2645Y1443D02*
X2694D01*
X2595Y1630D02*
X2638D01*
X2595Y1638D02*
X2638D01*
X2595Y1622D02*
X2638D01*
X2265Y1430D02*
X2625D01*
X2259Y1438D02*
X2631D01*
X2267Y1422D02*
X2623D01*
X2266Y1414D02*
X2624D01*
X1695Y1630D02*
X2523D01*
X1590Y1622D02*
X2523D01*
Y1622D02*
X2595D01*
X2265Y1398D02*
X2625D01*
X2261Y1406D02*
X2629D01*
X2282Y1382D02*
X2613D01*
X2267Y1390D02*
X2623D01*
X2294Y1374D02*
X2601D01*
X2371Y1278D02*
X2570D01*
X2377Y1262D02*
X2565D01*
X2376Y1270D02*
X2566D01*
X2376Y1254D02*
X2567D01*
X2300Y1358D02*
X2595D01*
X2299Y1366D02*
X2596D01*
X2312Y1350D02*
X2583D01*
X2329Y1334D02*
X2566D01*
X2324Y1342D02*
X2571D01*
X2330Y1326D02*
X2565D01*
X2312Y1302D02*
X2583D01*
X2300Y1294D02*
X2595D01*
X2359Y1286D02*
X2580D01*
X2329Y1318D02*
X2566D01*
X2324Y1310D02*
X2571D01*
X2715Y1206D02*
X3024D01*
X2714Y1222D02*
X2920D01*
X2716Y1198D02*
X3023D01*
X2713Y1190D02*
X3023D01*
X2716Y1230D02*
X2915D01*
X2715Y1238D02*
X2912D01*
X2711Y1182D02*
X2911D01*
X2715Y1142D02*
X2911D01*
X2712Y1150D02*
X2911D01*
X2716Y1134D02*
X2911D01*
X2716Y1166D02*
X2911D01*
X2715Y1174D02*
X2911D01*
X2713Y1158D02*
X2911D01*
X2711Y1214D02*
X2929D01*
X2795Y1094D02*
X3221D01*
X2795Y1118D02*
X2911D01*
X2795Y1078D02*
X3221D01*
X2795Y1086D02*
X3221D01*
X2735Y1132D02*
X2795D01*
X2735Y1122D02*
Y1132D01*
X2795Y1110D02*
X2911D01*
X2795Y1070D02*
X3221D01*
X2735Y1078D02*
X2795D01*
Y1062D02*
X3221D01*
X2735Y1078D02*
X2795D01*
X2735D02*
Y1090D01*
Y1076D02*
X2795D01*
X2713Y1126D02*
X2735D01*
X2709Y1122D02*
X2735D01*
X2712Y1086D02*
X2735D01*
X2709Y1090D02*
X2735D01*
X2716Y1078D02*
X2735D01*
X2715Y1070D02*
X2735D01*
X2712Y1062D02*
X2735D01*
X2713Y1054D02*
X2735D01*
X2590Y1238D02*
X2596D01*
X2620Y1206D02*
X2624D01*
X2330Y1214D02*
X2602D01*
X2371Y1246D02*
X2572D01*
X2359Y1238D02*
X2590D01*
X2602Y1190D02*
X2626D01*
X2609Y1184D02*
X2629D01*
X2329Y1222D02*
X2597D01*
X2325Y1230D02*
X2595D01*
X2328Y1206D02*
X2620D01*
X2323Y1198D02*
X2623D01*
X2320Y1182D02*
X2569D01*
X2305Y1190D02*
X2578D01*
X2327Y1174D02*
X2566D01*
X2320Y1142D02*
X2596D01*
X2315Y1134D02*
X2595D01*
X2325Y1126D02*
X2598D01*
X2330Y1158D02*
X2567D01*
X2330Y1166D02*
X2565D01*
X2327Y1150D02*
X2573D01*
X2455Y1090D02*
X2629D01*
X2452Y1086D02*
X2626D01*
X2444Y1078D02*
X2623D01*
X2436Y1070D02*
X2623D01*
X2449Y1122D02*
X2600D01*
X2437Y1117D02*
X2437Y1117D01*
X2605Y1062D02*
X2627D01*
X2609Y1058D02*
X2629D01*
X2429Y1063D02*
X2455Y1090D01*
X2429Y1063D02*
X2429Y1063D01*
X2428Y1062D02*
X2575D01*
X2411Y1090D02*
X2437Y1117D01*
X2329Y1118D02*
X2438D01*
X2330Y1110D02*
X2430D01*
X2328Y1102D02*
X2422D01*
X2323Y1094D02*
X2414D01*
X2319Y1090D02*
X2411D01*
X2405Y1058D02*
X2417D01*
X2261D02*
X2371D01*
X2261Y1058D02*
X2370D01*
X2053Y2174D02*
X2346D01*
X2048Y2177D02*
X2349D01*
X2068Y2158D02*
X2334D01*
X2062Y2166D02*
X2339D01*
X2075Y2142D02*
X2330D01*
X2072Y2150D02*
X2332D01*
X2077Y2134D02*
X2330D01*
X2074Y2102D02*
X2344D01*
X2070Y2094D02*
X2354D01*
X2058Y2078D02*
X2348D01*
X2078Y2126D02*
X2331D01*
X2078Y2118D02*
X2334D01*
X2076Y2110D02*
X2338D01*
X1964Y2070D02*
X1985D01*
X1718Y2174D02*
X1979D01*
X1948Y2086D02*
X1967D01*
X1727Y2166D02*
X1970D01*
X1956Y2078D02*
X1974D01*
X2047Y2070D02*
X2341D01*
X2020Y2062D02*
X2336D01*
X1913Y2121D02*
X1996Y2038D01*
X1895Y2094D02*
X1978Y2011D01*
X2255Y2038D02*
X2330D01*
X2270Y2030D02*
X2331D01*
X2266Y2033D02*
X2266Y2033D01*
X1996Y2038D02*
X2255D01*
X1996D02*
X2255D01*
X2294Y2006D02*
X2342D01*
X2286Y2014D02*
X2337D01*
X2302Y1998D02*
X2351D01*
X2278Y2022D02*
X2333D01*
X1989Y2006D02*
X2248D01*
X1989D02*
X2248D01*
X1980Y2054D02*
X2332D01*
X1972Y2062D02*
X2011D01*
X1988Y2046D02*
X2331D01*
X1923Y2014D02*
X1975D01*
X1921Y2022D02*
X1967D01*
X1978Y2011D02*
X1978Y2011D01*
X1924Y1990D02*
X2264D01*
X1922Y1982D02*
X2272D01*
X1920Y1974D02*
X2280D01*
X1924Y2006D02*
X1989D01*
X1924Y1998D02*
X2256D01*
X1901Y2126D02*
X1954D01*
X1916Y2118D02*
X1954D01*
X1913Y2121D02*
X1913Y2121D01*
X1798Y2126D02*
X1901D01*
X1798D02*
X1901D01*
X1932Y2102D02*
X1958D01*
X1924Y2110D02*
X1955D01*
X1940Y2094D02*
X1961D01*
X1805D02*
X1895D01*
X1805D02*
X1895D01*
X1797Y2086D02*
X1903D01*
X1738Y2150D02*
X1959D01*
X1733Y2158D02*
X1964D01*
X1743Y2134D02*
X1954D01*
X1741Y2142D02*
X1956D01*
X1743Y2126D02*
X1798D01*
X1787Y2121D02*
X1787Y2121D01*
X1743Y2118D02*
X1783D01*
X1716Y2005D02*
X1805Y2094D01*
X1742Y2110D02*
X1775D01*
X1739Y2102D02*
X1767D01*
X1736Y2094D02*
X1759D01*
X1878Y2070D02*
X1919D01*
X1789Y2078D02*
X1911D01*
X1902Y2054D02*
X1935D01*
X1892Y2062D02*
X1927D01*
X1781Y2070D02*
X1819D01*
X1773Y2062D02*
X1805D01*
X1765Y2054D02*
X1795D01*
X1914Y2038D02*
X1951D01*
X1909Y2046D02*
X1943D01*
X1918Y2030D02*
X1959D01*
X1757Y2046D02*
X1788D01*
X1749Y2038D02*
X1783D01*
X1741Y2030D02*
X1779D01*
X1730Y2086D02*
X1751D01*
X1723Y2078D02*
X1743D01*
X1733Y2022D02*
X1776D01*
X1725Y2014D02*
X1774D01*
X1716Y1982D02*
X1775D01*
X1716Y1974D02*
X1777D01*
X1717Y2006D02*
X1773D01*
X1716Y1998D02*
X1773D01*
X1716Y1990D02*
X1773D01*
X2266Y2033D02*
X2356Y1944D01*
X2081Y1886D02*
X2355D01*
X2338Y1916D02*
X2338Y1916D01*
X2248Y2006D02*
X2338Y1916D01*
X2009Y1886D02*
X2081D01*
Y1878D02*
X2345D01*
X2202Y1870D02*
X2338D01*
X2081Y1865D02*
Y1886D01*
X2009D02*
X2081D01*
Y1870D02*
X2166D01*
X1906Y1950D02*
X2304D01*
X1898Y1942D02*
X2312D01*
X1886Y1934D02*
X2320D01*
X1866Y1926D02*
X2328D01*
X1916Y1966D02*
X2288D01*
X1912Y1958D02*
X2296D01*
X1997Y1886D02*
X2009D01*
Y1814D02*
Y1886D01*
X1997Y1878D02*
X2009D01*
X1997Y1870D02*
X2009D01*
X1997Y1814D02*
Y1886D01*
X1925D02*
X1997D01*
X1925D02*
X1997D01*
X2211Y1854D02*
X2332D01*
X2208Y1862D02*
X2334D01*
X2208Y1838D02*
X2330D01*
X2202Y1830D02*
X2332D01*
X2211Y1846D02*
X2330D01*
X2081Y1865D02*
X2162D01*
X2081Y1835D02*
X2162D01*
X2081Y1822D02*
X2334D01*
X2081Y1814D02*
X2339D01*
X2081Y1830D02*
X2166D01*
X2081Y1814D02*
Y1835D01*
X2009Y1814D02*
X2081D01*
X1997Y1830D02*
X2009D01*
X1997Y1838D02*
X2009D01*
Y1814D02*
X2081D01*
X1997Y1822D02*
X2009D01*
X1997Y1854D02*
X2009D01*
X1997Y1862D02*
X2009D01*
X1997Y1846D02*
X2009D01*
X1920Y1798D02*
X2356D01*
X1899Y1766D02*
X2358D01*
X1888Y1758D02*
X2358D01*
X1997Y1814D02*
X2009D01*
X1925D02*
X1997D01*
X1923Y1806D02*
X2345D01*
X1925Y1865D02*
Y1886D01*
X1901Y1878D02*
X1925D01*
X1912Y1865D02*
X1925D01*
X1908Y1870D02*
X1925D01*
X1924Y1835D02*
X1925D01*
X1924Y1830D02*
X1925D01*
Y1814D02*
X1997D01*
X1909Y1530D02*
X1963D01*
Y1500D02*
Y1530D01*
X1925Y1814D02*
Y1835D01*
X1925Y1822D02*
X1925D01*
X1924Y1814D02*
X1925D01*
X1716Y1942D02*
X1799D01*
X1716Y1926D02*
X1831D01*
X1716Y1934D02*
X1811D01*
X1716Y1958D02*
X1785D01*
X1716Y1966D02*
X1781D01*
X1716Y1950D02*
X1791D01*
X1891Y1886D02*
X1925D01*
X1743Y1500D02*
Y1530D01*
X1716Y1925D02*
Y2005D01*
X1853Y1500D02*
Y1530D01*
X1907Y1518D02*
X1909D01*
X1907Y1526D02*
X1909D01*
Y1500D02*
Y1530D01*
X1907Y1500D02*
Y1530D01*
Y1510D02*
X1909D01*
X1853Y1530D02*
X1907D01*
X1743Y1526D02*
X1853D01*
X1907Y1502D02*
X1909D01*
X1743Y1510D02*
X1853D01*
X1743Y1518D02*
X1853D01*
X1743Y1502D02*
X1853D01*
Y1470D02*
Y1500D01*
X1714Y2177D02*
X1983D01*
X1689Y2023D02*
X1787Y2121D01*
X1712Y2070D02*
X1735D01*
X1686Y2062D02*
X1727D01*
X1657Y2046D02*
X1711D01*
X1689Y2023D02*
X1689Y2023D01*
X1684Y1932D02*
Y2012D01*
X1657Y1982D02*
X1684D01*
X1657Y1974D02*
X1684D01*
X1657Y2030D02*
X1695D01*
X1657Y2038D02*
X1703D01*
X1657Y2014D02*
X1684D01*
X1657Y2022D02*
X1688D01*
X1657Y2006D02*
X1684D01*
X1657Y1950D02*
X1684D01*
X1657Y1958D02*
X1684D01*
X1657Y1942D02*
X1684D01*
X1657Y1990D02*
X1684D01*
X1657Y1998D02*
X1684D01*
X1657Y1966D02*
X1684D01*
X1714Y1918D02*
X2336D01*
X1700Y1798D02*
X1777D01*
X1700Y1782D02*
X1784D01*
X1700Y1790D02*
X1780D01*
X1711Y1914D02*
X1711Y1914D01*
X1700Y1718D02*
X2358D01*
X1700Y1734D02*
X2358D01*
X1700Y1710D02*
X2358D01*
X1700Y1758D02*
X1809D01*
X1700Y1774D02*
X1790D01*
X1700Y1742D02*
X2358D01*
X1692Y1894D02*
X1822D01*
X1684Y1886D02*
X1806D01*
X1676Y1878D02*
X1796D01*
X1668Y1870D02*
X1789D01*
X1661Y1864D02*
X1711Y1914D01*
X1643Y1891D02*
X1684Y1932D01*
X1659Y1862D02*
X1783D01*
X1700Y1766D02*
X1798D01*
X1532Y1854D02*
X1779D01*
X1700Y1750D02*
X1827D01*
X1630Y1805D02*
X1700D01*
X1524Y1846D02*
X1776D01*
X1661Y1864D02*
X1661Y1864D01*
X1657Y1939D02*
Y2049D01*
X1540Y1805D02*
X1610D01*
X1537Y1859D02*
X1650D01*
X1610Y1798D02*
X1630D01*
X1610Y1790D02*
X1630D01*
X1610Y1782D02*
X1630D01*
X1610Y1696D02*
Y1805D01*
X1540Y1696D02*
Y1805D01*
X1630Y1696D02*
Y1805D01*
X1525Y2110D02*
X1621D01*
X1524Y2142D02*
X1622D01*
X1530Y1891D02*
X1643D01*
X1518Y2102D02*
X1623D01*
X1529Y2126D02*
X1619D01*
X1528Y2134D02*
X1620D01*
X1529Y2118D02*
X1619D01*
X1520Y1798D02*
X1540D01*
X1520Y1790D02*
X1540D01*
X1519Y1886D02*
X1519Y1886D01*
X1520Y1696D02*
Y1805D01*
X1610Y1766D02*
X1630D01*
X1610Y1774D02*
X1630D01*
X1610Y1758D02*
X1630D01*
X1610Y1742D02*
X1630D01*
X1610Y1750D02*
X1630D01*
X1610Y1734D02*
X1630D01*
X1610Y1718D02*
X1630D01*
X1610Y1726D02*
X1630D01*
X1610Y1710D02*
X1630D01*
X1623Y1696D02*
X1630D01*
X1610Y1702D02*
X1630D01*
X1610Y1696D02*
X1611D01*
X1520Y1750D02*
X1540D01*
X1520Y1758D02*
X1540D01*
X1520Y1742D02*
X1540D01*
X1520Y1774D02*
X1540D01*
X1520Y1782D02*
X1540D01*
X1520Y1766D02*
X1540D01*
X1520Y1702D02*
X1540D01*
X1520Y1710D02*
X1540D01*
X1539Y1696D02*
X1540D01*
X1520Y1726D02*
X1540D01*
X1520Y1734D02*
X1540D01*
X1520Y1718D02*
X1540D01*
X1700Y1695D02*
Y1805D01*
X1695Y1695D02*
Y1696D01*
Y1695D02*
X1700D01*
X1611Y1678D02*
X1623D01*
X1611Y1694D02*
X1623D01*
X1611Y1670D02*
X1623D01*
X1695Y1624D02*
Y1695D01*
X1623Y1624D02*
X1695D01*
X1665Y1540D02*
Y1610D01*
X1623Y1624D02*
Y1696D01*
X1611Y1646D02*
X1623D01*
X1611Y1654D02*
X1623D01*
X1611Y1630D02*
X1623D01*
X1611Y1638D02*
X1623D01*
X1611Y1686D02*
X1623D01*
X1610Y1695D02*
Y1696D01*
X1611Y1662D02*
X1623D01*
X1611Y1624D02*
Y1696D01*
X1591Y1624D02*
X1611D01*
X1603Y1610D02*
X1665D01*
X1586Y1598D02*
X1603D01*
X1586Y1606D02*
X1603D01*
X1586Y1590D02*
X1603D01*
X1689Y1500D02*
Y1530D01*
X1743D01*
X1687Y1518D02*
X1689D01*
X1687Y1526D02*
X1689D01*
X1687Y1510D02*
X1689D01*
X1633Y1530D02*
X1687D01*
Y1502D02*
X1689D01*
X1687Y1500D02*
Y1530D01*
X1633Y1500D02*
Y1530D01*
X1689Y1470D02*
Y1500D01*
X1623Y1540D02*
X1665D01*
X1617Y1534D02*
X1623Y1540D01*
X1627Y1526D02*
X1633D01*
X1617Y1530D02*
X1627D01*
X1586Y1574D02*
X1603D01*
X1586Y1582D02*
X1603D01*
X1617Y1530D02*
Y1534D01*
X1627Y1510D02*
X1633D01*
X1627Y1518D02*
X1633D01*
X1627Y1502D02*
X1633D01*
X1627Y1470D02*
Y1500D01*
Y1530D01*
X1633Y1470D02*
Y1500D01*
X1543Y1622D02*
X1545Y1624D01*
X1539D02*
X1545D01*
X1540Y1695D02*
Y1696D01*
X1539Y1624D02*
Y1696D01*
X1543Y1622D02*
X1543Y1622D01*
X1587Y1618D02*
X1587Y1618D01*
X1579Y1610D02*
X1587Y1618D01*
X1586Y1551D02*
Y1610D01*
X1579D02*
X1586D01*
X1521Y1686D02*
X1539D01*
X1521Y1694D02*
X1539D01*
X1521Y1662D02*
X1539D01*
X1521Y1678D02*
X1539D01*
X1520Y1696D02*
X1521D01*
X1520Y1695D02*
Y1696D01*
X1521Y1670D02*
X1539D01*
X1521Y1646D02*
X1539D01*
X1521Y1654D02*
X1539D01*
X1521Y1638D02*
X1539D01*
X1521Y1630D02*
X1539D01*
X1521Y1624D02*
Y1696D01*
X1524Y1540D02*
Y1610D01*
X1603Y1568D02*
Y1610D01*
X1588Y1553D02*
X1603Y1568D01*
X1586Y1558D02*
X1593D01*
X1586Y1566D02*
X1601D01*
X1588Y1553D02*
X1588Y1553D01*
X1583Y1530D02*
Y1540D01*
Y1541D01*
X1573Y1530D02*
X1583D01*
X1573Y1500D02*
Y1530D01*
X1571Y1518D02*
X1573D01*
Y1470D02*
Y1500D01*
X1571Y1526D02*
X1573D01*
X1524Y1540D02*
X1583D01*
X1571Y1502D02*
X1573D01*
X1524Y1610D02*
X1538D01*
X1517Y1530D02*
X1571D01*
Y1510D02*
X1573D01*
X1571Y1470D02*
Y1530D01*
X1517Y1470D02*
Y1530D01*
X2266Y1382D02*
X2268D01*
X2196Y1443D02*
X2245D01*
X1917Y1406D02*
X2180D01*
X1917Y1430D02*
X2176D01*
X1995Y1374D02*
X2180D01*
X1995Y1382D02*
X2175D01*
X1917Y1414D02*
X2175D01*
X1995Y1366D02*
X2176D01*
X1995Y1342D02*
X2181D01*
X1995Y1310D02*
X2180D01*
X1995Y1334D02*
X2176D01*
X1995Y1350D02*
X2176D01*
X1995Y1318D02*
X2176D01*
X2299Y1286D02*
X2345D01*
X2294Y1278D02*
X2333D01*
X2293Y1246D02*
X2333D01*
X2261Y1248D02*
X2331D01*
X2299Y1242D02*
X2301Y1240D01*
X2315Y1238D02*
X2345D01*
X2299Y1242D02*
X2299Y1242D01*
X2299Y1242D01*
X1995Y1278D02*
X2180D01*
X1985Y1254D02*
X2176D01*
X1995Y1286D02*
X2176D01*
X1995Y1302D02*
X2175D01*
X1917Y1270D02*
X2175D01*
X2261Y1247D02*
X2288D01*
X1995Y1246D02*
X2179D01*
X1995Y1230D02*
X2174D01*
X1995Y1238D02*
X2175D01*
X1995Y1222D02*
X2176D01*
X1995Y1358D02*
X2174D01*
X1963Y1470D02*
Y1500D01*
X1995Y1329D02*
Y1383D01*
X1972Y1329D02*
X1995D01*
Y1326D02*
X2174D01*
X1965Y1327D02*
X1995D01*
Y1273D02*
Y1327D01*
X1935Y1383D02*
X1995D01*
X1917Y1422D02*
X2174D01*
X1917Y1342D02*
X1935D01*
X1917Y1350D02*
X1935D01*
X1917Y1334D02*
X1935D01*
Y1329D02*
X1958D01*
X1935Y1327D02*
X1965D01*
X1935Y1329D02*
Y1383D01*
X1917Y1317D02*
Y1450D01*
X1935Y1317D02*
Y1327D01*
X1995Y1294D02*
X2174D01*
X1965Y1273D02*
X1995D01*
X1989Y1248D02*
X1995D01*
X1972Y1262D02*
X2174D01*
X1935Y1273D02*
X1965D01*
X1935D02*
Y1283D01*
Y1248D02*
X1941D01*
X1917Y1278D02*
X1935D01*
X1917Y1283D02*
X1935D01*
X1917Y1262D02*
X1958D01*
X1917Y1318D02*
X1935D01*
X1917Y1326D02*
X1935D01*
X1917Y1317D02*
X1935D01*
X1917Y1246D02*
X1935D01*
X1917Y1254D02*
X1945D01*
X1923Y1238D02*
X1935D01*
X1928Y1230D02*
X1935D01*
X1917Y1244D02*
Y1283D01*
X1929Y1222D02*
X1935D01*
X2267Y1198D02*
X2287D01*
X2266Y1206D02*
X2282D01*
X2261Y1217D02*
X2280D01*
X2262Y1214D02*
X2280D01*
X2264Y1190D02*
X2305D01*
X2261Y1184D02*
X2293D01*
X2261Y1154D02*
X2281D01*
X1995Y1214D02*
X2179D01*
X1995Y1182D02*
X2179D01*
X1995Y1158D02*
X2177D01*
X2300Y1138D02*
X2301Y1136D01*
X2273Y1122D02*
X2280Y1115D01*
X2261Y1122D02*
X2273D01*
X2261Y1152D02*
X2279D01*
X2263Y1118D02*
X2277D01*
X2267Y1102D02*
X2282D01*
X2267Y1110D02*
X2280D01*
X2264Y1094D02*
X2287D01*
X1995Y1150D02*
X2178D01*
X2133Y1094D02*
X2178D01*
X2261Y1090D02*
X2291D01*
X2136D02*
X2181D01*
X2130Y1058D02*
X2181D01*
X1995Y1206D02*
X2175D01*
X1995Y1194D02*
Y1248D01*
Y1190D02*
X2177D01*
X1995Y1198D02*
X2174D01*
X1965Y1192D02*
X1995D01*
X1935D02*
X1965D01*
X1995Y1166D02*
X2174D01*
X1995Y1174D02*
X2175D01*
X1995Y1142D02*
X2175D01*
X1995Y1138D02*
Y1192D01*
X1965Y1138D02*
X1995D01*
Y1106D02*
Y1117D01*
X1929Y1214D02*
X1935D01*
X1926Y1206D02*
X1935D01*
Y1194D02*
X1995D01*
X1920Y1198D02*
X1935D01*
Y1194D02*
Y1248D01*
X1917Y1174D02*
X1935D01*
X1917Y1166D02*
X1935D01*
Y1138D02*
X1965D01*
X1917Y1150D02*
X1935D01*
X1917Y1134D02*
X2174D01*
X1935Y1138D02*
Y1192D01*
X1917Y1158D02*
X1935D01*
X1917Y1142D02*
X1935D01*
X1995Y1110D02*
X2175D01*
X2125Y1101D02*
X2136Y1090D01*
X2125Y1102D02*
X2174D01*
X2125Y1101D02*
X2125Y1101D01*
X1995Y1074D02*
X2107D01*
X2118Y1063D02*
X2118Y1063D01*
X2107Y1074D02*
X2118Y1063D01*
X1995Y1063D02*
Y1074D01*
Y1070D02*
X2111D01*
X1965Y1117D02*
X1995D01*
X1935D02*
X1965D01*
X1995Y1106D02*
X2114D01*
X1935Y1107D02*
Y1117D01*
X1917Y1073D02*
X1935D01*
X1917Y1070D02*
X1935D01*
X1965Y1063D02*
X1995D01*
X1917Y1062D02*
X2119D01*
X1935Y1061D02*
X1995D01*
X1935Y1063D02*
X1965D01*
X1935D02*
Y1073D01*
X1917Y1054D02*
X1935D01*
X1907Y1486D02*
X1909D01*
X1907Y1494D02*
X1909D01*
Y1470D02*
X1963D01*
X1909D02*
X1963D01*
X1909D02*
Y1500D01*
X1907Y1478D02*
X1909D01*
X1907Y1470D02*
X1909D01*
X1917Y1438D02*
X2183D01*
X1907Y1470D02*
Y1500D01*
X1896Y1470D02*
X1907D01*
X1896Y1467D02*
Y1470D01*
X1853D02*
X1864D01*
X1743Y1486D02*
X1853D01*
X1896Y1470D02*
X1907D01*
X1853D02*
X1864D01*
X1743Y1478D02*
X1853D01*
X1743Y1494D02*
X1853D01*
X1743Y1470D02*
X1853D01*
X1896Y1467D02*
X1900D01*
X1880Y1433D02*
X1883D01*
Y1300D02*
Y1433D01*
X1864Y1467D02*
Y1470D01*
X1677Y1467D02*
X1864D01*
X1620Y1422D02*
X1883D01*
X1917Y1390D02*
X2174D01*
X1917Y1398D02*
X2176D01*
X1917Y1374D02*
X1935D01*
X1917Y1382D02*
X1935D01*
X1867Y1390D02*
X1883D01*
X1867Y1398D02*
X1883D01*
X1867Y1382D02*
X1883D01*
X1917Y1358D02*
X1935D01*
X1917Y1366D02*
X1935D01*
X1867Y1318D02*
X1883D01*
X1867Y1302D02*
X1883D01*
X1867Y1310D02*
X1883D01*
X1867Y1294D02*
X1883D01*
X1860Y1414D02*
X1883D01*
X1867Y1374D02*
X1883D01*
X1866Y1406D02*
X1883D01*
X1624Y1417D02*
X1850D01*
X1623Y1382D02*
X1833D01*
X1867Y1334D02*
X1883D01*
X1867Y1342D02*
X1883D01*
X1867Y1326D02*
X1883D01*
X1867Y1358D02*
X1883D01*
X1867Y1366D02*
X1883D01*
X1867Y1350D02*
X1883D01*
X1743Y1470D02*
Y1500D01*
X1687Y1486D02*
X1689D01*
Y1470D02*
X1743D01*
X1689D02*
X1743D01*
X1687Y1478D02*
X1689D01*
X1687Y1494D02*
X1689D01*
X1687Y1470D02*
X1689D01*
X1687D02*
Y1500D01*
X1677Y1470D02*
X1687D01*
X1677D02*
X1687D01*
X1643Y1467D02*
Y1470D01*
X1633D02*
X1643D01*
X1677Y1467D02*
Y1470D01*
X1627Y1486D02*
X1633D01*
X1627Y1494D02*
X1633D01*
X1627Y1470D02*
X1633D01*
X1627Y1478D02*
X1633D01*
X1571Y1486D02*
X1573D01*
X1571Y1494D02*
X1573D01*
X1571Y1478D02*
X1573D01*
Y1470D02*
X1627D01*
X1573D02*
X1627D01*
X1633D02*
X1643D01*
X1571D02*
X1573D01*
X1517D02*
X1571D01*
X1727Y1342D02*
X1833D01*
X1673Y1348D02*
X1727D01*
Y1326D02*
X1833D01*
X1727Y1334D02*
X1833D01*
X1671D02*
X1673D01*
X1671Y1342D02*
X1673D01*
X1671Y1326D02*
X1673D01*
X1727Y1310D02*
X1833D01*
X1727Y1318D02*
X1833D01*
X1727Y1302D02*
X1833D01*
X1727Y1294D02*
X1833D01*
X1673Y1288D02*
Y1348D01*
Y1288D02*
X1684D01*
X1624Y1383D02*
X1833D01*
X1614Y1374D02*
X1833D01*
X1671Y1318D02*
X1673D01*
X1617Y1348D02*
X1671D01*
Y1302D02*
X1673D01*
X1671Y1310D02*
X1673D01*
X1671Y1294D02*
X1673D01*
X1883Y1244D02*
Y1300D01*
X1867Y1254D02*
X1883D01*
X1867Y1246D02*
X1883D01*
X1867Y1270D02*
X1883D01*
X1867Y1278D02*
X1883D01*
X1867Y1262D02*
X1883D01*
X1917Y1107D02*
Y1196D01*
X1883Y1090D02*
Y1196D01*
X1867Y1189D02*
Y1400D01*
Y1190D02*
X1883D01*
X1867Y1238D02*
X1877D01*
X1867Y1286D02*
X1883D01*
X1867Y1222D02*
X1871D01*
X1867Y1230D02*
X1872D01*
X1716Y1278D02*
X1833D01*
X1716Y1286D02*
X1833D01*
X1746Y1270D02*
X1833D01*
X1867Y1206D02*
X1874D01*
X1867Y1214D02*
X1871D01*
X1867Y1198D02*
X1880D01*
X1746Y1214D02*
X1833D01*
X1746Y1222D02*
X1833D01*
X1746Y1206D02*
X1833D01*
X1917Y1182D02*
X1935D01*
X1917Y1190D02*
X1935D01*
X1878Y1174D02*
X1883D01*
X1874Y1182D02*
X1883D01*
X1879Y1166D02*
X1883D01*
X1879Y1158D02*
X1883D01*
X1917Y1118D02*
X2178D01*
X1917Y1126D02*
X2177D01*
X1917Y1107D02*
X1935D01*
X1875Y1150D02*
X1883D01*
X1868Y1142D02*
X1883D01*
X1917Y1110D02*
X1935D01*
X1867D02*
X1883D01*
X1867Y1118D02*
X1883D01*
X1867Y1094D02*
X1883D01*
X1867Y1102D02*
X1883D01*
X1867Y1134D02*
X1883D01*
X1867Y1126D02*
X1883D01*
X1867Y1078D02*
X1883D01*
X1867Y1086D02*
X1883D01*
X1867Y1062D02*
X1883D01*
X1746Y1086D02*
X1833D01*
X1746Y1094D02*
X1833D01*
X1867Y1070D02*
X1883D01*
X1727Y1288D02*
Y1348D01*
X1716Y1270D02*
X1746D01*
Y1262D02*
X1833D01*
X1716Y1270D02*
X1746D01*
X1716D02*
Y1288D01*
X1684Y1270D02*
Y1288D01*
X1716D02*
X1727D01*
X1746Y1246D02*
X1833D01*
X1746Y1254D02*
X1833D01*
X1746Y1238D02*
X1833D01*
Y1189D02*
Y1383D01*
X1746Y1170D02*
Y1270D01*
Y1230D02*
X1833D01*
X1671Y1288D02*
Y1348D01*
X1617Y1288D02*
X1671D01*
X1654Y1270D02*
X1684D01*
X1654D02*
X1684D01*
X1617Y1288D02*
Y1348D01*
X1546Y1270D02*
X1654D01*
X1546Y1262D02*
X1654D01*
X1546Y1246D02*
X1654D01*
X1546Y1254D02*
X1654D01*
X1546Y1238D02*
X1654D01*
Y1170D02*
Y1270D01*
X1546Y1170D02*
Y1270D01*
Y1230D02*
X1654D01*
X1746Y1190D02*
X1833D01*
X1746Y1198D02*
X1833D01*
X1746Y1182D02*
X1826D01*
X1746Y1174D02*
X1822D01*
X1546Y1206D02*
X1654D01*
Y1170D02*
X1746D01*
Y1062D02*
X1833D01*
X1746Y1070D02*
X1833D01*
X1746Y1054D02*
X1833D01*
X1746Y1102D02*
X1833D01*
X1654Y1105D02*
X1746D01*
Y1078D02*
X1833D01*
X1546Y1182D02*
X1654D01*
X1546Y1190D02*
X1654D01*
X1546Y1174D02*
X1654D01*
X1546Y1214D02*
X1654D01*
X1546Y1222D02*
X1654D01*
X1546Y1198D02*
X1654D01*
X1546Y1070D02*
X1654D01*
X1546Y1078D02*
X1654D01*
X1546Y1062D02*
X1654D01*
X1546Y1094D02*
X1654D01*
X1546Y1102D02*
X1654D01*
X1546Y1086D02*
X1654D01*
X3253Y1014D02*
X3360D01*
X3253Y1022D02*
X3360D01*
X3253Y998D02*
X3360D01*
X3253Y1006D02*
X3360D01*
X3253Y1038D02*
X3360D01*
X3253Y1046D02*
X3360D01*
X3253Y1030D02*
X3360D01*
X3253Y950D02*
X3360D01*
X3253Y958D02*
X3360D01*
X3253Y942D02*
X3360D01*
X3253Y982D02*
X3360D01*
X3253Y990D02*
X3360D01*
X3253Y974D02*
X3360D01*
X2795Y1022D02*
X3221D01*
X2795Y1030D02*
X3221D01*
X2716Y1014D02*
X3221D01*
X2715Y1006D02*
X3221D01*
X2795Y1046D02*
X3221D01*
X2795Y1054D02*
X3221D01*
X2795Y1038D02*
X3221D01*
X2715Y974D02*
X3221D01*
X2711Y966D02*
X3221D01*
X3253D02*
X3360D01*
X3044Y950D02*
X3221D01*
X2714Y958D02*
X3221D01*
X3059Y942D02*
X3221D01*
X3253Y894D02*
X3360D01*
X3253Y902D02*
X3360D01*
X3253Y878D02*
X3360D01*
X3253Y886D02*
X3360D01*
X3253Y926D02*
X3360D01*
X3253Y934D02*
X3360D01*
X3253Y910D02*
X3360D01*
X3253Y830D02*
X3360D01*
X3253Y846D02*
X3360D01*
X3253Y822D02*
X3360D01*
X3253Y862D02*
X3360D01*
X3253Y870D02*
X3360D01*
X3253Y854D02*
X3360D01*
X3077Y926D02*
X3221D01*
X3069Y934D02*
X3221D01*
X3253Y918D02*
X3360D01*
X3084D02*
X3221D01*
X3100Y870D02*
X3221D01*
X3099Y878D02*
X3221D01*
X3100Y862D02*
X3221D01*
X3099Y854D02*
X3221D01*
X3098Y846D02*
X3221D01*
X3253Y838D02*
X3360D01*
X3093Y830D02*
X3221D01*
X3089Y822D02*
X3221D01*
X3084Y814D02*
X3221D01*
X2795Y1022D02*
Y1076D01*
X2716Y1046D02*
X2735D01*
X2715Y1038D02*
X2735D01*
X2716Y950D02*
X2974D01*
X2716Y982D02*
X3221D01*
X2715Y942D02*
X2959D01*
X2735Y1022D02*
X2795D01*
X2735D02*
Y1076D01*
Y1022D02*
X2795D01*
X2713D02*
X2735D01*
X2712Y1030D02*
X2735D01*
X2713Y990D02*
X3221D01*
X2711Y998D02*
X3221D01*
X2711Y934D02*
X2949D01*
X3093Y902D02*
X3221D01*
X3089Y910D02*
X3221D01*
X3098Y886D02*
X3221D01*
X3096Y894D02*
X3221D01*
X2716Y918D02*
X2934D01*
X2715Y910D02*
X2929D01*
X2716Y886D02*
X2920D01*
X3096Y838D02*
X3221D01*
X2714Y830D02*
X2925D01*
X2716Y822D02*
X2929D01*
X2716Y854D02*
X2919D01*
X2715Y878D02*
X2919D01*
X2714Y846D02*
X2920D01*
X2714Y926D02*
X2941D01*
X2710Y902D02*
X2925D01*
X2714Y894D02*
X2922D01*
X2710Y870D02*
X2918D01*
X2714Y862D02*
X2918D01*
X2709Y838D02*
X2922D01*
X2714Y814D02*
X2934D01*
X3292Y726D02*
X3360D01*
X3284Y734D02*
X3360D01*
X3308Y710D02*
X3360D01*
X3300Y718D02*
X3360D01*
X3311Y706D02*
X3311Y706D01*
X3314Y702D02*
X3360D01*
X3316Y686D02*
X3360D01*
X3316Y694D02*
X3360D01*
X3316Y678D02*
X3360D01*
Y27D02*
Y2177D01*
X3316Y300D02*
Y695D01*
X3253Y782D02*
X3360D01*
X3253Y790D02*
X3360D01*
X3253Y766D02*
X3360D01*
X3253Y774D02*
X3360D01*
X3253Y806D02*
X3360D01*
X3253Y814D02*
X3360D01*
X3253Y798D02*
X3360D01*
X3268Y750D02*
X3360D01*
X3260Y758D02*
X3360D01*
X3276Y742D02*
X3360D01*
X3253Y765D02*
X3311Y706D01*
X3226Y747D02*
X3284Y688D01*
X3217Y686D02*
X3284D01*
X3316Y638D02*
X3360D01*
X3316Y646D02*
X3360D01*
X3316Y622D02*
X3360D01*
X3316Y630D02*
X3360D01*
X3316Y662D02*
X3360D01*
X3316Y670D02*
X3360D01*
X3316Y654D02*
X3360D01*
X3316Y542D02*
X3360D01*
X3316Y590D02*
X3360D01*
X3316Y534D02*
X3360D01*
X3316Y606D02*
X3360D01*
X3316Y614D02*
X3360D01*
X3316Y598D02*
X3360D01*
X3228Y670D02*
X3284D01*
X3224Y678D02*
X3284D01*
X3316Y574D02*
X3360D01*
X3316Y582D02*
X3360D01*
X3232Y662D02*
X3284D01*
X3202Y582D02*
X3284D01*
X3180Y574D02*
X3284D01*
X3316Y518D02*
X3360D01*
X3316Y526D02*
X3360D01*
X3316Y510D02*
X3360D01*
X3316Y558D02*
X3360D01*
X3316Y566D02*
X3360D01*
X3316Y550D02*
X3360D01*
X3253Y765D02*
Y1269D01*
X3077Y806D02*
X3221D01*
X3069Y798D02*
X3221D01*
Y758D02*
Y1269D01*
X3059Y790D02*
X3221D01*
X3044Y782D02*
X3221D01*
X3194Y702D02*
X3270D01*
X3208Y694D02*
X3278D01*
X3226Y747D02*
X3226Y747D01*
X2715Y798D02*
X2949D01*
X2710Y806D02*
X2941D01*
X2716Y790D02*
X2959D01*
X2714Y782D02*
X2974D01*
X2715Y766D02*
X3221D01*
X2710Y774D02*
X3221D01*
X2714Y750D02*
X3223D01*
X2716Y758D02*
X3221D01*
X3235Y646D02*
X3284D01*
X3234Y654D02*
X3284D01*
X3236Y638D02*
X3284D01*
X3233Y622D02*
X3284D01*
X3235Y630D02*
X3284D01*
X3230Y614D02*
X3284D01*
X3226Y606D02*
X3284D01*
X3221Y598D02*
X3284D01*
Y307D02*
Y688D01*
X3213Y590D02*
X3284D01*
X3082Y534D02*
X3284D01*
X3072Y542D02*
X3284D01*
X3087Y526D02*
X3284D01*
X2984Y534D02*
X3019D01*
X2974Y542D02*
X3029D01*
X2989Y526D02*
X3014D01*
X3091Y518D02*
X3284D01*
X2993D02*
X3010D01*
X2994Y510D02*
X3009D01*
X2365Y1006D02*
X2596D01*
X2411Y1030D02*
X2568D01*
X2405Y1022D02*
X2575D01*
X2364Y1014D02*
X2595D01*
X2363Y998D02*
X2573D01*
X2328Y958D02*
X2578D01*
X2330Y950D02*
X2595D01*
X2329Y942D02*
X2583D01*
X2325Y934D02*
X2571D01*
X2323Y966D02*
X2569D01*
X2323Y902D02*
X2571D01*
X2330Y886D02*
X2595D01*
X2328Y894D02*
X2583D01*
X2329Y878D02*
X2583D01*
X2325Y870D02*
X2571D01*
X2324Y838D02*
X2571D01*
X2329Y830D02*
X2583D01*
X2312Y798D02*
X2620D01*
X2707Y742D02*
X3230D01*
X2620Y798D02*
X2624D01*
X2330Y822D02*
X2595D01*
X2329Y814D02*
X2597D01*
X2324Y806D02*
X2602D01*
X2609Y686D02*
X3120D01*
X2609Y678D02*
X3113D01*
X2645Y737D02*
X2694D01*
X2511Y693D02*
X2609D01*
X2265Y782D02*
X2625D01*
X2261Y774D02*
X2629D01*
X2265Y750D02*
X2625D01*
X2259Y742D02*
X2631D01*
X2267Y790D02*
X2623D01*
X2266Y766D02*
X2624D01*
X2267Y758D02*
X2623D01*
X2161Y726D02*
X3246D01*
X2155Y718D02*
X3254D01*
X2150Y710D02*
X3262D01*
X2164Y734D02*
X3238D01*
X2150Y702D02*
X3143D01*
X2150Y694D02*
X3129D01*
X2409Y1054D02*
X2568D01*
X2413Y1038D02*
X2565D01*
X2412Y1046D02*
X2565D01*
X2354Y1028D02*
X2366D01*
X2360Y1022D02*
X2371D01*
X2358Y990D02*
X2567D01*
X2340Y982D02*
X2565D01*
X2315Y926D02*
X2566D01*
X2261Y1026D02*
X2324D01*
X2261Y1028D02*
X2326D01*
X2300Y982D02*
X2340D01*
X2298Y990D02*
X2322D01*
X2295Y996D02*
X2317D01*
X2305Y974D02*
X2566D01*
X2299D02*
X2305D01*
X2300Y918D02*
X2565D01*
X2299Y910D02*
X2566D01*
X2316Y862D02*
X2566D01*
X2300Y854D02*
X2565D01*
X2473Y686D02*
X2511D01*
X2312Y846D02*
X2566D01*
X2473Y678D02*
X2511D01*
X2375Y693D02*
X2473D01*
X2266Y798D02*
X2298D01*
X2261Y807D02*
X2285D01*
X2261Y806D02*
X2286D01*
X2150Y686D02*
X2375D01*
X2609Y662D02*
X3105D01*
X2609Y670D02*
X3109D01*
X2609Y622D02*
X3104D01*
X2609Y654D02*
X3103D01*
X2609Y638D02*
X3102D01*
X2609Y646D02*
X3102D01*
X2609Y630D02*
X3102D01*
X2609Y598D02*
X3116D01*
X2609Y606D02*
X3111D01*
X2609Y590D02*
X3124D01*
X2609Y587D02*
Y693D01*
Y614D02*
X3107D01*
X2473Y662D02*
X2511D01*
X2473Y646D02*
X2511D01*
X2473Y670D02*
X2511D01*
X2473Y638D02*
X2511D01*
Y587D02*
Y693D01*
X2473Y598D02*
X2511D01*
X2473Y590D02*
X2511D01*
X2473Y614D02*
X2511D01*
X2473Y622D02*
X2511D01*
X2473Y606D02*
X2511D01*
X2646Y558D02*
X3284D01*
X2646Y566D02*
X3284D01*
X2646Y542D02*
X2931D01*
X2646Y550D02*
X3284D01*
X2574Y570D02*
X2646D01*
X2574Y535D02*
Y570D01*
X2646Y534D02*
X2921D01*
X2646Y518D02*
X2912D01*
X2646Y526D02*
X2916D01*
X2646Y510D02*
X2911D01*
X2646Y498D02*
Y570D01*
X2545Y509D02*
Y581D01*
Y510D02*
X2549D01*
X2511Y587D02*
X2609D01*
X2441Y582D02*
X3135D01*
X2545Y550D02*
X2574D01*
X2545Y574D02*
X3157D01*
X2545Y566D02*
X2574D01*
X2473Y581D02*
X2545D01*
Y558D02*
X2574D01*
X2545Y542D02*
X2574D01*
X2519Y480D02*
X2574Y535D01*
X2545Y534D02*
X2573D01*
X2545Y526D02*
X2565D01*
X2545Y518D02*
X2557D01*
X2473Y654D02*
X2511D01*
X2473Y587D02*
Y693D01*
Y630D02*
X2511D01*
X2441Y587D02*
X2473D01*
X2375D02*
X2411D01*
X2375D02*
Y693D01*
X2441Y581D02*
Y587D01*
X2461Y509D02*
Y581D01*
X2441D02*
X2461D01*
X2473Y509D02*
Y581D01*
X2411D02*
Y587D01*
X2389Y581D02*
X2411D01*
X2389Y509D02*
Y581D01*
X2243Y646D02*
X2375D01*
X2243Y654D02*
X2375D01*
X2243Y630D02*
X2375D01*
X2243Y638D02*
X2375D01*
X2150Y670D02*
X2375D01*
X2150Y678D02*
X2375D01*
X2150Y662D02*
X2375D01*
X2243Y590D02*
X2375D01*
X2243Y598D02*
X2375D01*
X2115Y582D02*
X2411D01*
X2243Y614D02*
X2375D01*
X2243Y622D02*
X2375D01*
X2243Y606D02*
X2375D01*
X2461Y566D02*
X2473D01*
X2461Y558D02*
X2473D01*
X2461Y574D02*
X2473D01*
X2280Y558D02*
X2389D01*
X2461Y550D02*
X2473D01*
X2461Y542D02*
X2473D01*
X2461Y534D02*
X2473D01*
X2461Y518D02*
X2473D01*
X2461Y526D02*
X2473D01*
X2461Y510D02*
X2473D01*
X2280Y542D02*
X2389D01*
X2280Y550D02*
X2389D01*
X2280Y534D02*
X2389D01*
X2280Y574D02*
X2389D01*
X2224Y577D02*
X2280D01*
Y566D02*
X2389D01*
X2280Y518D02*
X2389D01*
X2280Y526D02*
X2389D01*
X2267Y510D02*
X2389D01*
X2280Y515D02*
Y577D01*
X2267Y515D02*
X2280D01*
X2267Y501D02*
Y515D01*
X3316Y470D02*
X3360D01*
X3316Y478D02*
X3360D01*
X3316Y454D02*
X3360D01*
X3316Y462D02*
X3360D01*
X3316Y494D02*
X3360D01*
X3316Y502D02*
X3360D01*
X3316Y486D02*
X3360D01*
X3316Y438D02*
X3360D01*
X3316Y446D02*
X3360D01*
X3316Y430D02*
X3360D01*
X3247Y422D02*
X3284D01*
X3237Y430D02*
X3284D01*
X3316Y422D02*
X3360D01*
X3087Y486D02*
X3284D01*
X3082Y478D02*
X3284D01*
X3093Y462D02*
X3284D01*
X3072Y470D02*
X3284D01*
X3092Y502D02*
X3284D01*
X3092Y510D02*
X3284D01*
X3091Y494D02*
X3284D01*
X3093Y446D02*
X3284D01*
X3093Y454D02*
X3284D01*
X3220Y438D02*
X3284D01*
X3093D02*
X3181D01*
X3093Y430D02*
X3164D01*
X3316Y406D02*
X3360D01*
X3316Y414D02*
X3360D01*
X3316Y390D02*
X3360D01*
X3316Y398D02*
X3360D01*
X3316Y374D02*
X3360D01*
X3316Y382D02*
X3360D01*
X3268Y374D02*
X3284D01*
X3316Y334D02*
X3360D01*
X3316Y342D02*
X3360D01*
X3316Y326D02*
X3360D01*
X3316Y358D02*
X3360D01*
X3316Y366D02*
X3360D01*
X3316Y350D02*
X3360D01*
X3259Y406D02*
X3284D01*
X3254Y414D02*
X3284D01*
X3266Y390D02*
X3284D01*
X3263Y398D02*
X3284D01*
X3267Y382D02*
X3284D01*
X3259Y342D02*
X3284D01*
X3254Y334D02*
X3284D01*
X3247Y326D02*
X3284D01*
X3267Y366D02*
X3284D01*
X3266Y358D02*
X3284D01*
X3263Y350D02*
X3284D01*
X2984Y478D02*
X3019D01*
X2994Y502D02*
X3009D01*
X2993Y494D02*
X3010D01*
X2989Y486D02*
X3014D01*
X3093Y422D02*
X3154D01*
X3066Y467D02*
X3093D01*
Y414D02*
X3147D01*
X3009Y467D02*
X3035D01*
X3009Y383D02*
Y467D01*
X3093Y383D02*
Y467D01*
X2974Y470D02*
X3029D01*
X2646D02*
X2931D01*
X2646Y454D02*
X3009D01*
X2646Y462D02*
X3009D01*
X2646Y486D02*
X2916D01*
X2646Y502D02*
X2911D01*
X2646Y478D02*
X2921D01*
X2646Y438D02*
X3009D01*
X2646Y446D02*
X3009D01*
X2646Y430D02*
X3009D01*
X2646Y422D02*
X3009D01*
X2646Y414D02*
Y486D01*
Y414D02*
X3009D01*
X3093Y398D02*
X3138D01*
X3093Y406D02*
X3142D01*
X3093Y390D02*
X3135D01*
X2736Y382D02*
X3134D01*
X3009Y383D02*
X3093D01*
X2736Y390D02*
X3009D01*
X2736Y374D02*
X3134D01*
X3091Y334D02*
X3147D01*
X3088Y342D02*
X3142D01*
X3092Y326D02*
X3154D01*
X3074Y358D02*
X3135D01*
X2736Y324D02*
Y396D01*
X3083Y350D02*
X3138D01*
X2736Y366D02*
X3134D01*
X2664Y396D02*
X2736D01*
Y358D02*
X3027D01*
X2664Y377D02*
Y396D01*
X2644Y382D02*
X2664D01*
X2646Y377D02*
X2664D01*
X2736Y342D02*
X3013D01*
X2736Y350D02*
X3018D01*
X2736Y334D02*
X3010D01*
X2646Y347D02*
X2664D01*
X2644Y342D02*
X2664D01*
X2736Y326D02*
X3009D01*
X3316Y310D02*
X3360D01*
X3316Y318D02*
X3360D01*
X3316Y302D02*
X3360D01*
X3315Y294D02*
X3360D01*
X3311Y289D02*
X3311Y289D01*
X3285Y262D02*
X3360D01*
X3277Y254D02*
X3360D01*
X3269Y246D02*
X3360D01*
X3309Y286D02*
X3360D01*
X3301Y278D02*
X3360D01*
X3293Y270D02*
X3360D01*
X3237Y318D02*
X3284D01*
X3220Y310D02*
X3284D01*
X3087Y302D02*
X3279D01*
X3081Y294D02*
X3271D01*
X3070Y286D02*
X3263D01*
X3072Y278D02*
X3255D01*
X3253Y231D02*
X3311Y289D01*
X3235Y258D02*
X3284Y307D01*
X3261Y238D02*
X3360D01*
X3087Y262D02*
X3239D01*
X3082Y270D02*
X3247D01*
X3253Y231D02*
X3253Y231D01*
X3253Y230D02*
X3360D01*
X3226Y142D02*
X3360D01*
X3235Y118D02*
X3360D01*
X3230Y134D02*
X3360D01*
X3233Y126D02*
X3360D01*
X3232Y86D02*
X3360D01*
X3228Y78D02*
X3360D01*
X3224Y70D02*
X3360D01*
X3236Y110D02*
X3360D01*
X3235Y102D02*
X3360D01*
X3234Y94D02*
X3360D01*
X3072Y206D02*
X3360D01*
X2645Y182D02*
X3360D01*
X3202Y166D02*
X3360D01*
X3180Y174D02*
X3360D01*
X3089Y226D02*
X3242D01*
X3087Y222D02*
X3360D01*
X3082Y214D02*
X3360D01*
X3221Y150D02*
X3360D01*
X3213Y158D02*
X3360D01*
X3217Y62D02*
X3360D01*
X3208Y54D02*
X3360D01*
X3194Y46D02*
X3360D01*
X3092Y318D02*
X3164D01*
X3090Y310D02*
X3181D01*
X2736D02*
X3011D01*
X2736Y302D02*
X3014D01*
X2974Y278D02*
X3029D01*
X2736Y240D02*
Y312D01*
X2984Y270D02*
X3019D01*
X2736Y294D02*
X3020D01*
X2664Y324D02*
X2736D01*
Y278D02*
X2931D01*
X2736Y286D02*
X3031D01*
X2664Y312D02*
X2736D01*
X2664Y324D02*
Y347D01*
X2736Y270D02*
X2921D01*
X2736Y262D02*
X2916D01*
X2664Y240D02*
Y312D01*
X3089Y258D02*
X3235D01*
X2989Y262D02*
X3014D01*
X2993Y254D02*
X3010D01*
X2989Y222D02*
X3014D01*
X2994Y238D02*
X3009D01*
X2994Y246D02*
X3009D01*
X2993Y230D02*
X3010D01*
X2984Y214D02*
X3019D01*
X2974Y206D02*
X3029D01*
X2648Y166D02*
X3135D01*
X2647Y174D02*
X3157D01*
X2647Y158D02*
X3124D01*
X2736Y246D02*
X2911D01*
X2736Y254D02*
X2912D01*
X2664Y240D02*
X2736D01*
X2648Y62D02*
X3120D01*
X2646Y150D02*
X3116D01*
X2646Y54D02*
X3129D01*
X2647Y78D02*
X3109D01*
X2644Y86D02*
X3105D01*
X2648Y70D02*
X3113D01*
X2579Y498D02*
X2646D01*
X2575Y494D02*
X2912D01*
X2574Y486D02*
X2646D01*
X2574D02*
X2646D01*
X2567D02*
X2574D01*
X2559Y478D02*
X2574D01*
X2551Y470D02*
X2574D01*
Y414D02*
Y486D01*
X2536Y454D02*
X2579Y498D01*
X2543Y462D02*
X2574D01*
X2536Y454D02*
X2536Y454D01*
X2536Y454D02*
X2536Y454D01*
X2473Y509D02*
X2545D01*
X2441Y502D02*
X2541D01*
X2507Y486D02*
X2525D01*
X2507Y494D02*
X2533D01*
X2453Y495D02*
X2507D01*
X2441Y509D02*
X2461D01*
X2507Y480D02*
Y495D01*
X2535Y454D02*
X2574D01*
X2507Y480D02*
X2519D01*
X2451Y454D02*
X2453D01*
X2507Y450D02*
X2525D01*
X2612Y414D02*
X2646D01*
X2612Y411D02*
Y414D01*
X2622Y406D02*
X3009D01*
X2612Y414D02*
X2646D01*
X2582Y411D02*
Y414D01*
X2574D02*
X2582D01*
X2574D02*
X2582D01*
X2633Y398D02*
X3009D01*
X2639Y390D02*
X2664D01*
X2545Y382D02*
X2550D01*
X2547Y377D02*
X2548D01*
X2507Y438D02*
X2574D01*
X2507Y446D02*
X2574D01*
X2371Y430D02*
X2574D01*
X2135Y414D02*
X2574D01*
X2507Y435D02*
Y450D01*
X2453Y435D02*
X2507D01*
X2133Y422D02*
X2574D01*
X2534Y398D02*
X2561D01*
X2524Y406D02*
X2571D01*
X2541Y390D02*
X2554D01*
X2436Y398D02*
X2462D01*
X2426Y406D02*
X2473D01*
X2443Y390D02*
X2456D01*
X2441Y495D02*
X2451D01*
X2441D02*
Y509D01*
X2451Y486D02*
X2453D01*
X2451Y494D02*
X2453D01*
X2411Y495D02*
Y509D01*
X2389D02*
X2411D01*
X2397Y495D02*
X2411D01*
X2453Y435D02*
Y495D01*
X2451Y478D02*
X2453D01*
X2451Y470D02*
X2453D01*
X2451Y435D02*
Y495D01*
X2397Y480D02*
Y495D01*
X2371Y486D02*
X2397D01*
X2299Y501D02*
X2371D01*
X2267Y502D02*
X2411D01*
X2371Y480D02*
X2397D01*
X2371Y494D02*
X2397D01*
X2287D02*
X2299D01*
X2267Y501D02*
X2287D01*
Y486D02*
X2299D01*
X2371Y480D02*
Y501D01*
X2287Y478D02*
X2299D01*
X2287Y470D02*
X2299D01*
Y429D02*
Y501D01*
X2287Y429D02*
Y501D01*
Y462D02*
X2299D01*
X2451Y446D02*
X2453D01*
X2451Y462D02*
X2453D01*
X2451Y438D02*
X2453D01*
X2397Y435D02*
X2451D01*
X2371Y446D02*
X2397D01*
X2371Y450D02*
X2397D01*
X2371Y438D02*
X2397D01*
Y435D02*
Y450D01*
X2371Y429D02*
Y450D01*
X2447Y382D02*
X2452D01*
X2344Y390D02*
X2357D01*
X2338Y398D02*
X2364D01*
X2348Y382D02*
X2353D01*
X2287Y446D02*
X2299D01*
X2287Y454D02*
X2299D01*
Y429D02*
X2371D01*
X2287Y430D02*
X2299D01*
X2287Y438D02*
X2299D01*
X2215Y429D02*
X2287D01*
X2327Y406D02*
X2374D01*
X2229D02*
X2276D01*
X2246Y390D02*
X2259D01*
X2239Y398D02*
X2266D01*
X2250Y382D02*
X2255D01*
X2640Y334D02*
X2664D01*
X2633Y326D02*
X2664D01*
X2623Y318D02*
X3009D01*
X2541Y334D02*
X2554D01*
X2535Y326D02*
X2561D01*
X2524Y318D02*
X2571D01*
X2627Y206D02*
X2931D01*
X2611Y214D02*
X2921D01*
X2636Y198D02*
X3360D01*
X2430Y206D02*
X2567D01*
X2439Y198D02*
X2558D01*
X2135Y278D02*
X2664D01*
X2135Y286D02*
X2664D01*
X2135Y262D02*
X2664D01*
X2135Y270D02*
X2664D01*
X2135Y302D02*
X2664D01*
X2135Y310D02*
X2664D01*
X2135Y294D02*
X2664D01*
X2135Y230D02*
X2912D01*
X2135Y238D02*
X2911D01*
X2135Y222D02*
X2916D01*
X2135Y246D02*
X2664D01*
X2135Y254D02*
X2664D01*
X2414Y214D02*
X2583D01*
X2642Y142D02*
X3111D01*
X2641Y190D02*
X3360D01*
X2637Y134D02*
X3107D01*
X2630Y126D02*
X3104D01*
X2624Y110D02*
X3102D01*
X2617Y118D02*
X3102D01*
X2634Y102D02*
X3102D01*
X2639Y38D02*
X3360D01*
X2632Y30D02*
X3360D01*
X2629Y27D02*
X3360D01*
X2640Y94D02*
X3103D01*
X2644Y46D02*
X3143D01*
X2433Y126D02*
X2564D01*
X2420Y118D02*
X2577D01*
X2230Y110D02*
X2570D01*
X2444Y190D02*
X2552D01*
X2440Y134D02*
X2556D01*
X2240Y102D02*
X2560D01*
X2235Y27D02*
X2565D01*
X2246Y94D02*
X2554D01*
X2245Y38D02*
X2555D01*
X2239Y30D02*
X2561D01*
X2547Y347D02*
X2548D01*
X2545Y342D02*
X2550D01*
X2443Y334D02*
X2456D01*
X2447Y342D02*
X2451D01*
X2349D02*
X2353D01*
X2436Y326D02*
X2462D01*
X2426Y318D02*
X2472D01*
X2344Y334D02*
X2357D01*
X2338Y326D02*
X2364D01*
X2328Y318D02*
X2374D01*
X2229D02*
X2276D01*
X2250Y342D02*
X2255D01*
X2246Y334D02*
X2259D01*
X2239Y326D02*
X2265D01*
X2233Y206D02*
X2370D01*
X2217Y214D02*
X2386D01*
X2242Y198D02*
X2361D01*
X2248Y190D02*
X2356D01*
X2450Y174D02*
X2547D01*
X2448Y182D02*
X2549D01*
X2451Y166D02*
X2546D01*
X2451Y158D02*
X2546D01*
X2254Y166D02*
X2349D01*
X2449Y150D02*
X2548D01*
X2446Y142D02*
X2551D01*
X2254Y62D02*
X2546D01*
X2254Y158D02*
X2349D01*
X2254Y70D02*
X2546D01*
X2249Y142D02*
X2354D01*
X2244Y134D02*
X2360D01*
X2236Y126D02*
X2367D01*
X2253Y174D02*
X2350D01*
X2251Y182D02*
X2352D01*
X2252Y150D02*
X2351D01*
X2253Y54D02*
X2547D01*
X2250Y86D02*
X2550D01*
X2250Y46D02*
X2550D01*
X2223Y118D02*
X2380D01*
X2253Y78D02*
X2547D01*
X1995Y1054D02*
X2177D01*
X1995Y1022D02*
X2177D01*
X1995Y1030D02*
X2178D01*
X1995Y1038D02*
X2175D01*
X1995Y1046D02*
X2174D01*
X1995Y1014D02*
X2174D01*
X1917Y958D02*
X2176D01*
X1917Y966D02*
X2179D01*
X1975Y910D02*
X2175D01*
X1917Y934D02*
X2179D01*
X1917Y942D02*
X2175D01*
X1917Y950D02*
X2174D01*
X1917Y918D02*
X2174D01*
X1990Y894D02*
X2176D01*
X1986Y902D02*
X2180D01*
X1987Y870D02*
X2180D01*
X1992Y886D02*
X2174D01*
X1991Y878D02*
X2175D01*
X1979Y862D02*
X2176D01*
X2158Y814D02*
X2176D01*
X2159Y806D02*
X2180D01*
X2159Y798D02*
X2175D01*
X2154Y822D02*
X2174D01*
X2155Y790D02*
X2174D01*
X2164Y742D02*
X2183D01*
X2196Y737D02*
X2245D01*
X2163Y750D02*
X2176D01*
X2158Y758D02*
X2174D01*
X2148Y782D02*
X2176D01*
X2146Y830D02*
X2176D01*
X2149Y766D02*
X2175D01*
X2120Y774D02*
X2180D01*
X2112Y766D02*
X2121D01*
X2065Y719D02*
X2123Y776D01*
X2111Y710D02*
X2120D01*
X2104Y758D02*
X2112D01*
X2072Y726D02*
X2109D01*
X2065Y718D02*
X2115D01*
X1995Y1007D02*
Y1061D01*
X1975Y814D02*
X2102D01*
X1981Y811D02*
X1981Y811D01*
X2041Y751D01*
X1981Y811D02*
X1981Y811D01*
X1935Y1007D02*
X1995D01*
X1917Y910D02*
X1955D01*
X1935Y1007D02*
Y1061D01*
X1917Y1046D02*
X1935D01*
X1917Y894D02*
X1940D01*
X1935Y822D02*
X2106D01*
X1917Y870D02*
X1943D01*
X1917Y878D02*
X1939D01*
X1940Y815D02*
X1970D01*
X2096Y750D02*
X2107D01*
X2033Y758D02*
X2062D01*
X2045Y742D02*
X2046D01*
X2041Y750D02*
X2054D01*
X2041Y751D02*
X2041Y751D01*
X2041Y751D01*
X2088Y742D02*
X2106D01*
X2045Y741D02*
X2101Y798D01*
X2080Y734D02*
X2106D01*
X2065Y710D02*
X2079D01*
X1993Y798D02*
X2101D01*
X1985Y806D02*
X2101D01*
X2001Y790D02*
X2094D01*
X1940Y785D02*
X1964D01*
X1938Y782D02*
X1967D01*
X2009D02*
X2086D01*
X2025Y766D02*
X2070D01*
X2017Y774D02*
X2078D01*
X2008Y718D02*
X2015D01*
X1964Y785D02*
X2015Y734D01*
X1929Y774D02*
X1975D01*
X1999Y726D02*
X2015D01*
X2187Y661D02*
X2243D01*
X2187Y652D02*
Y661D01*
X2180Y654D02*
X2187D01*
X2150D02*
X2170D01*
X2150Y655D02*
Y715D01*
X2147Y646D02*
X2154D01*
X2243Y589D02*
Y661D01*
X2187Y589D02*
X2243D01*
X2150Y577D02*
X2206D01*
X2187Y589D02*
Y598D01*
X2187Y598D02*
X2187D01*
X2150Y515D02*
Y577D01*
X2139Y638D02*
X2149D01*
X2131Y630D02*
X2146D01*
X2123Y622D02*
X2146D01*
X2146Y644D02*
X2146Y644D01*
X2146Y644D02*
X2146Y644D01*
X2115Y598D02*
X2163D01*
X2115Y590D02*
X2187D01*
X2115Y614D02*
X2148D01*
X2115Y614D02*
X2146Y644D01*
X2115Y606D02*
X2152D01*
X2206Y566D02*
X2224D01*
X2206Y574D02*
X2224D01*
X2206Y550D02*
X2224D01*
X2206Y558D02*
X2224D01*
X2206Y542D02*
X2224D01*
X2206Y534D02*
X2224D01*
X2237Y501D02*
Y515D01*
X2206Y518D02*
X2224D01*
Y515D02*
X2237D01*
X2224D02*
Y577D01*
X2206Y515D02*
Y577D01*
Y526D02*
X2224D01*
X2115Y566D02*
X2150D01*
X2115Y574D02*
X2150D01*
X2115Y550D02*
X2150D01*
X2115Y558D02*
X2150D01*
X2115Y542D02*
X2150D01*
Y515D02*
X2206D01*
X2115Y510D02*
X2237D01*
X2115Y526D02*
X2150D01*
X2115Y534D02*
X2150D01*
X2115Y518D02*
X2150D01*
X2120Y701D02*
Y715D01*
X2119Y702D02*
X2120D01*
X2065D02*
X2071D01*
X2065Y686D02*
X2066D01*
X2065Y694D02*
X2067D01*
X2065Y678D02*
X2066D01*
X2120Y661D02*
Y669D01*
X2090Y631D02*
X2120Y661D01*
X2065Y676D02*
X2066Y678D01*
X2065Y676D02*
Y719D01*
X2113Y662D02*
X2120D01*
X2014Y702D02*
X2015D01*
X2013Y710D02*
X2015D01*
X2014Y694D02*
X2015D01*
X2011Y686D02*
X2015D01*
Y661D02*
Y734D01*
X2005Y678D02*
X2015D01*
X1948Y661D02*
X2015D01*
X1948Y589D02*
Y661D01*
X2090Y654D02*
X2113D01*
X2090Y631D02*
Y656D01*
Y638D02*
X2097D01*
X2090Y646D02*
X2105D01*
X1996Y534D02*
X2015D01*
X1948Y589D02*
X2015D01*
X1996Y526D02*
X2015D01*
X2115Y441D02*
Y614D01*
X1996Y518D02*
X2015D01*
X1996Y510D02*
X2015D01*
Y406D02*
Y589D01*
X1996Y468D02*
Y540D01*
X1936Y622D02*
X1948D01*
X1936Y630D02*
X1948D01*
X1936Y614D02*
X1948D01*
X1936Y646D02*
X1948D01*
X1936Y654D02*
X1948D01*
X1936Y638D02*
X1948D01*
X1936Y598D02*
X1948D01*
X1936Y606D02*
X1948D01*
X1924Y540D02*
X1996D01*
X1936Y590D02*
X1948D01*
X1936Y589D02*
Y661D01*
X1924Y468D02*
Y540D01*
X1917Y1030D02*
X1935D01*
X1917Y1038D02*
X1935D01*
X1917Y1006D02*
X2175D01*
X1917Y1022D02*
X1935D01*
X1867D02*
X1883D01*
X1867Y1046D02*
X1883D01*
X1917Y1014D02*
X1935D01*
X1917Y990D02*
X2177D01*
X1917Y998D02*
X2179D01*
X1917Y974D02*
X2175D01*
X1917Y850D02*
Y1073D01*
X1883Y867D02*
Y1090D01*
X1917Y982D02*
X2174D01*
X1867Y1006D02*
X1883D01*
X1867Y1014D02*
X1883D01*
X1867Y990D02*
X1883D01*
X1867Y998D02*
X1883D01*
X1867Y1038D02*
X1883D01*
X1867Y1054D02*
X1883D01*
X1867Y1030D02*
X1883D01*
X1867Y950D02*
X1883D01*
X1867Y958D02*
X1883D01*
X1867Y942D02*
X1883D01*
X1867Y974D02*
X1883D01*
X1867Y982D02*
X1883D01*
X1867Y966D02*
X1883D01*
X1917Y854D02*
X2174D01*
X1917Y926D02*
X2176D01*
X1917Y846D02*
X2176D01*
X1912Y838D02*
X2181D01*
X1917Y886D02*
X1938D01*
X1917Y902D02*
X1944D01*
X1917Y862D02*
X1951D01*
X1872Y833D02*
X1900D01*
X1882Y822D02*
X1895D01*
X1872Y825D02*
X1882D01*
Y814D02*
X1889D01*
X1867Y902D02*
X1883D01*
X1867Y910D02*
X1883D01*
X1866Y894D02*
X1883D01*
X1860Y886D02*
X1883D01*
X1867Y926D02*
X1883D01*
X1867Y934D02*
X1883D01*
X1867Y918D02*
X1883D01*
X1647Y870D02*
X1883D01*
X1634Y878D02*
X1883D01*
X1872Y830D02*
X2114D01*
X1855Y867D02*
X1883D01*
X1872Y825D02*
Y833D01*
X1746Y1038D02*
X1833D01*
X1746Y1046D02*
X1833D01*
X1746Y1022D02*
X1833D01*
X1746Y1030D02*
X1833D01*
X1746Y1014D02*
X1833D01*
X1746Y1005D02*
Y1105D01*
Y1006D02*
X1833D01*
X1867Y900D02*
Y1141D01*
X1594Y883D02*
X1850D01*
X1833Y917D02*
Y1141D01*
X1654Y1005D02*
Y1105D01*
Y1005D02*
X1746D01*
X1546Y1022D02*
X1654D01*
X1546Y1030D02*
X1654D01*
X1546Y1006D02*
X1654D01*
X1546Y1014D02*
X1654D01*
X1546Y1046D02*
X1654D01*
X1546Y1054D02*
X1654D01*
X1546Y1038D02*
X1654D01*
X1593Y918D02*
X1833D01*
X1584Y926D02*
X1833D01*
X1594Y917D02*
X1833D01*
X1546Y1005D02*
Y1105D01*
X1649Y833D02*
X1838D01*
X1649Y867D02*
X1855D01*
X1828Y825D02*
X1838D01*
X1647Y830D02*
X1838D01*
Y825D02*
Y833D01*
X1772Y825D02*
X1826D01*
Y822D02*
X1828D01*
X1670D02*
X1772D01*
X1826Y814D02*
X1828D01*
X1653Y822D02*
X1670D01*
X1653Y816D02*
Y825D01*
X1689Y814D02*
X1772D01*
X1590Y878D02*
X1616D01*
X1641Y825D02*
X1653D01*
X1517Y830D02*
X1603D01*
X1599Y825D02*
X1609D01*
X1597Y814D02*
X1599D01*
X1597Y822D02*
X1599D01*
X1597Y806D02*
X1599D01*
X1543Y825D02*
X1597D01*
X1527Y822D02*
X1543D01*
X1527Y814D02*
X1543D01*
X1882Y790D02*
X1887D01*
X1882Y774D02*
X1901D01*
X1882Y782D02*
X1892D01*
X1882Y806D02*
X1886D01*
X1882Y795D02*
Y825D01*
Y798D02*
X1886D01*
X1882Y766D02*
X1983D01*
X1870Y758D02*
X1991D01*
X1870Y750D02*
X1999D01*
X1882Y765D02*
Y795D01*
X1870Y676D02*
Y765D01*
Y726D02*
X1971D01*
X1826Y782D02*
X1828D01*
X1826Y790D02*
X1828D01*
X1826Y766D02*
X1828D01*
X1826Y774D02*
X1828D01*
Y795D02*
Y825D01*
X1826Y806D02*
X1828D01*
X1826Y798D02*
X1828D01*
X1870Y742D02*
X2007D01*
X1870Y765D02*
X1882D01*
X1870Y734D02*
X2015D01*
X1840Y670D02*
Y765D01*
X1828D02*
Y795D01*
Y765D02*
X1840D01*
X1870Y686D02*
X1959D01*
X1870Y718D02*
X1962D01*
X1884Y662D02*
X2015D01*
X1876Y670D02*
X2015D01*
X1870Y702D02*
X1956D01*
X1870Y710D02*
X1957D01*
X1885Y661D02*
X1936D01*
X1896Y526D02*
X1924D01*
X1896Y534D02*
X1924D01*
X1896Y518D02*
X1924D01*
X1896Y468D02*
Y540D01*
X1870Y676D02*
X1885Y661D01*
X1896Y510D02*
X1924D01*
X1870Y678D02*
X1965D01*
X1870Y694D02*
X1956D01*
X1844Y659D02*
X1844Y659D01*
X1844Y659D02*
X1844Y659D01*
X1864Y589D02*
X1936D01*
X1844Y659D02*
X1864Y640D01*
X1824Y540D02*
X1896D01*
X1864Y589D02*
Y640D01*
X1697Y798D02*
X1772D01*
X1695Y806D02*
X1772D01*
X1826Y765D02*
Y825D01*
X1697Y790D02*
X1772D01*
Y765D02*
Y825D01*
X1597Y795D02*
Y825D01*
X1527Y806D02*
X1543D01*
X1597Y798D02*
X1599D01*
X1543Y795D02*
Y825D01*
X1527Y795D02*
Y825D01*
Y798D02*
X1543D01*
X1599Y765D02*
Y825D01*
X1543Y765D02*
Y795D01*
X1527Y765D02*
Y795D01*
X1597Y765D02*
Y795D01*
X1772Y765D02*
X1826D01*
X1724Y540D02*
X1796D01*
Y526D02*
X1824D01*
X1796Y534D02*
X1824D01*
X1694Y782D02*
X1772D01*
X1653Y765D02*
Y774D01*
X1687Y774D02*
X1772D01*
X1824Y468D02*
Y540D01*
X1796Y518D02*
X1824D01*
X1796Y510D02*
X1824D01*
X1796Y468D02*
Y540D01*
X1724Y468D02*
Y540D01*
X1597Y782D02*
X1599D01*
X1597Y790D02*
X1599D01*
X1653Y774D02*
X1653D01*
X1527Y782D02*
X1543D01*
X1527Y790D02*
X1543D01*
X1597Y774D02*
X1599D01*
X1653Y766D02*
X1772D01*
X1597D02*
X1599D01*
Y765D02*
X1653D01*
X1527Y766D02*
X1543D01*
X1527Y774D02*
X1543D01*
Y765D02*
X1597D01*
X2215Y501D02*
X2237D01*
X2115Y470D02*
X2215D01*
X2115Y454D02*
X2215D01*
X2115Y462D02*
X2215D01*
Y429D02*
Y501D01*
X2118Y438D02*
X2215D01*
X2126Y430D02*
X2215D01*
X2135Y406D02*
X2178D01*
X2131Y426D02*
X2131Y426D01*
X2131Y426D01*
X2115Y494D02*
X2215D01*
X2115Y502D02*
X2237D01*
X2115Y478D02*
X2215D01*
X2115Y486D02*
X2215D01*
X2115Y441D02*
X2131Y426D01*
X2115Y446D02*
X2215D01*
X2090Y422D02*
X2092D01*
X2090Y406D02*
X2105D01*
X2090Y424D02*
X2105Y409D01*
X2090Y398D02*
X2105D01*
X2090Y414D02*
X2100D01*
X2090Y397D02*
Y424D01*
X2105Y382D02*
Y409D01*
X2135Y390D02*
X2161D01*
X2135Y398D02*
X2167D01*
X2135Y374D02*
X2154D01*
X2135Y382D02*
X2156D01*
X2097Y390D02*
X2105D01*
X2090Y397D02*
X2105Y382D01*
X2064Y380D02*
X2064Y380D01*
X2135Y350D02*
X2154D01*
X2135Y366D02*
X2152D01*
X2135Y342D02*
X2156D01*
X2135Y358D02*
X2152D01*
X2064Y380D02*
X2085Y360D01*
X2080Y342D02*
X2085D01*
X2064Y380D02*
X2064Y380D01*
X2063Y382D02*
X2063D01*
X2061Y379D02*
X2061Y379D01*
X2047Y366D02*
X2079D01*
X2039Y358D02*
X2085D01*
X2062Y350D02*
X2085D01*
X2055Y374D02*
X2071D01*
X1996Y494D02*
X2015D01*
X1996Y502D02*
X2015D01*
X1996Y478D02*
X2015D01*
X1996Y486D02*
X2015D01*
X1996Y454D02*
X2015D01*
X1996Y470D02*
X2015D01*
X1996Y446D02*
X2015D01*
X1996Y438D02*
X2015D01*
X1996Y387D02*
Y456D01*
Y430D02*
X2015D01*
X1896Y470D02*
X1924D01*
X1896Y478D02*
X1924D01*
Y456D02*
X1996D01*
X1924Y468D02*
X1996D01*
X1896Y494D02*
X1924D01*
X1896Y502D02*
X1924D01*
X1896Y486D02*
X1924D01*
X1896Y446D02*
X1924D01*
X1896Y454D02*
X1924D01*
X1896Y438D02*
X1924D01*
Y405D02*
Y456D01*
X1896Y384D02*
Y456D01*
Y430D02*
X1924D01*
X1996Y414D02*
X2015D01*
X1996Y422D02*
X2015D01*
X1996Y406D02*
X2015D01*
X1996Y387D02*
X2015Y406D01*
X1996Y390D02*
X1999D01*
X1996Y398D02*
X2007D01*
X1993Y384D02*
X1996Y387D01*
X2061Y379D02*
X2061Y379D01*
X2020Y339D02*
X2061Y379D01*
X2031Y350D02*
X2048D01*
X2023Y342D02*
X2030D01*
X1984Y375D02*
X1993Y384D01*
X1980Y342D02*
X1990D01*
X1896Y414D02*
X1924D01*
X1896Y422D02*
X1924D01*
X1945Y384D02*
X1993D01*
X1896Y398D02*
X1917D01*
X1896Y406D02*
X1924D01*
X1896Y390D02*
X1909D01*
X1943Y382D02*
X1991D01*
X1940Y375D02*
X1984D01*
X1975Y345D02*
X1990D01*
X1936Y374D02*
X1945Y384D01*
X2135Y334D02*
X2160D01*
X2135Y318D02*
X2177D01*
X2135Y326D02*
X2167D01*
X2104Y238D02*
X2105D01*
X2096Y230D02*
X2105D01*
X2094Y222D02*
X2105D01*
X2135Y214D02*
X2189D01*
X2135Y193D02*
Y415D01*
Y206D02*
X2173D01*
X2105Y199D02*
Y239D01*
X2095Y214D02*
X2105D01*
X2095Y206D02*
X2105D01*
X2085Y261D02*
Y283D01*
X2062Y270D02*
X2085D01*
X2020Y262D02*
X2085D01*
Y337D02*
Y360D01*
X2080Y278D02*
X2085D01*
X2092Y226D02*
X2105Y239D01*
X2079Y173D02*
X2105Y199D01*
X2071Y247D02*
X2085Y261D01*
X2019Y254D02*
X2078D01*
X2135Y198D02*
X2164D01*
X2135Y190D02*
X2159D01*
X2131Y182D02*
X2131Y182D01*
X2131Y182D02*
X2131Y182D01*
X2130Y182D02*
X2155D01*
X2122Y174D02*
X2153D01*
X2114Y166D02*
X2152D01*
X2094Y198D02*
X2104D01*
X2090Y190D02*
X2096D01*
X2106Y158D02*
X2153D01*
X2098Y150D02*
X2154D01*
X2084Y182D02*
X2088D01*
X2074Y174D02*
X2080D01*
X2072Y173D02*
X2079D01*
X2096Y147D02*
X2131Y182D01*
X2096Y147D02*
X2096Y147D01*
X2096Y147D02*
X2096Y147D01*
X2020Y334D02*
X2022D01*
X2020Y330D02*
Y339D01*
Y278D02*
X2030D01*
X2020Y286D02*
X2022D01*
X1990Y330D02*
Y345D01*
X1988Y334D02*
X1990D01*
X1988Y286D02*
X1990D01*
X2020Y270D02*
X2048D01*
X2020Y260D02*
Y290D01*
X1990Y266D02*
Y290D01*
X1980Y278D02*
X1990D01*
X1962Y270D02*
X1990D01*
X1920Y278D02*
X1930D01*
X1920Y286D02*
X1922D01*
X1920Y270D02*
X1948D01*
X1971Y247D02*
X1990Y266D01*
X1920Y262D02*
X1986D01*
X1919Y254D02*
X1978D01*
X1920Y260D02*
Y290D01*
X2012Y246D02*
X2036D01*
X2004Y238D02*
X2026D01*
X1996Y230D02*
X2020D01*
X2016Y249D02*
X2016Y249D01*
X2016Y249D02*
X2016Y249D01*
X1992Y226D02*
X2016Y249D01*
X1994Y198D02*
X2016D01*
X1994Y222D02*
X2016D01*
X1990Y190D02*
X2020D01*
X1995Y214D02*
X2015D01*
X1995Y206D02*
X2015D01*
X1912Y246D02*
X1936D01*
X1904Y238D02*
X1926D01*
X1896Y230D02*
X1920D01*
X1916Y249D02*
X1916Y249D01*
X1916Y249D02*
X1916Y249D01*
X1984Y182D02*
X2026D01*
X1974Y174D02*
X2036D01*
X1972Y173D02*
X2038D01*
X1895Y214D02*
X1915D01*
X1796Y494D02*
X1824D01*
X1796Y502D02*
X1824D01*
X1796Y478D02*
X1824D01*
X1796Y486D02*
X1824D01*
X1796Y470D02*
X1824D01*
Y456D02*
X1896D01*
X1824Y468D02*
X1896D01*
X1867Y349D02*
X1924Y405D01*
X1824D02*
Y456D01*
X1796Y384D02*
Y456D01*
Y414D02*
X1824D01*
X1796Y454D02*
X1824D01*
X1724Y456D02*
X1796D01*
Y438D02*
X1824D01*
X1796Y446D02*
X1824D01*
X1724Y468D02*
X1796D01*
Y422D02*
X1824D01*
X1796Y430D02*
X1824D01*
X1796Y406D02*
X1824D01*
X1796Y398D02*
X1817D01*
X1767Y349D02*
X1824Y405D01*
X1796Y390D02*
X1809D01*
X1845Y384D02*
X1896D01*
X1843Y382D02*
X1901D01*
X1835Y374D02*
X1893D01*
X1827Y366D02*
X1885D01*
X1862Y350D02*
X1869D01*
X1819Y358D02*
X1877D01*
X1811Y350D02*
X1848D01*
X1891Y329D02*
X1891Y329D01*
X1803Y342D02*
X1830D01*
X1796Y310D02*
X1814D01*
X1745Y384D02*
X1796D01*
X1743Y382D02*
X1801D01*
X1795Y334D02*
X1822D01*
X1735Y374D02*
X1793D01*
X1727Y366D02*
X1785D01*
X1719Y358D02*
X1777D01*
X1762Y350D02*
X1769D01*
X1792Y326D02*
X1818D01*
X1791Y329D02*
X1845Y384D01*
X1792Y294D02*
X1818D01*
X1795Y318D02*
X1815D01*
X1795Y302D02*
X1815D01*
X1676Y438D02*
X1724D01*
X1686Y422D02*
X1724D01*
X1683Y430D02*
X1724D01*
X1687Y414D02*
X1724D01*
X1685Y406D02*
X1724D01*
Y405D02*
Y456D01*
X1667Y349D02*
X1724Y405D01*
X1691Y329D02*
X1745Y384D01*
X1680Y398D02*
X1717D01*
X1667Y390D02*
X1709D01*
X1587Y431D02*
X1638D01*
X1579Y438D02*
X1644D01*
X1588Y401D02*
X1638D01*
X1588Y399D02*
X1588Y399D01*
X1588Y398D02*
X1640D01*
X1588Y399D02*
X1639Y347D01*
X1596Y390D02*
X1653D01*
X1588Y399D02*
X1588Y399D01*
X1711Y350D02*
X1748D01*
X1628Y358D02*
X1677D01*
X1703Y342D02*
X1730D01*
X1695Y334D02*
X1722D01*
X1662Y350D02*
X1669D01*
X1636D02*
X1648D01*
X1695Y318D02*
X1715D01*
X1692Y326D02*
X1718D01*
X1692Y294D02*
X1718D01*
X1696Y310D02*
X1714D01*
X1695Y302D02*
X1715D01*
X1612Y374D02*
X1693D01*
X1604Y382D02*
X1701D01*
X1620Y366D02*
X1685D01*
X1580Y342D02*
X1602D01*
X1562Y350D02*
X1594D01*
X1588Y334D02*
X1610D01*
X1592Y326D02*
X1618D01*
X1571Y373D02*
X1618Y326D01*
X1592Y294D02*
X1618D01*
X1596Y310D02*
X1614D01*
X1595Y318D02*
X1615D01*
X1595Y302D02*
X1615D01*
X1890Y266D02*
Y290D01*
X1892Y226D02*
X1916Y249D01*
X1871Y247D02*
X1890Y266D01*
X1888Y286D02*
X1890D01*
X1880Y278D02*
X1890D01*
X1862Y270D02*
X1890D01*
X1894Y222D02*
X1916D01*
X1794D02*
X1816D01*
X1795Y214D02*
X1815D01*
X1788Y286D02*
X1822D01*
X1780Y278D02*
X1830D01*
X1762Y270D02*
X1848D01*
X1728Y262D02*
X1886D01*
X1736Y270D02*
X1748D01*
X1774Y246D02*
X1836D01*
X1720Y254D02*
X1878D01*
X1784Y238D02*
X1826D01*
X1720Y254D02*
X1739Y273D01*
X1790Y230D02*
X1820D01*
X1894Y198D02*
X1916D01*
X1890Y190D02*
X1920D01*
X1884Y182D02*
X1926D01*
X1874Y174D02*
X1936D01*
X1895Y206D02*
X1915D01*
X1804Y182D02*
X1826D01*
X1812Y174D02*
X1836D01*
X1872Y173D02*
X1938D01*
X1813D02*
X1838D01*
X1807Y143D02*
X2085D01*
X1796Y147D02*
X1796Y147D01*
X1795Y206D02*
X1815D01*
X1794Y198D02*
X1816D01*
X1796Y190D02*
X1820D01*
X1792Y194D02*
X1813Y173D01*
X1717Y166D02*
X1778D01*
X1796Y147D02*
X1796Y147D01*
X1693Y142D02*
X2158D01*
X1771Y173D02*
X1796Y147D01*
X1709Y158D02*
X1786D01*
X1701Y150D02*
X1794D01*
X1694Y271D02*
X1718Y294D01*
X1688Y286D02*
X1710D01*
X1694Y271D02*
X1694Y271D01*
X1680Y278D02*
X1702D01*
X1694Y271D02*
X1694Y271D01*
X1720Y246D02*
X1736D01*
X1720Y230D02*
Y254D01*
Y238D02*
X1726D01*
X1690Y230D02*
Y260D01*
X1684Y238D02*
X1690D01*
X1662Y270D02*
X1694D01*
X1674Y246D02*
X1690D01*
X1562Y270D02*
X1648D01*
X1588Y286D02*
X1622D01*
X1580Y278D02*
X1630D01*
X1574Y246D02*
X1636D01*
X1584Y238D02*
X1626D01*
X1594Y222D02*
X1616D01*
X1590Y230D02*
X1620D01*
X1595Y214D02*
X1615D01*
X1720Y182D02*
X1726D01*
X1720Y175D02*
Y190D01*
X1720Y174D02*
X1736D01*
X1690Y181D02*
Y190D01*
X1716Y164D02*
X1716Y164D01*
X1716Y164D02*
X1716Y164D01*
X1691Y139D02*
X1716Y164D01*
X1691Y139D02*
X1691Y139D01*
X1691Y139D02*
X1691Y139D01*
X1684Y182D02*
X1690D01*
X1584D02*
X1626D01*
X1595Y206D02*
X1615D01*
X1594Y198D02*
X1616D01*
X1590Y190D02*
X1620D01*
X1674Y165D02*
X1690Y181D01*
X1674Y174D02*
X1683D01*
X1574D02*
X1636D01*
X1516Y2150D02*
X1625D01*
X1490Y2094D02*
X1627D01*
X1417Y2126D02*
X1471D01*
X1416Y2134D02*
X1472D01*
X1416Y2118D02*
X1471D01*
X1465Y2069D02*
X1493Y2096D01*
X1439Y2086D02*
X1471Y2118D01*
X1482Y2086D02*
X1632D01*
X1439Y2086D02*
X1439Y2086D01*
X1401Y2158D02*
X1629D01*
X1384Y2166D02*
X1635D01*
X1413Y2142D02*
X1476D01*
X1409Y2150D02*
X1484D01*
X1414Y2110D02*
X1464D01*
X1410Y2102D02*
X1456D01*
X1403Y2094D02*
X1448D01*
X1391Y2086D02*
X1440D01*
X1466Y2070D02*
X1650D01*
X1465Y2062D02*
X1677D01*
X1493Y2049D02*
X1657D01*
X1465Y2054D02*
X1719D01*
X1439Y2086D02*
X1439Y2086D01*
X1474Y2078D02*
X1639D01*
X1465Y2014D02*
X1493D01*
X1465Y2022D02*
X1493D01*
X1465Y2006D02*
X1493D01*
X1465Y2038D02*
X1493D01*
X1465Y2046D02*
X1493D01*
X1465Y2030D02*
X1493D01*
X1240Y2070D02*
X1435D01*
X1240Y2078D02*
X1435D01*
X1405Y2054D02*
X1435D01*
X1395Y2062D02*
X1435D01*
X1415Y2038D02*
X1435D01*
X1411Y2046D02*
X1435D01*
X1417Y2030D02*
X1435D01*
X1417Y2022D02*
X1435D01*
X1416Y2014D02*
X1435D01*
X1407Y1998D02*
X1435D01*
X1412Y2006D02*
X1435D01*
X1301Y2158D02*
X1349D01*
X1284Y2166D02*
X1366D01*
X1313Y2142D02*
X1337D01*
X1309Y2150D02*
X1341D01*
X1317Y2126D02*
X1333D01*
X1316Y2134D02*
X1334D01*
X1316Y2118D02*
X1334D01*
X1314Y2110D02*
X1336D01*
X1310Y2102D02*
X1340D01*
X1303Y2094D02*
X1347D01*
X1227D02*
X1247D01*
X1235Y2086D02*
X1259D01*
X1201Y2158D02*
X1249D01*
X1184Y2166D02*
X1266D01*
X1213Y2142D02*
X1237D01*
X1209Y2150D02*
X1241D01*
X1217Y2126D02*
X1233D01*
X1216Y2134D02*
X1234D01*
X1216Y2118D02*
X1234D01*
X1214Y2110D02*
X1236D01*
X1213Y2108D02*
X1236Y2086D01*
X1219Y2102D02*
X1240D01*
X1192Y2087D02*
X1210Y2069D01*
X1191Y2086D02*
X1193D01*
X1295Y2062D02*
X1355D01*
X1291Y2086D02*
X1359D01*
X1311Y2046D02*
X1339D01*
X1305Y2054D02*
X1345D01*
X1240D02*
X1245D01*
X1240Y2062D02*
X1255D01*
X1315Y2038D02*
X1335D01*
X1316Y2014D02*
X1334D01*
X1312Y2006D02*
X1338D01*
X1317Y2030D02*
X1333D01*
X1317Y2022D02*
X1333D01*
X1236Y2086D02*
X1236Y2086D01*
X1236Y2086D02*
X1236Y2086D01*
X1195Y2062D02*
X1210D01*
X1140D02*
X1155D01*
X1240Y2048D02*
Y2075D01*
X1210Y2048D02*
Y2069D01*
X1205Y2054D02*
X1210D01*
X1140Y2048D02*
Y2075D01*
Y2054D02*
X1145D01*
X1465Y1966D02*
X1493D01*
X1465Y1974D02*
X1493D01*
X1465Y1950D02*
X1493D01*
X1465Y1958D02*
X1493D01*
X1465Y1990D02*
X1493D01*
X1465Y1998D02*
X1493D01*
X1465Y1982D02*
X1493D01*
Y1939D02*
X1657D01*
X1465Y1934D02*
X1684D01*
X1465Y1926D02*
X1678D01*
X1493Y1939D02*
Y2049D01*
X1465Y1880D02*
Y2069D01*
Y1942D02*
X1493D01*
X1398Y1990D02*
X1435D01*
X1240Y1982D02*
X1435D01*
X1409Y1950D02*
X1435D01*
X1240Y1974D02*
X1435D01*
X1384Y1966D02*
X1435D01*
X1401Y1958D02*
X1435D01*
X1416Y1934D02*
X1435D01*
X1413Y1942D02*
X1435D01*
X1417Y1926D02*
X1435D01*
Y1886D02*
Y2075D01*
X1465Y1910D02*
X1662D01*
X1465Y1918D02*
X1670D01*
X1465Y1894D02*
X1646D01*
X1465Y1902D02*
X1654D01*
X1465Y1886D02*
X1518D01*
X1465Y1878D02*
X1510D01*
X1461Y1870D02*
X1502D01*
X1474Y1841D02*
X1519Y1886D01*
X1501Y1823D02*
X1537Y1859D01*
X1461Y1869D02*
X1461Y1869D01*
X1416Y1918D02*
X1435D01*
X1414Y1910D02*
X1435D01*
X1410Y1902D02*
X1435D01*
X1403Y1894D02*
X1435D01*
X1391Y1886D02*
X1435D01*
X1240Y1878D02*
X1427D01*
X1240Y1870D02*
X1419D01*
X1461Y1869D02*
X1461Y1869D01*
X1453Y1862D02*
X1494D01*
X1445Y1854D02*
X1486D01*
X1381Y1789D02*
X1461Y1869D01*
X1364Y1815D02*
X1435Y1886D01*
X1244Y1862D02*
X1411D01*
X1307Y1998D02*
X1343D01*
X1298Y1990D02*
X1352D01*
X1284Y1966D02*
X1366D01*
X1240Y1990D02*
X1252D01*
X1240Y1998D02*
X1243D01*
X1240Y1966D02*
X1266D01*
X1301Y1958D02*
X1349D01*
X1309Y1950D02*
X1341D01*
X1240Y1948D02*
Y2002D01*
Y1958D02*
X1249D01*
X1207Y1998D02*
X1210D01*
X1198Y1990D02*
X1210D01*
X1184Y1966D02*
X1210D01*
X1140Y1974D02*
X1210D01*
X1140Y1990D02*
X1152D01*
X1140Y1966D02*
X1166D01*
X1209Y1950D02*
X1210D01*
X1201Y1958D02*
X1210D01*
X1240Y1950D02*
X1241D01*
X1210Y1948D02*
Y2002D01*
X1140Y1948D02*
Y2002D01*
Y1958D02*
X1149D01*
X1313Y1942D02*
X1337D01*
X1314Y1910D02*
X1336D01*
X1310Y1902D02*
X1340D01*
X1317Y1926D02*
X1333D01*
X1316Y1934D02*
X1334D01*
X1316Y1918D02*
X1334D01*
X1291Y1886D02*
X1359D01*
X1244Y1854D02*
X1403D01*
X1303Y1894D02*
X1347D01*
X1240Y1871D02*
Y1902D01*
Y1886D02*
X1259D01*
X1240Y1894D02*
X1247D01*
X1203D02*
X1210D01*
X1191Y1886D02*
X1210D01*
Y1884D02*
Y1902D01*
X1140Y1894D02*
X1147D01*
X1140Y1886D02*
X1159D01*
X1157Y1870D02*
X1190D01*
X1144Y1878D02*
X1197D01*
X1162Y1862D02*
X1186D01*
X1101Y2158D02*
X1149D01*
X1084Y2166D02*
X1166D01*
X1113Y2142D02*
X1137D01*
X1109Y2150D02*
X1141D01*
X1117Y2126D02*
X1133D01*
X1116Y2134D02*
X1134D01*
X1116Y2118D02*
X1134D01*
X1114Y2110D02*
X1136D01*
X1113Y2108D02*
X1136Y2086D01*
X1019Y2102D02*
X1040D01*
X25Y2174D02*
X1644D01*
X25Y2177D02*
X1649D01*
X1001Y2158D02*
X1049D01*
X984Y2166D02*
X1066D01*
X1013Y2142D02*
X1037D01*
X1009Y2150D02*
X1041D01*
X1016Y2134D02*
X1034D01*
X1016Y2118D02*
X1034D01*
X1014Y2110D02*
X1036D01*
X1013Y2108D02*
X1036Y2086D01*
X1017Y2126D02*
X1033D01*
X1127Y2094D02*
X1147D01*
X1119Y2102D02*
X1140D01*
X1140Y2078D02*
X1201D01*
X1135Y2086D02*
X1159D01*
X1136Y2086D02*
X1136Y2086D01*
X1136Y2086D01*
X1140Y2070D02*
X1209D01*
X1095Y2062D02*
X1110D01*
X1092Y2087D02*
X1110Y2069D01*
X1105Y2054D02*
X1110D01*
X1035Y2086D02*
X1059D01*
X1027Y2094D02*
X1047D01*
X1091Y2086D02*
X1093D01*
X1040Y2078D02*
X1101D01*
X1036Y2086D02*
X1036Y2086D01*
X1036Y2086D01*
X1040Y2062D02*
X1055D01*
X1040Y2070D02*
X1109D01*
X1040Y2054D02*
X1045D01*
X995Y2062D02*
X1010D01*
X909Y2150D02*
X941D01*
X901Y2158D02*
X949D01*
X914Y2110D02*
X936D01*
X913Y2142D02*
X937D01*
X917Y2126D02*
X933D01*
X916Y2134D02*
X934D01*
X916Y2118D02*
X934D01*
X927Y2094D02*
X947D01*
X919Y2102D02*
X940D01*
X992Y2087D02*
X1010Y2069D01*
X913Y2108D02*
X936Y2086D01*
X892Y2087D02*
X910Y2069D01*
X884Y2166D02*
X966D01*
X784D02*
X866D01*
X809Y2150D02*
X841D01*
X801Y2158D02*
X849D01*
X816Y2134D02*
X834D01*
X813Y2142D02*
X837D01*
X816Y2118D02*
X834D01*
X827Y2094D02*
X847D01*
X835Y2086D02*
X859D01*
X814Y2110D02*
X836D01*
X813Y2108D02*
X836Y2086D01*
X819Y2102D02*
X840D01*
X991Y2086D02*
X993D01*
X935D02*
X959D01*
X940Y2078D02*
X1001D01*
X936Y2086D02*
X936Y2086D01*
X936Y2086D01*
X1010Y2048D02*
Y2069D01*
X940Y2070D02*
X1009D01*
X1005Y2054D02*
X1010D01*
X940Y2062D02*
X955D01*
X940Y2054D02*
X945D01*
X891Y2086D02*
X893D01*
X840Y2078D02*
X901D01*
X836Y2086D02*
X836Y2086D01*
X836Y2086D01*
X895Y2062D02*
X910D01*
X840Y2070D02*
X909D01*
X905Y2054D02*
X910D01*
X840Y2062D02*
X855D01*
X840Y2054D02*
X845D01*
X1110Y2048D02*
Y2069D01*
X1140Y1998D02*
X1143D01*
X1107D02*
X1110D01*
X1040Y1990D02*
X1052D01*
X1040Y1998D02*
X1043D01*
X1098Y1990D02*
X1110D01*
X1140Y1982D02*
X1210D01*
X1110Y1948D02*
Y2002D01*
X1040Y1948D02*
Y2002D01*
X1084Y1966D02*
X1110D01*
X1040Y2048D02*
Y2075D01*
Y1982D02*
X1110D01*
X1007Y1998D02*
X1010D01*
X998Y1990D02*
X1010D01*
X940Y1982D02*
X1010D01*
X1040Y1974D02*
X1110D01*
X1040Y1966D02*
X1066D01*
X1010Y1948D02*
Y2002D01*
X940Y1974D02*
X1010D01*
X984Y1966D02*
X1010D01*
X1140Y1950D02*
X1141D01*
X1109D02*
X1110D01*
X1140Y1879D02*
Y1902D01*
X1103Y1894D02*
X1110D01*
X1101Y1958D02*
X1110D01*
X1091Y1886D02*
X1110D01*
X1057Y1870D02*
X1110D01*
Y1866D02*
Y1902D01*
X1044Y1878D02*
X1110D01*
X1062Y1862D02*
X1108D01*
X1040Y1950D02*
X1041D01*
X1040Y1958D02*
X1049D01*
X1040Y1886D02*
X1059D01*
X1040Y1894D02*
X1047D01*
X1009Y1950D02*
X1010D01*
X1001Y1958D02*
X1010D01*
X991Y1886D02*
X1010D01*
X1040Y1879D02*
Y1902D01*
X1010Y1866D02*
Y1902D01*
X957Y1870D02*
X1010D01*
X940Y1998D02*
X943D01*
X940Y1966D02*
X966D01*
X940Y1990D02*
X952D01*
X940Y2048D02*
Y2075D01*
X910Y2048D02*
Y2069D01*
X907Y1998D02*
X910D01*
X940Y1958D02*
X949D01*
X940Y1950D02*
X941D01*
X940Y1948D02*
Y2002D01*
X910Y1948D02*
Y2002D01*
X901Y1958D02*
X910D01*
X898Y1990D02*
X910D01*
X840Y1982D02*
X910D01*
X840Y1998D02*
X843D01*
X840Y2048D02*
Y2075D01*
Y1990D02*
X852D01*
X840Y1974D02*
X910D01*
X884Y1966D02*
X910D01*
X840D02*
X866D01*
X840Y1948D02*
Y2002D01*
Y1958D02*
X849D01*
X1003Y1894D02*
X1010D01*
X940Y1886D02*
X959D01*
X940Y1894D02*
X947D01*
X940Y1879D02*
Y1902D01*
X909Y1950D02*
X910D01*
X903Y1894D02*
X910D01*
X962Y1862D02*
X1008D01*
X944Y1878D02*
X1010D01*
X964Y1854D02*
X1006D01*
X910Y1866D02*
Y1902D01*
X891Y1886D02*
X910D01*
X840D02*
X859D01*
X840Y1879D02*
Y1902D01*
Y1950D02*
X841D01*
X840Y1894D02*
X847D01*
X857Y1870D02*
X910D01*
X844Y1878D02*
X910D01*
X862Y1862D02*
X908D01*
X864Y1854D02*
X906D01*
X1516Y1838D02*
X1774D01*
X1508Y1830D02*
X1773D01*
X1501Y1814D02*
X1773D01*
X1501Y1822D02*
X1773D01*
X1474Y1841D02*
X1474Y1841D01*
X1501Y1805D02*
X1520D01*
X1501Y1806D02*
X1774D01*
X1449Y1624D02*
X1521D01*
X1501Y1805D02*
Y1823D01*
X1469Y1805D02*
Y1830D01*
X1450Y1805D02*
X1469D01*
X1437Y1846D02*
X1478D01*
X1429Y1838D02*
X1471D01*
X1421Y1830D02*
X1469D01*
X1252Y1614D02*
X1538D01*
X1413Y1822D02*
X1469D01*
X1405Y1814D02*
X1469D01*
X1397Y1806D02*
X1469D01*
X1252Y1566D02*
X1524D01*
X1252Y1582D02*
X1524D01*
X1252Y1558D02*
X1524D01*
X1252Y1598D02*
X1524D01*
X1252Y1606D02*
X1524D01*
X1252Y1590D02*
X1524D01*
X1508Y1518D02*
X1517D01*
X1508Y1526D02*
X1517D01*
X1508Y1502D02*
X1517D01*
X1508Y1510D02*
X1517D01*
X1508Y1500D02*
Y1530D01*
Y1486D02*
X1517D01*
X1508Y1494D02*
X1517D01*
X1508Y1478D02*
X1517D01*
X1383Y1534D02*
X1583D01*
X1364Y1542D02*
X1524D01*
X1454Y1530D02*
X1508D01*
X1454Y1500D02*
Y1530D01*
X1452Y1510D02*
X1454D01*
X1452Y1502D02*
X1454D01*
Y1470D02*
X1508D01*
X1454D02*
Y1500D01*
X1452Y1494D02*
X1454D01*
X1452Y1478D02*
X1454D01*
X1450Y1696D02*
Y1733D01*
Y1767D02*
Y1805D01*
Y1695D02*
Y1696D01*
X1449D02*
X1450D01*
X1437Y1686D02*
X1449D01*
X1437Y1694D02*
X1449D01*
X1437Y1678D02*
X1449D01*
X1437Y1662D02*
X1449D01*
X1437Y1670D02*
X1449D01*
X1437Y1654D02*
X1449D01*
Y1624D02*
Y1696D01*
X1437Y1624D02*
Y1696D01*
Y1646D02*
X1449D01*
X1389Y1798D02*
X1450D01*
X1381Y1790D02*
X1450D01*
X1381Y1789D02*
X1381Y1789D01*
X1381Y1789D02*
X1381Y1789D01*
X1365Y1696D02*
X1437D01*
X1365Y1624D02*
Y1696D01*
X1437Y1630D02*
X1449D01*
X1398Y1530D02*
X1452D01*
Y1518D02*
X1454D01*
X1452Y1526D02*
X1454D01*
X1437Y1638D02*
X1449D01*
X1391Y1518D02*
X1398D01*
X1391Y1510D02*
X1398D01*
X1452Y1486D02*
X1454D01*
X1452Y1500D02*
Y1530D01*
X1398Y1470D02*
X1452D01*
X1398D02*
Y1500D01*
Y1530D01*
Y1470D02*
X1452D01*
X1389Y1526D02*
X1398D01*
X1365Y1624D02*
X1437D01*
X1388Y1502D02*
X1398D01*
X1252Y1555D02*
Y1585D01*
Y1615D01*
X1381Y1486D02*
X1398D01*
X1381Y1494D02*
X1398D01*
X1381Y1478D02*
X1398D01*
X1381Y1478D02*
Y1494D01*
X1347Y1471D02*
Y1494D01*
X1508Y1470D02*
Y1500D01*
X1454Y1470D02*
X1508D01*
X1517D02*
X1571D01*
X1508D02*
X1517D01*
X1452D02*
X1454D01*
X1452D02*
Y1500D01*
X1389Y1470D02*
X1398D01*
X1445Y1422D02*
X1580D01*
X1392Y1467D02*
X1643D01*
X1448Y1382D02*
X1577D01*
X1449Y1417D02*
X1576D01*
X1449Y1383D02*
X1576D01*
X1381Y1478D02*
X1392Y1467D01*
X1385Y1433D02*
X1880D01*
X1352Y1459D02*
X1373Y1438D01*
X1352Y1459D02*
X1352Y1459D01*
X1373Y1438D02*
X1373Y1438D01*
X1285Y1414D02*
X1399D01*
X1285Y1422D02*
X1405D01*
X1327Y1382D02*
X1402D01*
X1327Y1398D02*
X1396D01*
X1323Y1406D02*
X1396D01*
X1327Y1390D02*
X1397D01*
X1439Y1374D02*
X1586D01*
X1327Y1342D02*
X1617D01*
X1327Y1326D02*
X1617D01*
X1327Y1334D02*
X1617D01*
X1454Y1270D02*
X1546D01*
X1454D02*
X1546D01*
X1374Y1246D02*
X1454D01*
X1388Y1230D02*
X1454D01*
X1383Y1238D02*
X1454D01*
X1389Y1222D02*
X1454D01*
X1427Y1206D02*
X1454D01*
X1389Y1214D02*
X1454D01*
X1386Y1206D02*
X1393D01*
X1327Y1358D02*
X1833D01*
X1327Y1366D02*
X1833D01*
X1327Y1302D02*
X1617D01*
X1327Y1350D02*
X1833D01*
X1327Y1318D02*
X1617D01*
X1327Y1374D02*
X1411D01*
X1327Y1310D02*
X1617D01*
X1327Y1286D02*
X1684D01*
X1327Y1294D02*
X1617D01*
X1327Y1278D02*
X1684D01*
X1327Y1262D02*
X1454D01*
X1327Y1270D02*
X1454D01*
X1327Y1254D02*
X1454D01*
X1285Y1412D02*
X1310D01*
X1285D02*
Y1422D01*
Y1378D02*
X1293D01*
X1285Y1366D02*
X1293D01*
X1285Y1374D02*
X1293D01*
X1285Y1358D02*
X1293D01*
X1285Y1312D02*
Y1366D01*
Y1368D02*
Y1378D01*
Y1326D02*
X1293D01*
X1285Y1350D02*
X1293D01*
X1255Y1368D02*
X1285D01*
Y1334D02*
X1293D01*
X1285Y1342D02*
X1293D01*
X1255Y1422D02*
X1285D01*
Y1318D02*
X1293D01*
X1255Y1303D02*
X1285D01*
Y1302D02*
X1293D01*
X1285Y1249D02*
Y1303D01*
Y1262D02*
X1293D01*
X1285Y1270D02*
X1293D01*
X1327Y1246D02*
X1346D01*
X1285Y1254D02*
X1293D01*
X1285Y1286D02*
X1293D01*
X1285Y1294D02*
X1293D01*
X1285Y1278D02*
X1293D01*
X1327Y1230D02*
X1332D01*
X1327Y1238D02*
X1337D01*
X1327Y1206D02*
X1334D01*
X1327Y1214D02*
X1331D01*
X1327Y1222D02*
X1331D01*
X1285Y1214D02*
X1293D01*
X1255Y1249D02*
X1285D01*
Y1222D02*
X1293D01*
X1285Y1230D02*
X1293D01*
X1285Y1206D02*
X1293D01*
X1285Y1246D02*
X1293D01*
X1255Y1247D02*
X1285D01*
Y1238D02*
X1293D01*
X1243Y1846D02*
X1395D01*
X1239Y1838D02*
X1387D01*
X696Y1702D02*
X1450D01*
X696Y1710D02*
X1450D01*
X1231Y1830D02*
X1379D01*
X1157D02*
X1199D01*
X1144Y1822D02*
X1371D01*
X696Y1686D02*
X1365D01*
X696Y1694D02*
X1365D01*
X696Y1654D02*
X1365D01*
X696Y1638D02*
X1365D01*
X696Y1646D02*
X1365D01*
X1198Y1615D02*
X1252D01*
X530Y1767D02*
X1450D01*
X495Y1774D02*
X1450D01*
X537Y1733D02*
X1450D01*
X530Y1726D02*
X1450D01*
X506Y1785D02*
X1370D01*
X500Y1815D02*
X1364D01*
X503Y1782D02*
X1450D01*
X696Y1678D02*
X1365D01*
X522Y1718D02*
X1450D01*
X623Y1622D02*
X1543D01*
X696Y1662D02*
X1365D01*
X696Y1670D02*
X1365D01*
X614Y1630D02*
X1365D01*
X1198Y1585D02*
Y1615D01*
X1196Y1590D02*
X1198D01*
X1252Y1574D02*
X1524D01*
X1196Y1582D02*
X1198D01*
X1196Y1606D02*
X1198D01*
X1196Y1614D02*
X1198D01*
X1196Y1598D02*
X1198D01*
X954Y1478D02*
X1347D01*
X952Y1486D02*
X1347D01*
X954Y1470D02*
X1347D01*
X1196Y1566D02*
X1198D01*
X1196Y1574D02*
X1198D01*
Y1555D02*
X1252D01*
X517Y1542D02*
X1364D01*
X517Y1550D02*
X1524D01*
X937Y1502D02*
X1340D01*
X517Y1534D02*
X1345D01*
X752Y1518D02*
X1337D01*
X517Y1526D02*
X1339D01*
X752Y1510D02*
X1337D01*
X940Y1438D02*
X1373D01*
X940Y1446D02*
X1365D01*
X940Y1430D02*
X1883D01*
X951Y1462D02*
X1350D01*
X948Y1494D02*
X1347D01*
X946Y1454D02*
X1357D01*
X1164Y1846D02*
X1187D01*
X1164Y1854D02*
X1186D01*
X1162Y1838D02*
X1191D01*
X1057Y1830D02*
X1113D01*
X1064Y1846D02*
X1106D01*
X1064Y1854D02*
X1106D01*
X1062Y1838D02*
X1108D01*
X1196Y1555D02*
Y1615D01*
X1142D02*
X1196D01*
X1142Y1555D02*
Y1615D01*
X964Y1846D02*
X1006D01*
X962Y1838D02*
X1008D01*
X957Y1830D02*
X1013D01*
X944Y1822D02*
X1026D01*
X864Y1846D02*
X906D01*
X862Y1838D02*
X908D01*
X857Y1830D02*
X913D01*
X752Y1606D02*
X1142D01*
X752Y1614D02*
X1142D01*
X752Y1590D02*
X1142D01*
X1044Y1822D02*
X1126D01*
X844D02*
X926D01*
X752Y1598D02*
X1142D01*
X1198Y1555D02*
Y1585D01*
X1196Y1558D02*
X1198D01*
X1142Y1555D02*
X1196D01*
X815Y1446D02*
X910D01*
X831Y1430D02*
X910D01*
X823Y1438D02*
X910D01*
X836Y1426D02*
X836Y1426D01*
X836Y1426D02*
X836Y1426D01*
X752Y1574D02*
X1142D01*
X752Y1582D02*
X1142D01*
X752Y1566D02*
X1142D01*
X759Y1502D02*
X913D01*
X612Y1558D02*
X1142D01*
X767Y1494D02*
X902D01*
X799Y1462D02*
X899D01*
X775Y1486D02*
X898D01*
X807Y1454D02*
X904D01*
X783Y1478D02*
X896D01*
X759Y1502D02*
X836Y1426D01*
X791Y1470D02*
X896D01*
X1225Y1422D02*
X1255D01*
X1225D02*
X1285D01*
X1225Y1366D02*
X1285D01*
X1225Y1368D02*
X1255D01*
X1225D02*
Y1422D01*
X940Y1398D02*
X1225D01*
X940Y1390D02*
X1225D01*
Y1366D02*
X1285D01*
X1225Y1312D02*
X1285D01*
X1225Y1249D02*
Y1303D01*
Y1312D02*
Y1366D01*
Y1303D02*
X1255D01*
X940Y1374D02*
X1225D01*
X940Y1382D02*
X1225D01*
X940Y1358D02*
X1225D01*
X940Y1366D02*
X1225D01*
X940Y1414D02*
X1225D01*
X940Y1422D02*
X1225D01*
X940Y1406D02*
X1225D01*
X940Y1318D02*
X1225D01*
X940Y1326D02*
X1225D01*
X940Y1310D02*
X1293D01*
X940Y1342D02*
X1225D01*
X940Y1350D02*
X1225D01*
X940Y1334D02*
X1225D01*
Y1247D02*
X1255D01*
X1225Y1249D02*
X1255D01*
X1093Y1230D02*
X1225D01*
X1082Y1238D02*
X1225D01*
X1097Y1222D02*
X1225D01*
X1098Y1206D02*
X1225D01*
X1098Y1214D02*
X1225D01*
X1114Y1198D02*
X1225D01*
X1098Y1202D02*
Y1216D01*
X1048Y1198D02*
X1052D01*
X940Y1270D02*
X1225D01*
X940Y1278D02*
X1225D01*
X940Y1254D02*
X1225D01*
X940Y1262D02*
X1225D01*
X940Y1294D02*
X1225D01*
X940Y1302D02*
X1225D01*
X940Y1286D02*
X1225D01*
X1032Y1238D02*
X1068D01*
X940Y1246D02*
X1225D01*
X1043Y1230D02*
X1057D01*
X1048Y1214D02*
X1052D01*
X1047Y1222D02*
X1053D01*
X1048Y1206D02*
X1052D01*
X850Y1366D02*
X910D01*
X850Y1374D02*
X910D01*
X850Y1350D02*
X910D01*
X850Y1358D02*
X910D01*
X850Y1390D02*
X910D01*
X850Y1398D02*
X910D01*
X850Y1382D02*
X910D01*
X940Y1239D02*
Y1450D01*
X850Y1310D02*
X910D01*
X850Y1302D02*
X910D01*
Y1239D02*
Y1450D01*
X850Y1294D02*
X910D01*
X850Y1286D02*
X910D01*
X846Y1416D02*
X846Y1416D01*
X839Y1422D02*
X910D01*
X850Y1406D02*
X910D01*
X847Y1414D02*
X910D01*
X846Y1416D02*
X846Y1416D01*
X836Y1426D02*
X846Y1416D01*
X850Y1326D02*
X910D01*
X850Y1334D02*
X910D01*
X850Y1318D02*
X910D01*
X850Y1342D02*
X910D01*
X982Y1238D02*
X1018D01*
X997Y1222D02*
X1003D01*
X993Y1230D02*
X1007D01*
X948D02*
X957D01*
X948Y1238D02*
X968D01*
X948Y1222D02*
X953D01*
X998Y1214D02*
X1002D01*
X998Y1206D02*
X1002D01*
X948D02*
X952D01*
X948Y1214D02*
X952D01*
X948Y1198D02*
X952D01*
X850Y1246D02*
X910D01*
X850Y1254D02*
X910D01*
X902Y1239D02*
X910D01*
X850Y1270D02*
X910D01*
X850Y1278D02*
X910D01*
X850Y1262D02*
X910D01*
X940Y1239D02*
X948D01*
X850Y1238D02*
X902D01*
X850Y1230D02*
X902D01*
X850Y1214D02*
X902D01*
X850Y1222D02*
X902D01*
X850Y1206D02*
X902D01*
X817Y2126D02*
X833D01*
X713Y2142D02*
X737D01*
X714Y2110D02*
X736D01*
X717Y2126D02*
X733D01*
X716Y2134D02*
X734D01*
X716Y2118D02*
X734D01*
X727Y2094D02*
X747D01*
X792Y2087D02*
X810Y2069D01*
X713Y2108D02*
X736Y2086D01*
X719Y2102D02*
X740D01*
X684Y2166D02*
X766D01*
X584D02*
X666D01*
X709Y2150D02*
X741D01*
X701Y2158D02*
X749D01*
X609Y2150D02*
X641D01*
X601Y2158D02*
X649D01*
X613Y2142D02*
X637D01*
X627Y2094D02*
X647D01*
X692Y2087D02*
X710Y2069D01*
X614Y2110D02*
X636D01*
X613Y2108D02*
X636Y2086D01*
X619Y2102D02*
X640D01*
X791Y2086D02*
X793D01*
X735D02*
X759D01*
X740Y2078D02*
X801D01*
X736Y2086D02*
X736Y2086D01*
X736Y2086D01*
X795Y2062D02*
X810D01*
X740Y2070D02*
X809D01*
X805Y2054D02*
X810D01*
X740Y2062D02*
X755D01*
X740Y2054D02*
X745D01*
X691Y2086D02*
X693D01*
X635D02*
X659D01*
X640Y2078D02*
X701D01*
X636Y2086D02*
X636Y2086D01*
X636Y2086D01*
X695Y2062D02*
X710D01*
X640Y2070D02*
X709D01*
X705Y2054D02*
X710D01*
X640Y2062D02*
X655D01*
X640Y2054D02*
X645D01*
X616Y2134D02*
X634D01*
X513Y2142D02*
X537D01*
X617Y2126D02*
X633D01*
X616Y2118D02*
X634D01*
X517Y2126D02*
X533D01*
X516Y2134D02*
X534D01*
X516Y2118D02*
X534D01*
X519Y2102D02*
X540D01*
X514Y2110D02*
X536D01*
X513Y2108D02*
X536Y2086D01*
X501Y2158D02*
X549D01*
X484Y2166D02*
X566D01*
X509Y2150D02*
X541D01*
X413Y2142D02*
X437D01*
X417Y2126D02*
X433D01*
X416Y2134D02*
X434D01*
X416Y2118D02*
X434D01*
X419Y2102D02*
X440D01*
X427Y2094D02*
X447D01*
X414Y2110D02*
X436D01*
X413Y2108D02*
X436Y2086D01*
X535Y2086D02*
X559D01*
X527Y2094D02*
X547D01*
X591Y2086D02*
X593D01*
X540Y2078D02*
X601D01*
X536Y2086D02*
X536Y2086D01*
X536Y2086D01*
X592Y2087D02*
X610Y2069D01*
X540Y2070D02*
X609D01*
X595Y2062D02*
X610D01*
X540D02*
X555D01*
X491Y2086D02*
X493D01*
X435D02*
X459D01*
X440Y2078D02*
X501D01*
X436Y2086D02*
X436Y2086D01*
X436Y2086D01*
X492Y2087D02*
X510Y2069D01*
X440Y2070D02*
X509D01*
X495Y2062D02*
X510D01*
X440D02*
X455D01*
X810Y2048D02*
Y2069D01*
X807Y1998D02*
X810D01*
X798Y1990D02*
X810D01*
X740Y1998D02*
X743D01*
X740Y2048D02*
Y2075D01*
Y1990D02*
X752D01*
X740Y1982D02*
X810D01*
X740Y1974D02*
X810D01*
X740Y1948D02*
Y2002D01*
X710Y1948D02*
Y2002D01*
X810Y1948D02*
Y2002D01*
X710Y2048D02*
Y2069D01*
X707Y1998D02*
X710D01*
X698Y1990D02*
X710D01*
X640Y1998D02*
X643D01*
X640Y2048D02*
Y2075D01*
Y1990D02*
X652D01*
X640Y1982D02*
X710D01*
X640Y1974D02*
X710D01*
X640Y1948D02*
Y2002D01*
X540Y1982D02*
X610D01*
X540Y1974D02*
X610D01*
X784Y1966D02*
X810D01*
X809Y1950D02*
X810D01*
X801Y1958D02*
X810D01*
X740D02*
X749D01*
X740Y1966D02*
X766D01*
X740Y1950D02*
X741D01*
X803Y1894D02*
X810D01*
X791Y1886D02*
X810D01*
Y1866D02*
Y1902D01*
X740Y1879D02*
Y1902D01*
Y1894D02*
X747D01*
X684Y1966D02*
X710D01*
X640D02*
X666D01*
X709Y1950D02*
X710D01*
X701Y1958D02*
X710D01*
X640D02*
X649D01*
X584Y1966D02*
X610D01*
X640Y1950D02*
X641D01*
X710Y1866D02*
Y1902D01*
X703Y1894D02*
X710D01*
X640Y1879D02*
Y1902D01*
Y1894D02*
X647D01*
X610Y2048D02*
Y2069D01*
X607Y1998D02*
X610D01*
X605Y2054D02*
X610D01*
X540D02*
X545D01*
X540Y2048D02*
Y2075D01*
Y1998D02*
X543D01*
X610Y1948D02*
Y2002D01*
X598Y1990D02*
X610D01*
X540Y1948D02*
Y2002D01*
X510Y1948D02*
Y2002D01*
X540Y1990D02*
X552D01*
X510Y2048D02*
Y2069D01*
X507Y1998D02*
X510D01*
X505Y2054D02*
X510D01*
X440D02*
X445D01*
X440Y2048D02*
Y2075D01*
Y1998D02*
X443D01*
X498Y1990D02*
X510D01*
X440Y1982D02*
X510D01*
X440Y1990D02*
X452D01*
X440Y1948D02*
Y2002D01*
Y1974D02*
X510D01*
X540Y1966D02*
X566D01*
X609Y1950D02*
X610D01*
X601Y1958D02*
X610D01*
X540Y1950D02*
X541D01*
X540Y1958D02*
X549D01*
X540Y1894D02*
X547D01*
X603D02*
X610D01*
X591Y1886D02*
X610D01*
X540Y1879D02*
Y1902D01*
X510Y1866D02*
Y1902D01*
X610Y1866D02*
Y1902D01*
X501Y1958D02*
X510D01*
X484Y1966D02*
X510D01*
X509Y1950D02*
X510D01*
X440Y1958D02*
X449D01*
X440Y1966D02*
X466D01*
X440Y1950D02*
X441D01*
X503Y1894D02*
X510D01*
X491Y1886D02*
X510D01*
X440Y1879D02*
Y1902D01*
Y1894D02*
X447D01*
X401Y2158D02*
X449D01*
X384Y2166D02*
X466D01*
X409Y2150D02*
X441D01*
X314Y2110D02*
X336D01*
X317Y2126D02*
X333D01*
X316Y2134D02*
X334D01*
X316Y2118D02*
X334D01*
X392Y2087D02*
X410Y2069D01*
X391Y2086D02*
X393D01*
X327Y2094D02*
X347D01*
X319Y2102D02*
X340D01*
X335Y2086D02*
X359D01*
X301Y2158D02*
X349D01*
X284Y2166D02*
X366D01*
X313Y2142D02*
X337D01*
X309Y2150D02*
X341D01*
X201Y2158D02*
X249D01*
X184Y2166D02*
X266D01*
X209Y2150D02*
X241D01*
X313Y2108D02*
X336Y2086D01*
X292Y2087D02*
X310Y2069D01*
X227Y2094D02*
X247D01*
X235Y2086D02*
X259D01*
X340Y2078D02*
X401D01*
X340Y2062D02*
X355D01*
X340Y2070D02*
X409D01*
X336Y2086D02*
X336Y2086D01*
X336Y2086D02*
X336Y2086D01*
X410Y2048D02*
Y2069D01*
X405Y2054D02*
X410D01*
X395Y2062D02*
X410D01*
X340Y2048D02*
Y2075D01*
Y2054D02*
X345D01*
X291Y2086D02*
X293D01*
X240Y2070D02*
X309D01*
X240Y2078D02*
X301D01*
X240Y2062D02*
X255D01*
X295D02*
X310D01*
X305Y2054D02*
X310D01*
Y2048D02*
Y2069D01*
X240Y2048D02*
Y2075D01*
Y2054D02*
X245D01*
X117Y2158D02*
X149D01*
X117Y2166D02*
X166D01*
X216Y2134D02*
X234D01*
X213Y2142D02*
X237D01*
X117D02*
X137D01*
X117Y2150D02*
X141D01*
X117Y2134D02*
X134D01*
X217Y2126D02*
X233D01*
X216Y2118D02*
X234D01*
X214Y2110D02*
X236D01*
X117Y2083D02*
Y2167D01*
X33D02*
X117D01*
X25Y2166D02*
X33D01*
X25Y2150D02*
X33D01*
X25Y2158D02*
X33D01*
X25Y2134D02*
X33D01*
X25Y2142D02*
X33D01*
X25Y2126D02*
X33D01*
X117Y2118D02*
X134D01*
X117Y2126D02*
X133D01*
X117Y2110D02*
X136D01*
X33Y2083D02*
Y2167D01*
X25Y2118D02*
X33D01*
X25Y2110D02*
X33D01*
X219Y2102D02*
X240D01*
X213Y2108D02*
X236Y2086D01*
X236Y2086D01*
X117Y2094D02*
X147D01*
X117Y2102D02*
X140D01*
X191Y2086D02*
X193D01*
X236Y2086D02*
X236Y2086D01*
X192Y2087D02*
X210Y2069D01*
X195Y2062D02*
X210D01*
Y2048D02*
Y2069D01*
X205Y2054D02*
X210D01*
X117D02*
X145D01*
X117Y2086D02*
X159D01*
X33Y2083D02*
X117D01*
X25Y2078D02*
X201D01*
X25Y2094D02*
X33D01*
X25Y2102D02*
X33D01*
X25Y2086D02*
X33D01*
X117Y2062D02*
X155D01*
X25Y2070D02*
X209D01*
X117Y2046D02*
X139D01*
X33Y2067D02*
X117D01*
X25Y2062D02*
X33D01*
X25Y2054D02*
X33D01*
X407Y1998D02*
X410D01*
X398Y1990D02*
X410D01*
X340Y1982D02*
X410D01*
X340Y1998D02*
X343D01*
X307D02*
X310D01*
X340Y1990D02*
X352D01*
X410Y1948D02*
Y2002D01*
X340Y1974D02*
X410D01*
X340Y1948D02*
Y2002D01*
X310Y1948D02*
Y2002D01*
X340Y1966D02*
X366D01*
X240Y1998D02*
X243D01*
X298Y1990D02*
X310D01*
X240D02*
X252D01*
X207Y1998D02*
X210D01*
X198Y1990D02*
X210D01*
X240Y1974D02*
X310D01*
X240Y1982D02*
X310D01*
X240Y1948D02*
Y2002D01*
X25Y1982D02*
X210D01*
X25Y1974D02*
X210D01*
X401Y1958D02*
X410D01*
X384Y1966D02*
X410D01*
X409Y1950D02*
X410D01*
X403Y1894D02*
X410D01*
X340Y1950D02*
X341D01*
X340Y1958D02*
X349D01*
X309Y1950D02*
X310D01*
X410Y1866D02*
Y1902D01*
X340Y1886D02*
X359D01*
X340Y1879D02*
Y1902D01*
X310Y1866D02*
Y1902D01*
X340Y1894D02*
X347D01*
X284Y1966D02*
X310D01*
X240D02*
X266D01*
X303Y1894D02*
X310D01*
X301Y1958D02*
X310D01*
X240D02*
X249D01*
X184Y1966D02*
X210D01*
X240Y1950D02*
X241D01*
X240Y1894D02*
X247D01*
X240Y1886D02*
X259D01*
X240Y1879D02*
Y1902D01*
X210Y1866D02*
Y1902D01*
X203Y1894D02*
X210D01*
X117Y2014D02*
X134D01*
X117Y2038D02*
X135D01*
X117Y1998D02*
X143D01*
X117Y2006D02*
X138D01*
X117Y2030D02*
X133D01*
X117Y2022D02*
X133D01*
X210Y1948D02*
Y2002D01*
X117Y1990D02*
X152D01*
X117Y1983D02*
Y2067D01*
Y1883D02*
Y1967D01*
X25Y2046D02*
X33D01*
X25Y2038D02*
X33D01*
X25Y2022D02*
X33D01*
X25Y2030D02*
X33D01*
X25Y2014D02*
X33D01*
X25Y1998D02*
X33D01*
X25Y2006D02*
X33D01*
Y1983D02*
X117D01*
X33D02*
Y2067D01*
X25Y1798D02*
Y2177D01*
Y1990D02*
X33D01*
X201Y1958D02*
X210D01*
X117Y1966D02*
X166D01*
X209Y1950D02*
X210D01*
X117Y1958D02*
X149D01*
X117Y1942D02*
X137D01*
X117Y1950D02*
X141D01*
X117Y1934D02*
X134D01*
X117Y1902D02*
X140D01*
X117Y1910D02*
X136D01*
X117Y1894D02*
X147D01*
X117Y1926D02*
X133D01*
X33Y1883D02*
Y1967D01*
X117Y1918D02*
X134D01*
X33Y1967D02*
X117D01*
X25Y1966D02*
X33D01*
X25Y1958D02*
X33D01*
X25Y1942D02*
X33D01*
X25Y1950D02*
X33D01*
X25Y1934D02*
X33D01*
X25Y1894D02*
X33D01*
X25Y1902D02*
X33D01*
X25Y1886D02*
X33D01*
X25Y1918D02*
X33D01*
X25Y1926D02*
X33D01*
X25Y1910D02*
X33D01*
X757Y1870D02*
X810D01*
X744Y1878D02*
X810D01*
X764Y1854D02*
X806D01*
X762Y1862D02*
X808D01*
X740Y1886D02*
X759D01*
X691D02*
X710D01*
X762Y1838D02*
X808D01*
X757Y1830D02*
X813D01*
X744Y1822D02*
X826D01*
X764Y1846D02*
X806D01*
X696Y1631D02*
Y1712D01*
X657Y1870D02*
X710D01*
X644Y1878D02*
X710D01*
X664Y1846D02*
X706D01*
X662Y1862D02*
X708D01*
X640Y1886D02*
X659D01*
X664Y1854D02*
X706D01*
X662Y1838D02*
X708D01*
X657Y1830D02*
X713D01*
X644Y1822D02*
X726D01*
X564Y1712D02*
X696D01*
X613Y1631D02*
X696D01*
X752Y1506D02*
Y1522D01*
X649D02*
X752D01*
X759Y1502D02*
X759Y1502D01*
X752Y1559D02*
Y1620D01*
X649Y1559D02*
Y1620D01*
Y1559D02*
X752D01*
X759Y1502D02*
X759Y1502D01*
X752Y1462D02*
X757D01*
X752Y1461D02*
Y1467D01*
X649Y1461D02*
X752D01*
X649Y1620D02*
X752D01*
X628Y1614D02*
X649D01*
X633Y1598D02*
X649D01*
X631Y1606D02*
X649D01*
X622Y1566D02*
X649D01*
X517Y1518D02*
X649D01*
X517Y1510D02*
X649D01*
X517Y1462D02*
X649D01*
X517Y1478D02*
X649D01*
X517Y1454D02*
X765D01*
X517Y1494D02*
X649D01*
X517Y1502D02*
X649D01*
X517Y1486D02*
X649D01*
X557Y1870D02*
X610D01*
X544Y1878D02*
X610D01*
X564Y1846D02*
X606D01*
X562Y1862D02*
X608D01*
X540Y1886D02*
X559D01*
X564Y1854D02*
X606D01*
X562Y1838D02*
X608D01*
X557Y1830D02*
X613D01*
X544Y1822D02*
X626D01*
X518Y1762D02*
X518Y1762D01*
X564Y1631D02*
Y1712D01*
X489Y1811D02*
X489Y1811D01*
X489Y1811D02*
X489Y1811D01*
X517Y1686D02*
X564D01*
X517Y1694D02*
X564D01*
X517Y1678D02*
X564D01*
X517Y1710D02*
X564D01*
X517Y1713D02*
X537Y1733D01*
X517Y1702D02*
X564D01*
Y1631D02*
X568D01*
X517Y1638D02*
X564D01*
X517Y1662D02*
X564D01*
X517Y1670D02*
X564D01*
X517Y1654D02*
X564D01*
X633Y1590D02*
X649D01*
X631Y1582D02*
X649D01*
X628Y1574D02*
X649D01*
Y1461D02*
Y1522D01*
X517Y1630D02*
X567D01*
X517Y1646D02*
X564D01*
X517Y1622D02*
X558D01*
X517Y1606D02*
X550D01*
X517Y1614D02*
X553D01*
X517Y1598D02*
X548D01*
X517Y1558D02*
X569D01*
X517Y1566D02*
X559D01*
X517Y1470D02*
X649D01*
X517Y1582D02*
X550D01*
X517Y1590D02*
X548D01*
X517Y1574D02*
X553D01*
X814Y1404D02*
X814Y1404D01*
X820Y1399D01*
X808Y1358D02*
X820D01*
X814Y1404D02*
X814Y1404D01*
X811Y1356D02*
X811Y1356D01*
X815Y1342D02*
X820D01*
X814Y1350D02*
X820D01*
X815Y1326D02*
X820D01*
X815Y1334D02*
X820D01*
X759Y1406D02*
X813D01*
X752Y1467D02*
X814Y1404D01*
X776Y1390D02*
X820D01*
X768Y1398D02*
X820D01*
X752Y1422D02*
X797D01*
X517Y1430D02*
X789D01*
X752Y1414D02*
X805D01*
X792Y1374D02*
X820D01*
X784Y1382D02*
X820D01*
X800Y1366D02*
X820D01*
X763Y1403D02*
X811Y1356D01*
X752Y1372D02*
X785Y1339D01*
X517Y1334D02*
X785D01*
X815Y1278D02*
X820D01*
X815Y1286D02*
X820D01*
X815Y1262D02*
X820D01*
X815Y1270D02*
X820D01*
X815Y1302D02*
X820D01*
X815Y1310D02*
X820D01*
X815Y1294D02*
X820D01*
X815Y1214D02*
X820D01*
X815Y1222D02*
X820D01*
X815Y1206D02*
X820D01*
X815Y1246D02*
X820D01*
X815Y1254D02*
X820D01*
X815Y1230D02*
X820D01*
X815Y1318D02*
X820D01*
X517Y1326D02*
X785D01*
X752Y1302D02*
X785D01*
X752Y1318D02*
X785D01*
X752Y1278D02*
X785D01*
X517Y1262D02*
X785D01*
X517Y1254D02*
X785D01*
X517Y1238D02*
X785D01*
X517Y1246D02*
X785D01*
X815Y1238D02*
X820D01*
X752Y1214D02*
X785D01*
X517Y1230D02*
X785D01*
X752Y1206D02*
X785D01*
X763Y1403D02*
X763Y1403D01*
X752Y1366D02*
X758D01*
X752Y1408D02*
Y1423D01*
X649D02*
X752D01*
X649Y1362D02*
X752D01*
Y1372D01*
X649Y1325D02*
X752D01*
Y1264D02*
Y1325D01*
X649Y1264D02*
Y1325D01*
Y1362D02*
Y1423D01*
X517Y1438D02*
X781D01*
X517Y1446D02*
X773D01*
X517Y1414D02*
X649D01*
X517Y1422D02*
X649D01*
X517Y1398D02*
X649D01*
X517Y1406D02*
X649D01*
X517Y1390D02*
X649D01*
X517Y1350D02*
X774D01*
X517Y1358D02*
X766D01*
X517Y1342D02*
X782D01*
X517Y1374D02*
X649D01*
X517Y1382D02*
X649D01*
X517Y1366D02*
X649D01*
X752Y1294D02*
X785D01*
X752Y1310D02*
X785D01*
X752Y1270D02*
X785D01*
X752Y1286D02*
X785D01*
X649Y1227D02*
X752D01*
X649Y1264D02*
X752D01*
Y1222D02*
X785D01*
X649Y1213D02*
Y1227D01*
X616Y1213D02*
X649D01*
X517Y1286D02*
X649D01*
X517Y1294D02*
X649D01*
X517Y1278D02*
X649D01*
X517Y1310D02*
X649D01*
X517Y1318D02*
X649D01*
X517Y1302D02*
X649D01*
X517Y1222D02*
X649D01*
X517Y1270D02*
X649D01*
X517Y1214D02*
X649D01*
X604Y1208D02*
X604Y1208D01*
X517Y1206D02*
X602D01*
X457Y1870D02*
X510D01*
X444Y1878D02*
X510D01*
X464Y1846D02*
X506D01*
X462Y1862D02*
X508D01*
X440Y1886D02*
X459D01*
X464Y1854D02*
X506D01*
X487Y1766D02*
X524D01*
X444Y1822D02*
X526D01*
X488Y1732D02*
X518Y1762D01*
X462Y1838D02*
X508D01*
X457Y1830D02*
X513D01*
X465Y1744D02*
X506Y1785D01*
X25Y1806D02*
X485D01*
X25Y1814D02*
X495D01*
X125Y1790D02*
X469D01*
X125Y1798D02*
X477D01*
X125Y1782D02*
X461D01*
X125Y1774D02*
X453D01*
X439Y1761D02*
X489Y1811D01*
X125Y1766D02*
X445D01*
X439Y1761D02*
X439Y1761D01*
X439Y1761D02*
X439Y1761D01*
X479Y1758D02*
X514D01*
X471Y1750D02*
X506D01*
X465Y1734D02*
X490D01*
X465Y1742D02*
X498D01*
X488Y1732D02*
X488Y1732D01*
X465Y1726D02*
X484D01*
X465Y1718D02*
X483D01*
X465Y1710D02*
X483D01*
X465Y1694D02*
X483D01*
X465Y1702D02*
X483D01*
X465Y1638D02*
X483D01*
X465Y1678D02*
X483D01*
X465Y1686D02*
X483D01*
X465Y1662D02*
X483D01*
X465Y1670D02*
X483D01*
X125Y1758D02*
X437D01*
X25Y1670D02*
X435D01*
X465Y1646D02*
X483D01*
X465Y1654D02*
X483D01*
X465Y1630D02*
X483D01*
X465Y1622D02*
X483D01*
X25Y1646D02*
X435D01*
X465Y1614D02*
X483D01*
X391Y1886D02*
X410D01*
X344Y1878D02*
X410D01*
X362Y1862D02*
X408D01*
X357Y1870D02*
X410D01*
X291Y1886D02*
X310D01*
X262Y1862D02*
X308D01*
X364Y1854D02*
X406D01*
X364Y1846D02*
X406D01*
X362Y1838D02*
X408D01*
X264Y1854D02*
X306D01*
X264Y1846D02*
X306D01*
X244Y1878D02*
X310D01*
X191Y1886D02*
X210D01*
X257Y1870D02*
X310D01*
X25D02*
X210D01*
X117Y1886D02*
X159D01*
X33Y1883D02*
X117D01*
X25Y1878D02*
X210D01*
X25Y1838D02*
X208D01*
X25Y1854D02*
X206D01*
X25Y1862D02*
X208D01*
X25Y1846D02*
X206D01*
X357Y1830D02*
X413D01*
X344Y1822D02*
X426D01*
X244D02*
X326D01*
X125Y1750D02*
X435D01*
X262Y1838D02*
X308D01*
X257Y1830D02*
X313D01*
X25Y1822D02*
X226D01*
X125Y1734D02*
X435D01*
X125Y1742D02*
X435D01*
X125Y1726D02*
X435D01*
X125Y1718D02*
X435D01*
X125Y1717D02*
Y1798D01*
X25Y1654D02*
X435D01*
X25Y1702D02*
X435D01*
X25Y1710D02*
X435D01*
X25Y1694D02*
X435D01*
X25Y1798D02*
X125D01*
X25Y1830D02*
X213D01*
X25Y1717D02*
X125D01*
X25Y1630D02*
X435D01*
X25Y1638D02*
X435D01*
X25Y1622D02*
X435D01*
X25Y1678D02*
X435D01*
X25Y1686D02*
X435D01*
X25Y1662D02*
X435D01*
X465Y1470D02*
X483D01*
X465Y1478D02*
X483D01*
X465Y1454D02*
X483D01*
X465Y1462D02*
X483D01*
X465Y1494D02*
X483D01*
X465Y1502D02*
X483D01*
X465Y1486D02*
X483D01*
X465Y1414D02*
X483D01*
X465Y1422D02*
X483D01*
X465Y1406D02*
X483D01*
X465Y1438D02*
X483D01*
X465Y1446D02*
X483D01*
X465Y1430D02*
X483D01*
X465Y1574D02*
X483D01*
X465Y1582D02*
X483D01*
X465Y1558D02*
X483D01*
X465Y1566D02*
X483D01*
X465Y1598D02*
X483D01*
X465Y1606D02*
X483D01*
X465Y1590D02*
X483D01*
X465Y1518D02*
X483D01*
X465Y1526D02*
X483D01*
X465Y1510D02*
X483D01*
X465Y1542D02*
X483D01*
X465Y1550D02*
X483D01*
X465Y1534D02*
X483D01*
X465Y1366D02*
X483D01*
X465Y1374D02*
X483D01*
X465Y1350D02*
X483D01*
X465Y1358D02*
X483D01*
X465Y1390D02*
X483D01*
X465Y1398D02*
X483D01*
X465Y1382D02*
X483D01*
X465Y1310D02*
X483D01*
X465Y1318D02*
X483D01*
X465Y1302D02*
X483D01*
X465Y1334D02*
X483D01*
X465Y1342D02*
X483D01*
X465Y1326D02*
X483D01*
X465Y1262D02*
X483D01*
X465Y1270D02*
X483D01*
X465Y1246D02*
X483D01*
X465Y1254D02*
X483D01*
X465Y1286D02*
X483D01*
X465Y1294D02*
X483D01*
X465Y1278D02*
X483D01*
X465Y1214D02*
X483D01*
X465Y1222D02*
X483D01*
X465Y1206D02*
X483D01*
X465Y1238D02*
X483D01*
X25Y1246D02*
X435D01*
X465Y1230D02*
X483D01*
X25Y1478D02*
X435D01*
X25Y1486D02*
X435D01*
X25Y1462D02*
X435D01*
X25Y1470D02*
X435D01*
X25Y1502D02*
X435D01*
X25Y1510D02*
X435D01*
X25Y1494D02*
X435D01*
X25Y1422D02*
X435D01*
X25Y1430D02*
X435D01*
X25Y1414D02*
X435D01*
X25Y1446D02*
X435D01*
X25Y1454D02*
X435D01*
X25Y1438D02*
X435D01*
X25Y1582D02*
X435D01*
X25Y1590D02*
X435D01*
X25Y1566D02*
X435D01*
X25Y1574D02*
X435D01*
X25Y1606D02*
X435D01*
X25Y1614D02*
X435D01*
X25Y1598D02*
X435D01*
X25Y1526D02*
X435D01*
X25Y1534D02*
X435D01*
X25Y1518D02*
X435D01*
X25Y1550D02*
X435D01*
X25Y1558D02*
X435D01*
X25Y1542D02*
X435D01*
X25Y1278D02*
X435D01*
X25Y1286D02*
X435D01*
X25Y1262D02*
X435D01*
X25Y1270D02*
X435D01*
X25Y1302D02*
X435D01*
X25Y1310D02*
X435D01*
X25Y1294D02*
X435D01*
X25Y1214D02*
X435D01*
X25Y1222D02*
X435D01*
X25Y1206D02*
X435D01*
X25Y1238D02*
X435D01*
X25Y1254D02*
X435D01*
X25Y1230D02*
X435D01*
X25Y1374D02*
X435D01*
X25Y1382D02*
X435D01*
X25Y1366D02*
X435D01*
X25Y1398D02*
X435D01*
X25Y1406D02*
X435D01*
X25Y1390D02*
X435D01*
X25Y1326D02*
X435D01*
X25Y1334D02*
X435D01*
X25Y1318D02*
X435D01*
X25Y1350D02*
X435D01*
X25Y1358D02*
X435D01*
X25Y1342D02*
X435D01*
X1437Y1190D02*
X1454D01*
X1434Y1198D02*
X1454D01*
X1437Y1182D02*
X1454D01*
X1435Y1174D02*
X1454D01*
Y1170D02*
X1546D01*
X1429Y1166D02*
X1821D01*
X1410Y1158D02*
X1821D01*
X1454Y1170D02*
Y1270D01*
X1380Y1198D02*
X1386D01*
X1377Y1174D02*
X1385D01*
X1377Y1182D02*
X1383D01*
X1377Y1190D02*
X1383D01*
X1327Y1182D02*
X1343D01*
X1377Y1158D02*
X1410D01*
X1377Y1166D02*
X1391D01*
X1377Y1150D02*
X1825D01*
X1327Y1166D02*
X1343D01*
X1327Y1174D02*
X1343D01*
X1327Y1150D02*
X1343D01*
X1454Y1105D02*
X1546D01*
X1428Y1110D02*
X1833D01*
X1437Y1094D02*
X1454D01*
X1434Y1102D02*
X1454D01*
X1434Y1078D02*
X1454D01*
X1437Y1086D02*
X1454D01*
X1428Y1070D02*
X1454D01*
X1377Y1134D02*
X1833D01*
X1377Y1142D02*
X1832D01*
X1377Y1118D02*
X1833D01*
X1377Y1126D02*
X1833D01*
X1377Y1110D02*
X1392D01*
X1327Y1142D02*
X1343D01*
X1377Y1102D02*
X1386D01*
X1377Y1070D02*
X1392D01*
X1377Y1062D02*
X1454D01*
X1377Y1086D02*
X1383D01*
X1377Y1094D02*
X1383D01*
X1377Y1078D02*
X1386D01*
X1293Y1172D02*
Y1378D01*
X1285Y1198D02*
X1293D01*
X1327Y1190D02*
X1343D01*
X1327Y1198D02*
X1340D01*
X1285Y1182D02*
X1293D01*
X1285Y1193D02*
Y1247D01*
Y1174D02*
X1293D01*
X1327Y1158D02*
X1343D01*
X1327Y1155D02*
Y1395D01*
Y1134D02*
X1343D01*
X1285Y1138D02*
X1293D01*
X1285Y1172D02*
Y1182D01*
Y1134D02*
X1293D01*
X1255Y1193D02*
X1285D01*
X1225D02*
X1255D01*
Y1182D02*
X1285D01*
X1225D02*
X1285D01*
X1225D02*
X1255D01*
X1225Y1193D02*
Y1247D01*
X1127Y1174D02*
X1225D01*
X1285Y1128D02*
Y1138D01*
Y1172D02*
X1293D01*
X1285Y1126D02*
X1293D01*
X1225Y1128D02*
X1255D01*
X1225D02*
Y1182D01*
X1255Y1128D02*
X1285D01*
X1327Y1118D02*
X1343D01*
X1327Y1126D02*
X1343D01*
X1327Y1102D02*
X1343D01*
X1327Y1110D02*
X1343D01*
X1285D02*
X1293D01*
X1285Y1118D02*
X1293D01*
X1285Y1102D02*
X1293D01*
X1327Y1086D02*
X1343D01*
X1327Y1094D02*
X1343D01*
X1327Y1078D02*
X1343D01*
X1327Y1070D02*
X1343D01*
X1285Y1078D02*
X1293D01*
X1327Y1062D02*
X1343D01*
X1225Y1126D02*
X1285D01*
X1225D02*
X1285D01*
Y1094D02*
X1293D01*
X1285Y1086D02*
X1293D01*
X1285Y1072D02*
Y1126D01*
X1271Y1062D02*
X1293D01*
X1225Y1072D02*
Y1126D01*
Y1072D02*
X1285D01*
X1377Y1054D02*
X1454D01*
X1377Y1038D02*
X1454D01*
X1377Y1046D02*
X1454D01*
X1377Y1022D02*
X1454D01*
X1377Y1030D02*
X1454D01*
X1377Y1014D02*
X1454D01*
Y1005D02*
X1546D01*
X1377Y998D02*
X1833D01*
X1454Y1005D02*
Y1105D01*
X1377Y917D02*
Y1196D01*
Y1006D02*
X1454D01*
X1327Y1022D02*
X1343D01*
X1327Y1030D02*
X1343D01*
X1327Y1006D02*
X1343D01*
X1327Y1014D02*
X1343D01*
X1327Y1046D02*
X1343D01*
X1327Y1054D02*
X1343D01*
X1327Y1038D02*
X1343D01*
X1377Y990D02*
X1833D01*
X1327Y998D02*
X1343D01*
X1377Y982D02*
X1833D01*
X1327D02*
X1343D01*
X1327Y990D02*
X1343D01*
X1327Y974D02*
X1343D01*
X1377Y966D02*
X1833D01*
X1377Y974D02*
X1833D01*
X1377Y950D02*
X1833D01*
X1377Y958D02*
X1833D01*
X1377Y934D02*
X1833D01*
X1377Y942D02*
X1833D01*
X1377Y926D02*
X1556D01*
X1377Y917D02*
X1546D01*
X1377Y918D02*
X1547D01*
X1500Y867D02*
X1601D01*
X1360Y883D02*
X1546D01*
X1327Y934D02*
X1343D01*
X1327Y942D02*
X1343D01*
X1327Y910D02*
X1343D01*
X1327Y918D02*
X1343D01*
X1327Y958D02*
X1343D01*
X1327Y966D02*
X1343D01*
X1327Y950D02*
X1343D01*
X1327Y870D02*
X1603D01*
X1327Y878D02*
X1550D01*
X1327Y867D02*
X1500D01*
X1327Y894D02*
X1344D01*
X1327Y902D02*
X1343D01*
X1327Y886D02*
X1350D01*
X1327Y960D02*
Y1155D01*
X1293Y977D02*
Y1138D01*
X1285Y982D02*
X1293D01*
X1282Y1038D02*
X1293D01*
X1285Y977D02*
X1293D01*
X1285D02*
Y987D01*
Y943D02*
X1293D01*
X1343Y900D02*
Y1196D01*
X1327Y867D02*
Y960D01*
X1285Y934D02*
X1293D01*
Y850D02*
Y943D01*
X1285Y933D02*
Y943D01*
Y942D02*
X1293D01*
X1281Y1046D02*
X1293D01*
X1278Y1054D02*
X1293D01*
X1280Y1030D02*
X1293D01*
X1275Y1022D02*
X1293D01*
X1262Y1014D02*
X1293D01*
X1255Y987D02*
X1285D01*
X1225D02*
X1255D01*
X1225Y933D02*
Y987D01*
X1327Y926D02*
X1343D01*
X1285D02*
X1293D01*
X1285Y902D02*
X1293D01*
X1285Y910D02*
X1293D01*
X1255Y931D02*
X1285D01*
X1255Y933D02*
X1285D01*
Y918D02*
X1293D01*
X1285Y886D02*
X1293D01*
X1285Y894D02*
X1293D01*
X1285Y878D02*
X1293D01*
X1285Y877D02*
Y931D01*
X1255Y877D02*
X1285D01*
X1293Y825D02*
Y850D01*
X1225Y931D02*
X1255D01*
X1225Y933D02*
X1255D01*
X1225Y877D02*
Y931D01*
Y877D02*
X1255D01*
X1122Y1190D02*
X1293D01*
X1126Y1182D02*
X1225D01*
X1125Y1166D02*
X1225D01*
X1121Y1158D02*
X1225D01*
X1110Y1150D02*
X1225D01*
X1095Y1142D02*
X1225D01*
X1048Y1190D02*
X1052D01*
X1048Y1174D02*
X1052D01*
X1048Y1182D02*
X1052D01*
Y1154D02*
Y1216D01*
X1048Y1166D02*
X1052D01*
X1048Y1158D02*
X1052D01*
X1048Y1150D02*
X1052D01*
X1045Y1142D02*
X1055D01*
X1048Y1154D02*
Y1216D01*
X1086Y1134D02*
X1225D01*
X1040Y1126D02*
X1225D01*
X1040Y1086D02*
X1225D01*
X1040Y1102D02*
X1225D01*
X1040Y1134D02*
X1064D01*
X1040Y1082D02*
Y1137D01*
Y1094D02*
X1225D01*
X1052Y1062D02*
X1239D01*
X1050Y1070D02*
X1293D01*
X1051Y1054D02*
X1232D01*
X1048Y1046D02*
X1229D01*
X1045Y1078D02*
X1225D01*
X1041Y1038D02*
X1228D01*
X1040Y1110D02*
X1225D01*
X1040Y1118D02*
X1225D01*
X1009Y1022D02*
X1235D01*
X1001Y1030D02*
X1230D01*
X990Y1041D02*
X1011Y1021D01*
X1014Y1014D02*
X1248D01*
X1011Y1021D02*
X1011Y1021D01*
X1011Y1021D01*
X998Y1190D02*
X1002D01*
X998Y1198D02*
X1002D01*
X998Y1174D02*
X1002D01*
X998Y1182D02*
X1002D01*
X998Y1166D02*
X1002D01*
X998Y1154D02*
Y1216D01*
Y1158D02*
X1002D01*
X998Y1150D02*
X1002D01*
X995Y1142D02*
X1005D01*
X1010Y1082D02*
Y1137D01*
X1002Y1154D02*
Y1216D01*
X990Y1041D02*
Y1137D01*
X952Y1154D02*
Y1216D01*
X948Y1166D02*
X952D01*
X948Y1150D02*
X952D01*
X948Y1158D02*
X952D01*
X948Y1182D02*
X952D01*
X948Y1190D02*
X952D01*
X948Y1174D02*
X952D01*
X960Y1100D02*
Y1137D01*
X990Y1134D02*
X1010D01*
X948Y1142D02*
X955D01*
X948Y1131D02*
Y1239D01*
Y1134D02*
X960D01*
X990Y1118D02*
X1010D01*
X990Y1126D02*
X1010D01*
X990Y1102D02*
X1010D01*
X990Y1110D02*
X1010D01*
X990Y1086D02*
X1010D01*
X990Y1094D02*
X1010D01*
X990Y1078D02*
X1005D01*
X990Y1046D02*
X1002D01*
X990Y1070D02*
X1000D01*
X993Y1038D02*
X1009D01*
X990Y1054D02*
X999D01*
X990Y1062D02*
X998D01*
X975Y1006D02*
X983D01*
X959Y1102D02*
X960D01*
X953Y1110D02*
X960D01*
X959Y1078D02*
X960D01*
X902Y1131D02*
X948D01*
X815Y1126D02*
X960D01*
X815Y1118D02*
X960D01*
Y1061D02*
Y1080D01*
X952Y1069D02*
X960Y1061D01*
X959Y1062D02*
X960D01*
X953Y1070D02*
X960D01*
X1089Y974D02*
X1225D01*
X1089Y982D02*
X1225D01*
X1090Y958D02*
X1225D01*
X1089Y966D02*
X1225D01*
X1095Y942D02*
X1225D01*
X1090Y950D02*
X1225D01*
X1098Y934D02*
X1225D01*
X1090Y948D02*
Y960D01*
X1098Y869D02*
Y931D01*
X1078Y998D02*
X1293D01*
X1015Y1006D02*
X1293D01*
X1085Y990D02*
X1293D01*
X1038Y950D02*
X1044D01*
X1025Y990D02*
X1035D01*
X1018Y998D02*
X1042D01*
X1024Y958D02*
X1036D01*
X1045Y942D02*
X1055D01*
X1048Y934D02*
X1052D01*
X1052Y869D02*
Y931D01*
X1098Y918D02*
X1225D01*
X1098Y926D02*
X1225D01*
X1098Y886D02*
X1225D01*
X1098Y910D02*
X1225D01*
X1098Y902D02*
X1225D01*
X1048Y926D02*
X1052D01*
X1098Y894D02*
X1225D01*
X1098Y870D02*
X1293D01*
X1097Y862D02*
X1293D01*
X1092Y854D02*
X1293D01*
X1098Y878D02*
X1225D01*
X1048Y869D02*
Y931D01*
Y886D02*
X1052D01*
X1048Y894D02*
X1052D01*
X1048Y870D02*
X1052D01*
X1048Y878D02*
X1052D01*
X1048Y910D02*
X1052D01*
X1048Y918D02*
X1052D01*
X1048Y902D02*
X1052D01*
X1042Y854D02*
X1058D01*
X1047Y862D02*
X1053D01*
X1040Y850D02*
Y852D01*
X1029Y982D02*
X1031D01*
X1029Y974D02*
X1031D01*
X1028Y966D02*
X1032D01*
X1015Y1000D02*
Y1010D01*
X995Y942D02*
X1005D01*
X998Y934D02*
X1002D01*
X998Y869D02*
Y931D01*
X1002Y869D02*
Y931D01*
X985Y1000D02*
Y1004D01*
X975Y1014D02*
X985Y1004D01*
X975Y998D02*
X982D01*
X975Y991D02*
Y1014D01*
X951Y956D02*
X959Y948D01*
X947Y950D02*
X957D01*
X945Y942D02*
X955D01*
X948Y934D02*
X952D01*
X952Y869D02*
Y931D01*
X998Y894D02*
X1002D01*
X998Y902D02*
X1002D01*
X998Y878D02*
X1002D01*
X998Y886D02*
X1002D01*
X998Y918D02*
X1002D01*
X998Y926D02*
X1002D01*
X998Y910D02*
X1002D01*
X992Y854D02*
X1008D01*
X1010Y850D02*
Y852D01*
X998Y870D02*
X1002D01*
X997Y862D02*
X1003D01*
X948Y894D02*
X952D01*
X948Y902D02*
X952D01*
X948Y886D02*
X952D01*
X948Y918D02*
X952D01*
X948Y926D02*
X952D01*
X948Y910D02*
X952D01*
X947Y862D02*
X953D01*
X942Y854D02*
X958D01*
X925Y846D02*
X975D01*
X948Y870D02*
X952D01*
X948Y878D02*
X952D01*
X1517Y825D02*
Y833D01*
X1601D01*
X1517Y825D02*
X1527D01*
X1483D02*
Y833D01*
X1473Y825D02*
X1483D01*
X1471Y822D02*
X1473D01*
X1471Y814D02*
X1473D01*
Y795D02*
Y825D01*
X1471Y806D02*
X1473D01*
X1471Y798D02*
X1473D01*
X1471Y795D02*
Y825D01*
X1327Y830D02*
X1483D01*
X1327Y833D02*
X1483D01*
X1417Y825D02*
X1471D01*
X1337Y822D02*
X1417D01*
X1337Y806D02*
X1417D01*
X1337Y814D02*
X1417D01*
X1337Y798D02*
X1417D01*
Y795D02*
Y825D01*
X1471Y782D02*
X1473D01*
X1471Y790D02*
X1473D01*
Y765D02*
X1527D01*
X1471Y774D02*
X1473D01*
Y765D02*
Y795D01*
X1471Y766D02*
X1473D01*
X1471Y765D02*
Y795D01*
X1421Y436D02*
X1425Y431D01*
X1543D01*
X1421Y436D02*
X1421Y436D01*
X1421Y436D01*
X1337Y782D02*
X1417D01*
X1337Y790D02*
X1417D01*
Y765D02*
X1471D01*
X1337Y774D02*
X1417D01*
Y765D02*
Y795D01*
X1337Y766D02*
X1417D01*
X1120Y440D02*
X1410D01*
X1417Y438D02*
X1551D01*
X1285Y403D02*
X1412D01*
X1327Y825D02*
X1337D01*
X1327D02*
Y833D01*
X1283Y825D02*
X1293D01*
X1281Y822D02*
X1283D01*
X1281Y806D02*
X1283D01*
X1281Y814D02*
X1283D01*
X1281Y798D02*
X1283D01*
X1337Y795D02*
Y825D01*
X1283Y795D02*
Y825D01*
X1337Y765D02*
Y795D01*
X1281D02*
Y825D01*
X1283Y765D02*
Y795D01*
X1075Y846D02*
X1293D01*
X1054Y830D02*
X1293D01*
X1227Y825D02*
X1281D01*
X1227Y795D02*
Y825D01*
X1054Y822D02*
X1227D01*
Y765D02*
Y795D01*
X1281Y782D02*
X1283D01*
X1281Y790D02*
X1283D01*
Y765D02*
X1337D01*
X1279Y410D02*
X1404D01*
X1281Y774D02*
X1283D01*
X1281Y765D02*
Y795D01*
Y766D02*
X1283D01*
X1408Y405D02*
X1408Y405D01*
X1408Y405D01*
X1404Y410D02*
X1408Y405D01*
X1283Y406D02*
X1408D01*
X1227Y765D02*
X1281D01*
X1109Y436D02*
X1109Y436D01*
X1109Y436D02*
X1109Y436D01*
X1127Y406D02*
X1243D01*
X1127Y410D02*
X1247D01*
X1126Y398D02*
X1238D01*
X1105Y431D02*
X1109Y436D01*
X1122Y390D02*
X1236D01*
X1480Y342D02*
X1530D01*
X1462Y350D02*
X1548D01*
X1492Y326D02*
X1518D01*
X1488Y334D02*
X1522D01*
X1496Y310D02*
X1514D01*
X1495Y318D02*
X1515D01*
X1495Y302D02*
X1515D01*
X1480Y278D02*
X1530D01*
X1462Y270D02*
X1548D01*
X1492Y294D02*
X1518D01*
X1488Y286D02*
X1522D01*
X1496Y169D02*
Y251D01*
X1285Y373D02*
X1571D01*
X1279Y366D02*
X1578D01*
X1126Y350D02*
X1448D01*
X1126Y358D02*
X1586D01*
X1126Y334D02*
X1422D01*
X1126Y342D02*
X1430D01*
X1126Y294D02*
X1418D01*
X1126Y262D02*
X1690D01*
X1126Y254D02*
X1690D01*
X1126Y270D02*
X1448D01*
X1126Y278D02*
X1430D01*
X1414Y251D02*
X1496D01*
Y238D02*
X1526D01*
X1496Y246D02*
X1536D01*
X1496Y222D02*
X1516D01*
X1496Y230D02*
X1520D01*
X1496Y206D02*
X1515D01*
X1496Y214D02*
X1515D01*
X1496Y198D02*
X1516D01*
X1496Y174D02*
X1536D01*
X1375Y165D02*
X1674D01*
X1496Y182D02*
X1526D01*
X1496Y190D02*
X1520D01*
X1414Y169D02*
X1496D01*
X1367Y126D02*
X2170D01*
X1285Y118D02*
X2183D01*
X1285Y102D02*
X2166D01*
X1285Y110D02*
X2176D01*
X1375Y135D02*
X1680D01*
X1375Y166D02*
X1675D01*
X1375Y134D02*
X2163D01*
X1285Y86D02*
X2156D01*
X1285Y94D02*
X2160D01*
X1285Y54D02*
X2154D01*
X1285Y70D02*
X2152D01*
X1285Y78D02*
X2153D01*
X1285Y62D02*
X2152D01*
X1126Y318D02*
X1415D01*
X1126Y326D02*
X1418D01*
X1126Y302D02*
X1415D01*
X1126Y310D02*
X1414D01*
X1126Y366D02*
X1247D01*
X1126Y294D02*
Y366D01*
X1414Y169D02*
Y251D01*
X1126Y238D02*
X1414D01*
X1367Y174D02*
X1414D01*
X1126Y210D02*
Y282D01*
X1148Y47D02*
Y153D01*
X1114Y382D02*
X1237D01*
X1126Y246D02*
X1414D01*
X1054Y366D02*
X1126D01*
X1054Y294D02*
X1126D01*
X1054D02*
X1126D01*
Y222D02*
X1414D01*
X1126Y230D02*
X1414D01*
X1126Y214D02*
X1414D01*
X1285Y142D02*
X1322D01*
X1285Y150D02*
X1321D01*
X1285Y126D02*
X1333D01*
X1285Y134D02*
X1325D01*
X1188Y153D02*
X1285D01*
X1148Y134D02*
X1188D01*
X1285Y47D02*
Y153D01*
X1188Y47D02*
X1285D01*
X1188D02*
Y153D01*
X1148Y110D02*
X1188D01*
X1148Y118D02*
X1188D01*
X1148Y102D02*
X1188D01*
X1148Y142D02*
X1188D01*
X1148Y150D02*
X1188D01*
X1148Y126D02*
X1188D01*
X1148Y62D02*
X1188D01*
X1148Y70D02*
X1188D01*
X1148Y54D02*
X1188D01*
X1148Y86D02*
X1188D01*
X1148Y94D02*
X1188D01*
X1148Y78D02*
X1188D01*
X1052Y814D02*
X1227D01*
X1051Y838D02*
X1293D01*
X1048Y806D02*
X1227D01*
X1000Y766D02*
X1227D01*
X1046Y846D02*
X1075D01*
X1037Y798D02*
X1227D01*
X992Y774D02*
X1227D01*
X1000Y734D02*
X1840D01*
X992Y726D02*
X1840D01*
X990Y646D02*
X1858D01*
X1005Y750D02*
X1840D01*
X1003Y758D02*
X1840D01*
X1003Y742D02*
X1840D01*
X990Y710D02*
X1840D01*
X990Y718D02*
X1840D01*
X990Y694D02*
X1840D01*
X990Y702D02*
X1840D01*
X954Y798D02*
X1013D01*
X953Y790D02*
X1227D01*
X948Y782D02*
X1227D01*
X990Y654D02*
X1850D01*
X990Y662D02*
X1842D01*
X990Y638D02*
X1864D01*
X990Y678D02*
X1840D01*
X990Y686D02*
X1840D01*
X990Y670D02*
X1840D01*
X990Y494D02*
X1724D01*
X990Y502D02*
X1724D01*
X990Y478D02*
X1724D01*
X990Y486D02*
X1724D01*
X990Y518D02*
X1724D01*
X990Y526D02*
X1724D01*
X990Y510D02*
X1724D01*
X990Y462D02*
X2015D01*
X990Y470D02*
X1724D01*
X990Y454D02*
X1724D01*
X990Y438D02*
X1113D01*
X990Y446D02*
X1724D01*
X990Y430D02*
X1090D01*
X990Y598D02*
X1864D01*
X990Y606D02*
X1864D01*
X990Y582D02*
X2015D01*
X990Y590D02*
X1864D01*
X990Y622D02*
X1864D01*
X990Y630D02*
X1864D01*
X990Y614D02*
X1864D01*
X990Y566D02*
X2015D01*
X990Y574D02*
X2015D01*
X990Y558D02*
X2015D01*
X990Y542D02*
X2015D01*
X990Y550D02*
X2015D01*
X990Y534D02*
X1724D01*
X975Y846D02*
X1004D01*
X945Y822D02*
X996D01*
X954Y806D02*
X1002D01*
X951Y814D02*
X998D01*
X940Y774D02*
X958D01*
X940Y766D02*
X950D01*
X940Y662D02*
X960D01*
X940Y726D02*
X958D01*
X940Y734D02*
X950D01*
X940Y718D02*
X960D01*
X841Y830D02*
X996D01*
X833Y838D02*
X999D01*
X940Y694D02*
X960D01*
X940Y710D02*
X960D01*
X940Y702D02*
X960D01*
X940Y686D02*
X960D01*
X940Y646D02*
X960D01*
X940Y638D02*
X960D01*
X935Y630D02*
X960D01*
X940Y670D02*
X960D01*
X940Y678D02*
X960D01*
X940Y654D02*
X960D01*
X903Y598D02*
X960D01*
X895Y590D02*
X960D01*
X895Y574D02*
X960D01*
X895Y582D02*
X960D01*
X927Y622D02*
X960D01*
X919Y614D02*
X960D01*
X911Y606D02*
X960D01*
X895Y542D02*
X960D01*
X516Y438D02*
X960D01*
X756Y430D02*
X960D01*
X895Y558D02*
X960D01*
X895Y566D02*
X960D01*
X895Y550D02*
X960D01*
X25Y502D02*
X960D01*
X25Y510D02*
X960D01*
X25Y494D02*
X960D01*
X25Y526D02*
X960D01*
X25Y534D02*
X960D01*
X25Y518D02*
X960D01*
X25Y454D02*
X960D01*
X25Y462D02*
X960D01*
X25Y446D02*
X960D01*
X25Y478D02*
X960D01*
X25Y486D02*
X960D01*
X25Y470D02*
X960D01*
X990Y382D02*
X1086D01*
X990Y422D02*
X1079D01*
X1054Y366D02*
X1126D01*
X990Y374D02*
X1240D01*
X990Y406D02*
X1073D01*
X990Y414D02*
X1075D01*
X990Y390D02*
X1078D01*
X990Y358D02*
X1054D01*
X990Y366D02*
X1054D01*
Y282D02*
X1126D01*
X1054Y294D02*
Y366D01*
X990Y350D02*
X1054D01*
Y210D02*
Y282D01*
X990Y342D02*
X1054D01*
X990Y398D02*
X1074D01*
X990Y326D02*
X1054D01*
X990Y334D02*
X1054D01*
X990Y310D02*
X1054D01*
X990Y318D02*
X1054D01*
X990Y302D02*
X1054D01*
X990Y286D02*
X1422D01*
X990Y294D02*
X1054D01*
X990Y278D02*
X1054D01*
X990Y262D02*
X1054D01*
X990Y270D02*
X1054D01*
X990Y254D02*
X1054D01*
X983Y222D02*
X1054D01*
X975Y214D02*
X1054D01*
Y210D02*
X1126D01*
X1051Y153D02*
X1148D01*
X990Y238D02*
X1054D01*
X990Y246D02*
X1054D01*
X989Y230D02*
X1054D01*
X1051Y126D02*
X1051D01*
X1040Y134D02*
X1051D01*
Y47D02*
X1148D01*
X1051D02*
Y74D01*
X967Y206D02*
X1414D01*
X961Y198D02*
X1414D01*
X961Y182D02*
X1414D01*
X961Y190D02*
X1414D01*
X961Y166D02*
X1325D01*
X961Y174D02*
X1333D01*
X961Y158D02*
X1322D01*
X25Y30D02*
X2168D01*
X25Y38D02*
X2161D01*
X25Y27D02*
X2171D01*
X961Y150D02*
X1051D01*
X488Y142D02*
X1051D01*
X25Y46D02*
X2156D01*
X941Y358D02*
X960D01*
X941Y366D02*
X960D01*
X941Y342D02*
X960D01*
X941Y350D02*
X960D01*
X941Y382D02*
X960D01*
X941Y390D02*
X960D01*
X941Y374D02*
X960D01*
X990Y235D02*
Y725D01*
X941Y334D02*
X960D01*
X941Y326D02*
X960D01*
Y241D02*
Y725D01*
X921Y318D02*
X960D01*
X940Y221D02*
X960Y241D01*
X915Y310D02*
X960D01*
X756Y398D02*
X960D01*
X907Y302D02*
X960D01*
X897Y294D02*
X960D01*
X756Y414D02*
X960D01*
X756Y422D02*
X960D01*
X756Y406D02*
X960D01*
X489Y262D02*
X960D01*
X380Y254D02*
X960D01*
X380Y246D02*
X960D01*
X756Y278D02*
X960D01*
X756Y286D02*
X960D01*
X502Y270D02*
X960D01*
X986Y224D02*
X986Y224D01*
X986Y224D02*
X986Y224D01*
X961Y200D02*
X986Y224D01*
X961Y149D02*
Y200D01*
X1051Y126D02*
Y153D01*
X961Y134D02*
X1010D01*
X1047Y70D02*
X1051D01*
X961Y65D02*
Y85D01*
Y115D02*
Y137D01*
Y85D02*
X991D01*
X961Y126D02*
X999D01*
X889Y149D02*
X961D01*
Y118D02*
X993D01*
X379Y238D02*
X957D01*
X375Y230D02*
X949D01*
X889Y137D02*
X961D01*
Y70D02*
X1003D01*
X398Y62D02*
X1051D01*
X398Y54D02*
X1051D01*
X961Y78D02*
X995D01*
X961Y115D02*
X991D01*
X889Y65D02*
X961D01*
X857Y1190D02*
X902D01*
X850Y1198D02*
X902D01*
X864Y1174D02*
X902D01*
X862Y1182D02*
X902D01*
X850Y1195D02*
Y1405D01*
X820Y1195D02*
Y1399D01*
X902Y1131D02*
Y1239D01*
X857Y1150D02*
X902D01*
X844Y1142D02*
X902D01*
X864Y1166D02*
X902D01*
X862Y1158D02*
X902D01*
X815Y1198D02*
X820D01*
X815Y1192D02*
Y1345D01*
Y1142D02*
X826D01*
X752Y1198D02*
X785D01*
X752Y1166D02*
X785D01*
X752Y1174D02*
X785D01*
X617Y1150D02*
X785D01*
X815Y1134D02*
X902D01*
X815Y1110D02*
X917D01*
X752Y1118D02*
X785D01*
X617Y1142D02*
X785D01*
X756Y1110D02*
X785D01*
X924Y1054D02*
X924Y1054D01*
X815Y1062D02*
X920D01*
X815Y1094D02*
X908D01*
X815Y1102D02*
X911D01*
X920Y1065D02*
Y1068D01*
X945Y983D02*
Y1034D01*
X924Y1054D02*
X945Y1034D01*
X935Y990D02*
X945D01*
X924Y1054D02*
X924Y1054D01*
X879Y990D02*
X915D01*
X815Y1054D02*
X925D01*
X815Y1070D02*
X917D01*
X815Y1038D02*
X941D01*
X815Y1046D02*
X933D01*
X815Y1086D02*
X908D01*
X764Y1102D02*
X785D01*
X815Y1078D02*
X911D01*
X815Y1022D02*
X945D01*
X815Y1030D02*
X945D01*
X815Y1014D02*
X945D01*
X815Y998D02*
X945D01*
X815Y1006D02*
X945D01*
X815Y990D02*
X859D01*
X752Y1182D02*
X785D01*
X752Y1190D02*
X785D01*
X758Y1108D02*
X758Y1108D01*
X752Y1126D02*
X785D01*
X752Y1112D02*
Y1128D01*
Y1165D02*
Y1227D01*
X785Y1081D02*
Y1339D01*
X758Y1108D02*
X785Y1081D01*
X780Y1086D02*
X785D01*
X758Y1108D02*
X758Y1108D01*
X772Y1094D02*
X785D01*
X649Y1165D02*
X752D01*
X623Y1179D02*
X649D01*
Y1128D02*
X752D01*
X649Y1165D02*
Y1179D01*
X618Y1174D02*
X649D01*
X622Y1110D02*
X649D01*
X627Y1094D02*
X649D01*
X626Y1102D02*
X649D01*
X625Y1086D02*
X649D01*
Y1067D02*
Y1128D01*
X621Y1078D02*
X649D01*
X752Y1022D02*
X765D01*
X752Y1072D02*
X765Y1059D01*
X752Y1006D02*
X765D01*
X752Y1014D02*
X765D01*
X752Y1070D02*
X754D01*
X752Y1067D02*
Y1072D01*
X649Y1030D02*
X752D01*
Y990D02*
X765D01*
X752Y998D02*
X765D01*
X752Y982D02*
X765D01*
X617Y1038D02*
X765D01*
X617Y1062D02*
X762D01*
X617Y1030D02*
X765D01*
X649Y1067D02*
X752D01*
X617Y1070D02*
X649D01*
X617Y1022D02*
X649D01*
X627Y998D02*
X649D01*
X627Y990D02*
X649D01*
X624Y982D02*
X649D01*
X619Y1014D02*
X649D01*
X617Y1016D02*
Y1074D01*
X625Y1006D02*
X649D01*
X894Y974D02*
X900D01*
X890Y982D02*
X904D01*
X895Y958D02*
X899D01*
X891Y950D02*
X903D01*
X896Y966D02*
X898D01*
X948Y869D02*
Y931D01*
X883Y942D02*
X905D01*
X902Y869D02*
Y931D01*
X815Y982D02*
X848D01*
X815Y942D02*
X855D01*
X815Y958D02*
X843D01*
X815Y974D02*
X844D01*
X815Y950D02*
X847D01*
X815Y926D02*
X902D01*
X815Y934D02*
X902D01*
X815Y918D02*
X902D01*
X815Y902D02*
X902D01*
X815Y910D02*
X902D01*
X815Y894D02*
X902D01*
X873Y798D02*
X896D01*
X865Y806D02*
X896D01*
X888Y782D02*
X902D01*
X881Y790D02*
X897D01*
X886Y786D02*
X886Y786D01*
X886Y786D01*
X940Y641D02*
Y775D01*
X910Y647D02*
Y775D01*
X892Y774D02*
X910D01*
X817Y854D02*
X908D01*
X815Y862D02*
X903D01*
X849Y822D02*
X905D01*
X825Y846D02*
X925D01*
X815Y878D02*
X902D01*
X815Y886D02*
X902D01*
X815Y870D02*
X902D01*
X857Y814D02*
X899D01*
X815Y856D02*
X886Y786D01*
X840Y782D02*
X847D01*
X840Y789D02*
X856Y773D01*
X840Y774D02*
X855D01*
X815Y966D02*
X842D01*
X752Y974D02*
X765D01*
X752Y918D02*
X765D01*
X752Y934D02*
X765D01*
X752Y914D02*
Y935D01*
Y968D02*
Y1030D01*
Y926D02*
X765D01*
X815Y856D02*
Y1148D01*
X756Y910D02*
X765D01*
X764Y902D02*
X765D01*
Y901D02*
Y1059D01*
X752Y914D02*
X765Y901D01*
X745Y868D02*
Y873D01*
X649Y968D02*
X752D01*
X649Y935D02*
X752D01*
X617Y950D02*
X765D01*
X649Y968D02*
Y1030D01*
X617Y918D02*
X649D01*
X622Y910D02*
X649D01*
X629Y894D02*
X649D01*
X627Y902D02*
X649D01*
Y873D02*
X745D01*
X649D02*
Y935D01*
X629Y886D02*
X649D01*
X627Y878D02*
X649D01*
X775Y821D02*
X778Y819D01*
X775Y824D02*
X780Y819D01*
X810Y774D02*
X810D01*
X775Y822D02*
X777D01*
X775Y821D02*
Y824D01*
X752Y802D02*
X756Y797D01*
X840Y750D02*
Y789D01*
X802Y766D02*
X810D01*
X752Y762D02*
Y802D01*
X810Y750D02*
Y774D01*
X649Y868D02*
X745D01*
X622Y870D02*
X745D01*
X752Y798D02*
X756D01*
X649Y806D02*
Y809D01*
Y868D01*
Y806D02*
Y809D01*
X752Y782D02*
X757D01*
X752Y790D02*
X756D01*
X752Y774D02*
X760D01*
X649Y762D02*
Y806D01*
X620Y782D02*
X649D01*
X623Y774D02*
X649D01*
X588Y1192D02*
X604Y1208D01*
X588Y1192D02*
X588Y1192D01*
X617Y1166D02*
X649D01*
X617Y1173D02*
X623Y1179D01*
X517Y1182D02*
X583D01*
X617Y1134D02*
X785D01*
X617Y1158D02*
X785D01*
X617Y1126D02*
X649D01*
X617Y1116D02*
Y1173D01*
X583Y1116D02*
Y1180D01*
X617Y1118D02*
X649D01*
X517Y1190D02*
X586D01*
X517Y1198D02*
X594D01*
X517Y1158D02*
X583D01*
X517Y1174D02*
X583D01*
X517Y1166D02*
X583D01*
X465Y1182D02*
X483D01*
X517Y1150D02*
X583D01*
X517Y1126D02*
X583D01*
X517Y1134D02*
X583D01*
X517Y1118D02*
X583D01*
X517Y1142D02*
X583D01*
X465Y1126D02*
X483D01*
X465Y1118D02*
X483D01*
X517Y1062D02*
X583D01*
X517Y1070D02*
X583D01*
X517Y1094D02*
X573D01*
X517Y1110D02*
X578D01*
X517Y1086D02*
X575D01*
X617Y1046D02*
X765D01*
X617Y1054D02*
X765D01*
X583Y1016D02*
Y1074D01*
X517Y982D02*
X576D01*
X517Y1038D02*
X583D01*
X517Y1046D02*
X583D01*
X517Y1022D02*
X583D01*
X517Y1030D02*
X583D01*
X517Y1078D02*
X579D01*
X517Y1102D02*
X574D01*
X517Y1054D02*
X583D01*
X517Y1006D02*
X575D01*
X517Y1014D02*
X581D01*
X517Y990D02*
X573D01*
X517Y998D02*
X573D01*
X465Y1022D02*
X483D01*
X465Y982D02*
X483D01*
X465Y1190D02*
X483D01*
X465Y1198D02*
X483D01*
X465Y1150D02*
X483D01*
X465Y1174D02*
X483D01*
X465Y1166D02*
X483D01*
X25Y1174D02*
X435D01*
X465Y1158D02*
X483D01*
X465Y1094D02*
X483D01*
X465Y1102D02*
X483D01*
X465Y1086D02*
X483D01*
X465Y1134D02*
X483D01*
X465Y1142D02*
X483D01*
X465Y1110D02*
X483D01*
X25Y1158D02*
X435D01*
X25Y1166D02*
X435D01*
X25Y1142D02*
X435D01*
X25Y1150D02*
X435D01*
X25Y1190D02*
X435D01*
X25Y1198D02*
X435D01*
X25Y1182D02*
X435D01*
X25Y1102D02*
X435D01*
X25Y1110D02*
X435D01*
X25Y1094D02*
X435D01*
X25Y1126D02*
X435D01*
X25Y1134D02*
X435D01*
X25Y1118D02*
X435D01*
X465Y1070D02*
X483D01*
X465Y1078D02*
X483D01*
X465Y1046D02*
X483D01*
X465Y1062D02*
X483D01*
X465Y1054D02*
X483D01*
X25Y1078D02*
X435D01*
X25Y1054D02*
X435D01*
X465Y998D02*
X483D01*
X465Y1006D02*
X483D01*
X465Y990D02*
X483D01*
X465Y1030D02*
X483D01*
X465Y1038D02*
X483D01*
X465Y1014D02*
X483D01*
X25Y1038D02*
X435D01*
X25Y1046D02*
X435D01*
X25Y1030D02*
X435D01*
X25Y1070D02*
X435D01*
X25Y1086D02*
X435D01*
X25Y1062D02*
X435D01*
X25Y990D02*
X435D01*
X25Y998D02*
X435D01*
X25Y982D02*
X435D01*
X25Y1014D02*
X435D01*
X25Y1022D02*
X435D01*
X25Y1006D02*
X435D01*
X617Y958D02*
X765D01*
X617Y966D02*
X765D01*
X617Y934D02*
X649D01*
X617Y942D02*
X765D01*
X617Y974D02*
X649D01*
X517Y958D02*
X583D01*
X617Y926D02*
X649D01*
X583Y914D02*
Y974D01*
X517Y774D02*
Y1713D01*
X617Y914D02*
Y974D01*
X517Y966D02*
X583D01*
X517Y974D02*
X583D01*
X517Y942D02*
X583D01*
X517Y950D02*
X583D01*
X465Y934D02*
X483D01*
X465Y942D02*
X483D01*
X517Y934D02*
X583D01*
X517Y918D02*
X583D01*
X517Y926D02*
X583D01*
X517Y910D02*
X578D01*
X465Y918D02*
X483D01*
X465Y926D02*
X483D01*
X465Y910D02*
X483D01*
X517Y862D02*
X591D01*
X517Y870D02*
X578D01*
X609Y862D02*
X649D01*
X517Y854D02*
X649D01*
X517Y886D02*
X571D01*
X517Y894D02*
X571D01*
X517Y878D02*
X573D01*
X602Y798D02*
X649D01*
X517Y846D02*
X649D01*
X614Y790D02*
X649D01*
X517Y774D02*
X558D01*
X517Y830D02*
X649D01*
X517Y838D02*
X649D01*
X517Y814D02*
X649D01*
X517Y822D02*
X649D01*
X517Y902D02*
X573D01*
X465Y894D02*
X483D01*
X465Y878D02*
X483D01*
X517Y798D02*
X579D01*
X517Y806D02*
X649D01*
X517Y790D02*
X567D01*
X517Y782D02*
X561D01*
X465Y966D02*
X483D01*
X465Y974D02*
X483D01*
X465Y950D02*
X483D01*
X465Y958D02*
X483D01*
X25D02*
X435D01*
X25Y974D02*
X435D01*
X25Y950D02*
X435D01*
X465Y886D02*
X483D01*
X465Y902D02*
X483D01*
X465Y870D02*
X483D01*
X465Y706D02*
Y1744D01*
X435Y700D02*
Y1750D01*
X483Y774D02*
Y1720D01*
X25Y918D02*
X435D01*
X25Y926D02*
X435D01*
X25Y902D02*
X435D01*
X25Y910D02*
X435D01*
X25Y942D02*
X435D01*
X25Y966D02*
X435D01*
X25Y934D02*
X435D01*
X25Y886D02*
X435D01*
X25Y894D02*
X435D01*
X25Y878D02*
X435D01*
X25Y870D02*
X435D01*
X25Y1717D02*
X25Y723D01*
Y862D02*
X435D01*
X465Y830D02*
X483D01*
X465Y838D02*
X483D01*
X465Y814D02*
X483D01*
X465Y822D02*
X483D01*
X465Y854D02*
X483D01*
X465Y862D02*
X483D01*
X465Y846D02*
X483D01*
X465Y798D02*
X483D01*
X465Y806D02*
X483D01*
X465Y790D02*
X483D01*
X465Y774D02*
X483D01*
X465Y782D02*
X483D01*
X465Y766D02*
X475D01*
X25Y822D02*
X435D01*
X25Y830D02*
X435D01*
X25Y814D02*
X435D01*
X25Y846D02*
X435D01*
X25Y854D02*
X435D01*
X25Y838D02*
X435D01*
X25Y774D02*
X435D01*
X25Y782D02*
X435D01*
X25Y766D02*
X435D01*
X25Y798D02*
X435D01*
X25Y806D02*
X435D01*
X25Y790D02*
X435D01*
X940Y758D02*
X947D01*
X900Y766D02*
X910D01*
X940Y742D02*
X947D01*
X940Y750D02*
X946D01*
X905D02*
X910D01*
X903Y758D02*
X910D01*
X903Y742D02*
X910D01*
X900Y734D02*
X910D01*
X892Y726D02*
X910D01*
X854Y718D02*
X910D01*
X854Y726D02*
X858D01*
X840Y766D02*
X850D01*
X850Y710D02*
X910D01*
X843Y702D02*
X910D01*
X840Y758D02*
X847D01*
X841Y750D02*
X845D01*
X696Y662D02*
X910D01*
X696Y670D02*
X910D01*
X696Y654D02*
X910D01*
X696Y686D02*
X910D01*
X696Y694D02*
X910D01*
X696Y678D02*
X910D01*
X936Y630D02*
X936Y630D01*
X936Y630D02*
X936Y630D01*
X874Y611D02*
X910Y647D01*
X823Y611D02*
X874D01*
X895Y539D02*
Y590D01*
X936Y630D01*
X823Y539D02*
X895D01*
X823D02*
Y611D01*
X811Y574D02*
X823D01*
X811Y566D02*
X823D01*
X696Y646D02*
X909D01*
X515Y638D02*
X901D01*
X520Y622D02*
X885D01*
X515Y630D02*
X893D01*
X811Y606D02*
X823D01*
X526Y614D02*
X877D01*
X811Y598D02*
X823D01*
X811Y582D02*
X823D01*
X811Y590D02*
X823D01*
X811Y558D02*
X823D01*
X811Y542D02*
X823D01*
X811Y550D02*
X823D01*
X739Y539D02*
X811D01*
X752Y766D02*
X768D01*
X752Y750D02*
X809D01*
X752Y758D02*
X810D01*
X752Y759D02*
Y762D01*
X649Y759D02*
Y762D01*
X752Y759D02*
Y762D01*
Y734D02*
X797D01*
X752Y742D02*
X801D01*
X752Y718D02*
X796D01*
X752Y712D02*
Y759D01*
X649Y723D02*
Y759D01*
X752Y726D02*
X796D01*
X649Y759D02*
Y762D01*
X623Y766D02*
X649D01*
X622Y758D02*
X649D01*
X618Y750D02*
X649D01*
X528Y758D02*
X559D01*
X525Y766D02*
X558D01*
X530Y750D02*
X563D01*
X611Y742D02*
X649D01*
X525Y734D02*
X649D01*
X517Y726D02*
X649D01*
X564Y723D02*
X649D01*
X528Y742D02*
X570D01*
X564Y642D02*
Y723D01*
X696Y710D02*
X800D01*
X696Y712D02*
X752D01*
X739Y611D02*
X811D01*
X696Y702D02*
X807D01*
X696Y642D02*
Y712D01*
X564Y642D02*
X696D01*
X529Y606D02*
X739D01*
X811Y539D02*
Y611D01*
X529Y598D02*
X739D01*
X528Y590D02*
X739D01*
Y539D02*
Y611D01*
X523Y582D02*
X739D01*
X516Y430D02*
X684D01*
X509Y662D02*
X564D01*
X501Y670D02*
X564D01*
X514Y654D02*
X564D01*
X511Y661D02*
X511Y661D01*
X511Y661D01*
X515Y646D02*
X564D01*
X514Y574D02*
X739D01*
X515Y625D02*
Y650D01*
X941Y324D02*
Y396D01*
X869D02*
X941D01*
X922Y324D02*
X941D01*
X869Y327D02*
Y396D01*
X857Y374D02*
X869D01*
X857Y366D02*
X869D01*
X917Y312D02*
X917Y312D01*
X903Y298D02*
X917Y312D01*
X903Y298D02*
X903Y298D01*
X857Y390D02*
X869D01*
X785Y396D02*
X857D01*
Y358D02*
X869D01*
X857Y382D02*
X869D01*
X857Y342D02*
X869D01*
X857Y350D02*
X869D01*
X756Y293D02*
X891D01*
X857Y334D02*
X869D01*
X857Y327D02*
Y396D01*
Y327D02*
X869D01*
X889Y221D02*
X940D01*
X889Y149D02*
Y221D01*
X851Y126D02*
X889D01*
X840Y134D02*
X889D01*
X861Y110D02*
X889D01*
X857Y118D02*
X889D01*
X862Y102D02*
X889D01*
X862Y94D02*
X889D01*
X859Y86D02*
X889D01*
X855Y78D02*
X889D01*
Y65D02*
Y137D01*
X847Y70D02*
X889D01*
X754Y174D02*
X889D01*
X753Y166D02*
X889D01*
X749Y158D02*
X889D01*
X741Y150D02*
X889D01*
X750Y190D02*
X889D01*
X743Y198D02*
X889D01*
X754Y182D02*
X889D01*
X651Y126D02*
X799D01*
X640Y134D02*
X810D01*
X647Y70D02*
X803D01*
X659Y86D02*
X791D01*
X657Y118D02*
X793D01*
X655Y78D02*
X795D01*
X756Y382D02*
X785D01*
X756Y390D02*
X785D01*
X756Y366D02*
X785D01*
X756Y374D02*
X785D01*
Y327D02*
Y396D01*
X756Y358D02*
X785D01*
X684D02*
X756D01*
Y430D01*
X684Y274D02*
Y346D01*
Y430D02*
X756D01*
X684D02*
X756D01*
X516Y414D02*
X684D01*
X516Y422D02*
X684D01*
X516Y398D02*
X684D01*
X516Y406D02*
X684D01*
X516Y390D02*
X684D01*
X516Y374D02*
X684D01*
X516Y382D02*
X684D01*
Y358D02*
X756D01*
X684D02*
Y430D01*
X516Y359D02*
Y441D01*
Y366D02*
X684D01*
X756Y342D02*
X785D01*
X684Y346D02*
X756D01*
Y327D02*
X785D01*
X756Y334D02*
X785D01*
X756Y274D02*
Y293D01*
Y327D02*
Y346D01*
X684Y274D02*
X756D01*
X662Y102D02*
X788D01*
X661Y110D02*
X789D01*
X662Y94D02*
X788D01*
X515Y302D02*
X684D01*
X514Y310D02*
X684D01*
X515Y294D02*
X684D01*
X506Y326D02*
X684D01*
X497Y334D02*
X684D01*
X511Y318D02*
X684D01*
X506Y160D02*
X700D01*
X500Y190D02*
X700D01*
X504Y158D02*
X701D01*
X513Y286D02*
X684D01*
X509Y278D02*
X684D01*
X500Y190D02*
X700D01*
X465Y726D02*
X483D01*
X465Y734D02*
X475D01*
X465Y710D02*
X564D01*
X465Y718D02*
X564D01*
X465Y750D02*
X470D01*
X465Y758D02*
X472D01*
X465Y742D02*
X472D01*
X477Y694D02*
X564D01*
X469Y702D02*
X564D01*
X485Y686D02*
X564D01*
X465Y706D02*
X511Y661D01*
X439Y689D02*
X485Y644D01*
X493Y678D02*
X564D01*
X439Y689D02*
X439Y689D01*
X125Y694D02*
X436D01*
X125Y718D02*
X435D01*
X25Y750D02*
X435D01*
X125Y710D02*
X435D01*
X125Y670D02*
X459D01*
X125Y678D02*
X451D01*
X125Y662D02*
X467D01*
X439Y689D02*
X439Y689D01*
X125Y686D02*
X443D01*
X485Y625D02*
Y644D01*
X431Y646D02*
X483D01*
X449Y630D02*
X485D01*
X444Y638D02*
X485D01*
X451Y622D02*
X480D01*
X450Y614D02*
X474D01*
X434Y441D02*
X516D01*
X434Y359D02*
X516D01*
X447Y606D02*
X471D01*
X440Y598D02*
X471D01*
X25Y566D02*
X739D01*
X25Y574D02*
X486D01*
X25Y550D02*
X739D01*
X25Y558D02*
X739D01*
X125Y654D02*
X475D01*
X25Y590D02*
X472D01*
X25Y582D02*
X477D01*
X381Y358D02*
X684D01*
X25Y542D02*
X739D01*
X381Y350D02*
X785D01*
X381Y334D02*
X453D01*
X381Y342D02*
X684D01*
X381Y326D02*
X444D01*
X186Y638D02*
X404D01*
X173Y646D02*
X417D01*
X191Y630D02*
X399D01*
X193Y622D02*
X397D01*
X192Y614D02*
X398D01*
X25Y742D02*
X435D01*
X25Y758D02*
X435D01*
X25Y726D02*
X435D01*
X25Y734D02*
X435D01*
X125Y702D02*
X435D01*
X25Y723D02*
X125D01*
Y646D02*
X159D01*
X25Y630D02*
X141D01*
X25Y638D02*
X146D01*
X25Y614D02*
X140D01*
X125Y642D02*
Y723D01*
X25Y642D02*
X125D01*
X25Y622D02*
X139D01*
X25Y422D02*
X434D01*
X25Y438D02*
X434D01*
X25Y406D02*
X434D01*
X25Y414D02*
X434D01*
X189Y606D02*
X401D01*
X182Y598D02*
X408D01*
X25D02*
X150D01*
X434Y359D02*
Y441D01*
X381Y374D02*
X434D01*
X381Y366D02*
X434D01*
X381Y390D02*
X434D01*
X299Y391D02*
X381D01*
Y382D02*
X434D01*
X25Y398D02*
X434D01*
X25Y430D02*
X434D01*
X25Y374D02*
X299D01*
X25Y390D02*
X299D01*
X25Y606D02*
X143D01*
X25Y382D02*
X299D01*
X25Y334D02*
X299D01*
X25Y342D02*
X299D01*
X25Y326D02*
X299D01*
X25Y358D02*
X299D01*
X25Y366D02*
X299D01*
X25Y350D02*
X299D01*
X369Y278D02*
X441D01*
X379Y262D02*
X461D01*
X375Y270D02*
X448D01*
X381Y318D02*
X439D01*
X381Y309D02*
Y391D01*
Y310D02*
X436D01*
X489Y186D02*
X489Y186D01*
X489Y186D02*
X489Y186D01*
X438Y135D02*
X489Y186D01*
X25Y294D02*
X435D01*
X25Y302D02*
X435D01*
X369Y222D02*
X941D01*
X359Y286D02*
X437D01*
X299Y309D02*
X381D01*
X359Y214D02*
X889D01*
X25Y206D02*
X889D01*
X25Y198D02*
X707D01*
X25Y190D02*
X500D01*
X25Y182D02*
X486D01*
X496Y150D02*
X709D01*
X480Y134D02*
X610D01*
X472Y126D02*
X599D01*
X464Y118D02*
X593D01*
X460Y113D02*
X506Y160D01*
X461Y110D02*
X589D01*
X459Y86D02*
X591D01*
X455Y78D02*
X595D01*
X447Y70D02*
X603D01*
X462Y102D02*
X588D01*
X462Y94D02*
X588D01*
X25Y166D02*
X470D01*
X25Y174D02*
X478D01*
X398Y150D02*
X454D01*
X25Y158D02*
X462D01*
X398Y142D02*
X446D01*
X301Y153D02*
X398D01*
Y134D02*
X410D01*
X398Y126D02*
X399D01*
X398Y70D02*
X403D01*
X398Y47D02*
Y74D01*
Y126D02*
Y153D01*
X301Y47D02*
X398D01*
X25Y270D02*
X305D01*
X262Y150D02*
X301D01*
X299Y309D02*
Y391D01*
X25Y262D02*
X301D01*
X166Y153D02*
X262D01*
X301Y47D02*
Y153D01*
X262Y47D02*
Y153D01*
Y142D02*
X301D01*
X166Y47D02*
Y153D01*
X25Y27D02*
Y642D01*
Y278D02*
X311D01*
X25Y286D02*
X321D01*
X25Y238D02*
X301D01*
X25Y254D02*
X300D01*
X25Y310D02*
X299D01*
X25Y318D02*
X299D01*
X25Y246D02*
X300D01*
X25Y222D02*
X311D01*
X25Y230D02*
X305D01*
X25Y214D02*
X321D01*
X25Y142D02*
X166D01*
X25Y150D02*
X166D01*
X25Y134D02*
X166D01*
X262Y126D02*
X301D01*
X262Y134D02*
X301D01*
X262Y110D02*
X301D01*
X262Y118D02*
X301D01*
X262Y102D02*
X301D01*
X262Y94D02*
X301D01*
X262Y78D02*
X301D01*
X262Y86D02*
X301D01*
X262Y70D02*
X301D01*
X262Y62D02*
X301D01*
X262Y54D02*
X301D01*
X25Y118D02*
X166D01*
X25Y126D02*
X166D01*
X25Y102D02*
X166D01*
X25Y110D02*
X166D01*
X25Y94D02*
X166D01*
X25Y54D02*
X166D01*
X25Y62D02*
X166D01*
Y47D02*
X262D01*
X25Y78D02*
X166D01*
X25Y86D02*
X166D01*
X25Y70D02*
X166D01*
X1755Y210D02*
X1807Y158D01*
X2085D01*
X2120Y193D01*
Y415D01*
X2100Y435D02*
X2120Y415D01*
X1705Y260D02*
X1755Y310D01*
X1705Y175D02*
Y260D01*
X1680Y150D02*
X1705Y175D01*
X1350Y150D02*
X1680D01*
X2055Y210D02*
X2100Y255D01*
Y366D01*
X2075Y391D02*
X2100Y366D01*
X1655Y315D02*
X1760Y420D01*
X1655Y310D02*
Y315D01*
X1577Y388D02*
X1655Y310D01*
X1263Y388D02*
X1577D01*
X1940Y360D02*
X1990D01*
X1905Y325D02*
X1940Y360D01*
X1905Y260D02*
Y325D01*
X1755Y315D02*
X1860Y420D01*
X1855Y315D02*
X1960Y420D01*
X2050Y390D02*
Y725D01*
X2005Y345D02*
X2050Y390D01*
X2005Y260D02*
Y345D01*
X1955Y210D02*
X2005Y260D01*
X1855Y210D02*
X1905Y260D01*
X1990Y360D02*
X2030Y400D01*
X780Y840D02*
X825Y795D01*
X780Y840D02*
Y1065D01*
X760Y815D02*
X785Y790D01*
X760Y815D02*
Y885D01*
X3066Y1305D02*
X3155D01*
X925Y1185D02*
Y1475D01*
X1970Y800D02*
X2030Y740D01*
X1915Y800D02*
X1970D01*
X2030Y400D02*
Y740D01*
X2381Y1842D02*
X2480D01*
X975Y2125D02*
X1025Y2075D01*
Y1860D02*
Y2075D01*
Y1860D02*
X1035Y1850D01*
X325Y1860D02*
X335Y1850D01*
X325Y1860D02*
Y2075D01*
X275Y2125D02*
X325Y2075D01*
X1075Y2125D02*
X1125Y2075D01*
Y1860D02*
Y2075D01*
Y1860D02*
X1135Y1850D01*
X1849D02*
X1961D01*
X1849Y1849D02*
X1849Y1850D01*
X725Y1860D02*
X735Y1850D01*
X725Y1860D02*
Y2075D01*
X675Y2125D02*
X725Y2075D01*
X2252Y466D02*
Y546D01*
X2251Y465D02*
X2252Y466D01*
X525Y1860D02*
X535Y1850D01*
X525Y1860D02*
Y2075D01*
X475Y2125D02*
X525Y2075D01*
X625Y1860D02*
X635Y1850D01*
X625Y1860D02*
Y2075D01*
X575Y2125D02*
X625Y2075D01*
X1450D02*
X1500Y2125D01*
X1450Y1880D02*
Y2075D01*
X1370Y1800D02*
X1450Y1880D01*
X500Y1800D02*
X1370D01*
X450Y1750D02*
X500Y1800D01*
X450Y700D02*
Y1750D01*
Y700D02*
X500Y650D01*
X875Y2125D02*
X925Y2075D01*
Y1860D02*
Y2075D01*
Y1860D02*
X935Y1850D01*
X425Y1860D02*
X435Y1850D01*
X425Y1860D02*
Y2075D01*
X375Y2125D02*
X425Y2075D01*
X2480Y465D02*
X2525D01*
X175Y2125D02*
X225Y2075D01*
Y1860D02*
Y2075D01*
Y1860D02*
X235Y1850D01*
X2425Y545D02*
X2426Y544D01*
Y465D02*
Y544D01*
X775Y2125D02*
X825Y2075D01*
Y1860D02*
Y2075D01*
Y1860D02*
X835Y1850D01*
X701Y1393D02*
X752D01*
X2175Y625D02*
X2215D01*
X747Y1098D02*
X780Y1065D01*
X701Y1098D02*
X747D01*
X2953Y1273D02*
Y1275D01*
X785Y775D02*
Y790D01*
X2135Y655D02*
Y740D01*
X701Y1491D02*
X749D01*
X2676Y1842D02*
X2775D01*
X2335Y465D02*
X2426D01*
X1215Y1855D02*
X1225Y1865D01*
Y2075D01*
X1175Y2125D02*
X1225Y2075D01*
X2674Y1742D02*
X2754D01*
X2478Y1743D02*
X2558D01*
X2559Y1742D01*
X2676Y1743D02*
Y1842D01*
X2674Y1742D02*
X2676Y1743D01*
X2478Y1841D02*
X2480Y1842D01*
X2478Y1743D02*
Y1841D01*
X1100Y405D02*
X1120Y425D01*
X1410D01*
X1419Y416D01*
X1660D01*
X741Y904D02*
X760Y885D01*
X701Y904D02*
X741D01*
X2075Y391D02*
Y665D01*
X2095Y685D01*
X2100Y620D02*
X2135Y655D01*
X2125Y810D02*
Y814D01*
X2050Y725D02*
X2130Y805D01*
X1855Y670D02*
X1900Y625D01*
X1855Y670D02*
Y795D01*
X1025Y825D02*
Y900D01*
X1060Y975D02*
X1075Y960D01*
Y900D02*
Y960D01*
X2425Y545D02*
X2426Y546D01*
Y640D01*
X2045Y1850D02*
X2185D01*
X2100Y435D02*
Y620D01*
X975Y1035D02*
Y1185D01*
Y1035D02*
X1000Y1010D01*
Y975D02*
Y1010D01*
X935Y1065D02*
Y1090D01*
Y1065D02*
X960Y1040D01*
Y968D02*
Y1040D01*
Y968D02*
X975Y953D01*
Y900D02*
Y953D01*
X1025Y1060D02*
Y1185D01*
X752Y1393D02*
X800Y1345D01*
Y850D02*
Y1345D01*
X1000Y100D02*
X1100D01*
X916D02*
X1000D01*
X835Y1170D02*
Y1405D01*
X825Y1415D02*
X835Y1405D01*
X749Y1491D02*
X825Y1415D01*
Y725D02*
Y795D01*
X800Y850D02*
X875Y775D01*
Y750D02*
Y775D01*
X925Y641D02*
Y800D01*
X859Y575D02*
X925Y641D01*
X500Y600D02*
Y650D01*
X350Y100D02*
X425D01*
X500Y175D01*
X725D01*
X925Y185D02*
X975Y235D01*
Y750D01*
X2221Y854D02*
X2275D01*
X2221Y822D02*
X2305D01*
X2305Y822D01*
X2221Y885D02*
X2304D01*
X2305Y885D01*
X2221Y917D02*
X2274D01*
X2221Y948D02*
X2304D01*
X2305Y949D01*
X2620Y948D02*
X2669Y948D01*
X2620Y948D02*
X2625D01*
X2591Y917D02*
X2669D01*
X2590Y918D02*
X2591Y917D01*
X2621Y885D02*
X2669D01*
X2620Y886D02*
X2621Y885D01*
X2590Y854D02*
X2669D01*
X2590Y854D02*
X2590Y854D01*
X2621Y822D02*
X2669D01*
X2620Y823D02*
X2621Y822D01*
X2221Y980D02*
X2274D01*
X2275Y981D01*
X2590Y980D02*
X2669D01*
X2590Y980D02*
X2590Y980D01*
X2221Y1011D02*
X2336D01*
X2340Y1007D01*
X2621Y1011D02*
X2669D01*
X2620Y1012D02*
X2621Y1011D01*
X2221Y1043D02*
X2385D01*
X2388Y1040D01*
X2620Y1137D02*
X2669D01*
X2221D02*
X2279D01*
X2305Y1111D01*
X2591Y1169D02*
X2669D01*
X2590Y1168D02*
X2591Y1169D01*
X2221Y1232D02*
X2288D01*
X2305Y1215D01*
X2221Y1263D02*
X2351D01*
X2221Y1295D02*
X2274D01*
X2275Y1294D01*
X2221Y1326D02*
X2305D01*
X2305Y1326D01*
X2221Y1358D02*
X2275D01*
X2275Y1358D01*
X2590Y1263D02*
X2669D01*
X2590Y1263D02*
X2590Y1263D01*
X2620Y1295D02*
X2669D01*
X2620Y1295D02*
X2620Y1295D01*
X2590Y1326D02*
X2669D01*
X2590Y1326D02*
X2590Y1326D01*
X2591Y1043D02*
X2669D01*
X2590Y1042D02*
X2591Y1043D01*
X2221Y1169D02*
X2298D01*
X2305Y1162D01*
X2621Y1232D02*
X2669D01*
X2620Y1231D02*
X2621Y1232D01*
X2620Y1358D02*
X2669D01*
X2620Y1358D02*
X2620Y1358D01*
X2498Y362D02*
X2597D01*
X2698D01*
X2597D02*
Y437D01*
X2610Y450D01*
X2525Y465D02*
X2594Y534D01*
X2610D01*
D31*
X905Y324D02*
Y360D01*
X891Y310D02*
X905Y324D01*
X720Y310D02*
X891D01*
X600Y995D02*
Y1180D01*
X616Y1196D01*
X701D01*
X600Y890D02*
Y995D01*
X1255Y1155D02*
X1310D01*
Y960D02*
Y1155D01*
X1360Y900D02*
Y1220D01*
X1600Y1400D02*
X1850D01*
X1425D02*
X1600D01*
X1660Y1451D02*
Y1500D01*
X1900Y1220D02*
Y1300D01*
Y1090D02*
Y1220D01*
X1850Y1165D02*
Y1400D01*
X1955Y1300D02*
X1965Y1290D01*
X1900Y1300D02*
X1955D01*
X1900D02*
Y1450D01*
X1970Y1295D02*
Y1300D01*
X1965Y1290D02*
X1970Y1295D01*
X1310Y850D02*
X1500D01*
X1310D02*
Y960D01*
Y795D02*
Y850D01*
Y1155D02*
Y1395D01*
X1255Y960D02*
X1310D01*
X1500Y795D02*
Y850D01*
X1255Y1395D02*
X1310D01*
X1900Y1090D02*
X1965D01*
X1900Y850D02*
Y1090D01*
X1850Y900D02*
Y1165D01*
X1485Y1660D02*
Y1750D01*
X3048Y242D02*
X3051D01*
X500Y750D02*
Y1720D01*
X530Y1750D01*
X1485D01*
X1855Y850D02*
X1900D01*
X1855Y795D02*
Y850D01*
X1570Y900D02*
X1850D01*
X1360D02*
X1570D01*
X1500Y850D02*
X1625D01*
X1855D01*
X1575Y1660D02*
Y1750D01*
X1555Y1575D02*
Y1610D01*
X1575Y1630D01*
Y1660D01*
X1600Y1541D02*
X1634Y1575D01*
X1600Y1500D02*
Y1541D01*
X1385Y1450D02*
X1880D01*
X1364Y1471D02*
X1385Y1450D01*
X1364Y1471D02*
Y1515D01*
X1880Y1450D02*
X1900D01*
D32*
X3184Y2125D02*
X3210D01*
X3184D02*
Y2151D01*
X3158Y2125D02*
X3184D01*
Y2040D02*
Y2066D01*
Y2099D02*
Y2125D01*
Y2040D02*
X3210D01*
X3184Y2014D02*
Y2040D01*
X3158D02*
X3184D01*
X2754Y1658D02*
X2786D01*
X2754Y1626D02*
Y1658D01*
Y1690D01*
X2722Y1658D02*
X2754D01*
X2578Y2039D02*
Y2086D01*
Y2039D02*
X2625D01*
X2531D02*
X2578D01*
Y1992D02*
Y2039D01*
X2559Y1658D02*
Y1690D01*
Y1658D02*
X2591D01*
X2559Y1626D02*
Y1658D01*
X2527D02*
X2559D01*
X3065Y1413D02*
Y1451D01*
Y1413D02*
X3103D01*
X3026D02*
X3065D01*
Y1374D02*
Y1413D01*
X2627Y1200D02*
X2669D01*
X2712D01*
X2669Y1074D02*
X2712D01*
X2627D02*
X2669D01*
X1849Y2000D02*
Y2072D01*
X1777Y2000D02*
X1849D01*
X1921D01*
X1849Y1928D02*
Y2000D01*
X1936Y1500D02*
X1959D01*
X1936D02*
X1959D01*
X1936Y1477D02*
Y1500D01*
X1913D02*
X1936D01*
Y1474D02*
Y1500D01*
Y1523D01*
Y1500D02*
Y1526D01*
X1913Y1500D02*
X1936D01*
X1716D02*
X1739D01*
X1716D02*
X1739D01*
X1716Y1474D02*
Y1500D01*
Y1526D01*
Y1477D02*
Y1500D01*
X1665Y1750D02*
X1696D01*
X1665D02*
Y1801D01*
X1634Y1750D02*
X1665D01*
X1659Y1660D02*
X1691D01*
X1659Y1628D02*
Y1660D01*
X1627D02*
X1659D01*
X1716Y1500D02*
Y1523D01*
X1693Y1500D02*
X1716D01*
X1693D02*
X1716D01*
X1544D02*
X1567D01*
X1521D02*
X1544D01*
Y1526D01*
Y1474D02*
Y1500D01*
X1965Y1356D02*
Y1379D01*
Y1355D02*
X1988D01*
X1965Y1356D02*
X1991D01*
X1965Y1355D02*
Y1378D01*
Y1333D02*
Y1356D01*
Y1332D02*
Y1355D01*
X1942D02*
X1965D01*
X1939Y1356D02*
X1965D01*
Y1236D02*
X1988D01*
X1965Y1221D02*
X1991D01*
X1965Y1236D02*
Y1259D01*
X1942Y1236D02*
X1965D01*
X1939Y1221D02*
X1965D01*
X2221Y1200D02*
X2263D01*
X2178D02*
X2221D01*
Y1106D02*
X2263D01*
X2178D02*
X2221D01*
X1965Y1198D02*
Y1221D01*
X1644Y1318D02*
Y1344D01*
Y1292D02*
Y1318D01*
X1621D02*
X1644D01*
X1667D01*
X2765Y1049D02*
Y1072D01*
Y1049D02*
X2791D01*
X2739D02*
X2765D01*
Y1026D02*
Y1049D01*
X3169Y640D02*
Y703D01*
Y640D02*
X3232D01*
X3106D02*
X3169D01*
Y577D02*
Y640D01*
X3051Y506D02*
Y544D01*
X2560Y591D02*
Y640D01*
Y689D01*
Y640D02*
X2605D01*
X2516D02*
X2560D01*
X2509Y545D02*
X2541D01*
X2509D02*
Y577D01*
X2477Y545D02*
X2509D01*
Y513D02*
Y545D01*
X3201Y374D02*
Y437D01*
Y374D02*
X3264D01*
X3138D02*
X3201D01*
X3051Y506D02*
X3089D01*
X3013D02*
X3051D01*
X3201Y311D02*
Y374D01*
X2700Y276D02*
Y308D01*
Y276D02*
X2732D01*
X2700Y244D02*
Y276D01*
X2668D02*
X2700D01*
X3169Y45D02*
Y108D01*
Y171D01*
Y108D02*
X3232D01*
X3106D02*
X3169D01*
X2400Y165D02*
Y212D01*
X2353Y165D02*
X2400D01*
X2447D01*
X2400Y118D02*
Y165D01*
X1965Y1034D02*
Y1057D01*
Y1034D02*
X1991D01*
X1965Y885D02*
Y908D01*
Y1011D02*
Y1034D01*
Y862D02*
Y885D01*
X1939Y1034D02*
X1965D01*
X1942Y885D02*
X1965D01*
X1988D01*
X2178Y546D02*
Y573D01*
Y546D02*
X2202D01*
X2154D02*
X2178D01*
Y519D02*
Y546D01*
X1985Y700D02*
Y725D01*
X1959Y700D02*
X1985D01*
X2010D01*
X1985Y674D02*
Y700D01*
X1960Y504D02*
Y536D01*
X1860Y504D02*
Y536D01*
Y472D02*
Y504D01*
X1799Y795D02*
Y821D01*
Y795D02*
X1822D01*
X1776D02*
X1799D01*
X1670D02*
X1693D01*
X1799Y769D02*
Y795D01*
X1670D02*
Y818D01*
Y772D02*
Y795D01*
X1603D02*
X1626D01*
Y769D02*
Y795D01*
X1760Y504D02*
Y536D01*
X1960Y472D02*
Y504D01*
X1928D02*
X1960D01*
X1992D01*
X1860D02*
X1892D01*
X1828D02*
X1860D01*
X1760D02*
X1792D01*
X1728D02*
X1760D01*
Y472D02*
Y504D01*
X1655Y210D02*
Y247D01*
X1618Y210D02*
X1655D01*
Y173D02*
Y210D01*
X1375Y2125D02*
Y2163D01*
X1337Y2125D02*
X1375D01*
X1413D01*
X1375Y2087D02*
Y2125D01*
Y2025D02*
X1413D01*
X1337D02*
X1375D01*
Y2063D01*
Y1925D02*
X1413D01*
X1375Y1987D02*
Y2025D01*
Y1925D02*
Y1963D01*
X1337Y1925D02*
X1375D01*
Y1887D02*
Y1925D01*
X1481Y1500D02*
X1504D01*
X1481D02*
X1504D01*
X1481D02*
Y1523D01*
Y1500D02*
Y1526D01*
Y1477D02*
Y1500D01*
X1458D02*
X1481D01*
Y1474D02*
Y1500D01*
X1458D02*
X1481D01*
X1401Y1660D02*
Y1692D01*
Y1660D02*
X1433D01*
X1401Y1628D02*
Y1660D01*
X1369D02*
X1401D01*
X1255Y1339D02*
Y1362D01*
Y1339D02*
X1281D01*
X1255Y1316D02*
Y1339D01*
Y1276D02*
Y1299D01*
Y1276D02*
X1281D01*
X1255D02*
X1278D01*
X1255Y1253D02*
Y1276D01*
Y1299D01*
Y1253D02*
Y1276D01*
X1169Y1585D02*
X1192D01*
X1169D02*
Y1611D01*
X1146Y1585D02*
X1169D01*
Y1559D02*
Y1585D01*
X1229Y1339D02*
X1255D01*
X1232Y1276D02*
X1255D01*
X1229D02*
X1255D01*
X75Y2025D02*
X113D01*
X75Y1987D02*
Y2025D01*
Y2063D01*
X37Y2025D02*
X75D01*
X701Y1294D02*
Y1321D01*
Y1268D02*
Y1294D01*
X653D02*
X701D01*
X748D01*
X1410Y1185D02*
X1433D01*
X1410D02*
Y1208D01*
X1387Y1185D02*
X1410D01*
Y1162D02*
Y1185D01*
Y1090D02*
X1433D01*
X1410D02*
Y1113D01*
X1387Y1090D02*
X1410D01*
X1458Y1055D02*
X1500D01*
X1542D01*
X1410Y1067D02*
Y1090D01*
X1255Y1099D02*
Y1122D01*
X1229Y1099D02*
X1255D01*
X1281D01*
X1255Y1076D02*
Y1099D01*
X1500Y1055D02*
Y1101D01*
Y1009D02*
Y1055D01*
X1255Y1040D02*
Y1063D01*
X1232Y1040D02*
X1255D01*
X1278D01*
X1255Y1017D02*
Y1040D01*
Y904D02*
X1278D01*
X1232D02*
X1255D01*
X1281D01*
X1255D02*
Y927D01*
Y904D02*
Y927D01*
X1229Y904D02*
X1255D01*
Y881D02*
Y904D01*
Y881D02*
Y904D01*
X1100Y1175D02*
Y1198D01*
X1075Y1185D02*
Y1235D01*
X1100Y1175D02*
X1123D01*
X1100Y1152D02*
Y1175D01*
X1075Y1135D02*
Y1185D01*
X1056D02*
X1075D01*
X1444Y795D02*
Y821D01*
Y795D02*
X1467D01*
X1444Y769D02*
Y795D01*
Y818D01*
Y795D02*
X1467D01*
X1421D02*
X1444D01*
X1421D02*
X1444D01*
Y772D02*
Y795D01*
X1254Y769D02*
Y795D01*
X1277D01*
X1254D02*
Y818D01*
Y795D02*
Y821D01*
X1231Y795D02*
X1254D01*
X1277D01*
X1254Y772D02*
Y795D01*
X1231D02*
X1254D01*
X1090Y246D02*
X1122D01*
X1090D02*
Y278D01*
X1058Y246D02*
X1090D01*
Y214D02*
Y246D01*
X1236Y100D02*
X1281D01*
X1236D02*
Y149D01*
Y51D02*
Y100D01*
X1191D02*
X1236D01*
X701Y999D02*
Y1026D01*
X653Y999D02*
X701D01*
X748D01*
X869Y965D02*
X892D01*
X869D02*
Y988D01*
Y942D02*
Y965D01*
X846D02*
X869D01*
X701Y972D02*
Y999D01*
X821Y360D02*
X853D01*
X821D02*
Y392D01*
X789Y360D02*
X821D01*
X720Y394D02*
X752D01*
X720D02*
Y426D01*
X688Y394D02*
X720D01*
Y362D02*
Y394D01*
X424Y620D02*
X447D01*
X401D02*
X424D01*
X166D02*
Y643D01*
Y620D02*
X189D01*
X424Y597D02*
Y620D01*
Y643D01*
X143Y620D02*
X166D01*
Y597D02*
Y620D01*
X340Y250D02*
X377D01*
X303D02*
X340D01*
Y287D01*
Y213D02*
Y250D01*
X214Y100D02*
Y149D01*
Y100D02*
X259D01*
X214Y51D02*
Y100D01*
X169D02*
X214D01*
X1989Y2022D02*
X2255D01*
X1901Y2110D02*
X1989Y2022D01*
X1798Y2110D02*
X1901D01*
X3237Y758D02*
Y1893D01*
X2255Y2022D02*
X2349Y1928D01*
X1700Y2012D02*
X1798Y2110D01*
X1700Y1925D02*
Y2012D01*
X925Y900D02*
Y965D01*
X1880Y1450D02*
Y1500D01*
X3237Y758D02*
X3300Y695D01*
Y300D02*
Y695D01*
X3242Y242D02*
X3300Y300D01*
X3051Y242D02*
X3242D01*
X1650Y1875D02*
X1700Y1925D01*
X1530Y1875D02*
X1650D01*
X1485Y1830D02*
X1530Y1875D01*
X1485Y1750D02*
Y1830D01*
X1700Y1220D02*
Y1318D01*
X2925Y2040D02*
X2965Y2000D01*
X2813Y1928D02*
X2925Y2040D01*
X2965Y2000D02*
X3130D01*
X3237Y1893D01*
X2130Y1074D02*
X2221D01*
X2114Y1090D02*
X2130Y1074D01*
X1965Y1090D02*
X2114D01*
X2620Y1137D02*
X2620Y1137D01*
X2669Y1106D02*
X2764D01*
X2221Y1074D02*
X2417D01*
X2449Y1106D01*
X2669D01*
X2349Y1928D02*
X2813D01*
D33*
X2953Y1140D02*
D03*
D34*
Y1249D02*
D03*
Y1358D02*
D03*
Y1467D02*
D03*
Y1576D02*
D03*
X3065Y1194D02*
D03*
Y1304D02*
D03*
Y1413D02*
D03*
Y1521D02*
D03*
X590Y1594D02*
D03*
D35*
X3009Y866D02*
D03*
Y1850D02*
D03*
D36*
X1849Y2000D02*
D03*
Y1823D02*
D03*
D37*
X1681Y2124D02*
D03*
X2016D02*
D03*
D38*
X2400Y165D02*
D03*
X2203Y362D02*
D03*
X2302D02*
D03*
X2498D02*
D03*
X2597D02*
D03*
Y165D02*
D03*
X2203D02*
D03*
X2400Y362D02*
D03*
X2597Y67D02*
D03*
X2203D02*
D03*
X2578Y2039D02*
D03*
X2775Y1842D02*
D03*
X2676D02*
D03*
X2480D02*
D03*
X2381D02*
D03*
Y2039D02*
D03*
X2775D02*
D03*
X2578Y1842D02*
D03*
X2381Y2137D02*
D03*
X2775D02*
D03*
D39*
X1455Y210D02*
D03*
D40*
Y310D02*
D03*
X1555Y210D02*
D03*
Y310D02*
D03*
X1655Y210D02*
D03*
Y310D02*
D03*
X1755Y210D02*
D03*
Y310D02*
D03*
X1855Y210D02*
D03*
Y310D02*
D03*
X1955Y210D02*
D03*
Y310D02*
D03*
X2055Y210D02*
D03*
Y310D02*
D03*
X340Y250D02*
D03*
X475Y300D02*
D03*
D41*
X75Y2125D02*
D03*
Y2025D02*
D03*
Y1925D02*
D03*
D42*
X175Y2125D02*
D03*
X275D02*
D03*
X375D02*
D03*
X475D02*
D03*
X575D02*
D03*
X675D02*
D03*
X775D02*
D03*
X875D02*
D03*
X975D02*
D03*
X1075D02*
D03*
X1175D02*
D03*
X1275D02*
D03*
X1375D02*
D03*
X175Y2025D02*
D03*
X275D02*
D03*
X375D02*
D03*
X475D02*
D03*
X575D02*
D03*
X675D02*
D03*
X775D02*
D03*
X875D02*
D03*
X975D02*
D03*
X1075D02*
D03*
X1175D02*
D03*
X1275D02*
D03*
X1375D02*
D03*
X175Y1925D02*
D03*
X275D02*
D03*
X375D02*
D03*
X475D02*
D03*
X575D02*
D03*
X675D02*
D03*
X775D02*
D03*
X875D02*
D03*
X975D02*
D03*
X1075D02*
D03*
X1175D02*
D03*
X1275D02*
D03*
X1375D02*
D03*
X3051Y323D02*
D03*
Y506D02*
D03*
Y242D02*
D03*
X2953Y506D02*
D03*
Y242D02*
D03*
D43*
X3051Y425D02*
D03*
D44*
X3169Y640D02*
D03*
X3201Y374D02*
D03*
X3169Y108D02*
D03*
D45*
X590Y768D02*
D03*
D46*
X340Y350D02*
D03*
X475Y400D02*
D03*
D47*
X625Y100D02*
D03*
X425D02*
D03*
X1025D02*
D03*
X825D02*
D03*
D48*
X2045Y1510D02*
D03*
X2184Y1850D02*
D03*
X166Y620D02*
D03*
X424D02*
D03*
X1984Y625D02*
D03*
X2674Y1658D02*
D03*
X2394Y1743D02*
D03*
X1263Y388D02*
D03*
X1100Y405D02*
D03*
X925Y965D02*
D03*
X869D02*
D03*
X1255Y1040D02*
D03*
Y1155D02*
D03*
Y1220D02*
D03*
X1600Y1500D02*
D03*
X1660D02*
D03*
X1716D02*
D03*
X1444Y795D02*
D03*
X1225Y1585D02*
D03*
X1965Y1165D02*
D03*
Y1300D02*
D03*
Y1355D02*
D03*
Y1090D02*
D03*
X1855Y795D02*
D03*
X1670D02*
D03*
X1500D02*
D03*
X1570D02*
D03*
X1254D02*
D03*
X1310D02*
D03*
X1255Y904D02*
D03*
Y960D02*
D03*
Y1276D02*
D03*
Y1395D02*
D03*
X1425Y1500D02*
D03*
X1481D02*
D03*
X1880D02*
D03*
X1936D02*
D03*
X1660Y416D02*
D03*
X1965Y885D02*
D03*
Y1236D02*
D03*
X1100Y1175D02*
D03*
X1495Y1220D02*
D03*
X1700D02*
D03*
X1410Y1185D02*
D03*
Y1090D02*
D03*
X935D02*
D03*
X600Y995D02*
D03*
X1025Y1060D02*
D03*
X1565Y415D02*
D03*
X720Y394D02*
D03*
X905Y360D02*
D03*
X720Y310D02*
D03*
X600Y1095D02*
D03*
X1090Y330D02*
D03*
Y246D02*
D03*
X925Y185D02*
D03*
X775Y575D02*
D03*
X1364Y1515D02*
D03*
D49*
X1350Y150D02*
D03*
X600Y890D02*
D03*
X925Y1475D02*
D03*
X1000Y975D02*
D03*
X1025Y825D02*
D03*
X1360Y1220D02*
D03*
X1600Y1400D02*
D03*
X1915Y800D02*
D03*
X1985Y700D02*
D03*
X1035Y1850D02*
D03*
X1135D02*
D03*
X735D02*
D03*
X535D02*
D03*
X635D02*
D03*
X1500Y2125D02*
D03*
X935Y1850D02*
D03*
X435D02*
D03*
X835D02*
D03*
X2175Y625D02*
D03*
X785Y790D02*
D03*
X2135Y740D02*
D03*
X1215Y1855D02*
D03*
X500Y750D02*
D03*
X2095Y685D02*
D03*
X2130Y805D02*
D03*
X1425Y1400D02*
D03*
X1570Y900D02*
D03*
X1625Y850D02*
D03*
X1850Y1165D02*
D03*
X1900Y1220D02*
D03*
X1060Y975D02*
D03*
X3184Y2040D02*
D03*
Y2125D02*
D03*
X2925Y2040D02*
D03*
X235Y1850D02*
D03*
X335D02*
D03*
X835Y1170D02*
D03*
X825Y725D02*
D03*
X875Y750D02*
D03*
X975D02*
D03*
X925Y800D02*
D03*
X725Y175D02*
D03*
X500Y600D02*
D03*
D50*
X2275Y854D02*
D03*
X2305Y822D02*
D03*
Y885D02*
D03*
X2275Y917D02*
D03*
X2305Y949D02*
D03*
X2620Y948D02*
D03*
X2590Y918D02*
D03*
X2620Y886D02*
D03*
X2590Y854D02*
D03*
X2620Y823D02*
D03*
X2275Y981D02*
D03*
X2590Y980D02*
D03*
X2340Y1007D02*
D03*
X2620Y1012D02*
D03*
X2388Y1040D02*
D03*
X2620Y1137D02*
D03*
X2305Y1111D02*
D03*
X2590Y1168D02*
D03*
X2305Y1215D02*
D03*
X2352Y1262D02*
D03*
X2275Y1294D02*
D03*
X2305Y1326D02*
D03*
X2275Y1358D02*
D03*
X2590Y1263D02*
D03*
X2620Y1295D02*
D03*
X2590Y1326D02*
D03*
Y1042D02*
D03*
X2305Y1162D02*
D03*
X2620Y1231D02*
D03*
Y1358D02*
D03*
D51*
X2299Y1242D02*
D03*
X2261Y1058D02*
D03*
X2536Y454D02*
D03*
X1981Y811D02*
D03*
X2041Y751D02*
D03*
X2146Y644D02*
D03*
X1844Y659D02*
D03*
X2131Y426D02*
D03*
X2064Y380D02*
D03*
X2061Y379D02*
D03*
X2131Y182D02*
D03*
X2096Y147D02*
D03*
X2016Y249D02*
D03*
X1916D02*
D03*
X1891Y329D02*
D03*
D03*
X1891Y329D02*
D03*
X1588Y399D02*
D03*
X1796Y147D02*
D03*
X1694Y271D02*
D03*
X1716Y164D02*
D03*
X1691Y139D02*
D03*
X1439Y2086D02*
D03*
X1236Y2086D02*
D03*
X1461Y1869D02*
D03*
X1136Y2086D02*
D03*
X1036D02*
D03*
X936D02*
D03*
X836D02*
D03*
X1381Y1789D02*
D03*
X836Y1426D02*
D03*
X836Y1426D02*
D03*
X846Y1416D02*
D03*
X736Y2086D02*
D03*
X636D02*
D03*
X536D02*
D03*
X436D02*
D03*
X336D02*
D03*
X236D02*
D03*
X759Y1502D02*
D03*
X489Y1811D02*
D03*
X814Y1404D02*
D03*
X814Y1404D02*
D03*
X439Y1761D02*
D03*
X1011Y1021D02*
D03*
X1421Y436D02*
D03*
X1408Y405D02*
D03*
X1109Y436D02*
D03*
X986Y224D02*
D03*
X924Y1054D02*
D03*
X758Y1108D02*
D03*
X886Y786D02*
D03*
X936Y630D02*
D03*
X511Y661D02*
D03*
X439Y689D02*
D03*
X489Y186D02*
D03*
D52*
X2424Y640D02*
D03*
X2560D02*
D03*
X1100Y100D02*
D03*
X1236D02*
D03*
X350D02*
D03*
X214D02*
D03*
D53*
X1700Y1055D02*
D03*
X1500D02*
D03*
X1500Y1220D02*
D03*
X1700D02*
D03*
D54*
X2215Y625D02*
D03*
D55*
X2252Y546D02*
D03*
X2178D02*
D03*
D56*
X925Y1185D02*
D03*
D57*
X975D02*
D03*
X1025D02*
D03*
X1075D02*
D03*
Y900D02*
D03*
X1025D02*
D03*
X975D02*
D03*
X925D02*
D03*
D58*
X701Y1491D02*
D03*
Y1393D02*
D03*
Y1294D02*
D03*
Y1196D02*
D03*
Y1098D02*
D03*
Y999D02*
D03*
Y904D02*
D03*
Y837D02*
D03*
Y1590D02*
D03*
D59*
Y784D02*
D03*
Y737D02*
D03*
D60*
X630Y683D02*
D03*
Y1671D02*
D03*
X59Y683D02*
D03*
Y1758D02*
D03*
D61*
X2669Y1421D02*
D03*
X2669Y1389D02*
D03*
X2669Y1358D02*
D03*
Y1326D02*
D03*
Y1295D02*
D03*
Y1263D02*
D03*
Y1232D02*
D03*
Y1200D02*
D03*
Y1169D02*
D03*
Y1137D02*
D03*
Y1106D02*
D03*
Y1074D02*
D03*
Y1043D02*
D03*
Y1011D02*
D03*
Y980D02*
D03*
Y948D02*
D03*
Y917D02*
D03*
Y885D02*
D03*
X2669Y854D02*
D03*
Y822D02*
D03*
Y791D02*
D03*
X2669Y759D02*
D03*
X2221Y1421D02*
D03*
Y1389D02*
D03*
Y1358D02*
D03*
Y1326D02*
D03*
Y1295D02*
D03*
Y1263D02*
D03*
Y1232D02*
D03*
Y1200D02*
D03*
Y1169D02*
D03*
Y1137D02*
D03*
Y1106D02*
D03*
Y1074D02*
D03*
Y1043D02*
D03*
Y1011D02*
D03*
Y980D02*
D03*
Y948D02*
D03*
Y917D02*
D03*
Y885D02*
D03*
Y854D02*
D03*
Y822D02*
D03*
Y791D02*
D03*
Y759D02*
D03*
M02*
