G04 Layer_Color=16711935*
%FSLAX23Y23*%
%MOIN*%
G70*
G01*
G75*
%ADD11R,0.050X0.050*%
%ADD12R,0.038X0.032*%
%ADD18R,0.050X0.050*%
%ADD19R,0.032X0.038*%
%ADD20R,0.048X0.088*%
%ADD21R,0.142X0.088*%
%ADD22R,0.040X0.048*%
%ADD33R,0.063X0.063*%
%ADD34C,0.063*%
%ADD35C,0.160*%
%ADD36C,0.130*%
%ADD37C,0.102*%
%ADD38C,0.080*%
%ADD39R,0.059X0.059*%
%ADD40C,0.059*%
%ADD41R,0.062X0.062*%
%ADD42C,0.062*%
%ADD43R,0.062X0.062*%
%ADD44C,0.112*%
%ADD46R,0.059X0.059*%
%ADD47C,0.052*%
%ADD48C,0.032*%
%ADD49C,0.037*%
%ADD50C,0.028*%
%ADD52R,0.075X0.084*%
%ADD53R,0.070X0.078*%
%ADD54R,0.034X0.050*%
%ADD55R,0.034X0.040*%
%ADD56R,0.024X0.086*%
%ADD57O,0.024X0.086*%
%ADD58R,0.081X0.039*%
%ADD59R,0.081X0.028*%
%ADD60R,0.110X0.059*%
%ADD61O,0.071X0.022*%
%ADD65C,0.059*%
%ADD66C,0.079*%
D11*
X1984Y625D02*
D03*
X1900D02*
D03*
X2478Y1743D02*
D03*
X2394D02*
D03*
X3155Y1305D02*
D03*
X3239D02*
D03*
X2045Y1850D02*
D03*
X1961D02*
D03*
X1485Y1660D02*
D03*
X1401D02*
D03*
X1575D02*
D03*
X1659D02*
D03*
X2335Y465D02*
D03*
X2251D02*
D03*
X2509Y545D02*
D03*
X2425D02*
D03*
X905Y360D02*
D03*
X821D02*
D03*
X775Y575D02*
D03*
X859D02*
D03*
D12*
X2765Y1049D02*
D03*
Y1105D02*
D03*
X1255Y1339D02*
D03*
Y1395D02*
D03*
Y1276D02*
D03*
Y1220D02*
D03*
Y1099D02*
D03*
Y1155D02*
D03*
Y904D02*
D03*
Y960D02*
D03*
X1965Y1034D02*
D03*
Y1090D02*
D03*
Y1221D02*
D03*
Y1165D02*
D03*
Y1356D02*
D03*
Y1300D02*
D03*
D18*
X2674Y1742D02*
D03*
Y1658D02*
D03*
X2559D02*
D03*
Y1742D02*
D03*
X2754Y1658D02*
D03*
Y1742D02*
D03*
X2610Y450D02*
D03*
Y534D02*
D03*
X1960Y504D02*
D03*
Y420D02*
D03*
X1860D02*
D03*
Y504D02*
D03*
X1760Y420D02*
D03*
Y504D02*
D03*
X2700Y360D02*
D03*
Y276D02*
D03*
X1090Y330D02*
D03*
Y246D02*
D03*
X720Y310D02*
D03*
Y394D02*
D03*
X925Y185D02*
D03*
Y101D02*
D03*
D19*
X2424Y465D02*
D03*
X2480D02*
D03*
X1169Y1585D02*
D03*
X1225D02*
D03*
X1254Y795D02*
D03*
X1310D02*
D03*
X1444D02*
D03*
X1500D02*
D03*
X1626D02*
D03*
X1570D02*
D03*
X1799D02*
D03*
X1855D02*
D03*
X1481Y1500D02*
D03*
X1425D02*
D03*
X1544D02*
D03*
X1600D02*
D03*
X1716D02*
D03*
X1660D02*
D03*
X1936D02*
D03*
X1880D02*
D03*
X1644Y1318D02*
D03*
X1700D02*
D03*
D20*
X1665Y1750D02*
D03*
X1575D02*
D03*
X1485D02*
D03*
D21*
X1575Y1994D02*
D03*
D22*
X1634Y1575D02*
D03*
X1555D02*
D03*
D33*
X2953Y1140D02*
D03*
D34*
Y1249D02*
D03*
Y1358D02*
D03*
Y1467D02*
D03*
Y1576D02*
D03*
X3065Y1194D02*
D03*
Y1304D02*
D03*
Y1413D02*
D03*
Y1521D02*
D03*
D35*
X3009Y866D02*
D03*
Y1850D02*
D03*
D36*
X1849Y2000D02*
D03*
Y1823D02*
D03*
D37*
X1681Y2124D02*
D03*
X2016D02*
D03*
D38*
X2400Y165D02*
D03*
X2203Y362D02*
D03*
X2302D02*
D03*
X2498D02*
D03*
X2597D02*
D03*
Y165D02*
D03*
X2203D02*
D03*
X2400Y362D02*
D03*
X2597Y67D02*
D03*
X2203D02*
D03*
X2578Y2039D02*
D03*
X2775Y1842D02*
D03*
X2676D02*
D03*
X2480D02*
D03*
X2381D02*
D03*
Y2039D02*
D03*
X2775D02*
D03*
X2578Y1842D02*
D03*
X2381Y2137D02*
D03*
X2775D02*
D03*
D39*
X1455Y210D02*
D03*
D40*
Y310D02*
D03*
X1555Y210D02*
D03*
Y310D02*
D03*
X1655Y210D02*
D03*
Y310D02*
D03*
X1755Y210D02*
D03*
Y310D02*
D03*
X1855Y210D02*
D03*
Y310D02*
D03*
X1955Y210D02*
D03*
Y310D02*
D03*
X2055Y210D02*
D03*
Y310D02*
D03*
X340Y250D02*
D03*
X475Y300D02*
D03*
D41*
X75Y2125D02*
D03*
Y2025D02*
D03*
Y1925D02*
D03*
D42*
X175Y2125D02*
D03*
X275D02*
D03*
X375D02*
D03*
X475D02*
D03*
X575D02*
D03*
X675D02*
D03*
X775D02*
D03*
X875D02*
D03*
X975D02*
D03*
X1075D02*
D03*
X1175D02*
D03*
X1275D02*
D03*
X1375D02*
D03*
X175Y2025D02*
D03*
X275D02*
D03*
X375D02*
D03*
X475D02*
D03*
X575D02*
D03*
X675D02*
D03*
X775D02*
D03*
X875D02*
D03*
X975D02*
D03*
X1075D02*
D03*
X1175D02*
D03*
X1275D02*
D03*
X1375D02*
D03*
X175Y1925D02*
D03*
X275D02*
D03*
X375D02*
D03*
X475D02*
D03*
X575D02*
D03*
X675D02*
D03*
X775D02*
D03*
X875D02*
D03*
X975D02*
D03*
X1075D02*
D03*
X1175D02*
D03*
X1275D02*
D03*
X1375D02*
D03*
X3051Y323D02*
D03*
Y506D02*
D03*
Y242D02*
D03*
X2953Y506D02*
D03*
Y242D02*
D03*
D43*
X3051Y425D02*
D03*
D44*
X3169Y640D02*
D03*
X3201Y374D02*
D03*
X3169Y108D02*
D03*
D46*
X340Y350D02*
D03*
X475Y400D02*
D03*
D47*
X625Y100D02*
D03*
X425D02*
D03*
X1025D02*
D03*
X825D02*
D03*
D48*
X2045Y1510D02*
D03*
X2184Y1850D02*
D03*
X166Y620D02*
D03*
X424D02*
D03*
X1984Y625D02*
D03*
X2674Y1658D02*
D03*
X2394Y1743D02*
D03*
X1263Y388D02*
D03*
X1100Y405D02*
D03*
X925Y965D02*
D03*
X869D02*
D03*
X1255Y1040D02*
D03*
Y1155D02*
D03*
Y1220D02*
D03*
X1600Y1500D02*
D03*
X1660D02*
D03*
X1716D02*
D03*
X1444Y795D02*
D03*
X1225Y1585D02*
D03*
X1965Y1165D02*
D03*
Y1300D02*
D03*
Y1355D02*
D03*
Y1090D02*
D03*
X1855Y795D02*
D03*
X1670D02*
D03*
X1500D02*
D03*
X1570D02*
D03*
X1254D02*
D03*
X1310D02*
D03*
X1255Y904D02*
D03*
Y960D02*
D03*
Y1276D02*
D03*
Y1395D02*
D03*
X1425Y1500D02*
D03*
X1481D02*
D03*
X1880D02*
D03*
X1936D02*
D03*
X1660Y416D02*
D03*
X1965Y885D02*
D03*
Y1236D02*
D03*
X1100Y1175D02*
D03*
X1495Y1220D02*
D03*
X1700D02*
D03*
X1410Y1185D02*
D03*
Y1090D02*
D03*
X935D02*
D03*
X600Y995D02*
D03*
X1025Y1060D02*
D03*
X1565Y415D02*
D03*
X720Y394D02*
D03*
X905Y360D02*
D03*
X720Y310D02*
D03*
X600Y1095D02*
D03*
X1090Y330D02*
D03*
Y246D02*
D03*
X925Y185D02*
D03*
X775Y575D02*
D03*
X1364Y1515D02*
D03*
D49*
X1350Y150D02*
D03*
X600Y890D02*
D03*
X925Y1475D02*
D03*
X1000Y975D02*
D03*
X1025Y825D02*
D03*
X1360Y1220D02*
D03*
X1600Y1400D02*
D03*
X1915Y800D02*
D03*
X1985Y700D02*
D03*
X1035Y1850D02*
D03*
X1135D02*
D03*
X735D02*
D03*
X535D02*
D03*
X635D02*
D03*
X1500Y2125D02*
D03*
X935Y1850D02*
D03*
X435D02*
D03*
X835D02*
D03*
X2175Y625D02*
D03*
X785Y790D02*
D03*
X2135Y740D02*
D03*
X1215Y1855D02*
D03*
X500Y750D02*
D03*
X2095Y685D02*
D03*
X2130Y805D02*
D03*
X1425Y1400D02*
D03*
X1570Y900D02*
D03*
X1625Y850D02*
D03*
X1850Y1165D02*
D03*
X1900Y1220D02*
D03*
X1060Y975D02*
D03*
X3184Y2040D02*
D03*
Y2125D02*
D03*
X2925Y2040D02*
D03*
X235Y1850D02*
D03*
X335D02*
D03*
X835Y1170D02*
D03*
X825Y725D02*
D03*
X875Y750D02*
D03*
X975D02*
D03*
X925Y800D02*
D03*
X725Y175D02*
D03*
X500Y600D02*
D03*
D50*
X2275Y854D02*
D03*
X2305Y822D02*
D03*
Y885D02*
D03*
X2275Y917D02*
D03*
X2305Y949D02*
D03*
X2620Y948D02*
D03*
X2590Y918D02*
D03*
X2620Y886D02*
D03*
X2590Y854D02*
D03*
X2620Y823D02*
D03*
X2275Y981D02*
D03*
X2590Y980D02*
D03*
X2340Y1007D02*
D03*
X2620Y1012D02*
D03*
X2388Y1040D02*
D03*
X2620Y1137D02*
D03*
X2305Y1111D02*
D03*
X2590Y1168D02*
D03*
X2305Y1215D02*
D03*
X2352Y1262D02*
D03*
X2275Y1294D02*
D03*
X2305Y1326D02*
D03*
X2275Y1358D02*
D03*
X2590Y1263D02*
D03*
X2620Y1295D02*
D03*
X2590Y1326D02*
D03*
Y1042D02*
D03*
X2305Y1162D02*
D03*
X2620Y1231D02*
D03*
Y1358D02*
D03*
D52*
X2424Y640D02*
D03*
X2560D02*
D03*
X1100Y100D02*
D03*
X1236D02*
D03*
X350D02*
D03*
X214D02*
D03*
D53*
X1700Y1055D02*
D03*
X1500D02*
D03*
X1500Y1220D02*
D03*
X1700D02*
D03*
D54*
X2215Y625D02*
D03*
D55*
X2252Y546D02*
D03*
X2178D02*
D03*
D56*
X925Y1185D02*
D03*
D57*
X975D02*
D03*
X1025D02*
D03*
X1075D02*
D03*
Y900D02*
D03*
X1025D02*
D03*
X975D02*
D03*
X925D02*
D03*
D58*
X701Y1491D02*
D03*
Y1393D02*
D03*
Y1294D02*
D03*
Y1196D02*
D03*
Y1098D02*
D03*
Y999D02*
D03*
Y904D02*
D03*
Y837D02*
D03*
Y1590D02*
D03*
D59*
Y784D02*
D03*
Y737D02*
D03*
D60*
X630Y683D02*
D03*
Y1671D02*
D03*
X59Y683D02*
D03*
Y1758D02*
D03*
D61*
X2669Y1421D02*
D03*
X2669Y1389D02*
D03*
X2669Y1358D02*
D03*
Y1326D02*
D03*
Y1295D02*
D03*
Y1263D02*
D03*
Y1232D02*
D03*
Y1200D02*
D03*
Y1169D02*
D03*
Y1137D02*
D03*
Y1106D02*
D03*
Y1074D02*
D03*
Y1043D02*
D03*
Y1011D02*
D03*
Y980D02*
D03*
Y948D02*
D03*
Y917D02*
D03*
Y885D02*
D03*
X2669Y854D02*
D03*
Y822D02*
D03*
Y791D02*
D03*
X2669Y759D02*
D03*
X2221Y1421D02*
D03*
Y1389D02*
D03*
Y1358D02*
D03*
Y1326D02*
D03*
Y1295D02*
D03*
Y1263D02*
D03*
Y1232D02*
D03*
Y1200D02*
D03*
Y1169D02*
D03*
Y1137D02*
D03*
Y1106D02*
D03*
Y1074D02*
D03*
Y1043D02*
D03*
Y1011D02*
D03*
Y980D02*
D03*
Y948D02*
D03*
Y917D02*
D03*
Y885D02*
D03*
Y854D02*
D03*
Y822D02*
D03*
Y791D02*
D03*
Y759D02*
D03*
D65*
X590Y768D02*
D03*
D66*
Y1594D02*
D03*
M02*
