G04 Layer_Physical_Order=1*
G04 Layer_Color=255*
%FSLAX23Y23*%
%MOIN*%
G70*
G01*
G75*
%ADD10R,0.039X0.114*%
%ADD11R,0.050X0.050*%
%ADD12R,0.038X0.032*%
%ADD13R,0.011X0.070*%
%ADD14O,0.011X0.070*%
%ADD15O,0.070X0.011*%
%ADD16R,0.070X0.011*%
%ADD17R,0.048X0.048*%
%ADD18R,0.050X0.050*%
%ADD19R,0.032X0.038*%
%ADD20R,0.048X0.088*%
%ADD21R,0.142X0.088*%
%ADD22R,0.040X0.048*%
%ADD23R,0.048X0.040*%
%ADD24R,0.086X0.024*%
%ADD25O,0.086X0.024*%
%ADD26R,0.063X0.083*%
%ADD27R,0.120X0.075*%
%ADD28R,0.075X0.075*%
%ADD29R,0.053X0.016*%
%ADD30C,0.008*%
%ADD31C,0.012*%
%ADD32C,0.010*%
%ADD33R,0.063X0.063*%
%ADD34C,0.063*%
%ADD35C,0.160*%
%ADD36C,0.130*%
%ADD37C,0.102*%
%ADD38C,0.080*%
%ADD39R,0.059X0.059*%
%ADD40C,0.059*%
%ADD41R,0.062X0.062*%
%ADD42C,0.062*%
%ADD43R,0.062X0.062*%
%ADD44C,0.112*%
%ADD45C,0.043*%
%ADD46R,0.059X0.059*%
%ADD47C,0.052*%
%ADD48C,0.032*%
%ADD49C,0.037*%
%ADD50C,0.028*%
D10*
X2185Y2108D02*
D03*
Y1872D02*
D03*
D11*
X166Y620D02*
D03*
X250D02*
D03*
X424D02*
D03*
X340D02*
D03*
X1263Y388D02*
D03*
X1347D02*
D03*
X3009Y2125D02*
D03*
X2925D02*
D03*
Y2040D02*
D03*
X3009D02*
D03*
X1085Y1585D02*
D03*
X1169D02*
D03*
X2810Y505D02*
D03*
X2726D02*
D03*
Y245D02*
D03*
X2810D02*
D03*
Y425D02*
D03*
X2726D02*
D03*
Y325D02*
D03*
X2810D02*
D03*
X1260Y310D02*
D03*
X1176D02*
D03*
X1260Y235D02*
D03*
X1176D02*
D03*
X1347Y538D02*
D03*
X1263D02*
D03*
X1347Y463D02*
D03*
X1263D02*
D03*
X601Y995D02*
D03*
X685D02*
D03*
Y890D02*
D03*
X601D02*
D03*
Y1095D02*
D03*
X685D02*
D03*
X1260Y160D02*
D03*
X1176D02*
D03*
D12*
X1100Y461D02*
D03*
Y405D02*
D03*
X1175Y420D02*
D03*
Y476D02*
D03*
D13*
X1955Y1585D02*
D03*
X1778D02*
D03*
X1581D02*
D03*
X1384D02*
D03*
X1403Y715D02*
D03*
X1600D02*
D03*
X1797D02*
D03*
D14*
X1935Y1585D02*
D03*
X1916D02*
D03*
X1896D02*
D03*
X1876D02*
D03*
X1857D02*
D03*
X1837D02*
D03*
X1817D02*
D03*
X1797D02*
D03*
X1758D02*
D03*
X1738D02*
D03*
X1719D02*
D03*
X1699D02*
D03*
X1679D02*
D03*
X1660D02*
D03*
X1640D02*
D03*
X1620D02*
D03*
X1600D02*
D03*
X1561D02*
D03*
X1541D02*
D03*
X1522D02*
D03*
X1502D02*
D03*
X1482D02*
D03*
X1462D02*
D03*
X1443D02*
D03*
X1423D02*
D03*
X1403D02*
D03*
X1364D02*
D03*
X1344D02*
D03*
X1325D02*
D03*
X1305D02*
D03*
X1285D02*
D03*
X1265D02*
D03*
Y715D02*
D03*
X1285D02*
D03*
X1305D02*
D03*
X1325D02*
D03*
X1344D02*
D03*
X1364D02*
D03*
X1384D02*
D03*
X1423D02*
D03*
X1443D02*
D03*
X1462D02*
D03*
X1482D02*
D03*
X1502D02*
D03*
X1522D02*
D03*
X1541D02*
D03*
X1561D02*
D03*
X1581D02*
D03*
X1620D02*
D03*
X1640D02*
D03*
X1660D02*
D03*
X1679D02*
D03*
X1699D02*
D03*
X1719D02*
D03*
X1738D02*
D03*
X1758D02*
D03*
X1778D02*
D03*
X1817D02*
D03*
X1837D02*
D03*
X1857D02*
D03*
X1876D02*
D03*
X1896D02*
D03*
X1916D02*
D03*
X1935D02*
D03*
X1955D02*
D03*
D15*
X1176Y1495D02*
D03*
Y1475D02*
D03*
Y1456D02*
D03*
Y1416D02*
D03*
Y1396D02*
D03*
Y1377D02*
D03*
Y1357D02*
D03*
Y1337D02*
D03*
Y1318D02*
D03*
Y1298D02*
D03*
Y1278D02*
D03*
Y1259D02*
D03*
Y1219D02*
D03*
Y1199D02*
D03*
Y1180D02*
D03*
Y1160D02*
D03*
Y1140D02*
D03*
Y1121D02*
D03*
Y1101D02*
D03*
Y1081D02*
D03*
Y1062D02*
D03*
Y1022D02*
D03*
Y1003D02*
D03*
Y983D02*
D03*
Y963D02*
D03*
Y943D02*
D03*
Y924D02*
D03*
Y904D02*
D03*
Y884D02*
D03*
Y865D02*
D03*
Y825D02*
D03*
Y805D02*
D03*
X2045D02*
D03*
Y845D02*
D03*
Y865D02*
D03*
Y884D02*
D03*
Y904D02*
D03*
Y924D02*
D03*
Y943D02*
D03*
Y963D02*
D03*
Y983D02*
D03*
Y1003D02*
D03*
Y1042D02*
D03*
Y1062D02*
D03*
Y1081D02*
D03*
Y1101D02*
D03*
Y1121D02*
D03*
Y1140D02*
D03*
Y1160D02*
D03*
Y1180D02*
D03*
Y1199D02*
D03*
Y1239D02*
D03*
Y1259D02*
D03*
Y1278D02*
D03*
Y1298D02*
D03*
Y1318D02*
D03*
Y1337D02*
D03*
Y1357D02*
D03*
Y1377D02*
D03*
Y1396D02*
D03*
Y1436D02*
D03*
Y1456D02*
D03*
Y1475D02*
D03*
Y1495D02*
D03*
D16*
X1176Y1436D02*
D03*
Y1239D02*
D03*
Y1042D02*
D03*
Y845D02*
D03*
X2045Y825D02*
D03*
Y1022D02*
D03*
Y1219D02*
D03*
Y1416D02*
D03*
D17*
X3184Y2125D02*
D03*
X3100D02*
D03*
Y2040D02*
D03*
X3184D02*
D03*
D18*
X1735Y500D02*
D03*
Y416D02*
D03*
X1660Y500D02*
D03*
Y416D02*
D03*
X1565D02*
D03*
Y500D02*
D03*
D19*
X1180Y560D02*
D03*
X1124D02*
D03*
X869Y965D02*
D03*
X925D02*
D03*
D20*
X160Y710D02*
D03*
X250D02*
D03*
X340D02*
D03*
D21*
X250Y954D02*
D03*
D22*
X289Y1050D02*
D03*
X210D02*
D03*
D23*
X340Y534D02*
D03*
Y455D02*
D03*
D24*
X1000Y210D02*
D03*
D25*
Y260D02*
D03*
Y310D02*
D03*
Y360D02*
D03*
Y410D02*
D03*
Y460D02*
D03*
Y510D02*
D03*
Y560D02*
D03*
X625D02*
D03*
Y510D02*
D03*
Y460D02*
D03*
Y410D02*
D03*
Y360D02*
D03*
Y310D02*
D03*
Y260D02*
D03*
Y210D02*
D03*
D26*
X200Y178D02*
D03*
Y422D02*
D03*
D27*
X100Y148D02*
D03*
Y452D02*
D03*
D28*
Y253D02*
D03*
Y347D02*
D03*
D29*
X205Y249D02*
D03*
Y274D02*
D03*
Y300D02*
D03*
Y326D02*
D03*
Y351D02*
D03*
D30*
X2850Y1275D02*
Y1470D01*
X2775Y1545D02*
X2850Y1470D01*
X2176Y1545D02*
X2775D01*
X2900Y1411D02*
Y1480D01*
X2792Y1588D02*
X2900Y1480D01*
X2197Y1588D02*
X2792D01*
X2875Y1327D02*
Y1475D01*
X2785Y1565D02*
X2875Y1475D01*
X2190Y1565D02*
X2785D01*
X2825Y1268D02*
Y1465D01*
X2765Y1525D02*
X2825Y1465D01*
X2160Y1525D02*
X2765D01*
X2045Y1495D02*
X2065D01*
X2095Y1550D02*
X2145Y1500D01*
X2020Y1550D02*
X2095D01*
X1980Y1510D02*
X2020Y1550D01*
X1725Y1430D02*
X1935D01*
X1650Y1355D02*
X1725Y1430D01*
X1400Y1355D02*
X1650D01*
X1935Y1430D02*
X1980Y1475D01*
X1176Y1456D02*
X1299D01*
X1400Y1355D01*
X1980Y1475D02*
Y1510D01*
X2145Y1500D02*
X2755D01*
X2220Y1610D02*
X2810D01*
X2125Y1705D02*
X2220Y1610D01*
X1920Y1705D02*
X2125D01*
X2100Y1685D02*
X2197Y1588D01*
X1924Y1685D02*
X2100D01*
X2090Y1665D02*
X2190Y1565D01*
X1929Y1665D02*
X2090D01*
X2077Y1644D02*
X2176Y1545D01*
X1944Y1644D02*
X2077D01*
X2100Y1585D02*
X2160Y1525D01*
X1955Y1585D02*
X2100D01*
X2755Y1500D02*
X2800Y1455D01*
Y1175D02*
Y1455D01*
Y1175D02*
X2905Y1070D01*
X3110D01*
X3130Y1090D01*
Y1457D01*
X3065Y1521D02*
X3130Y1457D01*
X2155Y1743D02*
X2394D01*
X2142Y1755D02*
X2155Y1743D01*
X1918Y1755D02*
X2142D01*
X2202Y1658D02*
X2674D01*
X2130Y1730D02*
X2202Y1658D01*
X1919Y1730D02*
X2130D01*
X2810Y1610D02*
X2953Y1467D01*
X1889Y1726D02*
X1918Y1755D01*
X1861Y1726D02*
X1889D01*
X1797Y1662D02*
X1861Y1726D01*
X1894Y1705D02*
X1919Y1730D01*
X1870Y1705D02*
X1894D01*
X1817Y1652D02*
X1870Y1705D01*
X1901Y1686D02*
X1920Y1705D01*
X1881Y1686D02*
X1901D01*
X1837Y1642D02*
X1881Y1686D01*
X1906Y1667D02*
X1924Y1685D01*
X1887Y1667D02*
X1906D01*
X1857Y1637D02*
X1887Y1667D01*
X1913Y1649D02*
X1929Y1665D01*
X1894Y1649D02*
X1913D01*
X1876Y1631D02*
X1894Y1649D01*
X2185Y2071D02*
Y2108D01*
X2146Y2032D02*
X2185Y2071D01*
X1981Y2032D02*
X2146D01*
X1905Y2108D02*
X1981Y2032D01*
X1796Y2108D02*
X1905D01*
X1719Y2031D02*
X1796Y2108D01*
X1594Y2031D02*
X1719D01*
X1500Y2125D02*
X1594Y2031D01*
X1767Y1912D02*
X2038D01*
X1725Y1870D02*
X1767Y1912D01*
X1725Y1790D02*
Y1870D01*
X2038Y1912D02*
X2109Y1983D01*
X2259D02*
X2289Y1953D01*
X2824D01*
X2109Y1983D02*
X2259D01*
X1725Y1790D02*
X1778Y1737D01*
X1505Y260D02*
X1555Y310D01*
X1505Y155D02*
Y260D01*
X1520Y345D02*
X1555Y310D01*
X1395Y130D02*
X1480D01*
X1505Y155D01*
X1305Y105D02*
X1350Y150D01*
X1231Y105D02*
X1305D01*
X1610Y265D02*
Y560D01*
X1555Y210D02*
X1610Y265D01*
X1749Y416D02*
X1855Y310D01*
X1735Y416D02*
X1749D01*
X1955Y310D02*
X2005Y360D01*
X2085D01*
X2125Y320D01*
X2105Y380D02*
X2152Y333D01*
X1925Y380D02*
X2105D01*
X1795Y510D02*
X1925Y380D01*
X1455Y310D02*
X1502Y357D01*
X1290Y160D02*
X1310Y180D01*
Y225D01*
X1482Y397D01*
Y715D01*
X1260Y235D02*
X1290D01*
X1462Y407D01*
Y715D01*
X1260Y310D02*
X1340D01*
X1443Y413D01*
Y715D01*
X1423D02*
Y740D01*
Y433D02*
Y715D01*
X1347Y388D02*
X1378D01*
X1423Y433D01*
X1520Y345D02*
Y575D01*
X1315Y50D02*
X1395Y130D01*
X590Y50D02*
X1315D01*
X755Y890D02*
X785Y860D01*
X685Y890D02*
X755D01*
X925Y835D02*
X1014Y924D01*
X1176D01*
X975Y850D02*
X1029Y904D01*
X1260Y160D02*
X1290D01*
X1176Y310D02*
Y419D01*
Y235D02*
Y310D01*
Y160D02*
Y235D01*
X925Y1475D02*
X1175D01*
X1032Y943D02*
X1176D01*
X1000Y975D02*
X1032Y943D01*
X1029Y904D02*
X1176D01*
X1045Y845D02*
X1176D01*
X1025Y825D02*
X1045Y845D01*
X1253Y1042D02*
X1255Y1040D01*
X1176Y1042D02*
X1253D01*
X1176Y1140D02*
X1225D01*
X1230Y1180D02*
X1255Y1155D01*
X1176Y1180D02*
X1230D01*
X1235Y1199D02*
X1255Y1220D01*
X1176Y1199D02*
X1235D01*
X1238Y1259D02*
X1255Y1276D01*
X1176Y1259D02*
X1238D01*
X1738Y1585D02*
Y1642D01*
X1405Y1975D02*
X1738Y1642D01*
X1699Y1585D02*
Y1656D01*
X1679Y1585D02*
Y1651D01*
X1660Y1585D02*
Y1645D01*
X1640Y1585D02*
Y1640D01*
X1615Y1640D02*
X1620Y1635D01*
Y1585D02*
Y1635D01*
X1585Y1640D02*
X1615D01*
X1581Y1636D02*
X1585Y1640D01*
X1581Y1585D02*
Y1636D01*
X1600Y1500D02*
Y1585D01*
X1620Y1540D02*
X1660Y1500D01*
X1620Y1540D02*
Y1585D01*
X1716Y1500D02*
X1719Y1503D01*
Y1585D01*
X1360Y795D02*
X1444D01*
X1344Y779D02*
X1360Y795D01*
X1344Y715D02*
Y779D01*
X1265Y1530D02*
X1280Y1515D01*
X1265Y1530D02*
Y1585D01*
X1085Y1530D02*
Y1585D01*
Y1530D02*
X1120Y1495D01*
X1176D01*
X1169Y1585D02*
X1225D01*
X1265D01*
X1423Y1502D02*
Y1585D01*
X1481Y1500D02*
X1482Y1501D01*
Y1585D01*
X1176Y1396D02*
X1253D01*
X1240Y865D02*
X1310Y795D01*
X1176Y865D02*
X1240D01*
X1232Y983D02*
X1255Y960D01*
X1176Y983D02*
X1232D01*
X1235Y884D02*
X1255Y904D01*
X1176Y884D02*
X1235D01*
X1254Y795D02*
X1265Y784D01*
Y715D02*
Y784D01*
X1310Y795D02*
X1325Y780D01*
Y715D02*
Y780D01*
X1500Y795D02*
X1522Y773D01*
Y715D02*
Y773D01*
X1855Y795D02*
X1857Y794D01*
Y715D02*
Y794D01*
X1965Y1090D02*
X1993Y1062D01*
X2045D01*
X1965Y1090D02*
X1996Y1121D01*
X2045D01*
X1980Y1180D02*
X2045D01*
X1965Y1300D02*
X1983Y1318D01*
X2045D01*
X1965Y1355D02*
X1983Y1337D01*
X2045D01*
X1936Y1500D02*
X1941Y1495D01*
X1916Y1520D02*
X1936Y1500D01*
X1916Y1520D02*
Y1585D01*
X1880Y1500D02*
X1896Y1516D01*
Y1585D01*
X1955Y700D02*
X1985D01*
X1955D02*
Y715D01*
X1916D02*
Y799D01*
X1951Y780D02*
X2000D01*
X1935Y765D02*
X1951Y780D01*
X1935Y715D02*
Y765D01*
X1075Y1400D02*
X1098Y1377D01*
X1176D01*
X1088Y1357D02*
X1176D01*
X1065Y1380D02*
X1088Y1357D01*
X1078Y1337D02*
X1176D01*
X1055Y1360D02*
X1078Y1337D01*
X1072Y1318D02*
X1176D01*
X1050Y1340D02*
X1072Y1318D01*
X1062Y1298D02*
X1176D01*
X1040Y1320D02*
X1062Y1298D01*
X1940Y625D02*
X1984D01*
X1896Y669D02*
X1940Y625D01*
X1896Y669D02*
Y715D01*
X1679Y626D02*
X1706Y599D01*
X1795Y510D01*
X1679Y626D02*
Y715D01*
X1660Y610D02*
X1679Y591D01*
X1660Y610D02*
Y715D01*
Y500D02*
Y581D01*
X1640Y600D02*
X1660Y581D01*
X1640Y600D02*
Y715D01*
X795Y1870D02*
X825Y1900D01*
Y1975D01*
X775Y2025D02*
X825Y1975D01*
X1075Y1800D02*
Y1925D01*
X700Y1870D02*
X725Y1895D01*
Y1975D01*
X675Y2025D02*
X725Y1975D01*
X895Y1870D02*
X925Y1900D01*
Y1975D01*
X875Y2025D02*
X925Y1975D01*
X575Y2025D02*
X625Y1975D01*
Y1900D02*
Y1975D01*
X595Y1870D02*
X625Y1900D01*
X595Y1795D02*
Y1870D01*
Y1795D02*
X640Y1750D01*
X535D02*
X575Y1790D01*
Y1925D01*
X515Y1830D02*
X535Y1850D01*
X375Y2025D02*
X425Y1975D01*
Y1900D02*
Y1975D01*
X395Y1870D02*
X425Y1900D01*
X1735Y500D02*
Y535D01*
X1679Y591D02*
X1735Y535D01*
X635Y1850D02*
X660Y1825D01*
X475Y2025D02*
X525Y1975D01*
Y1900D02*
Y1975D01*
X495Y1870D02*
X525Y1900D01*
X675Y1875D02*
X680Y1870D01*
X675Y1875D02*
Y1925D01*
X1660Y416D02*
X1735D01*
X1175Y1835D02*
Y1925D01*
X1099Y460D02*
X1100Y461D01*
X1000Y460D02*
X1099D01*
X1000Y510D02*
X1141D01*
X1175Y476D01*
X995Y1870D02*
X1025Y1900D01*
Y1975D01*
X975Y2025D02*
X1025Y1975D01*
X1095Y1815D02*
Y1875D01*
X1125Y1905D01*
Y1975D01*
X1075Y2025D02*
X1125Y1975D01*
X195Y1870D02*
X225Y1900D01*
Y1975D01*
X175Y2025D02*
X225Y1975D01*
X1660Y500D02*
X1660D01*
X1275Y2125D02*
X1325Y2075D01*
X1405D01*
X1450Y2030D01*
X1263Y463D02*
Y538D01*
X1347Y463D02*
X1383D01*
X1000Y560D02*
X1124D01*
X1263Y388D02*
Y463D01*
X900Y310D02*
X1000D01*
X1175Y2025D02*
X1225Y1975D01*
Y1900D02*
Y1975D01*
Y1900D02*
X1270Y1855D01*
X1275Y2025D02*
X1325Y1975D01*
X1405D01*
X2000Y780D02*
X2095Y685D01*
X3145Y210D02*
X3230D01*
X3320Y300D01*
Y1515D01*
X2775Y1842D02*
X2775D01*
X1180Y560D02*
X1241D01*
X1263Y538D01*
X3130Y230D02*
X3215D01*
X3300Y315D01*
Y1500D01*
X2554Y1768D02*
X2809D01*
X2480Y1842D02*
X2554Y1768D01*
X2480Y1842D02*
X2480D01*
X785Y700D02*
Y790D01*
X1984Y625D02*
X2175D01*
X2045Y865D02*
X2155D01*
X2045Y845D02*
X2145D01*
X2045Y805D02*
X2079D01*
X2100Y785D01*
Y775D02*
Y785D01*
Y775D02*
X2135Y740D01*
X2045Y825D02*
X2110D01*
X2130Y805D01*
X1699Y641D02*
Y715D01*
X1876Y659D02*
Y715D01*
Y659D02*
X1955Y580D01*
X1837Y668D02*
Y715D01*
Y668D02*
X1945Y560D01*
X1817Y658D02*
Y715D01*
Y658D02*
X1935Y540D01*
X1797Y648D02*
Y715D01*
Y648D02*
X1925Y520D01*
X1778Y637D02*
Y715D01*
Y637D02*
X1915Y500D01*
X1738Y627D02*
Y715D01*
X1758Y632D02*
Y715D01*
Y632D02*
X1910Y480D01*
X2450D01*
X2475Y505D01*
X2726D01*
X2810D02*
X2952D01*
X2810Y425D02*
X3051D01*
X2810Y325D02*
X3049D01*
X2810Y245D02*
X2950D01*
X1719Y715D02*
Y776D01*
X1700Y795D02*
X1719Y776D01*
X1561Y501D02*
Y715D01*
X1600Y570D02*
X1610Y560D01*
X1600Y570D02*
Y715D01*
X1581D02*
Y784D01*
X1570Y795D02*
X1581Y784D01*
X1620Y715D02*
Y775D01*
X1640Y795D01*
X1700D01*
X1600Y715D02*
Y825D01*
X1625Y850D01*
X1966Y884D02*
X2045D01*
X1965Y1165D02*
X1980Y1180D01*
X1982Y1219D02*
X2045D01*
X1965Y1236D02*
X1982Y1219D01*
X1921Y1199D02*
X2045D01*
X1900Y1220D02*
X1921Y1199D01*
X1072Y963D02*
X1176D01*
X1060Y975D02*
X1072Y963D01*
X1117Y1003D02*
X1176D01*
X1100Y1045D02*
X1123Y1022D01*
X1176D01*
X1115Y1160D02*
X1176D01*
X1100Y1175D02*
X1115Y1160D01*
X1225Y1140D02*
X1240Y1125D01*
X1400D01*
X1495Y1220D01*
X2045Y1003D02*
X2148D01*
X2167Y1022D01*
X2045Y1042D02*
X2132D01*
X2045Y1022D02*
X2137D01*
X2045Y943D02*
X2173D01*
X2045Y963D02*
X2163D01*
X2045Y983D02*
X2158D01*
X2045Y1101D02*
X2136D01*
X2825Y1268D02*
X2953Y1140D01*
X2850Y1275D02*
X2931Y1194D01*
X3065D01*
X2875Y1327D02*
X2953Y1249D01*
X2900Y1411D02*
X2953Y1358D01*
X3009Y2040D02*
X3100D01*
X3009Y2125D02*
X3100D01*
Y1700D02*
X3300Y1500D01*
X3110Y1725D02*
X3320Y1515D01*
X1876Y1585D02*
Y1631D01*
X1857Y1585D02*
Y1637D01*
X1797Y1585D02*
Y1662D01*
X1837Y1585D02*
Y1642D01*
X1817Y1585D02*
Y1652D01*
X1778Y1585D02*
Y1737D01*
X2849Y1978D02*
Y2050D01*
X2850D02*
X2925Y2125D01*
X2824Y1953D02*
X2849Y1978D01*
X1758Y1585D02*
Y1652D01*
X1109Y1121D02*
X1176D01*
X1104Y1101D02*
X1176D01*
X875Y1090D02*
X935D01*
X1040D01*
X705Y1015D02*
X920D01*
X685Y995D02*
X705Y1015D01*
X1099Y1081D02*
X1176D01*
X1093Y1062D02*
X1176D01*
X1085Y1045D02*
X1100D01*
X1040Y1090D02*
X1085Y1045D01*
X1090Y1030D02*
X1117Y1003D01*
X1070Y1030D02*
X1090D01*
X920Y1015D02*
X965Y1060D01*
X1040D02*
X1070Y1030D01*
X965Y1060D02*
X1025D01*
X1040D01*
X785Y790D02*
Y860D01*
X1285Y665D02*
Y715D01*
X1260Y640D02*
X1285Y665D01*
X1305Y655D02*
Y715D01*
X1270Y620D02*
X1305Y655D01*
X1364Y649D02*
Y715D01*
X1315Y600D02*
X1364Y649D01*
X1403Y483D02*
Y715D01*
X1347Y538D02*
X1384Y575D01*
Y715D01*
X1383Y463D02*
X1403Y483D01*
X1502Y357D02*
Y715D01*
X1541Y596D02*
Y715D01*
X1520Y575D02*
X1541Y596D01*
X1275Y1925D02*
X1325Y1875D01*
X1285Y1585D02*
Y1625D01*
X1270Y1640D02*
X1285Y1625D01*
X1305Y1585D02*
Y1635D01*
X1285Y1655D02*
X1305Y1635D01*
X1325Y1585D02*
Y1640D01*
X1344Y1585D02*
Y1651D01*
X1384Y1585D02*
Y1641D01*
X1295Y1670D02*
X1325Y1640D01*
X1310Y1685D02*
X1344Y1651D01*
X1325Y1700D02*
X1384Y1641D01*
X1340Y1715D02*
X1403Y1652D01*
Y1585D02*
Y1652D01*
X1355Y1730D02*
X1443Y1642D01*
Y1585D02*
Y1642D01*
X1462Y1585D02*
Y1653D01*
X1502Y1585D02*
Y1643D01*
X1522Y1585D02*
Y1653D01*
X1370Y1745D02*
X1462Y1653D01*
X1385Y1760D02*
X1502Y1643D01*
X1100Y1775D02*
X1400D01*
X1522Y1653D01*
X1541Y1585D02*
Y1664D01*
X1561Y1585D02*
Y1674D01*
X1415Y1790D02*
X1541Y1664D01*
X1430Y1805D02*
X1561Y1674D01*
X1190Y1820D02*
X1460D01*
X1640Y1640D01*
X1235Y1835D02*
X1470D01*
X1660Y1645D01*
X1175Y1835D02*
X1190Y1820D01*
X1135Y1825D02*
Y1850D01*
Y1825D02*
X1155Y1805D01*
X1430D01*
X1120Y1790D02*
X1415D01*
X1095Y1815D02*
X1120Y1790D01*
X1075Y1800D02*
X1100Y1775D01*
X1215Y1855D02*
X1235Y1835D01*
X1270Y1855D02*
X1475D01*
X1679Y1651D01*
X1325Y1875D02*
X1480D01*
X1699Y1656D01*
X1450Y1960D02*
X1758Y1652D01*
X1450Y1960D02*
Y2030D01*
X1035Y1800D02*
Y1850D01*
Y1800D02*
X1075Y1760D01*
X1385D01*
X995Y1800D02*
Y1870D01*
Y1800D02*
X1050Y1745D01*
X1370D01*
X975Y1780D02*
Y1925D01*
Y1780D02*
X1025Y1730D01*
X1355D01*
X935Y1780D02*
Y1850D01*
Y1780D02*
X1000Y1715D01*
X1340D01*
X875Y1760D02*
Y1925D01*
Y1760D02*
X950Y1685D01*
X1310D01*
X895Y1780D02*
Y1870D01*
Y1780D02*
X975Y1700D01*
X1325D01*
X835Y1760D02*
Y1850D01*
Y1760D02*
X925Y1670D01*
X1295D01*
X795Y1755D02*
Y1870D01*
Y1755D02*
X895Y1655D01*
X1285D01*
X775Y1730D02*
Y1925D01*
Y1730D02*
X865Y1640D01*
X1270D01*
X735Y1590D02*
Y1850D01*
Y1590D02*
X889Y1436D01*
X1176D01*
X700Y1585D02*
Y1870D01*
Y1585D02*
X869Y1416D01*
X1176D01*
X680Y1565D02*
Y1870D01*
Y1565D02*
X845Y1400D01*
X1075D01*
X660Y1545D02*
Y1825D01*
Y1545D02*
X825Y1380D01*
X1065D01*
X640Y1530D02*
Y1750D01*
Y1530D02*
X810Y1360D01*
X1055D01*
X535Y1545D02*
Y1750D01*
Y1545D02*
X740Y1340D01*
X1050D01*
X515Y1525D02*
Y1830D01*
Y1525D02*
X720Y1320D01*
X1040D01*
X495Y1505D02*
Y1870D01*
Y1505D02*
X700Y1300D01*
X475Y1490D02*
Y1925D01*
Y1490D02*
X685Y1280D01*
X435Y1495D02*
Y1850D01*
Y1495D02*
X670Y1260D01*
X700Y1300D02*
X1030D01*
X1052Y1278D01*
X1175D01*
X685Y1280D02*
X1020D01*
X1061Y1239D01*
X1176D01*
X670Y1260D02*
X1010D01*
X1051Y1219D01*
X1176D01*
X395Y1495D02*
Y1870D01*
Y1495D02*
X650Y1240D01*
X990D01*
X1109Y1121D01*
X985Y1220D02*
X1104Y1101D01*
X375Y1480D02*
Y1925D01*
Y1480D02*
X635Y1220D01*
X985D01*
X620Y1200D02*
X980D01*
X1099Y1081D01*
X685Y1095D02*
X870D01*
X875Y1090D01*
X630Y1150D02*
X685Y1095D01*
X195Y1555D02*
Y1870D01*
Y1555D02*
X600Y1150D01*
X630D01*
X635Y1045D02*
X685Y995D01*
X555Y1045D02*
X635D01*
X175Y1425D02*
X555Y1045D01*
X175Y1425D02*
Y1925D01*
X3085Y185D02*
X3130Y230D01*
X1035Y700D02*
X1095Y640D01*
X1260D01*
X1025Y675D02*
X1080Y620D01*
X1270D01*
X785Y700D02*
X835Y650D01*
X1015D01*
X1065Y600D01*
X1315D01*
X1000Y310D02*
X1070D01*
X1090Y330D01*
X1176Y160D02*
X1231Y105D01*
X575Y190D02*
X595Y210D01*
X625D01*
X575Y65D02*
Y190D01*
Y65D02*
X590Y50D01*
X235Y1585D02*
Y1850D01*
Y1585D02*
X620Y1200D01*
X835Y1170D02*
X985D01*
X1093Y1062D01*
X825Y725D02*
X875Y675D01*
X1025D01*
X875Y750D02*
X925Y700D01*
X1035D01*
X925Y800D02*
Y835D01*
X975Y750D02*
Y850D01*
X775Y225D02*
Y575D01*
X725Y175D02*
X775Y225D01*
X500Y575D02*
Y600D01*
Y575D02*
X565Y510D01*
X625D01*
X650Y100D02*
X825D01*
Y235D01*
X900Y310D01*
X915Y185D02*
X925D01*
X950Y210D01*
X1000D01*
X1280Y1515D02*
X1364D01*
Y1585D01*
X2155Y865D02*
X2166Y854D01*
X2275D01*
X2166Y824D02*
X2168Y822D01*
X2305D01*
X2145Y845D02*
X2166Y824D01*
X2045Y904D02*
X2162D01*
X2181Y885D01*
X2305D01*
X2045Y924D02*
X2194D01*
X2201Y917D01*
X2275D01*
X2179Y949D02*
X2305D01*
X2173Y943D02*
X2179Y949D01*
X1955Y580D02*
X2286D01*
X1945Y560D02*
X2310D01*
X2286Y580D02*
X2500Y794D01*
X2310Y560D02*
X2520Y770D01*
X2560Y824D02*
X2590Y854D01*
X1935Y540D02*
X2329D01*
X2540Y751D01*
X1925Y520D02*
X2352D01*
X2560Y728D01*
Y824D01*
X2540Y751D02*
Y851D01*
X2575Y886D01*
X2620D01*
X2520Y770D02*
Y862D01*
X2576Y918D01*
X2590D01*
X2500Y794D02*
Y874D01*
X2574Y948D01*
X2620D01*
X2580Y783D02*
X2620Y823D01*
X1915Y500D02*
X2379D01*
X2580Y701D01*
Y783D01*
X2163Y963D02*
X2181Y981D01*
X2275D01*
X2158Y983D02*
X2181Y1006D01*
X2300D01*
X2326Y980D01*
X2590D01*
X2325Y1022D02*
X2340Y1007D01*
X2167Y1022D02*
X2325D01*
X2163Y1018D02*
X2167Y1022D01*
X2137Y1022D02*
X2154Y1039D01*
X2348D01*
X2375Y1012D01*
X2620D01*
X2374Y1054D02*
X2388Y1040D01*
X2132Y1042D02*
X2144Y1054D01*
X2374D01*
X2136Y1101D02*
X2146Y1111D01*
X2305D01*
X2045Y1140D02*
X2145D01*
X2147Y1215D02*
X2305D01*
X2123Y1239D02*
X2147Y1215D01*
X2045Y1239D02*
X2123D01*
X2045Y1259D02*
X2134D01*
X2153Y1240D01*
X2328D01*
X2045Y1278D02*
X2145D01*
X2161Y1262D01*
X2352D01*
X2160Y1294D02*
X2275D01*
X2156Y1298D02*
X2160Y1294D01*
X2045Y1298D02*
X2156D01*
X2154Y1326D02*
X2305D01*
X2123Y1357D02*
X2154Y1326D01*
X2045Y1357D02*
X2123D01*
X2157Y1358D02*
X2275D01*
X2138Y1377D02*
X2157Y1358D01*
X2045Y1377D02*
X2138D01*
X2440Y1042D02*
X2590D01*
X2401Y1081D02*
X2440Y1042D01*
X2045Y1081D02*
X2401D01*
X2145Y1140D02*
X2149Y1137D01*
X2620D01*
X2275Y1162D02*
X2305D01*
X2045Y1160D02*
X2273D01*
X2275Y1162D01*
X2400Y1168D02*
X2590D01*
X2328Y1240D02*
X2400Y1168D01*
X2469Y1231D02*
X2620D01*
X2045Y1396D02*
X2303D01*
X2469Y1231D01*
X2045Y1475D02*
X2335D01*
X2452Y1358D01*
X2620D01*
X2045Y1416D02*
X2311D01*
X2464Y1263D01*
X2590D01*
X2045Y1436D02*
X2318D01*
X2459Y1295D01*
X2620D01*
X2045Y1456D02*
X2326D01*
X2456Y1326D01*
X2590D01*
X1935Y1585D02*
Y1635D01*
X1944Y1644D01*
X2809Y1768D02*
X2877Y1700D01*
X3100D01*
X2775Y1842D02*
X2892Y1725D01*
X3110D01*
X1738Y627D02*
X1905Y460D01*
X2640D01*
X2675Y425D01*
X2726D01*
X1699Y641D02*
X1901Y439D01*
X2612D01*
X2726Y325D01*
X2152Y314D02*
Y333D01*
X2688Y240D02*
X2726D01*
X2125Y305D02*
Y320D01*
X2152Y314D02*
X2177Y289D01*
X2639D01*
X2688Y240D01*
X2125Y305D02*
X2165Y265D01*
X2055Y310D02*
X2124Y241D01*
X2165Y265D02*
X2624D01*
X2704Y185D01*
X3085D01*
X2124Y241D02*
X2614D01*
X2697Y158D01*
X3093D01*
X3145Y210D01*
D31*
X2045Y1495D02*
Y1510D01*
X440Y1050D02*
X600Y890D01*
X289Y1050D02*
X440D01*
X880Y920D02*
X925Y965D01*
X775Y920D02*
X880D01*
X750Y945D02*
X775Y920D01*
X656Y945D02*
X750D01*
X601Y890D02*
X656Y945D01*
X1600Y1400D02*
Y1500D01*
X1255Y1220D02*
X1360D01*
X250Y620D02*
Y710D01*
X625Y260D02*
Y310D01*
X340Y620D02*
Y710D01*
X75Y855D02*
Y1925D01*
Y855D02*
X110Y820D01*
X270D01*
X340Y750D01*
Y725D02*
Y750D01*
Y710D02*
Y725D01*
X365Y750D01*
X500D01*
X75Y2125D02*
X125Y2075D01*
X160Y626D02*
Y710D01*
Y626D02*
X166Y620D01*
X1570Y795D02*
Y900D01*
X1425Y1400D02*
Y1500D01*
X1850Y1165D02*
X1965D01*
X205Y249D02*
X339D01*
X625Y310D02*
X720D01*
X210Y994D02*
Y1050D01*
Y994D02*
X250Y954D01*
X125Y1214D02*
X289Y1050D01*
X125Y1214D02*
Y2075D01*
X205Y351D02*
X339D01*
X340Y534D02*
Y620D01*
X905Y360D02*
X1000D01*
X550Y330D02*
Y460D01*
Y330D02*
X570Y310D01*
X625D01*
X1000Y260D02*
X1076D01*
X1090Y246D01*
X1000Y360D02*
Y410D01*
X476Y534D02*
X550Y460D01*
X340Y534D02*
X476D01*
X340Y455D02*
X420D01*
X475Y400D01*
X340Y350D02*
X425D01*
X475Y300D01*
X339Y351D02*
X340Y352D01*
X291Y1050D02*
X442D01*
D32*
X925Y965D02*
X970Y1010D01*
X625Y360D02*
Y410D01*
X970Y1010D02*
X1080D01*
X1107Y983D01*
X1176D01*
X1700Y1220D02*
X1900D01*
X625Y410D02*
X704D01*
X720Y394D01*
D33*
X2953Y1140D02*
D03*
D34*
Y1249D02*
D03*
Y1358D02*
D03*
Y1467D02*
D03*
Y1576D02*
D03*
X3065Y1194D02*
D03*
Y1304D02*
D03*
Y1413D02*
D03*
Y1521D02*
D03*
X590Y1594D02*
D03*
D35*
X3009Y866D02*
D03*
Y1850D02*
D03*
D36*
X1849Y2000D02*
D03*
Y1823D02*
D03*
D37*
X1681Y2124D02*
D03*
X2016D02*
D03*
D38*
X2400Y165D02*
D03*
X2203Y362D02*
D03*
X2302D02*
D03*
X2498D02*
D03*
X2597D02*
D03*
Y165D02*
D03*
X2203D02*
D03*
X2400Y362D02*
D03*
X2597Y67D02*
D03*
X2203D02*
D03*
X2578Y2039D02*
D03*
X2775Y1842D02*
D03*
X2676D02*
D03*
X2480D02*
D03*
X2381D02*
D03*
Y2039D02*
D03*
X2775D02*
D03*
X2578Y1842D02*
D03*
X2381Y2137D02*
D03*
X2775D02*
D03*
D39*
X1455Y210D02*
D03*
D40*
Y310D02*
D03*
X1555Y210D02*
D03*
Y310D02*
D03*
X1655Y210D02*
D03*
Y310D02*
D03*
X1755Y210D02*
D03*
Y310D02*
D03*
X1855Y210D02*
D03*
Y310D02*
D03*
X1955Y210D02*
D03*
Y310D02*
D03*
X2055Y210D02*
D03*
Y310D02*
D03*
X340Y250D02*
D03*
X475Y300D02*
D03*
D41*
X75Y2125D02*
D03*
Y2025D02*
D03*
Y1925D02*
D03*
D42*
X175Y2125D02*
D03*
X275D02*
D03*
X375D02*
D03*
X475D02*
D03*
X575D02*
D03*
X675D02*
D03*
X775D02*
D03*
X875D02*
D03*
X975D02*
D03*
X1075D02*
D03*
X1175D02*
D03*
X1275D02*
D03*
X1375D02*
D03*
X175Y2025D02*
D03*
X275D02*
D03*
X375D02*
D03*
X475D02*
D03*
X575D02*
D03*
X675D02*
D03*
X775D02*
D03*
X875D02*
D03*
X975D02*
D03*
X1075D02*
D03*
X1175D02*
D03*
X1275D02*
D03*
X1375D02*
D03*
X175Y1925D02*
D03*
X275D02*
D03*
X375D02*
D03*
X475D02*
D03*
X575D02*
D03*
X675D02*
D03*
X775D02*
D03*
X875D02*
D03*
X975D02*
D03*
X1075D02*
D03*
X1175D02*
D03*
X1275D02*
D03*
X1375D02*
D03*
X3051Y323D02*
D03*
Y506D02*
D03*
Y242D02*
D03*
X2953Y506D02*
D03*
Y242D02*
D03*
D43*
X3051Y425D02*
D03*
D44*
X3169Y640D02*
D03*
X3201Y374D02*
D03*
X3169Y108D02*
D03*
D45*
X590Y768D02*
D03*
D46*
X340Y350D02*
D03*
X475Y400D02*
D03*
D47*
X625Y100D02*
D03*
X425D02*
D03*
X1025D02*
D03*
X825D02*
D03*
D48*
X2045Y1510D02*
D03*
X2184Y1850D02*
D03*
X166Y620D02*
D03*
X424D02*
D03*
X1984Y625D02*
D03*
X2674Y1658D02*
D03*
X2394Y1743D02*
D03*
X1263Y388D02*
D03*
X1100Y405D02*
D03*
X925Y965D02*
D03*
X869D02*
D03*
X1255Y1040D02*
D03*
Y1155D02*
D03*
Y1220D02*
D03*
X1600Y1500D02*
D03*
X1660D02*
D03*
X1716D02*
D03*
X1444Y795D02*
D03*
X1225Y1585D02*
D03*
X1965Y1165D02*
D03*
Y1300D02*
D03*
Y1355D02*
D03*
Y1090D02*
D03*
X1855Y795D02*
D03*
X1670D02*
D03*
X1500D02*
D03*
X1570D02*
D03*
X1254D02*
D03*
X1310D02*
D03*
X1255Y904D02*
D03*
Y960D02*
D03*
Y1276D02*
D03*
Y1395D02*
D03*
X1425Y1500D02*
D03*
X1481D02*
D03*
X1880D02*
D03*
X1936D02*
D03*
X1660Y416D02*
D03*
X1965Y885D02*
D03*
Y1236D02*
D03*
X1100Y1175D02*
D03*
X1495Y1220D02*
D03*
X1700D02*
D03*
X1410Y1185D02*
D03*
Y1090D02*
D03*
X935D02*
D03*
X600Y995D02*
D03*
X1025Y1060D02*
D03*
X1565Y415D02*
D03*
X720Y394D02*
D03*
X905Y360D02*
D03*
X720Y310D02*
D03*
X600Y1095D02*
D03*
X1090Y330D02*
D03*
Y246D02*
D03*
X925Y185D02*
D03*
X775Y575D02*
D03*
X1364Y1515D02*
D03*
D49*
X1350Y150D02*
D03*
X600Y890D02*
D03*
X925Y1475D02*
D03*
X1000Y975D02*
D03*
X1025Y825D02*
D03*
X1360Y1220D02*
D03*
X1600Y1400D02*
D03*
X1915Y800D02*
D03*
X1985Y700D02*
D03*
X1035Y1850D02*
D03*
X1135D02*
D03*
X735D02*
D03*
X535D02*
D03*
X635D02*
D03*
X1500Y2125D02*
D03*
X935Y1850D02*
D03*
X435D02*
D03*
X835D02*
D03*
X2175Y625D02*
D03*
X785Y790D02*
D03*
X2135Y740D02*
D03*
X1215Y1855D02*
D03*
X500Y750D02*
D03*
X2095Y685D02*
D03*
X2130Y805D02*
D03*
X1425Y1400D02*
D03*
X1570Y900D02*
D03*
X1625Y850D02*
D03*
X1850Y1165D02*
D03*
X1900Y1220D02*
D03*
X1060Y975D02*
D03*
X3184Y2040D02*
D03*
Y2125D02*
D03*
X2925Y2040D02*
D03*
X235Y1850D02*
D03*
X335D02*
D03*
X835Y1170D02*
D03*
X825Y725D02*
D03*
X875Y750D02*
D03*
X975D02*
D03*
X925Y800D02*
D03*
X725Y175D02*
D03*
X500Y600D02*
D03*
D50*
X2275Y854D02*
D03*
X2305Y822D02*
D03*
Y885D02*
D03*
X2275Y917D02*
D03*
X2305Y949D02*
D03*
X2620Y948D02*
D03*
X2590Y918D02*
D03*
X2620Y886D02*
D03*
X2590Y854D02*
D03*
X2620Y823D02*
D03*
X2275Y981D02*
D03*
X2590Y980D02*
D03*
X2340Y1007D02*
D03*
X2620Y1012D02*
D03*
X2388Y1040D02*
D03*
X2620Y1137D02*
D03*
X2305Y1111D02*
D03*
X2590Y1168D02*
D03*
X2305Y1215D02*
D03*
X2352Y1262D02*
D03*
X2275Y1294D02*
D03*
X2305Y1326D02*
D03*
X2275Y1358D02*
D03*
X2590Y1263D02*
D03*
X2620Y1295D02*
D03*
X2590Y1326D02*
D03*
Y1042D02*
D03*
X2305Y1162D02*
D03*
X2620Y1231D02*
D03*
Y1358D02*
D03*
M02*
