G04 Layer_Color=8421504*
%FSLAX23Y23*%
%MOIN*%
G70*
G01*
G75*
%ADD10R,0.039X0.114*%
%ADD11R,0.050X0.050*%
%ADD12R,0.038X0.032*%
%ADD13R,0.011X0.070*%
%ADD14O,0.011X0.070*%
%ADD15O,0.070X0.011*%
%ADD16R,0.070X0.011*%
%ADD17R,0.048X0.048*%
%ADD18R,0.050X0.050*%
%ADD19R,0.032X0.038*%
%ADD20R,0.048X0.088*%
%ADD21R,0.142X0.088*%
%ADD22R,0.040X0.048*%
%ADD23R,0.048X0.040*%
%ADD24R,0.086X0.024*%
%ADD25O,0.086X0.024*%
%ADD26R,0.063X0.083*%
%ADD27R,0.120X0.075*%
%ADD28R,0.075X0.075*%
%ADD29R,0.053X0.016*%
D10*
X2185Y2108D02*
D03*
Y1872D02*
D03*
D11*
X166Y620D02*
D03*
X250D02*
D03*
X424D02*
D03*
X340D02*
D03*
X1263Y388D02*
D03*
X1347D02*
D03*
X3009Y2125D02*
D03*
X2925D02*
D03*
Y2040D02*
D03*
X3009D02*
D03*
X1085Y1585D02*
D03*
X1169D02*
D03*
X2810Y505D02*
D03*
X2726D02*
D03*
Y245D02*
D03*
X2810D02*
D03*
Y425D02*
D03*
X2726D02*
D03*
Y325D02*
D03*
X2810D02*
D03*
X1260Y310D02*
D03*
X1176D02*
D03*
X1260Y235D02*
D03*
X1176D02*
D03*
X1347Y538D02*
D03*
X1263D02*
D03*
X1347Y463D02*
D03*
X1263D02*
D03*
X601Y995D02*
D03*
X685D02*
D03*
Y890D02*
D03*
X601D02*
D03*
Y1095D02*
D03*
X685D02*
D03*
X1260Y160D02*
D03*
X1176D02*
D03*
D12*
X1100Y461D02*
D03*
Y405D02*
D03*
X1175Y420D02*
D03*
Y476D02*
D03*
D13*
X1955Y1585D02*
D03*
X1778D02*
D03*
X1581D02*
D03*
X1384D02*
D03*
X1403Y715D02*
D03*
X1600D02*
D03*
X1797D02*
D03*
D14*
X1935Y1585D02*
D03*
X1916D02*
D03*
X1896D02*
D03*
X1876D02*
D03*
X1857D02*
D03*
X1837D02*
D03*
X1817D02*
D03*
X1797D02*
D03*
X1758D02*
D03*
X1738D02*
D03*
X1719D02*
D03*
X1699D02*
D03*
X1679D02*
D03*
X1660D02*
D03*
X1640D02*
D03*
X1620D02*
D03*
X1600D02*
D03*
X1561D02*
D03*
X1541D02*
D03*
X1522D02*
D03*
X1502D02*
D03*
X1482D02*
D03*
X1462D02*
D03*
X1443D02*
D03*
X1423D02*
D03*
X1403D02*
D03*
X1364D02*
D03*
X1344D02*
D03*
X1325D02*
D03*
X1305D02*
D03*
X1285D02*
D03*
X1265D02*
D03*
Y715D02*
D03*
X1285D02*
D03*
X1305D02*
D03*
X1325D02*
D03*
X1344D02*
D03*
X1364D02*
D03*
X1384D02*
D03*
X1423D02*
D03*
X1443D02*
D03*
X1462D02*
D03*
X1482D02*
D03*
X1502D02*
D03*
X1522D02*
D03*
X1541D02*
D03*
X1561D02*
D03*
X1581D02*
D03*
X1620D02*
D03*
X1640D02*
D03*
X1660D02*
D03*
X1679D02*
D03*
X1699D02*
D03*
X1719D02*
D03*
X1738D02*
D03*
X1758D02*
D03*
X1778D02*
D03*
X1817D02*
D03*
X1837D02*
D03*
X1857D02*
D03*
X1876D02*
D03*
X1896D02*
D03*
X1916D02*
D03*
X1935D02*
D03*
X1955D02*
D03*
D15*
X1176Y1495D02*
D03*
Y1475D02*
D03*
Y1456D02*
D03*
Y1416D02*
D03*
Y1396D02*
D03*
Y1377D02*
D03*
Y1357D02*
D03*
Y1337D02*
D03*
Y1318D02*
D03*
Y1298D02*
D03*
Y1278D02*
D03*
Y1259D02*
D03*
Y1219D02*
D03*
Y1199D02*
D03*
Y1180D02*
D03*
Y1160D02*
D03*
Y1140D02*
D03*
Y1121D02*
D03*
Y1101D02*
D03*
Y1081D02*
D03*
Y1062D02*
D03*
Y1022D02*
D03*
Y1003D02*
D03*
Y983D02*
D03*
Y963D02*
D03*
Y943D02*
D03*
Y924D02*
D03*
Y904D02*
D03*
Y884D02*
D03*
Y865D02*
D03*
Y825D02*
D03*
Y805D02*
D03*
X2045D02*
D03*
Y845D02*
D03*
Y865D02*
D03*
Y884D02*
D03*
Y904D02*
D03*
Y924D02*
D03*
Y943D02*
D03*
Y963D02*
D03*
Y983D02*
D03*
Y1003D02*
D03*
Y1042D02*
D03*
Y1062D02*
D03*
Y1081D02*
D03*
Y1101D02*
D03*
Y1121D02*
D03*
Y1140D02*
D03*
Y1160D02*
D03*
Y1180D02*
D03*
Y1199D02*
D03*
Y1239D02*
D03*
Y1259D02*
D03*
Y1278D02*
D03*
Y1298D02*
D03*
Y1318D02*
D03*
Y1337D02*
D03*
Y1357D02*
D03*
Y1377D02*
D03*
Y1396D02*
D03*
Y1436D02*
D03*
Y1456D02*
D03*
Y1475D02*
D03*
Y1495D02*
D03*
D16*
X1176Y1436D02*
D03*
Y1239D02*
D03*
Y1042D02*
D03*
Y845D02*
D03*
X2045Y825D02*
D03*
Y1022D02*
D03*
Y1219D02*
D03*
Y1416D02*
D03*
D17*
X3184Y2125D02*
D03*
X3100D02*
D03*
Y2040D02*
D03*
X3184D02*
D03*
D18*
X1735Y500D02*
D03*
Y416D02*
D03*
X1660Y500D02*
D03*
Y416D02*
D03*
X1565D02*
D03*
Y500D02*
D03*
D19*
X1180Y560D02*
D03*
X1124D02*
D03*
X869Y965D02*
D03*
X925D02*
D03*
D20*
X160Y710D02*
D03*
X250D02*
D03*
X340D02*
D03*
D21*
X250Y954D02*
D03*
D22*
X289Y1050D02*
D03*
X210D02*
D03*
D23*
X340Y534D02*
D03*
Y455D02*
D03*
D24*
X1000Y210D02*
D03*
D25*
Y260D02*
D03*
Y310D02*
D03*
Y360D02*
D03*
Y410D02*
D03*
Y460D02*
D03*
Y510D02*
D03*
Y560D02*
D03*
X625D02*
D03*
Y510D02*
D03*
Y460D02*
D03*
Y410D02*
D03*
Y360D02*
D03*
Y310D02*
D03*
Y260D02*
D03*
Y210D02*
D03*
D26*
X200Y178D02*
D03*
Y422D02*
D03*
D27*
X100Y148D02*
D03*
Y452D02*
D03*
D28*
Y253D02*
D03*
Y347D02*
D03*
D29*
X205Y249D02*
D03*
Y274D02*
D03*
Y300D02*
D03*
Y326D02*
D03*
Y351D02*
D03*
M02*
