M48
;Layer_Color=9474304
;FILE_FORMAT=2:3
INCH,LZ
;TYPE=PLATED
T1F00S00C0.016
T2F00S00C0.020
T3F00S00C0.031
T4F00S00C0.035
T5F00S00C0.043
T6F00S00C0.052
T7F00S00C0.063
T8F00S00C0.080
T9F00S00C0.091
T10F00S00C0.120
;TYPE=NON_PLATED
T11F00S00C0.060
T12F00S00C0.102
%
T01
X02305Y00822
X02275Y00854
X02305Y00885
X02275Y00917
X02305Y00949
X02275Y00981
X0234Y01007
X0259Y0098
X0262Y00948
X0259Y00918
X0262Y00886
X0259Y00854
X0262Y00823
Y01012
X0259Y01042
X0262Y01137
X0259Y01168
X0262Y01231
X0259Y01263
X0262Y01295
X0259Y01326
X0262Y01358
X02275
X02305Y01326
X02275Y01294
X02305Y01215
Y01162
Y01111
X02388Y0104
X02352Y01262
T02
X0135Y0015
X01263Y00388
X01565Y00415
X0166Y00416
X0167Y00795
X0157
X015
X01444
X0131
X01254
X01255Y00904
Y0096
X0157Y009
X01625Y0085
X01855Y00795
X01915Y008
X01965Y00885
X01985Y007
X01984Y00625
X02095Y00685
X02135Y0074
X0213Y00805
X02175Y00625
X011Y00405
X0109Y0033
Y00246
X00925Y00185
X00905Y0036
X0072Y00394
Y0031
X00725Y00175
X00775Y00575
X00825Y00725
X00875Y0075
X00975
X00925Y008
X01025Y00825
X01Y00975
X0106
X00925Y00965
X00869
X00785Y0079
X006Y0089
Y00995
X005Y0075
Y006
X00424Y0062
X00166
X006Y01095
X00835Y0117
X00935Y0109
X01025Y0106
X011Y01175
X00925Y01475
X00935Y0185
X01035
X00835
X00735
X00635
X00535
X00435
X00335
X00235
X01135
X01215Y01855
X01225Y01585
X01364Y01515
X01425Y015
X01481
X016
X0166
X01716
X0188
X01936
X02045Y0151
X01965Y01355
Y013
Y01236
Y01165
Y0109
X0185Y01165
X019Y0122
X017
X01495
X0141Y01185
X0136Y0122
X01255
Y01276
Y01395
X01425Y014
X016
X0141Y0109
X01255Y0104
Y01155
X015Y02125
X02184Y0185
X02394Y01743
X02674Y01658
X02925Y0204
X03184
Y02125
T03
X00425Y001
X00625
X00825
X01025
T04
X02953Y00242
X03051
Y00323
Y00425
Y00506
X02953
X02055Y0031
X01955
X01855
X01755
X01655
X01555
X01455
Y0021
X01555
X01655
X01755
X01855
X01955
X02055
X00475Y003
Y004
X0034Y0035
Y0025
X00375Y01925
Y02025
Y02125
X00275
X00175
X00075
Y02025
X00175
X00275
Y01925
X00175
X00075
X00475
Y02025
Y02125
X00575
X00675
X00775
X00875
X00975
X01075
Y02025
X00975
X00875
X00775
X00675
X00575
Y01925
X00675
X00775
X00875
X00975
X01075
X01175
Y02025
Y02125
X01275
X01375
Y02025
X01275
Y01925
X01375
X02953Y01576
Y01467
Y01358
Y01249
Y0114
X03065Y01194
Y01304
Y01413
Y01521
T05
X0059Y00768
T06
X024Y00165
X02302Y00362
X02203
X02498
X02597
X02676Y01842
X0248
X02381
X02578Y02039
X02775Y01842
T07
X0059Y01594
T08
X01849Y01823
Y02
T09
X03169Y00108
X03201Y00374
X03169Y0064
T10
X03009Y00866
Y0185
T11
X02203Y00067
X02203Y00165
X02597
X02597Y00067
X024Y00362
X02578Y01842
X02381Y02039
X02381Y02137
X02775
X02775Y02039
T12
X01681Y02124
X02016
M30
