%
M48
M72
T01C0.01200
%
T01
X41000Y49500
X52000Y30500
X70400Y30600
X69300Y42300
X64000Y56500
X42000Y94500
X41000Y117500
X57000Y130500
X67300Y137500
X72000Y127500
X72000Y107500
X123000Y69500
X124000Y46500
X108000Y33500
X97700Y26500
X93000Y36500
X93000Y56500
X101000Y107500
X95700Y121700
X94600Y133400
X113000Y133500
X124000Y114500
M30
