G75*
%MOIN*%
%OFA0B0*%
%FSLAX25Y25*%
%IPPOS*%
%LPD*%
%AMOC8*
5,1,8,0,0,1.08239X$1,22.5*
%
%ADD10C,0.00000*%
%ADD11R,0.10000X0.05000*%
%ADD12R,0.04331X0.05512*%
%ADD13R,0.05000X0.10000*%
%ADD14R,0.05906X0.07874*%
%ADD15R,0.04724X0.03937*%
%ADD16R,0.07600X0.20000*%
%ADD17C,0.02400*%
%ADD18C,0.00800*%
D10*
X0003000Y0056500D02*
X0003000Y0079500D01*
X0028000Y0079500D01*
X0028087Y0079502D01*
X0028174Y0079508D01*
X0028261Y0079517D01*
X0028347Y0079530D01*
X0028433Y0079547D01*
X0028518Y0079568D01*
X0028601Y0079593D01*
X0028684Y0079621D01*
X0028765Y0079652D01*
X0028845Y0079687D01*
X0028923Y0079726D01*
X0029000Y0079768D01*
X0029075Y0079813D01*
X0029147Y0079862D01*
X0029218Y0079913D01*
X0029286Y0079968D01*
X0029351Y0080025D01*
X0029414Y0080086D01*
X0029475Y0080149D01*
X0029532Y0080214D01*
X0029587Y0080282D01*
X0029638Y0080353D01*
X0029687Y0080425D01*
X0029732Y0080500D01*
X0029774Y0080577D01*
X0029813Y0080655D01*
X0029848Y0080735D01*
X0029879Y0080816D01*
X0029907Y0080899D01*
X0029932Y0080982D01*
X0029953Y0081067D01*
X0029970Y0081153D01*
X0029983Y0081239D01*
X0029992Y0081326D01*
X0029998Y0081413D01*
X0030000Y0081500D01*
X0030000Y0082500D01*
X0029998Y0082587D01*
X0029992Y0082674D01*
X0029983Y0082761D01*
X0029970Y0082847D01*
X0029953Y0082933D01*
X0029932Y0083018D01*
X0029907Y0083101D01*
X0029879Y0083184D01*
X0029848Y0083265D01*
X0029813Y0083345D01*
X0029774Y0083423D01*
X0029732Y0083500D01*
X0029687Y0083575D01*
X0029638Y0083647D01*
X0029587Y0083718D01*
X0029532Y0083786D01*
X0029475Y0083851D01*
X0029414Y0083914D01*
X0029351Y0083975D01*
X0029286Y0084032D01*
X0029218Y0084087D01*
X0029147Y0084138D01*
X0029075Y0084187D01*
X0029000Y0084232D01*
X0028923Y0084274D01*
X0028845Y0084313D01*
X0028765Y0084348D01*
X0028684Y0084379D01*
X0028601Y0084407D01*
X0028518Y0084432D01*
X0028433Y0084453D01*
X0028347Y0084470D01*
X0028261Y0084483D01*
X0028174Y0084492D01*
X0028087Y0084498D01*
X0028000Y0084500D01*
X0003000Y0084500D01*
X0003000Y0106500D01*
X0015000Y0106500D01*
X0054000Y0161500D01*
X0074000Y0161500D01*
X0162000Y0107500D01*
X0162000Y0084500D01*
X0137000Y0084500D01*
X0136913Y0084498D01*
X0136826Y0084492D01*
X0136739Y0084483D01*
X0136653Y0084470D01*
X0136567Y0084453D01*
X0136482Y0084432D01*
X0136399Y0084407D01*
X0136316Y0084379D01*
X0136235Y0084348D01*
X0136155Y0084313D01*
X0136077Y0084274D01*
X0136000Y0084232D01*
X0135925Y0084187D01*
X0135853Y0084138D01*
X0135782Y0084087D01*
X0135714Y0084032D01*
X0135649Y0083975D01*
X0135586Y0083914D01*
X0135525Y0083851D01*
X0135468Y0083786D01*
X0135413Y0083718D01*
X0135362Y0083647D01*
X0135313Y0083575D01*
X0135268Y0083500D01*
X0135226Y0083423D01*
X0135187Y0083345D01*
X0135152Y0083265D01*
X0135121Y0083184D01*
X0135093Y0083101D01*
X0135068Y0083018D01*
X0135047Y0082933D01*
X0135030Y0082847D01*
X0135017Y0082761D01*
X0135008Y0082674D01*
X0135002Y0082587D01*
X0135000Y0082500D01*
X0135000Y0081500D01*
X0135002Y0081413D01*
X0135008Y0081326D01*
X0135017Y0081239D01*
X0135030Y0081153D01*
X0135047Y0081067D01*
X0135068Y0080982D01*
X0135093Y0080899D01*
X0135121Y0080816D01*
X0135152Y0080735D01*
X0135187Y0080655D01*
X0135226Y0080577D01*
X0135268Y0080500D01*
X0135313Y0080425D01*
X0135362Y0080353D01*
X0135413Y0080282D01*
X0135468Y0080214D01*
X0135525Y0080149D01*
X0135586Y0080086D01*
X0135649Y0080025D01*
X0135714Y0079968D01*
X0135782Y0079913D01*
X0135853Y0079862D01*
X0135925Y0079813D01*
X0136000Y0079768D01*
X0136077Y0079726D01*
X0136155Y0079687D01*
X0136235Y0079652D01*
X0136316Y0079621D01*
X0136399Y0079593D01*
X0136482Y0079568D01*
X0136567Y0079547D01*
X0136653Y0079530D01*
X0136739Y0079517D01*
X0136826Y0079508D01*
X0136913Y0079502D01*
X0137000Y0079500D01*
X0162000Y0079500D01*
X0162000Y0057500D01*
X0150000Y0057500D01*
X0111000Y0002500D01*
X0091000Y0002500D01*
X0003000Y0056500D01*
X0037000Y0081500D02*
X0037000Y0082500D01*
X0037002Y0082587D01*
X0037008Y0082674D01*
X0037017Y0082761D01*
X0037030Y0082847D01*
X0037047Y0082933D01*
X0037068Y0083018D01*
X0037093Y0083101D01*
X0037121Y0083184D01*
X0037152Y0083265D01*
X0037187Y0083345D01*
X0037226Y0083423D01*
X0037268Y0083500D01*
X0037313Y0083575D01*
X0037362Y0083647D01*
X0037413Y0083718D01*
X0037468Y0083786D01*
X0037525Y0083851D01*
X0037586Y0083914D01*
X0037649Y0083975D01*
X0037714Y0084032D01*
X0037782Y0084087D01*
X0037853Y0084138D01*
X0037925Y0084187D01*
X0038000Y0084232D01*
X0038077Y0084274D01*
X0038155Y0084313D01*
X0038235Y0084348D01*
X0038316Y0084379D01*
X0038399Y0084407D01*
X0038482Y0084432D01*
X0038567Y0084453D01*
X0038653Y0084470D01*
X0038739Y0084483D01*
X0038826Y0084492D01*
X0038913Y0084498D01*
X0039000Y0084500D01*
X0042000Y0084500D01*
X0042087Y0084498D01*
X0042174Y0084492D01*
X0042261Y0084483D01*
X0042347Y0084470D01*
X0042433Y0084453D01*
X0042518Y0084432D01*
X0042601Y0084407D01*
X0042684Y0084379D01*
X0042765Y0084348D01*
X0042845Y0084313D01*
X0042923Y0084274D01*
X0043000Y0084232D01*
X0043075Y0084187D01*
X0043147Y0084138D01*
X0043218Y0084087D01*
X0043286Y0084032D01*
X0043351Y0083975D01*
X0043414Y0083914D01*
X0043475Y0083851D01*
X0043532Y0083786D01*
X0043587Y0083718D01*
X0043638Y0083647D01*
X0043687Y0083575D01*
X0043732Y0083500D01*
X0043774Y0083423D01*
X0043813Y0083345D01*
X0043848Y0083265D01*
X0043879Y0083184D01*
X0043907Y0083101D01*
X0043932Y0083018D01*
X0043953Y0082933D01*
X0043970Y0082847D01*
X0043983Y0082761D01*
X0043992Y0082674D01*
X0043998Y0082587D01*
X0044000Y0082500D01*
X0044000Y0081500D01*
X0043998Y0081413D01*
X0043992Y0081326D01*
X0043983Y0081239D01*
X0043970Y0081153D01*
X0043953Y0081067D01*
X0043932Y0080982D01*
X0043907Y0080899D01*
X0043879Y0080816D01*
X0043848Y0080735D01*
X0043813Y0080655D01*
X0043774Y0080577D01*
X0043732Y0080500D01*
X0043687Y0080425D01*
X0043638Y0080353D01*
X0043587Y0080282D01*
X0043532Y0080214D01*
X0043475Y0080149D01*
X0043414Y0080086D01*
X0043351Y0080025D01*
X0043286Y0079968D01*
X0043218Y0079913D01*
X0043147Y0079862D01*
X0043075Y0079813D01*
X0043000Y0079768D01*
X0042923Y0079726D01*
X0042845Y0079687D01*
X0042765Y0079652D01*
X0042684Y0079621D01*
X0042601Y0079593D01*
X0042518Y0079568D01*
X0042433Y0079547D01*
X0042347Y0079530D01*
X0042261Y0079517D01*
X0042174Y0079508D01*
X0042087Y0079502D01*
X0042000Y0079500D01*
X0039000Y0079500D01*
X0038913Y0079502D01*
X0038826Y0079508D01*
X0038739Y0079517D01*
X0038653Y0079530D01*
X0038567Y0079547D01*
X0038482Y0079568D01*
X0038399Y0079593D01*
X0038316Y0079621D01*
X0038235Y0079652D01*
X0038155Y0079687D01*
X0038077Y0079726D01*
X0038000Y0079768D01*
X0037925Y0079813D01*
X0037853Y0079862D01*
X0037782Y0079913D01*
X0037714Y0079968D01*
X0037649Y0080025D01*
X0037586Y0080086D01*
X0037525Y0080149D01*
X0037468Y0080214D01*
X0037413Y0080282D01*
X0037362Y0080353D01*
X0037313Y0080425D01*
X0037268Y0080500D01*
X0037226Y0080577D01*
X0037187Y0080655D01*
X0037152Y0080735D01*
X0037121Y0080816D01*
X0037093Y0080899D01*
X0037068Y0080982D01*
X0037047Y0081067D01*
X0037030Y0081153D01*
X0037017Y0081239D01*
X0037008Y0081326D01*
X0037002Y0081413D01*
X0037000Y0081500D01*
X0051000Y0081500D02*
X0051000Y0082500D01*
X0051002Y0082587D01*
X0051008Y0082674D01*
X0051017Y0082761D01*
X0051030Y0082847D01*
X0051047Y0082933D01*
X0051068Y0083018D01*
X0051093Y0083101D01*
X0051121Y0083184D01*
X0051152Y0083265D01*
X0051187Y0083345D01*
X0051226Y0083423D01*
X0051268Y0083500D01*
X0051313Y0083575D01*
X0051362Y0083647D01*
X0051413Y0083718D01*
X0051468Y0083786D01*
X0051525Y0083851D01*
X0051586Y0083914D01*
X0051649Y0083975D01*
X0051714Y0084032D01*
X0051782Y0084087D01*
X0051853Y0084138D01*
X0051925Y0084187D01*
X0052000Y0084232D01*
X0052077Y0084274D01*
X0052155Y0084313D01*
X0052235Y0084348D01*
X0052316Y0084379D01*
X0052399Y0084407D01*
X0052482Y0084432D01*
X0052567Y0084453D01*
X0052653Y0084470D01*
X0052739Y0084483D01*
X0052826Y0084492D01*
X0052913Y0084498D01*
X0053000Y0084500D01*
X0056000Y0084500D01*
X0056087Y0084498D01*
X0056174Y0084492D01*
X0056261Y0084483D01*
X0056347Y0084470D01*
X0056433Y0084453D01*
X0056518Y0084432D01*
X0056601Y0084407D01*
X0056684Y0084379D01*
X0056765Y0084348D01*
X0056845Y0084313D01*
X0056923Y0084274D01*
X0057000Y0084232D01*
X0057075Y0084187D01*
X0057147Y0084138D01*
X0057218Y0084087D01*
X0057286Y0084032D01*
X0057351Y0083975D01*
X0057414Y0083914D01*
X0057475Y0083851D01*
X0057532Y0083786D01*
X0057587Y0083718D01*
X0057638Y0083647D01*
X0057687Y0083575D01*
X0057732Y0083500D01*
X0057774Y0083423D01*
X0057813Y0083345D01*
X0057848Y0083265D01*
X0057879Y0083184D01*
X0057907Y0083101D01*
X0057932Y0083018D01*
X0057953Y0082933D01*
X0057970Y0082847D01*
X0057983Y0082761D01*
X0057992Y0082674D01*
X0057998Y0082587D01*
X0058000Y0082500D01*
X0058000Y0081500D01*
X0057998Y0081413D01*
X0057992Y0081326D01*
X0057983Y0081239D01*
X0057970Y0081153D01*
X0057953Y0081067D01*
X0057932Y0080982D01*
X0057907Y0080899D01*
X0057879Y0080816D01*
X0057848Y0080735D01*
X0057813Y0080655D01*
X0057774Y0080577D01*
X0057732Y0080500D01*
X0057687Y0080425D01*
X0057638Y0080353D01*
X0057587Y0080282D01*
X0057532Y0080214D01*
X0057475Y0080149D01*
X0057414Y0080086D01*
X0057351Y0080025D01*
X0057286Y0079968D01*
X0057218Y0079913D01*
X0057147Y0079862D01*
X0057075Y0079813D01*
X0057000Y0079768D01*
X0056923Y0079726D01*
X0056845Y0079687D01*
X0056765Y0079652D01*
X0056684Y0079621D01*
X0056601Y0079593D01*
X0056518Y0079568D01*
X0056433Y0079547D01*
X0056347Y0079530D01*
X0056261Y0079517D01*
X0056174Y0079508D01*
X0056087Y0079502D01*
X0056000Y0079500D01*
X0053000Y0079500D01*
X0052913Y0079502D01*
X0052826Y0079508D01*
X0052739Y0079517D01*
X0052653Y0079530D01*
X0052567Y0079547D01*
X0052482Y0079568D01*
X0052399Y0079593D01*
X0052316Y0079621D01*
X0052235Y0079652D01*
X0052155Y0079687D01*
X0052077Y0079726D01*
X0052000Y0079768D01*
X0051925Y0079813D01*
X0051853Y0079862D01*
X0051782Y0079913D01*
X0051714Y0079968D01*
X0051649Y0080025D01*
X0051586Y0080086D01*
X0051525Y0080149D01*
X0051468Y0080214D01*
X0051413Y0080282D01*
X0051362Y0080353D01*
X0051313Y0080425D01*
X0051268Y0080500D01*
X0051226Y0080577D01*
X0051187Y0080655D01*
X0051152Y0080735D01*
X0051121Y0080816D01*
X0051093Y0080899D01*
X0051068Y0080982D01*
X0051047Y0081067D01*
X0051030Y0081153D01*
X0051017Y0081239D01*
X0051008Y0081326D01*
X0051002Y0081413D01*
X0051000Y0081500D01*
X0065000Y0081500D02*
X0065000Y0082500D01*
X0065002Y0082587D01*
X0065008Y0082674D01*
X0065017Y0082761D01*
X0065030Y0082847D01*
X0065047Y0082933D01*
X0065068Y0083018D01*
X0065093Y0083101D01*
X0065121Y0083184D01*
X0065152Y0083265D01*
X0065187Y0083345D01*
X0065226Y0083423D01*
X0065268Y0083500D01*
X0065313Y0083575D01*
X0065362Y0083647D01*
X0065413Y0083718D01*
X0065468Y0083786D01*
X0065525Y0083851D01*
X0065586Y0083914D01*
X0065649Y0083975D01*
X0065714Y0084032D01*
X0065782Y0084087D01*
X0065853Y0084138D01*
X0065925Y0084187D01*
X0066000Y0084232D01*
X0066077Y0084274D01*
X0066155Y0084313D01*
X0066235Y0084348D01*
X0066316Y0084379D01*
X0066399Y0084407D01*
X0066482Y0084432D01*
X0066567Y0084453D01*
X0066653Y0084470D01*
X0066739Y0084483D01*
X0066826Y0084492D01*
X0066913Y0084498D01*
X0067000Y0084500D01*
X0070000Y0084500D01*
X0070087Y0084498D01*
X0070174Y0084492D01*
X0070261Y0084483D01*
X0070347Y0084470D01*
X0070433Y0084453D01*
X0070518Y0084432D01*
X0070601Y0084407D01*
X0070684Y0084379D01*
X0070765Y0084348D01*
X0070845Y0084313D01*
X0070923Y0084274D01*
X0071000Y0084232D01*
X0071075Y0084187D01*
X0071147Y0084138D01*
X0071218Y0084087D01*
X0071286Y0084032D01*
X0071351Y0083975D01*
X0071414Y0083914D01*
X0071475Y0083851D01*
X0071532Y0083786D01*
X0071587Y0083718D01*
X0071638Y0083647D01*
X0071687Y0083575D01*
X0071732Y0083500D01*
X0071774Y0083423D01*
X0071813Y0083345D01*
X0071848Y0083265D01*
X0071879Y0083184D01*
X0071907Y0083101D01*
X0071932Y0083018D01*
X0071953Y0082933D01*
X0071970Y0082847D01*
X0071983Y0082761D01*
X0071992Y0082674D01*
X0071998Y0082587D01*
X0072000Y0082500D01*
X0072000Y0081500D01*
X0071998Y0081413D01*
X0071992Y0081326D01*
X0071983Y0081239D01*
X0071970Y0081153D01*
X0071953Y0081067D01*
X0071932Y0080982D01*
X0071907Y0080899D01*
X0071879Y0080816D01*
X0071848Y0080735D01*
X0071813Y0080655D01*
X0071774Y0080577D01*
X0071732Y0080500D01*
X0071687Y0080425D01*
X0071638Y0080353D01*
X0071587Y0080282D01*
X0071532Y0080214D01*
X0071475Y0080149D01*
X0071414Y0080086D01*
X0071351Y0080025D01*
X0071286Y0079968D01*
X0071218Y0079913D01*
X0071147Y0079862D01*
X0071075Y0079813D01*
X0071000Y0079768D01*
X0070923Y0079726D01*
X0070845Y0079687D01*
X0070765Y0079652D01*
X0070684Y0079621D01*
X0070601Y0079593D01*
X0070518Y0079568D01*
X0070433Y0079547D01*
X0070347Y0079530D01*
X0070261Y0079517D01*
X0070174Y0079508D01*
X0070087Y0079502D01*
X0070000Y0079500D01*
X0067000Y0079500D01*
X0066913Y0079502D01*
X0066826Y0079508D01*
X0066739Y0079517D01*
X0066653Y0079530D01*
X0066567Y0079547D01*
X0066482Y0079568D01*
X0066399Y0079593D01*
X0066316Y0079621D01*
X0066235Y0079652D01*
X0066155Y0079687D01*
X0066077Y0079726D01*
X0066000Y0079768D01*
X0065925Y0079813D01*
X0065853Y0079862D01*
X0065782Y0079913D01*
X0065714Y0079968D01*
X0065649Y0080025D01*
X0065586Y0080086D01*
X0065525Y0080149D01*
X0065468Y0080214D01*
X0065413Y0080282D01*
X0065362Y0080353D01*
X0065313Y0080425D01*
X0065268Y0080500D01*
X0065226Y0080577D01*
X0065187Y0080655D01*
X0065152Y0080735D01*
X0065121Y0080816D01*
X0065093Y0080899D01*
X0065068Y0080982D01*
X0065047Y0081067D01*
X0065030Y0081153D01*
X0065017Y0081239D01*
X0065008Y0081326D01*
X0065002Y0081413D01*
X0065000Y0081500D01*
X0079000Y0081500D02*
X0079000Y0082500D01*
X0079002Y0082587D01*
X0079008Y0082674D01*
X0079017Y0082761D01*
X0079030Y0082847D01*
X0079047Y0082933D01*
X0079068Y0083018D01*
X0079093Y0083101D01*
X0079121Y0083184D01*
X0079152Y0083265D01*
X0079187Y0083345D01*
X0079226Y0083423D01*
X0079268Y0083500D01*
X0079313Y0083575D01*
X0079362Y0083647D01*
X0079413Y0083718D01*
X0079468Y0083786D01*
X0079525Y0083851D01*
X0079586Y0083914D01*
X0079649Y0083975D01*
X0079714Y0084032D01*
X0079782Y0084087D01*
X0079853Y0084138D01*
X0079925Y0084187D01*
X0080000Y0084232D01*
X0080077Y0084274D01*
X0080155Y0084313D01*
X0080235Y0084348D01*
X0080316Y0084379D01*
X0080399Y0084407D01*
X0080482Y0084432D01*
X0080567Y0084453D01*
X0080653Y0084470D01*
X0080739Y0084483D01*
X0080826Y0084492D01*
X0080913Y0084498D01*
X0081000Y0084500D01*
X0084000Y0084500D01*
X0084087Y0084498D01*
X0084174Y0084492D01*
X0084261Y0084483D01*
X0084347Y0084470D01*
X0084433Y0084453D01*
X0084518Y0084432D01*
X0084601Y0084407D01*
X0084684Y0084379D01*
X0084765Y0084348D01*
X0084845Y0084313D01*
X0084923Y0084274D01*
X0085000Y0084232D01*
X0085075Y0084187D01*
X0085147Y0084138D01*
X0085218Y0084087D01*
X0085286Y0084032D01*
X0085351Y0083975D01*
X0085414Y0083914D01*
X0085475Y0083851D01*
X0085532Y0083786D01*
X0085587Y0083718D01*
X0085638Y0083647D01*
X0085687Y0083575D01*
X0085732Y0083500D01*
X0085774Y0083423D01*
X0085813Y0083345D01*
X0085848Y0083265D01*
X0085879Y0083184D01*
X0085907Y0083101D01*
X0085932Y0083018D01*
X0085953Y0082933D01*
X0085970Y0082847D01*
X0085983Y0082761D01*
X0085992Y0082674D01*
X0085998Y0082587D01*
X0086000Y0082500D01*
X0086000Y0081500D01*
X0085998Y0081413D01*
X0085992Y0081326D01*
X0085983Y0081239D01*
X0085970Y0081153D01*
X0085953Y0081067D01*
X0085932Y0080982D01*
X0085907Y0080899D01*
X0085879Y0080816D01*
X0085848Y0080735D01*
X0085813Y0080655D01*
X0085774Y0080577D01*
X0085732Y0080500D01*
X0085687Y0080425D01*
X0085638Y0080353D01*
X0085587Y0080282D01*
X0085532Y0080214D01*
X0085475Y0080149D01*
X0085414Y0080086D01*
X0085351Y0080025D01*
X0085286Y0079968D01*
X0085218Y0079913D01*
X0085147Y0079862D01*
X0085075Y0079813D01*
X0085000Y0079768D01*
X0084923Y0079726D01*
X0084845Y0079687D01*
X0084765Y0079652D01*
X0084684Y0079621D01*
X0084601Y0079593D01*
X0084518Y0079568D01*
X0084433Y0079547D01*
X0084347Y0079530D01*
X0084261Y0079517D01*
X0084174Y0079508D01*
X0084087Y0079502D01*
X0084000Y0079500D01*
X0081000Y0079500D01*
X0080913Y0079502D01*
X0080826Y0079508D01*
X0080739Y0079517D01*
X0080653Y0079530D01*
X0080567Y0079547D01*
X0080482Y0079568D01*
X0080399Y0079593D01*
X0080316Y0079621D01*
X0080235Y0079652D01*
X0080155Y0079687D01*
X0080077Y0079726D01*
X0080000Y0079768D01*
X0079925Y0079813D01*
X0079853Y0079862D01*
X0079782Y0079913D01*
X0079714Y0079968D01*
X0079649Y0080025D01*
X0079586Y0080086D01*
X0079525Y0080149D01*
X0079468Y0080214D01*
X0079413Y0080282D01*
X0079362Y0080353D01*
X0079313Y0080425D01*
X0079268Y0080500D01*
X0079226Y0080577D01*
X0079187Y0080655D01*
X0079152Y0080735D01*
X0079121Y0080816D01*
X0079093Y0080899D01*
X0079068Y0080982D01*
X0079047Y0081067D01*
X0079030Y0081153D01*
X0079017Y0081239D01*
X0079008Y0081326D01*
X0079002Y0081413D01*
X0079000Y0081500D01*
X0093000Y0081500D02*
X0093000Y0082500D01*
X0093002Y0082587D01*
X0093008Y0082674D01*
X0093017Y0082761D01*
X0093030Y0082847D01*
X0093047Y0082933D01*
X0093068Y0083018D01*
X0093093Y0083101D01*
X0093121Y0083184D01*
X0093152Y0083265D01*
X0093187Y0083345D01*
X0093226Y0083423D01*
X0093268Y0083500D01*
X0093313Y0083575D01*
X0093362Y0083647D01*
X0093413Y0083718D01*
X0093468Y0083786D01*
X0093525Y0083851D01*
X0093586Y0083914D01*
X0093649Y0083975D01*
X0093714Y0084032D01*
X0093782Y0084087D01*
X0093853Y0084138D01*
X0093925Y0084187D01*
X0094000Y0084232D01*
X0094077Y0084274D01*
X0094155Y0084313D01*
X0094235Y0084348D01*
X0094316Y0084379D01*
X0094399Y0084407D01*
X0094482Y0084432D01*
X0094567Y0084453D01*
X0094653Y0084470D01*
X0094739Y0084483D01*
X0094826Y0084492D01*
X0094913Y0084498D01*
X0095000Y0084500D01*
X0098000Y0084500D01*
X0098087Y0084498D01*
X0098174Y0084492D01*
X0098261Y0084483D01*
X0098347Y0084470D01*
X0098433Y0084453D01*
X0098518Y0084432D01*
X0098601Y0084407D01*
X0098684Y0084379D01*
X0098765Y0084348D01*
X0098845Y0084313D01*
X0098923Y0084274D01*
X0099000Y0084232D01*
X0099075Y0084187D01*
X0099147Y0084138D01*
X0099218Y0084087D01*
X0099286Y0084032D01*
X0099351Y0083975D01*
X0099414Y0083914D01*
X0099475Y0083851D01*
X0099532Y0083786D01*
X0099587Y0083718D01*
X0099638Y0083647D01*
X0099687Y0083575D01*
X0099732Y0083500D01*
X0099774Y0083423D01*
X0099813Y0083345D01*
X0099848Y0083265D01*
X0099879Y0083184D01*
X0099907Y0083101D01*
X0099932Y0083018D01*
X0099953Y0082933D01*
X0099970Y0082847D01*
X0099983Y0082761D01*
X0099992Y0082674D01*
X0099998Y0082587D01*
X0100000Y0082500D01*
X0100000Y0081500D01*
X0099998Y0081413D01*
X0099992Y0081326D01*
X0099983Y0081239D01*
X0099970Y0081153D01*
X0099953Y0081067D01*
X0099932Y0080982D01*
X0099907Y0080899D01*
X0099879Y0080816D01*
X0099848Y0080735D01*
X0099813Y0080655D01*
X0099774Y0080577D01*
X0099732Y0080500D01*
X0099687Y0080425D01*
X0099638Y0080353D01*
X0099587Y0080282D01*
X0099532Y0080214D01*
X0099475Y0080149D01*
X0099414Y0080086D01*
X0099351Y0080025D01*
X0099286Y0079968D01*
X0099218Y0079913D01*
X0099147Y0079862D01*
X0099075Y0079813D01*
X0099000Y0079768D01*
X0098923Y0079726D01*
X0098845Y0079687D01*
X0098765Y0079652D01*
X0098684Y0079621D01*
X0098601Y0079593D01*
X0098518Y0079568D01*
X0098433Y0079547D01*
X0098347Y0079530D01*
X0098261Y0079517D01*
X0098174Y0079508D01*
X0098087Y0079502D01*
X0098000Y0079500D01*
X0095000Y0079500D01*
X0094913Y0079502D01*
X0094826Y0079508D01*
X0094739Y0079517D01*
X0094653Y0079530D01*
X0094567Y0079547D01*
X0094482Y0079568D01*
X0094399Y0079593D01*
X0094316Y0079621D01*
X0094235Y0079652D01*
X0094155Y0079687D01*
X0094077Y0079726D01*
X0094000Y0079768D01*
X0093925Y0079813D01*
X0093853Y0079862D01*
X0093782Y0079913D01*
X0093714Y0079968D01*
X0093649Y0080025D01*
X0093586Y0080086D01*
X0093525Y0080149D01*
X0093468Y0080214D01*
X0093413Y0080282D01*
X0093362Y0080353D01*
X0093313Y0080425D01*
X0093268Y0080500D01*
X0093226Y0080577D01*
X0093187Y0080655D01*
X0093152Y0080735D01*
X0093121Y0080816D01*
X0093093Y0080899D01*
X0093068Y0080982D01*
X0093047Y0081067D01*
X0093030Y0081153D01*
X0093017Y0081239D01*
X0093008Y0081326D01*
X0093002Y0081413D01*
X0093000Y0081500D01*
X0107000Y0081500D02*
X0107000Y0082500D01*
X0107002Y0082587D01*
X0107008Y0082674D01*
X0107017Y0082761D01*
X0107030Y0082847D01*
X0107047Y0082933D01*
X0107068Y0083018D01*
X0107093Y0083101D01*
X0107121Y0083184D01*
X0107152Y0083265D01*
X0107187Y0083345D01*
X0107226Y0083423D01*
X0107268Y0083500D01*
X0107313Y0083575D01*
X0107362Y0083647D01*
X0107413Y0083718D01*
X0107468Y0083786D01*
X0107525Y0083851D01*
X0107586Y0083914D01*
X0107649Y0083975D01*
X0107714Y0084032D01*
X0107782Y0084087D01*
X0107853Y0084138D01*
X0107925Y0084187D01*
X0108000Y0084232D01*
X0108077Y0084274D01*
X0108155Y0084313D01*
X0108235Y0084348D01*
X0108316Y0084379D01*
X0108399Y0084407D01*
X0108482Y0084432D01*
X0108567Y0084453D01*
X0108653Y0084470D01*
X0108739Y0084483D01*
X0108826Y0084492D01*
X0108913Y0084498D01*
X0109000Y0084500D01*
X0112000Y0084500D01*
X0112087Y0084498D01*
X0112174Y0084492D01*
X0112261Y0084483D01*
X0112347Y0084470D01*
X0112433Y0084453D01*
X0112518Y0084432D01*
X0112601Y0084407D01*
X0112684Y0084379D01*
X0112765Y0084348D01*
X0112845Y0084313D01*
X0112923Y0084274D01*
X0113000Y0084232D01*
X0113075Y0084187D01*
X0113147Y0084138D01*
X0113218Y0084087D01*
X0113286Y0084032D01*
X0113351Y0083975D01*
X0113414Y0083914D01*
X0113475Y0083851D01*
X0113532Y0083786D01*
X0113587Y0083718D01*
X0113638Y0083647D01*
X0113687Y0083575D01*
X0113732Y0083500D01*
X0113774Y0083423D01*
X0113813Y0083345D01*
X0113848Y0083265D01*
X0113879Y0083184D01*
X0113907Y0083101D01*
X0113932Y0083018D01*
X0113953Y0082933D01*
X0113970Y0082847D01*
X0113983Y0082761D01*
X0113992Y0082674D01*
X0113998Y0082587D01*
X0114000Y0082500D01*
X0114000Y0081500D01*
X0113998Y0081413D01*
X0113992Y0081326D01*
X0113983Y0081239D01*
X0113970Y0081153D01*
X0113953Y0081067D01*
X0113932Y0080982D01*
X0113907Y0080899D01*
X0113879Y0080816D01*
X0113848Y0080735D01*
X0113813Y0080655D01*
X0113774Y0080577D01*
X0113732Y0080500D01*
X0113687Y0080425D01*
X0113638Y0080353D01*
X0113587Y0080282D01*
X0113532Y0080214D01*
X0113475Y0080149D01*
X0113414Y0080086D01*
X0113351Y0080025D01*
X0113286Y0079968D01*
X0113218Y0079913D01*
X0113147Y0079862D01*
X0113075Y0079813D01*
X0113000Y0079768D01*
X0112923Y0079726D01*
X0112845Y0079687D01*
X0112765Y0079652D01*
X0112684Y0079621D01*
X0112601Y0079593D01*
X0112518Y0079568D01*
X0112433Y0079547D01*
X0112347Y0079530D01*
X0112261Y0079517D01*
X0112174Y0079508D01*
X0112087Y0079502D01*
X0112000Y0079500D01*
X0109000Y0079500D01*
X0108913Y0079502D01*
X0108826Y0079508D01*
X0108739Y0079517D01*
X0108653Y0079530D01*
X0108567Y0079547D01*
X0108482Y0079568D01*
X0108399Y0079593D01*
X0108316Y0079621D01*
X0108235Y0079652D01*
X0108155Y0079687D01*
X0108077Y0079726D01*
X0108000Y0079768D01*
X0107925Y0079813D01*
X0107853Y0079862D01*
X0107782Y0079913D01*
X0107714Y0079968D01*
X0107649Y0080025D01*
X0107586Y0080086D01*
X0107525Y0080149D01*
X0107468Y0080214D01*
X0107413Y0080282D01*
X0107362Y0080353D01*
X0107313Y0080425D01*
X0107268Y0080500D01*
X0107226Y0080577D01*
X0107187Y0080655D01*
X0107152Y0080735D01*
X0107121Y0080816D01*
X0107093Y0080899D01*
X0107068Y0080982D01*
X0107047Y0081067D01*
X0107030Y0081153D01*
X0107017Y0081239D01*
X0107008Y0081326D01*
X0107002Y0081413D01*
X0107000Y0081500D01*
X0121000Y0081500D02*
X0121000Y0082500D01*
X0121002Y0082587D01*
X0121008Y0082674D01*
X0121017Y0082761D01*
X0121030Y0082847D01*
X0121047Y0082933D01*
X0121068Y0083018D01*
X0121093Y0083101D01*
X0121121Y0083184D01*
X0121152Y0083265D01*
X0121187Y0083345D01*
X0121226Y0083423D01*
X0121268Y0083500D01*
X0121313Y0083575D01*
X0121362Y0083647D01*
X0121413Y0083718D01*
X0121468Y0083786D01*
X0121525Y0083851D01*
X0121586Y0083914D01*
X0121649Y0083975D01*
X0121714Y0084032D01*
X0121782Y0084087D01*
X0121853Y0084138D01*
X0121925Y0084187D01*
X0122000Y0084232D01*
X0122077Y0084274D01*
X0122155Y0084313D01*
X0122235Y0084348D01*
X0122316Y0084379D01*
X0122399Y0084407D01*
X0122482Y0084432D01*
X0122567Y0084453D01*
X0122653Y0084470D01*
X0122739Y0084483D01*
X0122826Y0084492D01*
X0122913Y0084498D01*
X0123000Y0084500D01*
X0126000Y0084500D01*
X0126087Y0084498D01*
X0126174Y0084492D01*
X0126261Y0084483D01*
X0126347Y0084470D01*
X0126433Y0084453D01*
X0126518Y0084432D01*
X0126601Y0084407D01*
X0126684Y0084379D01*
X0126765Y0084348D01*
X0126845Y0084313D01*
X0126923Y0084274D01*
X0127000Y0084232D01*
X0127075Y0084187D01*
X0127147Y0084138D01*
X0127218Y0084087D01*
X0127286Y0084032D01*
X0127351Y0083975D01*
X0127414Y0083914D01*
X0127475Y0083851D01*
X0127532Y0083786D01*
X0127587Y0083718D01*
X0127638Y0083647D01*
X0127687Y0083575D01*
X0127732Y0083500D01*
X0127774Y0083423D01*
X0127813Y0083345D01*
X0127848Y0083265D01*
X0127879Y0083184D01*
X0127907Y0083101D01*
X0127932Y0083018D01*
X0127953Y0082933D01*
X0127970Y0082847D01*
X0127983Y0082761D01*
X0127992Y0082674D01*
X0127998Y0082587D01*
X0128000Y0082500D01*
X0128000Y0081500D01*
X0127998Y0081413D01*
X0127992Y0081326D01*
X0127983Y0081239D01*
X0127970Y0081153D01*
X0127953Y0081067D01*
X0127932Y0080982D01*
X0127907Y0080899D01*
X0127879Y0080816D01*
X0127848Y0080735D01*
X0127813Y0080655D01*
X0127774Y0080577D01*
X0127732Y0080500D01*
X0127687Y0080425D01*
X0127638Y0080353D01*
X0127587Y0080282D01*
X0127532Y0080214D01*
X0127475Y0080149D01*
X0127414Y0080086D01*
X0127351Y0080025D01*
X0127286Y0079968D01*
X0127218Y0079913D01*
X0127147Y0079862D01*
X0127075Y0079813D01*
X0127000Y0079768D01*
X0126923Y0079726D01*
X0126845Y0079687D01*
X0126765Y0079652D01*
X0126684Y0079621D01*
X0126601Y0079593D01*
X0126518Y0079568D01*
X0126433Y0079547D01*
X0126347Y0079530D01*
X0126261Y0079517D01*
X0126174Y0079508D01*
X0126087Y0079502D01*
X0126000Y0079500D01*
X0123000Y0079500D01*
X0122913Y0079502D01*
X0122826Y0079508D01*
X0122739Y0079517D01*
X0122653Y0079530D01*
X0122567Y0079547D01*
X0122482Y0079568D01*
X0122399Y0079593D01*
X0122316Y0079621D01*
X0122235Y0079652D01*
X0122155Y0079687D01*
X0122077Y0079726D01*
X0122000Y0079768D01*
X0121925Y0079813D01*
X0121853Y0079862D01*
X0121782Y0079913D01*
X0121714Y0079968D01*
X0121649Y0080025D01*
X0121586Y0080086D01*
X0121525Y0080149D01*
X0121468Y0080214D01*
X0121413Y0080282D01*
X0121362Y0080353D01*
X0121313Y0080425D01*
X0121268Y0080500D01*
X0121226Y0080577D01*
X0121187Y0080655D01*
X0121152Y0080735D01*
X0121121Y0080816D01*
X0121093Y0080899D01*
X0121068Y0080982D01*
X0121047Y0081067D01*
X0121030Y0081153D01*
X0121017Y0081239D01*
X0121008Y0081326D01*
X0121002Y0081413D01*
X0121000Y0081500D01*
D11*
X0124500Y0052500D03*
X0103500Y0005000D03*
X0040500Y0111500D03*
X0061500Y0159000D03*
D12*
X0106963Y0114300D03*
X0114837Y0114300D03*
X0123763Y0114300D03*
X0131637Y0114300D03*
X0058037Y0049700D03*
X0050163Y0049700D03*
X0041237Y0049700D03*
X0033363Y0049700D03*
D13*
G36*
X0012935Y0051029D02*
X0015585Y0055269D01*
X0024065Y0049971D01*
X0021415Y0045731D01*
X0012935Y0051029D01*
G37*
G36*
X0055435Y0025029D02*
X0058085Y0029269D01*
X0066565Y0023971D01*
X0063915Y0019731D01*
X0055435Y0025029D01*
G37*
G36*
X0072935Y0014029D02*
X0075585Y0018269D01*
X0084065Y0012971D01*
X0081415Y0008731D01*
X0072935Y0014029D01*
G37*
G36*
X0118874Y0014946D02*
X0114681Y0017669D01*
X0120126Y0026054D01*
X0124319Y0023331D01*
X0118874Y0014946D01*
G37*
G36*
X0129374Y0029446D02*
X0125181Y0032169D01*
X0130626Y0040554D01*
X0134819Y0037831D01*
X0129374Y0029446D01*
G37*
G36*
X0139374Y0043946D02*
X0135181Y0046669D01*
X0140626Y0055054D01*
X0144819Y0052331D01*
X0139374Y0043946D01*
G37*
G36*
X0152065Y0112971D02*
X0149415Y0108731D01*
X0140935Y0114029D01*
X0143585Y0118269D01*
X0152065Y0112971D01*
G37*
G36*
X0109565Y0138971D02*
X0106915Y0134731D01*
X0098435Y0140029D01*
X0101085Y0144269D01*
X0109565Y0138971D01*
G37*
G36*
X0092065Y0149971D02*
X0089415Y0145731D01*
X0080935Y0151029D01*
X0083585Y0155269D01*
X0092065Y0149971D01*
G37*
G36*
X0046126Y0149054D02*
X0050319Y0146331D01*
X0044874Y0137946D01*
X0040681Y0140669D01*
X0046126Y0149054D01*
G37*
G36*
X0035626Y0134554D02*
X0039819Y0131831D01*
X0034374Y0123446D01*
X0030181Y0126169D01*
X0035626Y0134554D01*
G37*
G36*
X0025626Y0120054D02*
X0029819Y0117331D01*
X0024374Y0108946D01*
X0020181Y0111669D01*
X0025626Y0120054D01*
G37*
D14*
X0055094Y0137400D03*
X0066906Y0137400D03*
X0081594Y0135200D03*
X0093406Y0135200D03*
X0102294Y0126100D03*
X0114106Y0126100D03*
X0062706Y0037900D03*
X0071594Y0028800D03*
X0083406Y0028800D03*
X0098094Y0026600D03*
X0109906Y0026600D03*
X0050894Y0037900D03*
D15*
X0093269Y0014100D03*
X0101931Y0014100D03*
X0071731Y0149900D03*
X0063069Y0149900D03*
D16*
X0064666Y0094499D03*
X0049666Y0094499D03*
X0034666Y0094499D03*
X0019666Y0094499D03*
X0025334Y0069501D03*
X0040334Y0069501D03*
X0055334Y0069501D03*
X0070334Y0069501D03*
X0085334Y0069501D03*
X0100334Y0069501D03*
X0115334Y0069501D03*
X0130334Y0069501D03*
X0145334Y0069501D03*
X0139666Y0094499D03*
X0124666Y0094499D03*
X0109666Y0094499D03*
X0094666Y0094499D03*
X0079666Y0094499D03*
X0010334Y0069501D03*
X0154666Y0094499D03*
D17*
X0124000Y0114500D03*
X0113000Y0133500D03*
X0095700Y0121700D03*
X0094600Y0133400D03*
X0072000Y0127500D03*
X0067300Y0137500D03*
X0057000Y0130500D03*
X0041000Y0117500D03*
X0042000Y0094500D03*
X0072000Y0107500D03*
X0101000Y0107500D03*
X0123000Y0069500D03*
X0124000Y0046500D03*
X0108000Y0033500D03*
X0097700Y0026500D03*
X0093000Y0036500D03*
X0093000Y0056500D03*
X0069300Y0042300D03*
X0070400Y0030600D03*
X0052000Y0030500D03*
X0041000Y0049500D03*
X0064000Y0056500D03*
D18*
X0039600Y0038985D02*
X0034220Y0038985D01*
X0033363Y0040137D02*
X0036000Y0037500D01*
X0039000Y0037500D01*
X0041000Y0035500D01*
X0043000Y0035500D01*
X0047000Y0031500D01*
X0051000Y0031500D01*
X0052000Y0030500D01*
X0051137Y0028604D02*
X0056490Y0028604D01*
X0056989Y0029403D02*
X0049835Y0029403D01*
X0048534Y0030201D02*
X0057674Y0030201D01*
X0057456Y0030151D02*
X0058263Y0030337D01*
X0059600Y0029502D01*
X0059600Y0032963D01*
X0059339Y0032963D01*
X0058753Y0033549D01*
X0058753Y0042251D01*
X0059339Y0042837D01*
X0066072Y0042837D01*
X0066658Y0042251D01*
X0066658Y0033549D01*
X0066072Y0032963D01*
X0062400Y0032963D01*
X0062400Y0027752D01*
X0067446Y0024599D01*
X0067633Y0023792D01*
X0065234Y0019953D01*
X0072624Y0015419D01*
X0074956Y0019151D01*
X0075763Y0019337D01*
X0078898Y0017378D01*
X0079600Y0018080D01*
X0079600Y0024302D01*
X0079453Y0024449D01*
X0079453Y0033151D01*
X0080039Y0033737D01*
X0086772Y0033737D01*
X0087358Y0033151D01*
X0087358Y0024449D01*
X0086772Y0023863D01*
X0082400Y0023863D01*
X0082400Y0016920D01*
X0081580Y0016100D01*
X0081335Y0015855D01*
X0084946Y0013599D01*
X0085133Y0012792D01*
X0082852Y0009142D01*
X0091395Y0003900D01*
X0097500Y0003900D01*
X0097500Y0007914D01*
X0098086Y0008500D01*
X0101020Y0008500D01*
X0100600Y0008920D01*
X0100600Y0011131D01*
X0099154Y0011131D01*
X0098569Y0011717D01*
X0098569Y0016483D01*
X0099154Y0017068D01*
X0104707Y0017068D01*
X0105293Y0016483D01*
X0105293Y0011717D01*
X0104707Y0011131D01*
X0103400Y0011131D01*
X0103400Y0010080D01*
X0104900Y0008580D01*
X0104900Y0008500D01*
X0108914Y0008500D01*
X0109500Y0007914D01*
X0109500Y0003900D01*
X0110276Y0003900D01*
X0117771Y0014469D01*
X0113788Y0017055D01*
X0113616Y0017865D01*
X0116387Y0022133D01*
X0113858Y0024662D01*
X0113858Y0022249D01*
X0113272Y0021663D01*
X0106539Y0021663D01*
X0105953Y0022249D01*
X0105953Y0030951D01*
X0106539Y0031537D01*
X0113272Y0031537D01*
X0113858Y0030951D01*
X0113858Y0027900D01*
X0114580Y0027900D01*
X0115400Y0027080D01*
X0117946Y0024534D01*
X0119513Y0026947D01*
X0120324Y0027119D01*
X0124718Y0024266D01*
X0128121Y0029066D01*
X0124288Y0031555D01*
X0124116Y0032365D01*
X0124918Y0033600D01*
X0116920Y0033600D01*
X0114420Y0036100D01*
X0113600Y0036920D01*
X0113600Y0058501D01*
X0111120Y0058501D01*
X0110534Y0059086D01*
X0110534Y0078100D01*
X0108089Y0078100D01*
X0106511Y0079011D01*
X0106511Y0079011D01*
X0106511Y0079011D01*
X0106229Y0079500D01*
X0105134Y0079500D01*
X0105134Y0059086D01*
X0104548Y0058501D01*
X0096120Y0058501D01*
X0095534Y0059086D01*
X0095534Y0078100D01*
X0094089Y0078100D01*
X0092511Y0079011D01*
X0092511Y0079011D01*
X0092511Y0079011D01*
X0092229Y0079500D01*
X0090134Y0079500D01*
X0090134Y0059086D01*
X0089548Y0058501D01*
X0081120Y0058501D01*
X0080534Y0059086D01*
X0080534Y0078100D01*
X0080089Y0078100D01*
X0078511Y0079011D01*
X0078511Y0079011D01*
X0078511Y0079011D01*
X0078229Y0079500D01*
X0075134Y0079500D01*
X0075134Y0059086D01*
X0074548Y0058501D01*
X0066120Y0058501D01*
X0065534Y0059086D01*
X0065534Y0078421D01*
X0064511Y0079011D01*
X0064511Y0079011D01*
X0064511Y0079011D01*
X0064229Y0079500D01*
X0060134Y0079500D01*
X0060134Y0059086D01*
X0059548Y0058501D01*
X0051120Y0058501D01*
X0050534Y0059086D01*
X0050534Y0078998D01*
X0050511Y0079011D01*
X0050511Y0079011D01*
X0050511Y0079011D01*
X0050229Y0079500D01*
X0045134Y0079500D01*
X0045134Y0059086D01*
X0044548Y0058501D01*
X0041400Y0058501D01*
X0041400Y0058080D01*
X0041580Y0057900D01*
X0049580Y0057900D01*
X0050400Y0057080D01*
X0051563Y0055917D01*
X0051563Y0053456D01*
X0052743Y0053456D01*
X0053328Y0052870D01*
X0053328Y0046530D01*
X0052743Y0045944D01*
X0047583Y0045944D01*
X0046998Y0046530D01*
X0046998Y0052870D01*
X0047583Y0053456D01*
X0048763Y0053456D01*
X0048763Y0054757D01*
X0048420Y0055100D01*
X0040420Y0055100D01*
X0039420Y0056100D01*
X0038600Y0056920D01*
X0038600Y0058501D01*
X0036120Y0058501D01*
X0035534Y0059086D01*
X0035534Y0079500D01*
X0030771Y0079500D01*
X0030534Y0079089D01*
X0030534Y0069901D01*
X0025734Y0069901D01*
X0025734Y0069101D01*
X0030534Y0069101D01*
X0030534Y0059316D01*
X0030438Y0058960D01*
X0030254Y0058641D01*
X0029993Y0058380D01*
X0029674Y0058196D01*
X0029318Y0058101D01*
X0025734Y0058101D01*
X0025734Y0069101D01*
X0024934Y0069101D01*
X0020134Y0069101D01*
X0020134Y0059316D01*
X0020229Y0058960D01*
X0020414Y0058641D01*
X0020674Y0058380D01*
X0020993Y0058196D01*
X0021349Y0058101D01*
X0024934Y0058101D01*
X0024934Y0069101D01*
X0024934Y0069901D01*
X0020134Y0069901D01*
X0020134Y0078100D01*
X0015134Y0078100D01*
X0015134Y0059086D01*
X0014548Y0058501D01*
X0012400Y0058501D01*
X0012400Y0056080D01*
X0013946Y0054534D01*
X0014956Y0056151D01*
X0015763Y0056337D01*
X0024946Y0050599D01*
X0025133Y0049792D01*
X0022770Y0046011D01*
X0055006Y0026230D01*
X0057456Y0030151D01*
X0058481Y0030201D02*
X0059600Y0030201D01*
X0059600Y0031000D02*
X0047233Y0031000D01*
X0045931Y0031798D02*
X0059600Y0031798D01*
X0059600Y0032597D02*
X0044630Y0032597D01*
X0043329Y0033395D02*
X0047095Y0033395D01*
X0046942Y0033549D02*
X0047528Y0032963D01*
X0054261Y0032963D01*
X0054847Y0033549D01*
X0054847Y0042251D01*
X0054261Y0042837D01*
X0047528Y0042837D01*
X0046942Y0042251D01*
X0046942Y0039300D01*
X0043180Y0039300D01*
X0042400Y0040080D01*
X0042400Y0045944D01*
X0043817Y0045944D01*
X0044402Y0046530D01*
X0044402Y0052870D01*
X0043817Y0053456D01*
X0038657Y0053456D01*
X0038072Y0052870D01*
X0038072Y0046530D01*
X0038657Y0045944D01*
X0039600Y0045944D01*
X0039600Y0038920D01*
X0040420Y0038100D01*
X0042020Y0036500D01*
X0046942Y0036500D01*
X0046942Y0033549D01*
X0046942Y0034194D02*
X0042028Y0034194D01*
X0040726Y0034992D02*
X0046942Y0034992D01*
X0046942Y0035791D02*
X0039425Y0035791D01*
X0038124Y0036589D02*
X0041931Y0036589D01*
X0041132Y0037388D02*
X0036823Y0037388D01*
X0035521Y0038186D02*
X0040334Y0038186D01*
X0041000Y0039500D02*
X0041000Y0040500D01*
X0041000Y0049500D01*
X0040437Y0050500D01*
X0041237Y0049700D01*
X0044402Y0049366D02*
X0046998Y0049366D01*
X0046998Y0050164D02*
X0044402Y0050164D01*
X0044402Y0050963D02*
X0046998Y0050963D01*
X0046998Y0051761D02*
X0044402Y0051761D01*
X0044402Y0052560D02*
X0046998Y0052560D01*
X0047486Y0053358D02*
X0043914Y0053358D01*
X0041000Y0056500D02*
X0040000Y0057500D01*
X0040000Y0069167D01*
X0040334Y0069501D01*
X0045134Y0069328D02*
X0050534Y0069328D01*
X0050534Y0068530D02*
X0045134Y0068530D01*
X0045134Y0067731D02*
X0050534Y0067731D01*
X0050534Y0066933D02*
X0045134Y0066933D01*
X0045134Y0066134D02*
X0050534Y0066134D01*
X0050534Y0065336D02*
X0045134Y0065336D01*
X0045134Y0064537D02*
X0050534Y0064537D01*
X0050534Y0063739D02*
X0045134Y0063739D01*
X0045134Y0062940D02*
X0050534Y0062940D01*
X0050534Y0062142D02*
X0045134Y0062142D01*
X0045134Y0061343D02*
X0050534Y0061343D01*
X0050534Y0060545D02*
X0045134Y0060545D01*
X0045134Y0059746D02*
X0050534Y0059746D01*
X0050673Y0058948D02*
X0044995Y0058948D01*
X0041400Y0058149D02*
X0113600Y0058149D01*
X0113600Y0057351D02*
X0050129Y0057351D01*
X0050928Y0056552D02*
X0113600Y0056552D01*
X0113600Y0055754D02*
X0051563Y0055754D01*
X0051563Y0054955D02*
X0113600Y0054955D01*
X0113600Y0054157D02*
X0051563Y0054157D01*
X0052840Y0053358D02*
X0055360Y0053358D01*
X0055457Y0053456D02*
X0054872Y0052870D01*
X0054872Y0046530D01*
X0055457Y0045944D01*
X0060617Y0045944D01*
X0061096Y0046424D01*
X0061600Y0045920D01*
X0062420Y0045100D01*
X0067420Y0045100D01*
X0067600Y0044920D01*
X0067600Y0044655D01*
X0067527Y0044554D01*
X0067600Y0044090D01*
X0067600Y0043711D01*
X0067100Y0043211D01*
X0067100Y0041389D01*
X0068389Y0040100D01*
X0070211Y0040100D01*
X0071500Y0041389D01*
X0071500Y0043211D01*
X0070400Y0044311D01*
X0070400Y0045100D01*
X0087420Y0045100D01*
X0088600Y0043920D01*
X0088600Y0016789D01*
X0089907Y0015482D01*
X0089907Y0011717D01*
X0090493Y0011131D01*
X0096046Y0011131D01*
X0096631Y0011717D01*
X0096631Y0016483D01*
X0096046Y0017068D01*
X0092281Y0017068D01*
X0091400Y0017949D01*
X0091400Y0034989D01*
X0092089Y0034300D01*
X0093911Y0034300D01*
X0095200Y0035589D01*
X0095200Y0037411D01*
X0093911Y0038700D01*
X0092089Y0038700D01*
X0091400Y0038011D01*
X0091400Y0045080D01*
X0090580Y0045900D01*
X0088580Y0047900D01*
X0063580Y0047900D01*
X0061202Y0050278D01*
X0061202Y0052870D01*
X0060617Y0053456D01*
X0055457Y0053456D01*
X0054872Y0052560D02*
X0053328Y0052560D01*
X0053328Y0051761D02*
X0054872Y0051761D01*
X0054872Y0050963D02*
X0053328Y0050963D01*
X0053328Y0050164D02*
X0054872Y0050164D01*
X0054872Y0049366D02*
X0053328Y0049366D01*
X0053328Y0048567D02*
X0054872Y0048567D01*
X0054872Y0047768D02*
X0053328Y0047768D01*
X0053328Y0046970D02*
X0054872Y0046970D01*
X0055230Y0046171D02*
X0052970Y0046171D01*
X0050163Y0049700D02*
X0050163Y0055337D01*
X0049000Y0056500D01*
X0041000Y0056500D01*
X0039766Y0055754D02*
X0016697Y0055754D01*
X0017975Y0054955D02*
X0048565Y0054955D01*
X0048763Y0054157D02*
X0019253Y0054157D01*
X0020531Y0053358D02*
X0030120Y0053358D01*
X0030077Y0053316D02*
X0029893Y0052996D01*
X0029798Y0052640D01*
X0029798Y0050100D01*
X0032963Y0050100D01*
X0032963Y0053856D01*
X0031013Y0053856D01*
X0030657Y0053760D01*
X0030338Y0053576D01*
X0030077Y0053316D01*
X0029798Y0052560D02*
X0021809Y0052560D01*
X0023087Y0051761D02*
X0029798Y0051761D01*
X0029798Y0050963D02*
X0024365Y0050963D01*
X0025047Y0050164D02*
X0029798Y0050164D01*
X0029798Y0049300D02*
X0029798Y0046760D01*
X0029893Y0046404D01*
X0030077Y0046084D01*
X0030338Y0045824D01*
X0030657Y0045640D01*
X0031013Y0045544D01*
X0032963Y0045544D01*
X0032963Y0049300D01*
X0033763Y0049300D01*
X0033763Y0050100D01*
X0036928Y0050100D01*
X0036928Y0052640D01*
X0036833Y0052996D01*
X0036649Y0053316D01*
X0036388Y0053576D01*
X0036069Y0053760D01*
X0035713Y0053856D01*
X0033763Y0053856D01*
X0033763Y0050100D01*
X0032963Y0050100D01*
X0032963Y0049300D01*
X0029798Y0049300D01*
X0029798Y0048567D02*
X0024367Y0048567D01*
X0023868Y0047768D02*
X0029798Y0047768D01*
X0029798Y0046970D02*
X0023369Y0046970D01*
X0022870Y0046171D02*
X0030027Y0046171D01*
X0032963Y0046171D02*
X0033763Y0046171D01*
X0033763Y0045544D02*
X0035713Y0045544D01*
X0036069Y0045640D01*
X0036388Y0045824D01*
X0036649Y0046084D01*
X0036833Y0046404D01*
X0036928Y0046760D01*
X0036928Y0049300D01*
X0033763Y0049300D01*
X0033763Y0045544D01*
X0033763Y0046970D02*
X0032963Y0046970D01*
X0032963Y0047768D02*
X0033763Y0047768D01*
X0033763Y0048567D02*
X0032963Y0048567D01*
X0032963Y0049366D02*
X0024866Y0049366D01*
X0023810Y0045373D02*
X0039600Y0045373D01*
X0039600Y0044574D02*
X0025111Y0044574D01*
X0026412Y0043776D02*
X0039600Y0043776D01*
X0039600Y0042977D02*
X0027714Y0042977D01*
X0029015Y0042179D02*
X0039600Y0042179D01*
X0039600Y0041380D02*
X0030316Y0041380D01*
X0031617Y0040582D02*
X0039600Y0040582D01*
X0039600Y0039783D02*
X0032919Y0039783D01*
X0033363Y0040137D02*
X0033363Y0049700D01*
X0030800Y0049700D01*
X0025000Y0055500D01*
X0025000Y0069167D01*
X0025334Y0069501D01*
X0025734Y0069328D02*
X0035534Y0069328D01*
X0035534Y0068530D02*
X0030534Y0068530D01*
X0030534Y0067731D02*
X0035534Y0067731D01*
X0035534Y0066933D02*
X0030534Y0066933D01*
X0030534Y0066134D02*
X0035534Y0066134D01*
X0035534Y0065336D02*
X0030534Y0065336D01*
X0030534Y0064537D02*
X0035534Y0064537D01*
X0035534Y0063739D02*
X0030534Y0063739D01*
X0030534Y0062940D02*
X0035534Y0062940D01*
X0035534Y0062142D02*
X0030534Y0062142D01*
X0030534Y0061343D02*
X0035534Y0061343D01*
X0035534Y0060545D02*
X0030534Y0060545D01*
X0030534Y0059746D02*
X0035534Y0059746D01*
X0035673Y0058948D02*
X0030431Y0058948D01*
X0029499Y0058149D02*
X0038600Y0058149D01*
X0038600Y0057351D02*
X0012400Y0057351D01*
X0012400Y0058149D02*
X0021168Y0058149D01*
X0020236Y0058948D02*
X0014995Y0058948D01*
X0015134Y0059746D02*
X0020134Y0059746D01*
X0020134Y0060545D02*
X0015134Y0060545D01*
X0015134Y0061343D02*
X0020134Y0061343D01*
X0020134Y0062142D02*
X0015134Y0062142D01*
X0015134Y0062940D02*
X0020134Y0062940D01*
X0020134Y0063739D02*
X0015134Y0063739D01*
X0015134Y0064537D02*
X0020134Y0064537D01*
X0020134Y0065336D02*
X0015134Y0065336D01*
X0015134Y0066134D02*
X0020134Y0066134D01*
X0020134Y0066933D02*
X0015134Y0066933D01*
X0015134Y0067731D02*
X0020134Y0067731D01*
X0020134Y0068530D02*
X0015134Y0068530D01*
X0015134Y0069328D02*
X0024934Y0069328D01*
X0024934Y0068530D02*
X0025734Y0068530D01*
X0025734Y0067731D02*
X0024934Y0067731D01*
X0024934Y0066933D02*
X0025734Y0066933D01*
X0025734Y0066134D02*
X0024934Y0066134D01*
X0024934Y0065336D02*
X0025734Y0065336D01*
X0025734Y0064537D02*
X0024934Y0064537D01*
X0024934Y0063739D02*
X0025734Y0063739D01*
X0025734Y0062940D02*
X0024934Y0062940D01*
X0024934Y0062142D02*
X0025734Y0062142D01*
X0025734Y0061343D02*
X0024934Y0061343D01*
X0024934Y0060545D02*
X0025734Y0060545D01*
X0025734Y0059746D02*
X0024934Y0059746D01*
X0024934Y0058948D02*
X0025734Y0058948D01*
X0025734Y0058149D02*
X0024934Y0058149D01*
X0032963Y0053358D02*
X0033763Y0053358D01*
X0033763Y0052560D02*
X0032963Y0052560D01*
X0032963Y0051761D02*
X0033763Y0051761D01*
X0033763Y0050963D02*
X0032963Y0050963D01*
X0032963Y0050164D02*
X0033763Y0050164D01*
X0033763Y0049366D02*
X0038072Y0049366D01*
X0038072Y0050164D02*
X0036928Y0050164D01*
X0036928Y0050963D02*
X0038072Y0050963D01*
X0038072Y0051761D02*
X0036928Y0051761D01*
X0036928Y0052560D02*
X0038072Y0052560D01*
X0038560Y0053358D02*
X0036606Y0053358D01*
X0038968Y0056552D02*
X0012400Y0056552D01*
X0012726Y0055754D02*
X0014708Y0055754D01*
X0014209Y0054955D02*
X0013525Y0054955D01*
X0011000Y0055500D02*
X0011000Y0068834D01*
X0010334Y0069501D01*
X0015134Y0070127D02*
X0020134Y0070127D01*
X0020134Y0070925D02*
X0015134Y0070925D01*
X0015134Y0071724D02*
X0020134Y0071724D01*
X0020134Y0072522D02*
X0015134Y0072522D01*
X0015134Y0073321D02*
X0020134Y0073321D01*
X0020134Y0074119D02*
X0015134Y0074119D01*
X0015134Y0074918D02*
X0020134Y0074918D01*
X0020134Y0075716D02*
X0015134Y0075716D01*
X0015134Y0076515D02*
X0020134Y0076515D01*
X0020134Y0077313D02*
X0015134Y0077313D01*
X0024466Y0085900D02*
X0024466Y0104914D01*
X0023880Y0105499D01*
X0021066Y0105499D01*
X0021066Y0105586D01*
X0023682Y0108202D01*
X0024176Y0107881D01*
X0024987Y0108053D01*
X0030884Y0117134D01*
X0030712Y0117945D01*
X0026686Y0120559D01*
X0029932Y0125137D01*
X0034176Y0122381D01*
X0034987Y0122553D01*
X0038264Y0127600D01*
X0046920Y0127600D01*
X0048600Y0125920D01*
X0048600Y0105499D01*
X0045452Y0105499D01*
X0044866Y0104914D01*
X0044866Y0084500D01*
X0044771Y0084500D01*
X0044489Y0084989D01*
X0044489Y0084989D01*
X0044489Y0084989D01*
X0042911Y0085900D01*
X0039866Y0085900D01*
X0039866Y0094099D01*
X0035066Y0094099D01*
X0035066Y0094899D01*
X0039866Y0094899D01*
X0039866Y0104684D01*
X0039771Y0105040D01*
X0039586Y0105359D01*
X0039326Y0105620D01*
X0039007Y0105804D01*
X0038651Y0105899D01*
X0035066Y0105899D01*
X0035066Y0094899D01*
X0034266Y0094899D01*
X0034266Y0094099D01*
X0029466Y0094099D01*
X0029466Y0085579D01*
X0028911Y0085900D01*
X0024466Y0085900D01*
X0024466Y0086097D02*
X0029466Y0086097D01*
X0029466Y0086896D02*
X0024466Y0086896D01*
X0024466Y0087694D02*
X0029466Y0087694D01*
X0029466Y0088493D02*
X0024466Y0088493D01*
X0024466Y0089291D02*
X0029466Y0089291D01*
X0029466Y0090090D02*
X0024466Y0090090D01*
X0024466Y0090888D02*
X0029466Y0090888D01*
X0029466Y0091687D02*
X0024466Y0091687D01*
X0024466Y0092485D02*
X0029466Y0092485D01*
X0029466Y0093284D02*
X0024466Y0093284D01*
X0024466Y0094082D02*
X0029466Y0094082D01*
X0029466Y0094899D02*
X0034266Y0094899D01*
X0034266Y0105899D01*
X0030682Y0105899D01*
X0030326Y0105804D01*
X0030007Y0105620D01*
X0029746Y0105359D01*
X0029562Y0105040D01*
X0029466Y0104684D01*
X0029466Y0094899D01*
X0029466Y0095679D02*
X0024466Y0095679D01*
X0024466Y0094881D02*
X0034266Y0094881D01*
X0034666Y0094499D02*
X0036000Y0095833D01*
X0038667Y0095833D01*
X0042000Y0094500D01*
X0039866Y0094082D02*
X0044866Y0094082D01*
X0044866Y0093284D02*
X0039866Y0093284D01*
X0039866Y0092485D02*
X0044866Y0092485D01*
X0044866Y0091687D02*
X0039866Y0091687D01*
X0039866Y0090888D02*
X0044866Y0090888D01*
X0044866Y0090090D02*
X0039866Y0090090D01*
X0039866Y0089291D02*
X0044866Y0089291D01*
X0044866Y0088493D02*
X0039866Y0088493D01*
X0039866Y0087694D02*
X0044866Y0087694D01*
X0044866Y0086896D02*
X0039866Y0086896D01*
X0039866Y0086097D02*
X0044866Y0086097D01*
X0044866Y0085299D02*
X0043953Y0085299D01*
X0044771Y0084500D02*
X0044866Y0084500D01*
X0045134Y0078910D02*
X0050534Y0078910D01*
X0050534Y0078112D02*
X0045134Y0078112D01*
X0045134Y0077313D02*
X0050534Y0077313D01*
X0050534Y0076515D02*
X0045134Y0076515D01*
X0045134Y0075716D02*
X0050534Y0075716D01*
X0050534Y0074918D02*
X0045134Y0074918D01*
X0045134Y0074119D02*
X0050534Y0074119D01*
X0050534Y0073321D02*
X0045134Y0073321D01*
X0045134Y0072522D02*
X0050534Y0072522D01*
X0050534Y0071724D02*
X0045134Y0071724D01*
X0045134Y0070925D02*
X0050534Y0070925D01*
X0050534Y0070127D02*
X0045134Y0070127D01*
X0035534Y0070127D02*
X0030534Y0070127D01*
X0030534Y0070925D02*
X0035534Y0070925D01*
X0035534Y0071724D02*
X0030534Y0071724D01*
X0030534Y0072522D02*
X0035534Y0072522D01*
X0035534Y0073321D02*
X0030534Y0073321D01*
X0030534Y0074119D02*
X0035534Y0074119D01*
X0035534Y0074918D02*
X0030534Y0074918D01*
X0030534Y0075716D02*
X0035534Y0075716D01*
X0035534Y0076515D02*
X0030534Y0076515D01*
X0030534Y0077313D02*
X0035534Y0077313D01*
X0035534Y0078112D02*
X0030534Y0078112D01*
X0030534Y0078910D02*
X0035534Y0078910D01*
X0035066Y0094881D02*
X0044866Y0094881D01*
X0044866Y0095679D02*
X0039866Y0095679D01*
X0039866Y0096478D02*
X0044866Y0096478D01*
X0044866Y0097276D02*
X0039866Y0097276D01*
X0039866Y0098075D02*
X0044866Y0098075D01*
X0044866Y0098873D02*
X0039866Y0098873D01*
X0039866Y0099672D02*
X0044866Y0099672D01*
X0044866Y0100470D02*
X0039866Y0100470D01*
X0039866Y0101269D02*
X0044866Y0101269D01*
X0044866Y0102067D02*
X0039866Y0102067D01*
X0039866Y0102866D02*
X0044866Y0102866D01*
X0044866Y0103664D02*
X0039866Y0103664D01*
X0039866Y0104463D02*
X0044866Y0104463D01*
X0045214Y0105261D02*
X0039643Y0105261D01*
X0040100Y0107600D02*
X0040100Y0111100D01*
X0040900Y0111100D01*
X0040900Y0111900D01*
X0040100Y0111900D01*
X0040100Y0115400D01*
X0035316Y0115400D01*
X0034960Y0115305D01*
X0034640Y0115120D01*
X0034380Y0114860D01*
X0034195Y0114540D01*
X0034100Y0114184D01*
X0034100Y0111900D01*
X0040100Y0111900D01*
X0040100Y0111100D01*
X0034100Y0111100D01*
X0034100Y0108816D01*
X0034195Y0108460D01*
X0034380Y0108140D01*
X0034640Y0107880D01*
X0034960Y0107695D01*
X0035316Y0107600D01*
X0040100Y0107600D01*
X0040100Y0107657D02*
X0040900Y0107657D01*
X0040900Y0107600D02*
X0045684Y0107600D01*
X0046040Y0107695D01*
X0046360Y0107880D01*
X0046620Y0108140D01*
X0046805Y0108460D01*
X0046900Y0108816D01*
X0046900Y0111100D01*
X0040900Y0111100D01*
X0040900Y0107600D01*
X0040900Y0108455D02*
X0040100Y0108455D01*
X0040100Y0109254D02*
X0040900Y0109254D01*
X0040900Y0110052D02*
X0040100Y0110052D01*
X0040100Y0110851D02*
X0040900Y0110851D01*
X0040500Y0111500D02*
X0040500Y0117000D01*
X0041000Y0117500D01*
X0040900Y0115400D02*
X0040900Y0111900D01*
X0046900Y0111900D01*
X0046900Y0114184D01*
X0046805Y0114540D01*
X0046620Y0114860D01*
X0046360Y0115120D01*
X0046040Y0115305D01*
X0045684Y0115400D01*
X0040900Y0115400D01*
X0040900Y0114843D02*
X0040100Y0114843D01*
X0040100Y0114045D02*
X0040900Y0114045D01*
X0040900Y0113246D02*
X0040100Y0113246D01*
X0040100Y0112448D02*
X0040900Y0112448D01*
X0040900Y0111649D02*
X0048600Y0111649D01*
X0048600Y0110851D02*
X0046900Y0110851D01*
X0046900Y0110052D02*
X0048600Y0110052D01*
X0048600Y0109254D02*
X0046900Y0109254D01*
X0046802Y0108455D02*
X0048600Y0108455D01*
X0048600Y0107657D02*
X0045896Y0107657D01*
X0048600Y0106858D02*
X0022338Y0106858D01*
X0021540Y0106060D02*
X0048600Y0106060D01*
X0051400Y0106060D02*
X0123460Y0106060D01*
X0123420Y0106100D02*
X0123600Y0105920D01*
X0123600Y0105499D01*
X0120452Y0105499D01*
X0119866Y0104914D01*
X0119866Y0084500D01*
X0114771Y0084500D01*
X0114489Y0084989D01*
X0114489Y0084989D01*
X0114489Y0084989D01*
X0114466Y0085002D01*
X0114466Y0104914D01*
X0113880Y0105499D01*
X0105452Y0105499D01*
X0104866Y0104914D01*
X0104866Y0084500D01*
X0100771Y0084500D01*
X0100489Y0084989D01*
X0100489Y0084989D01*
X0100489Y0084989D01*
X0099466Y0085579D01*
X0099466Y0104914D01*
X0098880Y0105499D01*
X0090452Y0105499D01*
X0089866Y0104914D01*
X0089866Y0084500D01*
X0086771Y0084500D01*
X0086489Y0084989D01*
X0086489Y0084989D01*
X0086489Y0084989D01*
X0084911Y0085900D01*
X0084466Y0085900D01*
X0084466Y0104914D01*
X0083880Y0105499D01*
X0075452Y0105499D01*
X0074866Y0104914D01*
X0074866Y0084500D01*
X0072771Y0084500D01*
X0072489Y0084989D01*
X0072489Y0084989D01*
X0072489Y0084989D01*
X0070911Y0085900D01*
X0069466Y0085900D01*
X0069466Y0104914D01*
X0068880Y0105499D01*
X0060452Y0105499D01*
X0059866Y0104914D01*
X0059866Y0084500D01*
X0058771Y0084500D01*
X0058489Y0084989D01*
X0058489Y0084989D01*
X0058489Y0084989D01*
X0056911Y0085900D01*
X0054466Y0085900D01*
X0054466Y0104914D01*
X0053880Y0105499D01*
X0051400Y0105499D01*
X0051400Y0127080D01*
X0050580Y0127900D01*
X0048080Y0130400D01*
X0040082Y0130400D01*
X0040884Y0131634D01*
X0040712Y0132445D01*
X0036879Y0134934D01*
X0040282Y0139734D01*
X0044676Y0136881D01*
X0045487Y0137053D01*
X0047054Y0139466D01*
X0049600Y0136920D01*
X0050420Y0136100D01*
X0051142Y0136100D01*
X0051142Y0133049D01*
X0051728Y0132463D01*
X0058461Y0132463D01*
X0059047Y0133049D01*
X0059047Y0141751D01*
X0058461Y0142337D01*
X0051728Y0142337D01*
X0051142Y0141751D01*
X0051142Y0139338D01*
X0048613Y0141867D01*
X0051384Y0146134D01*
X0051212Y0146945D01*
X0047229Y0149531D01*
X0054724Y0160100D01*
X0055500Y0160100D01*
X0055500Y0156086D01*
X0056086Y0155500D01*
X0060100Y0155500D01*
X0060100Y0155420D01*
X0061600Y0153920D01*
X0061600Y0152868D01*
X0060293Y0152868D01*
X0059707Y0152283D01*
X0059707Y0147517D01*
X0060293Y0146931D01*
X0065846Y0146931D01*
X0066431Y0147517D01*
X0066431Y0152283D01*
X0065846Y0152868D01*
X0064400Y0152868D01*
X0064400Y0155080D01*
X0063980Y0155500D01*
X0066914Y0155500D01*
X0067500Y0156086D01*
X0067500Y0160100D01*
X0073605Y0160100D01*
X0082148Y0154858D01*
X0079867Y0151208D01*
X0080054Y0150401D01*
X0083665Y0148145D01*
X0083420Y0147900D01*
X0082600Y0147080D01*
X0082600Y0140137D01*
X0078228Y0140137D01*
X0077642Y0139551D01*
X0077642Y0130849D01*
X0078228Y0130263D01*
X0084961Y0130263D01*
X0085547Y0130849D01*
X0085547Y0139551D01*
X0085400Y0139698D01*
X0085400Y0145920D01*
X0086102Y0146622D01*
X0089237Y0144663D01*
X0090044Y0144849D01*
X0092376Y0148581D01*
X0099766Y0144047D01*
X0097367Y0140208D01*
X0097554Y0139401D01*
X0102600Y0136248D01*
X0102600Y0131037D01*
X0098928Y0131037D01*
X0098342Y0130451D01*
X0098342Y0121749D01*
X0098928Y0121163D01*
X0105661Y0121163D01*
X0106247Y0121749D01*
X0106247Y0130451D01*
X0105661Y0131037D01*
X0105400Y0131037D01*
X0105400Y0134498D01*
X0106737Y0133663D01*
X0107544Y0133849D01*
X0109994Y0137770D01*
X0142230Y0117989D01*
X0139867Y0114208D01*
X0140054Y0113401D01*
X0149237Y0107663D01*
X0150044Y0107849D01*
X0151054Y0109466D01*
X0152600Y0107920D01*
X0152600Y0105499D01*
X0150452Y0105499D01*
X0149866Y0104914D01*
X0149866Y0085900D01*
X0144866Y0085900D01*
X0144866Y0094099D01*
X0140066Y0094099D01*
X0140066Y0094899D01*
X0144866Y0094899D01*
X0144866Y0104684D01*
X0144771Y0105040D01*
X0144586Y0105359D01*
X0144326Y0105620D01*
X0144007Y0105804D01*
X0143651Y0105899D01*
X0140066Y0105899D01*
X0140066Y0094899D01*
X0139266Y0094899D01*
X0139266Y0094099D01*
X0134466Y0094099D01*
X0134466Y0084911D01*
X0134229Y0084500D01*
X0129466Y0084500D01*
X0129466Y0104914D01*
X0128880Y0105499D01*
X0126400Y0105499D01*
X0126400Y0107080D01*
X0125580Y0107900D01*
X0124580Y0108900D01*
X0116580Y0108900D01*
X0116237Y0109243D01*
X0116237Y0110544D01*
X0117417Y0110544D01*
X0118002Y0111130D01*
X0118002Y0117470D01*
X0117417Y0118056D01*
X0112257Y0118056D01*
X0111672Y0117470D01*
X0111672Y0111130D01*
X0112257Y0110544D01*
X0113437Y0110544D01*
X0113437Y0108083D01*
X0114600Y0106920D01*
X0115420Y0106100D01*
X0123420Y0106100D01*
X0124000Y0107500D02*
X0125000Y0106500D01*
X0125000Y0094833D01*
X0124666Y0094499D01*
X0119866Y0094881D02*
X0114466Y0094881D01*
X0114466Y0095679D02*
X0119866Y0095679D01*
X0119866Y0096478D02*
X0114466Y0096478D01*
X0114466Y0097276D02*
X0119866Y0097276D01*
X0119866Y0098075D02*
X0114466Y0098075D01*
X0114466Y0098873D02*
X0119866Y0098873D01*
X0119866Y0099672D02*
X0114466Y0099672D01*
X0114466Y0100470D02*
X0119866Y0100470D01*
X0119866Y0101269D02*
X0114466Y0101269D01*
X0114466Y0102067D02*
X0119866Y0102067D01*
X0119866Y0102866D02*
X0114466Y0102866D01*
X0114466Y0103664D02*
X0119866Y0103664D01*
X0119866Y0104463D02*
X0114466Y0104463D01*
X0114119Y0105261D02*
X0120214Y0105261D01*
X0124000Y0107500D02*
X0116000Y0107500D01*
X0114837Y0108663D01*
X0114837Y0114300D01*
X0111672Y0114045D02*
X0110128Y0114045D01*
X0110128Y0114843D02*
X0111672Y0114843D01*
X0111672Y0115642D02*
X0110128Y0115642D01*
X0110128Y0116440D02*
X0111672Y0116440D01*
X0111672Y0117239D02*
X0110128Y0117239D01*
X0110128Y0117470D02*
X0109543Y0118056D01*
X0104383Y0118056D01*
X0103904Y0117576D01*
X0103400Y0118080D01*
X0102580Y0118900D01*
X0097580Y0118900D01*
X0097400Y0119080D01*
X0097400Y0119345D01*
X0097473Y0119446D01*
X0097400Y0119910D01*
X0097400Y0120289D01*
X0097900Y0120789D01*
X0097900Y0122611D01*
X0096611Y0123900D01*
X0094789Y0123900D01*
X0093500Y0122611D01*
X0093500Y0120789D01*
X0094600Y0119689D01*
X0094600Y0118900D01*
X0077580Y0118900D01*
X0076400Y0120080D01*
X0076400Y0147211D01*
X0075093Y0148518D01*
X0075093Y0152283D01*
X0074507Y0152868D01*
X0068954Y0152868D01*
X0068369Y0152283D01*
X0068369Y0147517D01*
X0068954Y0146931D01*
X0072719Y0146931D01*
X0073600Y0146051D01*
X0073600Y0129011D01*
X0072911Y0129700D01*
X0071089Y0129700D01*
X0069800Y0128411D01*
X0069800Y0126589D01*
X0071089Y0125300D01*
X0072911Y0125300D01*
X0073600Y0125989D01*
X0073600Y0118920D01*
X0074420Y0118100D01*
X0076420Y0116100D01*
X0101420Y0116100D01*
X0103798Y0113722D01*
X0103798Y0111130D01*
X0104383Y0110544D01*
X0109543Y0110544D01*
X0110128Y0111130D01*
X0110128Y0117470D01*
X0109561Y0118037D02*
X0112239Y0118037D01*
X0110739Y0121163D02*
X0110153Y0121749D01*
X0110153Y0130451D01*
X0110739Y0131037D01*
X0117472Y0131037D01*
X0118058Y0130451D01*
X0118058Y0127500D01*
X0122980Y0127500D01*
X0124580Y0125900D01*
X0125400Y0125080D01*
X0125400Y0118056D01*
X0126343Y0118056D01*
X0126928Y0117470D01*
X0126928Y0111130D01*
X0126343Y0110544D01*
X0121183Y0110544D01*
X0120598Y0111130D01*
X0120598Y0117470D01*
X0121183Y0118056D01*
X0122600Y0118056D01*
X0122600Y0123920D01*
X0121820Y0124700D01*
X0118058Y0124700D01*
X0118058Y0121749D01*
X0117472Y0121163D01*
X0110739Y0121163D01*
X0110670Y0121232D02*
X0105730Y0121232D01*
X0106247Y0122030D02*
X0110153Y0122030D01*
X0110153Y0122829D02*
X0106247Y0122829D01*
X0106247Y0123627D02*
X0110153Y0123627D01*
X0110153Y0124426D02*
X0106247Y0124426D01*
X0106247Y0125224D02*
X0110153Y0125224D01*
X0110153Y0126023D02*
X0106247Y0126023D01*
X0106247Y0126821D02*
X0110153Y0126821D01*
X0110153Y0127620D02*
X0106247Y0127620D01*
X0106247Y0128418D02*
X0110153Y0128418D01*
X0110153Y0129217D02*
X0106247Y0129217D01*
X0106247Y0130015D02*
X0110153Y0130015D01*
X0110515Y0130814D02*
X0105885Y0130814D01*
X0105400Y0131612D02*
X0120029Y0131612D01*
X0118728Y0132411D02*
X0105400Y0132411D01*
X0105400Y0133209D02*
X0117427Y0133209D01*
X0118000Y0132500D02*
X0114000Y0132500D01*
X0113000Y0133500D01*
X0113523Y0135605D02*
X0108641Y0135605D01*
X0109140Y0136403D02*
X0112222Y0136403D01*
X0110920Y0137202D02*
X0109639Y0137202D01*
X0108142Y0134806D02*
X0114824Y0134806D01*
X0116125Y0134008D02*
X0107643Y0134008D01*
X0106185Y0134008D02*
X0105400Y0134008D01*
X0102600Y0134008D02*
X0097358Y0134008D01*
X0097358Y0134806D02*
X0102600Y0134806D01*
X0102600Y0135605D02*
X0097358Y0135605D01*
X0097358Y0136403D02*
X0102351Y0136403D01*
X0101073Y0137202D02*
X0097358Y0137202D01*
X0097358Y0138000D02*
X0099795Y0138000D01*
X0098517Y0138799D02*
X0097358Y0138799D01*
X0097358Y0139551D02*
X0096772Y0140137D01*
X0090039Y0140137D01*
X0089453Y0139551D01*
X0089453Y0130849D01*
X0090039Y0130263D01*
X0096772Y0130263D01*
X0097358Y0130849D01*
X0097358Y0139551D01*
X0097312Y0139597D02*
X0097508Y0139597D01*
X0097485Y0140396D02*
X0085400Y0140396D01*
X0085400Y0141194D02*
X0097984Y0141194D01*
X0098483Y0141993D02*
X0085400Y0141993D01*
X0085400Y0142791D02*
X0098982Y0142791D01*
X0099481Y0143590D02*
X0085400Y0143590D01*
X0085400Y0144388D02*
X0099209Y0144388D01*
X0097908Y0145187D02*
X0090255Y0145187D01*
X0090754Y0145985D02*
X0096606Y0145985D01*
X0095305Y0146784D02*
X0091253Y0146784D01*
X0091752Y0147582D02*
X0094004Y0147582D01*
X0092702Y0148381D02*
X0092251Y0148381D01*
X0088398Y0145187D02*
X0085400Y0145187D01*
X0085465Y0145985D02*
X0087120Y0145985D01*
X0086500Y0149000D02*
X0084000Y0146500D01*
X0084000Y0135637D01*
X0081594Y0135200D01*
X0077642Y0134806D02*
X0076400Y0134806D01*
X0076400Y0134008D02*
X0077642Y0134008D01*
X0077642Y0133209D02*
X0076400Y0133209D01*
X0076400Y0132411D02*
X0077642Y0132411D01*
X0077642Y0131612D02*
X0076400Y0131612D01*
X0076400Y0130814D02*
X0077677Y0130814D01*
X0076400Y0130015D02*
X0098342Y0130015D01*
X0098342Y0129217D02*
X0076400Y0129217D01*
X0076400Y0128418D02*
X0098342Y0128418D01*
X0098342Y0127620D02*
X0076400Y0127620D01*
X0076400Y0126821D02*
X0098342Y0126821D01*
X0098342Y0126023D02*
X0076400Y0126023D01*
X0076400Y0125224D02*
X0098342Y0125224D01*
X0098342Y0124426D02*
X0076400Y0124426D01*
X0076400Y0123627D02*
X0094516Y0123627D01*
X0093717Y0122829D02*
X0076400Y0122829D01*
X0076400Y0122030D02*
X0093500Y0122030D01*
X0093500Y0121232D02*
X0076400Y0121232D01*
X0076400Y0120433D02*
X0093856Y0120433D01*
X0094600Y0119634D02*
X0076845Y0119634D01*
X0075000Y0119500D02*
X0077000Y0117500D01*
X0102000Y0117500D01*
X0097000Y0117500D01*
X0096000Y0118500D01*
X0096000Y0119800D01*
X0095700Y0121700D01*
X0097900Y0122030D02*
X0098342Y0122030D01*
X0098342Y0122829D02*
X0097683Y0122829D01*
X0098342Y0123627D02*
X0096884Y0123627D01*
X0097900Y0121232D02*
X0098859Y0121232D01*
X0097544Y0120433D02*
X0122600Y0120433D01*
X0122600Y0119634D02*
X0097443Y0119634D01*
X0101878Y0115642D02*
X0051400Y0115642D01*
X0051400Y0116440D02*
X0076080Y0116440D01*
X0075281Y0117239D02*
X0051400Y0117239D01*
X0051400Y0118037D02*
X0074483Y0118037D01*
X0073684Y0118836D02*
X0051400Y0118836D01*
X0051400Y0119634D02*
X0073600Y0119634D01*
X0073600Y0120433D02*
X0051400Y0120433D01*
X0051400Y0121232D02*
X0073600Y0121232D01*
X0073600Y0122030D02*
X0051400Y0122030D01*
X0051400Y0122829D02*
X0073600Y0122829D01*
X0073600Y0123627D02*
X0051400Y0123627D01*
X0051400Y0124426D02*
X0073600Y0124426D01*
X0073600Y0125224D02*
X0051400Y0125224D01*
X0051400Y0126023D02*
X0070366Y0126023D01*
X0069800Y0126821D02*
X0051400Y0126821D01*
X0050860Y0127620D02*
X0069800Y0127620D01*
X0069807Y0128418D02*
X0050062Y0128418D01*
X0049263Y0129217D02*
X0070605Y0129217D01*
X0072000Y0127500D02*
X0075000Y0127500D01*
X0075000Y0146631D01*
X0071731Y0149900D01*
X0072867Y0146784D02*
X0051246Y0146784D01*
X0051287Y0145985D02*
X0073600Y0145985D01*
X0073600Y0145187D02*
X0050769Y0145187D01*
X0050250Y0144388D02*
X0073600Y0144388D01*
X0073600Y0143590D02*
X0049732Y0143590D01*
X0049213Y0142791D02*
X0073600Y0142791D01*
X0073600Y0141993D02*
X0070617Y0141993D01*
X0070858Y0141751D02*
X0070272Y0142337D01*
X0063539Y0142337D01*
X0062953Y0141751D01*
X0062953Y0133049D01*
X0063539Y0132463D01*
X0070272Y0132463D01*
X0070858Y0133049D01*
X0070858Y0141751D01*
X0070858Y0141194D02*
X0073600Y0141194D01*
X0073600Y0140396D02*
X0070858Y0140396D01*
X0070858Y0139597D02*
X0073600Y0139597D01*
X0073600Y0138799D02*
X0070858Y0138799D01*
X0070858Y0138000D02*
X0073600Y0138000D01*
X0073600Y0137202D02*
X0070858Y0137202D01*
X0070858Y0136403D02*
X0073600Y0136403D01*
X0073600Y0135605D02*
X0070858Y0135605D01*
X0070858Y0134806D02*
X0073600Y0134806D01*
X0073600Y0134008D02*
X0070858Y0134008D01*
X0070858Y0133209D02*
X0073600Y0133209D01*
X0073600Y0132411D02*
X0040719Y0132411D01*
X0040870Y0131612D02*
X0073600Y0131612D01*
X0073600Y0130814D02*
X0040351Y0130814D01*
X0039535Y0133209D02*
X0051142Y0133209D01*
X0051142Y0134008D02*
X0038305Y0134008D01*
X0037076Y0134806D02*
X0051142Y0134806D01*
X0051142Y0135605D02*
X0037354Y0135605D01*
X0037920Y0136403D02*
X0050117Y0136403D01*
X0049318Y0137202D02*
X0045583Y0137202D01*
X0046102Y0138000D02*
X0048520Y0138000D01*
X0047721Y0138799D02*
X0046620Y0138799D01*
X0044182Y0137202D02*
X0038487Y0137202D01*
X0039053Y0138000D02*
X0042952Y0138000D01*
X0041723Y0138799D02*
X0039619Y0138799D01*
X0040185Y0139597D02*
X0040493Y0139597D01*
X0045500Y0143000D02*
X0051000Y0137500D01*
X0056963Y0137500D01*
X0055094Y0137400D01*
X0059047Y0137202D02*
X0062953Y0137202D01*
X0062953Y0138000D02*
X0059047Y0138000D01*
X0059047Y0138799D02*
X0062953Y0138799D01*
X0062953Y0139597D02*
X0059047Y0139597D01*
X0059047Y0140396D02*
X0062953Y0140396D01*
X0062953Y0141194D02*
X0059047Y0141194D01*
X0058806Y0141993D02*
X0063194Y0141993D01*
X0065000Y0137337D02*
X0066906Y0137400D01*
X0067300Y0137500D02*
X0065000Y0137337D01*
X0062953Y0136403D02*
X0059047Y0136403D01*
X0059047Y0135605D02*
X0062953Y0135605D01*
X0062953Y0134806D02*
X0059047Y0134806D01*
X0059047Y0134008D02*
X0062953Y0134008D01*
X0062953Y0133209D02*
X0059047Y0133209D01*
X0057000Y0130500D02*
X0057000Y0112500D01*
X0062000Y0107500D01*
X0072000Y0107500D01*
X0101000Y0107500D01*
X0099119Y0105261D02*
X0105214Y0105261D01*
X0104866Y0104463D02*
X0099466Y0104463D01*
X0099466Y0103664D02*
X0104866Y0103664D01*
X0104866Y0102866D02*
X0099466Y0102866D01*
X0099466Y0102067D02*
X0104866Y0102067D01*
X0104866Y0101269D02*
X0099466Y0101269D01*
X0099466Y0100470D02*
X0104866Y0100470D01*
X0104866Y0099672D02*
X0099466Y0099672D01*
X0099466Y0098873D02*
X0104866Y0098873D01*
X0104866Y0098075D02*
X0099466Y0098075D01*
X0099466Y0097276D02*
X0104866Y0097276D01*
X0104866Y0096478D02*
X0099466Y0096478D01*
X0099466Y0095679D02*
X0104866Y0095679D01*
X0104866Y0094881D02*
X0099466Y0094881D01*
X0099466Y0094082D02*
X0104866Y0094082D01*
X0104866Y0093284D02*
X0099466Y0093284D01*
X0099466Y0092485D02*
X0104866Y0092485D01*
X0104866Y0091687D02*
X0099466Y0091687D01*
X0099466Y0090888D02*
X0104866Y0090888D01*
X0104866Y0090090D02*
X0099466Y0090090D01*
X0099466Y0089291D02*
X0104866Y0089291D01*
X0104866Y0088493D02*
X0099466Y0088493D01*
X0099466Y0087694D02*
X0104866Y0087694D01*
X0104866Y0086896D02*
X0099466Y0086896D01*
X0099466Y0086097D02*
X0104866Y0086097D01*
X0104866Y0085299D02*
X0099953Y0085299D01*
X0100771Y0084500D02*
X0104866Y0084500D01*
X0105134Y0078910D02*
X0106685Y0078910D01*
X0108068Y0078112D02*
X0105134Y0078112D01*
X0105134Y0077313D02*
X0110534Y0077313D01*
X0110534Y0076515D02*
X0105134Y0076515D01*
X0105134Y0075716D02*
X0110534Y0075716D01*
X0110534Y0074918D02*
X0105134Y0074918D01*
X0105134Y0074119D02*
X0110534Y0074119D01*
X0110534Y0073321D02*
X0105134Y0073321D01*
X0105134Y0072522D02*
X0110534Y0072522D01*
X0110534Y0071724D02*
X0105134Y0071724D01*
X0105134Y0070925D02*
X0110534Y0070925D01*
X0110534Y0070127D02*
X0105134Y0070127D01*
X0105134Y0069328D02*
X0110534Y0069328D01*
X0110534Y0068530D02*
X0105134Y0068530D01*
X0105134Y0067731D02*
X0110534Y0067731D01*
X0110534Y0066933D02*
X0105134Y0066933D01*
X0105134Y0066134D02*
X0110534Y0066134D01*
X0110534Y0065336D02*
X0105134Y0065336D01*
X0105134Y0064537D02*
X0110534Y0064537D01*
X0110534Y0063739D02*
X0105134Y0063739D01*
X0105134Y0062940D02*
X0110534Y0062940D01*
X0110534Y0062142D02*
X0105134Y0062142D01*
X0105134Y0061343D02*
X0110534Y0061343D01*
X0110534Y0060545D02*
X0105134Y0060545D01*
X0105134Y0059746D02*
X0110534Y0059746D01*
X0110673Y0058948D02*
X0104995Y0058948D01*
X0103000Y0056500D02*
X0108000Y0051500D01*
X0108000Y0033500D01*
X0106001Y0031000D02*
X0101999Y0031000D01*
X0102047Y0030951D02*
X0101461Y0031537D01*
X0094728Y0031537D01*
X0094142Y0030951D01*
X0094142Y0022249D01*
X0094728Y0021663D01*
X0101461Y0021663D01*
X0102047Y0022249D01*
X0102047Y0030951D01*
X0102047Y0030201D02*
X0105953Y0030201D01*
X0105953Y0029403D02*
X0102047Y0029403D01*
X0102047Y0028604D02*
X0105953Y0028604D01*
X0105953Y0027806D02*
X0102047Y0027806D01*
X0102047Y0027007D02*
X0105953Y0027007D01*
X0105953Y0026209D02*
X0102047Y0026209D01*
X0102047Y0025410D02*
X0105953Y0025410D01*
X0105953Y0024612D02*
X0102047Y0024612D01*
X0102047Y0023813D02*
X0105953Y0023813D01*
X0105953Y0023015D02*
X0102047Y0023015D01*
X0102015Y0022216D02*
X0105985Y0022216D01*
X0108037Y0026500D02*
X0109906Y0026600D01*
X0108037Y0026500D02*
X0114000Y0026500D01*
X0119500Y0021000D01*
X0119500Y0020500D01*
X0116304Y0022216D02*
X0113826Y0022216D01*
X0113858Y0023015D02*
X0115505Y0023015D01*
X0114707Y0023813D02*
X0113858Y0023813D01*
X0113858Y0024612D02*
X0113908Y0024612D01*
X0116271Y0026209D02*
X0119034Y0026209D01*
X0118515Y0025410D02*
X0117070Y0025410D01*
X0117868Y0024612D02*
X0117997Y0024612D01*
X0119797Y0027007D02*
X0115473Y0027007D01*
X0114674Y0027806D02*
X0127228Y0027806D01*
X0127794Y0028604D02*
X0113858Y0028604D01*
X0113858Y0029403D02*
X0127603Y0029403D01*
X0126373Y0030201D02*
X0113858Y0030201D01*
X0113810Y0031000D02*
X0125143Y0031000D01*
X0124236Y0031798D02*
X0091400Y0031798D01*
X0091400Y0031000D02*
X0094190Y0031000D01*
X0094142Y0030201D02*
X0091400Y0030201D01*
X0091400Y0029403D02*
X0094142Y0029403D01*
X0094142Y0028604D02*
X0091400Y0028604D01*
X0091400Y0027806D02*
X0094142Y0027806D01*
X0094142Y0027007D02*
X0091400Y0027007D01*
X0091400Y0026209D02*
X0094142Y0026209D01*
X0094142Y0025410D02*
X0091400Y0025410D01*
X0091400Y0024612D02*
X0094142Y0024612D01*
X0094142Y0023813D02*
X0091400Y0023813D01*
X0091400Y0023015D02*
X0094142Y0023015D01*
X0094174Y0022216D02*
X0091400Y0022216D01*
X0091400Y0021418D02*
X0115923Y0021418D01*
X0115404Y0020619D02*
X0091400Y0020619D01*
X0091400Y0019821D02*
X0114886Y0019821D01*
X0114367Y0019022D02*
X0091400Y0019022D01*
X0091400Y0018224D02*
X0113848Y0018224D01*
X0113709Y0017425D02*
X0091924Y0017425D01*
X0090000Y0017369D02*
X0093269Y0014100D01*
X0089907Y0014231D02*
X0083935Y0014231D01*
X0084985Y0013432D02*
X0089907Y0013432D01*
X0089907Y0012634D02*
X0085034Y0012634D01*
X0084535Y0011835D02*
X0089907Y0011835D01*
X0089907Y0015030D02*
X0082657Y0015030D01*
X0081379Y0015828D02*
X0089561Y0015828D01*
X0088763Y0016627D02*
X0082106Y0016627D01*
X0082400Y0017425D02*
X0088600Y0017425D01*
X0088600Y0018224D02*
X0082400Y0018224D01*
X0082400Y0019022D02*
X0088600Y0019022D01*
X0088600Y0019821D02*
X0082400Y0019821D01*
X0082400Y0020619D02*
X0088600Y0020619D01*
X0088600Y0021418D02*
X0082400Y0021418D01*
X0082400Y0022216D02*
X0088600Y0022216D01*
X0088600Y0023015D02*
X0082400Y0023015D01*
X0082400Y0023813D02*
X0088600Y0023813D01*
X0088600Y0024612D02*
X0087358Y0024612D01*
X0087358Y0025410D02*
X0088600Y0025410D01*
X0088600Y0026209D02*
X0087358Y0026209D01*
X0087358Y0027007D02*
X0088600Y0027007D01*
X0088600Y0027806D02*
X0087358Y0027806D01*
X0087358Y0028604D02*
X0088600Y0028604D01*
X0088600Y0029403D02*
X0087358Y0029403D01*
X0087358Y0030201D02*
X0088600Y0030201D01*
X0088600Y0031000D02*
X0087358Y0031000D01*
X0087358Y0031798D02*
X0088600Y0031798D01*
X0088600Y0032597D02*
X0087358Y0032597D01*
X0087114Y0033395D02*
X0088600Y0033395D01*
X0088600Y0034194D02*
X0066658Y0034194D01*
X0066658Y0034992D02*
X0088600Y0034992D01*
X0088600Y0035791D02*
X0066658Y0035791D01*
X0066658Y0036589D02*
X0088600Y0036589D01*
X0088600Y0037388D02*
X0066658Y0037388D01*
X0066658Y0038186D02*
X0088600Y0038186D01*
X0088600Y0038985D02*
X0066658Y0038985D01*
X0066658Y0039783D02*
X0088600Y0039783D01*
X0088600Y0040582D02*
X0070693Y0040582D01*
X0071492Y0041380D02*
X0088600Y0041380D01*
X0088600Y0042179D02*
X0071500Y0042179D01*
X0071500Y0042977D02*
X0088600Y0042977D01*
X0088600Y0043776D02*
X0070935Y0043776D01*
X0070400Y0044574D02*
X0087946Y0044574D01*
X0088000Y0046500D02*
X0090000Y0044500D01*
X0090000Y0036500D01*
X0093000Y0036500D01*
X0094604Y0034992D02*
X0115528Y0034992D01*
X0116326Y0034194D02*
X0091400Y0034194D01*
X0091400Y0033395D02*
X0124785Y0033395D01*
X0124266Y0032597D02*
X0091400Y0032597D01*
X0090000Y0036500D02*
X0090000Y0017369D01*
X0096488Y0016627D02*
X0098712Y0016627D01*
X0098569Y0015828D02*
X0096631Y0015828D01*
X0096631Y0015030D02*
X0098569Y0015030D01*
X0098569Y0014231D02*
X0096631Y0014231D01*
X0096631Y0013432D02*
X0098569Y0013432D01*
X0098569Y0012634D02*
X0096631Y0012634D01*
X0096631Y0011835D02*
X0098569Y0011835D01*
X0100600Y0011037D02*
X0084036Y0011037D01*
X0083537Y0010238D02*
X0100600Y0010238D01*
X0100600Y0009440D02*
X0083038Y0009440D01*
X0083669Y0008641D02*
X0100879Y0008641D01*
X0102000Y0009500D02*
X0103500Y0008000D01*
X0103500Y0005000D01*
X0104838Y0008641D02*
X0113639Y0008641D01*
X0113072Y0007843D02*
X0109500Y0007843D01*
X0109500Y0007044D02*
X0112506Y0007044D01*
X0111940Y0006246D02*
X0109500Y0006246D01*
X0109500Y0005447D02*
X0111374Y0005447D01*
X0110808Y0004649D02*
X0109500Y0004649D01*
X0114205Y0009440D02*
X0104040Y0009440D01*
X0103400Y0010238D02*
X0114771Y0010238D01*
X0115337Y0011037D02*
X0103400Y0011037D01*
X0102000Y0009500D02*
X0102000Y0014031D01*
X0101931Y0014100D01*
X0105149Y0016627D02*
X0114448Y0016627D01*
X0115678Y0015828D02*
X0105293Y0015828D01*
X0105293Y0015030D02*
X0116907Y0015030D01*
X0117602Y0014231D02*
X0105293Y0014231D01*
X0105293Y0013432D02*
X0117036Y0013432D01*
X0116470Y0012634D02*
X0105293Y0012634D01*
X0105293Y0011835D02*
X0115903Y0011835D01*
X0124185Y0024612D02*
X0124963Y0024612D01*
X0125529Y0025410D02*
X0122955Y0025410D01*
X0121726Y0026209D02*
X0126095Y0026209D01*
X0126662Y0027007D02*
X0120496Y0027007D01*
X0117500Y0035000D02*
X0115000Y0037500D01*
X0115000Y0069167D01*
X0115334Y0069501D01*
X0120134Y0069328D02*
X0129934Y0069328D01*
X0129934Y0069101D02*
X0125134Y0069101D01*
X0125134Y0059316D01*
X0125229Y0058960D01*
X0125414Y0058641D01*
X0125674Y0058380D01*
X0125993Y0058196D01*
X0126349Y0058101D01*
X0129934Y0058101D01*
X0129934Y0069101D01*
X0129934Y0069901D01*
X0125134Y0069901D01*
X0125134Y0078100D01*
X0122089Y0078100D01*
X0120511Y0079011D01*
X0120511Y0079011D01*
X0120511Y0079011D01*
X0120229Y0079500D01*
X0120134Y0079500D01*
X0120134Y0059086D01*
X0119548Y0058501D01*
X0116400Y0058501D01*
X0116400Y0038080D01*
X0118080Y0036400D01*
X0126736Y0036400D01*
X0130013Y0041447D01*
X0130824Y0041619D01*
X0135068Y0038863D01*
X0138314Y0043441D01*
X0134288Y0046055D01*
X0134116Y0046865D01*
X0140013Y0055947D01*
X0140824Y0056119D01*
X0141318Y0055798D01*
X0143934Y0058414D01*
X0143934Y0058501D01*
X0141120Y0058501D01*
X0140534Y0059086D01*
X0140534Y0078100D01*
X0136089Y0078100D01*
X0135534Y0078421D01*
X0135534Y0069901D01*
X0130734Y0069901D01*
X0130734Y0069101D01*
X0135534Y0069101D01*
X0135534Y0059316D01*
X0135438Y0058960D01*
X0135254Y0058641D01*
X0134993Y0058380D01*
X0134674Y0058196D01*
X0134318Y0058101D01*
X0130734Y0058101D01*
X0130734Y0069101D01*
X0129934Y0069101D01*
X0130334Y0069501D02*
X0129000Y0068167D01*
X0126333Y0068167D01*
X0123000Y0069500D01*
X0125134Y0070127D02*
X0120134Y0070127D01*
X0120134Y0070925D02*
X0125134Y0070925D01*
X0125134Y0071724D02*
X0120134Y0071724D01*
X0120134Y0072522D02*
X0125134Y0072522D01*
X0125134Y0073321D02*
X0120134Y0073321D01*
X0120134Y0074119D02*
X0125134Y0074119D01*
X0125134Y0074918D02*
X0120134Y0074918D01*
X0120134Y0075716D02*
X0125134Y0075716D01*
X0125134Y0076515D02*
X0120134Y0076515D01*
X0120134Y0077313D02*
X0125134Y0077313D01*
X0122068Y0078112D02*
X0120134Y0078112D01*
X0120134Y0078910D02*
X0120685Y0078910D01*
X0119866Y0084500D02*
X0114771Y0084500D01*
X0114466Y0085299D02*
X0119866Y0085299D01*
X0119866Y0086097D02*
X0114466Y0086097D01*
X0114466Y0086896D02*
X0119866Y0086896D01*
X0119866Y0087694D02*
X0114466Y0087694D01*
X0114466Y0088493D02*
X0119866Y0088493D01*
X0119866Y0089291D02*
X0114466Y0089291D01*
X0114466Y0090090D02*
X0119866Y0090090D01*
X0119866Y0090888D02*
X0114466Y0090888D01*
X0114466Y0091687D02*
X0119866Y0091687D01*
X0119866Y0092485D02*
X0114466Y0092485D01*
X0114466Y0093284D02*
X0119866Y0093284D01*
X0119866Y0094082D02*
X0114466Y0094082D01*
X0114662Y0106858D02*
X0051400Y0106858D01*
X0051400Y0107657D02*
X0113863Y0107657D01*
X0113437Y0108455D02*
X0051400Y0108455D01*
X0051400Y0109254D02*
X0113437Y0109254D01*
X0113437Y0110052D02*
X0051400Y0110052D01*
X0051400Y0110851D02*
X0104077Y0110851D01*
X0103798Y0111649D02*
X0051400Y0111649D01*
X0051400Y0112448D02*
X0103798Y0112448D01*
X0103798Y0113246D02*
X0051400Y0113246D01*
X0051400Y0114045D02*
X0103475Y0114045D01*
X0102677Y0114843D02*
X0051400Y0114843D01*
X0048600Y0114843D02*
X0046630Y0114843D01*
X0046900Y0114045D02*
X0048600Y0114045D01*
X0048600Y0113246D02*
X0046900Y0113246D01*
X0046900Y0112448D02*
X0048600Y0112448D01*
X0048600Y0115642D02*
X0029915Y0115642D01*
X0030433Y0116440D02*
X0048600Y0116440D01*
X0048600Y0117239D02*
X0030862Y0117239D01*
X0030569Y0118037D02*
X0048600Y0118037D01*
X0048600Y0118836D02*
X0029340Y0118836D01*
X0028110Y0119634D02*
X0048600Y0119634D01*
X0048600Y0120433D02*
X0026880Y0120433D01*
X0027162Y0121232D02*
X0048600Y0121232D01*
X0048600Y0122030D02*
X0027728Y0122030D01*
X0028295Y0122829D02*
X0033487Y0122829D01*
X0032257Y0123627D02*
X0028861Y0123627D01*
X0029427Y0124426D02*
X0031028Y0124426D01*
X0035165Y0122829D02*
X0048600Y0122829D01*
X0048600Y0123627D02*
X0035684Y0123627D01*
X0036203Y0124426D02*
X0048600Y0124426D01*
X0048600Y0125224D02*
X0036721Y0125224D01*
X0037240Y0126023D02*
X0048498Y0126023D01*
X0047699Y0126821D02*
X0037758Y0126821D01*
X0035000Y0129000D02*
X0047500Y0129000D01*
X0050000Y0126500D01*
X0050000Y0094833D01*
X0049666Y0094499D01*
X0054466Y0094881D02*
X0059866Y0094881D01*
X0059866Y0095679D02*
X0054466Y0095679D01*
X0054466Y0096478D02*
X0059866Y0096478D01*
X0059866Y0097276D02*
X0054466Y0097276D01*
X0054466Y0098075D02*
X0059866Y0098075D01*
X0059866Y0098873D02*
X0054466Y0098873D01*
X0054466Y0099672D02*
X0059866Y0099672D01*
X0059866Y0100470D02*
X0054466Y0100470D01*
X0054466Y0101269D02*
X0059866Y0101269D01*
X0059866Y0102067D02*
X0054466Y0102067D01*
X0054466Y0102866D02*
X0059866Y0102866D01*
X0059866Y0103664D02*
X0054466Y0103664D01*
X0054466Y0104463D02*
X0059866Y0104463D01*
X0060214Y0105261D02*
X0054119Y0105261D01*
X0054466Y0094082D02*
X0059866Y0094082D01*
X0059866Y0093284D02*
X0054466Y0093284D01*
X0054466Y0092485D02*
X0059866Y0092485D01*
X0059866Y0091687D02*
X0054466Y0091687D01*
X0054466Y0090888D02*
X0059866Y0090888D01*
X0059866Y0090090D02*
X0054466Y0090090D01*
X0054466Y0089291D02*
X0059866Y0089291D01*
X0059866Y0088493D02*
X0054466Y0088493D01*
X0054466Y0087694D02*
X0059866Y0087694D01*
X0059866Y0086896D02*
X0054466Y0086896D01*
X0054466Y0086097D02*
X0059866Y0086097D01*
X0059866Y0085299D02*
X0057953Y0085299D01*
X0058771Y0084500D02*
X0059866Y0084500D01*
X0060134Y0078910D02*
X0064685Y0078910D01*
X0065534Y0078112D02*
X0060134Y0078112D01*
X0060134Y0077313D02*
X0065534Y0077313D01*
X0065534Y0076515D02*
X0060134Y0076515D01*
X0060134Y0075716D02*
X0065534Y0075716D01*
X0065534Y0074918D02*
X0060134Y0074918D01*
X0060134Y0074119D02*
X0065534Y0074119D01*
X0065534Y0073321D02*
X0060134Y0073321D01*
X0060134Y0072522D02*
X0065534Y0072522D01*
X0065534Y0071724D02*
X0060134Y0071724D01*
X0060134Y0070925D02*
X0065534Y0070925D01*
X0065534Y0070127D02*
X0060134Y0070127D01*
X0060134Y0069328D02*
X0065534Y0069328D01*
X0065534Y0068530D02*
X0060134Y0068530D01*
X0060134Y0067731D02*
X0065534Y0067731D01*
X0065534Y0066933D02*
X0060134Y0066933D01*
X0060134Y0066134D02*
X0065534Y0066134D01*
X0065534Y0065336D02*
X0060134Y0065336D01*
X0060134Y0064537D02*
X0065534Y0064537D01*
X0065534Y0063739D02*
X0060134Y0063739D01*
X0060134Y0062940D02*
X0065534Y0062940D01*
X0065534Y0062142D02*
X0060134Y0062142D01*
X0060134Y0061343D02*
X0065534Y0061343D01*
X0065534Y0060545D02*
X0060134Y0060545D01*
X0060134Y0059746D02*
X0065534Y0059746D01*
X0065673Y0058948D02*
X0059995Y0058948D01*
X0064000Y0056500D02*
X0093000Y0056500D01*
X0103000Y0056500D01*
X0095673Y0058948D02*
X0089995Y0058948D01*
X0090134Y0059746D02*
X0095534Y0059746D01*
X0095534Y0060545D02*
X0090134Y0060545D01*
X0090134Y0061343D02*
X0095534Y0061343D01*
X0095534Y0062142D02*
X0090134Y0062142D01*
X0090134Y0062940D02*
X0095534Y0062940D01*
X0095534Y0063739D02*
X0090134Y0063739D01*
X0090134Y0064537D02*
X0095534Y0064537D01*
X0095534Y0065336D02*
X0090134Y0065336D01*
X0090134Y0066134D02*
X0095534Y0066134D01*
X0095534Y0066933D02*
X0090134Y0066933D01*
X0090134Y0067731D02*
X0095534Y0067731D01*
X0095534Y0068530D02*
X0090134Y0068530D01*
X0090134Y0069328D02*
X0095534Y0069328D01*
X0095534Y0070127D02*
X0090134Y0070127D01*
X0090134Y0070925D02*
X0095534Y0070925D01*
X0095534Y0071724D02*
X0090134Y0071724D01*
X0090134Y0072522D02*
X0095534Y0072522D01*
X0095534Y0073321D02*
X0090134Y0073321D01*
X0090134Y0074119D02*
X0095534Y0074119D01*
X0095534Y0074918D02*
X0090134Y0074918D01*
X0090134Y0075716D02*
X0095534Y0075716D01*
X0095534Y0076515D02*
X0090134Y0076515D01*
X0090134Y0077313D02*
X0095534Y0077313D01*
X0094068Y0078112D02*
X0090134Y0078112D01*
X0090134Y0078910D02*
X0092685Y0078910D01*
X0089866Y0084500D02*
X0086771Y0084500D01*
X0085953Y0085299D02*
X0089866Y0085299D01*
X0089866Y0086097D02*
X0084466Y0086097D01*
X0084466Y0086896D02*
X0089866Y0086896D01*
X0089866Y0087694D02*
X0084466Y0087694D01*
X0084466Y0088493D02*
X0089866Y0088493D01*
X0089866Y0089291D02*
X0084466Y0089291D01*
X0084466Y0090090D02*
X0089866Y0090090D01*
X0089866Y0090888D02*
X0084466Y0090888D01*
X0084466Y0091687D02*
X0089866Y0091687D01*
X0089866Y0092485D02*
X0084466Y0092485D01*
X0084466Y0093284D02*
X0089866Y0093284D01*
X0089866Y0094082D02*
X0084466Y0094082D01*
X0084466Y0094881D02*
X0089866Y0094881D01*
X0089866Y0095679D02*
X0084466Y0095679D01*
X0084466Y0096478D02*
X0089866Y0096478D01*
X0089866Y0097276D02*
X0084466Y0097276D01*
X0084466Y0098075D02*
X0089866Y0098075D01*
X0089866Y0098873D02*
X0084466Y0098873D01*
X0084466Y0099672D02*
X0089866Y0099672D01*
X0089866Y0100470D02*
X0084466Y0100470D01*
X0084466Y0101269D02*
X0089866Y0101269D01*
X0089866Y0102067D02*
X0084466Y0102067D01*
X0084466Y0102866D02*
X0089866Y0102866D01*
X0089866Y0103664D02*
X0084466Y0103664D01*
X0084466Y0104463D02*
X0089866Y0104463D01*
X0090214Y0105261D02*
X0084119Y0105261D01*
X0075214Y0105261D02*
X0069119Y0105261D01*
X0069466Y0104463D02*
X0074866Y0104463D01*
X0074866Y0103664D02*
X0069466Y0103664D01*
X0069466Y0102866D02*
X0074866Y0102866D01*
X0074866Y0102067D02*
X0069466Y0102067D01*
X0069466Y0101269D02*
X0074866Y0101269D01*
X0074866Y0100470D02*
X0069466Y0100470D01*
X0069466Y0099672D02*
X0074866Y0099672D01*
X0074866Y0098873D02*
X0069466Y0098873D01*
X0069466Y0098075D02*
X0074866Y0098075D01*
X0074866Y0097276D02*
X0069466Y0097276D01*
X0069466Y0096478D02*
X0074866Y0096478D01*
X0074866Y0095679D02*
X0069466Y0095679D01*
X0069466Y0094881D02*
X0074866Y0094881D01*
X0074866Y0094082D02*
X0069466Y0094082D01*
X0069466Y0093284D02*
X0074866Y0093284D01*
X0074866Y0092485D02*
X0069466Y0092485D01*
X0069466Y0091687D02*
X0074866Y0091687D01*
X0074866Y0090888D02*
X0069466Y0090888D01*
X0069466Y0090090D02*
X0074866Y0090090D01*
X0074866Y0089291D02*
X0069466Y0089291D01*
X0069466Y0088493D02*
X0074866Y0088493D01*
X0074866Y0087694D02*
X0069466Y0087694D01*
X0069466Y0086896D02*
X0074866Y0086896D01*
X0074866Y0086097D02*
X0069466Y0086097D01*
X0071953Y0085299D02*
X0074866Y0085299D01*
X0074866Y0084500D02*
X0072771Y0084500D01*
X0075134Y0078910D02*
X0078685Y0078910D01*
X0080068Y0078112D02*
X0075134Y0078112D01*
X0075134Y0077313D02*
X0080534Y0077313D01*
X0080534Y0076515D02*
X0075134Y0076515D01*
X0075134Y0075716D02*
X0080534Y0075716D01*
X0080534Y0074918D02*
X0075134Y0074918D01*
X0075134Y0074119D02*
X0080534Y0074119D01*
X0080534Y0073321D02*
X0075134Y0073321D01*
X0075134Y0072522D02*
X0080534Y0072522D01*
X0080534Y0071724D02*
X0075134Y0071724D01*
X0075134Y0070925D02*
X0080534Y0070925D01*
X0080534Y0070127D02*
X0075134Y0070127D01*
X0075134Y0069328D02*
X0080534Y0069328D01*
X0080534Y0068530D02*
X0075134Y0068530D01*
X0075134Y0067731D02*
X0080534Y0067731D01*
X0080534Y0066933D02*
X0075134Y0066933D01*
X0075134Y0066134D02*
X0080534Y0066134D01*
X0080534Y0065336D02*
X0075134Y0065336D01*
X0075134Y0064537D02*
X0080534Y0064537D01*
X0080534Y0063739D02*
X0075134Y0063739D01*
X0075134Y0062940D02*
X0080534Y0062940D01*
X0080534Y0062142D02*
X0075134Y0062142D01*
X0075134Y0061343D02*
X0080534Y0061343D01*
X0080534Y0060545D02*
X0075134Y0060545D01*
X0075134Y0059746D02*
X0080534Y0059746D01*
X0080673Y0058948D02*
X0074995Y0058948D01*
X0068000Y0046500D02*
X0063000Y0046500D01*
X0088000Y0046500D01*
X0088711Y0047768D02*
X0113600Y0047768D01*
X0113600Y0046970D02*
X0089510Y0046970D01*
X0090308Y0046171D02*
X0113600Y0046171D01*
X0113600Y0045373D02*
X0091107Y0045373D01*
X0091400Y0044574D02*
X0113600Y0044574D01*
X0113600Y0043776D02*
X0091400Y0043776D01*
X0091400Y0042977D02*
X0113600Y0042977D01*
X0113600Y0042179D02*
X0091400Y0042179D01*
X0091400Y0041380D02*
X0113600Y0041380D01*
X0113600Y0040582D02*
X0091400Y0040582D01*
X0091400Y0039783D02*
X0113600Y0039783D01*
X0113600Y0038985D02*
X0091400Y0038985D01*
X0091400Y0038186D02*
X0091575Y0038186D01*
X0094425Y0038186D02*
X0113600Y0038186D01*
X0113600Y0037388D02*
X0095200Y0037388D01*
X0095200Y0036589D02*
X0113931Y0036589D01*
X0114729Y0035791D02*
X0095200Y0035791D01*
X0097700Y0026500D02*
X0100000Y0026663D01*
X0098094Y0026600D01*
X0083406Y0028800D02*
X0081000Y0028363D01*
X0081000Y0017500D01*
X0078500Y0015000D01*
X0078500Y0013500D01*
X0078823Y0017425D02*
X0078945Y0017425D01*
X0079600Y0018224D02*
X0077545Y0018224D01*
X0076268Y0019022D02*
X0079600Y0019022D01*
X0079600Y0019821D02*
X0065451Y0019821D01*
X0065650Y0020619D02*
X0079600Y0020619D01*
X0079600Y0021418D02*
X0066149Y0021418D01*
X0066648Y0022216D02*
X0079600Y0022216D01*
X0079600Y0023015D02*
X0067147Y0023015D01*
X0067628Y0023813D02*
X0079600Y0023813D01*
X0079453Y0024612D02*
X0075547Y0024612D01*
X0075547Y0024449D02*
X0075547Y0033151D01*
X0074961Y0033737D01*
X0068228Y0033737D01*
X0067642Y0033151D01*
X0067642Y0024449D01*
X0068228Y0023863D01*
X0074961Y0023863D01*
X0075547Y0024449D01*
X0075547Y0025410D02*
X0079453Y0025410D01*
X0079453Y0026209D02*
X0075547Y0026209D01*
X0075547Y0027007D02*
X0079453Y0027007D01*
X0079453Y0027806D02*
X0075547Y0027806D01*
X0075547Y0028604D02*
X0079453Y0028604D01*
X0079453Y0029403D02*
X0075547Y0029403D01*
X0075547Y0030201D02*
X0079453Y0030201D01*
X0079453Y0031000D02*
X0075547Y0031000D01*
X0075547Y0031798D02*
X0079453Y0031798D01*
X0079453Y0032597D02*
X0075547Y0032597D01*
X0075303Y0033395D02*
X0079697Y0033395D01*
X0071594Y0028800D02*
X0070700Y0028800D01*
X0070400Y0030600D01*
X0067642Y0030201D02*
X0062400Y0030201D01*
X0062400Y0029403D02*
X0067642Y0029403D01*
X0067642Y0028604D02*
X0062400Y0028604D01*
X0062400Y0027806D02*
X0067642Y0027806D01*
X0067642Y0027007D02*
X0063592Y0027007D01*
X0064870Y0026209D02*
X0067642Y0026209D01*
X0067642Y0025410D02*
X0066148Y0025410D01*
X0067426Y0024612D02*
X0067642Y0024612D01*
X0066752Y0019022D02*
X0074876Y0019022D01*
X0074377Y0018224D02*
X0068053Y0018224D01*
X0069354Y0017425D02*
X0073878Y0017425D01*
X0073379Y0016627D02*
X0070656Y0016627D01*
X0071957Y0015828D02*
X0072880Y0015828D01*
X0084970Y0007843D02*
X0097500Y0007843D01*
X0097500Y0007044D02*
X0086271Y0007044D01*
X0087572Y0006246D02*
X0097500Y0006246D01*
X0097500Y0005447D02*
X0088874Y0005447D01*
X0090175Y0004649D02*
X0097500Y0004649D01*
X0117500Y0035000D02*
X0130000Y0035000D01*
X0126859Y0036589D02*
X0117891Y0036589D01*
X0117092Y0037388D02*
X0127377Y0037388D01*
X0127896Y0038186D02*
X0116400Y0038186D01*
X0116400Y0038985D02*
X0128415Y0038985D01*
X0128933Y0039783D02*
X0116400Y0039783D01*
X0116400Y0040582D02*
X0129452Y0040582D01*
X0129970Y0041380D02*
X0116400Y0041380D01*
X0116400Y0042179D02*
X0137420Y0042179D01*
X0137986Y0042977D02*
X0116400Y0042977D01*
X0116400Y0043776D02*
X0137798Y0043776D01*
X0136568Y0044574D02*
X0116400Y0044574D01*
X0116400Y0045373D02*
X0135339Y0045373D01*
X0134263Y0046171D02*
X0116400Y0046171D01*
X0116400Y0046970D02*
X0134184Y0046970D01*
X0134702Y0047768D02*
X0116400Y0047768D01*
X0116400Y0048567D02*
X0135221Y0048567D01*
X0135739Y0049366D02*
X0130750Y0049366D01*
X0130805Y0049460D02*
X0130900Y0049816D01*
X0130900Y0052100D01*
X0124900Y0052100D01*
X0124900Y0052900D01*
X0124100Y0052900D01*
X0124100Y0056400D01*
X0119316Y0056400D01*
X0118960Y0056305D01*
X0118640Y0056120D01*
X0118380Y0055860D01*
X0118195Y0055540D01*
X0118100Y0055184D01*
X0118100Y0052900D01*
X0124100Y0052900D01*
X0124100Y0052100D01*
X0124900Y0052100D01*
X0124900Y0048600D01*
X0129684Y0048600D01*
X0130040Y0048695D01*
X0130360Y0048880D01*
X0130620Y0049140D01*
X0130805Y0049460D01*
X0130900Y0050164D02*
X0136258Y0050164D01*
X0136777Y0050963D02*
X0130900Y0050963D01*
X0130900Y0051761D02*
X0137295Y0051761D01*
X0137814Y0052560D02*
X0124900Y0052560D01*
X0125000Y0052500D02*
X0129000Y0056500D01*
X0129000Y0068167D01*
X0129934Y0068530D02*
X0130734Y0068530D01*
X0130734Y0069328D02*
X0140534Y0069328D01*
X0140534Y0068530D02*
X0135534Y0068530D01*
X0135534Y0067731D02*
X0140534Y0067731D01*
X0140534Y0066933D02*
X0135534Y0066933D01*
X0135534Y0066134D02*
X0140534Y0066134D01*
X0140534Y0065336D02*
X0135534Y0065336D01*
X0135534Y0064537D02*
X0140534Y0064537D01*
X0140534Y0063739D02*
X0135534Y0063739D01*
X0135534Y0062940D02*
X0140534Y0062940D01*
X0140534Y0062142D02*
X0135534Y0062142D01*
X0135534Y0061343D02*
X0140534Y0061343D01*
X0140534Y0060545D02*
X0135534Y0060545D01*
X0135534Y0059746D02*
X0140534Y0059746D01*
X0140673Y0058948D02*
X0135431Y0058948D01*
X0134499Y0058149D02*
X0143669Y0058149D01*
X0142871Y0057351D02*
X0116400Y0057351D01*
X0116400Y0058149D02*
X0126168Y0058149D01*
X0125236Y0058948D02*
X0119995Y0058948D01*
X0120134Y0059746D02*
X0125134Y0059746D01*
X0125134Y0060545D02*
X0120134Y0060545D01*
X0120134Y0061343D02*
X0125134Y0061343D01*
X0125134Y0062142D02*
X0120134Y0062142D01*
X0120134Y0062940D02*
X0125134Y0062940D01*
X0125134Y0063739D02*
X0120134Y0063739D01*
X0120134Y0064537D02*
X0125134Y0064537D01*
X0125134Y0065336D02*
X0120134Y0065336D01*
X0120134Y0066134D02*
X0125134Y0066134D01*
X0125134Y0066933D02*
X0120134Y0066933D01*
X0120134Y0067731D02*
X0125134Y0067731D01*
X0125134Y0068530D02*
X0120134Y0068530D01*
X0129934Y0067731D02*
X0130734Y0067731D01*
X0130734Y0066933D02*
X0129934Y0066933D01*
X0129934Y0066134D02*
X0130734Y0066134D01*
X0130734Y0065336D02*
X0129934Y0065336D01*
X0129934Y0064537D02*
X0130734Y0064537D01*
X0130734Y0063739D02*
X0129934Y0063739D01*
X0129934Y0062940D02*
X0130734Y0062940D01*
X0130734Y0062142D02*
X0129934Y0062142D01*
X0129934Y0061343D02*
X0130734Y0061343D01*
X0130734Y0060545D02*
X0129934Y0060545D01*
X0129934Y0059746D02*
X0130734Y0059746D01*
X0130734Y0058948D02*
X0129934Y0058948D01*
X0129934Y0058149D02*
X0130734Y0058149D01*
X0130040Y0056305D02*
X0129684Y0056400D01*
X0124900Y0056400D01*
X0124900Y0052900D01*
X0130900Y0052900D01*
X0130900Y0055184D01*
X0130805Y0055540D01*
X0130620Y0055860D01*
X0130360Y0056120D01*
X0130040Y0056305D01*
X0130681Y0055754D02*
X0139888Y0055754D01*
X0139369Y0054955D02*
X0130900Y0054955D01*
X0130900Y0054157D02*
X0138851Y0054157D01*
X0138332Y0053358D02*
X0130900Y0053358D01*
X0125000Y0052500D02*
X0124500Y0052500D01*
X0124500Y0047000D01*
X0124000Y0046500D01*
X0124100Y0048600D02*
X0124100Y0052100D01*
X0118100Y0052100D01*
X0118100Y0049816D01*
X0118195Y0049460D01*
X0118380Y0049140D01*
X0118640Y0048880D01*
X0118960Y0048695D01*
X0119316Y0048600D01*
X0124100Y0048600D01*
X0124100Y0049366D02*
X0124900Y0049366D01*
X0124900Y0050164D02*
X0124100Y0050164D01*
X0124100Y0050963D02*
X0124900Y0050963D01*
X0124900Y0051761D02*
X0124100Y0051761D01*
X0124100Y0052560D02*
X0116400Y0052560D01*
X0116400Y0053358D02*
X0118100Y0053358D01*
X0118100Y0054157D02*
X0116400Y0054157D01*
X0116400Y0054955D02*
X0118100Y0054955D01*
X0118319Y0055754D02*
X0116400Y0055754D01*
X0116400Y0056552D02*
X0142072Y0056552D01*
X0145334Y0057834D02*
X0139000Y0051500D01*
X0139000Y0050500D01*
X0140000Y0049500D01*
X0136853Y0041380D02*
X0131192Y0041380D01*
X0132421Y0040582D02*
X0136287Y0040582D01*
X0135721Y0039783D02*
X0133651Y0039783D01*
X0134880Y0038985D02*
X0135155Y0038985D01*
X0124900Y0053358D02*
X0124100Y0053358D01*
X0124100Y0054157D02*
X0124900Y0054157D01*
X0124900Y0054955D02*
X0124100Y0054955D01*
X0124100Y0055754D02*
X0124900Y0055754D01*
X0118100Y0051761D02*
X0116400Y0051761D01*
X0116400Y0050963D02*
X0118100Y0050963D01*
X0118100Y0050164D02*
X0116400Y0050164D01*
X0116400Y0049366D02*
X0118250Y0049366D01*
X0113600Y0049366D02*
X0062114Y0049366D01*
X0061316Y0050164D02*
X0113600Y0050164D01*
X0113600Y0050963D02*
X0061202Y0050963D01*
X0061202Y0051761D02*
X0113600Y0051761D01*
X0113600Y0052560D02*
X0061202Y0052560D01*
X0060714Y0053358D02*
X0113600Y0053358D01*
X0113600Y0048567D02*
X0062913Y0048567D01*
X0063000Y0046500D02*
X0059800Y0049700D01*
X0058037Y0049700D01*
X0060844Y0046171D02*
X0061349Y0046171D01*
X0062147Y0045373D02*
X0042400Y0045373D01*
X0042400Y0044574D02*
X0067541Y0044574D01*
X0067600Y0043776D02*
X0042400Y0043776D01*
X0042400Y0042977D02*
X0067100Y0042977D01*
X0067100Y0042179D02*
X0066658Y0042179D01*
X0066658Y0041380D02*
X0067108Y0041380D01*
X0066658Y0040582D02*
X0067907Y0040582D01*
X0069300Y0042300D02*
X0069000Y0044200D01*
X0069000Y0045500D01*
X0068000Y0046500D01*
X0062706Y0037900D02*
X0061000Y0037637D01*
X0061000Y0024500D01*
X0055991Y0027806D02*
X0052438Y0027806D01*
X0053739Y0027007D02*
X0055492Y0027007D01*
X0054694Y0033395D02*
X0058906Y0033395D01*
X0058753Y0034194D02*
X0054847Y0034194D01*
X0054847Y0034992D02*
X0058753Y0034992D01*
X0058753Y0035791D02*
X0054847Y0035791D01*
X0054847Y0036589D02*
X0058753Y0036589D01*
X0058753Y0037388D02*
X0054847Y0037388D01*
X0054847Y0038186D02*
X0058753Y0038186D01*
X0058753Y0038985D02*
X0054847Y0038985D01*
X0054847Y0039783D02*
X0058753Y0039783D01*
X0058753Y0040582D02*
X0054847Y0040582D01*
X0054847Y0041380D02*
X0058753Y0041380D01*
X0058753Y0042179D02*
X0054847Y0042179D01*
X0050894Y0037900D02*
X0042600Y0037900D01*
X0041000Y0039500D01*
X0042697Y0039783D02*
X0046942Y0039783D01*
X0046942Y0040582D02*
X0042400Y0040582D01*
X0042400Y0041380D02*
X0046942Y0041380D01*
X0046942Y0042179D02*
X0042400Y0042179D01*
X0044044Y0046171D02*
X0047356Y0046171D01*
X0046998Y0046970D02*
X0044402Y0046970D01*
X0044402Y0047768D02*
X0046998Y0047768D01*
X0046998Y0048567D02*
X0044402Y0048567D01*
X0038072Y0048567D02*
X0036928Y0048567D01*
X0036928Y0047768D02*
X0038072Y0047768D01*
X0038072Y0046970D02*
X0036928Y0046970D01*
X0036699Y0046171D02*
X0038430Y0046171D01*
X0018500Y0050500D02*
X0016000Y0050500D01*
X0011000Y0055500D01*
X0019666Y0094499D02*
X0019666Y0106166D01*
X0026000Y0112500D01*
X0026000Y0113500D01*
X0025000Y0114500D01*
X0027841Y0112448D02*
X0034100Y0112448D01*
X0034100Y0113246D02*
X0028359Y0113246D01*
X0028878Y0114045D02*
X0034100Y0114045D01*
X0034370Y0114843D02*
X0029396Y0114843D01*
X0027322Y0111649D02*
X0040100Y0111649D01*
X0040000Y0111500D02*
X0036000Y0107500D01*
X0036000Y0095833D01*
X0035066Y0095679D02*
X0034266Y0095679D01*
X0034266Y0096478D02*
X0035066Y0096478D01*
X0035066Y0097276D02*
X0034266Y0097276D01*
X0034266Y0098075D02*
X0035066Y0098075D01*
X0035066Y0098873D02*
X0034266Y0098873D01*
X0034266Y0099672D02*
X0035066Y0099672D01*
X0035066Y0100470D02*
X0034266Y0100470D01*
X0034266Y0101269D02*
X0035066Y0101269D01*
X0035066Y0102067D02*
X0034266Y0102067D01*
X0034266Y0102866D02*
X0035066Y0102866D01*
X0035066Y0103664D02*
X0034266Y0103664D01*
X0034266Y0104463D02*
X0035066Y0104463D01*
X0035066Y0105261D02*
X0034266Y0105261D01*
X0035104Y0107657D02*
X0023137Y0107657D01*
X0025248Y0108455D02*
X0034198Y0108455D01*
X0034100Y0109254D02*
X0025766Y0109254D01*
X0026285Y0110052D02*
X0034100Y0110052D01*
X0034100Y0110851D02*
X0026803Y0110851D01*
X0024119Y0105261D02*
X0029690Y0105261D01*
X0029466Y0104463D02*
X0024466Y0104463D01*
X0024466Y0103664D02*
X0029466Y0103664D01*
X0029466Y0102866D02*
X0024466Y0102866D01*
X0024466Y0102067D02*
X0029466Y0102067D01*
X0029466Y0101269D02*
X0024466Y0101269D01*
X0024466Y0100470D02*
X0029466Y0100470D01*
X0029466Y0099672D02*
X0024466Y0099672D01*
X0024466Y0098873D02*
X0029466Y0098873D01*
X0029466Y0098075D02*
X0024466Y0098075D01*
X0024466Y0097276D02*
X0029466Y0097276D01*
X0029466Y0096478D02*
X0024466Y0096478D01*
X0040000Y0111500D02*
X0040500Y0111500D01*
X0048465Y0130015D02*
X0073600Y0130015D01*
X0073600Y0129217D02*
X0073395Y0129217D01*
X0075000Y0127500D02*
X0075000Y0119500D01*
X0085512Y0130814D02*
X0089488Y0130814D01*
X0089453Y0131612D02*
X0085547Y0131612D01*
X0085547Y0132411D02*
X0089453Y0132411D01*
X0089453Y0133209D02*
X0085547Y0133209D01*
X0085547Y0134008D02*
X0089453Y0134008D01*
X0089453Y0134806D02*
X0085547Y0134806D01*
X0085547Y0135605D02*
X0089453Y0135605D01*
X0089453Y0136403D02*
X0085547Y0136403D01*
X0085547Y0137202D02*
X0089453Y0137202D01*
X0089453Y0138000D02*
X0085547Y0138000D01*
X0085547Y0138799D02*
X0089453Y0138799D01*
X0089499Y0139597D02*
X0085501Y0139597D01*
X0082600Y0140396D02*
X0076400Y0140396D01*
X0076400Y0141194D02*
X0082600Y0141194D01*
X0082600Y0141993D02*
X0076400Y0141993D01*
X0076400Y0142791D02*
X0082600Y0142791D01*
X0082600Y0143590D02*
X0076400Y0143590D01*
X0076400Y0144388D02*
X0082600Y0144388D01*
X0082600Y0145187D02*
X0076400Y0145187D01*
X0076400Y0145985D02*
X0082600Y0145985D01*
X0082600Y0146784D02*
X0076400Y0146784D01*
X0076028Y0147582D02*
X0083102Y0147582D01*
X0083286Y0148381D02*
X0075230Y0148381D01*
X0075093Y0149179D02*
X0082009Y0149179D01*
X0080731Y0149978D02*
X0075093Y0149978D01*
X0075093Y0150776D02*
X0079967Y0150776D01*
X0080097Y0151575D02*
X0075093Y0151575D01*
X0075002Y0152373D02*
X0080596Y0152373D01*
X0081095Y0153172D02*
X0064400Y0153172D01*
X0064400Y0153970D02*
X0081594Y0153970D01*
X0082093Y0154769D02*
X0064400Y0154769D01*
X0063000Y0154500D02*
X0063000Y0149969D01*
X0063069Y0149900D01*
X0059707Y0149978D02*
X0047546Y0149978D01*
X0047771Y0149179D02*
X0059707Y0149179D01*
X0059707Y0148381D02*
X0049001Y0148381D01*
X0050230Y0147582D02*
X0059707Y0147582D01*
X0059707Y0150776D02*
X0048112Y0150776D01*
X0048678Y0151575D02*
X0059707Y0151575D01*
X0059798Y0152373D02*
X0049245Y0152373D01*
X0049811Y0153172D02*
X0061600Y0153172D01*
X0061550Y0153970D02*
X0050377Y0153970D01*
X0050943Y0154769D02*
X0060751Y0154769D01*
X0061500Y0156000D02*
X0063000Y0154500D01*
X0061500Y0156000D02*
X0061500Y0159000D01*
X0066982Y0155568D02*
X0080991Y0155568D01*
X0079690Y0156366D02*
X0067500Y0156366D01*
X0067500Y0157165D02*
X0078388Y0157165D01*
X0077087Y0157963D02*
X0067500Y0157963D01*
X0067500Y0158762D02*
X0075786Y0158762D01*
X0074485Y0159560D02*
X0067500Y0159560D01*
X0068459Y0152373D02*
X0066341Y0152373D01*
X0066431Y0151575D02*
X0068369Y0151575D01*
X0068369Y0150776D02*
X0066431Y0150776D01*
X0066431Y0149978D02*
X0068369Y0149978D01*
X0068369Y0149179D02*
X0066431Y0149179D01*
X0066431Y0148381D02*
X0068369Y0148381D01*
X0068369Y0147582D02*
X0066431Y0147582D01*
X0076400Y0139597D02*
X0077688Y0139597D01*
X0077642Y0138799D02*
X0076400Y0138799D01*
X0076400Y0138000D02*
X0077642Y0138000D01*
X0077642Y0137202D02*
X0076400Y0137202D01*
X0076400Y0136403D02*
X0077642Y0136403D01*
X0077642Y0135605D02*
X0076400Y0135605D01*
X0086500Y0149000D02*
X0086500Y0150500D01*
X0093406Y0135200D02*
X0094300Y0135200D01*
X0094600Y0133400D01*
X0097358Y0133209D02*
X0102600Y0133209D01*
X0102600Y0132411D02*
X0097358Y0132411D01*
X0097358Y0131612D02*
X0102600Y0131612D01*
X0098704Y0130814D02*
X0097323Y0130814D01*
X0102294Y0126100D02*
X0104000Y0126363D01*
X0104000Y0139500D01*
X0118000Y0132500D02*
X0122000Y0128500D01*
X0124000Y0128500D01*
X0126000Y0126500D01*
X0129000Y0126500D01*
X0131637Y0123863D01*
X0131637Y0114300D01*
X0134200Y0114300D01*
X0140000Y0108500D01*
X0140000Y0094833D01*
X0139666Y0094499D01*
X0139266Y0094881D02*
X0129466Y0094881D01*
X0129466Y0095679D02*
X0134466Y0095679D01*
X0134466Y0094899D02*
X0139266Y0094899D01*
X0139266Y0105899D01*
X0135682Y0105899D01*
X0135326Y0105804D01*
X0135007Y0105620D01*
X0134746Y0105359D01*
X0134562Y0105040D01*
X0134466Y0104684D01*
X0134466Y0094899D01*
X0134466Y0094082D02*
X0129466Y0094082D01*
X0129466Y0093284D02*
X0134466Y0093284D01*
X0134466Y0092485D02*
X0129466Y0092485D01*
X0129466Y0091687D02*
X0134466Y0091687D01*
X0134466Y0090888D02*
X0129466Y0090888D01*
X0129466Y0090090D02*
X0134466Y0090090D01*
X0134466Y0089291D02*
X0129466Y0089291D01*
X0129466Y0088493D02*
X0134466Y0088493D01*
X0134466Y0087694D02*
X0129466Y0087694D01*
X0129466Y0086896D02*
X0134466Y0086896D01*
X0134466Y0086097D02*
X0129466Y0086097D01*
X0129466Y0085299D02*
X0134466Y0085299D01*
X0134229Y0084500D02*
X0129466Y0084500D01*
X0135534Y0078112D02*
X0136068Y0078112D01*
X0135534Y0077313D02*
X0140534Y0077313D01*
X0140534Y0076515D02*
X0135534Y0076515D01*
X0135534Y0075716D02*
X0140534Y0075716D01*
X0140534Y0074918D02*
X0135534Y0074918D01*
X0135534Y0074119D02*
X0140534Y0074119D01*
X0140534Y0073321D02*
X0135534Y0073321D01*
X0135534Y0072522D02*
X0140534Y0072522D01*
X0140534Y0071724D02*
X0135534Y0071724D01*
X0135534Y0070925D02*
X0140534Y0070925D01*
X0140534Y0070127D02*
X0135534Y0070127D01*
X0145334Y0069501D02*
X0145334Y0057834D01*
X0144866Y0086097D02*
X0149866Y0086097D01*
X0149866Y0086896D02*
X0144866Y0086896D01*
X0144866Y0087694D02*
X0149866Y0087694D01*
X0149866Y0088493D02*
X0144866Y0088493D01*
X0144866Y0089291D02*
X0149866Y0089291D01*
X0149866Y0090090D02*
X0144866Y0090090D01*
X0144866Y0090888D02*
X0149866Y0090888D01*
X0149866Y0091687D02*
X0144866Y0091687D01*
X0144866Y0092485D02*
X0149866Y0092485D01*
X0149866Y0093284D02*
X0144866Y0093284D01*
X0144866Y0094082D02*
X0149866Y0094082D01*
X0149866Y0094881D02*
X0140066Y0094881D01*
X0140066Y0095679D02*
X0139266Y0095679D01*
X0139266Y0096478D02*
X0140066Y0096478D01*
X0140066Y0097276D02*
X0139266Y0097276D01*
X0139266Y0098075D02*
X0140066Y0098075D01*
X0140066Y0098873D02*
X0139266Y0098873D01*
X0139266Y0099672D02*
X0140066Y0099672D01*
X0140066Y0100470D02*
X0139266Y0100470D01*
X0139266Y0101269D02*
X0140066Y0101269D01*
X0140066Y0102067D02*
X0139266Y0102067D01*
X0139266Y0102866D02*
X0140066Y0102866D01*
X0140066Y0103664D02*
X0139266Y0103664D01*
X0139266Y0104463D02*
X0140066Y0104463D01*
X0140066Y0105261D02*
X0139266Y0105261D01*
X0134690Y0105261D02*
X0129119Y0105261D01*
X0129466Y0104463D02*
X0134466Y0104463D01*
X0134466Y0103664D02*
X0129466Y0103664D01*
X0129466Y0102866D02*
X0134466Y0102866D01*
X0134466Y0102067D02*
X0129466Y0102067D01*
X0129466Y0101269D02*
X0134466Y0101269D01*
X0134466Y0100470D02*
X0129466Y0100470D01*
X0129466Y0099672D02*
X0134466Y0099672D01*
X0134466Y0098873D02*
X0129466Y0098873D01*
X0129466Y0098075D02*
X0134466Y0098075D01*
X0134466Y0097276D02*
X0129466Y0097276D01*
X0129466Y0096478D02*
X0134466Y0096478D01*
X0126400Y0106060D02*
X0152600Y0106060D01*
X0152600Y0106858D02*
X0126400Y0106858D01*
X0125823Y0107657D02*
X0152600Y0107657D01*
X0152065Y0108455D02*
X0150423Y0108455D01*
X0150922Y0109254D02*
X0151266Y0109254D01*
X0154000Y0108500D02*
X0149000Y0113500D01*
X0146500Y0113500D01*
X0144135Y0110851D02*
X0135019Y0110851D01*
X0135107Y0111004D02*
X0135202Y0111360D01*
X0135202Y0113900D01*
X0132037Y0113900D01*
X0132037Y0114700D01*
X0131237Y0114700D01*
X0131237Y0118456D01*
X0129287Y0118456D01*
X0128931Y0118360D01*
X0128612Y0118176D01*
X0128351Y0117916D01*
X0128167Y0117596D01*
X0128072Y0117240D01*
X0128072Y0114700D01*
X0131237Y0114700D01*
X0131237Y0113900D01*
X0128072Y0113900D01*
X0128072Y0111360D01*
X0128167Y0111004D01*
X0128351Y0110684D01*
X0128612Y0110424D01*
X0128931Y0110240D01*
X0129287Y0110144D01*
X0131237Y0110144D01*
X0131237Y0113900D01*
X0132037Y0113900D01*
X0132037Y0110144D01*
X0133987Y0110144D01*
X0134343Y0110240D01*
X0134662Y0110424D01*
X0134923Y0110684D01*
X0135107Y0111004D01*
X0135202Y0111649D02*
X0142857Y0111649D01*
X0141579Y0112448D02*
X0135202Y0112448D01*
X0135202Y0113246D02*
X0140301Y0113246D01*
X0139905Y0114045D02*
X0132037Y0114045D01*
X0132037Y0114700D02*
X0135202Y0114700D01*
X0135202Y0117240D01*
X0135107Y0117596D01*
X0134923Y0117916D01*
X0134662Y0118176D01*
X0134343Y0118360D01*
X0133987Y0118456D01*
X0132037Y0118456D01*
X0132037Y0114700D01*
X0132037Y0114843D02*
X0131237Y0114843D01*
X0131237Y0114045D02*
X0126928Y0114045D01*
X0126928Y0114843D02*
X0128072Y0114843D01*
X0128072Y0115642D02*
X0126928Y0115642D01*
X0126928Y0116440D02*
X0128072Y0116440D01*
X0128072Y0117239D02*
X0126928Y0117239D01*
X0126361Y0118037D02*
X0128473Y0118037D01*
X0131237Y0118037D02*
X0132037Y0118037D01*
X0132037Y0117239D02*
X0131237Y0117239D01*
X0131237Y0116440D02*
X0132037Y0116440D01*
X0132037Y0115642D02*
X0131237Y0115642D01*
X0131237Y0113246D02*
X0132037Y0113246D01*
X0132037Y0112448D02*
X0131237Y0112448D01*
X0131237Y0111649D02*
X0132037Y0111649D01*
X0132037Y0110851D02*
X0131237Y0110851D01*
X0128255Y0110851D02*
X0126649Y0110851D01*
X0126928Y0111649D02*
X0128072Y0111649D01*
X0128072Y0112448D02*
X0126928Y0112448D01*
X0126928Y0113246D02*
X0128072Y0113246D01*
X0124563Y0113500D02*
X0123763Y0114300D01*
X0124000Y0114500D02*
X0124000Y0123500D01*
X0124000Y0124500D01*
X0122400Y0126100D01*
X0114106Y0126100D01*
X0118058Y0127620D02*
X0126536Y0127620D01*
X0127837Y0126821D02*
X0123659Y0126821D01*
X0124457Y0126023D02*
X0129138Y0126023D01*
X0130440Y0125224D02*
X0125256Y0125224D01*
X0125400Y0124426D02*
X0131741Y0124426D01*
X0133042Y0123627D02*
X0125400Y0123627D01*
X0125400Y0122829D02*
X0134343Y0122829D01*
X0135645Y0122030D02*
X0125400Y0122030D01*
X0125400Y0121232D02*
X0136946Y0121232D01*
X0138247Y0120433D02*
X0125400Y0120433D01*
X0125400Y0119634D02*
X0139548Y0119634D01*
X0140850Y0118836D02*
X0125400Y0118836D01*
X0122600Y0118836D02*
X0102644Y0118836D01*
X0103400Y0118080D02*
X0103400Y0118080D01*
X0103442Y0118037D02*
X0104365Y0118037D01*
X0102000Y0117500D02*
X0105200Y0114300D01*
X0106963Y0114300D01*
X0110128Y0113246D02*
X0111672Y0113246D01*
X0111672Y0112448D02*
X0110128Y0112448D01*
X0110128Y0111649D02*
X0111672Y0111649D01*
X0111951Y0110851D02*
X0109849Y0110851D01*
X0116237Y0110052D02*
X0145413Y0110052D01*
X0146690Y0109254D02*
X0116237Y0109254D01*
X0117723Y0110851D02*
X0120877Y0110851D01*
X0120598Y0111649D02*
X0118002Y0111649D01*
X0118002Y0112448D02*
X0120598Y0112448D01*
X0120598Y0113246D02*
X0118002Y0113246D01*
X0118002Y0114045D02*
X0120598Y0114045D01*
X0120598Y0114843D02*
X0118002Y0114843D01*
X0118002Y0115642D02*
X0120598Y0115642D01*
X0120598Y0116440D02*
X0118002Y0116440D01*
X0118002Y0117239D02*
X0120598Y0117239D01*
X0121165Y0118037D02*
X0117435Y0118037D01*
X0117541Y0121232D02*
X0122600Y0121232D01*
X0122600Y0122030D02*
X0118058Y0122030D01*
X0118058Y0122829D02*
X0122600Y0122829D01*
X0122600Y0123627D02*
X0118058Y0123627D01*
X0118058Y0124426D02*
X0122095Y0124426D01*
X0125234Y0128418D02*
X0118058Y0128418D01*
X0118058Y0129217D02*
X0123933Y0129217D01*
X0122632Y0130015D02*
X0118058Y0130015D01*
X0117696Y0130814D02*
X0121331Y0130814D01*
X0134801Y0118037D02*
X0142151Y0118037D01*
X0141761Y0117239D02*
X0135202Y0117239D01*
X0135202Y0116440D02*
X0141262Y0116440D01*
X0140763Y0115642D02*
X0135202Y0115642D01*
X0135202Y0114843D02*
X0140264Y0114843D01*
X0147968Y0108455D02*
X0125025Y0108455D01*
X0124563Y0113500D02*
X0124000Y0114500D01*
X0144643Y0105261D02*
X0150214Y0105261D01*
X0149866Y0104463D02*
X0144866Y0104463D01*
X0144866Y0103664D02*
X0149866Y0103664D01*
X0149866Y0102866D02*
X0144866Y0102866D01*
X0144866Y0102067D02*
X0149866Y0102067D01*
X0149866Y0101269D02*
X0144866Y0101269D01*
X0144866Y0100470D02*
X0149866Y0100470D01*
X0149866Y0099672D02*
X0144866Y0099672D01*
X0144866Y0098873D02*
X0149866Y0098873D01*
X0149866Y0098075D02*
X0144866Y0098075D01*
X0144866Y0097276D02*
X0149866Y0097276D01*
X0149866Y0096478D02*
X0144866Y0096478D01*
X0144866Y0095679D02*
X0149866Y0095679D01*
X0154000Y0095166D02*
X0154666Y0094499D01*
X0154000Y0095166D02*
X0154000Y0108500D01*
X0067886Y0033395D02*
X0066505Y0033395D01*
X0067642Y0032597D02*
X0062400Y0032597D01*
X0062400Y0031798D02*
X0067642Y0031798D01*
X0067642Y0031000D02*
X0062400Y0031000D01*
X0051142Y0139597D02*
X0050883Y0139597D01*
X0051142Y0140396D02*
X0050084Y0140396D01*
X0049286Y0141194D02*
X0051142Y0141194D01*
X0051383Y0141993D02*
X0048694Y0141993D01*
X0045500Y0143000D02*
X0045500Y0143500D01*
X0051510Y0155568D02*
X0056018Y0155568D01*
X0055500Y0156366D02*
X0052076Y0156366D01*
X0052642Y0157165D02*
X0055500Y0157165D01*
X0055500Y0157963D02*
X0053208Y0157963D01*
X0053774Y0158762D02*
X0055500Y0158762D01*
X0055500Y0159560D02*
X0054341Y0159560D01*
M02*
